<svg id="Layer_1" data-name="Layer 1" xmlns="http://www.w3.org/2000/svg" xmlns:xlink="http://www.w3.org/1999/xlink" viewBox="0 0 118.44362 136.42464">
  <defs>
    <radialGradient id="radial-gradient" cx="113.88847" cy="5.54566" r="160.48628" gradientUnits="userSpaceOnUse">
      <stop offset="0.0457" stop-color="#d85292"/>
      <stop offset="1" stop-color="#b369ab"/>
    </radialGradient>
    <radialGradient id="radial-gradient-2" cx="22.67414" cy="45.61421" r="96.39509" gradientUnits="userSpaceOnUse">
      <stop offset="0.06952" stop-color="#ee3d85"/>
      <stop offset="1" stop-color="#d85292"/>
    </radialGradient>
    <radialGradient id="radial-gradient-3" cx="93.43312" cy="116.62181" r="97.75743" gradientUnits="userSpaceOnUse">
      <stop offset="0.14152" stop-color="#f4793b"/>
      <stop offset="1" stop-color="#ee3d85"/>
    </radialGradient>
    <linearGradient id="linear-gradient" x1="84.98779" y1="115.23721" x2="5.69679" y2="66.21423" gradientUnits="userSpaceOnUse">
      <stop offset="0" stop-color="#f4793b"/>
      <stop offset="1" stop-color="#44c8f5"/>
    </linearGradient>
  </defs>
  <title>logo-2</title>
  <g>
    <path d="M116.95372,11.712a7.295,7.295,0,0,0-11.0448-9.49346L2.10119,121.03019A9.45486,9.45486,0,0,0,16.613,133.14987Z" fill="url(#radial-gradient)"/>
    <path d="M114.3662,13.84975A7.29894,7.29894,0,0,0,108.10462.66443L21.33917,43.33716a5.98245,5.98245,0,0,0,5.39941,10.6694Z" fill="url(#radial-gradient-2)"/>
    <path d="M28.10083,44.02978A5.9788,5.9788,0,0,0,19.451,52.18535l57.25558,71.0418a11.70231,11.70231,0,1,0,17.1709-15.8793Z" opacity="0.99688" fill="url(#radial-gradient-3)"/>
    <path d="M6.67182,62.93371a4.59787,4.59787,0,0,0-4.68514,7.8842l77.44051,54.74024a11.70315,11.70315,0,1,0,11.73035-20.24291Z" fill="url(#linear-gradient)"/>
    <rect x="26.05973" y="50.6476" width="51.25302" height="51.25303"/>
    <rect x="30.48062" y="92.29067" width="19.21988" height="3.20332" fill="#fff"/>
    <g>
      <path d="M33.20024,65.55107a3.14761,3.14761,0,0,0,2.29126-.84729,3.10339,3.10339,0,0,0,.82349-2.351V57.05418H34.01176v5.28668a0.97362,0.97362,0,0,1-.94281,1.16949,1.691,1.691,0,0,1-1.31274-.7757l-1.49164,1.4082A3.41141,3.41141,0,0,0,33.20024,65.55107Z" fill="#fff"/>
      <polygon points="43.63 63.439 39.143 63.439 39.143 62.114 43.153 62.114 43.153 60.288 39.143 60.288 39.143 59.011 43.57 59.011 43.57 57.054 36.852 57.054 36.852 65.408 43.63 65.408 43.63 63.439" fill="#fff"/>
      <polygon points="46.597 65.408 48.912 65.408 48.912 59.083 51.418 59.083 51.418 57.054 44.103 57.054 44.103 59.083 46.597 59.083 46.597 65.408" fill="#fff"/>
      <path d="M36.29106,71.34623a1.93362,1.93362,0,0,0,1.28888-1.86163V69.46067a1.87986,1.87986,0,0,0-.537-1.36041,3.12866,3.12866,0,0,0-2.27936-.73993H30.47935V75.714h4.30811c1.99286,0,3.16235-.87115,3.16235-2.30316V73.38688A2.02706,2.02706,0,0,0,36.29106,71.34623ZM32.73478,69.222h1.51563c0.68024,0,1.05017.25061,1.05017,0.716v0.02386c0,0.48926-.40576.728-1.10986,0.728H32.73478V69.222Zm2.8999,3.86652c0,0.48926-.3938.76373-1.1098,0.76373h-1.7901V72.31285H34.501c0.7757,0,1.13367.29834,1.13367,0.75183v0.02386Z" fill="#fff"/>
      <path d="M48.4152,67.3007l-3.12134,7.40924-1.30573-1.90778a2.64662,2.64662,0,0,0,1.71838-2.5777V70.2006a2.60845,2.60845,0,0,0-.73981-1.94525,3.69863,3.69863,0,0,0-2.72089-.895H38.29576V75.714h2.31512v-2.53h1.02631l1.68262,2.53h3.97363l0.59674-1.5036h3.234l0.59674,1.5036h2.48224L50.64683,67.3007H48.4152Zm-5.0238,3.07886a1.04926,1.04926,0,0,1-1.24109.99054H40.61088V69.35331h1.52747a1.04265,1.04265,0,0,1,1.25305,1.00244v0.0238Zm5.179,2.02881,0.94281-2.36292L50.444,72.40837h-1.8736Z" fill="#fff"/>
      <rect x="54.47728" y="67.36033" width="2.31512" height="8.35364" fill="#fff"/>
      <polygon points="62.962 71.776 59.525 67.36 57.365 67.36 57.365 75.714 59.656 75.714 59.656 71.131 63.236 75.714 65.253 75.714 65.253 67.36 62.962 67.36 62.962 71.776" fill="#fff"/>
      <path d="M69.58714,70.51084c-1.16956-.26251-1.45593-0.42957-1.45593-0.81146V69.67552c0-.3103.27448-0.537,0.83533-0.537a4.10069,4.10069,0,0,1,2.33905.82336L72.46312,68.327a5.2577,5.2577,0,0,0-3.43689-1.10986c-2.00488,0-3.23407,1.12183-3.23407,2.67316v0.02386c0,1.70654,1.37238,2.20776,3.15057,2.61353,1.14557,0.27448,1.42.45343,1.42,0.81152V73.363c0,0.358-.33417.57288-0.96661,0.57288a4.328,4.328,0,0,1-2.709-1.00244l-1.28876,1.53943a5.85673,5.85673,0,0,0,3.91418,1.38434c2.02875,0,3.37732-1.0144,3.37732-2.72089V73.11241C72.68992,71.54911,71.4965,70.92857,69.58714,70.51084Z" fill="#fff"/>
    </g>
  </g>
</svg>
