<?xml version="1.0" encoding="utf-8"?>
<!-- Generator: Adobe Illustrator 19.1.0, SVG Export Plug-In . SVG Version: 6.00 Build 0)  -->
<svg version="1.1" id="Foreground" xmlns="http://www.w3.org/2000/svg" xmlns:xlink="http://www.w3.org/1999/xlink" x="0px" y="0px"
	 viewBox="-272 404.2 145.5 32.7" style="enable-background:new -272 404.2 145.5 32.7;" xml:space="preserve">
<style type="text/css">
	.st0{fill:#F36E21;}
	.st1{fill:#FFFFFF;}
	.st2{fill:#231F20;}
</style>
<g>
	<path class="st0" d="M-267.5,425.5l7.4,1.2l13.4-1.6l5.3-1.4l1.8-0.9l-0.4-12.7c0,0-1.3-1.7-3.4-2.1c-6.4-1.2-21.3-2.3-21.3-2.3
		s-3.7-0.5-3.7,2C-268.4,414-267.5,425.5-267.5,425.5z"/>
	<path class="st1" d="M-260.2,422.3v-3l0.2-9.8l2.6,0.2v1.6c0.5-1.2,1.7-1.6,3-1.5c1.7,0.1,3,0.6,3.6,2.2c0.6-1.3,1.5-1.7,3-1.6
		c2.8,0.2,3.6,1.3,3.6,3.9v1.6v5l-1.8,0.3c0-1.7,0-3.4,0-5.1v-1.2c0-1.2-0.2-2.7-1.8-2.7c-0.6,0-1.5,0.1-1.9,0.6
		c-0.9,1.3-0.6,7.1-0.7,8.9c-0.7,0.1-1.4,0.1-2.1,0.2c0-1.3,0.2-8.3-0.1-9c-0.4-0.9-1.3-1.2-2.2-1.3c-3.4-0.2-2.7,4.8-2.7,6.8v3.8
		h-1.3L-260.2,422.3z"/>
	<path d="M-245.2,435.7c-1.4,0-2.8,0-4.3,0c-1,0-1.6-0.8-1.8-1.6c-0.4-3-0.6-6-0.6-9c2.3-0.2,4.5-0.6,6.6-1v0.1
		c0.4,0.9,1.1,1.6,2,2.1c0.6,0.3,2.5,0.6,5.6,0.6c1.3,0,2.4,0.1,3.1,0.1c2,0.1,3.2,0.4,3.7,0.8c0.5,0.5,0.7,1.4,0.7,2.7
		c0,1.4-0.3,2.4-0.9,2.9c-0.6,0.5-2.2,0.9-4.8,1.2c-2.5,0.2-4.2,0.1-5.1-0.4s-1.4-1.5-1.4-2.9v-0.5l-3.8,0.2v0.7
		C-246.1,433.4-245.8,434.7-245.2,435.7z M-228.2,418.2c1.3,0.3,2.5,0.6,3.7,0.9c0.5,0.2,0.8,0.8,0.8,1.3c0.3,3.7,0.3,7.3-0.1,11
		c-0.1,0.6-0.4,1.1-0.8,1.3c-1,0.3-2.1,0.6-3.2,0.9c0.3-0.8,0.5-1.9,0.5-3.4s-0.2-2.6-0.5-3.4c-0.3-0.8-0.9-1.4-1.7-1.8
		c-0.4-0.2-1-0.4-1.9-0.5c-0.9-0.1-2.3-0.2-4-0.4c-0.3,0-0.7,0-1.3-0.1c-2.3-0.1-3.8-0.3-4.5-0.7c-0.1-0.1-0.2-0.2-0.3-0.2
		c0.5-0.2,0.8-0.8,0.8-1.3c0.1-1.5,0.2-3,0.3-4.4c0.9-0.2,2.3-0.2,4.1-0.1c2.4,0.2,3.9,0.5,4.7,1c0.7,0.4,1.1,1.1,1.1,2v0.2l2.7,0.2
		C-227.8,419.7-228,418.9-228.2,418.2z"/>
	<path d="M-263.9,406.9c-0.9,0-1.4,0.8-1.5,1.5c-0.5,5.2-0.5,10.4,0.1,15.5c0.1,0.8,0.7,1.5,1.5,1.5c8.7,0.4,16.2-0.5,22.2-2.3
		c0.4-0.2,0.7-0.7,0.8-1.3c0.3-3.8,0.4-7.5,0.1-11.3c-0.1-0.6-0.3-1.2-0.8-1.3C-247.6,407.5-255.1,406.6-263.9,406.9z M-267.8,405.2
		c11.7,0,21.1,1.2,28.4,3.3c0.5,0.2,0.9,0.8,0.9,1.5c0.3,4.1,0.3,8.3-0.1,12.4c-0.1,0.6-0.4,1.3-0.9,1.5c-7.2,2.2-16.5,3.5-28.1,3.3
		c-1.1-0.1-1.8-0.9-2-1.8c-0.9-6.1-0.9-12.3-0.2-18.4C-269.7,406.1-268.9,405.2-267.8,405.2z"/>
</g>
<g>
	<path class="st2" d="M-206,430.4v-5.3c0-0.4,0-0.7-0.1-0.9c-0.1-0.2-0.2-0.4-0.3-0.6c-0.1-0.2-0.3-0.3-0.4-0.3
		c-0.2-0.1-0.3-0.1-0.5-0.1c-0.3,0-0.5,0.1-0.7,0.2c-0.2,0.1-0.4,0.3-0.5,0.5s-0.2,0.5-0.3,0.8c-0.1,0.3-0.1,0.6-0.1,0.9v4.8h-2.1
		v-5.3c0-0.7-0.1-1.2-0.4-1.5c-0.3-0.3-0.6-0.4-0.9-0.4c-0.3,0-0.5,0.1-0.7,0.2c-0.2,0.1-0.4,0.3-0.5,0.5s-0.2,0.5-0.3,0.8
		c-0.1,0.3-0.1,0.6-0.1,0.9v4.8h-2.1V422h2v1.3h0c0.5-1.1,1.3-1.7,2.6-1.7c0.6,0,1.1,0.1,1.4,0.4c0.4,0.3,0.7,0.7,0.9,1.2
		c0.3-0.5,0.7-0.9,1.2-1.2c0.5-0.3,1-0.4,1.6-0.4c0.8,0,1.4,0.2,1.9,0.6c0.5,0.4,0.7,1,0.7,1.9v6.3H-206z"/>
	<path class="st2" d="M-200.3,426.7c0,0.3,0,0.6,0.1,0.9c0.1,0.3,0.2,0.6,0.3,0.8c0.2,0.2,0.4,0.4,0.6,0.6s0.6,0.2,0.9,0.2
		c0.5,0,0.9-0.1,1.2-0.4c0.3-0.3,0.5-0.6,0.6-1.1h2.1c-0.1,0.6-0.3,1.1-0.6,1.5s-0.6,0.7-0.9,0.9c-0.3,0.2-0.7,0.4-1.1,0.5
		c-0.4,0.1-0.8,0.1-1.2,0.1c-0.7,0-1.4-0.1-1.9-0.4c-0.5-0.2-1-0.6-1.3-1c-0.3-0.4-0.6-0.9-0.8-1.5c-0.2-0.6-0.3-1.1-0.3-1.8
		c0-0.6,0.1-1.2,0.3-1.8c0.2-0.6,0.4-1,0.8-1.5c0.3-0.4,0.8-0.8,1.3-1s1.1-0.4,1.8-0.4c0.8,0,1.5,0.1,2,0.4c0.5,0.3,1,0.6,1.3,1.1
		c0.3,0.5,0.5,1,0.7,1.6c0.1,0.6,0.2,1.3,0.1,2H-200.3z M-196.3,425.1c-0.1-0.6-0.2-1.1-0.5-1.4c-0.3-0.3-0.7-0.5-1.3-0.5
		c-0.7,0-1.2,0.2-1.5,0.5c-0.3,0.3-0.5,0.8-0.6,1.4H-196.3z"/>
	<path class="st2" d="M-187,430.4v-1.3h0c-0.2,0.5-0.6,0.9-1.1,1.2c-0.5,0.3-1.1,0.4-1.6,0.4c-0.4,0-0.8-0.1-1.2-0.3
		c-0.4-0.2-0.8-0.5-1.1-0.9c-0.3-0.4-0.6-0.9-0.8-1.4c-0.2-0.6-0.3-1.2-0.3-2c0-0.8,0.1-1.4,0.3-2c0.2-0.6,0.5-1.1,0.8-1.4
		s0.7-0.7,1.1-0.9c0.4-0.2,0.8-0.3,1.2-0.3c0.6,0,1.1,0.1,1.5,0.4c0.4,0.3,0.8,0.7,1.1,1.1h0v-5.7h2.1v13H-187z M-187,426.2
		c0-0.3,0-0.6-0.1-1c-0.1-0.4-0.2-0.7-0.3-1c-0.2-0.3-0.4-0.6-0.6-0.8c-0.3-0.2-0.6-0.3-1-0.3c-0.3,0-0.6,0.1-0.8,0.3
		c-0.2,0.2-0.4,0.4-0.6,0.7s-0.3,0.6-0.4,1c-0.1,0.4-0.1,0.7-0.1,1.1c0,0.4,0,0.7,0.1,1.1c0.1,0.4,0.2,0.7,0.4,1
		c0.2,0.3,0.4,0.5,0.6,0.7c0.2,0.2,0.5,0.3,0.8,0.3c0.4,0,0.7-0.1,1-0.3c0.3-0.2,0.5-0.4,0.6-0.7c0.2-0.3,0.3-0.6,0.3-1
		C-187.1,426.8-187,426.5-187,426.2z"/>
	<path class="st2" d="M-183.1,420.3v-2.2h2.1v2.2H-183.1z M-181,422v8.4h-2.1V422H-181z"/>
	<path class="st2" d="M-173.7,430.4c-0.1-0.2-0.2-0.4-0.2-0.7c-0.1-0.2-0.1-0.5,0-0.7h0c-0.3,0.5-0.7,1-1.1,1.3
		c-0.5,0.3-1,0.5-1.6,0.5c-0.9,0-1.6-0.3-2.2-0.8c-0.5-0.5-0.8-1.2-0.8-2c0-0.7,0.1-1.2,0.4-1.6c0.3-0.4,0.6-0.6,1.1-0.8
		c0.4-0.2,0.9-0.3,1.4-0.3c0.5,0,0.9-0.1,1.4-0.1c0.4,0,0.8-0.1,1.1-0.3c0.3-0.1,0.4-0.4,0.4-0.7c0-0.4-0.2-0.7-0.5-0.8
		c-0.3-0.2-0.7-0.2-1.2-0.2c-0.2,0-0.3,0-0.5,0.1c-0.2,0-0.3,0.1-0.5,0.2c-0.1,0.1-0.3,0.2-0.4,0.3c-0.1,0.1-0.1,0.3-0.1,0.5h-2
		c0-0.5,0.1-0.9,0.3-1.3c0.2-0.3,0.5-0.6,0.8-0.8c0.3-0.2,0.7-0.4,1.1-0.4c0.4-0.1,0.9-0.1,1.3-0.1c1.3,0,2.2,0.3,2.9,0.9
		c0.6,0.6,0.9,1.6,0.9,2.9v3.4c0,0.5,0,0.8,0.1,1c0.1,0.2,0.2,0.4,0.4,0.6H-173.7z M-175.9,429.2c0.5,0,1-0.1,1.2-0.3
		s0.5-0.5,0.6-0.9s0.2-0.7,0.2-1.2c0-0.4,0-0.8,0-1.2h0c-0.1,0.2-0.3,0.4-0.5,0.5c-0.2,0.1-0.4,0.2-0.7,0.3
		c-0.3,0.1-0.5,0.1-0.8,0.2s-0.5,0.1-0.7,0.2c-0.2,0.1-0.4,0.2-0.5,0.4c-0.1,0.2-0.2,0.4-0.2,0.7c0,0.5,0.1,0.8,0.4,1
		C-176.7,429.1-176.4,429.2-175.9,429.2z"/>
	<path class="st2" d="M-166.3,427.9c0,0.3,0.1,0.5,0.2,0.6s0.2,0.3,0.4,0.4c0.2,0.1,0.4,0.2,0.6,0.2c0.2,0,0.4,0.1,0.7,0.1
		c0.5,0,1-0.1,1.3-0.3c0.3-0.2,0.5-0.4,0.5-0.7c0-0.3-0.1-0.5-0.4-0.6c-0.3-0.1-0.6-0.3-1-0.3c-0.4-0.1-0.8-0.2-1.3-0.3
		c-0.5-0.1-0.9-0.2-1.3-0.4c-0.4-0.2-0.7-0.5-1-0.8c-0.3-0.3-0.4-0.8-0.4-1.4c0-0.5,0.1-0.9,0.4-1.2c0.2-0.3,0.5-0.6,0.9-0.8
		c0.4-0.2,0.8-0.4,1.2-0.5c0.4-0.1,0.9-0.2,1.3-0.2c0.5,0,0.9,0.1,1.4,0.2c0.4,0.1,0.8,0.3,1.1,0.5c0.3,0.2,0.6,0.5,0.8,0.9
		c0.2,0.4,0.3,0.8,0.3,1.3h-2c0-0.4-0.2-0.7-0.5-1c-0.3-0.2-0.7-0.3-1.2-0.3c-0.2,0-0.3,0-0.5,0c-0.2,0-0.4,0.1-0.5,0.2
		c-0.2,0.1-0.3,0.2-0.4,0.3c-0.1,0.1-0.2,0.3-0.2,0.5c0,0.3,0.1,0.5,0.4,0.6c0.3,0.1,0.6,0.2,1,0.3c0.4,0.1,0.8,0.1,1.3,0.2
		c0.5,0.1,0.9,0.2,1.3,0.4c0.4,0.2,0.7,0.4,1,0.8c0.3,0.3,0.4,0.8,0.4,1.4c0,0.6-0.1,1-0.4,1.4c-0.3,0.4-0.6,0.7-1,0.9
		c-0.4,0.2-0.8,0.4-1.2,0.5c-0.4,0.1-0.8,0.1-1.2,0.1c-0.5,0-1.1-0.1-1.5-0.2c-0.5-0.1-0.9-0.3-1.3-0.5c-0.4-0.2-0.7-0.5-0.9-0.9
		c-0.2-0.4-0.4-0.8-0.4-1.3v0H-166.3z"/>
	<path class="st2" d="M-151.5,422v8.4h-2.1V429h0c-0.3,0.6-0.7,1-1.2,1.3c-0.5,0.3-1.1,0.4-1.7,0.4c-0.4,0-0.8-0.1-1.2-0.2
		s-0.6-0.3-0.9-0.6c-0.2-0.3-0.4-0.6-0.6-1c-0.1-0.4-0.2-0.9-0.2-1.5V422h2.1v5.3c0,0.5,0.1,1,0.4,1.3c0.2,0.4,0.7,0.5,1.3,0.5
		c0.6,0,1.1-0.2,1.4-0.6c0.3-0.4,0.5-1,0.5-1.7V422H-151.5z"/>
	<path class="st2" d="M-149.6,420.3v-2.2h2.1v2.2H-149.6z M-147.5,422v8.4h-2.1V422H-147.5z"/>
	<path class="st2" d="M-143.2,419v3h2v1.7h-2v3.5c0,0.3,0,0.5,0,0.7c0,0.2,0.1,0.3,0.2,0.5c0.1,0.1,0.2,0.2,0.3,0.2
		c0.1,0,0.3,0.1,0.6,0.1c0.1,0,0.3,0,0.4,0c0.1,0,0.3,0,0.4,0v1.8c-0.3,0-0.5,0-0.8,0c-0.2,0-0.5,0-0.8,0c-0.6,0-1.1-0.1-1.4-0.2
		c-0.3-0.1-0.6-0.3-0.8-0.5c-0.2-0.2-0.3-0.6-0.3-1c0-0.4-0.1-0.9-0.1-1.5v-3.6h-1.1V422h1.1v-3H-143.2z"/>
	<path class="st2" d="M-138.8,426.7c0,0.3,0,0.6,0.1,0.9c0.1,0.3,0.2,0.6,0.3,0.8c0.2,0.2,0.4,0.4,0.6,0.6c0.2,0.2,0.6,0.2,0.9,0.2
		c0.5,0,0.9-0.1,1.2-0.4c0.3-0.3,0.5-0.6,0.6-1.1h2.1c-0.1,0.6-0.3,1.1-0.6,1.5c-0.3,0.4-0.6,0.7-0.9,0.9c-0.3,0.2-0.7,0.4-1.1,0.5
		c-0.4,0.1-0.8,0.1-1.2,0.1c-0.7,0-1.4-0.1-1.9-0.4c-0.5-0.2-1-0.6-1.3-1c-0.3-0.4-0.6-0.9-0.8-1.5s-0.3-1.1-0.3-1.8
		c0-0.6,0.1-1.2,0.3-1.8c0.2-0.6,0.4-1,0.8-1.5c0.3-0.4,0.8-0.8,1.3-1c0.5-0.2,1.1-0.4,1.8-0.4c0.8,0,1.5,0.1,2,0.4
		c0.5,0.3,1,0.6,1.3,1.1c0.3,0.5,0.5,1,0.7,1.6c0.1,0.6,0.2,1.3,0.1,2H-138.8z M-134.8,425.1c-0.1-0.6-0.2-1.1-0.5-1.4
		c-0.3-0.3-0.7-0.5-1.3-0.5c-0.7,0-1.2,0.2-1.5,0.5c-0.3,0.3-0.5,0.8-0.6,1.4H-134.8z"/>
</g>
</svg>
