<svg xmlns="http://www.w3.org/2000/svg" xmlns:xlink="http://www.w3.org/1999/xlink" version="1.1" x="0px" y="0px" viewBox="0 0 100 125" enable-background="new 0 0 100 100" xml:space="preserve"><path fill="#1A171B" d="M2.3,88.441c-0.517,0-0.771-0.391-0.771-0.77v-7.857c0-0.525,0.254-0.77,0.771-0.77  c0.254,0,0.781,0.244,0.781,0.77v7.857C3.081,88.051,2.554,88.441,2.3,88.441z"/><path fill="#1A171B" d="M94.008,58.51H32.739c-0.517,0-0.771-0.365-0.771-0.756V13.375c0-0.386,0.254-0.639,0.771-0.639h61.269  c0.399,0,0.662,0.253,0.662,0.639v44.379C94.67,58.145,94.407,58.51,94.008,58.51z M33.52,56.983h59.726V14.15H33.52V56.983z"/><path fill="#1A171B" d="M87.439,52.338H39.322c-0.522,0-0.771-0.385-0.771-0.775V20.226c0-0.39,0.249-0.776,0.771-0.776h48.118  c0.381,0,0.654,0.386,0.654,0.776v31.337C88.094,51.953,87.82,52.338,87.439,52.338z M40.098,50.791h46.561V20.997H40.098V50.791z"/><path fill="#1A171B" d="M98.154,54.412c-0.527,0-0.78-0.405-0.78-0.78v-43.61H36.861c-0.385,0-0.639-0.253-0.639-0.771  c0-0.39,0.253-0.645,0.639-0.645h61.293c0.381,0,0.635,0.254,0.635,0.645v44.38C98.789,54.007,98.535,54.412,98.154,54.412z"/><path fill="#1A171B" d="M93.988,58.51c-0.248,0-0.373-0.108-0.62-0.228c-0.247-0.261-0.247-0.755,0-1.011l4.152-4.015  c0.248-0.242,0.629-0.242,1.002,0c0.266,0.243,0.266,0.755,0,1.002l-4.021,4.023C94.378,58.401,94.13,58.51,93.988,58.51z"/><path fill="#1A171B" d="M94.008,14.15c-0.254,0-0.382,0-0.635-0.254c-0.254-0.254-0.254-0.639,0-1.024l3.955-3.976  c0.254-0.25,0.645-0.25,1.026,0c0.272,0.268,0.272,0.775,0,1.039l-3.82,3.961C94.407,14.15,94.153,14.15,94.008,14.15z"/><path fill="#1A171B" d="M32.739,14.15c-0.249,0-0.38,0-0.517-0.254c-0.386-0.254-0.254-0.522,0-1.024l4.138-4.143  c0.254-0.25,0.776-0.25,1.029,0c0.25,0.268,0.25,0.775,0,1.039l-4.123,4.128C33.129,14.15,32.875,14.15,32.739,14.15z"/><path fill="#1A171B" d="M67.832,81.084L67.832,81.084L2.3,80.459c-0.249,0-0.771-0.137-0.771-0.527c0-0.254,0-0.643,0.254-0.762  l30.439-22.074c0.391-0.112,0.908-0.112,1.044,0.273c0.253,0.254,0.253,0.775-0.137,1.029L4.623,79.045l62.82,0.506L93.51,57.236  c0.244-0.253,0.771-0.253,1.024,0c0.254,0.387,0.254,0.771-0.127,1.162L68.214,80.85C68.096,80.986,67.96,81.084,67.832,81.084z"/><path fill="#1A171B" d="M67.832,88.969L67.832,88.969L2.3,88.441c-0.517,0-0.771-0.391-0.771-0.77c0-0.381,0.254-0.762,0.771-0.762  l0,0l65.143,0.518l25.803-22.076v-9.398c0-0.521,0.265-0.775,0.763-0.775c0.399,0,0.662,0.254,0.662,0.775v9.672  c0,0.254,0,0.518-0.263,0.645L68.214,88.844C68.096,88.844,67.96,88.969,67.832,88.969z"/><path fill="#1A171B" d="M67.832,88.969c-0.507,0-0.78-0.391-0.78-0.771v-7.875c0-0.391,0.273-0.771,0.78-0.771  c0.382,0,0.655,0.381,0.655,0.771v7.875C68.487,88.578,68.214,88.969,67.832,88.969z"/><path fill="#1A171B" d="M66.027,75.697H18.305c-0.385,0-0.659-0.146-0.775-0.527c-0.132-0.244,0-0.645,0.253-0.771l16.508-12.521  c0.136-0.117,0.253-0.117,0.522-0.117h46.039c0.273,0,0.526,0.117,0.654,0.508c0.126,0.264,0,0.508-0.264,0.762L66.418,75.551  C66.281,75.697,66.163,75.697,66.027,75.697z M20.496,74.135h45.141l13.166-10.959H35.067L20.496,74.135z"/><path fill="#1A171B" d="M75.526,67.293H29.702c-0.398,0-0.66-0.381-0.66-0.77c0-0.381,0.262-0.771,0.66-0.771h45.824  c0.525,0,0.807,0.391,0.807,0.771C76.333,66.912,76.052,67.293,75.526,67.293z"/><path fill="#1A171B" d="M70.774,71.314H23.981c-0.389,0-0.666-0.41-0.666-0.791c0-0.379,0.289-0.502,0.666-0.77h46.793  c0.531,0,0.788,0.391,0.788,0.77C71.563,70.904,71.306,71.314,70.774,71.314z"/><path fill="#1A171B" d="M27.967,75.697c-0.254,0-0.507-0.146-0.644-0.264c-0.254-0.264-0.254-0.791,0.137-1.035l14.576-12.521  c0.329-0.134,0.726-0.117,1.024,0.139c0.279,0.239,0.268,0.76-0.118,1.014l-14.59,12.521C28.23,75.697,28.098,75.697,27.967,75.697z  "/><path fill="#1A171B" d="M35.198,75.697c-0.263,0-0.386-0.146-0.518-0.264c-0.254-0.264-0.254-0.791,0-1.035l14.566-12.521  c0.456-0.117,0.781-0.254,1.162,0.139c0.264,0.252,0.136,0.76-0.123,1.014l-14.58,12.521C35.589,75.697,35.315,75.697,35.198,75.697  z"/><path fill="#1A171B" d="M43.195,75.697c-0.253,0-0.522-0.146-0.643-0.264c-0.269-0.264-0.269-0.791,0.121-1.035l14.59-12.521  c0.361-0.117,0.771-0.254,1.025,0.139c0.254,0.252,0.254,0.76-0.138,1.014L43.577,75.551C43.444,75.697,43.328,75.697,43.195,75.697  z"/><path fill="#1A171B" d="M50.408,75.697c-0.249,0-0.381-0.146-0.507-0.264c-0.265-0.264-0.265-0.791,0-1.035l14.575-12.521  c0.44-0.117,0.781-0.254,1.161,0.139c0.254,0.252,0.137,0.76-0.126,1.014L50.935,75.551C50.798,75.697,50.544,75.697,50.408,75.697z  "/><path fill="#1A171B" d="M57.766,75.697c-0.249,0-0.502-0.146-0.639-0.264c-0.253-0.264-0.253-0.791,0.137-1.035l14.571-12.521  c0.289-0.153,0.769-0.081,1.024,0.139c0.282,0.242,0.273,0.76-0.118,1.014l-14.59,12.521C58.034,75.697,57.898,75.697,57.766,75.697  z"/><circle fill="none" stroke="#1A171B" stroke-width="1.5" stroke-miterlimit="10" cx="67.916" cy="33.041" r="5.697"/><line fill="none" stroke="#1A171B" stroke-width="1.5" stroke-linecap="round" stroke-linejoin="round" stroke-miterlimit="10" x1="62.445" y1="35.738" x2="52.488" y2="40.978"/><line fill="none" stroke="#1A171B" stroke-width="1.5" stroke-linecap="round" stroke-linejoin="round" stroke-miterlimit="10" x1="54.308" y1="35.793" x2="57.766" y2="42.273"/><text x="0" y="115" fill="#000000" font-size="5px" font-weight="bold" font-family="'Helvetica Neue', Helvetica, Arial-Unicode, Arial, Sans-serif">Created by Soysoft</text><text x="0" y="120" fill="#000000" font-size="5px" font-weight="bold" font-family="'Helvetica Neue', Helvetica, Arial-Unicode, Arial, Sans-serif">from the Noun Project</text></svg>