<?xml version="1.0" encoding="utf-8"?>
<!-- Generator: Adobe Illustrator 17.0.0, SVG Export Plug-In . SVG Version: 6.00 Build 0)  -->
<!DOCTYPE svg PUBLIC "-//W3C//DTD SVG 1.1//EN" "http://www.w3.org/Graphics/SVG/1.1/DTD/svg11.dtd">
<svg version="1.1" id="Layer_1" xmlns="http://www.w3.org/2000/svg" xmlns:xlink="http://www.w3.org/1999/xlink" x="0px" y="0px"
	 width="3072px" height="770px" viewBox="0 0 3072 770" enable-background="new 0 0 3072 770" xml:space="preserve">
<path fill="#3D474D" d="M1184.942,576.03c-7.568,0-14.633-5.046-13.119-15.138l25.229-181.647
	c4.541-32.293-17.66-58.026-49.954-58.026c-32.293,0-61.559,25.733-66.1,58.026l-25.229,181.647
	c-1.514,10.597-10.091,15.643-17.66,15.643s-14.128-5.046-12.615-15.643l25.229-181.647c4.542-32.293-17.66-58.026-49.953-58.026
	s-61.559,25.733-66.1,58.026l-25.229,181.647c-1.514,10.092-9.587,15.138-17.155,15.138c-7.569,0-14.633-5.046-13.119-15.138
	l25.229-181.647c7.064-48.944,51.972-88.301,100.916-88.301c30.274,0,55.503,15.642,67.613,38.852
	c19.174-23.21,48.439-38.852,78.714-38.852c48.945,0,82.751,39.356,75.687,88.301l-25.229,181.647
	C1200.585,570.984,1192.512,576.03,1184.942,576.03z"/>
<path fill="#3D474D" d="M1441.812,439.794h-151.373l-5.551,42.89c-5.55,36.329,24.725,68.118,63.577,68.118
	c19.174,0,42.889-5.551,60.045-24.22c4.541-4.542,9.587-6.56,13.623-6.56c8.073,0,14.633,6.56,13.624,14.633
	c-0.505,3.027-2.019,6.56-4.541,9.587c-22.706,25.229-56.513,36.834-87.292,36.834c-52.98,0-97.384-42.89-89.311-98.393
	l13.119-93.347c7.568-54.495,57.521-98.393,112.017-98.393c54.494,0,92.337,43.897,84.769,98.393l-5.046,35.32
	C1457.958,432.73,1449.885,439.794,1441.812,439.794z M1434.243,389.337c5.046-37.844-21.192-68.118-59.036-68.118
	c-37.843,0-72.154,30.274-77.2,68.118l-3.027,20.183h136.236L1434.243,389.337z"/>
<path fill="#3D474D" d="M1497.721,576.03c-7.569,0-14.633-5.046-13.119-15.138l34.815-249.766
	c1.514-10.092,10.092-15.138,17.66-15.138c7.569,0,14.129,5.046,12.615,15.138l-34.816,249.766
	C1513.362,570.984,1505.289,576.03,1497.721,576.03z M1551.71,188.515c11.101,0,19.174,9.082,17.66,20.184
	c-1.514,11.101-12.109,20.183-23.21,20.183s-18.67-9.082-17.156-20.183C1530.518,197.597,1540.609,188.515,1551.71,188.515z"/>
<path fill="#3D474D" d="M1626.892,581.076c-25.733,0-59.541-11.605-71.65-34.816c-1.514-3.027-2.522-6.055-2.019-8.577
	c1.514-8.578,9.587-15.138,17.66-15.138c4.542,0,8.578,1.514,11.605,6.56c0,0,0.505,1.009,2.019,2.523
	c10.596,13.118,28.761,19.174,46.926,19.174c39.356,0,66.604-22.706,70.136-49.449c10.092-71.649-135.227-45.412-122.107-138.254
	c6.56-47.935,51.972-72.154,91.833-72.154c28.257,0,59.54,15.137,71.65,39.861c1.009,2.522,1.514,5.55,1.009,8.578
	c-1.009,8.073-10.092,14.633-17.66,14.633c-4.541,0-8.578-2.019-11.605-7.064c0,0-0.504-1.01-2.019-3.532
	c-10.091-13.624-26.742-22.201-45.916-22.201c-30.274,0-53.485,17.155-57.018,41.88c-9.082,62.567,136.236,39.357,122.108,138.254
	C1725.284,550.297,1676.845,581.076,1626.892,581.076z"/>
<path fill="#3D474D" d="M1914.899,562.911c-16.651,11.101-36.835,18.165-56.009,18.165c-44.402,0-72.154-30.779-66.604-71.146
	l25.734-183.666h-45.917c-10.092,0-14.128-7.569-13.119-15.138s7.568-15.138,17.66-15.138h45.917l8.577-64.081
	c1.514-10.092,10.092-15.138,17.66-15.138c7.569,0,14.129,5.046,12.615,15.138l-8.578,64.081h89.311
	c10.091,0,13.623,7.569,12.614,15.138c-1.01,7.568-7.064,15.138-17.156,15.138h-89.31l-25.733,183.666
	c-3.027,22.201,11.605,40.871,40.87,40.871c27.752,0,39.862-18.165,51.468-18.165c8.072,0,13.118,7.568,12.109,15.642
	C1926,554.838,1920.449,558.875,1914.899,562.911z"/>
<path fill="#3D474D" d="M2129.894,439.794H1978.52l-5.55,42.89c-5.551,36.329,24.725,68.118,63.576,68.118
	c19.175,0,42.89-5.551,60.045-24.22c4.541-4.542,9.587-6.56,13.624-6.56c8.073,0,14.633,6.56,13.623,14.633
	c-0.504,3.027-2.018,6.56-4.541,9.587c-22.706,25.229-56.513,36.834-87.292,36.834c-52.98,0-97.383-42.89-89.31-98.393
	l13.118-93.347c7.569-54.495,57.522-98.393,112.017-98.393s92.338,43.897,84.77,98.393l-5.046,35.32
	C2146.04,432.73,2137.967,439.794,2129.894,439.794z M2122.324,389.337c5.046-37.844-21.192-68.118-59.035-68.118
	c-37.844,0-72.154,30.274-77.2,68.118l-3.027,20.183h136.235L2122.324,389.337z"/>
<path fill="#3D474D" d="M2340.253,341.401c-3.532,0-7.064-1.514-10.092-4.541c0,0-1.009-1.009-2.019-2.019
	c-9.587-8.577-23.21-13.623-37.338-13.623c-36.33,0-61.559,26.238-67.614,71.649l-23.715,168.024
	c-1.514,10.092-9.587,15.138-17.155,15.138c-7.569,0-14.633-5.046-13.119-15.138l23.715-168.024
	c7.569-56.008,43.898-101.924,102.43-101.924c20.688,0,45.916,9.082,59.035,24.724c3.027,3.532,4.037,7.064,3.532,10.597
	C2356.904,334.338,2348.831,341.401,2340.253,341.401z"/>
<path fill="#17C3E6" d="M2390.554,581.076c-1.514,0-4.036,0-6.055-1.009c0,0-2.523-1.01-7.064-4.542
	c-24.22-16.65-30.274-48.439-25.733-78.714l41.88-299.215c1.514-10.091,9.587-15.137,17.156-15.137
	c7.568,0,14.633,5.046,13.119,15.137l-41.881,299.215c-3.027,18.67-0.504,46.421,17.661,54.999
	c6.055,3.027,8.577,8.578,7.568,14.128C2406.196,573.508,2399.132,581.076,2390.554,581.076z"/>
<path fill="#17C3E6" d="M2510.684,581.076c-47.935,0-87.796-28.257-80.228-81.237c7.063-50.458,52.98-75.182,99.906-84.769
	l66.604-13.624l3.532-23.715c4.541-33.807-11.605-56.513-52.477-56.513c-19.174,0-32.293,6.055-43.898,14.128
	s-15.137,16.146-25.733,16.146c-7.568,0-13.623-6.055-12.614-14.633c1.009-5.55,5.046-10.596,9.082-14.633
	c21.192-20.688,49.953-31.283,77.705-31.283c57.018,0,85.273,36.329,78.21,86.787l-16.651,116.558
	C2607.058,546.26,2559.628,581.076,2510.684,581.076z M2592.93,431.721l-67.108,14.129c-35.825,7.568-61.559,27.751-65.091,53.485
	c-4.541,31.283,17.155,51.467,53.99,51.467c35.32,0,64.586-23.716,69.127-56.513L2592.93,431.721z"/>
<path fill="#17C3E6" d="M2741.129,581.076c-54.494,0-92.338-43.898-84.265-98.393l39.861-285.087
	c1.514-10.091,9.587-15.137,17.156-15.137c7.568,0,14.633,5.046,13.119,15.137l-17.66,125.136
	c19.678-18.67,45.916-31.788,72.658-31.788c54.495,0,92.338,43.897,84.77,98.393l-13.119,93.347
	C2845.576,537.178,2795.623,581.076,2741.129,581.076z M2836.494,389.337c5.046-37.844-21.192-68.118-59.036-68.118
	c-37.843,0-72.154,30.274-77.2,68.118l-13.119,93.347c-5.55,37.843,20.688,68.118,58.531,68.118s72.154-30.275,77.705-68.118
	L2836.494,389.337z"/>
<path fill="#17C3E6" d="M2948.913,581.076c-25.733,0-59.541-11.605-71.65-34.816c-1.514-3.027-2.522-6.055-2.019-8.577
	c1.514-8.578,9.587-15.138,17.66-15.138c4.542,0,8.578,1.514,11.605,6.56c0,0,0.505,1.009,2.019,2.523
	c10.596,13.118,28.761,19.174,46.926,19.174c39.356,0,66.604-22.706,70.136-49.449c10.092-71.649-135.227-45.412-122.107-138.254
	c6.56-47.935,51.972-72.154,91.833-72.154c28.257,0,59.54,15.137,71.65,39.861c1.009,2.522,1.514,5.55,1.009,8.578
	c-1.009,8.073-10.092,14.633-17.66,14.633c-4.541,0-8.578-2.019-11.605-7.064c0,0-0.504-1.01-2.019-3.532
	c-10.091-13.624-26.742-22.201-45.916-22.201c-30.274,0-53.485,17.155-57.018,41.88c-9.082,62.567,136.236,39.357,122.108,138.254
	C3047.306,550.297,2998.866,581.076,2948.913,581.076z"/>
<g>
	<g>
		<path fill="#17C3E6" d="M803.733,297.522H551.401l13.063-24.51c1.168,0.233,2.357,0.352,3.547,0.352
			c6.812,0,13.014-3.743,16.183-9.769l3.039-5.776c2.273-4.32,2.727-9.266,1.28-13.929c-1.448-4.661-4.625-8.481-8.945-10.754
			l-115.522-60.779c-2.089-1.099-4.383-1.776-6.72-2.008L404.372,7.369l-94.277,290.153H5.01l246.818,179.324L157.553,767
			l246.818-179.325L651.19,767l-94.275-290.153L803.733,297.522z"/>
		<path fill="#17C3E6" d="M502.561,164.916c1.355,0.184,2.732,0.278,4.09,0.278c14.921,0.001,27.692-11.168,29.707-25.979
			c1.081-7.946-0.996-15.838-5.85-22.221s-11.904-10.495-19.85-11.576c-1.356-0.184-2.733-0.278-4.091-0.278
			c-14.92,0-27.692,11.168-29.706,25.979c-1.081,7.946,0.996,15.838,5.85,22.221S494.615,163.835,502.561,164.916z"/>
	</g>
</g>
<g>
	<path fill="#FFFFFF" d="M686.641,335.568H531.124l-81.291,152.521c-12.216,23.218-36.141,37.657-62.422,37.657
		c-0.001,0-0.002,0-0.003,0c-11.339,0-22.669-2.808-32.765-8.12c-34.397-18.098-47.658-60.806-29.562-95.204l108.19-202.99
		l-28.9-88.944l-66.635,205.081H122.103l174.452,126.747l-66.635,205.08l174.452-126.747l174.452,126.747l-66.635-205.08
		L686.641,335.568z"/>
	<circle fill="#FFFFFF" cx="435.526" cy="312.33" r="6.716"/>
	<circle fill="#FFFFFF" cx="415.418" cy="401.182" r="5.037"/>
	<circle fill="#FFFFFF" cx="500.257" cy="123.764" r="11.94"/>
	<path fill="#FFFFFF" d="M479.237,223.118l-5.746-3.023l-22.445-11.809l-0.866,1.625l-12.426,23.315L334.312,427.308
		c-15.404,29.278-4.107,65.659,25.193,81.076c8.603,4.526,18.252,6.919,27.904,6.919c22.394,0.001,42.777-12.299,53.196-32.101
		l1.913-3.588l-32.08-17.155l1.399-2.616l1.399-2.616l32.072,17.151l26.986-50.633l-32.117-17.175l2.798-5.231l32.11,17.171
		l26.987-50.633l-32.154-17.196l1.399-2.615l1.399-2.616l32.147,17.192l14.429-27.073l10.139-19.023l2.419-4.538l-27.086-14.484
		l-5.107-2.731l1.399-2.616l1.399-2.616l14.889,7.962l17.296,9.249l4.93-9.249l17.759-33.32l-32.953-17.337
		c0.009-0.065,0.022-0.129,0.031-0.194c0.12-0.879,0.192-1.753,0.226-2.621c0.039-1.001,0.022-1.994-0.048-2.975l39.897,20.991
		c1.111,0.565,2.298,0.857,3.533,0.857c2.922,0,5.582-1.605,6.941-4.188l3.039-5.777c0.974-1.851,1.169-3.971,0.549-5.969
		c-0.62-1.998-1.982-3.635-3.833-4.609l-113.354-59.639l-2.168-1.141c-1.14-0.6-2.363-0.903-3.635-0.903
		c-2.924,0-5.584,1.605-6.943,4.188l-3.039,5.776c-0.424,0.806-0.692,1.665-0.817,2.541c-0.163,1.135-0.082,2.301,0.268,3.428
		c0.372,1.197,1.014,2.26,1.863,3.132c0.569,0.584,1.228,1.085,1.97,1.476l0.641,0.337l0.003-0.006l21.682,11.408l12.71,6.687
		c-0.856,0.504-1.683,1.054-2.477,1.647C480.655,221.875,479.93,222.479,479.237,223.118z M427.25,405.596
		c-0.749,5.503-5.493,9.654-11.038,9.654c-0.505,0-1.017-0.035-1.521-0.104c-6.096-0.83-10.38-6.464-9.55-12.559
		c0.749-5.503,5.494-9.654,11.037-9.654c0.505,0,1.017,0.035,1.522,0.104c2.953,0.402,5.573,1.93,7.377,4.301
		C426.881,399.71,427.652,402.642,427.25,405.596z M453.75,319.917c-1.057,7.768-7.755,13.625-15.579,13.624
		c-0.712,0-1.435-0.049-2.147-0.146c-8.603-1.17-14.65-9.122-13.479-17.725c1.057-7.767,7.755-13.624,15.58-13.624
		c0.712,0,1.434,0.049,2.147,0.146c4.168,0.567,7.865,2.723,10.411,6.071C453.228,311.61,454.318,315.749,453.75,319.917z
		 M484.223,225.741c0.782-0.605,1.601-1.16,2.459-1.656c0.934-0.54,1.905-1.018,2.915-1.416c2.473-0.976,5.152-1.517,7.936-1.517
		c0.989,0,1.991,0.068,2.98,0.202c9.23,1.256,16.337,8.136,18.343,16.708c0.245,1.049,0.414,2.122,0.502,3.214
		c0.078,0.976,0.088,1.967,0.032,2.967c-0.032,0.572-0.081,1.147-0.159,1.724c-1.469,10.786-10.769,18.92-21.634,18.919
		c-0.99,0-1.992-0.068-2.98-0.202c-2.647-0.36-5.146-1.202-7.428-2.433c-2.709-1.46-5.109-3.475-7.027-5.997
		c-3.535-4.649-5.049-10.396-4.262-16.183c0.314-2.306,1.004-4.48,1.973-6.49C479.364,230.487,481.55,227.811,484.223,225.741z"/>
	<path fill="#FFFFFF" d="M492.544,244.29c4.9,0.667,9.414-2.765,10.081-7.666c0.033-0.241,0.048-0.48,0.061-0.719
		c0.061-1.095-0.082-2.159-0.395-3.158c-1.006-3.21-3.778-5.72-7.332-6.204c-1.335-0.182-2.637-0.05-3.845,0.323
		c-1.029,0.318-1.988,0.812-2.83,1.461c-1.798,1.387-3.075,3.453-3.406,5.881C484.212,239.11,487.644,243.623,492.544,244.29z"/>
</g>
</svg>
