<?xml version="1.0" encoding="utf-8"?>
<!-- Generator: Adobe Illustrator 16.0.0, SVG Export Plug-In . SVG Version: 6.00 Build 0)  -->
<!DOCTYPE svg PUBLIC "-//W3C//DTD SVG 1.1//EN" "http://www.w3.org/Graphics/SVG/1.1/DTD/svg11.dtd">
<svg version="1.1" id="Layer_1" xmlns="http://www.w3.org/2000/svg" xmlns:xlink="http://www.w3.org/1999/xlink" x="0px" y="0px"
	 width="675px" height="245px" viewBox="0 0 675 245" enable-background="new 0 0 675 245" xml:space="preserve">
<g>
	<defs>
		<rect id="SVGID_1_" x="-79" y="-267" width="800" height="800"/>
	</defs>
	<clipPath id="SVGID_2_">
		<use xlink:href="#SVGID_1_"  overflow="visible"/>
	</clipPath>
	<path clip-path="url(#SVGID_2_)" fill-rule="evenodd" clip-rule="evenodd" fill="#EC7E53" d="M516.855,121.418
		c0,0-5.884-49.653-60.761-80.432c-39.546-25.315-84.3-25.563-84.3-25.563s-45.133-2.7-82.321,23.96
		c-0.088,0.063,0.941-5.055-1.001-7.327c-1.942-2.273-3.988-4.194-7.642-6.813c-3.654-2.618-6.4-2.168-6.4-2.168l6.041-2.715
		c0,0,112.436-56.167,210.152,33.734c0,0,31.57,25.488,36.171,67.685L516.855,121.418z"/>
	<path clip-path="url(#SVGID_2_)" fill-rule="evenodd" clip-rule="evenodd" fill="#EC7E53" d="M228.677,48.143l2.14-8.032
		l11.01-7.818c0,0,2.175-1.449,6.841-2.913c1.77-0.555,5.807-1.567,10.134-2.611c0.377,0.071,1.062,0.143,1.199-0.288
		c0.738-0.176,1.48-0.353,2.216-0.528c0.361,0.075,1.156,0.191,1.28-0.302c0.665-0.157,1.321-0.311,1.958-0.46
		c0.357,0.074,1.163,0.195,1.287-0.301c0.976-0.228,1.892-0.44,2.721-0.632c0.342,0.074,1.201,0.218,1.32-0.305l1.683-0.386
		c0.364,0.072,1.114,0.172,1.252-0.287l0.017-0.004c0,0,3.433-1.187,8.494,2.879c2.656,2.135,4.59,3.65,5.859,5.133
		c1.149,1.343,1.753,2.661,1.854,4.39c0.213,3.641-0.906,7.952-2.362,10.597c-1.456,2.644-17.41,25.347-17.41,25.347
		s-3.147,3.776-5.119,4.986c-1.972,1.209-10.421,7.535-10.421,7.535s-1.457,1.978-4.924-0.041c-3.465-2.018-4.159-2.556-4.159-2.556
		l-20.98-13.88c0,0-1.796-0.355-0.447-5.153C225.467,57.714,228.677,48.143,228.677,48.143"/>
</g>
<g>
	<defs>
		<path id="SVGID_3_" d="M273.378,23.279l-0.018,0.004c-0.134,0.457-0.887,0.361-1.253,0.289l-1.684,0.391
			c-0.114,0.52-0.976,0.379-1.319,0.308c-0.83,0.193-1.748,0.408-2.724,0.638c-0.12,0.493-0.928,0.375-1.287,0.302
			c-0.639,0.151-1.295,0.306-1.961,0.464c-0.119,0.491-0.918,0.378-1.279,0.305c-0.737,0.177-1.478,0.355-2.218,0.533
			c-0.134,0.428-0.821,0.359-1.199,0.29c-4.331,1.052-8.368,2.072-10.138,2.631c-4.667,1.47-6.837,2.918-6.837,2.918L230.48,40.16
			l-2.089,7.988c0,0-3.149,9.523-4.467,14.297c-1.319,4.773,0.483,5.119,0.483,5.119l21.123,13.721c0,0,0.699,0.531,4.187,2.525
			c3.488,1.993,4.935,0.023,4.935,0.023s8.425-6.316,10.393-7.524c1.967-1.209,5.095-4.973,5.095-4.973s15.832-22.617,17.273-25.249
			c1.44-2.634,2.533-6.922,2.294-10.539c-0.239-3.618-2.697-5.413-7.796-9.437c-3.204-2.527-5.75-2.997-7.2-2.997
			C273.853,23.114,273.378,23.279,273.378,23.279"/>
	</defs>
	<clipPath id="SVGID_4_">
		<use xlink:href="#SVGID_3_"  overflow="visible"/>
	</clipPath>
	<path clip-path="url(#SVGID_4_)" fill-rule="evenodd" clip-rule="evenodd" fill="#C36649" d="M270.646,23.609
		c0,0,1.841-0.545,3.947,1.059c2.107,1.603,9.694,7.256,9.694,7.256s5.15,3.462,3.504,11.232l0.576-0.638
		c0,0,1.697-6.862-3.614-11.029c-5.312-4.166-9.83-7.357-9.83-7.357C274.364,23.744,271.506,22.277,270.646,23.609"/>
</g>
<g>
	<defs>
		<path id="SVGID_5_" d="M272.315,23.607c0.653,0.129,1.445,0.427,2.278,1.061c2.107,1.603,9.694,7.256,9.694,7.256
			s5.15,3.462,3.504,11.232l0.575-0.638c0,0,1.698-6.862-3.614-11.029c-5.311-4.166-9.83-7.356-9.83-7.356
			c-0.234-0.163-0.87-0.514-1.594-0.771C273.167,23.664,272.675,23.657,272.315,23.607"/>
	</defs>
	<clipPath id="SVGID_6_">
		<use xlink:href="#SVGID_5_"  overflow="visible"/>
	</clipPath>
	<polygon clip-path="url(#SVGID_6_)" fill="#C36649" points="261.625,26.407 272.861,50.484 297.89,39.068 286.654,14.991 	"/>
</g>
<g>
	<defs>
		<path id="SVGID_7_" d="M273.378,23.279l-0.018,0.004c-0.134,0.457-0.887,0.361-1.253,0.289l-1.684,0.391
			c-0.114,0.52-0.976,0.379-1.319,0.308c-0.83,0.193-1.748,0.408-2.724,0.638c-0.12,0.493-0.928,0.375-1.287,0.302
			c-0.639,0.151-1.295,0.306-1.961,0.464c-0.119,0.491-0.918,0.378-1.279,0.305c-0.737,0.177-1.478,0.355-2.218,0.533
			c-0.134,0.428-0.821,0.359-1.199,0.29c-4.331,1.052-8.368,2.072-10.138,2.631c-4.667,1.47-6.837,2.918-6.837,2.918L230.48,40.16
			l-2.089,7.988c0,0-3.149,9.523-4.467,14.297c-1.319,4.773,0.483,5.119,0.483,5.119l21.123,13.721c0,0,0.699,0.531,4.187,2.525
			c3.488,1.993,4.935,0.023,4.935,0.023s8.425-6.316,10.393-7.524c1.967-1.209,5.095-4.973,5.095-4.973s15.832-22.617,17.273-25.249
			c1.44-2.634,2.533-6.922,2.294-10.539c-0.239-3.618-2.697-5.413-7.796-9.437c-3.204-2.527-5.75-2.997-7.2-2.997
			C273.853,23.114,273.378,23.279,273.378,23.279"/>
	</defs>
	<clipPath id="SVGID_8_">
		<use xlink:href="#SVGID_7_"  overflow="visible"/>
	</clipPath>
	<path clip-path="url(#SVGID_8_)" fill-rule="evenodd" clip-rule="evenodd" fill="#C36649" d="M267.395,24.346
		c0,0,1.381-0.731,3.488,0.872c2.106,1.603,12.073,9.034,12.073,9.034s4.602,3.428,2.956,11.198l0.576-0.638
		c0,0,2.077-7.034-3.235-11.201c-5.311-4.167-11.975-9.014-12.187-9.202C270.412,23.92,268.255,23.014,267.395,24.346"/>
</g>
<g>
	<defs>
		<path id="SVGID_9_" d="M269.104,24.271c-0.017,0.003-0.034,0.007-0.05,0.011c0.514,0.131,1.132,0.405,1.829,0.936
			c2.107,1.603,12.073,9.034,12.073,9.034s4.602,3.429,2.956,11.198l0.576-0.638c0,0,2.077-7.034-3.234-11.201
			c-5.312-4.166-11.976-9.015-12.187-9.203c-0.152-0.113-0.386-0.249-0.665-0.375C270.227,24.47,269.43,24.339,269.104,24.271"/>
	</defs>
	<clipPath id="SVGID_10_">
		<use xlink:href="#SVGID_9_"  overflow="visible"/>
	</clipPath>
	<polygon clip-path="url(#SVGID_10_)" fill="#C36649" points="257.727,27.4 269.792,53.473 296.993,41.17 284.928,15.097 	"/>
</g>
<g>
	<defs>
		<path id="SVGID_11_" d="M273.378,23.279l-0.018,0.004c-0.134,0.457-0.887,0.361-1.253,0.289l-1.684,0.391
			c-0.114,0.52-0.976,0.379-1.319,0.308c-0.83,0.193-1.748,0.408-2.724,0.638c-0.12,0.493-0.928,0.375-1.287,0.302
			c-0.639,0.151-1.295,0.306-1.961,0.464c-0.119,0.491-0.918,0.378-1.279,0.305c-0.737,0.177-1.478,0.355-2.218,0.533
			c-0.134,0.428-0.821,0.359-1.199,0.29c-4.331,1.052-8.368,2.072-10.138,2.631c-4.667,1.47-6.837,2.918-6.837,2.918L230.48,40.16
			l-2.089,7.988c0,0-3.149,9.523-4.467,14.297c-1.319,4.773,0.483,5.119,0.483,5.119l21.123,13.721c0,0,0.699,0.531,4.187,2.525
			c3.488,1.993,4.935,0.023,4.935,0.023s8.425-6.316,10.393-7.524c1.967-1.209,5.095-4.973,5.095-4.973s15.832-22.617,17.273-25.249
			c1.44-2.634,2.533-6.922,2.294-10.539c-0.239-3.618-2.697-5.413-7.796-9.437c-3.204-2.527-5.75-2.997-7.2-2.997
			C273.853,23.114,273.378,23.279,273.378,23.279"/>
	</defs>
	<clipPath id="SVGID_12_">
		<use xlink:href="#SVGID_11_"  overflow="visible"/>
	</clipPath>
	<path clip-path="url(#SVGID_12_)" fill-rule="evenodd" clip-rule="evenodd" fill="#C36649" d="M263.964,25.428
		c0,0,1.506-0.783,3.613,0.82c2.106,1.603,13.797,10.056,13.797,10.056s4.359,3.495,2.713,11.265l0.576-0.638
		c0,0,2.297-7.182-3.014-11.349c-5.312-4.167-13.802-9.904-14.014-10.092C266.981,25.002,264.825,24.096,263.964,25.428"/>
</g>
<g>
	<defs>
		<path id="SVGID_13_" d="M266.38,24.909c-0.12,0.493-0.928,0.375-1.287,0.302c-0.036,0.009-0.072,0.017-0.109,0.026
			c0.64,0.005,1.542,0.211,2.593,1.011c2.106,1.604,13.797,10.055,13.797,10.055s4.36,3.496,2.714,11.266l0.575-0.638
			c0,0,2.298-7.182-3.014-11.348c-5.312-4.167-13.802-9.905-14.013-10.092c-0.247-0.184-0.707-0.428-1.229-0.588
			C266.397,24.905,266.389,24.907,266.38,24.909"/>
	</defs>
	<clipPath id="SVGID_14_">
		<use xlink:href="#SVGID_13_"  overflow="visible"/>
	</clipPath>
	<polygon clip-path="url(#SVGID_14_)" fill="#C36649" points="253.746,28.959 267.099,56.501 295.904,42.848 282.551,15.305 	"/>
</g>
<g>
	<defs>
		<path id="SVGID_15_" d="M273.378,23.279l-0.018,0.004c-0.134,0.457-0.887,0.361-1.253,0.289l-1.684,0.391
			c-0.114,0.52-0.976,0.379-1.319,0.308c-0.83,0.193-1.748,0.408-2.724,0.638c-0.12,0.493-0.928,0.375-1.287,0.302
			c-0.639,0.151-1.295,0.306-1.961,0.464c-0.119,0.491-0.918,0.378-1.279,0.305c-0.737,0.177-1.478,0.355-2.218,0.533
			c-0.134,0.428-0.821,0.359-1.199,0.29c-4.331,1.052-8.368,2.072-10.138,2.631c-4.667,1.47-6.837,2.918-6.837,2.918L230.48,40.16
			l-2.089,7.988c0,0-3.149,9.523-4.467,14.297c-1.319,4.773,0.483,5.119,0.483,5.119l21.123,13.721c0,0,0.699,0.531,4.187,2.525
			c3.488,1.993,4.935,0.023,4.935,0.023s8.425-6.316,10.393-7.524c1.967-1.209,5.095-4.973,5.095-4.973s15.832-22.617,17.273-25.249
			c1.44-2.634,2.533-6.922,2.294-10.539c-0.239-3.618-2.697-5.413-7.796-9.437c-3.204-2.527-5.75-2.997-7.2-2.997
			C273.853,23.114,273.378,23.279,273.378,23.279"/>
	</defs>
	<clipPath id="SVGID_16_">
		<use xlink:href="#SVGID_15_"  overflow="visible"/>
	</clipPath>
	<path clip-path="url(#SVGID_16_)" fill-rule="evenodd" clip-rule="evenodd" fill="#C36649" d="M260.659,26.224
		c0,0,1.506-0.783,3.613,0.82c2.106,1.603,13.678,9.882,14.89,10.832c1.211,0.95,4.653,4.116,3.007,11.886l0.576-0.638
		c0,0,2.463-7.509-2.849-11.676c-5.311-4.167-15.354-10.973-15.566-11.161C263.676,25.798,261.519,24.892,260.659,26.224"/>
</g>
<g>
	<defs>
		<path id="SVGID_17_" d="M261.853,25.98c-0.072,0.018-0.144,0.035-0.216,0.052c0.642-0.003,1.56,0.194,2.634,1.011
			c2.107,1.604,13.679,9.882,14.89,10.833c1.212,0.95,4.653,4.116,3.007,11.885l0.576-0.638c0,0,2.463-7.509-2.848-11.675
			c-5.311-4.168-15.354-10.973-15.566-11.162c-0.243-0.181-0.693-0.42-1.206-0.58C262.979,26.161,262.207,26.052,261.853,25.98"/>
	</defs>
	<clipPath id="SVGID_18_">
		<use xlink:href="#SVGID_17_"  overflow="visible"/>
	</clipPath>
	<polygon clip-path="url(#SVGID_18_)" fill="#C36649" points="249.803,30.109 264.122,59.354 294.721,44.704 280.403,15.459 	"/>
</g>
<g>
	<defs>
		<path id="SVGID_19_" d="M273.378,23.279l-0.018,0.004c-0.134,0.457-0.887,0.361-1.253,0.289l-1.684,0.391
			c-0.114,0.52-0.976,0.379-1.319,0.308c-0.83,0.193-1.748,0.408-2.724,0.638c-0.12,0.493-0.928,0.375-1.287,0.302
			c-0.639,0.151-1.295,0.306-1.961,0.464c-0.119,0.491-0.918,0.378-1.279,0.305c-0.737,0.177-1.478,0.355-2.218,0.533
			c-0.134,0.428-0.821,0.359-1.199,0.29c-4.331,1.052-8.368,2.072-10.138,2.631c-4.667,1.47-6.837,2.918-6.837,2.918L230.48,40.16
			l-2.089,7.988c0,0-3.149,9.523-4.467,14.297c-1.319,4.773,0.483,5.119,0.483,5.119l21.123,13.721c0,0,0.699,0.531,4.187,2.525
			c3.488,1.993,4.935,0.023,4.935,0.023s8.425-6.316,10.393-7.524c1.967-1.209,5.095-4.973,5.095-4.973s15.832-22.617,17.273-25.249
			c1.44-2.634,2.533-6.922,2.294-10.539c-0.239-3.618-2.697-5.413-7.796-9.437c-3.204-2.527-5.75-2.997-7.2-2.997
			C273.853,23.114,273.378,23.279,273.378,23.279"/>
	</defs>
	<clipPath id="SVGID_20_">
		<use xlink:href="#SVGID_19_"  overflow="visible"/>
	</clipPath>
	<path clip-path="url(#SVGID_20_)" fill-rule="evenodd" clip-rule="evenodd" fill="#C36649" d="M256.959,26.977
		c0,0,1.506-0.783,3.612,0.82c2.107,1.603,14.734,10.085,16.984,11.886c2.251,1.801,4.259,4.677,2.613,12.447l0.533-0.633
		c0,0,3.164-8.025-2.148-12.191c-5.311-4.167-17.711-12.078-17.923-12.266C259.977,26.551,257.819,25.645,256.959,26.977"/>
</g>
<g>
	<defs>
		<path id="SVGID_21_" d="M258.436,26.803c-0.016,0.004-0.032,0.008-0.049,0.012c0.593,0.08,1.341,0.339,2.185,0.982
			c2.107,1.603,14.733,10.085,16.984,11.886c2.251,1.801,4.258,4.676,2.612,12.446l0.534-0.633c0,0,3.164-8.024-2.148-12.191
			c-5.311-4.167-17.711-12.078-17.923-12.266c-0.21-0.157-0.574-0.356-1.001-0.511C259.485,26.939,258.81,26.872,258.436,26.803"/>
	</defs>
	<clipPath id="SVGID_22_">
		<use xlink:href="#SVGID_21_"  overflow="visible"/>
	</clipPath>
	<polygon clip-path="url(#SVGID_22_)" fill="#C36649" points="245.346,31.331 261.031,62.792 294.019,46.708 278.333,15.247 	"/>
</g>
<g>
	<defs>
		<path id="SVGID_23_" d="M273.378,23.279l-0.018,0.004c-0.134,0.457-0.887,0.361-1.253,0.289l-1.684,0.391
			c-0.114,0.52-0.976,0.379-1.319,0.308c-0.83,0.193-1.748,0.408-2.724,0.638c-0.12,0.493-0.928,0.375-1.287,0.302
			c-0.639,0.151-1.295,0.306-1.961,0.464c-0.119,0.491-0.918,0.378-1.279,0.305c-0.737,0.177-1.478,0.355-2.218,0.533
			c-0.134,0.428-0.821,0.359-1.199,0.29c-4.331,1.052-8.368,2.072-10.138,2.631c-4.667,1.47-6.837,2.918-6.837,2.918L230.48,40.16
			l-2.089,7.988c0,0-3.149,9.523-4.467,14.297c-1.319,4.773,0.483,5.119,0.483,5.119l21.123,13.721c0,0,0.699,0.531,4.187,2.525
			c3.488,1.993,4.935,0.023,4.935,0.023s8.425-6.316,10.393-7.524c1.967-1.209,5.095-4.973,5.095-4.973s15.832-22.617,17.273-25.249
			c1.44-2.634,2.533-6.922,2.294-10.539c-0.239-3.618-2.697-5.413-7.796-9.437c-3.204-2.527-5.75-2.997-7.2-2.997
			C273.853,23.114,273.378,23.279,273.378,23.279"/>
	</defs>
	<clipPath id="SVGID_24_">
		<use xlink:href="#SVGID_23_"  overflow="visible"/>
	</clipPath>
	<polygon clip-path="url(#SVGID_24_)" fill-rule="evenodd" clip-rule="evenodd" fill="#C36649" points="280.051,53.971 
		280.675,53.457 279.677,58.643 279.053,59.157 	"/>
	<polygon clip-path="url(#SVGID_24_)" fill-rule="evenodd" clip-rule="evenodd" fill="#C36649" points="282.164,51.775 
		282.787,51.261 281.79,56.447 281.166,56.961 	"/>
	<polygon clip-path="url(#SVGID_24_)" fill-rule="evenodd" clip-rule="evenodd" fill="#C36649" points="284.118,49.492 
		284.742,48.978 283.744,54.163 283.12,54.678 	"/>
	<polygon clip-path="url(#SVGID_24_)" fill-rule="evenodd" clip-rule="evenodd" fill="#C36649" points="286.065,47.553 
		286.688,47.039 285.691,52.225 285.067,52.739 	"/>
</g>
<g>
	<defs>
		<rect id="SVGID_25_" x="-79" y="-267" width="800" height="800"/>
	</defs>
	<clipPath id="SVGID_26_">
		<use xlink:href="#SVGID_25_"  overflow="visible"/>
	</clipPath>
	<path clip-path="url(#SVGID_26_)" fill-rule="evenodd" clip-rule="evenodd" fill="#DC764E" d="M243.08,34.341
		c0.819-0.637,5.628-2.799,9.996-1.535c5.622,1.626,9.566,7.161,10.066,12.151c0.222,2.21-0.541,7.689-3.077,8.943l-2.281,1.479
		l-2.036,1.173c0,0,1.853-7.533,0.979-10.572c-0.873-3.039-3.148-7.245-4.427-8.268c-1.278-1.022-4.021-2.406-5.754-1.891
		s-6.248,3.169-6.248,3.169l0.375-1.968C240.673,37.022,242.435,34.843,243.08,34.341"/>
	<path clip-path="url(#SVGID_26_)" fill="#FFFFFF" d="M256.169,57.218c0,0,0.339-2.003,1.332-5.407
		c2.021-6.928-1.306-15.259-9.144-16.291c-6.496-0.856-8.369,10.53-8.369,10.53l-4.78-2.713l-14.266,10.121l-0.188,1.875L219,56.496
		l-0.662,3.923l-2.688,1.651l-2.786,12.144c0,0,2.569,1.82,5.039,3.611l2.813-11.654l1.077,0.587l-2.777,11.891
		c0.322,0.233,0.549,0.398,0.887,0.642l2.895-12.147l1.024,0.791l-2.635,12.284c0.295,0.213,0.593,0.427,0.895,0.646l2.688-12.345
		l1.135,0.879l-2.659,12.304c0.263,0.189,0.527,0.379,0.792,0.57l2.693-12.359l1.136,0.879l-2.656,12.323
		c0.288,0.207,0.575,0.413,0.863,0.619l2.707-12.41l1.135,0.879l-2.674,12.366c0.187,0.134,0.63,0.421,0.702,0.459l2.842-12.302
		l1.136,0.879l-2.772,12.325c0,0-0.004-0.003,0.075,0.053c0.211,0.15,0.777,0.595,0.854,0.632l2.712-12.487l1.136,0.879
		l-2.729,12.373c3.393,2.394,5.314,3.708,5.401,3.592l17.721-12.761c0.319-0.409,0.644-0.772,0.844-1.254
		c0.074-0.177,0.14-0.37,0.199-0.583c1.566-5.604,2.906-11.114,4.472-16.719L256.169,57.218z"/>
</g>
<g>
	<defs>
		<path id="SVGID_27_" d="M237.551,47.423l16.343,11.236c1.328-5.698,2.08-12.808,2.08-12.808s-0.295-6.129-7.247-9.191
			c-0.694-0.306-1.36-0.443-1.997-0.443C240.974,36.217,237.551,47.423,237.551,47.423"/>
	</defs>
	<clipPath id="SVGID_28_">
		<use xlink:href="#SVGID_27_"  overflow="visible"/>
	</clipPath>
	
		<linearGradient id="SVGID_29_" gradientUnits="userSpaceOnUse" x1="-79" y1="533.0938" x2="-78" y2="533.0938" gradientTransform="matrix(8.2787 -14.3392 -14.3392 -8.2787 8541.8398 3333.3169)">
		<stop  offset="0" style="stop-color:#C3664A"/>
		<stop  offset="0.5467" style="stop-color:#D67350"/>
		<stop  offset="1" style="stop-color:#E47B55"/>
	</linearGradient>
	<polygon clip-path="url(#SVGID_28_)" fill="url(#SVGID_29_)" points="227.833,53.048 242.157,28.24 265.692,41.828 251.368,66.636 
			"/>
</g>
<g>
	<defs>
		<path id="SVGID_30_" d="M237.551,47.423l16.343,11.236c1.328-5.698,2.08-12.808,2.08-12.808s-0.295-6.129-7.247-9.191
			c-0.694-0.305-1.36-0.443-1.997-0.443C240.973,36.217,237.551,47.423,237.551,47.423"/>
	</defs>
	<clipPath id="SVGID_31_">
		<use xlink:href="#SVGID_30_"  overflow="visible"/>
	</clipPath>
	
		<linearGradient id="SVGID_32_" gradientUnits="userSpaceOnUse" x1="-79" y1="533.0039" x2="-78" y2="533.0039" gradientTransform="matrix(13.428 -23.258 -20.9991 -14.3441 12494.293 5865.7593)">
		<stop  offset="0" style="stop-color:#C3664A"/>
		<stop  offset="0.5467" style="stop-color:#D67350"/>
		<stop  offset="1" style="stop-color:#E47B55"/>
	</linearGradient>
	<polygon clip-path="url(#SVGID_31_)" fill="url(#SVGID_32_)" points="228.259,52.312 242.762,27.192 265.266,42.564 
		250.763,67.684 	"/>
</g>
<g>
	<defs>
		<rect id="SVGID_33_" x="-79" y="-267" width="800" height="800"/>
	</defs>
	<clipPath id="SVGID_34_">
		<use xlink:href="#SVGID_33_"  overflow="visible"/>
	</clipPath>
	<path clip-path="url(#SVGID_34_)" fill="#CA684A" d="M229.651,44.484l3.789-2.928l3.901,2.214c0.979-3.623,3.685-10.623,9.7-9.836
		c3.649,0.48,6.766,2.443,8.777,5.525c2.38,3.65,3.03,8.471,1.738,12.898c-0.571,1.958-0.924,3.452-1.117,4.347l3.782,2.516
		l-0.297,1.062c-0.789,2.822-1.535,5.674-2.256,8.433c-0.725,2.773-1.475,5.641-2.271,8.491c-0.078,0.279-0.165,0.533-0.262,0.766
		c-0.251,0.604-0.602,1.044-0.912,1.433l-0.281,0.357l-5.327,3.682l-0.801-0.481l4.034-5.451c0.22-0.277,0.395-0.495,0.483-0.707
		c0.053-0.127,0.099-0.264,0.14-0.414c0.791-2.828,1.537-5.683,2.259-8.445c0.634-2.425,1.288-4.923,1.974-7.418l-3.615-2.405
		l0.164-0.972c0.015-0.086,0.37-2.154,1.388-5.645c1.031-3.534,0.507-7.514-1.367-10.388c-1.075-1.646-3.107-3.634-6.629-4.173
		c-4.207-0.644-6.76,9.305-6.777,9.402l-0.356,2.145l-5.89-3.341l-4.889,2.779L229.651,44.484z"/>
	<path clip-path="url(#SVGID_34_)" fill="#0063A7" d="M125.934,213.566c-4.498,2.49-9.477,3.734-14.937,3.734H57.996
		c-7.95,0-14.798-2.569-20.538-7.709c-5.742-5.138-8.612-11.362-8.612-18.672c0-7.387,2.849-13.649,8.552-18.791
		c5.701-5.138,12.567-7.709,20.598-7.709h67.215v-12.527c0-3.532-1.406-6.504-4.216-8.914c-2.812-2.408-6.143-3.613-9.998-3.613
		H57.996c-4.98,0-7.468-2.329-7.468-6.987c0-4.577,2.488-6.866,7.468-6.866h53.001c8.029,0,14.896,2.55,20.598,7.649
		c5.702,5.101,8.553,11.344,8.553,18.731v58.543c0,4.576-2.49,6.865-7.469,6.865C129.307,217.301,127.058,216.057,125.934,213.566
		 M125.21,178.152H57.996c-3.854,0-7.188,1.246-9.998,3.733c-2.812,2.49-4.216,5.503-4.216,9.034c0,3.535,1.404,6.505,4.216,8.915
		c2.81,2.409,6.144,3.613,9.998,3.613h53.001c3.855,0,7.186-1.204,9.998-3.613c2.81-2.41,4.216-5.38,4.216-8.915V178.152z"/>
	<path clip-path="url(#SVGID_34_)" fill="#0063A7" d="M164.249,129.126c4.496-2.409,9.475-3.613,14.937-3.613h34.932
		c8.029,0,14.895,2.55,20.598,7.648c5.701,5.101,8.553,11.344,8.553,18.731v58.542c0,4.578-2.49,6.866-7.469,6.866
		c-4.98,0-7.468-2.288-7.468-6.866v-58.542c0-3.532-1.406-6.505-4.216-8.914c-2.812-2.408-6.143-3.613-9.998-3.613h-34.932
		c-3.855,0-7.188,1.205-9.998,3.613c-2.812,2.409-4.216,5.382-4.216,8.914v58.542c0,4.578-2.49,6.866-7.469,6.866
		c-4.98,0-7.468-2.288-7.468-6.866v-78.057c0-4.577,2.488-6.865,7.468-6.865C160.795,125.513,163.044,126.717,164.249,129.126"/>
	<path clip-path="url(#SVGID_34_)" fill="#0063A7" d="M336.307,178.272h-67.215v12.648c0,3.534,1.404,6.504,4.216,8.914
		c2.81,2.409,6.143,3.613,9.998,3.613h53.001c4.979,0,7.469,2.33,7.469,6.987c0,4.576-2.489,6.865-7.469,6.865h-53.001
		c-7.95,0-14.797-2.569-20.538-7.709c-5.743-5.138-8.613-11.362-8.613-18.671v-39.028c0-7.388,2.85-13.631,8.553-18.731
		c5.701-5.099,12.567-7.649,20.598-7.649h53.001c8.03,0,14.896,2.55,20.599,7.649c5.7,5.101,8.552,11.344,8.552,18.731
		c0,7.631-3.011,14.015-9.034,19.152C350.72,175.864,344.017,178.272,336.307,178.272 M336.307,139.365h-53.001
		c-3.855,0-7.188,1.205-9.998,3.613c-2.812,2.409-4.216,5.382-4.216,8.914v12.647h67.215c3.854,0,7.187-1.223,9.998-3.673
		c2.811-2.449,4.217-5.44,4.217-8.975c0-3.613-1.487-6.664-4.458-9.155C343.333,140.491,340.081,139.365,336.307,139.365"/>
	<path clip-path="url(#SVGID_34_)" fill="#0063A7" d="M388.944,129.247c4.497-2.488,9.475-3.734,14.937-3.734h16.864
		c4.979,0,7.469,2.289,7.469,6.866c0,4.658-2.489,6.987-7.469,6.987h-16.864c-3.854,0-7.188,1.204-9.996,3.613
		c-2.813,2.409-4.218,5.381-4.218,8.914v58.543c0,4.577-2.489,6.865-7.468,6.865c-4.98,0-7.469-2.288-7.469-6.865v-78.057
		c0-4.577,2.488-6.866,7.469-6.866C385.491,125.512,387.74,126.758,388.944,129.247"/>
	<path clip-path="url(#SVGID_34_)" fill="#0063A7" d="M262.957,240.59H39.818c-9.318,0-17.388-2.729-24.213-8.192
		c-7.307-5.86-10.961-13.129-10.961-21.803V93.196c0-4.736,2.488-7.106,7.469-7.106c4.978,0,7.468,2.37,7.468,7.106v117.399
		c0,4.659,2.207,8.554,6.625,11.686c4.015,2.73,8.552,4.095,13.612,4.095h223.139c4.979,0,7.469,2.371,7.469,7.108
		C270.426,238.223,267.936,240.59,262.957,240.59"/>
</g>
<g>
	<defs>
		<polygon id="SVGID_35_" points="518.895,139.365 520.749,139.365 520.752,139.365 		"/>
	</defs>
	<clipPath id="SVGID_36_">
		<use xlink:href="#SVGID_35_"  overflow="visible"/>
	</clipPath>
	
		<linearGradient id="SVGID_37_" gradientUnits="userSpaceOnUse" x1="-79.001" y1="533" x2="-78" y2="533" gradientTransform="matrix(0.9284 0.9284 0.9284 -0.9284 97.877 707.067)">
		<stop  offset="0" style="stop-color:#C2A36C"/>
		<stop  offset="0.3512" style="stop-color:#C2A36C"/>
		<stop  offset="0.5208" style="stop-color:#93793F"/>
		<stop  offset="0.6756" style="stop-color:#725C25"/>
		<stop  offset="0.694" style="stop-color:#776028"/>
		<stop  offset="0.8305" style="stop-color:#9D8148"/>
		<stop  offset="0.9371" style="stop-color:#B69961"/>
		<stop  offset="1" style="stop-color:#C2A36C"/>
	</linearGradient>
	<polygon clip-path="url(#SVGID_36_)" fill="url(#SVGID_37_)" points="519.823,138.437 520.752,139.365 519.823,140.294 
		518.895,139.365 	"/>
</g>
<g>
	<defs>
		<rect id="SVGID_38_" x="-79" y="-267" width="800" height="800"/>
	</defs>
	<clipPath id="SVGID_39_">
		<use xlink:href="#SVGID_38_"  overflow="visible"/>
	</clipPath>
	<path clip-path="url(#SVGID_39_)" fill="#0063A7" d="M541.348,133.161c-5.703-5.099-12.569-7.649-20.598-7.649h-53.002
		c-8.03,0-14.896,2.55-20.598,7.649c-5.703,5.102-8.553,11.345-8.553,18.731v39.027c0,7.31,2.87,13.533,8.612,18.673
		c3.526,3.155,7.319,5.344,10.717,6.561c2.133,0.765,18.572-6.69,25.657-12.705h-15.836c-3.854,0-7.188-1.204-9.997-3.614
		c-2.813-2.408-4.216-5.379-4.216-8.914v-39.027c0-3.533,1.402-6.505,4.216-8.914c2.81-2.409,6.143-3.613,9.997-3.613h49.83h1.316
		h1.855h0.002c0,0,6.006,0.768,5.984,1.151c1.436,0.593,2.776,1.405,4.012,2.462c2.809,2.409,4.216,5.381,4.216,8.914v39.027
		c0,3.535-1.407,6.506-4.216,8.914c-2.812,2.41-6.145,3.614-9.998,3.614h-14.587l-15.141,13.853h29.728
		c7.71,0,14.413-2.448,20.115-7.348c6.023-5.06,9.034-11.401,9.034-19.033v-39.027C549.899,144.506,547.049,138.263,541.348,133.161
		"/>
	<path clip-path="url(#SVGID_39_)" fill="#EC7E53" d="M500.625,203.448c1.678-1.927,2.477-3.091,2.477-3.091
		c15.349-20.072,24.37-50.509,24.187-54.384c-2.863-2.524-7.628-2.559-8.973-2.558c-0.634,28.969-13.508,47.639-26.692,60.032
		c-6.772,6.366-15.119,10.508-23.453,13.853c-25.07,10.061-52.812,9.765-65.323,9.438c-1.933-0.05-81.295-0.3-151.109-0.363
		c0.139,0.568-0.127,9.912,0,14.235c70.185,0.086,150.036-0.156,151.109-0.153c40.153,0.108,66.547-12.163,82.128-23.156
		C492.789,211.787,497.884,206.597,500.625,203.448"/>
	<path clip-path="url(#SVGID_39_)" fill="#0063A7" d="M643.326,217.301h-74.685c-4.979,0-7.468-2.288-7.468-6.866
		c0-4.657,2.488-6.986,7.468-6.986h74.685c3.854,0,7.186-1.204,9.998-3.613c2.81-2.409,4.216-5.379,4.216-8.914
		c0-3.533-1.406-6.524-4.216-8.975c-2.812-2.448-6.145-3.675-9.998-3.675h-53.001c-8.031,0-14.898-2.548-20.6-7.647
		c-5.703-5.1-8.552-11.342-8.552-18.731c0-7.307,2.87-13.531,8.613-18.671c5.74-5.139,12.588-7.709,20.538-7.709h53.001
		c4.978,0,7.468,2.288,7.468,6.865c0,4.659-2.49,6.987-7.468,6.987h-53.001c-3.855,0-7.188,1.205-9.999,3.613
		c-2.812,2.409-4.215,5.381-4.215,8.914c0,3.535,1.403,6.525,4.215,8.975c2.811,2.45,6.144,3.674,9.999,3.674h53.001
		c8.029,0,14.895,2.55,20.598,7.648c5.701,5.101,8.552,11.345,8.552,18.731c0,7.63-3.011,13.972-9.034,19.032
		C657.739,214.852,651.035,217.301,643.326,217.301"/>
	<polygon clip-path="url(#SVGID_39_)" fill-rule="evenodd" clip-rule="evenodd" fill="#FFFFFF" points="215.673,62.027 
		215.385,63.211 239.702,78.791 239.95,77.782 	"/>
	<polygon clip-path="url(#SVGID_39_)" fill-rule="evenodd" clip-rule="evenodd" fill="#DBDADA" points="245.045,70.326 
		243.087,71.849 219,56.495 220.754,55.333 	"/>
	<polygon clip-path="url(#SVGID_39_)" fill-rule="evenodd" clip-rule="evenodd" fill="#DBDADA" points="242.132,76.061 
		239.928,77.825 215.673,62.042 218.361,60.392 	"/>
	<polygon clip-path="url(#SVGID_39_)" fill-rule="evenodd" clip-rule="evenodd" fill="#DBDADA" points="256.705,60.528 
		245.185,68.684 245.045,70.325 243.087,71.85 242.109,76.087 239.928,77.824 236.6,90.973 247.814,82.963 252.332,76.806 	"/>
	<path clip-path="url(#SVGID_39_)" fill-rule="evenodd" clip-rule="evenodd" fill="#DBDADA" d="M237.551,47.423
		c4.363,2.615,9.398,6.5,11.653,8.012c-2.439,5.306-6.493,7.671-11.453,9.526l-2.297,8.436l-12.198-8.188l1.94-7.903
		C225.196,57.306,231.683,55.728,237.551,47.423"/>
	<path clip-path="url(#SVGID_39_)" fill-rule="evenodd" clip-rule="evenodd" fill="#DBDADA" d="M232.605,55.715l1.715-2.661
		l12.774-13.382c0,0,4.375,0.692,6.476,5.035l-14.688,15.518C238.882,60.225,233.733,58.713,232.605,55.715"/>
</g>
</svg>
