<?xml version="1.0" encoding="utf-8"?>
<!-- Generator: Adobe Illustrator 16.0.0, SVG Export Plug-In . SVG Version: 6.00 Build 0)  -->
<!DOCTYPE svg PUBLIC "-//W3C//DTD SVG 1.1//EN" "http://www.w3.org/Graphics/SVG/1.1/DTD/svg11.dtd">
<svg version="1.1" id="Layer_1" xmlns="http://www.w3.org/2000/svg" xmlns:xlink="http://www.w3.org/1999/xlink" x="0px" y="0px"
	 width="91.018px" height="50.919px" viewBox="0 0 91.018 50.919" enable-background="new 0 0 91.018 50.919" xml:space="preserve">
<g>
	<circle fill="#0089CF" cx="25.46" cy="25.46" r="25.46"/>
	<g>
		<g>
			<path fill="#FFFFFF" d="M4.754,30.704h1.803v-5.247h3.315v-1.319H6.557v-3.477h4.136v-1.319H4.754V30.704z M14.312,22.336
				c-0.772,0-1.416,0.113-2.205,0.354v1.223c0.628-0.178,1.159-0.258,1.722-0.258c0.966,0,1.352,0.387,1.352,1.32v0.853
				c0,0-1.367,0.032-2.012,0.097c-1.512,0.16-2.284,0.981-2.284,2.461c0,1.466,0.869,2.447,2.236,2.447
				c0.547,0,1.062-0.145,2.173-0.645l0.145,0.516h1.465v-5.472c0-1.239-0.146-1.819-0.579-2.253
				C15.922,22.561,15.181,22.336,14.312,22.336z M15.181,29.207c-0.386,0.178-0.756,0.307-1.126,0.307
				c-0.934,0-1.416-0.436-1.416-1.304c0-0.708,0.386-1.158,1.175-1.271c0.386-0.064,1.367-0.097,1.367-0.097V29.207z M19.929,19.214
				c-0.692,0-1.062,0.37-1.062,1.062c0,0.692,0.354,1.046,1.046,1.046c0.692,0,1.062-0.37,1.062-1.062
				C20.975,19.567,20.62,19.214,19.929,19.214z M19.06,30.704h1.722v-8.24H19.06V30.704z M24.579,23.237l-0.146-0.773H22.97v8.24
				h1.722v-6.373c0.258-0.306,0.869-0.483,1.32-0.483c0.611,0,0.9,0.113,1.335,0.354V22.69c-0.306-0.209-0.595-0.354-1.078-0.354
				C25.641,22.336,24.933,22.786,24.579,23.237z M31.145,21.483c0-0.998,0.306-1.336,1.271-1.336c0.257,0,0.692,0.032,0.949,0.064
				v-1.159c-0.37-0.08-1.062-0.145-1.513-0.145c-1.641,0-2.431,0.836-2.431,2.591v0.965l-0.997,0.161v0.982h0.997v7.097h1.723
				v-7.097h1.69v-1.143h-1.69V21.483z M36.326,22.336c-0.772,0-1.416,0.113-2.204,0.354v1.223c0.628-0.178,1.158-0.258,1.722-0.258
				c0.966,0,1.352,0.387,1.352,1.32v0.853c0,0-1.368,0.032-2.012,0.097c-1.512,0.16-2.285,0.981-2.285,2.461
				c0,1.466,0.869,2.447,2.237,2.447c0.547,0,1.062-0.145,2.173-0.645l0.145,0.516h1.464v-5.472c0-1.239-0.145-1.819-0.579-2.253
				C37.936,22.561,37.195,22.336,36.326,22.336z M37.195,29.207c-0.386,0.178-0.756,0.307-1.126,0.307
				c-0.934,0-1.416-0.436-1.416-1.304c0-0.708,0.386-1.158,1.174-1.271c0.387-0.064,1.368-0.097,1.368-0.097V29.207z M44.565,26.278
				l2.302-3.814h-1.448l-1.594,2.784l-1.608-2.784h-1.932l2.397,3.911l-2.703,4.329h1.562l1.866-3.203l1.899,3.203h1.947
				L44.565,26.278z"/>
		</g>
	</g>
	<path fill="#00446A" stroke="#00446A" stroke-width="0.4438" d="M63.089,30.704V20.63l-3.38,10.074h-1.11l-3.396-10.058v10.058
		h-1.03V19.342h1.642l3.363,9.961l3.251-9.961h1.706v11.362H63.089z"/>
	<path fill="#00446A" stroke="#00446A" stroke-width="0.4438" d="M72.195,26.826h-4.86c0,2.204,0.886,3.122,2.752,3.122
		c0.467,0,1.224-0.081,1.867-0.209v0.853c-0.692,0.145-1.384,0.241-2.092,0.241c-2.606,0-3.557-1.562-3.557-4.039
		c0-2.946,1.287-4.33,3.154-4.33c2.06,0,2.784,1.513,2.784,3.348C72.244,26.053,72.195,26.826,72.195,26.826z M69.396,23.35
		c-1.143,0-1.964,1.014-2.044,2.591h3.862c0-0.113,0.016-0.321,0.016-0.434C71.229,24.138,70.603,23.35,69.396,23.35z"/>
	<path fill="#00446A" stroke="#00446A" stroke-width="0.4438" d="M79.212,30.704L79.1,30.285c-0.419,0.274-1.239,0.548-1.852,0.548
		c-2.72,0-3.572-1.979-3.572-4.071c0-2.109,0.966-4.297,3.605-4.297c0.579,0,1.238,0.208,1.77,0.499v-3.942h0.982v11.683H79.212z
		 M79.051,23.945c-0.338-0.354-1.046-0.595-1.674-0.595c-1.674,0-2.688,1.288-2.688,3.363c0,1.931,0.789,3.236,2.72,3.236
		c0.499,0,1.143-0.178,1.642-0.435V23.945z"/>
	<path fill="#00446A" stroke="#00446A" stroke-width="0.4438" d="M83.009,21.273c-0.354,0-0.644-0.112-0.644-0.772
		c0-0.66,0.306-0.789,0.66-0.789c0.354,0,0.659,0.113,0.659,0.773S83.363,21.273,83.009,21.273z M82.526,30.704v-8.111h0.981v8.111
		H82.526z"/>
	<path fill="#00446A" stroke="#00446A" stroke-width="0.4438" d="M90.071,30.704l-0.177-0.579c-1.03,0.579-1.529,0.708-2.302,0.708
		c-1.287,0-2.285-0.772-2.285-2.301c0-1.498,0.805-2.351,2.093-2.479c0.644-0.064,2.414-0.161,2.414-0.161v-0.95
		c0-1.029-0.37-1.593-1.577-1.593c-0.468,0-1.207,0.113-1.659,0.273V22.77c0.387-0.145,1.144-0.306,1.787-0.306
		c0.82,0,1.464,0.226,1.802,0.563c0.371,0.386,0.629,0.901,0.629,2.205v5.472H90.071z M89.814,26.729c0,0-1.562,0.065-1.996,0.129
		c-1.095,0.161-1.513,0.724-1.513,1.528c0,0.983,0.435,1.562,1.577,1.562c0.547,0,1.545-0.402,1.932-0.725V26.729z"/>
</g>
<g>
</g>
<g>
</g>
<g>
</g>
<g>
</g>
<g>
</g>
<g>
</g>
<g>
</g>
<g>
</g>
<g>
</g>
<g>
</g>
<g>
</g>
<g>
</g>
</svg>
