<svg xmlns="http://www.w3.org/2000/svg" width="174" height="174" version="1.1"><path d="M105.3 90.6L105.3 90.1C105.3 87 102.8 84.3 99.7 84.3L94 84.3 94 96.2 99.7 96.2C102.8 96.2 105.3 93.7 105.3 90.6L105.3 90.6ZM104.9 76.6L104.9 76.4C104.9 73.2 102.8 71 99.7 71L94 71 94 82.2 99.7 82.2C102.7 82.2 104.9 79.8 104.9 76.6L104.9 76.6ZM52 71.3L45.7 71.3 45.7 83 52 83C55.1 83 57.6 80.6 57.6 77.3L57.6 76.9C57.6 73.8 55.1 71.3 52 71.3L52 71.3ZM74.5 109.9L74.1 109.9C71 109.9 68.5 112.4 68.5 115.5L68.5 129.7C68.5 132.8 71 135.3 74.1 135.3L74.5 135.3C77.7 135.3 80.2 132.8 80.2 129.7L80.2 115.5C80.2 112.4 77.7 109.9 74.5 109.9L74.5 109.9ZM97.8 42.5C99 37.3 100.8 31.9 100.2 31.9 99.1 31.9 95.4 36.4 92.2 42 92 42.3 91.8 42.7 91.7 43L91.7 43C93 42.8 96 42.5 97.3 42.5L97.8 42.5 97.8 42.5ZM86.7 0C38.8 0 0 38.8 0 86.7 0 134.6 38.8 173.4 86.7 173.4 134.6 173.4 173.4 134.6 173.4 86.7 173.4 38.8 134.6 0 86.7 0L86.7 0ZM58.6 29.2C59.1 29.2 62.7 29.2 66.6 29.3 66.2 29.8 65.7 30.2 65.3 30.7 64.7 31.3 64.1 31.9 63.4 32.6L61.5 34.5 60.8 35.2 58.2 29.4C58.4 29.3 58.5 29.2 58.6 29.2L58.6 29.2ZM67.6 29.9L74.4 36.8 61.3 37.1C61.3 37.1 61.3 37.1 61.4 37.1L61.8 36.5 62.7 35.5 64.4 33.5C65 32.8 65.6 32.1 66.2 31.5 66.6 30.9 67.1 30.4 67.6 29.9L67.6 29.9ZM59.1 114.6C59.1 115.2 58.7 115.6 58.1 115.6 57.6 115.6 57.2 115.3 57.1 114.7 56.7 112.1 54.4 109.9 51.5 109.9L51.1 109.9C48 109.9 45.4 112.4 45.4 115.5L45.4 129.7C45.4 132.8 48 135.3 51.1 135.3L51.5 135.3C54.4 135.3 56.7 133.2 57.1 130.5 57.2 130 57.6 129.6 58.1 129.6 58.7 129.6 59.1 130 59.1 130.7L59.1 130.8C58.7 134.6 55.4 137.3 51.5 137.3L51.1 137.3C46.9 137.3 43.4 134 43.4 129.7L43.4 115.5C43.4 111.3 46.9 107.9 51.1 107.9L51.5 107.9C55.4 107.9 58.7 110.7 59.1 114.5L59.1 114.6 59.1 114.6ZM59.6 77.3C59.6 81.2 57 84.3 53.4 84.9L59.1 97C59.2 97.2 59.3 97.3 59.3 97.5 59.3 98.1 58.7 98.5 58.2 98.5 57.8 98.5 57.5 98.3 57.3 97.9L51.2 85 45.7 85 45.7 97.5C45.7 98.2 45.2 98.5 44.6 98.5 44.1 98.5 43.6 98.2 43.6 97.5L43.6 70.3C43.6 69.7 44.1 69.2 44.6 69.2L52 69.2C56.2 69.2 59.6 72.7 59.6 76.9L59.6 77.3 59.6 77.3ZM52.1 38.1C52 37.7 55.3 32.6 57.3 30.3L59.2 37.2 54.5 37.3C54.3 37.3 54.2 37.5 54.2 37.7 54.2 37.9 54.3 38 54.5 38L59.4 38.2C59.5 38.2 59.5 38.3 59.5 38.3 59.6 38.9 59.8 39.5 60.1 40.1L61 42.1C61.7 43.4 62.3 44.7 62.9 46 63.6 47.3 64.2 48.6 64.8 50 65.3 50.8 65.7 51.6 66.1 52.5 62.4 49.5 52.2 38.6 52.1 38.1L52.1 38.1ZM64.8 45.2C64.2 43.9 63.6 42.5 63.1 41.2L62.2 39.2C62.1 38.8 61.9 38.5 61.7 38.2L74.3 38.5 67.5 52C67.1 51.1 66.8 50.2 66.4 49.3 65.9 47.9 65.3 46.6 64.8 45.2L64.8 45.2ZM82.2 129.7C82.2 134 78.8 137.3 74.5 137.3L74.1 137.3C69.9 137.3 66.4 134 66.4 129.7L66.4 115.5C66.4 111.3 69.9 107.9 74.1 107.9L74.5 107.9C78.8 107.9 82.2 111.3 82.2 115.5L82.2 129.7 82.2 129.7ZM82.3 90.8C82.3 95.1 78.8 98.5 74.6 98.5L74.2 98.5C69.9 98.5 66.5 95.1 66.5 90.8L66.5 70C66.5 69.3 67 69 67.5 69 68 69 68.5 69.3 68.5 70L68.5 90.8C68.5 94 71 96.4 74.2 96.4L74.6 96.4C77.7 96.4 80.2 94 80.2 90.8L80.2 70C80.2 69.3 80.7 69 81.2 69 81.8 69 82.3 69.3 82.3 70L82.3 90.8 82.3 90.8ZM68.7 52.5L75.6 38.6 83.1 38.8C81.9 40.5 72.3 49.8 68.7 52.5L68.7 52.5ZM76 36.7L77.7 31.6C77.7 31.5 77.7 31.4 77.6 31.3 77.4 31.2 77.3 31.3 77.2 31.4L75.2 36 68.6 29.3C73.1 29.4 77.6 29.5 78.1 29.5 78.8 29.5 81.9 33.9 83.1 36.5L76 36.7 76 36.7ZM90.8 44.8C89.4 47.5 88.5 49.9 88.5 49.9 88.3 50.4 87.9 50.6 87.4 50.6 87.2 50.6 86.7 50.5 86.7 49.8 86.7 49 87.3 47.3 88.3 45.1 87.9 45.2 87.4 45.3 87 45.4 86.7 45.5 86.4 45.3 86.3 45 86.2 44.6 86.4 44.2 86.7 44.1 87.5 43.8 88.3 43.6 89.1 43.5 92.3 37 98 28.2 101.8 28.2 103.5 28.2 103.3 29.7 103.4 29.9 103.4 31.9 101.1 38 100.3 42.4 100.4 42.4 100.6 42.4 100.7 42.4 101.5 42.5 101.8 43 101.8 43.6 101.8 44.3 101.3 44.8 100.5 44.8 100.3 44.7 100.1 44.7 99.9 44.7 99.7 46.4 99.6 47.4 99.7 49.7 99.7 50.4 99.2 51.2 98.3 51.2 97.5 51.2 96.7 50.7 96.7 49.2 96.7 47.9 97 46.3 97.3 44.6L97 44.5C95.8 44.5 94.9 44.5 93.8 44.6 92.7 44.6 91.8 44.6 90.8 44.8L90.8 44.8 90.8 44.8ZM92.9 69L99.7 69C103.9 69 107 72.2 107 76.4L107 76.6C107 79.4 105.7 81.9 103.5 83.3 105.8 84.6 107.4 87.3 107.4 90.1L107.4 90.6C107.4 94.8 103.9 98.3 99.7 98.3L92.9 98.3C92.4 98.3 91.9 97.7 91.9 97.2L91.9 70C91.9 69.5 92.4 69 92.9 69ZM107.8 136.3C107.8 137 107.3 137.3 106.8 137.3L106 137.3C105.7 137.3 105.2 137.2 105 136.7L94.1 112 94.1 136.3C94.1 137 93.6 137.3 93.1 137.3 92.6 137.3 92 137 92 136.3L92 108.9C92 108.4 92.5 107.9 93.1 107.9L93.8 107.9C94.1 107.9 94.5 108.1 94.7 108.5L105.7 133.3 105.7 108.9C105.7 108.2 106.2 107.9 106.7 107.9 107.3 107.9 107.8 108.2 107.8 108.9L107.8 136.3 107.8 136.3ZM107.3 50.7C104.3 50.7 103.4 48.3 103.4 45.7 103.4 40.8 106.5 33.6 108 30 108.3 29.1 109.1 28.7 109.8 28.7 111.3 28.7 111.4 30.2 111.1 30.9 111.1 30.9 102.2 48.8 107.2 48.8 112.9 48.8 117.7 29.7 117.7 29.7 117.9 29.1 118.4 28.6 119.1 28.6 120.4 28.6 120.7 29.7 120.5 30.4 119.3 34.1 115 50.7 107.3 50.7L107.3 50.7ZM114.8 70C114.8 69.4 115.4 69 115.9 69 116.4 69 116.7 69.2 116.8 69.6L122.9 84.1 128.9 69.6C129.1 69.2 129.4 69 129.8 69 130.4 69 130.9 69.4 130.9 70 130.9 70.1 130.9 70.2 130.9 70.4L123.9 87 123.9 97.5C123.9 98.2 123.4 98.5 122.9 98.5 122.4 98.5 121.8 98.2 121.8 97.5L121.8 87 114.9 70.4C114.8 70.3 114.8 70.2 114.8 70L114.8 70ZM131.4 110.2L118.7 110.2 118.7 121 127.7 121C128.4 121 128.7 121.5 128.7 122.1 128.7 122.6 128.4 123.1 127.7 123.1L118.7 123.1 118.7 136.3C118.7 137 118.2 137.3 117.7 137.3 117.2 137.3 116.6 137 116.6 136.3L116.6 109.2C116.6 108.6 117 108.1 117.7 108.1L131.4 108.1C132.1 108.1 132.4 108.6 132.4 109.1 132.4 109.6 132.1 110.2 131.4 110.2L131.4 110.2Z" fill="#FF0000"/></svg>
