<svg xmlns="http://www.w3.org/2000/svg" width="60" height="60" viewBox="0 0 60 60"><circle cx="30" cy="30" r="30" fill="#ff492c"/><path d="M43,23H37.9c.1-.8.6-1.3,1.6-1.8l.9-.5c1.7-.8,2.6-1.8,2.6-3.4a3,3,0,0,0-1.1-2.4,5.1,5.1,0,0,0-2.8-.8,4.6,4.6,0,0,0-2.3.6,5.2,5.2,0,0,0-1.6,1.7l1.5,1.5a2.8,2.8,0,0,1,2.5-1.7c1,0,1.5.5,1.5,1.1s-.3,1.1-1.3,1.6l-.6.3A6.7,6.7,0,0,0,36,21.5a6.1,6.1,0,0,0-.8,3.2v.4H43Z" fill="#fff"/><polygon points="42.3 27.6 33.8 27.6 29.6 34.9 38.1 34.9 42.3 42.2 46.5 34.9 42.3 27.6" fill="#fff"/><path d="M30.3,39.8a9.8,9.8,0,0,1,0-19.6l3.4-7a18.7,18.7,0,0,0-3.4-.3,17.1,17.1,0,0,0,0,34.2,17.3,17.3,0,0,0,10.1-3.2l-3.7-6.5A9.7,9.7,0,0,1,30.3,39.8Z" fill="#fff"/></svg>