<svg xmlns="http://www.w3.org/2000/svg" xmlns:xlink="http://www.w3.org/1999/xlink" width="292" height="48" viewBox="0 0 292 48">
  <defs>
    <clipPath id="clip-Railsfactory">
      <rect width="292" height="48"/>
    </clipPath>
  </defs>
  <g id="Railsfactory" clip-path="url(#clip-Railsfactory)">
    <g id="logos_Railsfactory" data-name="logos / Railsfactory" transform="translate(0 10)">
      <g id="Group_493" data-name="Group 493">
        <path id="Path_1816" data-name="Path 1816" d="M176.312,196.709c-.053-.182-.1-.352-.156-.508a3.869,3.869,0,0,1-.137-.587,7.142,7.142,0,0,1-.078-.9q-.02-.547-.02-1.369v-4.3a4.215,4.215,0,0,0-.665-2.7,2.678,2.678,0,0,0-2.151-.782h-1.486v11.145h-4.3V169.335h6.492q3.363,0,4.869,1.564a6.591,6.591,0,0,1,1.506,4.732v2.151q0,4.223-2.816,5.553a3.853,3.853,0,0,1,2.249,2.17,9.809,9.809,0,0,1,.606,3.656v4.224a17.573,17.573,0,0,0,.078,1.779,5.7,5.7,0,0,0,.391,1.545Zm-4.693-23.464v8.408H173.3a2.706,2.706,0,0,0,1.9-.626,3,3,0,0,0,.684-2.268v-2.7a3.475,3.475,0,0,0-.528-2.151,1.994,1.994,0,0,0-1.662-.665Zm25.724,23.464H193l-.743-4.966h-5.279l-.743,4.966h-3.95l4.38-27.374h6.3Zm-9.816-8.682h4.145L189.6,174.184Zm11.743-18.693h4.3v27.374h-4.3Zm6.843,0h4.3V192.8h7.078v3.911h-11.38Zm12.967,6.57a7.433,7.433,0,0,1,1.584-5.1,7.234,7.234,0,0,1,9.5,0,7.433,7.433,0,0,1,1.584,5.1v.86h-4.067v-1.134a3.048,3.048,0,0,0-.567-2.092,2.372,2.372,0,0,0-3.168,0,3.045,3.045,0,0,0-.567,2.092,4.845,4.845,0,0,0,.626,2.483,10.3,10.3,0,0,0,1.564,2.034q.939.959,2.014,1.916a19.208,19.208,0,0,1,2.014,2.092,10.67,10.67,0,0,1,1.564,2.581,8.53,8.53,0,0,1,.626,3.4,7.315,7.315,0,0,1-1.623,5.1,7.338,7.338,0,0,1-9.581,0,7.312,7.312,0,0,1-1.623-5.1v-1.682h4.067v1.955a2.83,2.83,0,0,0,.606,2.073,2.538,2.538,0,0,0,3.246,0,2.833,2.833,0,0,0,.606-2.073,4.852,4.852,0,0,0-.626-2.483A10.359,10.359,0,0,0,225.3,185.9q-.939-.958-2.014-1.916a19.054,19.054,0,0,1-2.014-2.092,10.63,10.63,0,0,1-1.564-2.581A8.516,8.516,0,0,1,219.081,175.9Z" transform="translate(-167.317 -169.022)" fill="#f27522"/>
        <path id="Path_1817" data-name="Path 1817" d="M672.88,181.5h5.553v3.911H672.88v11.3h-4.3V169.335h11.38v3.911H672.88ZM694.7,196.709h-4.341l-.743-4.966h-5.279l-.743,4.966h-3.95l4.38-27.374h6.3Zm-9.815-8.682h4.145l-2.073-13.844Zm23.984-1.525v3.637a7.315,7.315,0,0,1-1.623,5.1,7.338,7.338,0,0,1-9.581,0,7.311,7.311,0,0,1-1.623-5.1V175.9a7.313,7.313,0,0,1,1.623-5.1,7.338,7.338,0,0,1,9.581,0,7.317,7.317,0,0,1,1.623,5.1v2.659h-4.067v-2.933a2.91,2.91,0,0,0-.606-2.092,2.476,2.476,0,0,0-3.246,0,2.907,2.907,0,0,0-.606,2.092v14.782a2.83,2.83,0,0,0,.606,2.073,2.538,2.538,0,0,0,3.246,0,2.833,2.833,0,0,0,.606-2.073V186.5Zm1.56-17.168h13.3v3.911h-4.5v23.464h-4.3V173.245h-4.5Zm14.95,6.57a7.15,7.15,0,0,1,1.682-5.1,7.5,7.5,0,0,1,9.7,0,7.152,7.152,0,0,1,1.682,5.1v14.235a7.15,7.15,0,0,1-1.682,5.1,7.5,7.5,0,0,1-9.7,0,7.148,7.148,0,0,1-1.682-5.1Zm4.3,14.508a2.9,2.9,0,0,0,.606,2.092,2.476,2.476,0,0,0,3.246,0,2.908,2.908,0,0,0,.606-2.092V175.631a2.91,2.91,0,0,0-.606-2.092,2.476,2.476,0,0,0-3.246,0,2.907,2.907,0,0,0-.606,2.092Zm31.3-2.777-5.436-18.3h4.5l3.285,12.475,3.285-12.475h4.106l-5.436,18.3v9.073h-4.3Zm-9.544-3.166a6.434,6.434,0,0,0,2.727-5.538v-3.3c0-4.441-2.148-6.3-6.375-6.3H741.3v27.374h4.3V185.564h2.033l3.361,11.145h4.278Zm-5.837-2.817v-8.408h2.073a1.994,1.994,0,0,1,1.661.665,3.48,3.48,0,0,1,.528,2.151v2.7a3.007,3.007,0,0,1-.684,2.268,2.71,2.71,0,0,1-1.9.626Z" transform="translate(-600.038 -169.022)" fill="#1a1818"/>
      </g>
    </g>
  </g>
</svg>
