<svg xmlns:osb="http://www.openswatchbook.org/uri/2009/osb" xmlns="http://www.w3.org/2000/svg" width="auto" height="14mm" viewBox="0 0 240.945 70.866"><defs><linearGradient id="a" osb:paint="solid" gradientTransform="translate(-7064.94 -875.289)"><stop offset="0" stop-color="#7cb342"/></linearGradient></defs><g font-weight="400" letter-spacing="0" word-spacing="0"><g font-size="50" font-family="Poppins"><path d="M187.064 53.424c.603 2.034 1.564 3.831 2.982 5.326 2.467 2.6 5.666 3.9 9.6 3.9 3.233 0 5.9-.8 8-2.4a12.065 12.065 0 0 0 3.511-4.166l-3.957-2.285h-.004c-1.133 3.4-3.65 5.101-7.55 5.101-2.6 0-4.7-.9-6.3-2.7-.658-.772-1.102-1.745-1.484-2.776h-4.798z" style="line-height:125%;-inkscape-font-specification:Poppins" fill="#607d8b"/><path style="line-height:125%;-inkscape-font-specification:Poppins" d="M280.008 503.625h-5.012c-.596 1.694-.9 3.585-.9 5.682 0 1.8.27 3.419.716 4.923h4.8c-.526-1.419-.868-3.012-.868-4.923 0-2.306.514-4.11 1.264-5.682z" transform="translate(-87.75 -460.807)" fill="url(#a)"/><path style="line-height:125%;-inkscape-font-specification:Poppins" d="M224.98 53.424h-5.151l-3.353 5.076v3.7h18.4v-3.7h-13.25l3.353-5.076z" fill="#607d8b"/><path style="line-height:125%;-inkscape-font-specification:Poppins" d="M314.688 505.52h-5.15l-7.01 10.605h5.15l7.01-10.605z" transform="translate(-82.698 -462.701)" fill="url(#a)"/><path style="line-height:125%;-inkscape-font-specification:Poppins" d="M216.476 34.75v3.7h13.25l-2.887 4.368h5.15l2.887-4.369V34.75h-18.4zM199.646 34.299c-3.934 0-7.133 1.3-9.6 3.9-1.254 1.322-2.182 2.866-2.799 4.62h5.012c.334-.702.605-1.465 1.088-2.02 1.6-1.834 3.699-2.75 6.299-2.75 1.9 0 3.5.451 4.8 1.351 1.15.797 1.96 1.905 2.506 3.252l3.957-2.285c-.813-1.52-1.872-2.788-3.213-3.768-2.066-1.533-4.75-2.3-8.05-2.3z" fill="#607d8b"/></g><path style="line-height:125%" d="M68.636 9.728v32.25c0 6.65 2 11.749 6 15.299 4 3.55 8.974 5.326 14.924 5.326 5.95 0 11-1.776 15.15-5.326 4.15-3.6 6.225-8.7 6.225-15.3V9.728h-10.5v32.25c0 3.6-.925 6.325-2.775 8.175-1.85 1.85-4.475 2.775-7.875 2.775-3.4 0-6.025-.925-7.875-2.775-1.8-1.85-2.7-4.574-2.7-8.174V9.728z" font-size="40" font-family="sans-serif" fill="#e53935"/><path style="line-height:125%" d="M145.789 9.056c-7.5 0-13.851 2.524-19.051 7.574-5.15 5.05-7.725 11.452-7.725 19.202 0 7.75 2.575 14.149 7.725 19.199 5.15 5.05 11.275 7.574 18.375 7.574 7.15 0 13.075-2.125 17.775-6.375 4.7-4.3 7.5-9.3 8.4-15v-8.023h-28.726v8.023h17.4c-.6 3.6-2.15 6.475-4.65 8.625-2.45 2.1-5.85 3.15-10.2 3.15-4.3 0-7.948-1.55-10.948-4.65-2.95-3.15-4.426-7.3-4.426-12.45 0-5.2 1.476-9.348 4.426-12.448 3-3.15 6.875-4.727 11.625-4.727 5.644 0 9.64 2.296 11.992 6.887l8.709-7.178a23.36 23.36 0 0 0-5.553-5.033c-4.4-2.9-9.448-4.35-15.148-4.35z" font-size="40" font-family="sans-serif" fill="#ffc401"/><path style="line-height:125%" d="M179.647 56.297c-.8 0-1.482.283-2.05.85-.566.566-.85 1.266-.85 2.1 0 .8.284 1.484.85 2.05a2.79 2.79 0 0 0 2.05.85c.8 0 1.484-.283 2.05-.85.567-.566.85-1.25.85-2.05 0-.834-.283-1.534-.85-2.1a2.795 2.795 0 0 0-2.05-.85z" font-size="40" font-family="sans-serif" fill="#607d8b"/><path style="line-height:125%" d="M34.914 8.991c-7.5 0-13.85 2.525-19.05 7.575-5.15 5.05-7.725 11.45-7.725 19.2s2.574 14.15 7.724 19.2c5.15 5.05 11.275 7.574 18.375 7.574 7.15 0 13.076-2.125 17.776-6.375 4.7-4.3 7.5-9.3 8.4-15v-8.023H31.687v8.023h17.4c-.6 3.6-2.15 6.475-4.65 8.625-2.45 2.1-5.849 3.15-10.199 3.15-4.3 0-7.949-1.55-10.949-4.65-2.95-3.15-4.426-7.299-4.426-12.449 0-5.2 1.476-9.35 4.426-12.45 3-3.15 6.875-4.726 11.625-4.726 5.563 0 9.523 2.236 11.887 6.696l8.674-7.15a23.371 23.371 0 0 0-5.413-4.87c-4.4-2.9-9.448-4.35-15.148-4.35z" font-size="40" font-family="sans-serif" fill="#039be5"/></g></svg>