<?xml version="1.0" encoding="UTF-8" standalone="no"?>
<svg width="230px" height="30px" viewBox="0 0 230 30" version="1.1" xmlns="http://www.w3.org/2000/svg" xmlns:xlink="http://www.w3.org/1999/xlink" xmlns:sketch="http://www.bohemiancoding.com/sketch/ns">
    <title>logo</title>
    <description>Created with Sketch (http://www.bohemiancoding.com/sketch)</description>
    <defs></defs>
    <g id="Page 1" stroke="none" stroke-width="1" fill="none" fill-rule="evenodd">
        <g id="Artboard 1" transform="translate(-686.000000, -73.000000)" fill="#474E5D">
            <g id="HITOBITO Logo" transform="translate(686.000000, 73.000000)">
                <path d="M13.1133465,17.2973621 C14.0810282,19.4552483 15.6984332,21.2277324 17.7280137,22.4690339 C17.9891104,22.6156621 18.2518019,22.692161 18.5124058,22.692161 C18.9777306,22.692161 19.3926193,22.4667758 19.6650727,22.0556419 L19.6986651,22.000218 C19.8287196,21.7647143 19.9047619,21.5004455 19.9047619,21.2382768 C19.9047619,20.7479507 19.678261,20.2827347 19.2259282,20.0552103 C17.6769694,19.1873163 16.2916376,17.7534648 15.5660785,16.2936336 C14.7055416,14.5753341 14.4215312,13.2277079 14.4215312,10.5648499 C14.4215312,9.78748771 13.7925748,9.31034483 13.0688129,9.31034483 C12.3154168,9.31034483 11.6764568,9.77235489 11.6764568,10.5648499 C11.6764568,13.2503995 11.3915196,14.67139 10.5641193,16.4286122 C9.86643324,17.9325993 8.60943569,19.2610104 7.02733006,20.103625 C6.57154708,20.3326423 6.28571429,20.7909236 6.28571429,21.3047365 C6.28571429,21.5602459 6.36243184,21.8058129 6.49181105,22.0400938 C6.7138234,22.4884785 7.17032411,22.7586207 7.67807038,22.7586207 C7.94065337,22.7586207 8.1864838,22.6830548 8.42225123,22.5512864 C10.6326949,21.1826441 12.1804826,19.5087254 13.1133465,17.2973621 Z M5.00452127,0 L38.9954787,0 C41.7575421,0 44,2.24056212 44,5.00443555 L44,24.9955644 C44,27.7696334 41.7593995,30 38.9954787,30 L5.00452127,30 C2.24245787,30 0,27.7594379 0,24.9955644 L0,5.00443555 C0,2.2303666 2.24060049,0 5.00452127,0 Z M30.9228703,17.2973621 C31.890552,19.4552483 33.507957,21.2277324 35.5375375,22.4690339 C35.7986342,22.6156621 36.0613257,22.692161 36.3219296,22.692161 C36.7872544,22.692161 37.2021431,22.4667758 37.4745965,22.0556419 L37.508189,22.000218 C37.6382434,21.7647143 37.7142857,21.5004455 37.7142857,21.2382768 C37.7142857,20.7479507 37.4877849,20.2827347 37.035452,20.0552103 C35.4864932,19.1873163 34.1011614,17.7534648 33.3756024,16.2936336 C32.5150654,14.5753341 32.231055,13.2277079 32.231055,10.5648499 C32.231055,9.78748771 31.6020986,9.31034483 30.8783367,9.31034483 C30.1249406,9.31034483 29.4859806,9.77235489 29.4859806,10.5648499 C29.4859806,13.2503995 29.2010434,14.67139 28.3736431,16.4286122 C27.675957,17.9325993 26.4189595,19.2610104 24.8368539,20.103625 C24.3810709,20.3326423 24.0952381,20.7909236 24.0952381,21.3047365 C24.0952381,21.5602459 24.1719556,21.8058129 24.3013349,22.0400938 C24.5233472,22.4884785 24.9798479,22.7586207 25.4875942,22.7586207 C25.7501772,22.7586207 25.9960076,22.6830548 26.231775,22.5512864 C28.4422187,21.1826441 29.9900065,19.5087254 30.9228703,17.2973621 Z M30.9228703,17.2973621" id="Rectangle 5 copy 2"></path>
                <path d="M60.6198537,26.0138889 C60.6198537,27.1333333 59.7125956,28 58.5875956,28 C57.4625956,28 56.5916279,27.1333333 56.5916279,26.0138889 L56.5916279,4.70833333 C56.5916279,3.58888889 57.4625956,2.72222222 58.5875956,2.72222222 C59.7125956,2.72222222 60.6198537,3.58888889 60.6198537,4.70833333 L60.6198537,13.375 L70.0190473,13.375 L70.0190473,4.70833333 C70.0190473,3.58888889 70.890015,2.72222222 72.015015,2.72222222 C73.140015,2.72222222 74.0472731,3.58888889 74.0472731,4.70833333 L74.0472731,26.0138889 C74.0472731,27.1333333 73.140015,28 72.015015,28 C70.890015,28 70.0190473,27.1333333 70.0190473,26.0138889 L70.0190473,17.3472222 L60.6198537,17.3472222 Z M82.5754989,26.0138889 L82.5754989,4.70833333 C82.5754989,3.58888889 83.4464666,2.72222222 84.5714666,2.72222222 C85.6601763,2.72222222 86.6037247,3.58888889 86.6037247,4.70833333 L86.6037247,26.0138889 C86.6037247,27.1333333 85.6601763,28 84.5714666,28 C83.4464666,28 82.5754989,27.1333333 82.5754989,26.0138889 Z M108.922273,2.72222222 C110.010983,2.72222222 110.918241,3.58888889 110.918241,4.70833333 C110.918241,5.79166667 110.010983,6.73055556 108.922273,6.73055556 L103.152112,6.73055556 L103.152112,26.0138889 C103.152112,27.1333333 102.281144,28 101.156144,28 C100.067434,28 99.1601763,27.1333333 99.1601763,26.0138889 L99.1601763,6.73055556 L93.4263053,6.73055556 C92.3013053,6.73055556 91.4303376,5.79166667 91.4303376,4.70833333 C91.4303376,3.58888889 92.3013053,2.72222222 93.4263053,2.72222222 Z M128.265015,2 C131.603725,2 134.797273,3.48055556 136.938402,5.86388889 C139.188402,8.24722222 140.603725,11.425 140.603725,15 C140.603725,18.575 139.188402,21.7888889 136.938402,24.1361111 C134.797273,26.4833333 131.603725,28 128.265015,28 C124.781144,28 121.587596,26.4833333 119.373886,24.1361111 C117.123886,21.7888889 115.781144,18.575 115.781144,15 C115.781144,11.425 117.123886,8.24722222 119.373886,5.86388889 C121.587596,3.48055556 124.781144,2 128.265015,2 Z M133.998886,21.2833333 C135.486789,19.7305556 136.466628,17.4555556 136.466628,15 C136.466628,12.5444444 135.486789,10.2694444 133.998886,8.68055556 C132.474692,7.05555556 130.442434,6.11666667 128.265015,6.11666667 C125.942434,6.11666667 123.910176,7.05555556 122.385983,8.68055556 C120.861789,10.2694444 119.918241,12.5444444 119.918241,15 C119.918241,17.4555556 120.861789,19.7305556 122.385983,21.2833333 C123.910176,22.9083333 125.942434,23.8833333 128.265015,23.8833333 C130.442434,23.8833333 132.474692,22.9083333 133.998886,21.2833333 Z M149.748886,28 C148.660176,28 147.752918,27.0972222 147.752918,26.0138889 L147.752918,4.70833333 C147.752918,3.58888889 148.660176,2.72222222 149.748886,2.72222222 L149.857757,2.72222222 L149.894047,2.72222222 L154.902112,2.72222222 C158.712596,2.72222222 161.797273,5.79166667 161.797273,9.58333333 C161.797273,11.1361111 161.289209,12.5444444 160.418241,13.7 C162.59566,15.0722222 164.083563,17.4916667 164.083563,20.2361111 C164.083563,24.5333333 160.599692,28 156.317434,28 L149.894047,28 C149.857757,28 149.857757,27.9638889 149.857757,27.9638889 C149.785176,27.9638889 149.785176,28 149.748886,28 Z M151.781144,6.73055556 L151.781144,12.5083333 L154.902112,12.5083333 C156.498886,12.5083333 157.769047,11.1722222 157.769047,9.58333333 C157.769047,7.99444444 156.498886,6.73055556 154.902112,6.73055556 Z M151.781144,16.5166667 L151.781144,23.9916667 L156.317434,23.9916667 C158.385983,23.9555556 160.055338,22.3305556 160.055338,20.2361111 C160.055338,18.1777778 158.385983,16.5527778 156.317434,16.5166667 Z M169.563402,26.0138889 L169.563402,4.70833333 C169.563402,3.58888889 170.43437,2.72222222 171.55937,2.72222222 C172.64808,2.72222222 173.591628,3.58888889 173.591628,4.70833333 L173.591628,26.0138889 C173.591628,27.1333333 172.64808,28 171.55937,28 C170.43437,28 169.563402,27.1333333 169.563402,26.0138889 Z M197.906144,4.70833333 C197.906144,5.79166667 196.998886,6.73055556 195.910176,6.73055556 L190.140015,6.73055556 L190.140015,26.0138889 C190.140015,27.1333333 189.269047,28 188.144047,28 C187.055338,28 186.14808,27.1333333 186.14808,26.0138889 L186.14808,6.73055556 L180.414209,6.73055556 C179.289209,6.73055556 178.418241,5.79166667 178.418241,4.70833333 C178.418241,3.58888889 179.289209,2.72222222 180.414209,2.72222222 L195.910176,2.72222222 C196.998886,2.72222222 197.906144,3.58888889 197.906144,4.70833333 Z M215.252918,2 C218.591628,2 221.785176,3.48055556 223.926305,5.86388889 C226.176305,8.24722222 227.591628,11.425 227.591628,15 C227.591628,18.575 226.176305,21.7888889 223.926305,24.1361111 C221.785176,26.4833333 218.591628,28 215.252918,28 C211.769047,28 208.575499,26.4833333 206.361789,24.1361111 C204.111789,21.7888889 202.769047,18.575 202.769047,15 C202.769047,11.425 204.111789,8.24722222 206.361789,5.86388889 C208.575499,3.48055556 211.769047,2 215.252918,2 Z M220.986789,21.2833333 C222.474692,19.7305556 223.454531,17.4555556 223.454531,15 C223.454531,12.5444444 222.474692,10.2694444 220.986789,8.68055556 C219.462596,7.05555556 217.430338,6.11666667 215.252918,6.11666667 C212.930338,6.11666667 210.89808,7.05555556 209.373886,8.68055556 C207.849692,10.2694444 206.906144,12.5444444 206.906144,15 C206.906144,17.4555556 207.849692,19.7305556 209.373886,21.2833333 C210.89808,22.9083333 212.930338,23.8833333 215.252918,23.8833333 C217.430338,23.8833333 219.462596,22.9083333 220.986789,21.2833333 Z M220.986789,21.2833333" id="HITOBITO copy 2"></path>
            </g>
        </g>
    </g>
</svg>