<?xml version="1.0" encoding="UTF-8" standalone="no"?>
<svg
   viewBox="0 0 353.23999 49.746666"
   height="49.746666"
   width="353.23999"
   version="1.1"
   xmlns="http://www.w3.org/2000/svg"
   xmlns:xlink= "http://www.w3.org/1999/xlink">
   <g transform="matrix(1.3333333,0,0,-1.3333333,0,49.746667)">
    <g transform="scale(0.1)">
      <path style="fill:#231f20;fill-opacity:1;fill-rule:nonzero;stroke:none"
       d="m 483.703,148.48 c 1.039,-61.2808 46.692,-88.2417 103.141,-88.2417 49.179,0 98.289,22.1211 98.289,77.5117 0,25.621 -15.559,53.32 -48.07,63.02 -12.821,3.8 -67.54,18 -71.348,19.039 -17.66,4.851 -29.43,14.543 -29.43,31.863 0,24.93 25.278,32.199 45.36,32.199 29.789,0 51.257,-11.781 53.339,-43.633 h 43.239 c 0,51.582 -43.239,78.903 -94.84,78.903 -44.68,0 -90.328,-23.172 -90.328,-72.672 0,-25.617 12.449,-51.239 54.648,-62.668 33.942,-9.352 56.461,-13.852 73.77,-20.43 10.05,-3.812 20.429,-11.43 20.429,-30.473 0,-18.699 -14.187,-37.398 -52.289,-37.398 -34.629,0 -62.679,14.891 -62.679,52.98 z M 732.266,66.1211 h 39.418 V 245.051 h -39.418 z m 0,209.7889 h 39.418 v 37.34 H 732.266 Z M 828.492,66.1211 h 39.434 V 172.398 c 0,29.774 18.699,46.391 39.137,46.391 23.902,0 31.523,-13.16 31.523,-37.738 V 66.1211 h 39.418 V 171.012 c 0,30.117 11.43,47.777 38.096,47.777 30.83,0 32.56,-19.738 32.56,-48.117 V 66.1211 h 39.43 V 189.711 c 0,43.598 -22.14,60.187 -59.86,60.187 -25.98,0 -42.957,-11.41 -56.105,-29.726 -7.949,20.398 -28.352,29.726 -50.172,29.726 -28.398,0 -43.301,-12.097 -55.07,-29.726 h -1.039 v 24.879 H 828.492 Z M 1282.34,155.41 c 0,-31.16 -13.51,-63.0194 -49.53,-63.0194 -31.86,0 -50.22,27.0074 -50.22,63.0194 0,38.102 16.97,63.379 50.22,63.379 32.56,0 49.53,-30.828 49.53,-63.379 M 1144.56,0 h 39.42 v 89.2813 h 0.69 c 12.47,-19.711 37.06,-28.0118 59.92,-28.0118 52.96,0 77.17,45.3085 77.17,93.4495 0,52.293 -27.32,95.179 -83.76,95.179 -22.85,0 -44.33,-8.636 -55.41,-29.039 h -0.69 v 24.192 h -37.34 z m 225.36,66.1211 h 39.42 V 313.25 h -39.42 z m 97.27,0 h 39.42 V 245.051 h -39.42 z m 0,209.7889 h 39.42 v 37.34 h -39.42 z m 78.58,-60.238 h 29.43 V 66.1211 h 39.42 V 215.672 h 33.58 v 29.379 h -33.58 v 18.371 c 0,14.898 8.66,18.719 19.39,18.719 7.96,0 13.15,-0.7 18.35,-2.082 v 30.769 c -6.24,1.731 -15.24,2.422 -27.7,2.422 -25.6,0 -49.46,-7.609 -49.46,-53.289 v -14.91 h -29.43 z M 1687.36,66.1211 h 39.42 V 245.051 h -39.42 z m 0,209.7889 h 39.42 v 37.34 h -39.42 z m 256.47,-90.719 c -3.8,43.969 -39.07,64.707 -80.63,64.707 -58.87,0 -88.26,-42.199 -88.26,-96.218 0,-52.641 30.78,-92.4105 86.87,-92.4105 46.06,0 74.76,25.5899 82.02,71.9805 h -39.42 c -3.81,-25.629 -19.74,-40.8594 -42.6,-40.8594 -34.29,0 -47.45,31.5074 -47.45,61.2894 0,54.371 28.75,65.109 49.18,65.109 21.82,0 37.76,-11.777 40.87,-33.598 z m 156.52,-58.871 c 0,-24.929 -27.02,-33.9294 -44.33,-33.9294 -13.86,0 -36.37,5.1875 -36.37,22.8474 0,20.782 15.24,27.012 32.21,29.782 17.32,3.121 36.37,2.769 48.49,10.742 z m 39.42,71.692 c 0,37.718 -36.65,51.886 -71.63,51.886 -39.49,0 -78.58,-13.476 -81.34,-59.507 h 39.43 c 1.73,19.39 17.32,28.398 39.48,28.398 15.94,0 37.06,-3.809 37.06,-24.25 0,-23.199 -25.28,-20.078 -53.68,-25.277 -33.25,-3.801 -68.86,-11.082 -68.86,-55.75 0,-34.9534 29.04,-52.2425 61.24,-52.2425 21.13,0 46.41,6.5703 61.99,21.7813 3.12,-16.25 14.53,-21.7813 30.43,-21.7813 6.58,0 19.04,2.4219 24.92,4.5 v 27.3086 c -4.15,-0.6875 -7.27,-0.6875 -9.69,-0.6875 -7.27,0 -9.35,3.8086 -9.35,13.5004 z m 38.47,17.66 h 29.77 V 110.051 c 0.7,-29.7619 8.3,-45.6604 49.46,-45.6604 8.66,0 16.97,1.3789 25.62,2.0703 V 96.8906 C 2277.55,95.5 2272.01,95.5 2266.48,95.5 c -17.66,0 -19.04,8.309 -19.04,24.59 v 95.582 h 35.65 v 29.379 h -35.65 v 53.66 h -39.43 v -53.66 h -29.77 z M 2407.39,92.3906 c -35.33,0 -50.91,32.1994 -50.91,63.3714 0,30.816 15.58,63.027 50.91,63.027 35.33,0 50.91,-32.211 50.91,-63.027 0,-31.172 -15.58,-63.3714 -50.91,-63.3714 m 0,-31.1211 c 57.48,0 90.33,39.4295 90.33,94.4925 0,54.707 -32.85,94.136 -90.33,94.136 -57.48,0 -90.33,-39.429 -90.33,-94.136 0,-55.063 32.85,-94.4925 90.33,-94.4925 m 137.1,4.8516 h 39.43 v 85.1599 c 0,39.469 21.46,61.27 48.46,61.27 5.54,0 11.43,-1.031 16.96,-1.731 v 38.039 c -3.46,0.352 -5.88,1.039 -14.88,1.039 -24.23,0 -47.77,-20.398 -52.27,-39.418 h -0.69 v 34.571 h -37.01 V 66.1211" />
      <path style="fill:#231f20;fill-opacity:1;fill-rule:nonzero;stroke:none"
        d="m 183.988,5.10547 c 101.621,0 183.992,82.37893 183.992,183.98853 0,101.621 -82.371,184 -183.992,184 C 82.3711,373.094 0,290.715 0,189.094 0,87.4844 82.3711,5.10547 183.988,5.10547" />
    </g>
  </g>
</svg>
