<?xml version="1.0" encoding="utf-8"?>
<!-- Generator: Adobe Illustrator 23.0.3, SVG Export Plug-In . SVG Version: 6.00 Build 0)  -->
<svg version="1.1" id="レイヤー_1" xmlns="http://www.w3.org/2000/svg" xmlns:xlink="http://www.w3.org/1999/xlink" x="0px"
	 y="0px" viewBox="0 0 174.3 48.4" style="enable-background:new 0 0 174.3 48.4;" xml:space="preserve">
<style type="text/css">
	.st0{fill:#3E3A39;}
	.st1{fill:#8FB721;}
</style>
<g>
	<path class="st0" d="M119.8,47.5c-1.4,0-2.9-0.2-4.5-0.5c10.8-2.6,16.8-7.8,20-17C135,42,127.9,47,119.8,47.5
		C119.8,47.5,119.8,47.5,119.8,47.5z"/>
	<path class="st0" d="M24.3,24.8c9.1-3.6,16-7.8,16-18.1H0V2.8h44.1c0,0,0,3.6,0,3.9c0,10.5-5.2,15.5-17.8,21.4
		C26.3,28.2,24.3,24.8,24.3,24.8z"/>
	<path class="st0" d="M9.1,48.4v-3.9h6.8c1,0,1.7-0.8,1.7-1.7V18.1h3.9v28c0,1.3-1,2.3-2.3,2.3H9.1z"/>
	<path class="st0" d="M50.9,47.1V0.2h3.9v25h17.9v3.9H54.8v18.2c0,0.6-0.5,1.2-1.2,1.2h-1.4C51.5,48.4,50.9,47.8,50.9,47.1z"/>
	<path class="st0" d="M82,47.2V0.2h3.9v25h17.9v3.9H85.9V47c0,0.8-0.6,1.4-1.4,1.4h-1.3C82.6,48.4,82,47.9,82,47.2z"/>
	<path class="st0" d="M148.9,48.4v-3.9c0,0,8.1,0,8.2,0c4.8,0,13.4-6.5,13.4-13.9V7.6h-24.3V3.7h28.2v28.7c0,7.1-8.8,16.1-16.5,16.1
		C157.7,48.4,148.9,48.4,148.9,48.4z"/>
	<ellipse class="st1" cx="112" cy="29.4" rx="3.3" ry="5.5"/>
	<ellipse class="st1" cx="122.1" cy="29.4" rx="3.3" ry="5.5"/>
	<path class="st0" d="M137.2,22c6.1-2.9,8.8-5.3,8.8-11.1V0l3.9,0v13.2c0,5.1-4.2,9-10.6,12.1C139.2,25.4,137.2,22,137.2,22z"/>
</g>
</svg>
