<?xml version="1.0" encoding="UTF-8" standalone="no"?>
<!-- Created with Inkscape (http://www.inkscape.org/) -->

<svg
   xmlns:dc="http://purl.org/dc/elements/1.1/"
   xmlns:cc="http://creativecommons.org/ns#"
   xmlns:rdf="http://www.w3.org/1999/02/22-rdf-syntax-ns#"
   xmlns:svg="http://www.w3.org/2000/svg"
   xmlns="http://www.w3.org/2000/svg"
   xmlns:sodipodi="http://sodipodi.sourceforge.net/DTD/sodipodi-0.dtd"
   xmlns:inkscape="http://www.inkscape.org/namespaces/inkscape"
   width="260"
   height="54.000004"
   id="svg2"
   version="1.1"
   inkscape:version="0.48.3.1 r9886"
   sodipodi:docname="logo.svg">
  <defs
     id="defs4" />
  <sodipodi:namedview
     id="base"
     pagecolor="#ffffff"
     bordercolor="#666666"
     borderopacity="1.0"
     inkscape:pageopacity="0.0"
     inkscape:pageshadow="2"
     inkscape:zoom="1.2133"
     inkscape:cx="145.18545"
     inkscape:cy="-21.181804"
     inkscape:document-units="px"
     inkscape:current-layer="layer1"
     showgrid="false"
     fit-margin-top="0"
     fit-margin-left="0"
     fit-margin-right="0"
     fit-margin-bottom="0"
     showguides="true"
     inkscape:guide-bbox="true"
     inkscape:window-width="1097"
     inkscape:window-height="1060"
     inkscape:window-x="58"
     inkscape:window-y="25"
     inkscape:window-maximized="0" />
  <metadata
     id="metadata7">
    <rdf:RDF>
      <cc:Work
         rdf:about="">
        <dc:format>image/svg+xml</dc:format>
        <dc:type
           rdf:resource="http://purl.org/dc/dcmitype/StillImage" />
        <dc:title></dc:title>
      </cc:Work>
    </rdf:RDF>
  </metadata>
  <g
     inkscape:label="Layer 1"
     inkscape:groupmode="layer"
     id="layer1"
     transform="translate(-178.85293,-370.79968)">
    <g
       style="font-size:95.49549866px;font-style:normal;font-variant:normal;font-weight:bold;font-stretch:normal;text-align:start;text-anchor:start;fill:#b1c800;fill-opacity:1;stroke:none;font-family:Akko-Std-Bold;-inkscape-font-specification:Akko-Std-Bold Bold"
       id="text3796">
      <path
         d="m 341.10812,392.78617 c -2e-5,0.38201 0.19097,0.573 0.57297,0.57297 l 12.89189,0 c 0.70027,3e-5 1.05042,-0.70027 1.05046,-2.1009 -4e-5,-2.99216 -0.44568,-5.22038 -1.33694,-6.68469 -0.82766,-1.46422 -2.64207,-2.19635 -5.44325,-2.19639 -3.05588,4e-5 -5.12494,0.89133 -6.2072,2.67387 -1.01864,1.78262 -1.52795,4.361 -1.52793,7.73514 m 27.21622,28.74414 c -4.07452,1.84625 -9.93157,2.76937 -17.57118,2.76937 -9.10392,0 -15.72494,-2.06907 -19.86306,-6.20721 -4.13814,-4.20179 -6.20721,-10.88647 -6.20721,-20.05405 0,-9.42219 2.1009,-16.23419 6.30271,-20.43604 4.26545,-4.20175 10.34532,-6.30265 18.23964,-6.3027 7.38495,5e-5 12.66903,1.7508 15.85225,5.25225 3.2468,3.43788 4.87022,9.00845 4.87027,16.71171 -5e-5,2.35559 -0.15921,4.64748 -0.47748,6.87568 -0.12737,0.95498 -0.3502,1.59161 -0.66847,1.90991 -0.2547,0.31834 -0.76401,0.4775 -1.52792,0.47748 l -25.11532,0 c -0.382,2e-5 -0.57299,0.15918 -0.57297,0.47748 -2e-5,3.31052 0.85943,5.63424 2.57838,6.97117 1.78255,1.27328 4.55192,1.90992 8.3081,1.90991 4.26543,1e-5 9.00837,-0.57296 14.22883,-1.71892 0.70026,-0.25464 1.08224,-0.12732 1.14595,0.38198 l 1.05045,10.12252 c -5e-5,0.44565 -0.19104,0.73214 -0.57297,0.85946"
         style=""
         id="path4823" />
    </g>
    <g
       style="font-size:95.49549866px;font-style:normal;font-variant:normal;font-weight:bold;font-stretch:normal;text-align:start;text-anchor:start;fill:#b1c800;fill-opacity:1;stroke:none;font-family:Akko-Std-Bold;-inkscape-font-specification:Akko-Std-Bold Bold"
       id="text3780">
      <path
         d="m 197.66554,384.76455 c -3.69251,3e-5 -7.9898,0.38202 -12.89189,1.14594 -0.8913,0.12737 -1.36878,-0.0318 -1.43244,-0.47748 l -0.66846,-10.98198 c -0.12734,-0.70025 0.0636,-1.14589 0.57297,-1.33694 4.20179,-1.20955 10.59998,-1.81436 19.19459,-1.81441 13.68765,5e-5 20.53149,4.87032 20.53154,14.61081 l 0,35.04685 c -5e-5,0.63664 -0.41386,1.11411 -1.24145,1.43243 -4.39283,1.27327 -10.79102,1.90991 -19.19459,1.90991 -9.10392,0 -15.34296,-1.01862 -18.71712,-3.05585 -3.31051,-2.1009 -4.96577,-6.07988 -4.96576,-11.93694 -10e-6,-5.41139 1.01861,-9.16755 3.05585,-11.26847 2.10089,-2.16454 6.55735,-3.69246 13.36937,-4.58378 l 10.31352,-1.24145 c 0.38195,-0.12729 0.57294,-0.31828 0.57297,-0.57297 l 0,-2.57838 c -3e-5,-1.65522 -0.60484,-2.76933 -1.81442,-3.34234 -1.20963,-0.6366 -3.43786,-0.95492 -6.68468,-0.95495 m 8.4991,28.26666 0,-10.98198 c -3e-5,-0.44562 -0.22285,-0.66845 -0.66847,-0.66847 l -3.34234,0 c -2.80123,2e-5 -4.74297,0.41384 -5.82523,1.24144 -1.0823,0.76399 -1.62344,2.4829 -1.62342,5.15676 -2e-5,2.73755 0.47746,4.4883 1.43243,5.25225 0.95493,0.70031 2.73752,1.05046 5.34775,1.05045 2.03721,10e-6 3.43781,-0.12731 4.2018,-0.38198 0.31829,-0.19098 0.47745,-0.4138 0.47748,-0.66847"
         style=""
         id="path4820" />
    </g>
    <g
       style="font-size:99.06542206px;font-style:normal;font-variant:normal;font-weight:bold;font-stretch:normal;text-align:start;text-anchor:start;fill:#b1c800;fill-opacity:1;stroke:none;font-family:Akko-Std-Bold;-inkscape-font-specification:Akko-Std-Bold Bold"
       id="text3784">
      <path
         d="m 258.60638,424.29968 -39.03177,0 c -0.72649,0 -1.08973,-0.33022 -1.08972,-0.99065 l 0,-9.70841 c -1e-5,-0.52834 0.42928,-1.38691 1.28785,-2.5757 l 17.13832,-23.28038 c 0.33019,-0.52831 0.4953,-1.18875 0.49532,-1.98131 -2e-5,-0.39622 -0.0661,-0.62737 -0.19813,-0.69345 -0.13211,-0.13205 -0.4293,-0.1981 -0.89159,-0.19814 l -15.94953,0 c -0.66044,4e-5 -0.99066,-0.33017 -0.99065,-0.99065 l 0,-11.59065 c -10e-6,-0.66039 0.33021,-0.99061 0.99065,-0.99066 l 37.05047,0 c 0.79248,5e-5 1.18874,0.36329 1.18878,1.08972 l 0,9.41122 c -4e-5,1.12278 -0.26421,2.04739 -0.79252,2.77383 l -17.43551,23.28037 c -0.33025,0.52837 -0.49536,1.1888 -0.49533,1.98131 -3e-5,0.52836 0.33019,0.79254 0.99065,0.79252 l 17.73271,0 c 0.6604,2e-5 0.99061,0.33024 0.99066,0.99066 l 0,11.68972 c -5e-5,0.66043 -0.33026,0.99065 -0.99066,0.99065"
         style=""
         id="path4817" />
    </g>
    <path
       inkscape:connector-curvature="0"
       id="path3809"
       style="font-size:97.33040619000000504px;font-style:normal;font-variant:normal;font-weight:bold;font-stretch:normal;text-align:start;text-anchor:start;fill:#b1c800;fill-opacity:1;stroke:none;font-family:Akko-Std-Bold;-inkscape-font-specification:Akko-Std-Bold Bold;marker-start:none"
       d="m 278.1225,424.29968 -15.47553,0 c -0.64888,0 -0.97331,-0.32444 -0.97331,-0.97331 l 0,-50.12516 c 0,-0.64881 0.32443,-0.97325 0.97331,-0.9733 l 15.47553,0 c 0.64885,5e-5 0.97328,0.32449 0.9733,0.9733 l 0,50.12516 c -2e-5,0.64887 -0.32445,0.97331 -0.9733,0.97331"
       sodipodi:nodetypes="csssccccc" />
    <g
       style="font-size:97.24770355px;font-style:normal;font-variant:normal;font-weight:bold;font-stretch:normal;text-align:start;text-anchor:start;fill:#b1c800;fill-opacity:1;stroke:none;font-family:Akko-Std-Bold;-inkscape-font-specification:Akko-Std-Bold Bold"
       id="text3792">
      <path
         d="m 327.21676,424.29968 -15.46238,0 c -0.64835,0 -0.97251,-0.32416 -0.97248,-0.97247 l 0,-32.09175 c -3e-5,-2.59323 -0.45385,-4.34369 -1.36147,-5.25137 -0.84284,-0.97244 -2.56088,-1.45868 -5.15412,-1.45872 -1.55599,4e-5 -3.11196,0.12971 -4.66789,0.38899 -0.51868,0.0649 -0.77801,0.38903 -0.77799,0.97248 l 0,37.44037 c -2e-5,0.64831 -0.32418,0.97247 -0.97247,0.97247 l -15.36514,0 c -0.64832,0 -0.97248,-0.32416 -0.97248,-0.97247 l 0,-49.01285 c 0,-0.5186 0.32416,-0.84276 0.97248,-0.97247 8.16879,-1.36142 15.81894,-2.04215 22.95046,-2.04221 8.49293,6e-5 14.39261,1.45877 17.69908,4.37615 3.3712,2.91748 5.05683,7.97435 5.05688,15.17064 l 0,32.48074 c -5e-5,0.64831 -0.32421,0.97247 -0.97248,0.97247"
         style=""
         id="path4814" />
    </g>
    <g
       transform="scale(0.96939973,1.0315662)"
       style="font-size:52.01387024px;font-style:normal;font-variant:normal;font-weight:bold;font-stretch:normal;text-align:start;text-anchor:start;fill:#003c68;fill-opacity:1;stroke:none;font-family:Akko-Std-Bold;-inkscape-font-specification:Akko-Std-Bold Bold"
       id="text3800">
      <path
         d="m 413.52342,390.77053 0,20.02534 c -3e-5,0.34676 -0.17341,0.52014 -0.52014,0.52014 l -8.27021,0 c -0.34678,0 -0.52015,-0.17338 -0.52014,-0.52014 l 0,-17.52867 c -10e-6,-1.21364 -0.26008,-2.04586 -0.7802,-2.49667 -0.48548,-0.48544 -1.35238,-0.72817 -2.6007,-0.72819 -0.86691,2e-5 -1.71647,0.0694 -2.54868,0.20805 -0.27742,0.0347 -0.41612,0.20808 -0.41611,0.52014 l 0,20.02534 c -10e-6,0.34676 -0.17339,0.52014 -0.52014,0.52014 l -8.21819,0 c -0.34676,0 -0.52014,-0.17338 -0.52014,-0.52014 l 0,-26.21499 c 0,-0.27738 0.17338,-0.45076 0.52014,-0.52014 3.43291,-0.72816 7.47265,-1.09226 12.11923,-1.09229 3.64095,3e-5 6.12028,0.3988 7.43799,1.19632 0.27738,0.0694 0.53745,0.052 0.7802,-0.052 2.25391,-0.76285 4.94129,-1.14428 8.06215,-1.14431 4.26511,3e-5 7.28191,0.81491 9.05042,2.44465 1.76843,1.59512 2.65266,4.24782 2.65271,7.95812 l 0,17.42465 c -5e-5,0.34676 -0.17343,0.52014 -0.52014,0.52014 l -8.2182,0 c -0.34679,0 -0.52017,-0.17338 -0.52013,-0.52014 l 0,-17.16458 c -4e-5,-1.31766 -0.26011,-2.23657 -0.78021,-2.75673 -0.52017,-0.5548 -1.43908,-0.8322 -2.75674,-0.83222 -0.86692,2e-5 -1.68181,0.0694 -2.44465,0.20805 -0.31211,0.0347 -0.46815,0.20808 -0.46812,0.52014"
         style=""
         id="path4811" />
    </g>
    <g
       style="font-size:53.14400864px;font-style:normal;font-variant:normal;font-weight:bold;font-stretch:normal;text-align:start;text-anchor:start;fill:#003c68;fill-opacity:1;stroke:none;font-family:Akko-Std-Bold;-inkscape-font-specification:Akko-Std-Bold Bold"
       id="text3804">
      <path
         d="m 422.71713,406.76217 c -10e-6,0.21259 0.10628,0.31888 0.31887,0.31886 l 7.17444,0 c 0.3897,2e-5 0.58456,-0.3897 0.58458,-1.16917 -2e-5,-1.66516 -0.24802,-2.90518 -0.74401,-3.72008 -0.4606,-0.81485 -1.47034,-1.22229 -3.02921,-1.22231 -1.70062,2e-5 -2.85208,0.49603 -3.45436,1.48803 -0.56688,0.99204 -0.85032,2.42693 -0.85031,4.30467 m 15.14605,15.99634 c -2.2675,1.02745 -5.527,1.54118 -9.7785,1.54118 -5.06641,0 -8.75106,-1.15145 -11.05395,-3.45436 -2.30291,-2.33833 -3.45437,-6.05841 -3.45436,-11.16024 -10e-6,-5.24353 1.16916,-9.03446 3.5075,-11.37282 2.37376,-2.33831 5.75726,-3.50748 10.15051,-3.50751 4.10978,3e-5 7.05041,0.97434 8.8219,2.92293 1.80687,1.9132 2.71032,5.01327 2.71035,9.3002 -3e-5,1.3109 -0.0886,2.58635 -0.26572,3.82637 -0.0709,0.53145 -0.19489,0.88574 -0.37201,1.06288 -0.14175,0.17715 -0.42518,0.26573 -0.85031,0.26572 l -13.97687,0 c -0.21259,10e-6 -0.31888,0.0886 -0.31887,0.26572 -10e-6,1.84233 0.47829,3.1355 1.43489,3.87951 0.99201,0.70859 2.53319,1.06288 4.62353,1.06288 2.37375,0 5.01323,-0.31886 7.91846,-0.95659 0.3897,-0.14171 0.60227,-0.0708 0.63773,0.21257 l 0.58458,5.63327 c -3e-5,0.248 -0.10631,0.40744 -0.31886,0.47829"
         style=""
         id="path4808" />
    </g>
    <path
       transform="matrix(1.2200332,0,0,1.1932734,-85.257215,-104.51108)"
       style="fill:#ffffff;fill-opacity:1;stroke:none"
       d="m 376.53437,438.18942 c 0,3.20788 -2.54396,5.80838 -5.68211,5.80838 -3.13814,0 -5.6821,-2.6005 -5.6821,-5.80838 0,-3.20788 2.54396,-5.80837 5.6821,-5.80837 3.13815,0 5.68211,2.60049 5.68211,5.80837 z"
       id="path3825" />
    <path
       transform="matrix(0.84852814,0,0,1.0140946,55.571434,-4.4482899)"
       style="fill:#003c68;fill-opacity:1;stroke:none"
       d="m 373.5039,416.84998 c 0,2.85919 -2.7701,5.17703 -6.18719,5.17703 -3.41709,0 -6.18718,-2.31784 -6.18718,-5.17703 0,-2.8592 2.77009,-5.17704 6.18718,-5.17704 3.41709,0 6.18719,2.31784 6.18719,5.17704 z"
       id="path3823" />
  </g>
</svg>
