<svg width="310" height="81" xmlns="http://www.w3.org/2000/svg" xmlns:sketch="http://www.bohemiancoding.com/sketch/ns"><title>logo_tagline</title><g sketch:type="MSLayerGroup" fill="none" fill-rule="evenodd"><path d="M103.146 36.782h5.08c1.477 0 2.604-.405 3.375-1.218.773-.813 1.159-1.857 1.159-3.134 0-1.304-.386-2.37-1.159-3.204-.771-.833-1.898-1.248-3.375-1.248h-5.08v8.805zm0 5.239v10.054h-6.833v-29.338h11.913c3.48 0 6.241.89 8.283 2.669 2.044 1.782 3.065 4.108 3.065 6.982 0 2.889-1.021 5.217-3.065 6.984-2.042 1.765-4.804 2.649-8.283 2.649h-5.08zm43.38-19.284v19.223c0 3.346-1.112 5.938-3.336 7.779-2.223 1.839-5.136 2.759-8.736 2.759-3.642 0-6.578-.919-8.809-2.759-2.23-1.841-3.347-4.434-3.347-7.779v-19.223h6.834v19.223c0 1.801.464 3.134 1.391 4 .927.866 2.237 1.3 3.931 1.3 1.679 0 2.971-.43 3.879-1.29.907-.86 1.36-2.197 1.36-4.01v-19.223h6.834zm11.07 24.1h13.365v5.238h-21.75v-3.062l13.122-21.036h-13.182v-5.239h21.629v2.942l-13.184 21.157zm23.882 0h13.364v5.238h-21.749v-3.062l13.122-21.036h-13.184v-5.239h21.629v2.942l-13.184 21.157zm22.753 0h12.638v5.238h-19.472v-29.338h6.834v24.1zm33.348-7.315h-11.51v7.314h13.566v5.238h-20.398v-29.338h20.438v5.239h-13.606v6.306h11.51v5.239zm22.674 12.553h-6.793v-29.338h6.793v29.338zm24.798-24.099h-7.741v24.098h-6.834v-24.098h-7.679v-5.239h22.253v5.239zm24.869 13.803l.04.12c-.135 3.44-1.154 6.065-3.054 7.88-1.904 1.813-4.66 2.719-8.275 2.719-3.628 0-6.577-1.115-8.849-3.344-2.271-2.23-3.407-5.124-3.407-8.684v-6.126c0-3.546 1.091-6.437 3.276-8.674 2.184-2.237 5.02-3.356 8.516-3.356 3.708 0 6.543.934 8.504 2.8 1.964 1.868 3.072 4.52 3.327 7.959l-.039.121h-6.632c-.095-1.907-.521-3.325-1.28-4.251-.759-.928-2.053-1.391-3.879-1.391-1.546 0-2.763.622-3.65 1.864-.886 1.243-1.33 2.871-1.33 4.886v6.166c0 2.028.484 3.668 1.452 4.916.967 1.25 2.297 1.875 3.991 1.875 1.64 0 2.802-.437 3.487-1.311.685-.872 1.075-2.263 1.168-4.17h6.633zm-298.2 27.232c-15.628-15.622-15.628-40.948 0-56.57 15.625-15.62 40.962-15.618 56.588 0 15.627 15.623 15.626 40.947 0 56.569-15.627 15.622-40.961 15.623-56.588.001zm87.812.116c.472 0 .889-.146 1.249-.437.359-.292.539-.65.539-1.075h1.282l.013.044c.024.675-.275 1.276-.901 1.801-.625.526-1.352.788-2.182.788-1.139 0-2.01-.371-2.613-1.113-.603-.743-.905-1.676-.905-2.8v-.304c0-1.114.303-2.043.908-2.789.606-.744 1.475-1.118 2.609-1.118.916 0 1.665.27 2.247.811.581.54.862 1.204.843 1.989l-.015.044h-1.288c0-.478-.169-.883-.507-1.219-.337-.335-.765-.503-1.28-.503-.749 0-1.282.269-1.603.806-.322.536-.481 1.195-.481 1.976v.303c0 .8.158 1.466.477 1.998.318.533.855.799 1.607.799zm6.155-5.809c.27-.376.602-.67.995-.879.393-.21.829-.315 1.306-.315.834 0 1.484.25 1.95.752.466.502.699 1.274.699 2.315v4.905h-1.426v-4.919c0-.646-.139-1.124-.416-1.433-.277-.308-.691-.463-1.241-.463-.396 0-.755.093-1.075.279-.321.186-.585.437-.793.756v5.781h-1.426v-11.286h1.426v4.508zm9.331 5.73c.516 0 .982-.133 1.397-.397.415-.265.685-.567.811-.909v-1.269h-1.6c-.574 0-1.033.144-1.378.433-.344.289-.517.628-.517 1.017 0 .347.108.621.325.823.217.202.537.303.962.303zm2.367 1.048l-.113-.625c-.026-.181-.042-.363-.047-.547-.265.376-.611.691-1.039.944-.426.253-.886.38-1.378.38-.815 0-1.436-.208-1.864-.626-.426-.416-.64-.992-.64-1.725 0-.747.303-1.333.908-1.754.606-.423 1.427-.634 2.465-.634h1.549v-.773c0-.459-.14-.821-.42-1.089-.279-.267-.675-.402-1.186-.402-.459 0-.831.117-1.118.351-.288.234-.431.515-.431.843h-1.361l-.014-.044c-.029-.569.24-1.09.807-1.563.566-.473 1.299-.708 2.196-.708.887 0 1.601.225 2.142.677.54.45.81 1.101.81 1.949v3.77c0 .279.014.55.043.81.029.261.082.516.16.767h-1.469zm4.572-7.828l.101 1.165c.26-.415.588-.737.98-.966.394-.229.841-.344 1.343-.344.844 0 1.498.248 1.961.742.463.495.695 1.258.695 2.29v4.942h-1.425v-4.913c0-.689-.137-1.179-.409-1.468-.273-.289-.69-.434-1.249-.434-.411 0-.774.099-1.09.296-.315.198-.568.468-.756.811v5.708h-1.426v-7.828h1.274zm8.217 4.211c0 .786.167 1.418.5 1.896.333.477.839.715 1.52.715.43 0 .789-.097 1.078-.293.289-.195.529-.471.716-.828v-3.603c-.183-.333-.422-.597-.716-.792-.294-.195-.649-.293-1.064-.293-.68 0-1.19.284-1.527.854-.339.569-.507 1.3-.507 2.192v.152zm-1.426-.152c0-1.259.275-2.274.825-3.046.551-.772 1.311-1.158 2.28-1.158.497 0 .934.1 1.31.301.377.2.69.488.941.865l.174-1.021h1.136v7.871c0 1.003-.291 1.774-.875 2.312-.584.538-1.426.806-2.526.806-.376 0-.783-.052-1.22-.155-.436-.104-.822-.246-1.154-.424l.361-1.106c.256.145.565.262.926.351.363.09.719.134 1.071.134.695 0 1.201-.158 1.516-.474.317-.316.474-.797.474-1.444v-.882c-.256.327-.563.575-.919.741-.357.167-.767.25-1.23.25-.961 0-1.715-.347-2.266-1.042-.55-.694-.825-1.603-.825-2.727v-.152zm10.203 3.769h-1.426v-7.828h1.426v7.828zm0-9.833h-1.426v-1.454h1.426v1.454zm3.387 2.004l.101 1.165c.26-.415.588-.737.98-.966.394-.229.841-.344 1.343-.344.844 0 1.498.248 1.961.742.463.495.695 1.258.695 2.29v4.942h-1.425v-4.913c0-.689-.137-1.179-.409-1.468-.273-.289-.69-.434-1.249-.434-.411 0-.774.099-1.09.296-.315.198-.568.468-.756.811v5.708h-1.426v-7.828h1.274zm8.217 4.211c0 .786.167 1.418.5 1.896.333.477.839.715 1.52.715.43 0 .789-.097 1.078-.293.289-.195.529-.471.716-.828v-3.603c-.183-.333-.422-.597-.716-.792-.294-.195-.649-.293-1.064-.293-.68 0-1.19.284-1.527.854-.339.569-.507 1.3-.507 2.192v.152zm-1.426-.152c0-1.259.275-2.274.825-3.046.551-.772 1.311-1.158 2.28-1.158.497 0 .934.1 1.31.301.377.2.69.488.941.865l.174-1.021h1.136v7.871c0 1.003-.291 1.774-.875 2.312-.584.538-1.426.806-2.526.806-.376 0-.783-.052-1.22-.155-.436-.104-.822-.246-1.154-.424l.361-1.106c.256.145.565.262.926.351.363.09.719.134 1.071.134.695 0 1.201-.158 1.516-.474.317-.316.474-.797.474-1.444v-.882c-.256.327-.563.575-.919.741-.357.167-.767.25-1.23.25-.961 0-1.715-.347-2.266-1.042-.55-.694-.825-1.603-.825-2.727v-.152zm14.192 3.769h-1.433v-10.534h1.433v10.534zm9.784-9.412h-3.387v9.412h-1.426v-9.412h-3.379v-1.122h8.192v1.122zm5.558 9.412v-6.772h-1.222v-1.056h1.222v-.991c0-.834.219-1.48.656-1.935.436-.456 1.045-.684 1.827-.684.164 0 .329.013.495.04.167.027.351.064.553.112l-.174 1.085-.314-.05-.387-.023c-.415 0-.724.124-.927.373-.203.248-.303.609-.303 1.081v.991h1.628v1.056h-1.628v6.772h-1.426zm5.353-3.831c0 .829.175 1.513.524 2.052.35.54.87.81 1.56.81.68 0 1.196-.27 1.549-.81.352-.538.529-1.223.529-2.052v-.159c0-.818-.177-1.5-.531-2.044-.355-.545-.875-.817-1.56-.817-.68 0-1.196.272-1.546.817-.349.544-.524 1.226-.524 2.044v.159zm-1.426-.156c0-1.157.314-2.111.942-2.86.627-.751 1.479-1.125 2.555-1.125 1.086 0 1.943.374 2.573 1.121.63.748.944 1.703.944 2.865v.16c0 1.167-.313 2.122-.941 2.865-.627.743-1.481 1.114-2.562 1.114-1.081 0-1.936-.373-2.566-1.118-.63-.745-.945-1.699-.945-2.861v-.16zm12.446-2.582l-.731-.044c-.376 0-.694.09-.952.268-.258.179-.457.43-.596.753v5.592h-1.426v-7.828h1.274l.137 1.143c.222-.405.495-.721.822-.948.325-.226.7-.339 1.126-.339l.303.025.239.054-.195 1.324zm6.941-3.147v1.889h1.484v1.056h-1.484v4.753c0 .368.076.625.227.775.152.15.354.224.605.224l.271-.029.265-.073.188.976c-.106.087-.262.158-.467.214-.205.055-.411.083-.619.083-.579 0-1.04-.174-1.383-.524-.342-.349-.514-.897-.514-1.646v-4.753h-1.244v-1.056h1.244v-1.889h1.426zm4.482 2.938c.27-.376.602-.67.995-.879.393-.21.829-.315 1.306-.315.834 0 1.484.25 1.95.752.466.502.699 1.274.699 2.315v4.905h-1.426v-4.919c0-.646-.139-1.124-.416-1.433-.277-.308-.691-.463-1.241-.463-.396 0-.755.093-1.075.279-.321.186-.585.437-.793.756v5.781h-1.426v-11.286h1.426v4.508zm9.991-.073c-.478 0-.886.201-1.223.603-.338.401-.546.905-.622 1.511l.013.036h3.612v-.188c0-.557-.149-1.024-.448-1.398-.299-.375-.743-.563-1.332-.563m.217 7.003c-1.09 0-1.958-.363-2.602-1.089-.644-.726-.966-1.667-.966-2.825v-.318c0-1.114.332-2.042.994-2.782.664-.74 1.449-1.111 2.356-1.111 1.057 0 1.855.318 2.396.955.54.636.81 1.485.81 2.546v.89h-5.08l-.023.037c.015.75.205 1.367.572 1.851.366.483.88.725 1.541.725.482 0 .906-.069 1.27-.206.364-.138.679-.327.944-.568l.558.927c-.28.277-.649.507-1.107.691-.458.185-1.014.277-1.664.277m13.533-3.921c0-.897-.165-1.63-.495-2.196-.331-.567-.834-.85-1.51-.85-.439 0-.809.107-1.11.322-.302.214-.542.503-.721.864v3.394c.184.386.423.687.721.904.296.217.671.325 1.126.325.67 0 1.17-.238 1.498-.716.328-.477.492-1.109.492-1.895v-.152zm1.426.152c0 1.128-.272 2.038-.815 2.731-.542.691-1.29 1.038-2.24 1.038-.516 0-.965-.1-1.345-.3-.382-.2-.697-.495-.949-.887l-.174 1.035h-1.165v-11.286h1.425v4.384c.246-.348.552-.613.915-.796.365-.183.79-.275 1.278-.275.964 0 1.717.386 2.258 1.158.54.771.811 1.786.811 3.046v.152zm4.747-3.234c-.478 0-.886.201-1.223.603-.338.401-.546.905-.622 1.511l.013.036h3.612v-.188c0-.557-.149-1.024-.448-1.398-.299-.375-.743-.563-1.332-.563m.217 7.003c-1.09 0-1.958-.363-2.602-1.089-.644-.726-.966-1.667-.966-2.825v-.318c0-1.114.332-2.042.994-2.782.664-.74 1.449-1.111 2.356-1.111 1.057 0 1.855.318 2.396.955.54.636.81 1.485.81 2.546v.89h-5.08l-.023.037c.015.75.205 1.367.572 1.851.366.483.88.725 1.541.725.482 0 .906-.069 1.27-.206.364-.138.679-.327.944-.568l.558.927c-.28.277-.649.507-1.107.691-.458.185-1.014.277-1.664.277m6.495-9.868v1.889h1.484v1.056h-1.484v4.753c0 .368.076.625.227.775.152.15.354.224.605.224l.271-.029.265-.073.188.976c-.106.087-.262.158-.467.214-.205.055-.411.083-.619.083-.579 0-1.04-.174-1.383-.524-.342-.349-.514-.897-.514-1.646v-4.753h-1.244v-1.056h1.244v-1.889h1.426zm5.3 0v1.889h1.484v1.056h-1.484v4.753c0 .368.076.625.227.775.152.15.354.224.605.224l.271-.029.265-.073.188.976c-.106.087-.262.158-.467.214-.205.055-.411.083-.619.083-.579 0-1.04-.174-1.383-.524-.342-.349-.514-.897-.514-1.646v-4.753h-1.244v-1.056h1.244v-1.889h1.426zm5.848 2.865c-.478 0-.886.201-1.223.603-.338.401-.546.905-.622 1.511l.013.036h3.612v-.188c0-.557-.149-1.024-.448-1.398-.299-.375-.743-.563-1.332-.563m.217 7.003c-1.09 0-1.958-.363-2.602-1.089-.644-.726-.966-1.667-.966-2.825v-.318c0-1.114.332-2.042.994-2.782.664-.74 1.449-1.111 2.356-1.111 1.057 0 1.855.318 2.396.955.54.636.81 1.485.81 2.546v.89h-5.08l-.023.037c.015.75.205 1.367.572 1.851.366.483.88.725 1.541.725.482 0 .906-.069 1.27-.206.364-.138.679-.327.944-.568l.558.927c-.28.277-.649.507-1.107.691-.458.185-1.014.277-1.664.277m8.347-6.721l-.731-.044c-.376 0-.694.09-.952.268-.258.179-.457.43-.596.753v5.592h-1.426v-7.828h1.274l.137 1.143c.222-.405.495-.721.822-.948.325-.226.7-.339 1.126-.339l.303.025.239.054-.195 1.324z" fill="#1E5A96" sketch:type="MSShapeGroup"/><path d="M59.724 41.831c-1.403 3.806-9.612 3.773-20.758 3.806 0 0 7.202-1.017 9.283-5.037 2.082-4.017 4.534-12.159 4.534-12.159-11.089-.001-12.077 3.882-12.077 3.882s-7.009 19.59-9.508 26.818c-19.419 0-16.315-9.588-16.315-9.588l9.713-27.238h19.679l-1.314 3.921s1.604-3.921 12.45-3.921c0 0 11.119.048 9.813 3.943-1.304 3.893-5.499 15.573-5.499 15.573" fill="#fff" sketch:type="MSShapeGroup"/></g></svg>