<?xml version="1.0" encoding="utf-8"?>
<!-- Generator: Adobe Illustrator 22.0.1, SVG Export Plug-In . SVG Version: 6.00 Build 0)  -->
<svg version="1.1"
	 id="svg8" inkscape:export-filename="C:\Users\Ivan Herrera\Pictures\Inkscape\ya.png" inkscape:export-xdpi="1003.6" inkscape:export-ydpi="1003.6" inkscape:version="0.92.3 (2405546, 2018-03-11)" sodipodi:docname="asdadasd.svg" xmlns:cc="http://creativecommons.org/ns#" xmlns:dc="http://purl.org/dc/elements/1.1/" xmlns:inkscape="http://www.inkscape.org/namespaces/inkscape" xmlns:rdf="http://www.w3.org/1999/02/22-rdf-syntax-ns#" xmlns:sodipodi="http://sodipodi.sourceforge.net/DTD/sodipodi-0.dtd" xmlns:svg="http://www.w3.org/2000/svg"
	 xmlns="http://www.w3.org/2000/svg" xmlns:xlink="http://www.w3.org/1999/xlink" x="0px" y="0px" viewBox="0 0 960 469"
	 style="enable-background:new 0 0 960 469;" xml:space="preserve">
<style type="text/css">
	.st0{fill:#ECECEC;}
	.st1{opacity:0.681;fill:#F4D7D7;enable-background:new    ;}
	.st2{fill:#4D4D4D;}
	.st3{font-family:'BroadwayFlat3D-Regular';}
	.st4{font-size:161.5245px;}
	.st5{fill:#FFB500;}
	.st6{font-size:140.1187px;}
	.st7{fill:#000080;}
	.st8{fill:#D40000;}
	.st9{fill:#1A1A1A;}
	.st10{opacity:0.65;}
	.st11{fill:#FDD1CF;}
	.st12{fill:#F5A29F;}
	.st13{fill:#E9827C;}
	.st14{fill:#D86561;}
	.st15{fill:#B15551;}
	.st16{fill:#D71204;}
	.st17{fill:#AB150F;}
</style>
<sodipodi:namedview  bordercolor="#666666" borderopacity="1.0" id="base" inkscape:current-layer="layer1" inkscape:cx="31.501603" inkscape:cy="958.45481" inkscape:document-units="px" inkscape:pageopacity="0.0" inkscape:pageshadow="2" inkscape:window-height="1001" inkscape:window-maximized="1" inkscape:window-width="1920" inkscape:window-x="-9" inkscape:window-y="-9" inkscape:zoom="1" pagecolor="#ffffff" showborder="false" showgrid="false">
	</sodipodi:namedview>
<rect id="rect826" y="1" class="st0" width="960" height="468"/>
<circle id="path870" class="st1" cx="458.2" cy="279.4" r="37.3"/>
<circle id="circle902" class="st1" cx="551.7" cy="151.8" r="37.3"/>
<circle id="circle904" class="st1" cx="540.5" cy="352.9" r="37.3"/>
<circle id="circle906" class="st1" cx="678" cy="399.4" r="37.3"/>
<circle id="circle900" class="st1" cx="704.3" cy="303.2" r="37.3"/>
<circle id="circle912" class="st1" cx="245.3" cy="80.5" r="29.1"/>
<circle id="circle916" class="st1" cx="731.7" cy="65.3" r="29.1"/>
<circle id="circle918" class="st1" cx="284.3" cy="391.4" r="29.1"/>
<circle id="circle908" class="st1" cx="245.5" cy="336.4" r="29.1"/>
<circle id="circle922" class="st1" cx="268.7" cy="314.8" r="18.3"/>
<circle id="circle924" class="st1" cx="360.9" cy="246.6" r="18.3"/>
<circle id="circle926" class="st1" cx="352.1" cy="141.7" r="18.3"/>
<circle id="circle928" class="st1" cx="646.4" cy="208.7" r="18.3"/>
<ellipse id="circle930" transform="matrix(0.1602 -0.9871 0.9871 0.1602 320.3725 614.5524)" class="st1" cx="521.3" cy="119" rx="18.3" ry="18.3"/>
<circle id="circle932" class="st1" cx="737.4" cy="217.5" r="18.3"/>
<circle id="circle920" class="st1" cx="737.4" cy="217.5" r="18.3"/>
<ellipse id="circle934" class="st1" cx="593.4" cy="256.7" rx="76.4" ry="75.2"/>
<circle id="circle938" class="st1" cx="440.5" cy="170.8" r="57.5"/>
<circle id="circle940" class="st1" cx="386.2" cy="102.6" r="57.5"/>
<circle id="circle942" class="st1" cx="655.3" cy="121.5" r="57.5"/>
<circle id="circle944" class="st1" cx="258.6" cy="189.7" r="57.5"/>
<circle id="circle936" class="st1" cx="363.4" cy="309.8" r="57.5"/>
<circle id="circle948" class="st1" cx="573.1" cy="64.7" r="17.1"/>
<g>
	<text transform="matrix(1 0 0 1 386.4213 337.5052)" class="st2 st3 st4">1.0</text>
	<text transform="matrix(1 0 0 1 251.7641 213.8128)" class="st5 st3 st6">E</text>
	<text transform="matrix(1 0 0 1 309.7709 213.8128)" class="st7 st3 st6">C</text>
	<text transform="matrix(1 0 0 1 371.141 213.8128)" class="st8 st3 st6">U</text>
	<text transform="matrix(1 0 0 1 432.5111 213.8128)" class="st9 st3 st6">RUBY</text>
</g>
<g id="g991" transform="translate(272.397,-177.00812)" class="st10">
	<path id="path1005" inkscape:connector-curvature="0" class="st11" d="M541.5,611.2c-5-0.5-33.4-3.2-63.1-5.9
		c-65.1-5.9-65.9-6-62.2-7.4c3.8-1.5,35.1-1.4,46,0c5,0.7,13.2,1.8,18.3,2.5c9.3,1.2,21.5,2.9,35.2,4.8c4,0.6,14.4,2,23.1,3.2
		c8.8,1.2,15.9,2.6,15.9,3.1C554.7,612.6,554.2,612.6,541.5,611.2L541.5,611.2z M565.5,608.9c-3-0.5-10-1.6-15.6-2.3
		c-5.6-0.8-21.6-2.9-35.5-4.9c-13.9-1.9-32.4-4.4-41.2-5.6c-8.8-1.2-15.8-2.6-15.6-3.1c0.2-0.5,16.8-11.6,37-24.6
		c42.5-27.4,44.4-28.6,45.1-28c0.5,0.5,38.7,64.2,40.5,67.5c1,1.9,0.5,2.1-4,2C573.2,609.9,568.5,609.4,565.5,608.9L565.5,608.9z
		 M581.4,603.2c-16.4-26-38.8-64.7-38.3-66.1c1.2-3.2,49.1-75,49.7-74.4c0.7,0.7,0.4,24.8-0.3,30.1c-0.3,2-1.7,28.5-3.1,58.9
		c-1.4,30.4-3,55.7-3.5,56.3C585.5,608.6,583.5,606.4,581.4,603.2L581.4,603.2z M405.6,592.3c0-0.9,9.5-24.1,18.3-44.5
		c2.1-4.8,4.1-8.3,4.6-7.8c2.1,2.4,20,50.4,19.1,51.2C446.5,592.2,405.6,593.3,405.6,592.3L405.6,592.3z M452,587.6
		c0.3-1.2,4.3-17.8,8.8-36.8c4.5-19,8.5-34.9,8.8-35.2c0.5-0.5,20.8,5.8,53.5,16.7c6.1,2,11.1,4,11.1,4.4c0,0.4-4.7,3.7-10.5,7.4
		c-5.8,3.7-23.7,15.2-39.9,25.7c-16.2,10.4-30,19.2-30.9,19.5C452,589.6,451.7,589.1,452,587.6L452,587.6z M439.9,558.1
		c-4.5-11.4-8.2-22.1-8.3-23.7c-0.2-2.7,1.5-3.9,16.3-11.5c11.5-5.9,16.5-8,16.5-6.8c0,1-2.2,10.8-4.9,21.8
		c-4.9,20.2-8,33.4-9.1,38.3c-0.3,1.5-1,2.7-1.6,2.7C448.5,578.8,444.4,569.5,439.9,558.1z M405.6,576.1c0-2.2,9.3-49.6,10.3-52.5
		c0.4-1.3,2-0.4,5.5,3.2l4.9,4.9l-9.4,22C407.6,575.9,405.6,579.9,405.6,576.1L405.6,576.1z M521.6,527.7
		c-6.6-2.2-20.8-6.9-31.6-10.4c-10.8-3.5-19.4-6.7-19.2-7.1c0.2-0.4,7.1-6.9,15.3-14.5c8.3-7.5,16.9-15.4,19.2-17.6
		c2.3-2.2,4.5-3.9,4.9-3.9c1.2,0,24.2,55.2,23.7,56.6C533.8,531.3,528.2,529.9,521.6,527.7L521.6,527.7z M537.2,527.4
		c-1.1-2.5-5.6-13.4-10.1-24.3c-4.5-10.9-9-21.9-10.1-24.3c-1.9-4.4-1.9-4.5,0.8-5.1c6.7-1.5,67.6-11.3,68-10.9
		c0.5,0.5-45.2,69.2-46,69.2C539.4,531.9,538.2,529.9,537.2,527.4L537.2,527.4z M422.8,521.2l-3.9-4.5l8.5-12.5
		c4.7-6.9,9.6-13.6,11.1-14.9c1.4-1.3,9.5-8.7,17.9-16.4c11.3-10.4,18.5-15.8,27.7-21c22.4-12.8,20-12,28.2-9.2c4.6,1.6,7,3,6.7,4.1
		c-0.2,0.9-2.6,6.2-5.4,11.7c-4.5,9.1-6.6,11.5-20.7,24.6c-8.6,8-18.1,16.9-21,19.7c-5.7,5.4-38.8,23.3-42.9,23.1
		C427.6,525.8,424.9,523.7,422.8,521.2L422.8,521.2z M515,466.5c1.9-5.1,9.6-19.8,10.6-20.4c1-0.6,50.6,11.9,51.7,13.1
		c0.7,0.7-1.6,1.4-7.6,2.3c-2.6,0.4-15.5,2.3-28.7,4.3C512,470.2,513.6,470.2,515,466.5L515,466.5z M579.3,455.6
		c-5.3-1.5-16.6-4.7-25.1-7c-14.8-4.1-17.4-5.1-16.3-6c0.4-0.3,12.6-3.1,44-10.1c2.3-0.5,3,0.6,6.5,11.3c2.2,6.5,4.2,12.5,4.5,13.3
		C593.6,459.1,590.8,458.8,579.3,455.6L579.3,455.6z M516.9,438.9c-2.4-1.7-3.7-1.4,25.8-5.6c12.4-1.8,15.6-2,15.6-1.1
		c0,0.5-2.8,1.4-6.3,2.2c-3.5,0.7-11.2,2.4-17.1,3.8C522.2,441,519.8,441.1,516.9,438.9z"/>
	<path id="path1003" inkscape:connector-curvature="0" class="st12" d="M537.9,610.5c-2.3-0.3-30.7-2.9-63.1-5.9s-59.5-5.6-60.1-5.8
		c-2.8-0.9,30.5-2.2,38.4-1.5c8.4,0.8,94.6,12.4,98.1,13.2C553.4,611.1,543.3,611,537.9,610.5L537.9,610.5z M555.3,607.1
		c-10.6-1.5-36-5-56.5-7.7c-20.5-2.7-38.2-5.4-39.3-5.8c-1.5-0.6,8.8-7.8,37.9-26.4c21.9-14.1,40.4-25.7,41.1-25.9
		c1-0.2,26,40.2,39.6,63.8l2.9,5.1l-3.2-0.1C576,609.9,565.9,608.6,555.3,607.1L555.3,607.1z M582.8,604.6
		c-1.3-1.9-10.9-17.7-21.3-35l-18.9-31.4l25.3-38.3c25.1-38.1,25.3-38.3,25.3-32.9c0,3-1,25.7-2.3,50.5c-1.3,24.8-2.7,54-3.2,64.9
		c-0.5,10.9-1.2,21.1-1.6,22.8l-0.8,2.9L582.8,604.6z M411.1,579.3c14.4-34.4,16.5-39,17.4-38.1c1.7,1.8,19.3,48.8,18.5,49.6
		c-0.4,0.4-9.9,0.9-21,1.2l-20.3,0.4L411.1,579.3z M452.5,588.5c0-0.9,8.8-38.6,15.2-65.1l1.9-8l16.4,5.3c9,2.9,23.7,7.6,32.6,10.5
		l16.2,5.3l-8.4,5.4c-4.6,3-23.1,14.9-41.1,26.5C467.2,580,452.5,589.1,452.5,588.5L452.5,588.5z M439.4,555.8
		c-4.9-12.6-8.4-23.3-7.8-23.8c1.9-1.7,31.9-17.1,32.4-16.6c0.6,0.6-14,61.4-15,62.5C448.6,578.3,444.3,568.4,439.4,555.8z
		 M405.6,576.7c0-1.5,9.4-47.9,10.4-51.2c0.6-2,1.1-1.8,4.8,1.7c2.2,2.2,4.1,4.7,4.1,5.6c0,1.5-17.6,43.4-18.8,44.7
		C405.8,577.8,405.6,577.4,405.6,576.7L405.6,576.7z M537,526.3c-10-23.7-20.9-51.1-20.4-51.6c1-1,66.9-11.7,67.7-11
		c0.5,0.5-40.7,63.9-44,67.4C539.8,531.6,538.3,529.5,537,526.3L537,526.3z M506,522.3c-13.9-4.6-27.3-8.9-29.8-9.6
		c-2.5-0.7-4.5-1.7-4.5-2.2c0-1.2,38.4-36.6,39-36c0.2,0.2,5.4,12.6,11.5,27.5c6.1,14.9,11.3,27.5,11.6,28
		C534.9,531.6,531,530.5,506,522.3L506,522.3z M423.4,521.5l-4.4-4.4l8.2-12.2c6.4-9.6,11.9-15.6,25.3-28.1
		c18.3-17,20-18.3,39.6-29.1l12.8-7.1l6.4,2.1c3.5,1.1,6.7,2.7,7,3.5c0.3,0.8-1.9,6.2-4.8,12.1c-4.7,9.3-6.8,11.9-16.6,20.9
		c-6.2,5.6-15.6,14.4-21,19.4c-8.4,8-12.2,10.4-27.9,18.3c-10,5-18.6,9.1-19.2,9.1C428.2,525.9,425.8,523.9,423.4,521.5L423.4,521.5
		z M519.4,458.2c4.1-8.2,6.4-11.6,7.9-11.6c4,0,49.1,12.4,48.2,13.2c-0.5,0.5-13.1,2.6-28,4.7c-14.9,2.2-28.6,4.2-30.4,4.6l-3.4,0.6
		L519.4,458.2z M564.6,451c-14.7-4.1-26.3-7.7-25.9-8.1c1.1-0.9,40.9-9.6,43.8-9.6c1.5,0,3.1,3.4,6.2,12.7
		c2.3,6.9,3.9,12.6,3.4,12.5C591.7,458.5,579.3,455.1,564.6,451L564.6,451z M517.4,439.1c-2.7-1.2-2.1-1.5,6-2.7
		c16.3-2.6,32.5-4.5,33.1-4c0.5,0.5-32.8,8.3-34.9,8.1C520.9,440.4,519.1,439.8,517.4,439.1L517.4,439.1z"/>
	<path id="path1001" inkscape:connector-curvature="0" class="st13" d="M545.4,610.5c1.2-0.3,3.1-0.3,4.2,0c1.2,0.3,0.2,0.5-2.1,0.5
		C545.2,611,544.2,610.8,545.4,610.5L545.4,610.5z M476.5,604.6c-30.1-2.9-56.3-5.4-58.3-5.6c-2-0.2,4-0.8,13.2-1.3
		c14-0.8,20.1-0.5,36.1,1.6c37.1,4.8,74.5,10.5,69.1,10.5C533.7,609.8,506.6,607.5,476.5,604.6z M517.7,601.7
		c-31.9-4.4-58.3-8.4-58.6-8.7c-0.3-0.3,17.5-12.3,39.7-26.5l40.3-25.9l2.3,3.8c1.3,2.1,10.7,17.7,20.9,34.8
		c15.7,26.2,18.2,30.9,16,30.8C576.9,609.9,549.6,606.2,517.7,601.7L517.7,601.7z M583,604.6c-1.2-1.8-10.7-17.5-21.2-34.9
		l-19.1-31.7l24.9-37.4c13.7-20.6,25.1-36.9,25.3-36.3c0.5,1.5-6.7,142.4-7.3,143C585.3,607.5,584.1,606.3,583,604.6z M406.8,591.3
		c0-2,20.8-51,21.5-50.4c1.1,1.1,19.4,49.1,18.9,49.6C446.1,591.6,406.8,592.4,406.8,591.3L406.8,591.3z M452.9,586.5
		c0.4-1.2,4.2-17.4,8.6-35.9c4.4-18.5,8.2-33.9,8.5-34.2c0.7-0.7,63.1,19.4,63.1,20.3c0,0.6-77.4,50.8-79.6,51.6
		C452.8,588.5,452.5,587.8,452.9,586.5L452.9,586.5z M440.2,556.9c-4.4-11.4-8.3-21.6-8.7-22.7c-0.6-1.5,2.8-3.8,15.8-10.5
		c9.1-4.7,16.7-8.4,16.8-8.3c0.5,0.5-14.3,60.4-15.1,61.3C448.5,577.2,444.6,568.3,440.2,556.9z M406.2,574c0.3-1.7,2.5-12.5,4.8-24
		c2.3-11.6,4.5-22.3,4.9-23.9l0.7-2.9l4.1,4c2.3,2.2,4.1,4.7,4.1,5.5c0,1.5-15.9,38.8-18,42.4C405.8,576.6,405.7,576.4,406.2,574z
		 M527.8,503.5c-6.4-15.6-11.5-28.6-11.3-28.8c0.7-0.7,66.1-11.4,67.2-11.1c0.6,0.2-9.2,15.6-21.6,34.3l-22.6,33.9L527.8,503.5z
		 M501.5,520.7c-16.4-5.4-29.8-10.1-29.8-10.5c0-0.4,8.7-8.7,19.4-18.4l19.4-17.7l11.2,27.3c6.2,15,11.2,27.7,11.2,28.3
		C533,531.1,534.4,531.5,501.5,520.7L501.5,520.7z M423.9,522c-2.1-2.2-3.8-4.4-3.8-4.9c0-0.5,3.7-6.4,8.2-13.2
		c6.7-10,11.5-15.3,25.4-27.9c18.1-16.5,20.7-18.4,39.7-28.9l11.9-6.6l6.4,2.5c3.5,1.4,6.6,2.7,6.8,2.9c0.2,0.2-2.3,5.7-5.6,12.2
		c-4.8,9.5-7.4,13.1-13,18c-3.9,3.4-13,11.8-20.3,18.7c-12.1,11.4-14.8,13.3-30,21.1c-9.2,4.7-17.9,8.9-19.3,9.3
		C428.4,525.7,426.7,524.9,423.9,522L423.9,522z M515,468.2c0-2.3,10.2-21.6,11.4-21.7c2-0.1,49.8,12.6,49.4,13
		c-0.2,0.2-12.5,2.3-27.3,4.5c-14.8,2.2-28.3,4.3-30.2,4.7C516.5,469.1,515,468.8,515,468.2z M565.2,451c-14.4-4-25.8-7.6-25.3-8.1
		c1.2-1.1,43.5-10.2,44-9.5c1.2,1.5,9,25.2,8.3,25C591.8,458.4,579.6,455,565.2,451z M520.4,439.6c-1.3-0.3-2.8-0.9-3.3-1.4
		c-0.8-0.7,6.1-1.8,35.8-5.6c2-0.3,0.4,0.4-3.6,1.4C534.6,437.8,522.8,440.1,520.4,439.6z"/>
	<path id="path999" inkscape:connector-curvature="0" class="st14" d="M546,610.5c0.8-0.3,2.2-0.3,3,0c0.8,0.3,0.2,0.6-1.5,0.6
		S545.1,610.8,546,610.5L546,610.5z M473.5,604.2l-58.9-5.5l17.4-0.9c16.9-0.8,18.8-0.7,63.7,5.6c25.5,3.6,44.1,6.4,41.5,6.4
		C534.6,609.8,505.9,607.3,473.5,604.2L473.5,604.2z M519.2,601.7c-31.7-4.4-58.4-8.3-59.3-8.6c-1.5-0.5,76.5-51.6,78.8-51.6
		c0.9,0,41.3,66.3,41.3,67.8C579.9,610.3,585.8,611,519.2,601.7L519.2,601.7z M564.9,574.6c-11.1-18.3-20.4-34.2-20.7-35.4
		c-0.4-1.4,7.9-15,23.8-39c13.4-20.3,24.5-36.6,24.7-36.4c0.5,0.5-6.7,143-7.2,143.6C585.2,607.6,576,592.8,564.9,574.6L564.9,574.6
		z M406.8,591.2c0-1.4,20.9-50.8,21.3-50.4c0.2,0.2,4.7,11.4,9.9,24.9l9.5,24.5l-9.8,0.8C424.2,592.1,406.8,592.2,406.8,591.2
		L406.8,591.2z M452.7,587.1c0.4-0.9,4.3-17.1,8.7-35.9s8.3-34.5,8.5-34.7c0.6-0.6,63,19.5,63,20.3c0,0.6-77.4,50.7-79.7,51.6
		C452.7,588.6,452.4,588,452.7,587.1L452.7,587.1z M439.8,555.8c-4.6-11.9-8.5-22.1-8.7-22.5c-0.2-0.5,7.3-4.8,16.5-9.6
		c9.3-4.8,16.6-8.1,16.3-7.2c-0.3,0.9-3.6,14.6-7.4,30.4s-7.2,29.2-7.6,29.7C448.6,577.2,444.5,567.8,439.8,555.8L439.8,555.8z
		 M406.8,573.2c0-0.7,2.2-11.9,4.8-25.1c2.6-13.1,4.8-24.2,4.8-24.5c0-0.3,1.9,1.2,4.2,3.5c2.3,2.2,4.2,4.7,4.2,5.5
		c0,1.3-16.6,40.2-17.6,41.3C407,574.2,406.8,573.9,406.8,573.2z M527.9,503.4c-6.4-15.6-11.5-28.5-11.4-28.7
		c0.6-0.5,67.4-11.4,67.7-11c0.2,0.2-9.8,15.6-22.2,34.2l-22.6,33.8L527.9,503.4z M502.1,520.7c-16.7-5.4-30.2-10.2-30.1-10.6
		c0.4-1.2,37.2-34.6,38.1-34.6c0.9,0,23.3,54.1,22.7,54.6C532.6,530.3,518.8,526,502.1,520.7z M424.2,522.1c-2.3-2-4.2-4.2-4.2-4.8
		c0-0.6,3.8-6.7,8.3-13.4c6.6-9.7,11.9-15.5,25.5-27.9c18.3-16.7,20.3-18.2,39.1-28.6l12.2-6.8l6.4,2.4c3.5,1.3,6.6,2.6,6.8,2.8
		c0.2,0.2-2.2,5.5-5.4,11.8c-5.6,11.1-6.3,11.9-26.6,30.5c-21.5,19.7-24.8,21.9-45.6,31.8l-12.4,5.8L424.2,522.1z M515,468.7
		c0-1.4,11-22.1,11.7-22.1c0.5,0,12,2.9,25.5,6.4c19.3,5,23.9,6.6,21,7.2c-2,0.4-15,2.4-28.9,4.4c-13.9,2-26.2,3.9-27.4,4.1
		C516,469,515,469,515,468.7L515,468.7z M565.3,450.9c-14.3-4-25.4-7.7-24.6-8.1c3.4-1.8,42.1-9.6,43-8.7c1.3,1.3,9.4,24.5,8.5,24.3
		C591.7,458.4,579.6,455,565.3,450.9z M517,438.4c-0.5-0.8,9.7-2.4,28.7-4.5c2.6-0.3-0.3,0.8-6.6,2.4
		C527.5,439.3,518.1,440.2,517,438.4z M553.3,432.5c0.9-0.3,1.9-0.3,2.3,0.1c0.4,0.4-0.3,0.7-1.6,0.6
		C552.6,433.2,552.3,432.9,553.3,432.5L553.3,432.5z"/>
	<path id="path997" inkscape:connector-curvature="0" class="st15" d="M546,610.5c0.8-0.3,2.2-0.3,3,0c0.8,0.3,0.2,0.6-1.5,0.6
		S545.1,610.8,546,610.5L546,610.5z M534.6,609.3c1.2-0.3,3.1-0.3,4.2,0c1.2,0.3,0.2,0.5-2.1,0.5
		C534.3,609.8,533.4,609.6,534.6,609.3L534.6,609.3z M519.7,601.7c-32.1-4.5-59-8.3-59.8-8.6c-1.3-0.4,75.5-50.6,78.4-51.3
		c0.8-0.2,10.3,14.7,21.2,32.9c21.4,35.8,21.1,35.4,19.6,35.1C578.6,609.9,551.8,606.2,519.7,601.7L519.7,601.7z M516.8,608
		c-2-0.3-25.8-2.6-52.9-5.1c-45.8-4.3-48.4-4.7-36.1-5.1c20.9-0.7,25.9-0.3,55.3,3.8c15.2,2.1,32.5,4.6,38.5,5.4
		c8.1,1.1,9.3,1.5,4.8,1.5C523.1,608.5,518.8,608.3,516.8,608L516.8,608z M564.5,573.8c-11.4-18.9-20.7-35-20.7-35.7
		c0-0.7,11.1-18,24.7-38.3l24.7-37l-0.7,9.6c-0.4,5.3-2.1,37.5-3.7,71.5c-1.7,34.1-3.2,62.4-3.4,63.1
		C585.3,607.7,575.9,592.7,564.5,573.8L564.5,573.8z M406.8,591.4c0-0.5,7.6-18.9,19.6-47.2l1.7-4l9.7,25l9.7,25l-11,0.8
		C422.1,592,406.8,592.2,406.8,591.4L406.8,591.4z M453.1,587c0.3-0.9,4.1-17,8.5-35.8c4.4-18.8,8.2-34.4,8.4-34.7
		c0.5-0.5,61.1,19,62.1,20c0.4,0.4-15.2,11.1-34.8,23.6C453.8,588.1,452.4,589,453.1,587L453.1,587z M439.9,555.7
		c-4.6-12-8.5-22.1-8.7-22.5c-0.2-0.4,7.2-4.6,16.4-9.4l16.6-8.7l-2.8,11.7c-1.6,6.4-4.8,20.1-7.3,30.3c-2.4,10.3-4.7,19-5.1,19.4
		C448.6,577.1,444.5,567.6,439.9,555.7L439.9,555.7z M406.8,573.3c0-0.6,2.2-11.6,4.8-24.4c2.6-12.8,4.8-23.9,4.8-24.6
		s1.9,0.6,4.2,2.8c2.3,2.2,4.2,4.5,4.2,5.1c0,1.1-16.7,40.8-17.6,41.7C407,574.2,406.8,573.9,406.8,573.3L406.8,573.3z M528.2,504
		c-6.3-15.2-11.6-28.1-11.7-28.5c-0.3-0.7,67.2-12.4,67.8-11.7c0.1,0.1-9.9,15.5-22.2,34.1l-22.4,33.8L528.2,504z M502.6,520.6
		c-16.4-5.4-29.8-10.2-29.8-10.7c0.1-1.1,36.3-34.5,37.4-34.5c0.8,0,23.2,54.2,22.7,54.6C532.6,530.2,519,526,502.6,520.6
		L502.6,520.6z M425.5,523.4c-6.5-5.1-6.4-6,2.9-19.4c12.1-17.5,38.8-41.8,57.2-52.2c19.7-11.1,18.8-10.8,26.4-8.2
		c3.6,1.2,6.5,2.5,6.5,2.9c0,0.4-2.6,5.6-5.7,11.6c-5.4,10.4-6.6,11.8-26.5,30.1c-20.7,19-21,19.2-39.3,28.4l-18.4,9.3L425.5,523.4z
		 M515,468.6c0-1.2,11-22,11.6-22c2.5,0,48.4,12.7,47.3,13C571.5,460.4,515,469,515,468.6z M563.1,450.2
		c-18.1-5.1-23.9-7.1-21.6-7.7c17.2-4.3,41.4-9,42.2-8.3c0.8,0.8,8.3,21.4,8.3,22.7C592,458,586.6,456.8,563.1,450.2z M517,438.4
		c-0.6-1,31.7-5.5,32.7-4.5c0.3,0.3-0.4,0.6-1.7,0.6c-1.3,0-6.6,1.1-11.9,2.4C526.1,439.4,518,440,517,438.4L517,438.4z
		 M553.3,432.5c0.9-0.3,1.9-0.3,2.3,0.1c0.4,0.4-0.3,0.7-1.6,0.6C552.6,433.2,552.3,432.9,553.3,432.5L553.3,432.5z"/>
	<path id="path995" inkscape:connector-curvature="0" class="st16" d="M536.4,609.3c0.9-0.3,1.9-0.3,2.3,0.1
		c0.4,0.4-0.3,0.7-1.6,0.6C535.8,609.9,535.5,609.7,536.4,609.3L536.4,609.3z M555.9,606.5c-12.9-1.9-35.9-5.1-51.1-7.1
		c-41.3-5.6-46.4-6.4-46-6.7c0.2-0.2,18.2-11.8,39.9-25.8c32-20.6,39.9-25.2,41-23.9c2.3,2.4,41,67.3,40,67
		C579.5,609.9,568.8,608.4,555.9,606.5L555.9,606.5z M523.7,608.1c1.2-0.3,3.1-0.3,4.2,0c1.2,0.3,0.2,0.5-2.1,0.5
		C523.5,608.6,522.6,608.4,523.7,608.1L523.7,608.1z M481.3,604.6c-15.5-1.5-36.1-3.5-45.7-4.4l-17.4-1.6l18.4-0.3
		c15.6-0.3,23.2,0.3,49.9,3.9c17.3,2.3,32.3,4.5,33.3,4.7C524.9,608.2,506.4,607.1,481.3,604.6L481.3,604.6z M564.6,573.5
		c-11.4-19-20.7-35-20.7-35.7c0-0.6,11.1-17.8,24.6-38.1l24.6-36.9l-0.6,7.8c-0.3,4.3-2,35.9-3.6,70.3c-1.7,34.4-3.1,63.5-3.3,64.8
		C585.5,607.1,576.7,593.6,564.6,573.5L564.6,573.5z M406.8,591.7c0-0.2,4.8-11.9,10.6-25.9l10.6-25.5l9.6,24.9
		c5.3,13.7,9.6,25,9.5,25.1C446.9,590.8,406.8,592.1,406.8,591.7L406.8,591.7z M461.3,552.7c4.6-19.7,8.5-35.9,8.7-36.1
		c0.5-0.7,61.9,19.5,61.9,20.4c0,0.4-16.6,11.5-37,24.6c-20.3,13.1-38.1,24.5-39.5,25.4C453.1,588.3,453.7,585.2,461.3,552.7
		L461.3,552.7z M439.6,554.5l-8.4-22l15.6-8.1c8.6-4.5,15.9-7.9,16.1-7.6c0.3,0.3-2,11-5.2,23.8c-3.1,12.8-6.2,25.7-6.8,28.7
		c-0.6,3-1.5,5.8-2,6.3C448.5,576.1,444.3,566.6,439.6,554.5L439.6,554.5z M407.2,571.6c0.3-1.7,2.6-13.2,5.1-25.6l4.5-22.6l4.2,4.2
		l4.2,4.2l-9.3,21.4C410.9,565,406.9,573.3,407.2,571.6z M504.2,521c-15.5-5.1-29.3-9.6-30.5-9.9c-1.8-0.5,1.8-4.3,16.6-17.8
		c10.4-9.5,19.2-17.3,19.7-17.5c0.8-0.3,23.5,53.9,22.8,54.4C532.6,530.2,519.7,526.1,504.2,521L504.2,521z M528,502.8l-11.5-28
		l33.8-5.7c18.6-3.1,34-5.7,34.1-5.7c0.4-0.1-42.9,65-44.1,66.4C539.9,530.3,534.3,518.2,528,502.8L528,502.8z M423.9,520.8
		l-3.8-3.9l7.7-11.5c5.7-8.5,11.9-15.4,23.7-26.6c8.8-8.3,17.4-16.2,19.1-17.5c5-3.9,32.7-19.5,34.7-19.5c1.6,0,11.9,3.4,13.2,4.3
		c0.2,0.2-2.2,5.3-5.4,11.4c-5.6,10.6-6.8,12-27.1,30.7c-20.9,19.2-21.6,19.7-38.2,28.1c-9.3,4.7-17.6,8.5-18.5,8.5
		C428.4,524.7,426,522.9,423.9,520.8L423.9,520.8z M520.5,457.3c4.9-9.7,5.8-10.9,8.1-10.2c1.4,0.4,12.5,3.3,24.5,6.4
		c12,3.1,21.7,5.8,21.5,6c-0.5,0.5-54.8,8.7-57.5,8.7C515.3,468.2,515.9,466.4,520.5,457.3z M564.5,450.4
		c-16.6-4.6-23.7-7.1-22.2-7.7c4.8-2,40.6-9.3,41.3-8.5c0.4,0.5,2.2,5.1,4,10.3c1.8,5.2,3.6,10.2,3.9,11.1
		C592.5,458.1,591.8,458,564.5,450.4z M518.6,438.3c0-0.9,20.1-3.9,24.3-3.7c0.9,0-2.5,1.1-7.4,2.4
		C525.8,439.4,518.6,440,518.6,438.3z M546,433.7c0.9-0.3,1.9-0.3,2.3,0.1c0.4,0.4-0.3,0.7-1.6,0.6
		C545.4,434.4,545.1,434.1,546,433.7L546,433.7z"/>
	<path id="path993" inkscape:connector-curvature="0" class="st17" d="M536.4,609.3c0.9-0.3,1.9-0.3,2.3,0.1
		c0.4,0.4-0.3,0.7-1.6,0.6C535.8,609.9,535.5,609.7,536.4,609.3L536.4,609.3z M569.7,608.2l-9.6-1.6l9,0.7l9,0.7l-1.8-2.9
		c-3.5-5.4-8.4-14.9-6.2-12c2.2,3,10.4,17.1,9.8,16.8C579.5,609.9,575,609.1,569.7,608.2L569.7,608.2z M523.7,608.1
		c1.2-0.3,3.1-0.3,4.2,0c1.2,0.3,0.2,0.5-2.1,0.5C523.5,608.6,522.6,608.4,523.7,608.1L523.7,608.1z M482.5,604.7
		c-14.9-1.5-24.9-2.8-22.2-2.9c2.6-0.1,7.8-0.4,11.4-0.7c5.6-0.5,6-0.4,2.4,0.5c-3.2,0.8-2.2,0.9,4.2,0.5c6.2-0.4,7.9-0.2,6.6,0.7
		c-1.4,1-0.8,1.1,2.4,0.7c2.3-0.4,11,0.4,19.2,1.6C527.4,608.3,516.3,608,482.5,604.7L482.5,604.7z M578.2,596
		c-3.9-6.4-7.9-13.1-8.8-14.7c-4.4-7.8,2.7,2.5,8.5,12.3l6.2,10.5l0.7-6.9l0.7-6.9l0.2,8.7c0.1,4.8,0,8.7-0.1,8.7
		S582.1,602.4,578.2,596L578.2,596z M548.1,605.3l-4.8-0.9l4.8,0c2.6,0,6.4,0.4,8.4,0.9l3.6,0.9l-3.6,0
		C554.5,606.2,550.7,605.8,548.1,605.3L548.1,605.3z M537,603.3c1.2-0.3,3.1-0.3,4.2,0c1.2,0.3,0.2,0.5-2.1,0.5
		C536.7,603.8,535.8,603.6,537,603.3L537,603.3z M528,602c1.5-0.3,3.7-0.3,4.8,0c1.1,0.3-0.1,0.5-2.7,0.5
		C527.4,602.6,526.5,602.3,528,602L528,602z M447.4,600.8c1.5-0.3,3.7-0.3,4.8,0c1.1,0.3-0.1,0.5-2.7,0.5
		C446.8,601.4,445.9,601.1,447.4,600.8L447.4,600.8z M512.6,600.5l-5.4-0.8l5.4,0c3,0,7,0.4,9,0.9l3.6,0.9l-3.6,0
		C519.6,601.3,515.6,600.9,512.6,600.5L512.6,600.5z M424.8,599.3c-5.7-0.7-4.8-0.8,5.7-1c7.5-0.1,12.3,0.3,12.3,1
		C442.9,600.6,435.4,600.6,424.8,599.3z M462.4,599.6c1.2-0.3,3.1-0.3,4.2,0c1.2,0.3,0.2,0.5-2.1,0.5
		C462.2,600.2,461.3,599.9,462.4,599.6L462.4,599.6z M451.6,598.4c1.8-0.3,4.5-0.3,6,0c1.5,0.3,0,0.5-3.3,0.5
		C451,598.9,449.8,598.7,451.6,598.4L451.6,598.4z M502.1,598.4c1.2-0.3,2.8-0.3,3.6,0c0.8,0.3-0.1,0.6-2.1,0.6
		C501.6,599,500.9,598.7,502.1,598.4L502.1,598.4z M493.1,597.2c1.5-0.3,3.7-0.3,4.8,0c1.1,0.3-0.1,0.5-2.7,0.5
		C492.5,597.8,491.6,597.5,493.1,597.2L493.1,597.2z M477.7,595.7l-5.4-0.8l5.4,0c3,0,7,0.4,9,0.9l3.6,0.9l-3.6,0
		C484.8,596.5,480.7,596.1,477.7,595.7L477.7,595.7z M461.7,593.6c-3.2-0.5-3.3-0.6-1.2-2c6-4.1,8.9-5.7,8.9-5c0,0.4-1.7,1.8-3.8,3
		l-3.8,2.3l5.3,1.2c4.1,0.9,4.4,1.2,1.7,1.1C466.7,594.1,463.6,593.9,461.7,593.6L461.7,593.6z M406.8,591.2c0-0.5,0.5-1.7,1.2-2.7
		c1-1.6,1.2-1.5,1.2,0.2c0,1.6,1.4,2.1,6.9,2.5l6.9,0.4l-8.1,0.2C410.4,592,406.8,591.7,406.8,591.2L406.8,591.2z M435,590
		c5.3-0.2,9.9-1,10.4-1.7c0.5-0.8,1.1-0.5,1.5,0.7c0.6,1.7-0.7,1.9-10.4,1.7l-11.1-0.2L435,590z M565.5,587.2
		c-0.7-1.3-1-2.4-0.7-2.4c0.3,0,1.2,1.1,1.9,2.4c0.7,1.3,1,2.4,0.7,2.4C567.1,589.7,566.2,588.6,565.5,587.2z M453.5,585.1
		c0.5-2.2,0.8-2.6,1.1-1.2c0.4,1.9,0.7,1.9,3.7,0.2c3-1.8,3.1-1.8,0.8,0.1c-1.3,1.1-3.3,2.5-4.3,3.1
		C453.2,588.2,453,587.8,453.5,585.1L453.5,585.1z M586.4,578.8c0-5.6,0.2-7.9,0.5-5.1c0.3,2.8,0.3,7.4,0,10.2
		C586.6,586.8,586.4,584.5,586.4,578.8z M409.3,585.4c0-0.7,0.8-2.6,1.7-4.2c0.9-1.7,1.7-2.5,1.7-1.8s-0.8,2.6-1.7,4.2
		C410.1,585.3,409.3,586.1,409.3,585.4z M440.6,576.3c-2.1-5.4-3.6-10-3.4-10.2c0.2-0.2,2.2,4,4.3,9.3c2.1,5.4,3.6,10,3.4,10.2
		C444.7,585.9,442.7,581.7,440.6,576.3z M470.5,585.7c0-0.5,2.6-2.2,12.3-8.6c2-1.3,3.3-1.6,3.3-0.8c0,0.7-0.6,1.3-1.3,1.3
		c-0.7,0-3.5,1.5-6.3,3.4C472.1,585.4,470.5,586.3,470.5,585.7L470.5,585.7z M556.4,571.9c-3.8-6.4-7.7-12.9-8.7-14.4
		c-0.9-1.5-1.4-2.7-1.1-2.7c0.5,0,11.8,18.3,17.3,28c0.3,0.5,0.3,0.9,0,0.9C563.6,583.6,560.2,578.4,556.4,571.9L556.4,571.9z
		 M462.1,582c0-0.3,6.9-5,15.3-10.5c18.8-12.2,21.7-13.9,20.1-12.3c-0.7,0.7-8.2,5.8-16.8,11.4C461.6,583,462.1,582.7,462.1,582z
		 M455,580c0.1-1,0.5-3.2,1.1-4.8l1-3l0.1,3c0.1,1.7-0.4,3.8-1.1,4.8C455.1,581.6,454.9,581.6,455,580L455,580z M413.3,576.4
		c1.1-3.9,4.7-12.1,5.2-11.6c0.3,0.3-0.9,3.4-2.6,7C414.2,575.3,413,577.4,413.3,576.4L413.3,576.4z M565.4,575
		c-0.8-1.5-2.3-4-3.2-5.5c-1-1.5-1.5-2.7-1.2-2.7c1,0,7.1,9.8,6.5,10.4C567.2,577.6,566.2,576.6,565.4,575L565.4,575z M445.4,569.6
		c-1.4-3.7-2.4-7-2.1-7.2c0.2-0.2,1.4,2,2.5,5c1.1,3,2.6,5.1,3.2,4.8c0.6-0.4,1.1,0.1,1.1,1.1C450.1,577.6,447.8,575.8,445.4,569.6
		L445.4,569.6z M487.4,574.9c0-0.5,2.6-2.2,12.3-8.6c1.8-1.2,3.3-1.8,3.3-1.4c0,0.4-2.8,2.5-6.3,4.7
		C487.9,575.1,487.4,575.4,487.4,574.9z M406.9,573.4c0-0.7,1.1-5.8,2.3-11.4c1.4-6.1,2.1-8,1.8-4.8l-0.5,5.4l4.1-8.4
		c6-12.4,5.1-9-1.7,6.7C409.6,568.4,406.9,574.1,406.9,573.4z M457.7,568.9c0.3-1.5,1.3-5.8,2.1-9.6c0.8-3.8,1.7-6.7,2-6.4
		c0.7,0.7-3.3,18.7-4.2,18.7C457.3,571.6,457.3,570.4,457.7,568.9L457.7,568.9z M450.3,568c0-1.7,0.3-2.3,0.6-1.5
		c0.3,0.8,0.3,2.2,0,3C450.5,570.3,450.3,569.7,450.3,568L450.3,568z M558.2,562.9c-0.8-1.5-2.2-4.1-3.2-5.7
		c-1.7-2.9-1.7-2.9,0.3-0.6c2.4,2.9,5.8,9,4.9,9C559.9,565.6,558.9,564.4,558.2,562.9L558.2,562.9z M587.6,554.2
		c0-6.6,0.2-9.2,0.4-5.7c0.2,3.5,0.2,8.9,0,12C587.8,563.7,587.6,560.8,587.6,554.2L587.6,554.2z M434.5,560.8c-0.8-2-1.2-4-0.9-4.3
		c0.3-0.3,1.2,1.1,2,3.2C437.3,564.7,436.4,565.6,434.5,560.8L434.5,560.8z M451.5,563.2c0-1,0.5-3.2,1-4.8c0.8-2.4,1-2.5,1-0.6
		c0,1.3-0.4,3.5-1,4.8C451.9,564.1,451.5,564.3,451.5,563.2z M504.8,563.5c0.7-0.7,8.4-5.9,17.3-11.7c17.7-11.5,16.6-11.3,21.8-2.4
		c3.3,5.7,1.6,4.3-2.7-2.1l-3-4.6l-8.1,5.5c-4.5,3-8.4,5.5-8.6,5.5s-3.6,2.1-7.4,4.6C505.8,563.7,503.1,565.3,504.8,563.5
		L504.8,563.5z M418.8,562.4c0-0.5,0.5-1.8,1.2-2.8c1-1.6,1.2-1.5,1.2,0.2c0,1.1-0.5,2.4-1.2,2.8C419.4,563,418.8,562.9,418.8,562.4
		z M440.1,555.8c-2.6-6.5-1.8-7.3,1-1c1.2,2.7,1.9,5.1,1.6,5.4C442.3,560.6,441.2,558.6,440.1,555.8z M500,557.5
		c0.7-0.7,7.9-5.6,16.1-10.9L531,537l-5.3-1.5c-2.9-0.8-5.8-2-6.5-2.7c-0.8-0.8-0.5-0.9,0.8-0.5c1.1,0.4,4.2,1.4,6.9,2.2
		c2.7,0.8,4.9,1.9,4.9,2.4s-5.8,4.6-12.9,9.2C500.7,557.7,498.6,559,500,557.5z M421.3,556.6c0-0.7,0.8-2.6,1.7-4.2
		c0.9-1.7,1.7-2.5,1.7-1.8c0,0.7-0.8,2.6-1.7,4.2C422.1,556.4,421.3,557.2,421.3,556.6z M430.3,549.2c-2.1-5.6-2.2-5.6-3.7-2.7
		c-2.1,3.7-2.1,2.4-0.1-2.5l1.6-3.8l2.6,6.9c1.4,3.8,2.4,7.1,2.2,7.3C432.6,554.6,431.4,552.3,430.3,549.2L430.3,549.2z
		 M453.8,552.9c0.1-1.4,0.3-1.7,0.7-0.7c0.3,0.9,0.3,1.9-0.1,2.3C454,554.9,453.7,554.1,453.8,552.9L453.8,552.9z M551.1,551.2
		c-0.7-1.3-1-2.4-0.7-2.4c0.3,0,1.2,1.1,1.9,2.4c0.7,1.3,1,2.4,0.7,2.4C552.6,553.6,551.8,552.5,551.1,551.2z M411.9,549.4
		c0-1.3,0.4-4,0.9-6c0.8-3.2,0.9-3.3,0.9-0.6c0,1.7-0.4,4.4-0.9,6C412.1,551.1,411.9,551.3,411.9,549.4z M462.1,549.9
		c0-2.4,4.5-18.9,4.7-17.1c0.1,1.8-3.5,17.6-4.2,18.3C462.3,551.4,462.1,550.8,462.1,549.9z M455.1,548.2c0-1.3,0.4-3.5,1-4.8
		c1.3-3.1,1.3,0.1,0,4.2C455.3,550,455.1,550.1,455.1,548.2z M547.5,545.2c-0.7-1.3-1-2.4-0.7-2.4c0.3,0,1.2,1.1,1.9,2.4
		c0.7,1.3,1,2.4,0.7,2.4C549,547.6,548.2,546.5,547.5,545.2z M435.2,543.3c-1.2-3-0.8-3.8,0.6-1.4c0.7,1.2,1,2.4,0.7,2.8
		C436.2,545,435.6,544.4,435.2,543.3L435.2,543.3z M420.1,542.5c0-0.5,0.8-3.1,1.9-5.8c1.9-4.7,1.9-5-0.5-7.4
		c-3.3-3.3-4.7-2.1-5.7,4.5c-0.5,3-1.1,5.3-1.4,4.9c-0.3-0.3,0.1-3.9,0.9-8l1.5-7.4l4,3.9c2.2,2.2,4,4.5,3.9,5.2
		C424.6,534.1,420.2,543.6,420.1,542.5L420.1,542.5z M544.7,540.8c-0.4-0.4-0.8-1.5-0.8-2.4c0-0.9,11.1-18.2,24.6-38.6
		c15.4-23.1,24.6-35.9,24.6-34.3c0,1.5-0.5,2.7-1.2,2.7c-2.1,0-47.1,68.9-46.5,71.2C546.1,541.7,545.9,542,544.7,540.8L544.7,540.8z
		 M457.4,538c-0.1-1.7,0.4-3.8,1.1-4.8c1-1.6,1.2-1.6,1.1,0c-0.1,1-0.5,3.2-1.1,4.8l-1,3L457.4,538z M588.8,530.7
		c0-5.6,0.2-7.9,0.5-5.1c0.3,2.8,0.3,7.4,0,10.2S588.8,536.4,588.8,530.7z M432.3,535.7c-1.2-3.4-1.1-3.5,9-8.5
		c5.6-2.8,9.9-4.6,9.6-4.1c-0.3,0.5-4.5,2.8-9.2,5.1c-8.1,3.9-8.6,4.4-7.9,7.5C434.6,540.1,433.8,540.1,432.3,535.7L432.3,535.7z
		 M514.8,531.1c0.9-0.3,1.9-0.3,2.3,0.1c0.4,0.4-0.3,0.7-1.6,0.6C514.1,531.8,513.8,531.5,514.8,531.1L514.8,531.1z M459.9,528.3
		c0-1.7,0.4-4.1,1-5.4l1-2.4l0,2.4c0,1.3-0.5,3.8-1,5.4l-1,3L459.9,528.3L459.9,528.3z M467.3,528c0.4-1.5,1-4.7,1.5-7.2
		c0.4-2.5,1.2-4.5,1.6-4.5c1.5,0,32,10.6,30.7,10.7c-0.7,0.1-7.7-2.1-15.6-4.7c-7.9-2.6-14.4-4.8-14.6-4.8c-0.1,0-0.9,3-1.6,6.6
		c-0.8,3.6-1.7,6.6-2,6.6C466.9,530.7,466.9,529.5,467.3,528L467.3,528z M506.8,529.4c-2.2-0.6-3.8-1.4-3.5-1.7
		c0.6-0.6,9.4,1.7,9.4,2.5C512.6,530.9,511.7,530.8,506.8,529.4L506.8,529.4z M513.8,524.1c-10.3-3.5-18.1-6.4-17.4-6.4
		c0.7-0.1,8.5,2.3,17.4,5.3c8.9,2.9,16.3,5.2,16.6,4.9c0.2-0.2-1.5-5.2-3.9-11c-2.3-5.8-4.1-10.8-3.8-11c0.2-0.2,2.7,5.1,5.4,11.8
		c2.7,6.8,4.8,12.4,4.7,12.5C532.6,530.3,524.1,527.5,513.8,524.1L513.8,524.1z M538.6,528.8c-0.4-1.1-0.5-2.3-0.1-2.6
		c0.3-0.3,0.6,0.1,0.7,1.1c0,0.9,1.7-0.2,3.7-2.5l3.7-4.2l-3.2,5.1c-1.8,2.8-3.4,5.1-3.6,5.1C539.5,530.7,539,529.8,538.6,528.8z
		 M423.9,520.8l-3.8-3.9l6.7-10.2c3.7-5.6,8.2-11.7,9.9-13.6c6.3-6.9,35-33.1,37.7-34.4c1.8-0.9,1.5-0.4-0.9,1.4
		c-2,1.5-11,9.7-20.1,18.2c-12.4,11.6-18.4,18.3-24.3,27l-7.9,11.6l3.8,4c2.1,2.2,3.6,4,3.2,4C428,524.7,426,522.9,423.9,520.8
		L423.9,520.8z M447.2,515.4c18.9-9.7,22.8-12.7,54.3-42.8c3.5-3.3,6.3-5.7,6.3-5.2c0,0.4-9.7,9.7-21.6,20.6
		c-21.2,19.5-21.8,20-38.5,28.3c-9.3,4.7-17.3,8.4-17.8,8.4C429.5,524.6,437.2,520.5,447.2,515.4L447.2,515.4z M534.4,518.6
		c-1.4-3.4-2.4-6.4-2.1-6.7c0.2-0.2,1.6,2.4,3,5.8c1.4,3.4,2.4,6.4,2.1,6.7C537.2,524.6,535.8,522,534.4,518.6z M456.7,519.3
		c5.7-3.5,6.6-3.6,6.6-0.9c0,1.5-0.3,1.7-0.9,0.6c-0.7-1.1-1.9-0.9-4.8,0.9c-2.1,1.3-4.3,2.3-4.8,2.3
		C452.3,522.3,454.1,520.9,456.7,519.3L456.7,519.3z M546.9,518.7c3.2-5.7,30.9-46.9,32-47.6c1.3-0.8-29.6,46.1-31.7,48.2
		C546.3,520.1,546.2,519.9,546.9,518.7z M481.3,513.8c-3.6-1.3-7.3-2.6-8.2-2.9c-0.9-0.3,6.1-7.5,17.2-17.7c19.1-17.4,21-19,21-16.6
		c0,0.7-0.5,1.2-1,1c-0.9-0.3-36.2,31.1-36.2,32.2c0,0.2,3.8,1.6,8.4,3.1c4.6,1.5,8.4,2.9,8.4,3.1
		C491,516.8,487.8,516.1,481.3,513.8z M589.9,506.7c0-5.6,0.3-16.2,0.8-23.4c0.8-13.2,0.8-13.2,0.9-3c0,5.6-0.3,16.2-0.8,23.4
		C590,516.9,590,516.9,589.9,506.7L589.9,506.7z M530.2,508.4c-1.2-3-0.8-3.8,0.6-1.4c0.7,1.2,1,2.4,0.7,2.8
		C531.2,510.1,530.6,509.5,530.2,508.4L530.2,508.4z M516.3,492.1c-2.8-6.7-4.8-12.4-4.6-12.6c0.2-0.2,2.7,5.1,5.5,11.8
		c2.8,6.7,4.8,12.4,4.6,12.6C521.6,504.1,519.1,498.8,516.3,492.1z M526,498.1c-1.4-3.4-2.4-6.4-2.1-6.7c0.2-0.2,1.6,2.4,3,5.8
		c1.4,3.4,2.4,6.4,2.1,6.7C528.8,504.1,527.4,501.5,526,498.1z M521.8,488c-1.2-3-0.8-3.8,0.6-1.4c0.7,1.2,1,2.4,0.7,2.8
		C522.8,489.7,522.2,489.1,521.8,488z M518.3,479.4l-1.8-4.6l11.6-2c6.4-1.1,12.9-2,14.6-2c1.7,0-2.9,1.1-10.2,2.4
		c-7.2,1.3-13.4,2.6-13.7,2.9c-0.3,0.3,0.1,2,0.9,3.7c0.8,1.7,1.2,3.4,0.9,3.7C520.3,483.7,519.3,481.9,518.3,479.4z M547.2,469.8
		c0.8-0.3,2.2-0.3,3,0c0.8,0.3,0.2,0.6-1.5,0.6C547,470.4,546.3,470.2,547.2,469.8L547.2,469.8z M560.1,467.6
		c4.6-0.9,9.8-1.6,11.4-1.6c1.7,0-0.5,0.7-4.8,1.6s-9.4,1.6-11.4,1.6C553.3,469.2,555.5,468.5,560.1,467.6z M581.1,467.2
		c0.7-1.2,0.9-2.6,0.4-3c-0.4-0.4,0.2-0.8,1.3-0.8c1.9,0,1.9,0.2,0.1,3C580.5,469.9,579.3,470.4,581.1,467.2L581.1,467.2z
		 M520.4,457.4c5.4-10.8,6.3-11.6,10.8-9.5c1.9,0.9,1.6,1-1.2,0.5c-3.5-0.6-3.8-0.3-8.1,8.4c-2.5,5-4.5,9.3-4.5,9.6
		c0,0.3,1.2,0.7,2.7,1c2,0.4,1.6,0.6-1.2,0.7l-3.9,0.2L520.4,457.4z M527.6,465.7c2.6-0.5,6.4-1,8.4-0.9c2.7,0.1,2.3,0.3-1.8,1
		C527,467.2,521.3,467,527.6,465.7z M575.7,465.8c-0.4-0.6,0.4-1.1,1.8-1.1c2.9,0,3.2,0.7,0.7,1.6
		C577.2,466.6,576.1,466.4,575.7,465.8z M541.8,463.8c1.2-0.3,2.8-0.3,3.6,0c0.8,0.3-0.1,0.6-2.1,0.6
		C541.3,464.4,540.6,464.1,541.8,463.8L541.8,463.8z M510,461.3c0.5-1.2,2.2-4.7,3.9-7.9c2.9-5.8,2.9-5.8,0.6-7.6
		c-2.3-1.8-2.3-1.8,0.6-0.9c1.7,0.5,3.2,1,3.4,1.2c0.5,0.4-8.1,17.4-8.8,17.4C509.3,463.4,509.5,462.5,510,461.3L510,461.3z
		 M549,462.6c1.2-0.3,3.1-0.3,4.2,0c1.2,0.3,0.2,0.5-2.1,0.5C548.8,463.1,547.8,462.9,549,462.6L549,462.6z M563.1,460.4
		c4.3-0.8,6.8-1.6,5.5-1.7c-1.3-0.1-2-0.4-1.6-0.8c0.4-0.4,2.5-0.2,4.7,0.4c3.9,1,3.8,1.1-3.9,2.5c-4.4,0.8-9,1.3-10.2,1.3
		C556.3,462,558.8,461.2,563.1,460.4L563.1,460.4z M477.7,457c0-1.3,25.9-15.2,28.3-15.2c1.3,0,3.2,0.6,4.2,1.2
		c1.3,0.8,0.7,1-2.1,0.4c-3.8-0.7-8,1.1-25.3,11.2C480,456.3,477.7,457.3,477.7,457L477.7,457z M562.9,456.6
		c0.9-0.3,1.9-0.3,2.3,0.1c0.4,0.4-0.3,0.7-1.6,0.6C562.2,457.2,561.9,457,562.9,456.6L562.9,456.6z M588.9,453.1
		c-0.1-4.2,0.8-3.6,2.4,1.6c0.6,1.9,0.3,2.7-0.8,2.7C589.5,457.4,588.9,455.8,588.9,453.1z M552.9,454.3c-4.7-1.6-4.8-1.7-0.6-1
		c4.9,0.8,9.9,2.7,7.2,2.6C558.5,456,555.5,455.3,552.9,454.3L552.9,454.3z M584.5,455.4c0.9-0.3,1.9-0.3,2.3,0.1
		c0.4,0.4-0.3,0.7-1.6,0.6C583.9,456,583.6,455.8,584.5,455.4L584.5,455.4z M577.5,453.8c-2.5-0.8-2.6-1-0.6-1.1
		c1.3-0.1,3.2,0.4,4.2,1.1C583.3,455.1,581.8,455.1,577.5,453.8z M540.9,451.4c-3.1-1.3,0.1-1.3,4.2,0c2.4,0.8,2.5,1,0.6,1
		C544.4,452.4,542.2,451.9,540.9,451.4z M568.5,451.4l-2.4-1l2.4-0.1c1.3,0,3.2,0.5,4.2,1.1c1.6,1,1.6,1.2,0,1.1
		C571.7,452.4,569.8,451.9,568.5,451.4L568.5,451.4z M535.2,449.4c0.9-0.3,1.9-0.3,2.3,0.1c0.4,0.4-0.3,0.7-1.6,0.6
		C534.6,450,534.3,449.7,535.2,449.4L535.2,449.4z M557.7,448.3c-4.7-1.6-4.8-1.7-0.6-1c4.9,0.8,9.9,2.7,7.2,2.6
		C563.3,450,560.3,449.2,557.7,448.3z M546.9,445.4c-1.5-0.7-1.7-1-0.6-1c1,0,2.9,0.5,4.2,1c1.5,0.7,1.7,1,0.6,1
		C550.1,446.4,548.2,445.9,546.9,445.4L546.9,445.4z M541.5,443c1-0.6,4-1.4,6.6-1.8l4.8-0.7l-5.4,1.8
		C541.5,444.3,538.7,444.7,541.5,443L541.5,443z M561.9,438.1c11.8-2.9,15.1-2.8,4.2,0.2c-4.6,1.2-9.5,2.2-10.8,2.2
		C554,440.4,556.9,439.3,561.9,438.1z M584.8,439.6c0-0.8-1.1-2.5-2.4-3.8c-1.9-1.9-2-2.4-0.6-2.4c1.8,0,4.8,5.8,3.6,7
		C585,440.7,584.8,440.3,584.8,439.6z M518.6,438.3c0-0.9,20.1-3.9,24.3-3.7c0.9,0-2.5,1.1-7.4,2.4
		C525.8,439.4,518.6,440,518.6,438.3z M576.1,434.9c0.9-0.3,1.9-0.3,2.3,0.1s-0.3,0.7-1.6,0.6C575.4,435.6,575.1,435.3,576.1,434.9
		L576.1,434.9z M546,433.7c0.9-0.3,1.9-0.3,2.3,0.1c0.4,0.4-0.3,0.7-1.6,0.6C545.4,434.4,545.1,434.1,546,433.7L546,433.7z"/>
</g>
<g id="g1021" transform="matrix(-1,0,0,1,-155.71988,-156.58664)" class="st10">
	<path id="path1007" inkscape:connector-curvature="0" class="st11" d="M-304.2,582.2c-5-0.5-33.4-3.2-63.1-5.9
		c-65.1-5.9-65.9-6-62.2-7.4c3.8-1.5,35.1-1.4,46,0c5,0.7,13.2,1.8,18.3,2.5c9.3,1.2,21.5,2.9,35.2,4.8c4,0.6,14.4,2,23.1,3.2
		s15.9,2.6,15.9,3.1C-290.9,583.6-291.4,583.6-304.2,582.2L-304.2,582.2z M-280.1,579.9c-3-0.5-10-1.6-15.6-2.3
		c-5.6-0.8-21.6-2.9-35.5-4.9s-32.4-4.4-41.2-5.6c-8.8-1.2-15.8-2.6-15.6-3.1c0.2-0.5,16.8-11.6,37-24.6
		c42.5-27.4,44.4-28.6,45.1-28c0.5,0.5,38.7,64.2,40.5,67.5c1,1.9,0.5,2.1-4,2C-272.4,580.9-277.1,580.4-280.1,579.9L-280.1,579.9z
		 M-264.2,574.3c-16.4-26-38.8-64.7-38.3-66.1c1.2-3.2,49.1-75,49.7-74.4c0.7,0.7,0.4,24.8-0.3,30.1c-0.3,2-1.7,28.5-3.1,58.9
		c-1.4,30.4-3,55.7-3.5,56.3C-260.1,579.6-262.2,577.4-264.2,574.3L-264.2,574.3z M-440,563.4c0-0.9,9.5-24.1,18.3-44.5
		c2.1-4.8,4.1-8.3,4.6-7.8c2.1,2.4,20,50.4,19.1,51.2C-399.1,563.2-440,564.3-440,563.4L-440,563.4z M-393.6,558.7
		c0.3-1.2,4.3-17.8,8.8-36.8c4.5-19,8.5-34.9,8.8-35.2c0.5-0.5,20.8,5.8,53.5,16.7c6.1,2,11.1,4,11.1,4.4c0,0.4-4.7,3.7-10.5,7.4
		c-5.8,3.7-23.7,15.2-39.9,25.7c-16.2,10.4-30,19.2-30.9,19.5C-393.6,560.6-394,560.1-393.6,558.7L-393.6,558.7z M-405.7,529.1
		c-4.5-11.4-8.2-22.1-8.3-23.7c-0.2-2.7,1.5-3.9,16.3-11.5c11.5-5.9,16.5-8,16.5-6.8c0,1-2.2,10.8-4.9,21.8
		c-4.9,20.2-8,33.4-9.1,38.3c-0.3,1.5-1,2.7-1.6,2.7C-397.2,549.8-401.2,540.5-405.7,529.1z M-440,547.1c0-2.2,9.3-49.6,10.3-52.5
		c0.4-1.3,2-0.4,5.5,3.2l4.9,4.9l-9.4,22C-438,546.9-440,550.9-440,547.1L-440,547.1z M-324,498.7c-6.6-2.2-20.8-6.9-31.6-10.4
		c-10.8-3.5-19.4-6.7-19.2-7.1c0.2-0.4,7.1-6.9,15.3-14.5c8.3-7.5,16.9-15.4,19.2-17.6c2.3-2.2,4.5-3.9,4.9-3.9
		c1.2,0,24.2,55.2,23.7,56.6C-311.8,502.4-317.4,500.9-324,498.7L-324,498.7z M-308.5,498.4c-1.1-2.5-5.6-13.4-10.1-24.3
		c-4.5-10.9-9-21.9-10.1-24.3c-1.9-4.4-1.9-4.5,0.8-5.1c6.7-1.5,67.6-11.3,68-10.9c0.5,0.5-45.2,69.2-46,69.2
		C-306.3,502.9-307.4,500.9-308.5,498.4L-308.5,498.4z M-422.9,492.2l-3.9-4.5l8.5-12.5c4.7-6.9,9.6-13.6,11.1-14.9
		c1.4-1.3,9.5-8.7,17.9-16.4c11.3-10.4,18.5-15.8,27.7-21c22.4-12.8,20-12,28.2-9.2c4.6,1.6,7,3,6.7,4.1c-0.2,0.9-2.6,6.2-5.4,11.7
		c-4.5,9.1-6.6,11.5-20.7,24.6c-8.6,8-18.1,16.9-21,19.7c-5.7,5.4-38.8,23.3-42.9,23.1C-418,496.8-420.7,494.7-422.9,492.2
		L-422.9,492.2z M-330.7,437.5c1.9-5.1,9.6-19.8,10.6-20.4c1-0.6,50.6,11.9,51.7,13.1c0.7,0.7-1.6,1.4-7.6,2.3
		c-2.6,0.4-15.5,2.3-28.7,4.3C-333.7,441.2-332,441.2-330.7,437.5L-330.7,437.5z M-266.3,426.6c-5.3-1.5-16.6-4.7-25.1-7
		c-14.8-4.1-17.4-5.1-16.3-6c0.4-0.3,12.6-3.1,44-10.1c2.3-0.5,3,0.6,6.5,11.3c2.2,6.5,4.2,12.5,4.5,13.3
		C-252,430.1-254.9,429.8-266.3,426.6L-266.3,426.6z M-328.8,409.9c-2.4-1.7-3.7-1.4,25.8-5.6c12.4-1.8,15.6-2,15.6-1.1
		c0,0.5-2.8,1.4-6.3,2.2c-3.5,0.7-11.2,2.4-17.1,3.8C-323.4,412-325.8,412.1-328.8,409.9z"/>
	<path id="path1009" inkscape:connector-curvature="0" class="st12" d="M-307.8,581.5c-2.3-0.3-30.7-2.9-63.1-5.9
		c-32.4-3-59.5-5.6-60.1-5.8c-2.8-0.9,30.5-2.2,38.4-1.5c8.4,0.8,94.6,12.4,98.1,13.2C-292.2,582.2-302.3,582.1-307.8,581.5
		L-307.8,581.5z M-290.3,578.1c-10.6-1.5-36-5-56.5-7.7c-20.5-2.7-38.2-5.4-39.3-5.8c-1.5-0.6,8.8-7.8,37.9-26.4
		c21.9-14.1,40.4-25.7,41.1-25.9c1-0.2,26,40.2,39.6,63.8l2.9,5.1l-3.2-0.1C-269.7,580.9-279.8,579.6-290.3,578.1L-290.3,578.1z
		 M-262.8,575.6c-1.3-1.9-10.9-17.7-21.3-35l-18.9-31.4l25.3-38.3c25.1-38.1,25.3-38.3,25.3-32.9c0,3-1,25.7-2.3,50.5
		c-1.3,24.8-2.7,54-3.2,64.9c-0.5,10.9-1.2,21.1-1.6,22.8l-0.8,2.9L-262.8,575.6z M-434.5,550.3c14.4-34.4,16.5-39,17.4-38.1
		c1.7,1.8,19.3,48.8,18.5,49.6c-0.4,0.4-9.9,0.9-21,1.2l-20.3,0.4L-434.5,550.3z M-393.1,559.5c0-0.9,8.8-38.6,15.2-65.1l1.9-8
		l16.4,5.3c9,2.9,23.7,7.6,32.6,10.5l16.2,5.3l-8.4,5.4c-4.6,3-23.1,14.9-41.1,26.5C-378.4,551-393.1,560.1-393.1,559.5
		L-393.1,559.5z M-406.2,526.8c-4.9-12.6-8.4-23.3-7.8-23.8c1.9-1.7,31.9-17.1,32.4-16.6c0.6,0.6-14,61.4-15,62.5
		C-397,549.3-401.3,539.4-406.2,526.8z M-440,547.7c0-1.5,9.4-47.9,10.4-51.2c0.6-2,1.1-1.8,4.8,1.7c2.2,2.2,4.1,4.7,4.1,5.6
		c0,1.5-17.6,43.4-18.8,44.7C-439.8,548.8-440,548.5-440,547.7L-440,547.7z M-308.7,497.3c-10-23.7-20.9-51.1-20.4-51.6
		c1-1,66.9-11.7,67.7-11c0.5,0.5-40.7,63.9-44,67.4C-305.8,502.6-307.3,500.5-308.7,497.3L-308.7,497.3z M-339.6,493.3
		c-13.9-4.6-27.3-8.9-29.8-9.6c-2.5-0.7-4.5-1.7-4.5-2.2c0-1.2,38.4-36.6,39-36c0.2,0.2,5.4,12.6,11.5,27.5
		c6.1,14.9,11.3,27.5,11.6,28C-310.7,502.6-314.7,501.5-339.6,493.3L-339.6,493.3z M-422.2,492.5l-4.4-4.4l8.2-12.2
		c6.4-9.6,11.9-15.6,25.3-28.1c18.3-17,20-18.3,39.6-29.1l12.8-7.1l6.4,2.1c3.5,1.1,6.7,2.7,7,3.5c0.3,0.8-1.9,6.2-4.8,12.1
		c-4.7,9.3-6.8,11.9-16.6,20.9c-6.2,5.6-15.6,14.4-21,19.4c-8.4,8-12.2,10.4-27.9,18.3c-10,5-18.6,9.1-19.2,9.1
		S-419.8,495-422.2,492.5L-422.2,492.5z M-326.2,429.2c4.1-8.2,6.4-11.6,7.9-11.6c4,0,49.1,12.4,48.2,13.2c-0.5,0.5-13.1,2.6-28,4.7
		s-28.6,4.2-30.4,4.6l-3.4,0.6L-326.2,429.2z M-281,422.1c-14.7-4.1-26.3-7.7-25.9-8.1c1.1-0.9,40.9-9.6,43.8-9.6
		c1.5,0,3.1,3.4,6.2,12.7c2.3,6.9,3.9,12.6,3.4,12.5C-253.9,429.5-266.3,426.1-281,422.1L-281,422.1z M-328.2,410.1
		c-2.7-1.2-2.1-1.5,6-2.7c16.3-2.6,32.5-4.5,33.1-4c0.5,0.5-32.8,8.3-34.9,8.1C-324.7,411.5-326.6,410.8-328.2,410.1L-328.2,410.1z"
		/>
	<path id="path1011" inkscape:connector-curvature="0" class="st13" d="M-300.3,581.5c1.2-0.3,3.1-0.3,4.2,0
		c1.2,0.3,0.2,0.5-2.1,0.5C-300.5,582-301.4,581.8-300.3,581.5L-300.3,581.5z M-369.1,575.6c-30.1-2.9-56.3-5.4-58.3-5.6
		c-2-0.2,4-0.8,13.2-1.3c14-0.8,20.1-0.5,36.1,1.6c37.1,4.8,74.5,10.5,69.1,10.5C-312,580.8-339,578.5-369.1,575.6z M-327.9,572.7
		c-31.9-4.4-58.3-8.4-58.6-8.7c-0.3-0.3,17.5-12.3,39.7-26.5l40.3-25.9l2.3,3.8c1.3,2.1,10.7,17.7,20.9,34.8
		c15.7,26.2,18.2,30.9,16,30.8C-268.7,580.9-296,577.2-327.9,572.7L-327.9,572.7z M-262.6,575.6c-1.2-1.8-10.7-17.5-21.2-34.9
		l-19.1-31.7l24.9-37.4c13.7-20.6,25.1-36.9,25.3-36.3c0.5,1.5-6.7,142.4-7.3,143C-260.3,578.6-261.5,577.3-262.6,575.6z
		 M-438.9,562.4c0-2,20.8-51,21.5-50.4c1.1,1.1,19.4,49.1,18.9,49.6C-399.5,562.6-438.8,563.4-438.9,562.4L-438.9,562.4z
		 M-392.7,557.5c0.4-1.2,4.2-17.4,8.6-35.9c4.4-18.5,8.2-33.9,8.5-34.2c0.7-0.7,63.1,19.4,63.1,20.3c0,0.6-77.4,50.8-79.6,51.6
		C-392.9,559.6-393.1,558.8-392.7,557.5L-392.7,557.5z M-405.5,527.9c-4.4-11.4-8.3-21.6-8.7-22.7c-0.6-1.5,2.8-3.8,15.8-10.5
		c9.1-4.7,16.7-8.4,16.8-8.3c0.5,0.5-14.3,60.4-15.1,61.3C-397.1,548.2-401.1,539.3-405.5,527.9z M-439.4,545
		c0.3-1.7,2.5-12.5,4.8-24c2.3-11.6,4.5-22.3,4.9-23.9l0.7-2.9l4.1,4c2.3,2.2,4.1,4.7,4.1,5.5c0,1.5-15.9,38.8-18,42.4
		C-439.8,547.6-439.9,547.5-439.4,545z M-317.8,474.5c-6.4-15.6-11.5-28.6-11.3-28.8c0.7-0.7,66.1-11.4,67.2-11.1
		c0.6,0.2-9.2,15.6-21.6,34.3l-22.6,33.9L-317.8,474.5z M-344.1,491.8c-16.4-5.4-29.8-10.1-29.8-10.5c0-0.4,8.7-8.7,19.4-18.4
		l19.4-17.7l11.2,27.3c6.2,15,11.2,27.7,11.2,28.3C-312.6,502.1-311.3,502.5-344.1,491.8L-344.1,491.8z M-421.8,493
		c-2.1-2.2-3.8-4.4-3.8-4.9c0-0.5,3.7-6.4,8.2-13.2c6.7-10,11.5-15.3,25.4-27.9c18.1-16.5,20.7-18.4,39.7-28.9l11.9-6.6l6.4,2.5
		c3.5,1.4,6.6,2.7,6.8,2.9c0.2,0.2-2.3,5.7-5.6,12.2c-4.8,9.5-7.4,13.1-13,18c-3.9,3.4-13,11.8-20.3,18.7
		c-12.1,11.4-14.8,13.3-30,21.1c-9.2,4.7-17.9,8.9-19.3,9.3C-417.2,496.7-419,495.9-421.8,493L-421.8,493z M-330.6,439.2
		c0-2.3,10.2-21.6,11.4-21.7c2-0.1,49.8,12.6,49.4,13c-0.2,0.2-12.5,2.3-27.3,4.5c-14.8,2.2-28.3,4.3-30.2,4.7
		C-329.1,440.1-330.6,439.8-330.6,439.2z M-280.5,422.1c-14.4-4-25.8-7.6-25.3-8.1c1.2-1.1,43.5-10.2,44-9.5c1.2,1.5,9,25.2,8.3,25
		C-253.9,429.4-266.1,426.1-280.5,422.1z M-325.2,410.6c-1.3-0.3-2.8-0.9-3.3-1.4c-0.8-0.7,6.1-1.8,35.8-5.6c2-0.3,0.4,0.4-3.6,1.4
		C-311,408.8-322.9,411.1-325.2,410.6z"/>
	<path id="path1013" inkscape:connector-curvature="0" class="st14" d="M-299.7,581.5c0.8-0.3,2.2-0.3,3,0c0.8,0.3,0.2,0.6-1.5,0.6
		C-299.8,582.1-300.5,581.8-299.7,581.5L-299.7,581.5z M-372.1,575.2l-58.9-5.5l17.4-0.9c16.9-0.8,18.8-0.7,63.7,5.6
		c25.5,3.6,44.1,6.4,41.5,6.4C-311,580.8-339.7,578.3-372.1,575.2L-372.1,575.2z M-326.4,572.8c-31.7-4.4-58.4-8.3-59.3-8.6
		c-1.5-0.5,76.5-51.6,78.8-51.6c0.9,0,41.3,66.3,41.3,67.8C-265.7,581.3-259.8,582-326.4,572.8L-326.4,572.8z M-280.7,545.6
		c-11.1-18.3-20.4-34.2-20.7-35.4c-0.4-1.4,7.9-15,23.8-39c13.4-20.3,24.5-36.6,24.7-36.4c0.5,0.5-6.7,143-7.2,143.6
		C-260.4,578.6-269.7,563.9-280.7,545.6L-280.7,545.6z M-438.8,562.3c0-1.4,20.9-50.8,21.3-50.4c0.2,0.2,4.7,11.4,9.9,24.9l9.5,24.5
		l-9.8,0.8C-421.5,563.1-438.8,563.2-438.8,562.3L-438.8,562.3z M-392.9,558.1c0.4-0.9,4.3-17.1,8.7-35.9
		c4.4-18.8,8.3-34.5,8.5-34.7c0.6-0.6,63,19.5,63,20.3c0,0.6-77.4,50.7-79.7,51.6C-393,559.6-393.2,559-392.9,558.1L-392.9,558.1z
		 M-405.8,526.8c-4.6-11.9-8.5-22.1-8.7-22.5c-0.2-0.5,7.3-4.8,16.5-9.6c9.3-4.8,16.6-8.1,16.3-7.2c-0.3,0.9-3.6,14.6-7.4,30.4
		c-3.8,15.9-7.2,29.2-7.6,29.7C-397.1,548.2-401.2,538.8-405.8,526.8L-405.8,526.8z M-438.8,544.2c0-0.7,2.2-11.9,4.8-25.1
		c2.6-13.1,4.8-24.2,4.8-24.5c0-0.3,1.9,1.2,4.2,3.5c2.3,2.2,4.2,4.7,4.2,5.5c0,1.3-16.6,40.2-17.6,41.3
		C-438.6,545.2-438.8,544.9-438.8,544.2z M-317.7,474.4c-6.4-15.6-11.5-28.5-11.4-28.7c0.6-0.5,67.4-11.4,67.7-11
		c0.2,0.2-9.8,15.6-22.2,34.2l-22.6,33.8L-317.7,474.4z M-343.5,491.7c-16.7-5.4-30.2-10.2-30.1-10.6c0.4-1.2,37.2-34.6,38.1-34.6
		c0.9,0,23.3,54.1,22.7,54.6C-313,501.3-326.8,497.1-343.5,491.7z M-421.4,493.1c-2.3-2-4.2-4.2-4.2-4.8c0-0.6,3.8-6.7,8.3-13.4
		c6.6-9.7,11.9-15.5,25.5-27.9c18.3-16.7,20.3-18.2,39.1-28.6l12.2-6.8l6.4,2.4c3.5,1.3,6.6,2.6,6.8,2.8c0.2,0.2-2.2,5.5-5.4,11.8
		c-5.6,11.1-6.3,11.9-26.6,30.5c-21.5,19.7-24.8,21.9-45.6,31.8l-12.4,5.8L-421.4,493.1z M-330.6,439.7c0-1.4,11-22.1,11.7-22.1
		c0.5,0,12,2.9,25.5,6.4c19.3,5,23.9,6.6,21,7.2c-2,0.4-15,2.4-28.9,4.4c-13.9,2-26.2,3.9-27.4,4.1
		C-329.7,440-330.6,440-330.6,439.7L-330.6,439.7z M-280.4,422c-14.3-4-25.4-7.7-24.6-8.1c3.4-1.8,42.1-9.6,43-8.7
		c1.3,1.3,9.4,24.5,8.5,24.3C-253.9,429.4-266,426-280.4,422z M-328.7,409.4c-0.5-0.8,9.7-2.4,28.7-4.5c2.6-0.3-0.3,0.8-6.6,2.4
		C-318.1,410.3-327.6,411.2-328.7,409.4z M-292.4,403.5c0.9-0.3,1.9-0.3,2.3,0.1c0.4,0.4-0.3,0.7-1.6,0.6
		C-293,404.2-293.3,403.9-292.4,403.5L-292.4,403.5z"/>
	<path id="path1015" inkscape:connector-curvature="0" class="st15" d="M-299.7,581.5c0.8-0.3,2.2-0.3,3,0c0.8,0.3,0.2,0.6-1.5,0.6
		C-299.8,582.1-300.5,581.8-299.7,581.5L-299.7,581.5z M-311.1,580.3c1.2-0.3,3.1-0.3,4.2,0c1.2,0.3,0.2,0.5-2.1,0.5
		C-311.3,580.8-312.2,580.6-311.1,580.3L-311.1,580.3z M-325.9,572.7c-32.1-4.5-59-8.3-59.8-8.6c-1.3-0.4,75.5-50.6,78.4-51.3
		c0.8-0.2,10.3,14.7,21.2,32.9c21.4,35.8,21.1,35.4,19.6,35.1C-267,580.9-293.8,577.2-325.9,572.7L-325.9,572.7z M-328.8,579.1
		c-2-0.3-25.8-2.6-52.9-5.1c-45.8-4.3-48.4-4.7-36.1-5.1c20.9-0.7,25.9-0.3,55.3,3.8c15.2,2.1,32.5,4.6,38.5,5.4
		c8.1,1.1,9.3,1.5,4.8,1.5C-322.5,579.5-326.8,579.3-328.8,579.1L-328.8,579.1z M-281.1,544.8c-11.4-18.9-20.7-35-20.7-35.7
		c0-0.7,11.1-18,24.7-38.3l24.7-37l-0.7,9.6c-0.4,5.3-2.1,37.5-3.7,71.5c-1.7,34.1-3.2,62.4-3.4,63.1
		C-260.3,578.7-269.7,563.7-281.1,544.8L-281.1,544.8z M-438.8,562.4c0-0.5,7.6-18.9,19.6-47.2l1.7-4l9.7,25l9.7,25l-11,0.8
		C-423.5,563-438.8,563.2-438.8,562.4L-438.8,562.4z M-392.6,558c0.3-0.9,4.1-17,8.5-35.8c4.4-18.8,8.2-34.4,8.4-34.7
		c0.5-0.5,61.1,19,62.1,20c0.4,0.4-15.2,11.1-34.8,23.6C-391.8,559.1-393.3,560-392.6,558L-392.6,558z M-405.8,526.7
		c-4.6-12-8.5-22.1-8.7-22.5c-0.2-0.4,7.2-4.6,16.4-9.4l16.6-8.7l-2.8,11.7c-1.6,6.4-4.8,20.1-7.3,30.3c-2.4,10.3-4.7,19-5.1,19.4
		C-397,548.1-401.1,538.7-405.8,526.7L-405.8,526.7z M-438.8,544.3c0-0.6,2.2-11.6,4.8-24.4c2.6-12.8,4.8-23.9,4.8-24.6
		c0-0.7,1.9,0.6,4.2,2.8c2.3,2.2,4.2,4.5,4.2,5.1c0,1.1-16.7,40.8-17.6,41.7C-438.6,545.2-438.8,544.9-438.8,544.3L-438.8,544.3z
		 M-317.4,475c-6.3-15.2-11.6-28.1-11.7-28.5c-0.3-0.7,67.2-12.4,67.8-11.7c0.1,0.1-9.9,15.5-22.2,34.1l-22.4,33.8L-317.4,475z
		 M-343,491.6c-16.4-5.4-29.8-10.2-29.8-10.7c0.1-1.1,36.3-34.5,37.4-34.5c0.8,0,23.2,54.2,22.7,54.6
		C-313,501.2-326.6,497-343,491.6L-343,491.6z M-420.1,494.4c-6.5-5.1-6.4-6,2.9-19.4c12.1-17.5,38.8-41.8,57.2-52.2
		c19.7-11.1,18.8-10.8,26.4-8.2c3.6,1.2,6.5,2.5,6.5,2.9c0,0.4-2.6,5.6-5.7,11.6c-5.4,10.4-6.6,11.8-26.5,30.1
		c-20.7,19-21,19.2-39.3,28.4l-18.4,9.3L-420.1,494.4z M-330.6,439.6c0-1.2,11-22,11.6-22c2.5,0,48.4,12.7,47.3,13
		C-274.1,431.4-330.6,440-330.6,439.6z M-282.5,421.2c-18.1-5.1-23.9-7.1-21.6-7.7c17.2-4.3,41.4-9,42.2-8.3
		c0.8,0.8,8.3,21.4,8.3,22.7C-253.7,429-259,427.8-282.5,421.2z M-328.7,409.4c-0.6-1,31.7-5.5,32.7-4.5c0.3,0.3-0.4,0.6-1.7,0.6
		c-1.3,0-6.6,1.1-11.9,2.4C-319.6,410.4-327.7,411-328.7,409.4L-328.7,409.4z M-292.4,403.5c0.9-0.3,1.9-0.3,2.3,0.1
		c0.4,0.4-0.3,0.7-1.6,0.6C-293,404.2-293.3,403.9-292.4,403.5L-292.4,403.5z"/>
	<path id="path1017" inkscape:connector-curvature="0" class="st16" d="M-309.2,580.3c0.9-0.3,1.9-0.3,2.3,0.1
		c0.4,0.4-0.3,0.7-1.6,0.6C-309.9,581-310.2,580.7-309.2,580.3L-309.2,580.3z M-289.7,577.5c-12.9-1.9-35.9-5.1-51.1-7.1
		c-41.3-5.6-46.4-6.4-46-6.7c0.2-0.2,18.2-11.8,39.9-25.8c32-20.6,39.9-25.2,41-23.9c2.3,2.4,41,67.3,40,67
		C-266.1,580.9-276.8,579.4-289.7,577.5L-289.7,577.5z M-321.9,579.1c1.2-0.3,3.1-0.3,4.2,0c1.2,0.3,0.2,0.5-2.1,0.5
		C-322.1,579.6-323.1,579.4-321.9,579.1L-321.9,579.1z M-364.3,575.6c-15.5-1.5-36.1-3.5-45.7-4.4l-17.4-1.6l18.4-0.3
		c15.6-0.3,23.2,0.3,49.9,3.9c17.3,2.3,32.3,4.5,33.3,4.7C-320.7,579.2-339.2,578.1-364.3,575.6L-364.3,575.6z M-281,544.5
		c-11.4-19-20.7-35-20.7-35.7s11.1-17.8,24.6-38.1l24.6-36.9l-0.6,7.8c-0.3,4.3-2,35.9-3.6,70.3c-1.7,34.4-3.1,63.5-3.3,64.8
		C-260.2,578.1-269,564.6-281,544.5L-281,544.5z M-438.8,562.7c0-0.2,4.8-11.9,10.6-25.9l10.6-25.5l9.6,24.9
		c5.3,13.7,9.6,25,9.5,25.1C-398.7,561.8-438.8,563.1-438.8,562.7L-438.8,562.7z M-384.3,523.7c4.6-19.7,8.5-35.9,8.7-36.1
		c0.5-0.7,61.9,19.5,61.9,20.4c0,0.4-16.6,11.5-37,24.6c-20.3,13.1-38.1,24.5-39.5,25.4C-392.5,559.3-392,556.2-384.3,523.7
		L-384.3,523.7z M-406,525.5l-8.4-22l15.6-8.1c8.6-4.5,15.9-7.9,16.1-7.6c0.3,0.3-2,11-5.2,23.8c-3.1,12.8-6.2,25.7-6.8,28.7
		c-0.6,3-1.5,5.8-2,6.3C-397.2,547.1-401.3,537.6-406,525.5L-406,525.5z M-438.4,542.6c0.3-1.7,2.6-13.2,5.1-25.6l4.5-22.6l4.2,4.2
		l4.2,4.2l-9.3,21.4C-434.8,536-438.7,544.3-438.4,542.6z M-341.4,492c-15.5-5.1-29.3-9.6-30.5-9.9c-1.8-0.5,1.8-4.3,16.6-17.8
		c10.4-9.5,19.2-17.3,19.7-17.5c0.8-0.3,23.5,53.9,22.8,54.4C-313,501.2-325.9,497.2-341.4,492L-341.4,492z M-317.6,473.8l-11.5-28
		l33.8-5.7c18.6-3.1,34-5.7,34.1-5.7c0.4-0.1-42.9,65-44.1,66.4C-305.7,501.4-311.3,489.2-317.6,473.8L-317.6,473.8z M-421.7,491.8
		l-3.8-3.9l7.7-11.5c5.7-8.5,11.9-15.4,23.7-26.6c8.8-8.3,17.4-16.2,19.1-17.5c5-3.9,32.7-19.5,34.7-19.5c1.6,0,11.9,3.4,13.2,4.3
		c0.2,0.2-2.2,5.3-5.4,11.4c-5.6,10.6-6.8,12-27.1,30.7c-20.9,19.2-21.6,19.7-38.2,28.1c-9.3,4.7-17.6,8.5-18.5,8.5
		C-417.2,495.7-419.6,494-421.7,491.8L-421.7,491.8z M-325.1,428.3c4.9-9.7,5.8-10.9,8.1-10.2c1.4,0.4,12.5,3.3,24.5,6.4
		c12,3.1,21.7,5.8,21.5,6c-0.5,0.5-54.8,8.7-57.5,8.7C-330.3,439.2-329.7,437.4-325.1,428.3z M-281.1,421.4
		c-16.6-4.6-23.7-7.1-22.2-7.7c4.8-2,40.6-9.3,41.3-8.5c0.4,0.5,2.2,5.1,4,10.3c1.8,5.2,3.6,10.2,3.9,11.1
		C-253.1,429.1-253.9,429-281.1,421.4z M-327,409.4c0-0.9,20.1-3.9,24.3-3.7c0.9,0-2.5,1.1-7.4,2.4C-319.8,410.4-327,411-327,409.4z
		 M-299.6,404.7c0.9-0.3,1.9-0.3,2.3,0.1c0.4,0.4-0.3,0.7-1.6,0.6C-300.3,405.4-300.5,405.1-299.6,404.7L-299.6,404.7z"/>
	<path id="path1019" inkscape:connector-curvature="0" class="st17" d="M-309.2,580.3c0.9-0.3,1.9-0.3,2.3,0.1
		c0.4,0.4-0.3,0.7-1.6,0.6C-309.9,581-310.2,580.7-309.2,580.3L-309.2,580.3z M-275.9,579.2l-9.6-1.6l9,0.7l9,0.7l-1.8-2.9
		c-3.5-5.4-8.4-14.9-6.2-12c2.2,3,10.4,17.1,9.8,16.8C-266.1,580.9-270.6,580.1-275.9,579.2L-275.9,579.2z M-321.9,579.1
		c1.2-0.3,3.1-0.3,4.2,0c1.2,0.3,0.2,0.5-2.1,0.5C-322.1,579.6-323.1,579.4-321.9,579.1L-321.9,579.1z M-363.1,575.7
		c-14.9-1.5-24.9-2.8-22.2-2.9c2.6-0.1,7.8-0.4,11.4-0.7c5.6-0.5,6-0.4,2.4,0.5c-3.2,0.8-2.2,0.9,4.2,0.5c6.2-0.4,7.9-0.2,6.6,0.7
		c-1.4,1-0.8,1.1,2.4,0.7c2.3-0.4,11,0.4,19.2,1.6C-318.3,579.3-329.4,579.1-363.1,575.7L-363.1,575.7z M-267.5,567
		c-3.9-6.4-7.9-13.1-8.8-14.7c-4.4-7.8,2.7,2.5,8.5,12.3l6.2,10.5l0.7-6.9l0.7-6.9l0.2,8.7c0.1,4.8,0,8.7-0.1,8.7
		S-263.6,573.4-267.5,567L-267.5,567z M-297.6,576.3l-4.8-0.9l4.8,0c2.6,0,6.4,0.4,8.4,0.9l3.6,0.9l-3.6,0
		C-291.1,577.2-294.9,576.8-297.6,576.3L-297.6,576.3z M-308.7,574.3c1.2-0.3,3.1-0.3,4.2,0c1.2,0.3,0.2,0.5-2.1,0.5
		C-308.9,574.8-309.8,574.6-308.7,574.3L-308.7,574.3z M-317.7,573c1.5-0.3,3.7-0.3,4.8,0c1.1,0.3-0.1,0.5-2.7,0.5
		C-318.2,573.6-319.2,573.3-317.7,573L-317.7,573z M-398.2,571.8c1.5-0.3,3.7-0.3,4.8,0c1.1,0.3-0.1,0.5-2.7,0.5
		C-398.8,572.4-399.7,572.1-398.2,571.8L-398.2,571.8z M-333,571.5l-5.4-0.8l5.4,0c3,0,7,0.4,9,0.9l3.6,0.9l-3.6,0
		C-326,572.3-330,572-333,571.5L-333,571.5z M-420.8,570.3c-5.7-0.7-4.8-0.8,5.7-1c7.5-0.1,12.3,0.3,12.3,1
		C-402.8,571.6-410.2,571.6-420.8,570.3z M-383.2,570.7c1.2-0.3,3.1-0.3,4.2,0c1.2,0.3,0.2,0.5-2.1,0.5
		C-383.4,571.2-384.4,571-383.2,570.7L-383.2,570.7z M-394,569.4c1.8-0.3,4.5-0.3,6,0c1.5,0.3,0,0.5-3.3,0.5
		C-394.6,569.9-395.9,569.7-394,569.4L-394,569.4z M-343.5,569.5c1.2-0.3,2.8-0.3,3.6,0c0.8,0.3-0.1,0.6-2.1,0.6
		C-344,570-344.7,569.8-343.5,569.5L-343.5,569.5z M-352.5,568.2c1.5-0.3,3.7-0.3,4.8,0c1.1,0.3-0.1,0.5-2.7,0.5
		C-353.1,568.8-354,568.5-352.5,568.2L-352.5,568.2z M-367.9,566.7l-5.4-0.8l5.4,0c3,0,7,0.4,9,0.9l3.6,0.9l-3.6,0
		C-360.9,567.5-364.9,567.1-367.9,566.7L-367.9,566.7z M-384,564.6c-3.2-0.5-3.3-0.6-1.2-2c6-4.1,8.9-5.7,8.9-5c0,0.4-1.7,1.8-3.8,3
		l-3.8,2.3l5.3,1.2c4.1,0.9,4.4,1.2,1.7,1.1C-378.9,565.1-382.1,564.9-384,564.6L-384,564.6z M-438.8,562.2c0-0.5,0.5-1.7,1.2-2.7
		c1-1.6,1.2-1.5,1.2,0.2c0,1.6,1.4,2.1,6.9,2.5l6.9,0.4l-8.1,0.2C-435.2,563-438.8,562.7-438.8,562.2L-438.8,562.2z M-410.6,561
		c5.3-0.2,9.9-1,10.4-1.7c0.5-0.8,1.1-0.5,1.5,0.7c0.6,1.7-0.7,1.9-10.4,1.7l-11.1-0.2L-410.6,561z M-280.1,558.3
		c-0.7-1.3-1-2.4-0.7-2.4c0.3,0,1.2,1.1,1.9,2.4c0.7,1.3,1,2.4,0.7,2.4C-278.6,560.7-279.4,559.6-280.1,558.3z M-392.1,556.1
		c0.5-2.2,0.8-2.6,1.1-1.2c0.4,1.9,0.7,1.9,3.7,0.2c3-1.8,3.1-1.8,0.8,0.1c-1.3,1.1-3.3,2.5-4.3,3.1
		C-392.5,559.2-392.7,558.8-392.1,556.1L-392.1,556.1z M-259.3,549.8c0-5.6,0.2-7.9,0.5-5.1c0.3,2.8,0.3,7.4,0,10.2
		C-259.1,557.8-259.3,555.5-259.3,549.8z M-436.3,556.5c0-0.7,0.8-2.6,1.7-4.2c0.9-1.7,1.7-2.5,1.7-1.8s-0.8,2.6-1.7,4.2
		C-435.6,556.3-436.3,557.1-436.3,556.5z M-405,547.3c-2.1-5.4-3.6-10-3.4-10.2c0.2-0.2,2.2,4,4.3,9.3c2.1,5.4,3.6,10,3.4,10.2
		C-401,556.9-402.9,552.7-405,547.3z M-375.1,556.7c0-0.5,2.6-2.2,12.3-8.6c2-1.3,3.3-1.6,3.3-0.8c0,0.7-0.6,1.3-1.3,1.3
		c-0.7,0-3.5,1.5-6.3,3.4C-373.5,556.4-375.1,557.3-375.1,556.7L-375.1,556.7z M-289.2,542.9c-3.8-6.4-7.7-12.9-8.7-14.4
		s-1.4-2.7-1.1-2.7c0.5,0,11.8,18.3,17.3,28c0.3,0.5,0.3,0.9,0,0.9C-282,554.7-285.4,549.4-289.2,542.9L-289.2,542.9z M-383.5,553
		c0-0.3,6.9-5,15.3-10.5c18.8-12.2,21.7-13.9,20.1-12.3c-0.7,0.7-8.2,5.8-16.8,11.4C-384,554-383.5,553.7-383.5,553z M-390.6,551
		c0.1-1,0.5-3.2,1.1-4.8l1-3l0.1,3c0.1,1.7-0.4,3.8-1.1,4.8C-390.6,552.6-390.7,552.6-390.6,551L-390.6,551z M-432.4,547.4
		c1.1-3.9,4.7-12.1,5.2-11.6c0.3,0.3-0.9,3.4-2.6,7C-431.5,546.3-432.6,548.4-432.4,547.4L-432.4,547.4z M-280.2,546
		c-0.8-1.5-2.3-4-3.2-5.5c-1-1.5-1.5-2.7-1.2-2.7c1,0,7.1,9.8,6.5,10.4C-278.5,548.6-279.4,547.6-280.2,546L-280.2,546z
		 M-400.2,540.6c-1.4-3.7-2.4-7-2.1-7.2c0.2-0.2,1.4,2,2.5,5c1.1,3,2.6,5.1,3.2,4.8c0.6-0.4,1.1,0.1,1.1,1.1
		C-395.5,548.6-397.8,546.8-400.2,540.6L-400.2,540.6z M-358.3,545.9c0-0.5,2.6-2.2,12.3-8.6c1.8-1.2,3.3-1.8,3.3-1.4
		c0,0.4-2.8,2.5-6.3,4.7C-357.7,546.1-358.3,546.4-358.3,545.9z M-438.7,544.4c0-0.7,1.1-5.8,2.3-11.4c1.4-6.1,2.1-8,1.8-4.8
		l-0.5,5.4l4.1-8.4c6-12.4,5.1-9-1.7,6.7C-436.1,539.4-438.8,545.1-438.7,544.4z M-388,539.9c0.3-1.5,1.3-5.8,2.1-9.6
		c0.8-3.8,1.7-6.7,2-6.4c0.7,0.7-3.3,18.7-4.2,18.7C-388.3,542.6-388.3,541.4-388,539.9L-388,539.9z M-395.4,539
		c0-1.7,0.3-2.3,0.6-1.5c0.3,0.8,0.3,2.2,0,3C-395.1,541.4-395.4,540.7-395.4,539L-395.4,539z M-287.5,533.9
		c-0.8-1.5-2.2-4.1-3.2-5.7c-1.7-2.9-1.7-2.9,0.3-0.6c2.4,2.9,5.8,9,4.9,9C-285.8,536.6-286.7,535.4-287.5,533.9L-287.5,533.9z
		 M-258,525.2c0-6.6,0.2-9.2,0.4-5.7c0.2,3.5,0.2,8.9,0,12C-257.8,534.7-258,531.8-258,525.2L-258,525.2z M-411.2,531.8
		c-0.8-2-1.2-4-0.9-4.3c0.3-0.3,1.2,1.1,2,3.2C-408.4,535.8-409.2,536.6-411.2,531.8L-411.2,531.8z M-394.1,534.2c0-1,0.5-3.2,1-4.8
		c0.8-2.4,1-2.5,1-0.6c0,1.3-0.4,3.5-1,4.8C-393.8,535.1-394.2,535.3-394.1,534.2z M-340.8,534.5c0.7-0.7,8.4-5.9,17.3-11.7
		c17.7-11.5,16.6-11.3,21.8-2.4c3.3,5.7,1.6,4.3-2.7-2.1l-3-4.6l-8.1,5.5c-4.5,3-8.4,5.5-8.6,5.5c-0.3,0-3.6,2.1-7.4,4.6
		C-339.8,534.7-342.5,536.3-340.8,534.5L-340.8,534.5z M-426.8,533.4c0-0.5,0.5-1.8,1.2-2.8c1-1.6,1.2-1.5,1.2,0.2
		c0,1.1-0.5,2.4-1.2,2.8C-426.3,534-426.8,533.9-426.8,533.4z M-405.6,526.8c-2.6-6.5-1.8-7.3,1-1c1.2,2.7,1.9,5.1,1.6,5.4
		C-403.3,531.6-404.5,529.6-405.6,526.8z M-345.6,528.5c0.7-0.7,7.9-5.6,16.1-10.9l14.9-9.6l-5.3-1.5c-2.9-0.8-5.8-2-6.5-2.7
		c-0.8-0.8-0.5-0.9,0.8-0.5c1.1,0.4,4.2,1.4,6.9,2.2c2.7,0.8,4.9,1.9,4.9,2.4c0,0.5-5.8,4.6-12.9,9.2
		C-344.9,528.7-347,530-345.6,528.5z M-424.3,527.6c0-0.7,0.8-2.6,1.7-4.2c0.9-1.7,1.7-2.5,1.7-1.8s-0.8,2.6-1.7,4.2
		C-423.5,527.4-424.3,528.3-424.3,527.6z M-415.4,520.2c-2.1-5.6-2.2-5.6-3.7-2.7c-2.1,3.7-2.1,2.4-0.1-2.5l1.6-3.8l2.6,6.9
		c1.4,3.8,2.4,7.1,2.2,7.3C-413,525.6-414.2,523.3-415.4,520.2L-415.4,520.2z M-391.8,523.9c0.1-1.4,0.3-1.7,0.7-0.7
		c0.3,0.9,0.3,1.9-0.1,2.3C-391.6,525.9-391.9,525.2-391.8,523.9L-391.8,523.9z M-294.5,522.2c-0.7-1.3-1-2.4-0.7-2.4
		c0.3,0,1.2,1.1,1.9,2.4c0.7,1.3,1,2.4,0.7,2.4C-293,524.6-293.8,523.5-294.5,522.2z M-433.8,520.4c0-1.3,0.4-4,0.9-6
		c0.8-3.2,0.9-3.3,0.9-0.6c0,1.7-0.4,4.4-0.9,6C-433.6,522.1-433.8,522.3-433.8,520.4z M-383.5,520.9c0-2.4,4.5-18.9,4.7-17.1
		c0.1,1.8-3.5,17.6-4.2,18.3C-383.3,522.4-383.5,521.8-383.5,520.9z M-390.5,519.2c0-1.3,0.4-3.5,1-4.8c1.3-3.1,1.3,0.1,0,4.2
		C-390.3,521-390.5,521.1-390.5,519.2z M-298.2,516.2c-0.7-1.3-1-2.4-0.7-2.4c0.3,0,1.2,1.1,1.9,2.4s1,2.4,0.7,2.4
		C-296.6,518.6-297.4,517.5-298.2,516.2z M-410.4,514.3c-1.2-3-0.8-3.8,0.6-1.4c0.7,1.2,1,2.4,0.7,2.8
		C-409.4,516-410,515.4-410.4,514.3L-410.4,514.3z M-425.5,513.5c0-0.5,0.8-3.1,1.9-5.8c1.9-4.7,1.9-5-0.5-7.4
		c-3.3-3.3-4.7-2.1-5.7,4.5c-0.5,3-1.1,5.3-1.4,4.9c-0.3-0.3,0.1-3.9,0.9-8l1.5-7.4l4,3.9c2.2,2.2,4,4.5,3.9,5.2
		C-421,505.1-425.4,514.6-425.5,513.5L-425.5,513.5z M-301,511.8c-0.4-0.4-0.8-1.5-0.8-2.4c0-0.9,11.1-18.2,24.6-38.6
		c15.4-23.1,24.6-35.9,24.6-34.3c0,1.5-0.5,2.7-1.2,2.7c-2.1,0-47.1,68.9-46.5,71.2C-299.5,512.7-299.7,513-301,511.8L-301,511.8z
		 M-388.2,509c-0.1-1.7,0.4-3.8,1.1-4.8c1-1.6,1.2-1.6,1.1,0c-0.1,1-0.5,3.2-1.1,4.8l-1,3L-388.2,509z M-256.9,501.7
		c0-5.6,0.2-7.9,0.5-5.1c0.3,2.8,0.3,7.4,0,10.2S-256.9,507.4-256.9,501.7z M-413.3,506.8c-1.2-3.4-1.1-3.5,9-8.5
		c5.6-2.8,9.9-4.6,9.6-4.1c-0.3,0.5-4.5,2.8-9.2,5.1c-8.1,3.9-8.6,4.4-7.9,7.5C-411,511.1-411.8,511.1-413.3,506.8L-413.3,506.8z
		 M-330.8,502.1c0.9-0.3,1.9-0.3,2.3,0.1c0.4,0.4-0.3,0.7-1.6,0.6C-331.5,502.8-331.8,502.5-330.8,502.1L-330.8,502.1z
		 M-385.7,499.3c0-1.7,0.4-4.1,1-5.4l1-2.4l0,2.4c0,1.3-0.5,3.8-1,5.4l-1,3L-385.7,499.3L-385.7,499.3z M-378.3,499
		c0.4-1.5,1-4.7,1.5-7.2c0.4-2.5,1.2-4.5,1.6-4.5c1.5,0,32,10.6,30.7,10.7c-0.7,0.1-7.7-2.1-15.6-4.7c-7.9-2.6-14.4-4.8-14.6-4.8
		c-0.1,0-0.9,3-1.6,6.6c-0.8,3.6-1.7,6.6-2,6.6C-378.7,501.7-378.7,500.5-378.3,499L-378.3,499z M-338.9,500.4
		c-2.2-0.6-3.8-1.4-3.5-1.7c0.6-0.6,9.4,1.7,9.4,2.5C-333,501.9-334,501.8-338.9,500.4L-338.9,500.4z M-331.8,495.1
		c-10.3-3.5-18.1-6.4-17.4-6.4c0.7-0.1,8.5,2.3,17.4,5.3c8.9,2.9,16.3,5.2,16.6,4.9c0.2-0.2-1.5-5.2-3.9-11
		c-2.3-5.8-4.1-10.8-3.8-11c0.2-0.2,2.7,5.1,5.4,11.8c2.7,6.8,4.8,12.4,4.7,12.5C-313.1,501.3-321.6,498.6-331.8,495.1L-331.8,495.1
		z M-307.1,499.8c-0.4-1.1-0.5-2.3-0.1-2.6c0.3-0.3,0.6,0.1,0.7,1.1c0,0.9,1.7-0.2,3.7-2.5l3.7-4.2l-3.2,5.1
		c-1.8,2.8-3.4,5.1-3.6,5.1C-306.2,501.7-306.7,500.9-307.1,499.8z M-421.7,491.8l-3.8-3.9l6.7-10.2c3.7-5.6,8.2-11.7,9.9-13.6
		c6.3-6.9,35-33.1,37.7-34.4c1.8-0.9,1.5-0.4-0.9,1.4c-2,1.5-11,9.7-20.1,18.2c-12.4,11.6-18.4,18.3-24.3,27l-7.9,11.6l3.8,4
		c2.1,2.2,3.6,4,3.2,4C-417.7,495.7-419.6,494-421.7,491.8L-421.7,491.8z M-398.4,486.4c18.9-9.7,22.8-12.7,54.3-42.8
		c3.5-3.3,6.3-5.7,6.3-5.2c0,0.4-9.7,9.7-21.6,20.6c-21.2,19.5-21.8,20-38.5,28.3c-9.3,4.7-17.3,8.4-17.8,8.4
		C-416.2,495.7-408.4,491.5-398.4,486.4L-398.4,486.4z M-311.2,489.6c-1.4-3.4-2.4-6.4-2.1-6.7c0.2-0.2,1.6,2.4,3,5.8
		c1.4,3.4,2.4,6.4,2.1,6.7C-308.4,495.6-309.8,493-311.2,489.6z M-388.9,490.3c5.7-3.5,6.6-3.6,6.6-0.9c0,1.5-0.3,1.7-0.9,0.6
		c-0.7-1.1-1.9-0.9-4.8,0.9c-2.1,1.3-4.3,2.3-4.8,2.3C-393.4,493.3-391.6,491.9-388.9,490.3L-388.9,490.3z M-298.7,489.7
		c3.2-5.7,30.9-46.9,32-47.6c1.3-0.8-29.6,46.1-31.7,48.2C-299.3,491.1-299.4,490.9-298.7,489.7z M-364.3,484.8
		c-3.6-1.3-7.3-2.6-8.2-2.9c-0.9-0.3,6.1-7.5,17.2-17.7c19.1-17.4,21-19,21-16.6c0,0.7-0.5,1.2-1,1c-0.9-0.3-36.2,31.1-36.2,32.2
		c0,0.2,3.8,1.6,8.4,3.1c4.6,1.5,8.4,2.9,8.4,3.1C-354.7,487.8-357.8,487.1-364.3,484.8z M-255.7,477.7c0-5.6,0.3-16.2,0.8-23.4
		c0.8-13.2,0.8-13.2,0.9-3c0,5.6-0.3,16.2-0.8,23.4C-255.7,487.9-255.7,487.9-255.7,477.7L-255.7,477.7z M-315.4,479.5
		c-1.2-3-0.8-3.8,0.6-1.4c0.7,1.2,1,2.4,0.7,2.8C-314.4,481.2-315,480.5-315.4,479.5L-315.4,479.5z M-329.3,463.1
		c-2.8-6.7-4.8-12.4-4.6-12.6c0.2-0.2,2.7,5.1,5.5,11.8c2.8,6.7,4.8,12.4,4.6,12.6C-324.1,475.2-326.5,469.9-329.3,463.1z
		 M-319.6,469.1c-1.4-3.4-2.4-6.4-2.1-6.7c0.2-0.2,1.6,2.4,3,5.8c1.4,3.4,2.4,6.4,2.1,6.7C-316.9,475.2-318.2,472.5-319.6,469.1z
		 M-323.9,459c-1.2-3-0.8-3.8,0.6-1.4c0.7,1.2,1,2.4,0.7,2.8C-322.9,460.7-323.4,460.1-323.9,459z M-327.3,450.4l-1.8-4.6l11.6-2
		c6.4-1.1,12.9-2,14.6-2c1.7,0-2.9,1.1-10.2,2.4s-13.4,2.6-13.7,2.9c-0.3,0.3,0.1,2,0.9,3.7c0.8,1.7,1.2,3.4,0.9,3.7
		C-325.3,454.7-326.3,452.9-327.3,450.4z M-298.5,440.8c0.8-0.3,2.2-0.3,3,0c0.8,0.3,0.2,0.6-1.5,0.6
		C-298.6,441.4-299.3,441.2-298.5,440.8L-298.5,440.8z M-285.5,438.6c4.6-0.9,9.8-1.6,11.4-1.6c1.7,0-0.5,0.7-4.8,1.6
		s-9.4,1.6-11.4,1.6C-292.3,440.2-290.2,439.5-285.5,438.6z M-264.6,438.2c0.7-1.2,0.9-2.6,0.4-3c-0.4-0.4,0.2-0.8,1.3-0.8
		c1.9,0,1.9,0.2,0.1,3C-265.1,440.9-266.3,441.5-264.6,438.2L-264.6,438.2z M-325.2,428.4c5.4-10.8,6.3-11.6,10.8-9.5
		c1.9,0.9,1.6,1-1.2,0.5c-3.5-0.6-3.8-0.3-8.1,8.4c-2.5,5-4.5,9.3-4.5,9.6c0,0.3,1.2,0.7,2.7,1c1.9,0.4,1.6,0.6-1.2,0.7l-3.9,0.2
		L-325.2,428.4z M-318,436.8c2.6-0.5,6.4-1,8.4-0.9c2.7,0.1,2.3,0.3-1.8,1C-318.6,438.2-324.3,438.1-318,436.8z M-269.9,436.8
		c-0.4-0.6,0.4-1.1,1.8-1.1c2.9,0,3.2,0.7,0.7,1.6C-268.4,437.6-269.5,437.4-269.9,436.8z M-303.8,434.8c1.2-0.3,2.8-0.3,3.6,0
		c0.8,0.3-0.1,0.6-2.1,0.6C-304.3,435.4-305,435.1-303.8,434.8L-303.8,434.8z M-335.7,432.3c0.5-1.2,2.2-4.7,3.9-7.9
		c2.9-5.8,2.9-5.8,0.6-7.6c-2.3-1.8-2.3-1.8,0.6-0.9c1.7,0.5,3.2,1,3.4,1.2c0.5,0.4-8.1,17.4-8.8,17.4
		C-336.3,434.4-336.1,433.5-335.7,432.3L-335.7,432.3z M-296.7,433.6c1.2-0.3,3.1-0.3,4.2,0c1.2,0.3,0.2,0.5-2.1,0.5
		C-296.9,434.1-297.8,433.9-296.7,433.6L-296.7,433.6z M-282.5,431.4c4.3-0.8,6.8-1.6,5.5-1.7c-1.3-0.1-2-0.4-1.6-0.8
		c0.4-0.4,2.5-0.2,4.7,0.4c3.9,1,3.8,1.1-3.9,2.5c-4.4,0.8-9,1.3-10.2,1.3C-289.3,433-286.8,432.2-282.5,431.4L-282.5,431.4z
		 M-367.9,428c0-1.3,25.9-15.2,28.3-15.2c1.3,0,3.2,0.6,4.2,1.2c1.3,0.8,0.7,1-2.1,0.4c-3.8-0.7-8,1.1-25.3,11.2
		C-365.6,427.3-367.9,428.3-367.9,428L-367.9,428z M-282.7,427.6c0.9-0.3,1.9-0.3,2.3,0.1c0.4,0.4-0.3,0.7-1.6,0.6
		C-283.4,428.3-283.7,428-282.7,427.6L-282.7,427.6z M-256.8,424.1c-0.1-4.2,0.8-3.6,2.4,1.6c0.6,1.9,0.3,2.7-0.8,2.7
		C-256.1,428.4-256.7,426.8-256.8,424.1z M-292.7,425.4c-4.7-1.6-4.8-1.7-0.6-1c4.9,0.8,9.9,2.7,7.2,2.6
		C-287.1,427-290.1,426.3-292.7,425.4L-292.7,425.4z M-261.1,426.4c0.9-0.3,1.9-0.3,2.3,0.1c0.4,0.4-0.3,0.7-1.6,0.6
		C-261.8,427.1-262.1,426.8-261.1,426.4L-261.1,426.4z M-268.1,424.8c-2.5-0.8-2.6-1-0.6-1.1c1.3-0.1,3.2,0.4,4.2,1.1
		C-262.4,426.2-263.8,426.2-268.1,424.8z M-304.8,422.4c-3.1-1.3,0.1-1.3,4.2,0c2.4,0.8,2.5,1,0.6,1
		C-301.3,423.4-303.4,423-304.8,422.4z M-277.1,422.4l-2.4-1l2.4-0.1c1.3,0,3.2,0.5,4.2,1.1c1.6,1,1.6,1.2,0,1.1
		C-273.9,423.5-275.8,423-277.1,422.4L-277.1,422.4z M-310.4,420.4c0.9-0.3,1.9-0.3,2.3,0.1c0.4,0.4-0.3,0.7-1.6,0.6
		C-311.1,421-311.4,420.8-310.4,420.4L-310.4,420.4z M-287.9,419.3c-4.7-1.6-4.8-1.7-0.6-1c4.9,0.8,9.9,2.7,7.2,2.6
		C-282.3,421-285.3,420.3-287.9,419.3z M-298.8,416.4c-1.5-0.7-1.7-1-0.6-1c1,0,2.9,0.5,4.2,1c1.5,0.7,1.7,1,0.6,1
		C-295.5,417.4-297.4,416.9-298.8,416.4L-298.8,416.4z M-304.2,414c1-0.6,4-1.4,6.6-1.8l4.8-0.7l-5.4,1.8
		C-304.2,415.3-306.9,415.7-304.2,414L-304.2,414z M-283.7,409.1c11.8-2.9,15.1-2.8,4.2,0.2c-4.6,1.2-9.5,2.2-10.8,2.2
		C-291.7,411.4-288.7,410.3-283.7,409.1z M-260.9,410.6c0-0.8-1.1-2.5-2.4-3.8c-1.9-1.9-2-2.4-0.6-2.4c1.8,0,4.8,5.8,3.6,7
		C-260.6,411.7-260.9,411.3-260.9,410.6z M-327,409.4c0-0.9,20.1-3.9,24.3-3.7c0.9,0-2.5,1.1-7.4,2.4
		C-319.8,410.4-327,411-327,409.4z M-269.5,405.9c0.9-0.3,1.9-0.3,2.3,0.1c0.4,0.4-0.3,0.7-1.6,0.6
		C-270.2,406.6-270.5,406.3-269.5,405.9L-269.5,405.9z M-299.6,404.7c0.9-0.3,1.9-0.3,2.3,0.1c0.4,0.4-0.3,0.7-1.6,0.6
		C-300.3,405.4-300.5,405.1-299.6,404.7L-299.6,404.7z"/>
</g>
</svg>
