<svg id="logo_lockups" data-name="logo lockups" xmlns="http://www.w3.org/2000/svg" viewBox="0 0 550 100"><defs><style>.cls-1{fill:#00363d;}</style></defs><title>msg_wordmark</title><path class="cls-1" d="M182.82,65.42a11.12,11.12,0,0,0,7.9-3.07l3.92,4.22c-2.59,2.66-6.17,4.63-11.75,4.63-9.56,0-15.73-6.34-15.73-14.92A14.63,14.63,0,0,1,182,41.36c9.49,0,14.87,7.22,14.4,17.24H174c.8,4.16,3.72,6.81,8.83,6.81m6.84-11.58c-.6-3.88-2.92-6.74-7.57-6.74a7.71,7.71,0,0,0-8.1,6.74Z"/><polygon class="cls-1" points="35.53 65.11 52.79 47.57 35.93 47.57 35.93 42.06 60.79 42.06 60.79 47.68 43.53 65.22 61.02 65.22 61.02 70.72 35.53 70.72 35.53 65.11"/><path class="cls-1" d="M80.41,65.42a11.12,11.12,0,0,0,7.9-3.07l3.92,4.22c-2.59,2.66-6.17,4.63-11.75,4.63-9.56,0-15.73-6.34-15.73-14.92A14.63,14.63,0,0,1,79.61,41.36c9.49,0,14.87,7.22,14.4,17.24H71.58c.8,4.16,3.72,6.81,8.83,6.81m6.84-11.58c-.6-3.88-2.92-6.74-7.57-6.74a7.71,7.71,0,0,0-8.1,6.74Z"/><path class="cls-1" d="M131.29,56.3c0-9.17,6.85-14.9,14.39-14.9a12.41,12.41,0,0,1,9.55,4.3V28.79h6.1V70.63h-6.1v-4a12.26,12.26,0,0,1-9.61,4.53,14.45,14.45,0,0,1-14.33-14.9m24.29-.06a9.1,9.1,0,1,0-9.09,9.34,9.07,9.07,0,0,0,9.09-9.34"/><path class="cls-1" d="M200.4,64.56l5.52-2.87a8.2,8.2,0,0,0,7.37,4.18c3.45,0,5.24-1.77,5.24-3.78,0-2.29-3.34-2.81-7-3.55-4.89-1-10-2.64-10-8.54,0-4.53,4.31-8.71,11.11-8.66,5.35,0,9.32,2.12,11.57,5.56l-5.12,2.81a7.43,7.43,0,0,0-6.45-3.27c-3.28,0-4.95,1.61-4.95,3.44,0,2.06,2.65,2.64,6.79,3.55,4.72,1,10.07,2.58,10.07,8.54,0,4-3.45,9.29-11.63,9.23-6,0-10.19-2.41-12.6-6.65"/><polygon class="cls-1" points="241.2 57.91 236.36 63.18 236.36 70.64 230.26 70.64 230.26 28.79 236.36 28.79 236.36 56.19 249.31 41.97 256.74 41.97 245.51 54.24 257.03 70.64 250.12 70.64 241.2 57.91"/><path class="cls-1" d="M112.86,41.39c-7.25,0-13.32,4.7-13.32,12.5V70.63h6.22v-16c0-4.7,2.7-7.51,7.31-7.51S120,50,120,54.67v16h6.22V53.89c0-7.8-6.07-12.5-13.32-12.5"/><path class="cls-1" d="M276.16,42h6.07V45.4a10,10,0,0,1,8.42-4c4.58,0,7.79,1.95,9.45,5.15a11.1,11.1,0,0,1,9.68-5.15c7.79,0,11.86,4.7,11.86,12V70.6h-6.24V53.82c0-4.3-2.35-7.1-6.64-7.1-3.84,0-6.82,2.63-6.82,7.73V70.6h-6.19V53.53c0-4.18-2.35-6.82-6.47-6.82s-7,2.69-7,8V70.6h-6.13Z"/><path class="cls-1" d="M325.76,56.4a14.75,14.75,0,0,1,14.89-15c8.48,0,14.72,6.13,14.72,14.61V58.4H331.66c.8,4.41,4.24,7.33,9.22,7.33a9,9,0,0,0,8.36-5.16l5,2.81a14.47,14.47,0,0,1-13.4,7.79C331.83,71.17,325.76,64.7,325.76,56.4Zm6.19-3.21h17.18c-.92-4.12-4.07-6.42-8.48-6.42A8.9,8.9,0,0,0,331.95,53.19Z"/><path class="cls-1" d="M358.17,64.7l5.5-3a8.29,8.29,0,0,0,7.56,4.12c3.55,0,5.38-1.72,5.38-3.72,0-2.35-3.44-2.86-7.1-3.67-4.87-1-10-2.58-10-8.48,0-4.52,4.35-8.71,11.17-8.65,5.56,0,9.28,2.06,11.68,5.56l-5.16,2.81a7.33,7.33,0,0,0-6.53-3.26c-3.38,0-5,1.55-5,3.44,0,2.06,2.46,2.52,6.82,3.49,4.81,1,10.25,2.63,10.25,8.65,0,4.3-3.84,9.22-11.8,9.16C364.76,71.17,360.64,68.94,358.17,64.7Z"/><path class="cls-1" d="M386,64.7l5.5-3A8.29,8.29,0,0,0,399,65.85c3.55,0,5.38-1.72,5.38-3.72,0-2.35-3.44-2.86-7.1-3.67-4.87-1-10-2.58-10-8.48,0-4.52,4.35-8.71,11.17-8.65,5.56,0,9.28,2.06,11.68,5.56L405,49.69a7.33,7.33,0,0,0-6.53-3.26c-3.38,0-5,1.55-5,3.44,0,2.06,2.46,2.52,6.82,3.49,4.81,1,10.25,2.63,10.25,8.65,0,4.3-3.84,9.22-11.8,9.16C392.54,71.17,388.42,68.94,386,64.7Z"/><path class="cls-1" d="M414.18,56.28c0-9.16,6.82-14.89,14.32-14.89a12.33,12.33,0,0,1,9.51,4.3V42h6.13V70.6H438v-4a12.18,12.18,0,0,1-9.57,4.53C421.17,71.17,414.18,65.39,414.18,56.28Zm24.17-.06a9.05,9.05,0,1,0-9,9.34A9,9,0,0,0,438.35,56.22Z"/><path class="cls-1" d="M449.56,56.28c0-9.16,6.82-14.89,14.32-14.89a12.19,12.19,0,0,1,9.51,4.47V42h6.13v28c0,8.42-5.27,14.61-14.43,14.61-7.16,0-12-3.44-14.21-8.08l5.67-2.69c1.43,3.15,4.18,5.16,8.53,5.16,5.21,0,8.36-3.84,8.36-8.76V66.53a12.22,12.22,0,0,1-9.62,4.64C456.55,71.17,449.56,65.39,449.56,56.28Zm24.17-.06a9.05,9.05,0,1,0-9,9.34A9,9,0,0,0,473.73,56.22Z"/><path class="cls-1" d="M484.86,56.4a14.75,14.75,0,0,1,14.89-15c8.48,0,14.72,6.13,14.72,14.61V58.4H490.76c.8,4.41,4.24,7.33,9.22,7.33a9,9,0,0,0,8.36-5.16l5,2.81A14.47,14.47,0,0,1,500,71.17C490.93,71.17,484.86,64.7,484.86,56.4ZM491,53.19h17.18c-.92-4.12-4.07-6.42-8.48-6.42A8.9,8.9,0,0,0,491,53.19Z"/></svg>