<svg id="logo_lockups" data-name="logo lockups" xmlns="http://www.w3.org/2000/svg" viewBox="0 0 580 580"><defs><style>.cls-1{fill:#37b8af;}.cls-2{fill:#00363d;}</style></defs><title>msg_zendesk vertical</title><circle class="cls-1" cx="237.75" cy="173.12" r="84.42"/><circle class="cls-2" cx="89.34" cy="81.34" r="49.34"/><path class="cls-2" d="M40,454H50.53v6c3.18-4.37,8.24-7,14.6-7,7.94,0,13.51,3.38,16.39,8.94A19.25,19.25,0,0,1,98.29,453c13.51,0,20.56,8.14,20.56,20.85v29.79H108v-29.1c0-7.45-4.07-12.31-11.52-12.31-6.65,0-11.82,4.57-11.82,13.41v28H74V474c0-7.25-4.07-11.82-11.22-11.82-7,0-12.12,4.67-12.12,13.8v27.61H40Z"/><path class="cls-2" d="M126,479a25.57,25.57,0,0,1,25.82-26c14.7,0,25.52,10.63,25.52,25.32v4.17H136.23c1.39,7.65,7.35,12.71,16,12.71a15.57,15.57,0,0,0,14.5-8.94l8.74,4.87c-4.37,8.14-12.21,13.51-23.24,13.51C136.53,504.64,126,493.41,126,479Zm10.73-5.56h29.79c-1.59-7.15-7.05-11.12-14.7-11.12A15.44,15.44,0,0,0,136.73,473.45Z"/><path class="cls-2" d="M182.2,493.41l9.53-5.16c2.88,4.67,7.15,7.15,13.11,7.15,6.16,0,9.33-3,9.33-6.45,0-4.07-6-5-12.31-6.36-8.44-1.69-17.38-4.47-17.38-14.7,0-7.85,7.55-15.09,19.37-15,9.63,0,16.09,3.57,20.26,9.63l-8.94,4.87c-2.38-3.58-6.06-5.66-11.32-5.66-5.86,0-8.64,2.68-8.64,6,0,3.57,4.27,4.37,11.82,6.06,8.34,1.79,17.78,4.57,17.78,15,0,7.45-6.65,16-20.46,15.89C193.62,504.64,186.47,500.76,182.2,493.41Z"/><path class="cls-2" d="M230.37,493.41l9.53-5.16c2.88,4.67,7.15,7.15,13.11,7.15,6.16,0,9.33-3,9.33-6.45,0-4.07-6-5-12.31-6.36-8.44-1.69-17.38-4.47-17.38-14.7,0-7.85,7.55-15.09,19.37-15,9.63,0,16.09,3.57,20.26,9.63l-8.94,4.87c-2.38-3.58-6.06-5.66-11.32-5.66-5.86,0-8.64,2.68-8.64,6,0,3.57,4.27,4.37,11.82,6.06,8.34,1.79,17.78,4.57,17.78,15,0,7.45-6.65,16-20.46,15.89C241.79,504.64,234.64,500.76,230.37,493.41Z"/><path class="cls-2" d="M279.3,478.82c0-15.89,11.82-25.82,24.83-25.82a21.38,21.38,0,0,1,16.49,7.45V454h10.63v49.65H320.62v-6.85A21.12,21.12,0,0,1,304,504.64C291.42,504.64,279.3,494.61,279.3,478.82Zm41.91-.1c0-8.84-6.65-16.09-15.69-16.09-8.84,0-15.69,7.05-15.69,16.09s6.85,16.19,15.69,16.19C314.56,494.9,321.21,487.65,321.21,478.72Z"/><path class="cls-2" d="M340.65,478.82c0-15.89,11.82-25.82,24.83-25.82A21.14,21.14,0,0,1,382,460.74V454h10.63v48.46c0,14.6-9.14,25.32-25,25.32-12.41,0-20.86-6-24.63-14l9.83-4.67c2.48,5.46,7.25,8.94,14.8,8.94,9,0,14.5-6.65,14.5-15.19v-6.26a21.19,21.19,0,0,1-16.68,8C352.76,504.64,340.65,494.61,340.65,478.82Zm41.91-.1c0-8.84-6.65-16.09-15.69-16.09-8.84,0-15.69,7.05-15.69,16.09S358,494.9,366.86,494.9C375.9,494.9,382.55,487.65,382.55,478.72Z"/><path class="cls-2" d="M401.85,479a25.57,25.57,0,0,1,25.82-26c14.7,0,25.52,10.63,25.52,25.32v4.17H412.08c1.39,7.65,7.35,12.71,16,12.71a15.57,15.57,0,0,0,14.5-8.94l8.74,4.87c-4.37,8.14-12.21,13.51-23.24,13.51C412.38,504.64,401.85,493.41,401.85,479Zm10.73-5.56h29.79c-1.59-7.15-7.05-11.12-14.7-11.12A15.44,15.44,0,0,0,412.58,473.45Z"/><path class="cls-2" d="M295.38,403.64a19.27,19.27,0,0,0,13.69-5.32l6.79,7.32c-4.49,4.61-10.7,8-20.37,8-16.57,0-27.27-11-27.27-25.87A25.37,25.37,0,0,1,294,361.94c16.46,0,25.78,12.52,25,29.89H280.08c1.38,7.21,6.44,11.81,15.3,11.81m11.85-20.08c-1-6.73-5.06-11.69-13.12-11.69-7.48,0-12.66,4.25-14,11.69Z"/><polygon class="cls-2" points="40 403.11 69.94 372.7 40.7 372.7 40.7 363.15 83.81 363.15 83.81 372.89 53.87 403.3 84.21 403.3 84.21 412.84 40 412.84 40 403.11"/><path class="cls-2" d="M117.82,403.64a19.27,19.27,0,0,0,13.69-5.32l6.79,7.32c-4.49,4.61-10.7,8-20.37,8-16.57,0-27.27-11-27.27-25.87a25.37,25.37,0,0,1,25.77-25.87c16.46,0,25.78,12.52,25,29.89H102.52c1.38,7.21,6.44,11.81,15.3,11.81m11.85-20.08c-1-6.73-5.06-11.69-13.12-11.69-7.48,0-12.66,4.25-14,11.69Z"/><path class="cls-2" d="M206,387.85C206,371.94,217.92,362,231,362c6.59,0,12.88,2.88,16.57,7.46V340.14h10.58v72.55H247.55v-6.86a21.25,21.25,0,0,1-16.67,7.85c-12.67,0-24.85-10-24.85-25.84m42.11-.1c0-8.84-6.69-16.1-15.77-16.1a15.73,15.73,0,0,0-15.77,16.1c0,9,6.88,16.2,15.77,16.2,9.08,0,15.77-7.26,15.77-16.2"/><path class="cls-2" d="M325.86,402.16l9.58-5a14.22,14.22,0,0,0,12.77,7.25c6,0,9.08-3.08,9.08-6.56,0-4-5.79-4.87-12.07-6.16-8.48-1.79-17.26-4.57-17.26-14.81,0-7.85,7.48-15.11,19.26-15,9.28,0,16.17,3.68,20.06,9.64l-8.88,4.87a12.89,12.89,0,0,0-11.17-5.67c-5.69,0-8.58,2.78-8.58,6,0,3.58,4.59,4.57,11.78,6.16,8.18,1.79,17.46,4.47,17.46,14.81,0,6.86-6,16.1-20.16,16-10.38,0-17.66-4.17-21.85-11.53"/><polygon class="cls-2" points="396.6 390.63 388.21 399.77 388.21 412.69 377.64 412.69 377.64 340.14 388.21 340.14 388.21 387.64 410.67 363 423.54 363 404.08 384.27 424.04 412.69 412.06 412.69 396.6 390.63"/><path class="cls-2" d="M174.08,362c-12.57,0-23.1,8.15-23.1,21.67v29h10.78V385c0-8.15,4.69-13,12.67-13s12,4.88,12,13v27.68h10.78v-29c0-13.52-10.53-21.67-23.1-21.67"/></svg>