<svg id="logo_lockups" data-name="logo lockups" xmlns="http://www.w3.org/2000/svg" viewBox="0 0 550 200"><defs><style>.cls-1{fill:#37b8af;}.cls-2{fill:#00363d;}</style></defs><title>msg_horizontal</title><circle class="cls-1" cx="288.07" cy="53.82" r="19.48"/><circle class="cls-2" cx="253.83" cy="32.64" r="11.38"/><path class="cls-2" d="M182.82,160.92a11.12,11.12,0,0,0,7.9-3.07l3.92,4.22c-2.59,2.66-6.17,4.63-11.75,4.63-9.56,0-15.73-6.34-15.73-14.92A14.63,14.63,0,0,1,182,136.86c9.49,0,14.87,7.22,14.4,17.24H174c.8,4.16,3.72,6.81,8.83,6.81m6.84-11.58c-.6-3.88-2.92-6.74-7.57-6.74a7.71,7.71,0,0,0-8.1,6.74Z"/><polygon class="cls-2" points="35.53 160.61 52.79 143.07 35.93 143.07 35.93 137.56 60.79 137.56 60.79 143.18 43.53 160.72 61.02 160.72 61.02 166.22 35.53 166.22 35.53 160.61"/><path class="cls-2" d="M80.41,160.92a11.12,11.12,0,0,0,7.9-3.07l3.92,4.22c-2.59,2.66-6.17,4.63-11.75,4.63-9.56,0-15.73-6.34-15.73-14.92a14.63,14.63,0,0,1,14.87-14.92c9.49,0,14.87,7.22,14.4,17.24H71.58c.8,4.16,3.72,6.81,8.83,6.81m6.84-11.58c-.6-3.88-2.92-6.74-7.57-6.74a7.71,7.71,0,0,0-8.1,6.74Z"/><path class="cls-2" d="M131.29,151.8c0-9.17,6.85-14.9,14.39-14.9a12.41,12.41,0,0,1,9.55,4.3V124.29h6.1v41.85h-6.1v-4a12.26,12.26,0,0,1-9.61,4.53,14.45,14.45,0,0,1-14.33-14.9m24.29-.06a9.1,9.1,0,1,0-9.09,9.34,9.07,9.07,0,0,0,9.09-9.34"/><path class="cls-2" d="M200.4,160.06l5.52-2.87a8.2,8.2,0,0,0,7.37,4.18c3.45,0,5.24-1.77,5.24-3.78,0-2.29-3.34-2.81-7-3.55-4.89-1-10-2.64-10-8.54,0-4.53,4.31-8.71,11.11-8.66,5.35,0,9.32,2.12,11.57,5.56l-5.12,2.81a7.43,7.43,0,0,0-6.45-3.27c-3.28,0-4.95,1.61-4.95,3.44,0,2.06,2.65,2.64,6.79,3.55,4.72,1,10.07,2.58,10.07,8.54,0,4-3.45,9.29-11.63,9.23-6,0-10.19-2.41-12.6-6.65"/><polygon class="cls-2" points="241.2 153.41 236.36 158.68 236.36 166.13 230.26 166.13 230.26 124.29 236.36 124.29 236.36 151.69 249.31 137.47 256.74 137.47 245.51 149.74 257.03 166.13 250.12 166.13 241.2 153.41"/><path class="cls-2" d="M112.86,136.9c-7.25,0-13.32,4.7-13.32,12.5v16.74h6.22v-16c0-4.7,2.7-7.51,7.31-7.51s6.91,2.81,6.91,7.51v16h6.22V149.39c0-7.8-6.07-12.5-13.32-12.5"/><path class="cls-2" d="M276.16,137.46h6.07v3.44a10,10,0,0,1,8.42-4c4.58,0,7.79,1.95,9.45,5.15a11.1,11.1,0,0,1,9.68-5.15c7.79,0,11.86,4.7,11.86,12V166.1h-6.24V149.32c0-4.3-2.35-7.1-6.64-7.1-3.84,0-6.82,2.63-6.82,7.73V166.1h-6.19V149c0-4.18-2.35-6.82-6.47-6.82s-7,2.69-7,8V166.1h-6.13Z"/><path class="cls-2" d="M325.76,151.9a14.75,14.75,0,0,1,14.89-15c8.48,0,14.72,6.13,14.72,14.61v2.41H331.66c.8,4.41,4.24,7.33,9.22,7.33a9,9,0,0,0,8.36-5.16l5,2.81a14.47,14.47,0,0,1-13.4,7.79C331.83,166.67,325.76,160.2,325.76,151.9Zm6.19-3.21h17.18c-.92-4.12-4.07-6.42-8.48-6.42A8.9,8.9,0,0,0,331.95,148.69Z"/><path class="cls-2" d="M358.17,160.2l5.5-3a8.29,8.29,0,0,0,7.56,4.12c3.55,0,5.38-1.72,5.38-3.72,0-2.35-3.44-2.86-7.1-3.67-4.87-1-10-2.58-10-8.48,0-4.52,4.35-8.71,11.17-8.65,5.56,0,9.28,2.06,11.68,5.56l-5.16,2.81a7.33,7.33,0,0,0-6.53-3.26c-3.38,0-5,1.55-5,3.44,0,2.06,2.46,2.52,6.82,3.49,4.81,1,10.25,2.63,10.25,8.65,0,4.3-3.84,9.22-11.8,9.16C364.76,166.67,360.64,164.44,358.17,160.2Z"/><path class="cls-2" d="M386,160.2l5.5-3a8.29,8.29,0,0,0,7.56,4.12c3.55,0,5.38-1.72,5.38-3.72,0-2.35-3.44-2.86-7.1-3.67-4.87-1-10-2.58-10-8.48,0-4.52,4.35-8.71,11.17-8.65,5.56,0,9.28,2.06,11.68,5.56L405,145.19a7.33,7.33,0,0,0-6.53-3.26c-3.38,0-5,1.55-5,3.44,0,2.06,2.46,2.52,6.82,3.49,4.81,1,10.25,2.63,10.25,8.65,0,4.3-3.84,9.22-11.8,9.16C392.54,166.67,388.42,164.44,386,160.2Z"/><path class="cls-2" d="M414.18,151.78c0-9.16,6.82-14.89,14.32-14.89a12.33,12.33,0,0,1,9.51,4.3v-3.72h6.13V166.1H438v-4a12.18,12.18,0,0,1-9.57,4.53C421.17,166.67,414.18,160.89,414.18,151.78Zm24.17-.06a9.05,9.05,0,1,0-9,9.34A9,9,0,0,0,438.35,151.72Z"/><path class="cls-2" d="M449.56,151.78c0-9.16,6.82-14.89,14.32-14.89a12.19,12.19,0,0,1,9.51,4.47v-3.89h6.13v28c0,8.42-5.27,14.61-14.43,14.61-7.16,0-12-3.44-14.21-8.08l5.67-2.69c1.43,3.15,4.18,5.16,8.53,5.16,5.21,0,8.36-3.84,8.36-8.76V162a12.22,12.22,0,0,1-9.62,4.64C456.55,166.67,449.56,160.89,449.56,151.78Zm24.17-.06a9.05,9.05,0,1,0-9,9.34A9,9,0,0,0,473.73,151.72Z"/><path class="cls-2" d="M484.86,151.9a14.75,14.75,0,0,1,14.89-15c8.48,0,14.72,6.13,14.72,14.61v2.41H490.76c.8,4.41,4.24,7.33,9.22,7.33a9,9,0,0,0,8.36-5.16l5,2.81a14.47,14.47,0,0,1-13.4,7.79C490.93,166.67,484.86,160.2,484.86,151.9Zm6.19-3.21h17.18c-.92-4.12-4.07-6.42-8.48-6.42A8.9,8.9,0,0,0,491,148.69Z"/></svg>