<svg id="logo_lockups" data-name="logo lockups" xmlns="http://www.w3.org/2000/svg" viewBox="0 0 550 100"><defs><style>.cls-1{fill:#00363d;}</style></defs><title>talk_wordmark</title><path class="cls-1" d="M254.47,65.42a11.12,11.12,0,0,0,7.9-3.07l3.92,4.22c-2.59,2.66-6.17,4.63-11.75,4.63-9.56,0-15.73-6.34-15.73-14.92a14.63,14.63,0,0,1,14.87-14.92c9.49,0,14.87,7.22,14.4,17.24H245.64c.8,4.16,3.72,6.81,8.83,6.81m6.84-11.58c-.6-3.88-2.92-6.74-7.57-6.74a7.71,7.71,0,0,0-8.1,6.74Z"/><polygon class="cls-1" points="107.17 65.11 124.44 47.57 107.58 47.57 107.58 42.06 132.44 42.06 132.44 47.68 115.17 65.22 132.67 65.22 132.67 70.72 107.17 70.72 107.17 65.11"/><path class="cls-1" d="M152.06,65.42a11.12,11.12,0,0,0,7.9-3.07l3.92,4.22c-2.59,2.66-6.17,4.63-11.75,4.63-9.56,0-15.73-6.34-15.73-14.92a14.63,14.63,0,0,1,14.87-14.92c9.49,0,14.87,7.22,14.4,17.24H143.23c.8,4.16,3.72,6.81,8.83,6.81m6.84-11.58c-.6-3.88-2.92-6.74-7.57-6.74a7.71,7.71,0,0,0-8.1,6.74Z"/><path class="cls-1" d="M202.94,56.31c0-9.17,6.85-14.9,14.39-14.9a12.41,12.41,0,0,1,9.55,4.3V28.79H233V70.64h-6.1v-4a12.26,12.26,0,0,1-9.61,4.53,14.45,14.45,0,0,1-14.33-14.9m24.29-.06a9.1,9.1,0,1,0-9.09,9.34,9.07,9.07,0,0,0,9.09-9.34"/><path class="cls-1" d="M272,64.56l5.52-2.87a8.2,8.2,0,0,0,7.37,4.18c3.45,0,5.24-1.77,5.24-3.78,0-2.29-3.34-2.81-7-3.55-4.89-1-10-2.64-10-8.54,0-4.53,4.31-8.71,11.11-8.66,5.35,0,9.32,2.12,11.57,5.56l-5.12,2.81a7.43,7.43,0,0,0-6.45-3.27c-3.28,0-4.95,1.61-4.95,3.44,0,2.06,2.65,2.64,6.79,3.55,4.72,1,10.07,2.58,10.07,8.54,0,4-3.45,9.29-11.63,9.23-6,0-10.19-2.41-12.6-6.65"/><polygon class="cls-1" points="312.85 57.91 308.01 63.19 308.01 70.64 301.91 70.64 301.91 28.79 308.01 28.79 308.01 56.19 320.96 41.98 328.39 41.98 317.16 54.24 328.67 70.64 321.77 70.64 312.85 57.91"/><path class="cls-1" d="M184.5,41.4c-7.25,0-13.32,4.7-13.32,12.5V70.64h6.22v-16c0-4.7,2.7-7.51,7.31-7.51s6.91,2.81,6.91,7.51v16h6.22V53.89c0-7.8-6.07-12.5-13.32-12.5"/><path class="cls-1" d="M346.6,42h4.87V35.2l6.19-3.38V42h6.07v5.5h-6.07v11.4c0,5.16.8,6,6.07,6V70.6h-.92c-8.71,0-11.34-2.75-11.34-11.68V47.46H346.6Z"/><path class="cls-1" d="M366.76,56.28c0-9.16,6.82-14.89,14.32-14.89a12.33,12.33,0,0,1,9.51,4.3V42h6.13V70.6h-6.13v-4A12.18,12.18,0,0,1,381,71.18C373.75,71.18,366.76,65.39,366.76,56.28Zm24.17-.06a9.05,9.05,0,1,0-9,9.34A9,9,0,0,0,390.93,56.23Z"/><path class="cls-1" d="M403.41,28.79h6.13V70.6h-6.13Z"/><path class="cls-1" d="M427.08,57.89l-4.81,5.27V70.6h-6.07V28.79h6.07V56.17L435.15,42h7.39L431.37,54.22,442.83,70.6H436Z"/></svg>