<svg id="logo_lockups" data-name="logo lockups" xmlns="http://www.w3.org/2000/svg" viewBox="0 0 550 200"><defs><style>.cls-1{fill:#00363d;}.cls-2{fill:#f0ca28;}</style></defs><title>talk_horizontal</title><path class="cls-1" d="M258.71,21.26c-9,0-16.27,8.29-16.28,16.26H275C275,29.55,267.7,21.26,258.71,21.26Z"/><path class="cls-2" d="M279.92,73.34c15.26,0,27.62-10.76,27.64-27.61H252.28C252.3,62.58,264.67,73.34,279.92,73.34Z"/><path class="cls-1" d="M254.47,160.07a11.12,11.12,0,0,0,7.9-3.07l3.92,4.22c-2.59,2.66-6.17,4.63-11.75,4.63-9.56,0-15.73-6.34-15.73-14.92A14.63,14.63,0,0,1,253.67,136c9.49,0,14.87,7.22,14.4,17.24H245.64c.8,4.16,3.72,6.81,8.83,6.81m6.84-11.58c-.6-3.88-2.92-6.74-7.57-6.74a7.71,7.71,0,0,0-8.1,6.74Z"/><polygon class="cls-1" points="107.17 159.75 124.44 142.22 107.58 142.22 107.58 136.71 132.44 136.71 132.44 142.33 115.17 159.87 132.67 159.87 132.67 165.37 107.17 165.37 107.17 159.75"/><path class="cls-1" d="M152.06,160.07A11.12,11.12,0,0,0,160,157l3.92,4.22c-2.59,2.66-6.17,4.63-11.75,4.63-9.56,0-15.73-6.34-15.73-14.92A14.63,14.63,0,0,1,151.26,136c9.49,0,14.87,7.22,14.4,17.24H143.23c.8,4.16,3.72,6.81,8.83,6.81m6.84-11.58c-.6-3.88-2.92-6.74-7.57-6.74a7.71,7.71,0,0,0-8.1,6.74Z"/><path class="cls-1" d="M202.94,151c0-9.17,6.85-14.9,14.39-14.9a12.41,12.41,0,0,1,9.55,4.3V123.44H233v41.85h-6.1v-4a12.26,12.26,0,0,1-9.61,4.53A14.45,14.45,0,0,1,202.94,151m24.29-.06a9.1,9.1,0,1,0-9.09,9.34,9.07,9.07,0,0,0,9.09-9.34"/><path class="cls-1" d="M272,159.21l5.52-2.87a8.2,8.2,0,0,0,7.37,4.18c3.45,0,5.24-1.77,5.24-3.78,0-2.29-3.34-2.81-7-3.55-4.89-1-10-2.64-10-8.54,0-4.53,4.31-8.71,11.11-8.66,5.35,0,9.32,2.12,11.57,5.56l-5.12,2.81a7.43,7.43,0,0,0-6.45-3.27c-3.28,0-4.95,1.61-4.95,3.44,0,2.06,2.65,2.64,6.79,3.55,4.72,1,10.07,2.58,10.07,8.54,0,4-3.45,9.29-11.63,9.23-6,0-10.19-2.41-12.6-6.65"/><polygon class="cls-1" points="312.85 152.56 308.01 157.83 308.01 165.28 301.91 165.28 301.91 123.44 308.01 123.44 308.01 150.84 320.96 136.62 328.39 136.62 317.16 148.89 328.67 165.28 321.77 165.28 312.85 152.56"/><path class="cls-1" d="M184.5,136c-7.25,0-13.32,4.7-13.32,12.5v16.74h6.22v-16c0-4.7,2.7-7.51,7.31-7.51s6.91,2.81,6.91,7.51v16h6.22V148.54c0-7.8-6.07-12.5-13.32-12.5"/><path class="cls-1" d="M346.6,136.61h4.87v-6.76l6.19-3.38v10.14h6.07v5.5h-6.07v11.4c0,5.16.8,6,6.07,6v5.79h-.92c-8.71,0-11.34-2.75-11.34-11.68V142.11H346.6Z"/><path class="cls-1" d="M366.76,150.93c0-9.16,6.82-14.89,14.32-14.89a12.33,12.33,0,0,1,9.51,4.3v-3.72h6.13v28.64h-6.13v-4a12.18,12.18,0,0,1-9.57,4.53C373.75,165.82,366.76,160,366.76,150.93Zm24.17-.06a9.05,9.05,0,1,0-9,9.34A9,9,0,0,0,390.93,150.87Z"/><path class="cls-1" d="M403.41,123.44h6.13v41.81h-6.13Z"/><path class="cls-1" d="M427.08,152.53l-4.81,5.27v7.45h-6.07V123.44h6.07v27.38l12.89-14.21h7.39l-11.17,12.26,11.46,16.38H436Z"/></svg>