<svg id="logo_lockups" data-name="logo lockups" xmlns="http://www.w3.org/2000/svg" viewBox="0 0 580 580"><defs><style>.cls-1{fill:#00363d;}.cls-2{fill:#f0ca28;}</style></defs><title>talk_zendesk vertical</title><path class="cls-1" d="M110.57,32C71.62,32,40,67.94,40,102.48H181.14C181.09,67.94,149.51,32,110.57,32Z"/><path class="cls-2" d="M202.51,257.74c66.12,0,119.74-46.63,119.82-119.67H82.69C82.78,211.11,136.39,257.74,202.51,257.74Z"/><path class="cls-1" d="M40,456h8.44V444.26l10.73-5.86V456H69.69v9.53H59.17v19.76c0,8.94,1.39,10.33,10.53,10.33v10H68.1c-15.1,0-19.66-4.77-19.66-20.26V465.51H40Z"/><path class="cls-1" d="M75,480.81C75,464.92,86.77,455,99.78,455a21.38,21.38,0,0,1,16.49,7.45V456h10.63v49.65H116.27v-6.85a21.12,21.12,0,0,1-16.58,7.85C87.07,506.63,75,496.6,75,480.81Zm41.91-.1c0-8.84-6.65-16.09-15.69-16.09-8.84,0-15.69,7.05-15.69,16.09s6.85,16.19,15.69,16.19C110.21,496.89,116.86,489.64,116.86,480.71Z"/><path class="cls-1" d="M138.49,433.14h10.63v72.5H138.49Z"/><path class="cls-1" d="M179.53,483.59l-8.34,9.14v12.91H160.66v-72.5h10.53v47.47L193.53,456h12.81L187,477.23l19.86,28.4H194.92Z"/><path class="cls-1" d="M295.38,403.85a19.27,19.27,0,0,0,13.69-5.32l6.79,7.32c-4.49,4.61-10.7,8-20.37,8-16.57,0-27.27-11-27.27-25.87A25.37,25.37,0,0,1,294,362.14c16.46,0,25.78,12.52,25,29.89H280.08c1.38,7.21,6.44,11.81,15.3,11.81m11.85-20.08c-1-6.73-5.06-11.69-13.12-11.69-7.48,0-12.66,4.25-14,11.69Z"/><polygon class="cls-1" points="40 403.31 69.94 372.9 40.7 372.9 40.7 363.36 83.81 363.36 83.81 373.1 53.87 403.5 84.21 403.5 84.21 413.05 40 413.05 40 403.31"/><path class="cls-1" d="M117.82,403.85a19.27,19.27,0,0,0,13.69-5.32l6.79,7.32c-4.49,4.61-10.7,8-20.37,8-16.57,0-27.27-11-27.27-25.87a25.37,25.37,0,0,1,25.77-25.87c16.46,0,25.78,12.52,25,29.89H102.52c1.38,7.21,6.44,11.81,15.3,11.81m11.85-20.08c-1-6.73-5.06-11.69-13.12-11.69-7.48,0-12.66,4.25-14,11.69Z"/><path class="cls-1" d="M206,388c0-15.9,11.87-25.84,24.95-25.84,6.59,0,12.88,2.88,16.57,7.46V340.34h10.58v72.55H247.55V406a21.25,21.25,0,0,1-16.67,7.85c-12.67,0-24.85-10-24.85-25.84m42.11-.1c0-8.84-6.69-16.1-15.77-16.1a15.73,15.73,0,0,0-15.77,16.1c0,9,6.88,16.2,15.77,16.2,9.08,0,15.77-7.26,15.77-16.2"/><path class="cls-1" d="M325.86,402.36l9.58-5a14.22,14.22,0,0,0,12.77,7.25c6,0,9.08-3.08,9.08-6.56,0-4-5.79-4.87-12.07-6.16-8.48-1.79-17.26-4.57-17.26-14.81,0-7.85,7.48-15.11,19.26-15,9.28,0,16.17,3.68,20.06,9.64l-8.88,4.87A12.89,12.89,0,0,0,347.22,371c-5.69,0-8.58,2.78-8.58,6,0,3.58,4.59,4.57,11.78,6.16,8.18,1.79,17.46,4.47,17.46,14.81,0,6.86-6,16.1-20.16,16-10.38,0-17.66-4.17-21.85-11.53"/><polygon class="cls-1" points="396.6 390.83 388.21 399.98 388.21 412.89 377.64 412.89 377.64 340.34 388.21 340.34 388.21 387.85 410.67 363.2 423.54 363.2 404.08 384.47 424.04 412.89 412.06 412.89 396.6 390.83"/><path class="cls-1" d="M174.08,362.2c-12.57,0-23.1,8.15-23.1,21.67v29h10.78V385.21c0-8.15,4.69-13,12.67-13s12,4.88,12,13v27.68h10.78v-29c0-13.52-10.53-21.67-23.1-21.67"/></svg>