<svg id="Layer_1" data-name="Layer 1" xmlns="http://www.w3.org/2000/svg" viewBox="0 0 154.2 258.53"><defs><style>.cls-1{fill:#231f20}</style></defs><title>logo</title><path class="cls-1" d="M1355.43 871.45l-6.7-55.39a1.1 1.1 0 0 1 1.55-1.13l30.25 14a1.1 1.1 0 0 0 .92 0l49.88-22.69a1.1 1.1 0 0 1 1.55 1V880a1.1 1.1 0 0 1-1.5 1l-51.18-20.49a1.1 1.1 0 0 0-.92 0L1357 872.29a1.1 1.1 0 0 1-1.57-.84z" transform="translate(-1323.47 -622.6)"/><path class="cls-1" d="M1363.76 799v13.68a1.13 1.13 0 0 0 .62 1l1.93 1a1.13 1.13 0 0 0 1.65-1v-4.48a1.13 1.13 0 0 1 .68-1l28-12.36a1.13 1.13 0 0 0-.46-2.17h-43.76a1.13 1.13 0 0 1-1.12-1l-5.46-42.55a1.13 1.13 0 0 0-1.12-1h-2.14a1.13 1.13 0 0 0-1.12 1.29l6.34 46.49a1.13 1.13 0 0 0 1.12 1h13.76a1.13 1.13 0 0 1 1.08 1.1zm-8.34-53.84h-24.89a1.12 1.12 0 0 1-1.1-.92l-5.94-32.53a1.12 1.12 0 0 1 .07-.64l.64-1.52a1.12 1.12 0 0 1 1-.68h32.57a1.11 1.11 0 0 1 .94.52l2.26 3.54a1.12 1.12 0 0 0 .94.52h5.09a1.12 1.12 0 0 0 .88-.43l2.89-3.71a1.12 1.12 0 0 1 .88-.43H1419a1.12 1.12 0 0 1 .93.49l.85 1.26a1.12 1.12 0 0 0 .46.39l38.38 17.86a1.12 1.12 0 0 1 .59 1.36l-.5 1.55a1.12 1.12 0 0 1-1.43.72L1421 718.88a1.12 1.12 0 0 0-1.5.91l-3.17 24.6a1.12 1.12 0 0 1-1.06.76h-41a1.12 1.12 0 0 1-1.07-.8l-5.38-24.78a1.12 1.12 0 0 0-1.07-.8h-4.11a1.12 1.12 0 0 0-1.1.9l-5 24.59a1.12 1.12 0 0 1-1.12.9zm-2.68-5l4.47-23.25a1.12 1.12 0 0 0-.21-.91l-1.06-1.48a1.12 1.12 0 0 0-.91-.47h-25.41a1.12 1.12 0 0 0-1.1 1.3l4 24.76a1.12 1.12 0 0 0 1.11.94h18a1.12 1.12 0 0 0 1.11-.92zm19.9-23.29l4.38 23.33a1.12 1.12 0 0 0 1.08.82h33.19a1.12 1.12 0 0 0 1.07-.79l2.57-24.56a1.12 1.12 0 0 0-1.07-1.45h-39.22a1.12 1.12 0 0 0-.9.45l-.92 1.23a1.12 1.12 0 0 0-.19.94zm93.59-7.37s5.68.41 8.24-8.42 5.92-20.13-.53-32.67-22.69-26.41-37.52-21.41-11.51 28.58-1.44 41.59 28.13 22.26 31.25 20.91zm-48.37-50.78l.08-.05c1-.52 19.08-10.67 9.5-20-14.37-14-50.67-20.39-71.66-13h-.08c-.3.12-2.2.9-4.93 2.32-10.11 5.29-31.53 19.48-24.35 42a37.64 37.64 0 0 0 9 14.11 1.47 1.47 0 0 1 .43 1l.08 18.52a1.47 1.47 0 0 0 1.47 1.46h1.46a1.46 1.46 0 0 0 1.44-1.19c.83-4.46 4-20 7.52-22.1a1.29 1.29 0 0 1 .44-.15c3.59-.51 48.68-8.95 69.6-22.92z" transform="translate(-1323.47 -622.6)"/></svg>