<?xml version="1.0" standalone="no"?>
<!DOCTYPE svg PUBLIC "-//W3C//DTD SVG 1.1//EN" "http://www.w3.org/Graphics/SVG/1.1/DTD/svg11.dtd" >
<svg>
<metadata>
Created by FontForge 20090622 at Mon Aug 28 06:18:48 2017
 By deploy user
H&#38;J Productions
</metadata>
<defs>
<font id="HJGothamMedium" horiz-adv-x="250" >
  <font-face 
    font-family="HJ Gotham Medium"
    font-weight="500"
    font-stretch="normal"
    units-per-em="1000"
    panose-1="0 0 0 0 0 0 0 0 0 0"
    ascent="750"
    descent="-250"
    x-height="528"
    cap-height="700"
    bbox="-70 -168 1180 1056"
    underline-thickness="50"
    underline-position="-50"
    unicode-range="U+0020-U+FB04"
  />
<missing-glyph 
 />
    <glyph glyph-name=".notdef" 
 />
    <glyph glyph-name=".null" horiz-adv-x="0" 
 />
    <glyph glyph-name="nonmarkingreturn" horiz-adv-x="333" 
 />
    <glyph glyph-name="space" unicode=" " 
 />
    <glyph glyph-name="exclam" unicode="!" horiz-adv-x="302" 
d="M118 221l-38 444v35h142v-35l-37 -444h-67zM85 0v137h133v-137h-133z" />
    <glyph glyph-name="quotedbl" unicode="&#x22;" horiz-adv-x="487" 
d="M279 401l24 299h137v-5l-98 -294h-63zM60 401l23 299h137v-5l-97 -294h-63z" />
    <glyph glyph-name="numbersign" unicode="#" horiz-adv-x="700" 
d="M101 0l28 161h-90v104h108l29 174h-100v104h118l27 157h107l-27 -157h164l26 157h107l-27 -157h89v-104h-107l-29 -174h100v-104h-118l-28 -161h-107l28 161h-164l-27 -161h-107zM253 265h164l30 174h-164z" />
    <glyph glyph-name="dollar" unicode="$" horiz-adv-x="642" 
d="M285 -98v100q-134 17 -236 99l64 91q86 -71 176 -86v196q-113 28 -163.5 75.5t-50.5 129.5v2q0 80 57.5 131.5t152.5 59.5v58h87v-60q101 -12 188 -76l-56 -94q-63 49 -136 64v-190q114 -29 165.5 -77.5t51.5 -128.5v-2q0 -80 -58.5 -132.5t-154.5 -60.5v-99h-87z
M289 423v176q-47 -4 -71.5 -26.5t-24.5 -56.5v-2q0 -33 20.5 -54t75.5 -37zM368 283v-181q48 4 73.5 26.5t25.5 58.5v2q0 34 -21.5 55.5t-77.5 38.5z" />
    <glyph glyph-name="percent" unicode="%" horiz-adv-x="849" 
d="M212 350q-72 0 -118 51.5t-46 125.5v2q0 74 46.5 126.5t119.5 52.5q72 0 118 -51.5t46 -125.5v-2q0 -74 -46.5 -126.5t-119.5 -52.5zM119 0l512 700h99l-512 -700h-99zM635 -8q-72 0 -118 51.5t-46 125.5v2q0 74 46.5 126.5t119.5 52.5q72 0 118 -51.5t46 -125.5v-2
q0 -74 -46.5 -126.5t-119.5 -52.5zM214 427q34 0 54.5 28.5t20.5 71.5v2q0 43 -22 72.5t-55 29.5q-34 0 -54.5 -28.5t-20.5 -71.5v-2q0 -43 22 -72.5t55 -29.5zM637 69q34 0 54.5 28.5t20.5 71.5v2q0 43 -22 72.5t-55 29.5q-34 0 -54.5 -28.5t-20.5 -71.5v-2q0 -43 22 -72.5
t55 -29.5z" />
    <glyph glyph-name="ampersand" unicode="&#x26;" horiz-adv-x="696" 
d="M575 -14l-93 95q-98 -91 -215 -91q-99 0 -163.5 55t-64.5 145v2q0 132 149 196q-58 74 -58 146v2q0 73 55.5 124.5t145.5 51.5q82 0 134 -48.5t52 -120.5v-2q0 -124 -154 -182l120 -122q38 57 75 135l93 -49q-48 -96 -95 -160l110 -112zM298 425q56 21 83 46.5t27 62.5v2
q0 35 -22.5 57t-57.5 22q-38 0 -60.5 -23.5t-22.5 -60.5v-2q0 -46 53 -104zM280 92q69 0 132 61l-156 159q-93 -40 -93 -116v-2q0 -45 33 -73.5t84 -28.5z" />
    <glyph glyph-name="quotesingle" unicode="'" horiz-adv-x="269" 
d="M60 401l23 299h139v-5l-98 -294h-64z" />
    <glyph glyph-name="parenleft" unicode="(" horiz-adv-x="440" 
d="M393 -60l-53 -81q-277 151 -277 428t277 428l53 -81q-108 -71 -158.5 -154t-50.5 -193q0 -111 50.5 -194t158.5 -153z" />
    <glyph glyph-name="parenright" unicode=")" horiz-adv-x="440" 
d="M101 -141l-53 81q108 71 158.5 154t50.5 193t-50.5 192t-158.5 155l53 81q277 -153 277 -428t-277 -428z" />
    <glyph glyph-name="asterisk" unicode="*" horiz-adv-x="430" 
d="M180 382l14 122l-100 -73l-36 61l114 50l-114 50l36 61l100 -73l-14 122h70l-14 -122l100 73l36 -61l-114 -50l114 -50l-36 -61l-100 73l14 -122h-70z" />
    <glyph glyph-name="plus" unicode="+" horiz-adv-x="640" 
d="M263 106v191h-192v110h192v191h114v-191h192v-110h-192v-191h-114z" />
    <glyph glyph-name="comma" unicode="," horiz-adv-x="269" 
d="M47 -145l-13 51q92 18 85 94h-51v137h133v-116q0 -82 -38 -121t-116 -45z" />
    <glyph glyph-name="hyphen" unicode="-" horiz-adv-x="408" 
d="M56 247v119h296v-119h-296z" />
    <glyph glyph-name="period" unicode="." horiz-adv-x="269" 
d="M68 0v137h133v-137h-133z" />
    <glyph glyph-name="slash" unicode="/" horiz-adv-x="521" 
d="M-25 -128l452 926h105l-452 -926h-105z" />
    <glyph glyph-name="zero" unicode="0" horiz-adv-x="724" 
d="M361 -12q-135 0 -219.5 103.5t-84.5 256.5v2q0 153 85.5 257.5t220.5 104.5t219.5 -103.5t84.5 -256.5v-2q0 -153 -85.5 -257.5t-220.5 -104.5zM363 99q79 0 128 71t49 178v2q0 106 -50 178.5t-129 72.5t-128 -71t-49 -178v-2q0 -106 49.5 -178.5t129.5 -72.5z" />
    <glyph glyph-name="one" unicode="1" horiz-adv-x="396" 
d="M178 0v580l-126 -35l-26 100l188 60h86v-705h-122z" />
    <glyph glyph-name="two" unicode="2" horiz-adv-x="613" 
d="M49 0v97l241 205q74 63 102.5 103t28.5 86q0 50 -32 79.5t-81 29.5q-46 0 -82.5 -24.5t-79.5 -80.5l-87 68q54 76 112 111.5t146 35.5q102 0 166.5 -58t64.5 -151v-2q0 -78 -39.5 -132t-142.5 -139l-144 -120h333v-108h-506z" />
    <glyph glyph-name="three" unicode="3" horiz-adv-x="618" 
d="M311 -12q-165 0 -268 123l86 80q78 -92 184 -92q52 0 86.5 29.5t34.5 76.5v2q0 51 -43 79.5t-118 28.5h-57l-20 77l189 201h-303v107h463v-92l-195 -200q90 -11 148 -59t58 -138v-2q0 -97 -68.5 -159t-176.5 -62z" />
    <glyph glyph-name="four" unicode="4" horiz-adv-x="681" 
d="M412 0v157h-353l-23 88l389 460h105v-447h100v-101h-100v-157h-118zM182 258h230v277z" />
    <glyph glyph-name="five" unicode="5" horiz-adv-x="622" 
d="M304 -12q-145 0 -257 107l76 89q90 -84 180 -84q63 0 101 33t38 88v2q0 53 -40 84.5t-105 31.5q-63 0 -129 -31l-74 49l20 343h418v-109h-312l-11 -164q55 20 111 20q107 0 175 -56.5t68 -163.5v-2q0 -107 -71 -172t-188 -65z" />
    <glyph glyph-name="six" unicode="6" horiz-adv-x="656" 
d="M337 -12q-122 0 -195 73q-85 85 -85 268v2q0 167 78.5 274t221.5 107q117 0 214 -78l-66 -95q-77 61 -152 61q-76 0 -120 -61.5t-48 -160.5q36 33 73.5 51.5t93.5 18.5q106 0 175.5 -59t69.5 -161v-2q0 -104 -74.5 -171t-185.5 -67zM334 94q64 0 102 36t38 91v2
q0 54 -39 88t-104 34q-64 0 -103 -35.5t-39 -87.5v-2q0 -55 40 -90.5t105 -35.5z" />
    <glyph glyph-name="seven" unicode="7" horiz-adv-x="609" 
d="M106 0l314 592h-352v108h492v-93l-316 -607h-138z" />
    <glyph glyph-name="eight" unicode="8" horiz-adv-x="630" 
d="M315 -10q-116 0 -191.5 55.5t-75.5 144.5v2q0 119 126 171q-102 53 -102 156v2q0 81 69 135t174 54t174 -54t69 -135v-2q0 -103 -102 -156q126 -58 126 -168v-2q0 -92 -75 -147.5t-192 -55.5zM315 404q54 0 89.5 29t35.5 74v2q0 42 -34.5 70t-90.5 28t-90.5 -28
t-34.5 -69v-2q0 -46 35.5 -75t89.5 -29zM315 93q67 0 107 30t40 75v2q0 47 -42 76.5t-105 29.5t-105 -29.5t-42 -76.5v-2q0 -44 40 -74.5t107 -30.5z" />
    <glyph glyph-name="nine" unicode="9" horiz-adv-x="656" 
d="M299 -12q-121 0 -224 84l67 94q78 -66 160 -66q76 0 120.5 60.5t48.5 159.5q-60 -74 -164 -74q-112 0 -180 60.5t-68 161.5v2q0 104 73 173t188 69q120 0 194 -74q85 -85 85 -267v-2q0 -171 -80.5 -276t-219.5 -105zM325 349q65 0 103.5 36.5t38.5 89.5v2q0 56 -40 92.5
t-106 36.5q-64 0 -101.5 -37t-37.5 -93v-2q0 -55 39 -90t104 -35z" />
    <glyph glyph-name="colon" unicode=":" horiz-adv-x="279" 
d="M73 391v137h133v-137h-133zM73 0v137h133v-137h-133z" />
    <glyph glyph-name="semicolon" unicode=";" horiz-adv-x="279" 
d="M73 391v137h133v-137h-133zM52 -145l-13 51q92 18 85 94h-51v137h133v-116q0 -82 -38 -121t-116 -45z" />
    <glyph glyph-name="less" unicode="&#x3c;" horiz-adv-x="640" 
d="M547 77l-477 221v108l477 221v-115l-357 -159l357 -160v-116z" />
    <glyph glyph-name="equal" unicode="=" horiz-adv-x="640" 
d="M86 421v112h468v-112h-468zM86 171v112h468v-112h-468z" />
    <glyph glyph-name="greater" unicode="&#x3e;" horiz-adv-x="640" 
d="M93 77v115l357 159l-357 160v116l477 -221v-108z" />
    <glyph glyph-name="question" unicode="?" horiz-adv-x="541" 
d="M207 221l-20 162l5 5q185 7 185 112v2q0 43 -31 69t-84 26q-89 0 -163 -79l-75 80q98 111 241 111q106 0 170 -55t64 -148v-2q0 -88 -55 -137t-146 -65l-10 -81h-81zM178 0v137h134v-137h-134z" />
    <glyph glyph-name="at" unicode="@" horiz-adv-x="980" 
d="M499 -162q-190 0 -318 127.5t-128 308.5q0 180 127.5 309t310.5 129q90 0 171.5 -33t139 -87.5t91.5 -126.5t34 -149q0 -120 -55.5 -184.5t-138.5 -64.5q-104 0 -148 70q-68 -70 -155 -70q-77 0 -129 52.5t-52 136.5q0 104 69 177t158 73q91 0 141 -74l12 60l97 -15
l-44 -252q-5 -32 -5 -43q0 -33 21 -52t57 -19q57 0 94.5 53.5t37.5 151.5q0 142 -115 250t-281 108q-169 0 -283.5 -116.5t-114.5 -283.5q0 -168 115 -283t291 -115q131 0 247 67l18 -30q-123 -75 -265 -75zM457 154q55 0 96.5 47t41.5 111q0 48 -30 78t-75 30
q-56 0 -97.5 -45.5t-41.5 -112.5q0 -51 29 -79.5t77 -28.5z" />
    <glyph glyph-name="A" unicode="A" horiz-adv-x="790" 
d="M30 0l308 705h114l308 -705h-130l-71 169h-331l-72 -169h-126zM273 278h241l-121 280z" />
    <glyph glyph-name="B" unicode="B" horiz-adv-x="722" 
d="M90 0v700h314q121 0 183 -62q47 -47 47 -116v-2q0 -104 -100 -156q68 -24 103.5 -63t35.5 -107v-2q0 -92 -70 -142t-189 -50h-324zM211 405h168q62 0 97 24t35 71v2q0 42 -31.5 65.5t-91.5 23.5h-177v-186zM211 109h204q64 0 99.5 24.5t35.5 71.5v2q0 94 -144 94h-195
v-192z" />
    <glyph glyph-name="C" unicode="C" horiz-adv-x="738" 
d="M415 -12q-152 0 -254 104t-102 256v2q0 152 102 257t259 105q160 0 274 -109l-79 -91q-94 87 -196 87q-99 0 -165 -72t-66 -175v-2q0 -104 66 -176.5t165 -72.5q60 0 106 22.5t95 68.5l79 -80q-57 -61 -124 -92.5t-160 -31.5z" />
    <glyph glyph-name="D" unicode="D" horiz-adv-x="782" 
d="M90 0v700h261q163 0 267.5 -99.5t104.5 -248.5v-2q0 -150 -104.5 -250t-267.5 -100h-261zM213 112h138q109 0 176 66t67 170v2q0 104 -67 171t-176 67h-138v-476z" />
    <glyph glyph-name="E" unicode="E" horiz-adv-x="670" 
d="M90 0v700h519v-110h-396v-182h351v-110h-351v-188h401v-110h-524z" />
    <glyph glyph-name="F" unicode="F" horiz-adv-x="656" 
d="M90 0v700h521v-112h-398v-191h353v-112h-353v-285h-123z" />
    <glyph glyph-name="G" unicode="G" horiz-adv-x="784" 
d="M422 -12q-162 0 -262.5 102.5t-100.5 257.5v2q0 150 102.5 256t258.5 106q87 0 149.5 -23.5t119.5 -71.5l-78 -93q-44 38 -88.5 56.5t-107.5 18.5q-95 0 -161 -73t-66 -174v-2q0 -109 66 -179.5t172 -70.5q98 0 169 53v131h-179v107h298v-294q-129 -109 -292 -109z" />
    <glyph glyph-name="H" unicode="H" horiz-adv-x="760" 
d="M90 0v700h123v-291h334v291h123v-700h-123v295h-334v-295h-123z" />
    <glyph glyph-name="I" unicode="I" horiz-adv-x="317" 
d="M97 0v700h123v-700h-123z" />
    <glyph glyph-name="J" unicode="J" horiz-adv-x="559" 
d="M245 -10q-141 0 -224 113l81 83q33 -42 65.5 -62t75.5 -20q52 0 81.5 34.5t29.5 102.5v459h126v-462q0 -121 -65 -186q-62 -62 -170 -62z" />
    <glyph glyph-name="K" unicode="K" horiz-adv-x="725" 
d="M90 0v700h123v-352l333 352h151l-291 -301l304 -399h-149l-239 315l-109 -112v-203h-123z" />
    <glyph glyph-name="L" unicode="L" horiz-adv-x="619" 
d="M90 0v700h123v-588h368v-112h-491z" />
    <glyph glyph-name="M" unicode="M" horiz-adv-x="868" 
d="M90 0v700h131l213 -331l213 331h131v-700h-123v502l-221 -330h-4l-219 328v-500h-121z" />
    <glyph glyph-name="N" unicode="N" horiz-adv-x="790" 
d="M90 0v700h114l375 -484v484h121v-700h-103l-386 498v-498h-121z" />
    <glyph glyph-name="O" unicode="O" horiz-adv-x="850" 
d="M424 -12q-159 0 -262 105t-103 255v2q0 150 104.5 256t262.5 106q159 0 262 -105t103 -255v-2q0 -150 -104.5 -256t-262.5 -106zM426 101q103 0 169.5 71.5t66.5 175.5v2q0 104 -67.5 176.5t-170.5 72.5t-169.5 -71.5t-66.5 -175.5v-2q0 -104 67.5 -176.5t170.5 -72.5z
" />
    <glyph glyph-name="P" unicode="P" horiz-adv-x="668" 
d="M90 0v700h276q122 0 194 -64t72 -170v-2q0 -113 -79.5 -176t-200.5 -63h-139v-225h-123zM213 336h143q69 0 110 35t41 90v2q0 61 -40 93t-111 32h-143v-252z" />
    <glyph glyph-name="Q" unicode="Q" horiz-adv-x="850" 
d="M721 -21l-84 75q-92 -66 -213 -66q-159 0 -262 105t-103 255v2q0 150 104.5 256t262.5 106q159 0 262 -105t103 -255v-2q0 -123 -71 -215l80 -68zM426 101q67 0 120 34l-120 102l79 90l121 -110q36 55 36 131v2q0 104 -67.5 176.5t-170.5 72.5t-169.5 -71.5t-66.5 -175.5
v-2q0 -104 67.5 -176.5t170.5 -72.5z" />
    <glyph glyph-name="R" unicode="R" horiz-adv-x="723" 
d="M90 0v700h312q134 0 202 -70q58 -58 58 -151v-2q0 -83 -45.5 -137.5t-121.5 -74.5l189 -265h-145l-172 244h-2h-152v-244h-123zM213 353h180q66 0 105 31.5t39 85.5v2q0 57 -37.5 86.5t-107.5 29.5h-179v-235z" />
    <glyph glyph-name="S" unicode="S" horiz-adv-x="640" 
d="M335 -10q-168 0 -292 112l74 88q105 -91 221 -91q57 0 90.5 24t33.5 64v2q0 39 -32 62t-126 45q-121 28 -177 73t-56 136v2q0 90 67 146.5t172 56.5q143 0 254 -88l-66 -93q-98 72 -190 72q-53 0 -83.5 -23.5t-30.5 -59.5v-2q0 -41 33 -63t133 -47q117 -29 171 -75
t54 -130v-2q0 -97 -69 -153t-181 -56z" />
    <glyph glyph-name="T" unicode="T" horiz-adv-x="648" 
d="M262 0v586h-222v114h568v-114h-222v-586h-124z" />
    <glyph glyph-name="U" unicode="U" horiz-adv-x="757" 
d="M377 -11q-139 0 -218.5 79.5t-79.5 228.5v403h123v-398q0 -97 46.5 -148.5t130.5 -51.5q83 0 129.5 50t46.5 145v403h123v-397q0 -153 -80 -233.5t-221 -80.5z" />
    <glyph glyph-name="V" unicode="V" horiz-adv-x="750" 
d="M321 -5l-291 705h136l211 -538l210 538h133l-291 -705h-108z" />
    <glyph glyph-name="W" unicode="W" horiz-adv-x="1116" 
d="M280 -5l-244 705h133l167 -519l172 521h104l172 -521l167 519h129l-244 -705h-106l-172 503l-172 -503h-106z" />
    <glyph glyph-name="X" unicode="X" horiz-adv-x="729" 
d="M37 0l255 356l-245 344h145l174 -251l175 251h141l-244 -342l254 -358h-145l-184 265l-185 -265h-141z" />
    <glyph glyph-name="Y" unicode="Y" horiz-adv-x="716" 
d="M296 0v276l-278 424h145l196 -310l198 310h141l-278 -421v-279h-124z" />
    <glyph glyph-name="Z" unicode="Z" horiz-adv-x="702" 
d="M65 0v91l413 500h-400v109h560v-91l-413 -500h413v-109h-573z" />
    <glyph glyph-name="bracketleft" unicode="[" horiz-adv-x="454" 
d="M88 -130v830h307v-95h-192v-640h192v-95h-307z" />
    <glyph glyph-name="backslash" unicode="\" horiz-adv-x="521" 
d="M441 -128l-452 926h105l452 -926h-105z" />
    <glyph glyph-name="bracketright" unicode="]" horiz-adv-x="454" 
d="M59 -130v95h192v640h-192v95h308v-830h-308z" />
    <glyph glyph-name="asciicircum" unicode="^" horiz-adv-x="500" 
d="M56 493l151 208h86l151 -208h-93l-102 132l-102 -132h-91z" />
    <glyph glyph-name="underscore" unicode="_" horiz-adv-x="600" 
d="M-2 -160v94h604v-94h-604z" />
    <glyph glyph-name="grave" unicode="`" horiz-adv-x="500" 
d="M246 595l-122 115l110 49l106 -164h-94z" />
    <glyph glyph-name="a" unicode="a" horiz-adv-x="587" 
d="M519 0h-120v65q-64 -76 -171 -76q-79 0 -133.5 43t-54.5 120v2q0 85 58.5 129t155.5 44q77 0 146 -22v10q0 55 -33.5 84t-96.5 29q-72 0 -151 -33l-33 97q96 44 201 44q116 0 174 -57.5t58 -165.5v-313zM402 191v30q-54 21 -121 21q-57 0 -89 -22t-32 -60v-2
q0 -37 28.5 -57.5t73.5 -20.5q61 0 100.5 30.5t39.5 80.5z" />
    <glyph glyph-name="b" unicode="b" horiz-adv-x="670" 
d="M376 -11q-109 0 -179 93v-82h-121v730h121v-290q69 99 179 99q99 0 172.5 -74t73.5 -200v-2q0 -126 -73 -200t-173 -74zM348 94q64 0 107.5 46.5t43.5 122.5v2q0 75 -43.5 122t-107.5 47t-109 -47.5t-45 -121.5v-2q0 -75 45 -122t109 -47z" />
    <glyph glyph-name="c" unicode="c" horiz-adv-x="571" 
d="M320 -12q-117 0 -195 79.5t-78 193.5v2q0 114 78.5 195t195.5 81q130 0 211 -91l-75 -81q-63 66 -137 66q-65 0 -108.5 -49t-43.5 -119v-2q0 -71 44.5 -120.5t113.5 -49.5q71 0 137 66l73 -72q-43 -48 -93 -73.5t-123 -25.5z" />
    <glyph glyph-name="d" unicode="d" horiz-adv-x="670" 
d="M294 -11q-99 0 -172 74t-73 200v2q0 126 72.5 200t172.5 74q106 0 180 -93v284h121v-730h-121v88q-70 -99 -180 -99zM323 94q63 0 108 47.5t45 121.5v2q0 74 -45 121.5t-108 47.5q-64 0 -108 -46t-44 -123v-2q0 -75 44 -122t108 -47z" />
    <glyph glyph-name="e" unicode="e" horiz-adv-x="604" 
d="M318 -12q-116 0 -193.5 76.5t-77.5 197.5v2q0 116 73 195.5t185 79.5q120 0 186.5 -81.5t66.5 -202.5q0 -10 -2 -34h-388q10 -64 51 -99t101 -35q77 0 143 63l71 -63q-84 -99 -216 -99zM167 301h271q-6 61 -41 100t-93 39q-56 0 -92.5 -38t-44.5 -101z" />
    <glyph glyph-name="f" unicode="f" horiz-adv-x="376" 
d="M103 0v424h-67v101h67v38q0 88 43 131q42 42 119 42q51 0 98 -14v-102q-39 13 -71 13q-70 0 -70 -80v-29h140v-100h-138v-424h-121z" />
    <glyph glyph-name="g" unicode="g" horiz-adv-x="670" 
d="M311 -162q-132 0 -236 63l45 91q90 -56 188 -56q81 0 124 41t43 121v41q-75 -97 -186 -97q-98 0 -169 67.5t-71 179.5v2q0 112 71 180t169 68q110 0 185 -90v79h121v-420q0 -132 -67 -199q-71 -71 -217 -71zM321 144q64 0 109.5 41t45.5 104v2q0 64 -45.5 105t-109.5 41
t-107 -40.5t-43 -104.5v-2q0 -64 43.5 -105t106.5 -41z" />
    <glyph glyph-name="h" unicode="h" horiz-adv-x="620" 
d="M76 0v730h121v-284q63 93 165 93q89 0 138.5 -54.5t49.5 -148.5v-336h-121v300q0 62 -29.5 95.5t-83.5 33.5t-86.5 -35t-32.5 -96v-298h-121z" />
    <glyph glyph-name="i" unicode="i" horiz-adv-x="286" 
d="M78 609v115h130v-115h-130zM83 0v528h121v-528h-121z" />
    <glyph glyph-name="j" unicode="j" horiz-adv-x="286" 
d="M78 609v115h130v-115h-130zM50 -163q-26 0 -58 5v97q18 -3 34 -3q57 0 57 64v528h121v-535q0 -156 -154 -156z" />
    <glyph glyph-name="k" unicode="k" horiz-adv-x="582" 
d="M76 0v730h121v-436l219 234h147l-210 -215l217 -313h-140l-159 228l-74 -77v-151h-121z" />
    <glyph glyph-name="l" unicode="l" horiz-adv-x="286" 
d="M83 0v730h121v-730h-121z" />
    <glyph glyph-name="m" unicode="m" horiz-adv-x="950" 
d="M76 0v528h121v-80q66 91 161 91q110 0 157 -93q71 93 179 93q87 0 136 -53t49 -149v-337h-121v300q0 63 -28 96t-79 33t-82 -34.5t-31 -96.5v-298h-121v301q0 62 -28 95t-79 33q-52 0 -82.5 -35t-30.5 -97v-297h-121z" />
    <glyph glyph-name="n" unicode="n" horiz-adv-x="620" 
d="M76 0v528h121v-82q63 93 165 93q89 0 138.5 -54.5t49.5 -148.5v-336h-121v300q0 62 -29.5 95.5t-83.5 33.5t-86.5 -35t-32.5 -96v-298h-121z" />
    <glyph glyph-name="o" unicode="o" horiz-adv-x="657" 
d="M327 -12q-120 0 -200 79.5t-80 193.5v2q0 115 81 195.5t201 80.5q121 0 201 -79.5t80 -194.5v-2q0 -113 -81 -194t-202 -81zM329 93q72 0 116 48.5t44 119.5v2q0 71 -46 120.5t-116 49.5q-71 0 -115 -48.5t-44 -119.5v-2q0 -70 46 -120t115 -50z" />
    <glyph glyph-name="p" unicode="p" horiz-adv-x="670" 
d="M76 -160v688h121v-88q69 99 179 99q99 0 172.5 -74t73.5 -200v-2q0 -126 -73 -200t-173 -74q-109 0 -179 93v-242h-121zM348 94q64 0 107.5 46.5t43.5 122.5v2q0 75 -43.5 122t-107.5 47t-109 -47.5t-45 -121.5v-2q0 -75 45 -122t109 -47z" />
    <glyph glyph-name="q" unicode="q" horiz-adv-x="670" 
d="M474 -160v248q-70 -99 -180 -99q-99 0 -172 74t-73 200v2q0 126 72.5 200t172.5 74q106 0 180 -93v82h121v-688h-121zM323 94q63 0 108 47.5t45 121.5v2q0 74 -45 121.5t-108 47.5q-64 0 -108 -46t-44 -123v-2q0 -75 44 -122t108 -47z" />
    <glyph glyph-name="r" unicode="r" horiz-adv-x="413" 
d="M76 0v528h121v-119q56 135 187 129v-128h-7q-83 0 -131.5 -53.5t-48.5 -155.5v-201h-121z" />
    <glyph glyph-name="s" unicode="s" horiz-adv-x="500" 
d="M257 -10q-122 0 -224 79l54 82q86 -65 173 -65q39 0 60.5 15.5t21.5 41.5v2q0 19 -19 33.5t-38.5 21.5t-60.5 19q-36 10 -59.5 20t-50.5 27.5t-41 44.5t-14 63v2q0 73 53.5 117t134.5 44q103 0 194 -60l-48 -86q-82 50 -149 50q-35 0 -54.5 -14.5t-19.5 -38.5v-2
q0 -24 30 -40t89 -34q35 -11 59 -21.5t50.5 -28.5t40.5 -44t14 -60v-2q0 -80 -55 -123t-141 -43z" />
    <glyph glyph-name="t" unicode="t" horiz-adv-x="410" 
d="M253 -9q-152 0 -152 155v278h-67v104h67v145h121v-145h142v-104h-142v-259q0 -66 65 -66q39 0 75 18v-99q-49 -27 -109 -27z" />
    <glyph glyph-name="u" unicode="u" horiz-adv-x="620" 
d="M258 -11q-89 0 -138.5 54.5t-49.5 148.5v336h121v-300q0 -62 29.5 -95.5t83.5 -33.5t86.5 35t32.5 96v298h121v-528h-121v82q-64 -93 -165 -93z" />
    <glyph glyph-name="v" unicode="v" horiz-adv-x="595" 
d="M243 -4l-217 532h130l142 -388l143 388h127l-216 -532h-109z" />
    <glyph glyph-name="w" unicode="w" horiz-adv-x="861" 
d="M203 -4l-171 532h124l106 -362l117 364h103l118 -364l108 362h121l-173 -532h-108l-118 361l-119 -361h-108z" />
    <glyph glyph-name="x" unicode="x" horiz-adv-x="580" 
d="M30 0l194 268l-187 260h132l122 -174l122 174h129l-187 -257l195 -271h-132l-130 185l-129 -185h-129z" />
    <glyph glyph-name="y" unicode="y" horiz-adv-x="596" 
d="M184 -163q-66 0 -125 32l41 90q38 -20 71 -20q27 0 43.5 13t31.5 48l-220 528h129l150 -392l137 392h126l-210 -543q-32 -81 -71 -114.5t-103 -33.5z" />
    <glyph glyph-name="z" unicode="z" horiz-adv-x="560" 
d="M52 0v83l305 346h-294v99h448v-83l-305 -346h305v-99h-459z" />
    <glyph glyph-name="braceleft" unicode="{" horiz-adv-x="0" 
d="M437 -61l-21 -80q-129 23 -178 70.5t-49 129.5q0 7 1 35t1 37q0 60 -25.5 85t-87.5 25h-26v92h26q62 0 87.5 25t25.5 85q0 9 -1 37t-1 35q0 82 49 129.5t178 70.5l21 -80q-86 -23 -111 -51t-25 -86q0 -10 1 -36.5t1 -37.5q0 -57 -25.5 -89t-78.5 -48q54 -18 79 -49
t25 -88q0 -11 -1 -37.5t-1 -36.5q0 -58 25 -86t111 -51z" />
    <glyph glyph-name="bar" unicode="|" horiz-adv-x="331" 
d="M117 -128v926h97v-926h-97z" />
    <glyph glyph-name="braceright" unicode="}" horiz-adv-x="487" 
d="M71 -141l-21 80q86 23 111 51t25 86q0 10 -1 36.5t-1 37.5q0 57 25.5 89t78.5 48q-54 18 -79 49t-25 88q0 11 1 37.5t1 36.5q0 58 -25 86t-111 51l21 80q129 -23 178 -70.5t49 -129.5q0 -7 -1 -35t-1 -37q0 -60 25.5 -85t87.5 -25h26v-92h-26q-62 0 -87.5 -25t-25.5 -85
q0 -9 1 -37t1 -35q0 -82 -49 -129.5t-178 -70.5z" />
    <glyph glyph-name="asciitilde" unicode="~" horiz-adv-x="495" 
d="M126 229l-67 21q18 64 43 94t69 30q31 0 79 -20t64 -20q21 0 32 11t23 39l67 -20q-18 -65 -43 -95t-69 -30q-30 0 -79 20t-64 20q-21 0 -32 -11t-23 -39z" />
    <glyph glyph-name="uni00A0" unicode="&#xa0;" 
 />
    <glyph glyph-name="exclamdown" unicode="&#xa1;" horiz-adv-x="302" 
d="M85 563v137h133v-137h-133zM80 0v35l38 444h67l37 -444v-35h-142z" />
    <glyph glyph-name="cent" unicode="&#xa2;" horiz-adv-x="581" 
d="M210 -6l20 102q-79 29 -128.5 99t-49.5 158v2q0 115 78 195t195 80h9l15 76h88l-18 -89q65 -20 118 -78l-73 -78q-35 35 -69 50l-65 -326q71 1 138 65l70 -69q-89 -101 -217 -101h-6l-17 -86h-88zM255 202l63 323q-64 -2 -106 -50.5t-42 -117.5v-2q0 -51 22.5 -91.5
t62.5 -61.5z" />
    <glyph glyph-name="sterling" unicode="&#xa3;" horiz-adv-x="644" 
d="M63 0v78l79 24v176h-79v104h79v92q0 112 62 174q60 62 168 62q78 0 129.5 -29t91.5 -83l-94 -75q-29 38 -57.5 55.5t-68.5 17.5q-45 0 -73 -28q-34 -37 -34 -97v-89h249v-104h-249v-171h325v-107h-528z" />
    <glyph glyph-name="currency" unicode="&#xa4;" horiz-adv-x="720" 
d="M434 -12q-109 0 -186 64.5t-105 172.5h-91v85h77q-1 13 -1 38v2q0 35 2 45h-78v85h94q31 104 106 168t178 64q86 0 142.5 -34t101.5 -98l-93 -69q-34 47 -69 69t-85 22q-53 0 -93 -32t-61 -90h215v-85h-234q-2 -26 -2 -43v-2q0 -14 2 -40h234v-85h-216q21 -60 63 -93.5
t100 -33.5q47 0 82 23t71 72l88 -64q-95 -141 -242 -141z" />
    <glyph glyph-name="yen" unicode="&#xa5;" horiz-adv-x="686" 
d="M284 0v102h-193v89h193v73h-193v89h159l-231 347h143l183 -293l183 293h139l-232 -347h160v-89h-193v-73h193v-89h-193v-102h-118z" />
    <glyph glyph-name="section" unicode="&#xa7;" horiz-adv-x="632" 
d="M326 -10q-142 0 -231 95l69 68q78 -71 161 -71q40 0 60.5 13.5t20.5 35.5v2q0 22 -27.5 37t-104.5 33q-117 26 -166.5 59t-49.5 87v2q0 88 107 116q-55 35 -55 95v2q0 67 52 106.5t144 39.5q142 0 231 -95l-69 -68q-78 71 -161 71q-39 0 -60 -13.5t-21 -35.5v-2
q0 -22 27.5 -37.5t104.5 -32.5q117 -26 166.5 -59t49.5 -87v-2q0 -88 -107 -116q55 -33 55 -95v-2q0 -67 -52 -106.5t-144 -39.5zM388 278q34 0 55.5 15.5t21.5 38.5v2q0 22 -27 38t-90 32q-71 18 -104 18q-34 0 -55.5 -15.5t-21.5 -38.5v-2q0 -22 27 -38t90 -32
q71 -18 104 -18z" />
    <glyph glyph-name="dieresis" unicode="&#xa8;" horiz-adv-x="500" 
d="M288 595v118h123v-118h-123zM89 595v118h123v-118h-123z" />
    <glyph glyph-name="copyright" unicode="&#xa9;" horiz-adv-x="830" 
d="M414 -12q-151 0 -256 105.5t-105 254.5v2q0 148 105.5 255t257.5 107q151 0 256 -105.5t105 -254.5v-2q0 -148 -105.5 -255t-257.5 -107zM414 24q137 0 231 95.5t94 230.5v2q0 135 -93 229.5t-230 94.5t-231 -95.5t-94 -230.5v-2q0 -135 93 -229.5t230 -94.5zM419 159
q-82 0 -137 56t-55 138v2q0 82 55 139t139 57q88 0 149 -59l-47 -54q-48 45 -102 45q-50 0 -84 -37.5t-34 -89.5v-2q0 -52 34 -89.5t84 -37.5q54 0 104 47l48 -47q-63 -68 -154 -68z" />
    <glyph glyph-name="ordfeminine" unicode="&#xaa;" horiz-adv-x="390" 
d="M159 403q-44 0 -73.5 24t-29.5 66v2q0 46 32.5 69.5t87.5 23.5q40 0 76 -11v5q0 61 -70 61q-35 0 -83 -19l-19 54q55 25 111 25q64 0 97 -33q31 -31 31 -89v-172h-68v34q-35 -40 -92 -40zM53 282v58h270v-58h-270zM177 454q32 0 53.5 17t21.5 43v18q-27 11 -63 11
q-30 0 -47 -12t-17 -33v-2q0 -20 14 -31t38 -11z" />
    <glyph glyph-name="guillemotleft" unicode="&#xab;" horiz-adv-x="606" 
d="M461 41l-165 219v8l165 220l92 -47l-132 -176l132 -177zM210 41l-166 219v8l166 220l92 -47l-132 -176l132 -177z" />
    <glyph glyph-name="uni00AD" unicode="&#xad;" horiz-adv-x="408" 
d="M56 247v119h296v-119h-296z" />
    <glyph glyph-name="registered" unicode="&#xae;" horiz-adv-x="830" 
d="M414 -12q-151 0 -256 105.5t-105 254.5v2q0 148 105.5 255t257.5 107q151 0 256 -105.5t105 -254.5v-2q0 -148 -105.5 -255t-257.5 -107zM414 24q137 0 231 95.5t94 230.5v2q0 135 -93 229.5t-230 94.5t-231 -95.5t-94 -230.5v-2q0 -135 93 -229.5t230 -94.5zM269 171
v379h169q71 0 115 -41q31 -31 31 -79v-2q0 -44 -23.5 -73t-64.5 -41l102 -143h-86l-92 131h-2h-77v-131h-72zM341 365h94q35 0 55 16t20 43v2q0 59 -75 59h-94v-120z" />
    <glyph glyph-name="macron" unicode="&#xaf;" horiz-adv-x="500" 
d="M79 600v89h342v-89h-342z" />
    <glyph glyph-name="degree" unicode="&#xb0;" horiz-adv-x="471" 
d="M235 381q-66 0 -116 48.5t-50 113.5v2q0 65 50 113t116 48t116.5 -48t50.5 -113v-2q0 -65 -50.5 -113.5t-116.5 -48.5zM235 447q40 0 67.5 28.5t27.5 67.5v2q0 40 -27 67.5t-68 27.5q-40 0 -67 -28t-27 -67v-2q0 -39 27 -67.5t67 -28.5z" />
    <glyph glyph-name="acute" unicode="&#xb4;" horiz-adv-x="500" 
d="M160 595l106 164l110 -49l-122 -115h-94z" />
    <glyph glyph-name="periodcentered" unicode="&#xb7;" horiz-adv-x="557" 
d="M346 0v244h-18q-128 0 -208 59.5t-80 167.5v2q0 105 74.5 166t196.5 61h159v-700h-124z" />
    <glyph glyph-name="cedilla" unicode="&#xb8;" horiz-adv-x="269" 
d="M68 238v137h133v-137h-133z" />
    <glyph glyph-name="one.superior" unicode="&#xb9;" horiz-adv-x="500" 
d="M237 -165l-106 44l90 131h91z" />
    <glyph glyph-name="guillemotright" unicode="&#xbb;" horiz-adv-x="390" 
d="M194 402q-63 0 -106.5 43.5t-43.5 106.5v2q0 63 43.5 107t108.5 44q63 0 106.5 -43.5t43.5 -106.5v-2q0 -63 -43.5 -107t-108.5 -44zM51 282v58h288v-58h-288zM196 464q36 0 58 25.5t22 62.5v2q0 37 -23.5 63t-58.5 26q-36 0 -58 -25.5t-22 -62.5v-2q0 -37 23.5 -63
t58.5 -26z" />
    <glyph glyph-name="onequarter" unicode="&#xbc;" horiz-adv-x="606" 
d="M396 41l-92 46l132 176l-132 177l92 48l166 -220v-8zM145 41l-92 46l132 176l-132 177l92 48l165 -220v-8z" />
    <glyph glyph-name="questiondown" unicode="&#xbf;" horiz-adv-x="541" 
d="M229 563v137h134v-137h-134zM276 -9q-106 0 -170 55t-64 148v2q0 88 55 137t146 65l10 81h81l20 -162l-5 -5q-185 -7 -185 -112v-2q0 -43 31 -69t84 -26q89 0 163 79l75 -80q-98 -111 -241 -111z" />
    <glyph glyph-name="Agrave" unicode="&#xc0;" horiz-adv-x="790" 
d="M30 0l308 705h114l308 -705h-130l-71 169h-331l-72 -169h-126zM273 278h241l-121 280zM361 750l-98 92l88 39l85 -131h-75z" />
    <glyph glyph-name="Aacute" unicode="&#xc1;" horiz-adv-x="790" 
d="M30 0l308 705h114l308 -705h-130l-71 169h-331l-72 -169h-126zM273 278h241l-121 280zM352 750l85 131l88 -39l-98 -92h-75z" />
    <glyph glyph-name="Acircumflex" unicode="&#xc2;" horiz-adv-x="790" 
d="M30 0l308 705h114l308 -705h-130l-71 169h-331l-72 -169h-126zM273 278h241l-121 280zM257 750l93 117h90l93 -117h-77l-62 54l-61 -54h-76z" />
    <glyph glyph-name="Atilde" unicode="&#xc3;" horiz-adv-x="790" 
d="M30 0l308 705h114l308 -705h-130l-71 169h-331l-72 -169h-126zM273 278h241l-121 280zM297 742l-53 16q14 51 34.5 75.5t54.5 24.5q25 0 64 -16t52 -16q16 0 25 9t19 31l53 -17q-14 -51 -34.5 -75t-54.5 -24q-24 0 -64 16t-52 16q-16 0 -25 -9t-19 -31z" />
    <glyph glyph-name="Adieresis" unicode="&#xc4;" horiz-adv-x="790" 
d="M30 0l308 705h114l308 -705h-130l-71 169h-331l-72 -169h-126zM273 278h241l-121 280zM433 758v118h123v-118h-123zM234 758v118h123v-118h-123z" />
    <glyph glyph-name="Aring" unicode="&#xc5;" horiz-adv-x="790" 
d="M30 0l298 684q-47 35 -47 87v2q0 45 34.5 77t79.5 32t79.5 -32t34.5 -77v-2q0 -52 -47 -87l298 -684h-130l-71 169h-331l-72 -169h-126zM395 710q26 0 44 18t18 43v2q0 25 -18 43t-44 18t-44 -18t-18 -43v-2q0 -25 18 -43t44 -18zM273 278h241l-121 280z" />
    <glyph glyph-name="AE" unicode="&#xc6;" horiz-adv-x="1045" 
d="M12 0l391 700h581v-110h-374v-182h329v-110h-329v-188h379v-110h-502v169h-255l-93 -169h-127zM291 278h196v315h-20z" />
    <glyph glyph-name="Ccedilla" unicode="&#xc7;" horiz-adv-x="738" 
d="M371 -165l-105 44l79 116q-126 24 -206 122t-80 231v2q0 152 102 257t259 105q160 0 274 -109l-79 -91q-94 87 -196 87q-99 0 -165 -72t-66 -175v-2q0 -104 66 -176.5t165 -72.5q60 0 106 22.5t95 68.5l79 -80q-55 -58 -116 -88.5t-146 -34.5z" />
    <glyph glyph-name="Egrave" unicode="&#xc8;" horiz-adv-x="670" 
d="M90 0v700h519v-110h-396v-182h351v-110h-351v-188h401v-110h-524zM345 750l-98 92l88 39l85 -131h-75z" />
    <glyph glyph-name="Eacute" unicode="&#xc9;" horiz-adv-x="670" 
d="M90 0v700h519v-110h-396v-182h351v-110h-351v-188h401v-110h-524zM281 750l85 131l88 -39l-98 -92h-75z" />
    <glyph glyph-name="Ecircumflex" unicode="&#xca;" horiz-adv-x="670" 
d="M90 0v700h519v-110h-396v-182h351v-110h-351v-188h401v-110h-524zM209 750l93 117h90l92 -117h-76l-62 54l-62 -54h-75z" />
    <glyph glyph-name="Edieresis" unicode="&#xcb;" horiz-adv-x="670" 
d="M90 0v700h519v-110h-396v-182h351v-110h-351v-188h401v-110h-524zM385 758v118h123v-118h-123zM186 758v118h123v-118h-123z" />
    <glyph glyph-name="Igrave" unicode="&#xcc;" horiz-adv-x="317" 
d="M97 0v700h123v-700h-123zM125 750l-98 92l88 39l85 -131h-75z" />
    <glyph glyph-name="Iacute" unicode="&#xcd;" horiz-adv-x="317" 
d="M97 0v700h123v-700h-123zM110 750l85 131l88 -39l-98 -92h-75z" />
    <glyph glyph-name="Icircumflex" unicode="&#xce;" horiz-adv-x="317" 
d="M97 0v700h123v-700h-123zM-13 758l116 146h112l116 -146h-96l-77 67l-77 -67h-94z" />
    <glyph glyph-name="Idieresis" unicode="&#xcf;" horiz-adv-x="317" 
d="M97 0v700h123v-700h-123zM197 758v118h123v-118h-123zM-2 758v118h123v-118h-123z" />
    <glyph glyph-name="Eth" unicode="&#xd0;" horiz-adv-x="812" 
d="M120 0v297h-75v110h75v293h261q163 0 267.5 -99.5t104.5 -248.5v-2q0 -150 -104.5 -250t-267.5 -100h-261zM242 112h139q109 0 176 66t67 170v2q0 104 -67 171t-176 67h-139v-181h176v-110h-176v-185z" />
    <glyph glyph-name="Ntilde" unicode="&#xd1;" horiz-adv-x="790" 
d="M90 0v700h114l375 -484v484h121v-700h-103l-386 498v-498h-121zM273 748l-67 20q18 65 43 95t69 30q30 0 79 -20t65 -20q21 0 32 11t23 39l67 -21q-18 -64 -43 -94t-69 -30q-30 0 -79.5 20t-64.5 20q-21 0 -32 -11t-23 -39z" />
    <glyph glyph-name="Ograve" unicode="&#xd2;" horiz-adv-x="850" 
d="M424 -12q-159 0 -262 105t-103 255v2q0 150 104.5 256t262.5 106q159 0 262 -105t103 -255v-2q0 -150 -104.5 -256t-262.5 -106zM426 101q103 0 169.5 71.5t66.5 175.5v2q0 104 -67.5 176.5t-170.5 72.5t-169.5 -71.5t-66.5 -175.5v-2q0 -104 67.5 -176.5t170.5 -72.5z
M389 750l-98 92l88 39l85 -131h-75z" />
    <glyph glyph-name="Oacute" unicode="&#xd3;" horiz-adv-x="850" 
d="M424 -12q-159 0 -262 105t-103 255v2q0 150 104.5 256t262.5 106q159 0 262 -105t103 -255v-2q0 -150 -104.5 -256t-262.5 -106zM426 101q103 0 169.5 71.5t66.5 175.5v2q0 104 -67.5 176.5t-170.5 72.5t-169.5 -71.5t-66.5 -175.5v-2q0 -104 67.5 -176.5t170.5 -72.5z
M382 750l85 131l88 -39l-98 -92h-75z" />
    <glyph glyph-name="Ocircumflex" unicode="&#xd4;" horiz-adv-x="850" 
d="M424 -12q-159 0 -262 105t-103 255v2q0 150 104.5 256t262.5 106q159 0 262 -105t103 -255v-2q0 -150 -104.5 -256t-262.5 -106zM426 101q103 0 169.5 71.5t66.5 175.5v2q0 104 -67.5 176.5t-170.5 72.5t-169.5 -71.5t-66.5 -175.5v-2q0 -104 67.5 -176.5t170.5 -72.5z
M287 750l93 117h90l93 -117h-77l-62 54l-61 -54h-76z" />
    <glyph glyph-name="Otilde" unicode="&#xd5;" horiz-adv-x="850" 
d="M424 -12q-159 0 -262 105t-103 255v2q0 150 104.5 256t262.5 106q159 0 262 -105t103 -255v-2q0 -150 -104.5 -256t-262.5 -106zM426 101q103 0 169.5 71.5t66.5 175.5v2q0 104 -67.5 176.5t-170.5 72.5t-169.5 -71.5t-66.5 -175.5v-2q0 -104 67.5 -176.5t170.5 -72.5z
M327 742l-53 16q14 51 34.5 75.5t54.5 24.5q25 0 64 -16t52 -16q16 0 25 9t19 31l53 -17q-14 -51 -34.5 -75t-54.5 -24q-24 0 -64 16t-52 16q-16 0 -25 -9t-19 -31z" />
    <glyph glyph-name="Odieresis" unicode="&#xd6;" horiz-adv-x="850" 
d="M424 -12q-159 0 -262 105t-103 255v2q0 150 104.5 256t262.5 106q159 0 262 -105t103 -255v-2q0 -150 -104.5 -256t-262.5 -106zM426 101q103 0 169.5 71.5t66.5 175.5v2q0 104 -67.5 176.5t-170.5 72.5t-169.5 -71.5t-66.5 -175.5v-2q0 -104 67.5 -176.5t170.5 -72.5z
M463 758v118h123v-118h-123zM264 758v118h123v-118h-123z" />
    <glyph glyph-name="Oslash" unicode="&#xd8;" horiz-adv-x="850" 
d="M424 -12q-116 0 -204 60l-48 -53h-121l99 111q-91 99 -91 242v2q0 150 104.5 256t262.5 106q116 0 204 -60l48 53h121l-99 -112q91 -99 91 -241v-2q0 -150 -104.5 -256t-262.5 -106zM232 201l320 360q-56 40 -128 40q-103 0 -170.5 -72.5t-67.5 -176.5v-2q0 -85 46 -149z
M426 99q103 0 170.5 72.5t67.5 176.5v2q0 85 -46 149l-320 -360q56 -40 128 -40z" />
    <glyph glyph-name="Ugrave" unicode="&#xd9;" horiz-adv-x="757" 
d="M377 -11q-139 0 -218.5 79.5t-79.5 228.5v403h123v-398q0 -97 46.5 -148.5t130.5 -51.5q83 0 129.5 50t46.5 145v403h123v-397q0 -153 -80 -233.5t-221 -80.5zM357 750l-98 92l88 39l85 -131h-75z" />
    <glyph glyph-name="Uacute" unicode="&#xda;" horiz-adv-x="757" 
d="M377 -11q-139 0 -218.5 79.5t-79.5 228.5v403h123v-398q0 -97 46.5 -148.5t130.5 -51.5q83 0 129.5 50t46.5 145v403h123v-397q0 -153 -80 -233.5t-221 -80.5zM331 750l85 131l88 -39l-98 -92h-75z" />
    <glyph glyph-name="Ucircumflex" unicode="&#xdb;" horiz-adv-x="757" 
d="M377 -11q-139 0 -218.5 79.5t-79.5 228.5v403h123v-398q0 -97 46.5 -148.5t130.5 -51.5q83 0 129.5 50t46.5 145v403h123v-397q0 -153 -80 -233.5t-221 -80.5zM207 757l116 146h112l116 -146h-96l-77 67l-77 -67h-94z" />
    <glyph glyph-name="Udieresis" unicode="&#xdc;" horiz-adv-x="757" 
d="M377 -11q-139 0 -218.5 79.5t-79.5 228.5v403h123v-398q0 -97 46.5 -148.5t130.5 -51.5q83 0 129.5 50t46.5 145v403h123v-397q0 -153 -80 -233.5t-221 -80.5zM417 757v118h123v-118h-123zM218 757v118h123v-118h-123z" />
    <glyph glyph-name="Yacute" unicode="&#xdd;" horiz-adv-x="716" 
d="M296 0v276l-278 424h145l196 -310l198 310h141l-278 -421v-279h-124zM319 750l85 131l88 -39l-98 -92h-75z" />
    <glyph glyph-name="Thorn" unicode="&#xde;" horiz-adv-x="673" 
d="M90 0v700h123v-110h153q122 0 194 -63.5t72 -169.5v-2q0 -114 -79 -176.5t-201 -62.5h-139v-116h-123zM213 226h143q69 0 110 35t41 91v2q0 61 -40 93t-111 32h-143v-253z" />
    <glyph glyph-name="germandbls" unicode="&#xdf;" horiz-adv-x="620" 
d="M296 -2v93q74 2 114 30t40 78v2q0 47 -41.5 76t-112.5 38v82q113 55 113 139v2q0 44 -27.5 70t-73.5 26q-51 0 -81.5 -34.5t-30.5 -93.5v-506h-120v502q0 108 64 171.5t174 63.5q99 0 157 -53.5t58 -134.5v-2q0 -111 -110 -171q152 -53 152 -178v-2q0 -96 -74 -149
t-201 -49z" />
    <glyph glyph-name="agrave" unicode="&#xe0;" horiz-adv-x="587" 
d="M519 0h-120v65q-64 -76 -171 -76q-79 0 -133.5 43t-54.5 120v2q0 85 58.5 129t155.5 44q77 0 146 -22v10q0 55 -33.5 84t-96.5 29q-72 0 -151 -33l-33 97q96 44 201 44q116 0 174 -57.5t58 -165.5v-313zM402 191v30q-54 21 -121 21q-57 0 -89 -22t-32 -60v-2
q0 -37 28.5 -57.5t73.5 -20.5q61 0 100.5 30.5t39.5 80.5zM263 594l-98 92l88 39l85 -131h-75z" />
    <glyph glyph-name="aacute" unicode="&#xe1;" horiz-adv-x="587" 
d="M519 0h-120v65q-64 -76 -171 -76q-79 0 -133.5 43t-54.5 120v2q0 85 58.5 129t155.5 44q77 0 146 -22v10q0 55 -33.5 84t-96.5 29q-72 0 -151 -33l-33 97q96 44 201 44q116 0 174 -57.5t58 -165.5v-313zM402 191v30q-54 21 -121 21q-57 0 -89 -22t-32 -60v-2
q0 -37 28.5 -57.5t73.5 -20.5q61 0 100.5 30.5t39.5 80.5zM245 595l85 131l88 -39l-98 -92h-75z" />
    <glyph glyph-name="acircumflex" unicode="&#xe2;" horiz-adv-x="587" 
d="M519 0h-120v65q-64 -76 -171 -76q-79 0 -133.5 43t-54.5 120v2q0 85 58.5 129t155.5 44q77 0 146 -22v10q0 55 -33.5 84t-96.5 29q-72 0 -151 -33l-33 97q96 44 201 44q116 0 174 -57.5t58 -165.5v-313zM402 191v30q-54 21 -121 21q-57 0 -89 -22t-32 -60v-2
q0 -37 28.5 -57.5t73.5 -20.5q61 0 100.5 30.5t39.5 80.5zM156 596l93 117h89l93 -117h-77l-61 54l-62 -54h-75z" />
    <glyph glyph-name="atilde" unicode="&#xe3;" horiz-adv-x="587" 
d="M519 0h-120v65q-64 -76 -171 -76q-79 0 -133.5 43t-54.5 120v2q0 85 58.5 129t155.5 44q77 0 146 -22v10q0 55 -33.5 84t-96.5 29q-72 0 -151 -33l-33 97q96 44 201 44q116 0 174 -57.5t58 -165.5v-313zM402 191v30q-54 21 -121 21q-57 0 -89 -22t-32 -60v-2
q0 -37 28.5 -57.5t73.5 -20.5q61 0 100.5 30.5t39.5 80.5zM196 584l-53 16q14 51 34.5 75.5t54.5 24.5q24 0 64 -16t52 -16q16 0 25 9t19 31l53 -17q-14 -51 -34.5 -75t-54.5 -24q-24 0 -64 16t-52 16q-16 0 -25 -9t-19 -31z" />
    <glyph glyph-name="adieresis" unicode="&#xe4;" horiz-adv-x="587" 
d="M519 0h-120v65q-64 -76 -171 -76q-79 0 -133.5 43t-54.5 120v2q0 85 58.5 129t155.5 44q77 0 146 -22v10q0 55 -33.5 84t-96.5 29q-72 0 -151 -33l-33 97q96 44 201 44q116 0 174 -57.5t58 -165.5v-313zM402 191v30q-54 21 -121 21q-57 0 -89 -22t-32 -60v-2
q0 -37 28.5 -57.5t73.5 -20.5q61 0 100.5 30.5t39.5 80.5zM331 595v118h123v-118h-123zM132 595v118h123v-118h-123z" />
    <glyph glyph-name="aring" unicode="&#xe5;" horiz-adv-x="587" 
d="M519 0h-120v65q-64 -76 -171 -76q-79 0 -133.5 43t-54.5 120v2q0 85 58.5 129t155.5 44q77 0 146 -22v10q0 55 -33.5 84t-96.5 29q-72 0 -151 -33l-33 97q96 44 201 44q116 0 174 -57.5t58 -165.5v-313zM402 191v30q-54 21 -121 21q-57 0 -89 -22t-32 -60v-2
q0 -37 28.5 -57.5t73.5 -20.5q61 0 100.5 30.5t39.5 80.5zM293 593q-45 0 -79.5 32t-34.5 77v2q0 45 34.5 77t79.5 32t79.5 -32t34.5 -77v-2q0 -45 -34.5 -77t-79.5 -32zM293 641q26 0 44 18t18 43v2q0 25 -18 43t-44 18t-44 -18t-18 -43v-2q0 -25 18 -43t44 -18z" />
    <glyph glyph-name="ae" unicode="&#xe6;" horiz-adv-x="952" 
d="M240 -11q-86 0 -143 43t-57 120v2q0 85 58.5 129t153.5 44q76 0 145 -22v10q0 113 -129 113q-70 0 -149 -33l-33 97q96 44 199 44q135 0 185 -87q69 90 185 90q118 0 184 -82t66 -202q0 -22 -1 -34h-388q11 -64 51.5 -99t99.5 -35q78 0 144 63l71 -63q-84 -99 -217 -99
q-127 0 -204 90q-109 -89 -221 -89zM514 301h272q-6 61 -41 100t-93 39q-56 0 -93 -38t-45 -101zM260 80q82 0 156 68q-15 38 -19 76q-51 18 -118 18q-56 0 -87.5 -22t-31.5 -60v-2q0 -37 28 -57.5t72 -20.5z" />
    <glyph glyph-name="ccedilla" unicode="&#xe7;" horiz-adv-x="571" 
d="M276 -165l-106 44l80 118q-90 22 -146.5 95.5t-56.5 168.5v2q0 114 78.5 195t195.5 81q130 0 211 -91l-75 -81q-63 66 -137 66q-65 0 -108.5 -49t-43.5 -119v-2q0 -71 44.5 -120.5t113.5 -49.5q71 0 137 66l73 -72q-41 -45 -86.5 -70t-108.5 -28z" />
    <glyph glyph-name="egrave" unicode="&#xe8;" horiz-adv-x="604" 
d="M318 -12q-116 0 -193.5 76.5t-77.5 197.5v2q0 116 73 195.5t185 79.5q120 0 186.5 -81.5t66.5 -202.5q0 -10 -2 -34h-388q10 -64 51 -99t101 -35q77 0 143 63l71 -63q-84 -99 -216 -99zM167 301h271q-6 61 -41 100t-93 39q-56 0 -92.5 -38t-44.5 -101zM271 594l-98 92
l88 39l85 -131h-75z" />
    <glyph glyph-name="eacute" unicode="&#xe9;" horiz-adv-x="604" 
d="M318 -12q-116 0 -193.5 76.5t-77.5 197.5v2q0 116 73 195.5t185 79.5q120 0 186.5 -81.5t66.5 -202.5q0 -10 -2 -34h-388q10 -64 51 -99t101 -35q77 0 143 63l71 -63q-84 -99 -216 -99zM167 301h271q-6 61 -41 100t-93 39q-56 0 -92.5 -38t-44.5 -101zM258 595l85 131
l88 -39l-98 -92h-75z" />
    <glyph glyph-name="ecircumflex" unicode="&#xea;" horiz-adv-x="604" 
d="M318 -12q-116 0 -193.5 76.5t-77.5 197.5v2q0 116 73 195.5t185 79.5q120 0 186.5 -81.5t66.5 -202.5q0 -10 -2 -34h-388q10 -64 51 -99t101 -35q77 0 143 63l71 -63q-84 -99 -216 -99zM167 301h271q-6 61 -41 100t-93 39q-56 0 -92.5 -38t-44.5 -101zM164 596l93 117h90
l92 -117h-76l-62 54l-62 -54h-75z" />
    <glyph glyph-name="edieresis" unicode="&#xeb;" horiz-adv-x="604" 
d="M318 -12q-116 0 -193.5 76.5t-77.5 197.5v2q0 116 73 195.5t185 79.5q120 0 186.5 -81.5t66.5 -202.5q0 -10 -2 -34h-388q10 -64 51 -99t101 -35q77 0 143 63l71 -63q-84 -99 -216 -99zM167 301h271q-6 61 -41 100t-93 39q-56 0 -92.5 -38t-44.5 -101zM341 595v118h123
v-118h-123zM142 595v118h123v-118h-123z" />
    <glyph glyph-name="igrave" unicode="&#xec;" horiz-adv-x="286" 
d="M83 0v528h121v-528h-121zM110 594l-98 92l88 39l85 -131h-75z" />
    <glyph glyph-name="iacute" unicode="&#xed;" horiz-adv-x="286" 
d="M83 0v528h121v-528h-121zM91 595l85 131l88 -39l-98 -92h-75z" />
    <glyph glyph-name="icircumflex" unicode="&#xee;" horiz-adv-x="286" 
d="M83 0v528h121v-528h-121zM-29 595l116 146h112l116 -146h-96l-77 67l-77 -67h-94z" />
    <glyph glyph-name="idieresis" unicode="&#xef;" horiz-adv-x="286" 
d="M83 0v528h121v-528h-121zM181 595v118h123v-118h-123zM-18 595v118h123v-118h-123z" />
    <glyph glyph-name="eth" unicode="&#xf0;" horiz-adv-x="642" 
d="M316 -12q-116 0 -192.5 75.5t-76.5 184.5v2q0 104 66.5 170t165.5 66q74 0 139 -41l-105 143l-119 -53l-48 63l121 53l-58 79h139l24 -35l99 43l47 -63l-102 -44l89 -129q46 -66 67 -122t21 -121v-2q0 -112 -75.5 -190.5t-201.5 -78.5zM321 91q68 0 110.5 44.5
t42.5 109.5v2q0 63 -44 106.5t-113 43.5q-68 0 -109.5 -42.5t-41.5 -107.5v-2q0 -64 44 -109t111 -45z" />
    <glyph glyph-name="ntilde" unicode="&#xf1;" horiz-adv-x="620" 
d="M76 0v528h121v-82q63 93 165 93q89 0 138.5 -54.5t49.5 -148.5v-336h-121v300q0 62 -29.5 95.5t-83.5 33.5t-86.5 -35t-32.5 -96v-298h-121zM192 585l-67 20q18 65 43 95t69 30q31 0 80 -20t65 -20q21 0 32 11t23 39l67 -21q-18 -64 -43 -94t-69 -30q-30 0 -79.5 20
t-65.5 20q-21 0 -32 -11t-23 -39z" />
    <glyph glyph-name="ograve" unicode="&#xf2;" horiz-adv-x="657" 
d="M327 -12q-120 0 -200 79.5t-80 193.5v2q0 115 81 195.5t201 80.5q121 0 201 -79.5t80 -194.5v-2q0 -113 -81 -194t-202 -81zM329 93q72 0 116 48.5t44 119.5v2q0 71 -46 120.5t-116 49.5q-71 0 -115 -48.5t-44 -119.5v-2q0 -70 46 -120t115 -50zM291 594l-98 92l88 39
l85 -131h-75z" />
    <glyph glyph-name="oacute" unicode="&#xf3;" horiz-adv-x="657" 
d="M327 -12q-120 0 -200 79.5t-80 193.5v2q0 115 81 195.5t201 80.5q121 0 201 -79.5t80 -194.5v-2q0 -113 -81 -194t-202 -81zM329 93q72 0 116 48.5t44 119.5v2q0 71 -46 120.5t-116 49.5q-71 0 -115 -48.5t-44 -119.5v-2q0 -70 46 -120t115 -50zM289 595l85 131l88 -39
l-98 -92h-75z" />
    <glyph glyph-name="ocircumflex" unicode="&#xf4;" horiz-adv-x="657" 
d="M327 -12q-120 0 -200 79.5t-80 193.5v2q0 115 81 195.5t201 80.5q121 0 201 -79.5t80 -194.5v-2q0 -113 -81 -194t-202 -81zM329 93q72 0 116 48.5t44 119.5v2q0 71 -46 120.5t-116 49.5q-71 0 -115 -48.5t-44 -119.5v-2q0 -70 46 -120t115 -50zM189 596l92 117h90
l93 -117h-77l-62 54l-61 -54h-75z" />
    <glyph glyph-name="otilde" unicode="&#xf5;" horiz-adv-x="657" 
d="M327 -12q-120 0 -200 79.5t-80 193.5v2q0 115 81 195.5t201 80.5q121 0 201 -79.5t80 -194.5v-2q0 -113 -81 -194t-202 -81zM329 93q72 0 116 48.5t44 119.5v2q0 71 -46 120.5t-116 49.5q-71 0 -115 -48.5t-44 -119.5v-2q0 -70 46 -120t115 -50zM244 584l-54 16
q15 52 35 76t55 24q24 0 63 -16t52 -16q16 0 25 9t19 31l54 -17q-15 -51 -35 -75t-55 -24q-24 0 -63.5 16t-51.5 16q-16 0 -25 -9t-19 -31z" />
    <glyph glyph-name="odieresis" unicode="&#xf6;" horiz-adv-x="657" 
d="M327 -12q-120 0 -200 79.5t-80 193.5v2q0 115 81 195.5t201 80.5q121 0 201 -79.5t80 -194.5v-2q0 -113 -81 -194t-202 -81zM329 93q72 0 116 48.5t44 119.5v2q0 71 -46 120.5t-116 49.5q-71 0 -115 -48.5t-44 -119.5v-2q0 -70 46 -120t115 -50zM366 595v118h123v-118
h-123zM167 595v118h123v-118h-123z" />
    <glyph glyph-name="oslash" unicode="&#xf8;" horiz-adv-x="657" 
d="M327 -12q-83 0 -151 43l-34 -36h-110l80 89q-65 76 -65 177v2q0 115 81 195.5t201 80.5q83 0 151 -43l35 38h110q-20 -22 -29 -33l-52 -58q66 -72 66 -178v-2q0 -113 -81 -194t-202 -81zM190 172l218 240q-37 24 -81 24q-72 0 -117 -49.5t-45 -121.5v-2q0 -51 25 -91z
M329 91q73 0 118 49.5t45 120.5v2q0 47 -25 92l-219 -241q35 -23 81 -23z" />
    <glyph glyph-name="ugrave" unicode="&#xf9;" horiz-adv-x="620" 
d="M258 -11q-89 0 -138.5 54.5t-49.5 148.5v336h121v-300q0 -62 29.5 -95.5t83.5 -33.5t86.5 35t32.5 96v298h121v-528h-121v82q-64 -93 -165 -93zM284 594l-98 92l88 39l85 -131h-75z" />
    <glyph glyph-name="uacute" unicode="&#xfa;" horiz-adv-x="620" 
d="M258 -11q-89 0 -138.5 54.5t-49.5 148.5v336h121v-300q0 -62 29.5 -95.5t83.5 -33.5t86.5 35t32.5 96v298h121v-528h-121v82q-64 -93 -165 -93zM259 595l85 131l88 -39l-98 -92h-75z" />
    <glyph glyph-name="ucircumflex" unicode="&#xfb;" horiz-adv-x="620" 
d="M258 -11q-89 0 -138.5 54.5t-49.5 148.5v336h121v-300q0 -62 29.5 -95.5t83.5 -33.5t86.5 35t32.5 96v298h121v-528h-121v82q-64 -93 -165 -93zM138 595l116 146h112l116 -146h-96l-77 67l-77 -67h-94z" />
    <glyph glyph-name="udieresis" unicode="&#xfc;" horiz-adv-x="620" 
d="M258 -11q-89 0 -138.5 54.5t-49.5 148.5v336h121v-300q0 -62 29.5 -95.5t83.5 -33.5t86.5 35t32.5 96v298h121v-528h-121v82q-64 -93 -165 -93zM348 595v118h123v-118h-123zM149 595v118h123v-118h-123z" />
    <glyph glyph-name="yacute" unicode="&#xfd;" horiz-adv-x="596" 
d="M184 -163q-66 0 -125 32l41 90q38 -20 71 -20q27 0 43.5 13t31.5 48l-220 528h129l150 -392l137 392h126l-210 -543q-32 -81 -71 -114.5t-103 -33.5zM255 595l85 131l88 -39l-98 -92h-75z" />
    <glyph glyph-name="thorn" unicode="&#xfe;" horiz-adv-x="670" 
d="M76 -160v890h121v-290q69 99 179 99q99 0 172.5 -74t73.5 -200v-2q0 -126 -73 -200t-173 -74q-109 0 -179 93v-242h-121zM348 94q64 0 107.5 46.5t43.5 122.5v2q0 75 -43.5 122t-107.5 47t-109 -47.5t-45 -121.5v-2q0 -75 45 -122t109 -47z" />
    <glyph glyph-name="ydieresis" unicode="&#xff;" horiz-adv-x="596" 
d="M184 -163q-66 0 -125 32l41 90q38 -20 71 -20q27 0 43.5 13t31.5 48l-220 528h129l150 -392l137 392h126l-210 -543q-32 -81 -71 -114.5t-103 -33.5zM336 595v118h123v-118h-123zM137 595v118h123v-118h-123z" />
    <glyph glyph-name="Amacron" unicode="&#x100;" 
 />
    <glyph glyph-name="amacron" unicode="&#x101;" 
 />
    <glyph glyph-name="Abreve" unicode="&#x102;" horiz-adv-x="790" 
d="M30 0l308 705h114l308 -705h-130l-71 169h-331l-72 -169h-126zM273 278h241l-121 280zM397 750q-59 0 -96 31t-41 87h67q15 -50 70 -50t70 50h67q-4 -56 -41 -87t-96 -31z" />
    <glyph glyph-name="abreve" unicode="&#x103;" horiz-adv-x="587" 
d="M519 0h-120v65q-64 -76 -171 -76q-79 0 -133.5 43t-54.5 120v2q0 85 58.5 129t155.5 44q77 0 146 -22v10q0 55 -33.5 84t-96.5 29q-72 0 -151 -33l-33 97q96 44 201 44q116 0 174 -57.5t58 -165.5v-313zM402 191v30q-54 21 -121 21q-57 0 -89 -22t-32 -60v-2
q0 -37 28.5 -57.5t73.5 -20.5q61 0 100.5 30.5t39.5 80.5zM289 597q-59 0 -96 31t-41 87h67q15 -50 70 -50t70 50h67q-4 -56 -41 -87t-96 -31z" />
    <glyph glyph-name="Aogonek" unicode="&#x104;" 
 />
    <glyph glyph-name="aogonek" unicode="&#x105;" 
 />
    <glyph glyph-name="Cacute" unicode="&#x106;" 
 />
    <glyph glyph-name="cacute" unicode="&#x107;" 
 />
    <glyph glyph-name="Ccircumflex" unicode="&#x108;" 
 />
    <glyph glyph-name="ccircumflex" unicode="&#x109;" 
 />
    <glyph glyph-name="Cdotaccent" unicode="&#x10a;" 
 />
    <glyph glyph-name="cdotaccent" unicode="&#x10b;" 
 />
    <glyph glyph-name="Ccaron" unicode="&#x10c;" 
 />
    <glyph glyph-name="ccaron" unicode="&#x10d;" 
 />
    <glyph glyph-name="Dcaron" unicode="&#x10e;" 
 />
    <glyph glyph-name="dcaron" unicode="&#x10f;" 
 />
    <glyph glyph-name="Dcroat" unicode="&#x110;" horiz-adv-x="812" 
d="M120 0v297h-75v110h75v293h261q163 0 267.5 -99.5t104.5 -248.5v-2q0 -150 -104.5 -250t-267.5 -100h-261zM242 112h139q109 0 176 66t67 170v2q0 104 -67 171t-176 67h-139v-181h176v-110h-176v-185z" />
    <glyph glyph-name="dcroat" unicode="&#x111;" horiz-adv-x="670" 
d="M474 581h-143v74h143v75h121v-75h78v-74h-78v-581h-121v88q-70 -99 -180 -99q-99 0 -172 74t-73 200v2q0 126 72.5 200t172.5 74q106 0 180 -93v135zM323 94q63 0 108 47.5t45 121.5v2q0 74 -45 121.5t-108 47.5q-64 0 -108 -46t-44 -123v-2q0 -75 44 -122t108 -47z" />
    <glyph glyph-name="Emacron" unicode="&#x112;" 
 />
    <glyph glyph-name="emacron" unicode="&#x113;" 
 />
    <glyph glyph-name="Ebreve" unicode="&#x114;" 
 />
    <glyph glyph-name="ebreve" unicode="&#x115;" 
 />
    <glyph glyph-name="Edotaccent" unicode="&#x116;" 
 />
    <glyph glyph-name="edotaccent" unicode="&#x117;" 
 />
    <glyph glyph-name="Eogonek" unicode="&#x118;" 
 />
    <glyph glyph-name="eogonek" unicode="&#x119;" 
 />
    <glyph glyph-name="Ecaron" unicode="&#x11a;" 
 />
    <glyph glyph-name="ecaron" unicode="&#x11b;" 
 />
    <glyph glyph-name="Gcircumflex" unicode="&#x11c;" 
 />
    <glyph glyph-name="gcircumflex" unicode="&#x11d;" 
 />
    <glyph glyph-name="Gbreve" unicode="&#x11e;" 
 />
    <glyph glyph-name="gbreve" unicode="&#x11f;" 
 />
    <glyph glyph-name="Gdotaccent" unicode="&#x120;" 
 />
    <glyph glyph-name="gdotaccent" unicode="&#x121;" 
 />
    <glyph glyph-name="Gcommaaccent" unicode="&#x122;" 
 />
    <glyph glyph-name="gcommaaccent" unicode="&#x123;" 
 />
    <glyph glyph-name="Hcircumflex" unicode="&#x124;" 
 />
    <glyph glyph-name="hcircumflex" unicode="&#x125;" 
 />
    <glyph glyph-name="Hbar" unicode="&#x126;" 
 />
    <glyph glyph-name="hbar" unicode="&#x127;" 
 />
    <glyph glyph-name="Itilde" unicode="&#x128;" horiz-adv-x="317" 
d="M97 0v700h123v-700h-123zM63 742l-54 16q15 52 35 76t55 24q24 0 63 -16t52 -16q16 0 25 9t19 31l54 -17q-15 -51 -35 -75t-55 -24q-24 0 -63.5 16t-51.5 16q-16 0 -25 -9t-19 -31z" />
    <glyph glyph-name="itilde" unicode="&#x129;" horiz-adv-x="286" 
d="M83 0v528h121v-528h-121zM49 584l-54 16q15 52 35 76t55 24q25 0 64 -16t51 -16q16 0 25 9t19 31l54 -17q-15 -51 -35 -75t-55 -24q-24 0 -63.5 16t-51.5 16q-16 0 -25 -9t-19 -31z" />
    <glyph glyph-name="Imacron" unicode="&#x12a;" 
 />
    <glyph glyph-name="imacron" unicode="&#x12b;" 
 />
    <glyph glyph-name="Ibreve" unicode="&#x12c;" 
 />
    <glyph glyph-name="ibreve" unicode="&#x12d;" 
 />
    <glyph glyph-name="Iogonek" unicode="&#x12e;" 
 />
    <glyph glyph-name="iogonek" unicode="&#x12f;" 
 />
    <glyph glyph-name="Idotaccent" unicode="&#x130;" 
 />
    <glyph glyph-name="dotlessi" unicode="&#x131;" horiz-adv-x="286" 
d="M83 0v528h121v-528h-121z" />
    <glyph glyph-name="IJ" unicode="&#x132;" 
 />
    <glyph glyph-name="ij" unicode="&#x133;" 
 />
    <glyph glyph-name="Jcircumflex" unicode="&#x134;" 
 />
    <glyph glyph-name="jcircumflex" unicode="&#x135;" 
 />
    <glyph glyph-name="Kcommaaccent" unicode="&#x136;" 
 />
    <glyph glyph-name="kcommaaccent" unicode="&#x137;" 
 />
    <glyph glyph-name="kgreenlandic" unicode="&#x138;" 
 />
    <glyph glyph-name="Lacute" unicode="&#x139;" 
 />
    <glyph glyph-name="lacute" unicode="&#x13a;" 
 />
    <glyph glyph-name="Lcommaaccent" unicode="&#x13b;" 
 />
    <glyph glyph-name="lcommaaccent" unicode="&#x13c;" 
 />
    <glyph glyph-name="Lcaron" unicode="&#x13d;" 
 />
    <glyph glyph-name="lcaron" unicode="&#x13e;" 
 />
    <glyph glyph-name="Ldot" unicode="&#x13f;" 
 />
    <glyph glyph-name="ldot" unicode="&#x140;" 
 />
    <glyph glyph-name="Lslash" unicode="&#x141;" horiz-adv-x="649" 
d="M120 0v278l-75 -22v114l75 23v307h122v-270l202 60v-114l-202 -61v-203h369v-112h-491z" />
    <glyph glyph-name="lslash" unicode="&#x142;" horiz-adv-x="346" 
d="M113 0v297l-76 -23v115l76 23v318h120v-283l76 23v-115l-76 -23v-332h-120z" />
    <glyph glyph-name="Nacute" unicode="&#x143;" 
 />
    <glyph glyph-name="nacute" unicode="&#x144;" 
 />
    <glyph glyph-name="Ncommaaccent" unicode="&#x145;" 
 />
    <glyph glyph-name="ncommaaccent" unicode="&#x146;" 
 />
    <glyph glyph-name="Ncaron" unicode="&#x147;" 
 />
    <glyph glyph-name="ncaron" unicode="&#x148;" 
 />
    <glyph glyph-name="napostrophe" unicode="&#x149;" 
 />
    <glyph glyph-name="Eng" unicode="&#x14a;" 
 />
    <glyph glyph-name="eng" unicode="&#x14b;" 
 />
    <glyph glyph-name="Omacron" unicode="&#x14c;" 
 />
    <glyph glyph-name="omacron" unicode="&#x14d;" 
 />
    <glyph glyph-name="Obreve" unicode="&#x14e;" 
 />
    <glyph glyph-name="obreve" unicode="&#x14f;" 
 />
    <glyph glyph-name="Ohungarumlaut" unicode="&#x150;" 
 />
    <glyph glyph-name="ohungarumlaut" unicode="&#x151;" 
 />
    <glyph glyph-name="OE" unicode="&#x152;" horiz-adv-x="1098" 
d="M1042 0h-611q-163 0 -267.5 99.5t-104.5 248.5v2q0 150 104.5 250t267.5 100h606v-110h-374v-182h329v-110h-329v-188h379v-110zM431 112h109v476h-109q-109 0 -176 -66t-67 -170v-2q0 -104 67 -171t176 -67z" />
    <glyph glyph-name="oe" unicode="&#x153;" horiz-adv-x="1040" 
d="M321 -12q-114 0 -194 80t-80 193v2q0 114 81 195t198 81q66 0 121 -29.5t90 -79.5q72 109 204 109q120 0 186 -81.5t66 -202.5q0 -10 -2 -34h-388q11 -64 52 -99t100 -35q78 0 144 63l71 -63q-84 -99 -216 -99q-68 0 -125 29.5t-93 81.5q-77 -111 -215 -111zM602 301h272
q-6 61 -41.5 100t-92.5 39q-56 0 -93 -38t-45 -101zM326 93q69 0 112.5 49t43.5 119v2q0 71 -45.5 120.5t-112.5 49.5q-69 0 -112.5 -49t-43.5 -119v-2q0 -70 45 -120t113 -50z" />
    <glyph glyph-name="Racute" unicode="&#x154;" 
 />
    <glyph glyph-name="racute" unicode="&#x155;" 
 />
    <glyph glyph-name="Rcommaaccent" unicode="&#x156;" 
 />
    <glyph glyph-name="rcommaaccent" unicode="&#x157;" 
 />
    <glyph glyph-name="Rcaron" unicode="&#x158;" 
 />
    <glyph glyph-name="rcaron" unicode="&#x159;" 
 />
    <glyph glyph-name="Sacute" unicode="&#x15a;" 
 />
    <glyph glyph-name="sacute" unicode="&#x15b;" 
 />
    <glyph glyph-name="Scircumflex" unicode="&#x15c;" 
 />
    <glyph glyph-name="scircumflex" unicode="&#x15d;" 
 />
    <glyph glyph-name="Scedilla" unicode="&#x15e;" 
 />
    <glyph glyph-name="scedilla" unicode="&#x15f;" 
 />
    <glyph glyph-name="Scaron" unicode="&#x160;" horiz-adv-x="640" 
d="M335 -10q-168 0 -292 112l74 88q105 -91 221 -91q57 0 90.5 24t33.5 64v2q0 39 -32 62t-126 45q-121 28 -177 73t-56 136v2q0 90 67 146.5t172 56.5q143 0 254 -88l-66 -93q-98 72 -190 72q-53 0 -83.5 -23.5t-30.5 -59.5v-2q0 -41 33 -63t133 -47q117 -29 171 -75
t54 -130v-2q0 -97 -69 -153t-181 -56zM264 758l-116 146h96l77 -66l77 66h94l-116 -146h-112z" />
    <glyph glyph-name="scaron" unicode="&#x161;" horiz-adv-x="500" 
d="M257 -10q-122 0 -224 79l54 82q86 -65 173 -65q39 0 60.5 15.5t21.5 41.5v2q0 19 -19 33.5t-38.5 21.5t-60.5 19q-36 10 -59.5 20t-50.5 27.5t-41 44.5t-14 63v2q0 73 53.5 117t134.5 44q103 0 194 -60l-48 -86q-82 50 -149 50q-35 0 -54.5 -14.5t-19.5 -38.5v-2
q0 -24 30 -40t89 -34q35 -11 59 -21.5t50.5 -28.5t40.5 -44t14 -60v-2q0 -80 -55 -123t-141 -43zM198 595l-116 146h96l77 -66l77 66h94l-116 -146h-112z" />
    <glyph glyph-name="Tcommaaccent" unicode="&#x162;" 
 />
    <glyph glyph-name="tcommaaccent" unicode="&#x163;" 
 />
    <glyph glyph-name="Tcaron" unicode="&#x164;" 
 />
    <glyph glyph-name="tcaron" unicode="&#x165;" 
 />
    <glyph glyph-name="Tbar" unicode="&#x166;" 
 />
    <glyph glyph-name="tbar" unicode="&#x167;" 
 />
    <glyph glyph-name="Utilde" unicode="&#x168;" horiz-adv-x="757" 
d="M377 -11q-139 0 -218.5 79.5t-79.5 228.5v403h123v-398q0 -97 46.5 -148.5t130.5 -51.5q83 0 129.5 50t46.5 145v403h123v-397q0 -153 -80 -233.5t-221 -80.5zM291 742l-53 16q14 51 34.5 75.5t54.5 24.5q25 0 64 -16t52 -16q16 0 25 9t19 31l53 -17q-14 -51 -34.5 -75
t-54.5 -24q-24 0 -64 16t-52 16q-16 0 -25 -9t-19 -31z" />
    <glyph glyph-name="utilde" unicode="&#x169;" horiz-adv-x="620" 
d="M258 -11q-89 0 -138.5 54.5t-49.5 148.5v336h121v-300q0 -62 29.5 -95.5t83.5 -33.5t86.5 35t32.5 96v298h121v-528h-121v82q-64 -93 -165 -93zM203 584l-54 16q15 52 35 76t55 24q25 0 64 -16t51 -16q16 0 25 9t19 31l54 -17q-15 -51 -35 -75t-55 -24q-24 0 -63.5 16
t-51.5 16q-16 0 -25 -9t-19 -31z" />
    <glyph glyph-name="Umacron" unicode="&#x16a;" 
 />
    <glyph glyph-name="umacron" unicode="&#x16b;" 
 />
    <glyph glyph-name="Ubreve" unicode="&#x16c;" 
 />
    <glyph glyph-name="ubreve" unicode="&#x16d;" 
 />
    <glyph glyph-name="Uring" unicode="&#x16e;" 
 />
    <glyph glyph-name="uring" unicode="&#x16f;" 
 />
    <glyph glyph-name="Uhungarumlaut" unicode="&#x170;" 
 />
    <glyph glyph-name="uhungarumlaut" unicode="&#x171;" 
 />
    <glyph glyph-name="Uogonek" unicode="&#x172;" 
 />
    <glyph glyph-name="uogonek" unicode="&#x173;" 
 />
    <glyph glyph-name="Wcircumflex" unicode="&#x174;" 
 />
    <glyph glyph-name="wcircumflex" unicode="&#x175;" 
 />
    <glyph glyph-name="Ycircumflex" unicode="&#x176;" 
 />
    <glyph glyph-name="ycircumflex" unicode="&#x177;" 
 />
    <glyph glyph-name="Ydieresis" unicode="&#x178;" horiz-adv-x="716" 
d="M296 0v276l-278 424h145l196 -310l198 310h141l-278 -421v-279h-124zM396 757v118h123v-118h-123zM197 757v118h123v-118h-123z" />
    <glyph glyph-name="Zacute" unicode="&#x179;" 
 />
    <glyph glyph-name="zacute" unicode="&#x17a;" 
 />
    <glyph glyph-name="Zdotaccent" unicode="&#x17b;" 
 />
    <glyph glyph-name="zdotaccent" unicode="&#x17c;" 
 />
    <glyph glyph-name="Zcaron" unicode="&#x17d;" horiz-adv-x="702" 
d="M65 0v91l413 500h-400v109h560v-91l-413 -500h413v-109h-573zM299 758l-116 146h96l77 -66l77 66h94l-116 -146h-112z" />
    <glyph glyph-name="zcaron" unicode="&#x17e;" horiz-adv-x="560" 
d="M52 0v83l305 346h-294v99h448v-83l-305 -346h305v-99h-459zM232 595l-116 146h96l77 -66l77 66h94l-116 -146h-112z" />
    <glyph glyph-name="florin" unicode="&#x192;" horiz-adv-x="527" 
d="M97 -5q-36 0 -56 5v99q21 -3 40 -3q32 0 49 15.5t24 51.5l35 193h-80v101h97l18 93q16 79 56.5 117t118.5 38q53 0 92 -11v-102q-34 10 -69 10t-54.5 -18t-26.5 -59l-12 -68h127v-101h-145l-38 -211q-14 -80 -55.5 -115t-120.5 -35z" />
    <glyph glyph-name="Ohorn" unicode="&#x1a0;" horiz-adv-x="850" 
d="M765 678h45q9 -130 -64 -149q45 -82 45 -177v-2q0 -150 -104.5 -256t-262.5 -106q-159 0 -262 105t-103 255v2q0 150 104.5 256t262.5 106q162 0 266 -109q5 -1 14 -1q55 0 59 76zM426 101q103 0 169.5 71.5t66.5 175.5v2q0 104 -67.5 176.5t-170.5 72.5t-169.5 -71.5
t-66.5 -175.5v-2q0 -104 67.5 -176.5t170.5 -72.5z" />
    <glyph glyph-name="ohorn" unicode="&#x1a1;" horiz-adv-x="657" 
d="M576 545h44q8 -112 -46 -142q36 -64 36 -138v-2q0 -113 -81 -194t-202 -81q-120 0 -200 79.5t-80 193.5v2q0 115 81 195.5t201 80.5q113 0 191 -70q50 1 56 76zM329 93q72 0 116 48.5t44 119.5v2q0 71 -46 120.5t-116 49.5q-71 0 -115 -48.5t-44 -119.5v-2q0 -70 46 -120
t115 -50z" />
    <glyph glyph-name="Uhorn" unicode="&#x1af;" horiz-adv-x="757" 
d="M755 707h45q4 -74 -18.5 -113t-67.5 -39q-20 0 -36 6v-258q0 -153 -80 -233.5t-221 -80.5q-139 0 -218.5 79.5t-79.5 228.5v403h123v-398q0 -97 46.5 -148.5t130.5 -51.5q83 0 129.5 50t46.5 145v403h123v-68q6 -1 18 -1q55 0 59 76z" />
    <glyph glyph-name="uhorn" unicode="&#x1b0;" horiz-adv-x="620" 
d="M611 532h45q4 -74 -18.5 -113t-67.5 -39q-14 0 -26 3v-383h-121v82q-64 -93 -165 -93q-89 0 -138.5 54.5t-49.5 148.5v336h121v-300q0 -62 29.5 -95.5t83.5 -33.5t86.5 35t32.5 96v298h121v-72h8q55 0 59 76z" />
    <glyph glyph-name="uni01FA" unicode="&#x1fa;" 
 />
    <glyph glyph-name="uni01FB" unicode="&#x1fb;" 
 />
    <glyph glyph-name="AEacute" unicode="&#x1fc;" 
 />
    <glyph glyph-name="aeacute" unicode="&#x1fd;" 
 />
    <glyph glyph-name="Oslashacute" unicode="&#x1fe;" 
 />
    <glyph glyph-name="oslashacute" unicode="&#x1ff;" 
 />
    <glyph glyph-name="Scommaaccent" unicode="&#x218;" 
 />
    <glyph glyph-name="scommaaccent" unicode="&#x219;" 
 />
    <glyph glyph-name="uni021A" unicode="&#x21a;" 
 />
    <glyph glyph-name="uni021B" unicode="&#x21b;" 
 />
    <glyph glyph-name="uni021C" unicode="&#x21c;" 
 />
    <glyph glyph-name="uni021D" unicode="&#x21d;" 
 />
    <glyph glyph-name="uni0232" unicode="&#x232;" 
 />
    <glyph glyph-name="uni0233" unicode="&#x233;" 
 />
    <glyph glyph-name="circumflex" unicode="&#x2c6;" horiz-adv-x="500" 
d="M78 595l116 146h112l116 -146h-96l-77 67l-77 -67h-94z" />
    <glyph glyph-name="caron" unicode="&#x2c7;" horiz-adv-x="500" 
d="M194 595l-116 146h96l77 -66l77 66h94l-116 -146h-112z" />
    <glyph glyph-name="uni02C9" unicode="&#x2c9;" 
 />
    <glyph glyph-name="breve" unicode="&#x2d8;" horiz-adv-x="500" 
d="M250 593q-73 0 -119.5 39t-51.5 109h83q19 -63 88 -63t88 63h83q-5 -70 -51.5 -109t-119.5 -39z" />
    <glyph glyph-name="dotaccent" unicode="&#x2d9;" horiz-adv-x="500" 
d="M187 595v119h126v-119h-126z" />
    <glyph glyph-name="ring" unicode="&#x2da;" horiz-adv-x="500" 
d="M250 593q-45 0 -79.5 32t-34.5 77v2q0 45 34.5 77t79.5 32t79.5 -32t34.5 -77v-2q0 -45 -34.5 -77t-79.5 -32zM250 641q26 0 44 18t18 43v2q0 25 -18 43t-44 18t-44 -18t-18 -43v-2q0 -25 18 -43t44 -18z" />
    <glyph glyph-name="ogonek" unicode="&#x2db;" horiz-adv-x="500" 
d="M366 -108v-56q-92 -6 -141 22.5t-49 85.5q0 30 15 66h86q-6 -23 -6 -44q0 -68 95 -74z" />
    <glyph glyph-name="tilde" unicode="&#x2dc;" horiz-adv-x="500" 
d="M128 585l-67 20q18 65 43 95t69 30q31 0 80 -20t64 -20q21 0 32 11t23 39l67 -21q-18 -64 -43 -94t-69 -30q-30 0 -79.5 20t-64.5 20q-21 0 -32 -11t-23 -39z" />
    <glyph glyph-name="hungarumlaut" unicode="&#x2dd;" horiz-adv-x="500" 
d="M238 595l106 164l106 -49l-122 -115h-90zM56 595l104 164l106 -49l-120 -115h-90z" />
    <glyph glyph-name="uni037E" unicode="&#x37e;" 
 />
    <glyph glyph-name="tonos" unicode="&#x384;" 
 />
    <glyph glyph-name="dieresistonos" unicode="&#x385;" 
 />
    <glyph glyph-name="Alphatonos" unicode="&#x386;" 
 />
    <glyph glyph-name="anoteleia" unicode="&#x387;" 
 />
    <glyph glyph-name="Epsilontonos" unicode="&#x388;" 
 />
    <glyph glyph-name="Etatonos" unicode="&#x389;" 
 />
    <glyph glyph-name="Iotatonos" unicode="&#x38a;" 
 />
    <glyph glyph-name="Omicrontonos" unicode="&#x38c;" 
 />
    <glyph glyph-name="Upsilontonos" unicode="&#x38e;" 
 />
    <glyph glyph-name="Omegatonos" unicode="&#x38f;" 
 />
    <glyph glyph-name="iotadieresistonos" unicode="&#x390;" 
 />
    <glyph glyph-name="Alpha" unicode="&#x391;" 
 />
    <glyph glyph-name="Beta" unicode="&#x392;" 
 />
    <glyph glyph-name="Gamma" unicode="&#x393;" 
 />
    <glyph glyph-name="uni0394" unicode="&#x394;" 
 />
    <glyph glyph-name="Epsilon" unicode="&#x395;" 
 />
    <glyph glyph-name="Zeta" unicode="&#x396;" 
 />
    <glyph glyph-name="Eta" unicode="&#x397;" 
 />
    <glyph glyph-name="Theta" unicode="&#x398;" 
 />
    <glyph glyph-name="Iota" unicode="&#x399;" 
 />
    <glyph glyph-name="Kappa" unicode="&#x39a;" 
 />
    <glyph glyph-name="Lambda" unicode="&#x39b;" 
 />
    <glyph glyph-name="Mu" unicode="&#x39c;" 
 />
    <glyph glyph-name="Nu" unicode="&#x39d;" 
 />
    <glyph glyph-name="Xi" unicode="&#x39e;" 
 />
    <glyph glyph-name="Omicron" unicode="&#x39f;" 
 />
    <glyph glyph-name="Pi" unicode="&#x3a0;" 
 />
    <glyph glyph-name="Rho" unicode="&#x3a1;" 
 />
    <glyph glyph-name="Sigma" unicode="&#x3a3;" 
 />
    <glyph glyph-name="Tau" unicode="&#x3a4;" 
 />
    <glyph glyph-name="Upsilon" unicode="&#x3a5;" 
 />
    <glyph glyph-name="Phi" unicode="&#x3a6;" 
 />
    <glyph glyph-name="Chi" unicode="&#x3a7;" 
 />
    <glyph glyph-name="Psi" unicode="&#x3a8;" 
 />
    <glyph glyph-name="uni03A9" unicode="&#x3a9;" 
 />
    <glyph glyph-name="Iotadieresis" unicode="&#x3aa;" 
 />
    <glyph glyph-name="Upsilondieresis" unicode="&#x3ab;" 
 />
    <glyph glyph-name="alphatonos" unicode="&#x3ac;" 
 />
    <glyph glyph-name="epsilontonos" unicode="&#x3ad;" 
 />
    <glyph glyph-name="etatonos" unicode="&#x3ae;" 
 />
    <glyph glyph-name="iotatonos" unicode="&#x3af;" 
 />
    <glyph glyph-name="upsilondieresistonos" unicode="&#x3b0;" 
 />
    <glyph glyph-name="alpha" unicode="&#x3b1;" 
 />
    <glyph glyph-name="beta" unicode="&#x3b2;" 
 />
    <glyph glyph-name="gamma" unicode="&#x3b3;" 
 />
    <glyph glyph-name="delta" unicode="&#x3b4;" 
 />
    <glyph glyph-name="epsilon" unicode="&#x3b5;" 
 />
    <glyph glyph-name="zeta" unicode="&#x3b6;" 
 />
    <glyph glyph-name="eta" unicode="&#x3b7;" 
 />
    <glyph glyph-name="theta" unicode="&#x3b8;" 
 />
    <glyph glyph-name="iota" unicode="&#x3b9;" 
 />
    <glyph glyph-name="kappa" unicode="&#x3ba;" 
 />
    <glyph glyph-name="lambda" unicode="&#x3bb;" 
 />
    <glyph glyph-name="uni03BC" unicode="&#x3bc;" 
 />
    <glyph glyph-name="nu" unicode="&#x3bd;" 
 />
    <glyph glyph-name="xi" unicode="&#x3be;" 
 />
    <glyph glyph-name="omicron" unicode="&#x3bf;" 
 />
    <glyph glyph-name="pi" unicode="&#x3c0;" 
 />
    <glyph glyph-name="rho" unicode="&#x3c1;" 
 />
    <glyph glyph-name="uni03C2" unicode="&#x3c2;" 
 />
    <glyph glyph-name="sigma" unicode="&#x3c3;" 
 />
    <glyph glyph-name="tau" unicode="&#x3c4;" 
 />
    <glyph glyph-name="upsilon" unicode="&#x3c5;" 
 />
    <glyph glyph-name="phi" unicode="&#x3c6;" 
 />
    <glyph glyph-name="chi" unicode="&#x3c7;" 
 />
    <glyph glyph-name="psi" unicode="&#x3c8;" 
 />
    <glyph glyph-name="omega" unicode="&#x3c9;" 
 />
    <glyph glyph-name="iotadieresis" unicode="&#x3ca;" 
 />
    <glyph glyph-name="upsilondieresis" unicode="&#x3cb;" 
 />
    <glyph glyph-name="omicrontonos" unicode="&#x3cc;" 
 />
    <glyph glyph-name="upsilontonos" unicode="&#x3cd;" 
 />
    <glyph glyph-name="omegatonos" unicode="&#x3ce;" 
 />
    <glyph glyph-name="afii10023" unicode="&#x401;" 
 />
    <glyph glyph-name="afii10051" unicode="&#x402;" 
 />
    <glyph glyph-name="afii10052" unicode="&#x403;" 
 />
    <glyph glyph-name="afii10053" unicode="&#x404;" 
 />
    <glyph glyph-name="afii10054" unicode="&#x405;" 
 />
    <glyph glyph-name="afii10055" unicode="&#x406;" 
 />
    <glyph glyph-name="afii10056" unicode="&#x407;" 
 />
    <glyph glyph-name="afii10057" unicode="&#x408;" 
 />
    <glyph glyph-name="afii10058" unicode="&#x409;" 
 />
    <glyph glyph-name="afii10059" unicode="&#x40a;" 
 />
    <glyph glyph-name="afii10060" unicode="&#x40b;" 
 />
    <glyph glyph-name="afii10061" unicode="&#x40c;" 
 />
    <glyph glyph-name="afii10062" unicode="&#x40e;" 
 />
    <glyph glyph-name="afii10145" unicode="&#x40f;" 
 />
    <glyph glyph-name="afii10017" unicode="&#x410;" 
 />
    <glyph glyph-name="afii10018" unicode="&#x411;" 
 />
    <glyph glyph-name="afii10019" unicode="&#x412;" 
 />
    <glyph glyph-name="afii10020" unicode="&#x413;" 
 />
    <glyph glyph-name="afii10021" unicode="&#x414;" 
 />
    <glyph glyph-name="afii10022" unicode="&#x415;" 
 />
    <glyph glyph-name="afii10024" unicode="&#x416;" 
 />
    <glyph glyph-name="afii10025" unicode="&#x417;" 
 />
    <glyph glyph-name="afii10026" unicode="&#x418;" 
 />
    <glyph glyph-name="afii10027" unicode="&#x419;" 
 />
    <glyph glyph-name="afii10028" unicode="&#x41a;" 
 />
    <glyph glyph-name="afii10029" unicode="&#x41b;" 
 />
    <glyph glyph-name="afii10030" unicode="&#x41c;" 
 />
    <glyph glyph-name="afii10031" unicode="&#x41d;" 
 />
    <glyph glyph-name="afii10032" unicode="&#x41e;" 
 />
    <glyph glyph-name="afii10033" unicode="&#x41f;" 
 />
    <glyph glyph-name="afii10034" unicode="&#x420;" 
 />
    <glyph glyph-name="afii10035" unicode="&#x421;" 
 />
    <glyph glyph-name="afii10036" unicode="&#x422;" 
 />
    <glyph glyph-name="afii10037" unicode="&#x423;" 
 />
    <glyph glyph-name="afii10038" unicode="&#x424;" 
 />
    <glyph glyph-name="afii10039" unicode="&#x425;" 
 />
    <glyph glyph-name="afii10040" unicode="&#x426;" 
 />
    <glyph glyph-name="afii10041" unicode="&#x427;" 
 />
    <glyph glyph-name="afii10042" unicode="&#x428;" 
 />
    <glyph glyph-name="afii10043" unicode="&#x429;" 
 />
    <glyph glyph-name="afii10044" unicode="&#x42a;" 
 />
    <glyph glyph-name="afii10045" unicode="&#x42b;" 
 />
    <glyph glyph-name="afii10046" unicode="&#x42c;" 
 />
    <glyph glyph-name="afii10047" unicode="&#x42d;" 
 />
    <glyph glyph-name="afii10048" unicode="&#x42e;" 
 />
    <glyph glyph-name="afii10049" unicode="&#x42f;" 
 />
    <glyph glyph-name="afii10065" unicode="&#x430;" 
 />
    <glyph glyph-name="afii10066" unicode="&#x431;" 
 />
    <glyph glyph-name="afii10067" unicode="&#x432;" 
 />
    <glyph glyph-name="afii10068" unicode="&#x433;" 
 />
    <glyph glyph-name="afii10069" unicode="&#x434;" 
 />
    <glyph glyph-name="afii10070" unicode="&#x435;" 
 />
    <glyph glyph-name="afii10072" unicode="&#x436;" 
 />
    <glyph glyph-name="afii10073" unicode="&#x437;" 
 />
    <glyph glyph-name="afii10074" unicode="&#x438;" 
 />
    <glyph glyph-name="afii10075" unicode="&#x439;" 
 />
    <glyph glyph-name="afii10076" unicode="&#x43a;" 
 />
    <glyph glyph-name="afii10077" unicode="&#x43b;" 
 />
    <glyph glyph-name="afii10078" unicode="&#x43c;" 
 />
    <glyph glyph-name="afii10079" unicode="&#x43d;" 
 />
    <glyph glyph-name="afii10080" unicode="&#x43e;" 
 />
    <glyph glyph-name="afii10081" unicode="&#x43f;" 
 />
    <glyph glyph-name="afii10082" unicode="&#x440;" 
 />
    <glyph glyph-name="afii10083" unicode="&#x441;" 
 />
    <glyph glyph-name="afii10084" unicode="&#x442;" 
 />
    <glyph glyph-name="afii10085" unicode="&#x443;" 
 />
    <glyph glyph-name="afii10086" unicode="&#x444;" 
 />
    <glyph glyph-name="afii10087" unicode="&#x445;" 
 />
    <glyph glyph-name="afii10088" unicode="&#x446;" 
 />
    <glyph glyph-name="afii10089" unicode="&#x447;" 
 />
    <glyph glyph-name="afii10090" unicode="&#x448;" 
 />
    <glyph glyph-name="afii10091" unicode="&#x449;" 
 />
    <glyph glyph-name="afii10092" unicode="&#x44a;" 
 />
    <glyph glyph-name="afii10093" unicode="&#x44b;" 
 />
    <glyph glyph-name="afii10094" unicode="&#x44c;" 
 />
    <glyph glyph-name="afii10095" unicode="&#x44d;" 
 />
    <glyph glyph-name="afii10096" unicode="&#x44e;" 
 />
    <glyph glyph-name="afii10097" unicode="&#x44f;" 
 />
    <glyph glyph-name="afii10071" unicode="&#x451;" 
 />
    <glyph glyph-name="afii10099" unicode="&#x452;" 
 />
    <glyph glyph-name="afii10100" unicode="&#x453;" 
 />
    <glyph glyph-name="afii10101" unicode="&#x454;" 
 />
    <glyph glyph-name="afii10102" unicode="&#x455;" 
 />
    <glyph glyph-name="afii10103" unicode="&#x456;" 
 />
    <glyph glyph-name="afii10104" unicode="&#x457;" 
 />
    <glyph glyph-name="afii10105" unicode="&#x458;" 
 />
    <glyph glyph-name="afii10106" unicode="&#x459;" 
 />
    <glyph glyph-name="afii10107" unicode="&#x45a;" 
 />
    <glyph glyph-name="afii10108" unicode="&#x45b;" 
 />
    <glyph glyph-name="afii10109" unicode="&#x45c;" 
 />
    <glyph glyph-name="afii10110" unicode="&#x45e;" 
 />
    <glyph glyph-name="afii10193" unicode="&#x45f;" 
 />
    <glyph glyph-name="afii10050" unicode="&#x490;" 
 />
    <glyph glyph-name="afii10098" unicode="&#x491;" 
 />
    <glyph glyph-name="afii10846" unicode="&#x4d9;" 
 />
    <glyph glyph-name="Wgrave" unicode="&#x1e80;" 
 />
    <glyph glyph-name="wgrave" unicode="&#x1e81;" 
 />
    <glyph glyph-name="Wacute" unicode="&#x1e82;" 
 />
    <glyph glyph-name="wacute" unicode="&#x1e83;" 
 />
    <glyph glyph-name="Wdieresis" unicode="&#x1e84;" 
 />
    <glyph glyph-name="wdieresis" unicode="&#x1e85;" 
 />
    <glyph glyph-name="uni1EA0" unicode="&#x1ea0;" horiz-adv-x="790" 
d="M30 0l308 705h114l308 -705h-130l-71 169h-331l-72 -169h-126zM273 278h241l-121 280zM323 -168v110h107v-110h-107z" />
    <glyph glyph-name="uni1EA1" unicode="&#x1ea1;" horiz-adv-x="587" 
d="M519 0h-120v65q-64 -76 -171 -76q-79 0 -133.5 43t-54.5 120v2q0 85 58.5 129t155.5 44q77 0 146 -22v10q0 55 -33.5 84t-96.5 29q-72 0 -151 -33l-33 97q96 44 201 44q116 0 174 -57.5t58 -165.5v-313zM402 191v30q-54 21 -121 21q-57 0 -89 -22t-32 -60v-2
q0 -37 28.5 -57.5t73.5 -20.5q61 0 100.5 30.5t39.5 80.5zM222 -168v110h107v-110h-107z" />
    <glyph glyph-name="uni1EA2" unicode="&#x1ea2;" horiz-adv-x="790" 
d="M420 767l-4 -18h-36l-9 53l4 4q72 3 72 42v1q0 16 -11.5 26t-31.5 10q-35 0 -65 -33l-34 35q42 47 100 47q43 0 69.5 -22.5t26.5 -60.5v-1q0 -69 -81 -83zM273 278h241l-121 280zM452 705l308 -705h-130l-71 169h-331l-72 -169h-126l308 705h114z" />
    <glyph glyph-name="uni1EA3" unicode="&#x1ea3;" horiz-adv-x="587" 
d="M312 613l-4 -18h-37l-8 54l3 3q73 3 73 42v1q0 16 -11.5 26t-32.5 10q-33 0 -65 -33l-33 36q42 47 100 47q43 0 69.5 -22.5t26.5 -61.5v-1q0 -68 -81 -83zM402 221v-30q0 -50 -39.5 -80.5t-100.5 -30.5q-45 0 -73.5 20.5t-28.5 57.5v2q0 38 32 60t89 22q67 0 121 -21z
M399 0h120v313q0 108 -58 165.5t-174 57.5q-105 0 -201 -44l33 -97q79 33 151 33q63 0 96.5 -29t33.5 -84v-10q-69 22 -146 22q-97 0 -155.5 -44t-58.5 -129v-2q0 -77 54.5 -120t133.5 -43q107 0 171 76v-65z" />
    <glyph glyph-name="uni1EA4" unicode="&#x1ea4;" horiz-adv-x="790" 
d="M30 0l308 705h114l308 -705h-130l-71 169h-331l-72 -169h-126zM273 278h241l-121 280zM257 750l93 117h90l93 -117h-77l-62 54l-61 -54h-76zM515 803l85 131l88 -39l-98 -92h-75z" />
    <glyph glyph-name="uni1EA5" unicode="&#x1ea5;" horiz-adv-x="587" 
d="M519 0h-120v65q-64 -76 -171 -76q-79 0 -133.5 43t-54.5 120v2q0 85 58.5 129t155.5 44q77 0 146 -22v10q0 55 -33.5 84t-96.5 29q-72 0 -151 -33l-33 97q96 44 201 44q116 0 174 -57.5t58 -165.5v-313zM402 191v30q-54 21 -121 21q-57 0 -89 -22t-32 -60v-2
q0 -37 28.5 -57.5t73.5 -20.5q61 0 100.5 30.5t39.5 80.5zM156 596l93 117h89l93 -117h-77l-61 54l-62 -54h-75zM415 648l85 131l88 -39l-98 -92h-75z" />
    <glyph glyph-name="uni1EA6" unicode="&#x1ea6;" horiz-adv-x="790" 
d="M30 0l308 705h114l308 -705h-130l-71 169h-331l-72 -169h-126zM273 278h241l-121 280zM257 750l93 117h90l93 -117h-77l-62 54l-61 -54h-76zM208 803l-98 92l88 39l85 -131h-75z" />
    <glyph glyph-name="uni1EA7" unicode="&#x1ea7;" horiz-adv-x="587" 
d="M88 779l85 -131h-75l-98 92zM249 713l-93 -117h75l62 54l61 -54h77l-93 117h-89zM402 221v-30q0 -50 -39.5 -80.5t-100.5 -30.5q-45 0 -73.5 20.5t-28.5 57.5v2q0 38 32 60t89 22q67 0 121 -21zM399 0h120v313q0 108 -58 165.5t-174 57.5q-105 0 -201 -44l33 -97
q79 33 151 33q63 0 96.5 -29t33.5 -84v-10q-69 22 -146 22q-97 0 -155.5 -44t-58.5 -129v-2q0 -77 54.5 -120t133.5 -43q107 0 171 76v-65z" />
    <glyph glyph-name="uni1EA8" unicode="&#x1ea8;" horiz-adv-x="790" 
d="M567 822l-4 -18h-37l-8 54l3 3q73 3 73 42v1q0 16 -11.5 26t-32.5 10q-34 0 -65 -33l-33 36q42 47 100 47q43 0 69.5 -22.5t26.5 -61.5v-1q0 -68 -81 -83zM350 867l-93 -117h76l61 54l62 -54h77l-93 117h-90zM514 278h-241l120 280zM338 705l-308 -705h126l72 169h331
l71 -169h130l-308 705h-114z" />
    <glyph glyph-name="uni1EA9" unicode="&#x1ea9;" horiz-adv-x="587" 
d="M446 664l-3 -14h-29l-7 43l3 3q58 1 58 34q0 13 -9.5 21t-25.5 8q-28 0 -52 -27l-27 29q32 37 80 37q34 0 55.5 -18t21.5 -49q0 -54 -65 -67zM249 713l-93 -117h75l62 54l61 -54h77l-93 117h-89zM402 221v-30q0 -50 -39.5 -80.5t-100.5 -30.5q-45 0 -73.5 20.5
t-28.5 57.5v2q0 38 32 60t89 22q67 0 121 -21zM399 0h120v313q0 108 -58 165.5t-174 57.5q-105 0 -201 -44l33 -97q79 33 151 33q63 0 96.5 -29t33.5 -84v-10q-69 22 -146 22q-97 0 -155.5 -44t-58.5 -129v-2q0 -77 54.5 -120t133.5 -43q107 0 171 76v-65z" />
    <glyph glyph-name="uni1EAA" unicode="&#x1eaa;" horiz-adv-x="790" 
d="M30 0l308 705h114l308 -705h-130l-71 169h-331l-72 -169h-126zM273 278h241l-121 280zM257 750l93 117h90l93 -117h-77l-62 54l-61 -54h-76zM315 886l-54 16q15 52 35 76t55 24q25 0 64 -16t51 -16q16 0 25 9t19 31l54 -17q-15 -51 -35 -75t-55 -24q-24 0 -63.5 16
t-51.5 16q-16 0 -25 -9t-19 -31z" />
    <glyph glyph-name="uni1EAB" unicode="&#x1eab;" horiz-adv-x="587" 
d="M519 0h-120v65q-64 -76 -171 -76q-79 0 -133.5 43t-54.5 120v2q0 85 58.5 129t155.5 44q77 0 146 -22v10q0 55 -33.5 84t-96.5 29q-72 0 -151 -33l-33 97q96 44 201 44q116 0 174 -57.5t58 -165.5v-313zM402 191v30q-54 21 -121 21q-57 0 -89 -22t-32 -60v-2
q0 -37 28.5 -57.5t73.5 -20.5q61 0 100.5 30.5t39.5 80.5zM156 596l93 117h89l93 -117h-77l-61 54l-62 -54h-75zM238 744l-43 12q11 41 27 60.5t44 19.5q20 0 51.5 -12.5t41.5 -12.5q13 0 20 7t15 25l43 -14q-12 -41 -28 -60t-44 -19q-19 0 -51 13t-41 13q-13 0 -20.5 -7
t-14.5 -25z" />
    <glyph glyph-name="uni1EAC" unicode="&#x1eac;" horiz-adv-x="790" 
d="M30 0l308 705h114l308 -705h-130l-71 169h-331l-72 -169h-126zM273 278h241l-121 280zM257 750l93 117h90l93 -117h-77l-62 54l-61 -54h-76zM323 -168v110h107v-110h-107z" />
    <glyph glyph-name="uni1EAD" unicode="&#x1ead;" horiz-adv-x="587" 
d="M519 0h-120v65q-64 -76 -171 -76q-79 0 -133.5 43t-54.5 120v2q0 85 58.5 129t155.5 44q77 0 146 -22v10q0 55 -33.5 84t-96.5 29q-72 0 -151 -33l-33 97q96 44 201 44q116 0 174 -57.5t58 -165.5v-313zM402 191v30q-54 21 -121 21q-57 0 -89 -22t-32 -60v-2
q0 -37 28.5 -57.5t73.5 -20.5q61 0 100.5 30.5t39.5 80.5zM156 596l93 117h89l93 -117h-77l-61 54l-62 -54h-75zM222 -168v110h107v-110h-107z" />
    <glyph glyph-name="uni1EAE" unicode="&#x1eae;" horiz-adv-x="790" 
d="M30 0l308 705h114l308 -705h-130l-71 169h-331l-72 -169h-126zM273 278h241l-121 280zM397 750q-59 0 -96 31t-41 87h67q15 -50 70 -50t70 50h67q-4 -56 -41 -87t-96 -31zM358 869l85 131l88 -39l-98 -92h-75z" />
    <glyph glyph-name="uni1EAF" unicode="&#x1eaf;" horiz-adv-x="587" 
d="M519 0h-120v65q-64 -76 -171 -76q-79 0 -133.5 43t-54.5 120v2q0 85 58.5 129t155.5 44q77 0 146 -22v10q0 55 -33.5 84t-96.5 29q-72 0 -151 -33l-33 97q96 44 201 44q116 0 174 -57.5t58 -165.5v-313zM402 191v30q-54 21 -121 21q-57 0 -89 -22t-32 -60v-2
q0 -37 28.5 -57.5t73.5 -20.5q61 0 100.5 30.5t39.5 80.5zM289 597q-59 0 -96 31t-41 87h67q15 -50 70 -50t70 50h67q-4 -56 -41 -87t-96 -31zM253 716l85 131l88 -39l-98 -92h-75z" />
    <glyph glyph-name="uni1EB0" unicode="&#x1eb0;" horiz-adv-x="790" 
d="M30 0l308 705h114l308 -705h-130l-71 169h-331l-72 -169h-126zM273 278h241l-121 280zM397 750q-59 0 -96 31t-41 87h67q15 -50 70 -50t70 50h67q-4 -56 -41 -87t-96 -31zM368 869l-98 92l88 39l85 -131h-75z" />
    <glyph glyph-name="uni1EB1" unicode="&#x1eb1;" horiz-adv-x="587" 
d="M252 846l85 -131h-75l-98 92zM289 597q59 0 96 31t41 87h-67q-15 -50 -70 -50t-70 50h-67q4 -56 41 -87t96 -31zM402 221v-30q0 -50 -39.5 -80.5t-100.5 -30.5q-45 0 -73.5 20.5t-28.5 57.5v2q0 38 32 60t89 22q67 0 121 -21zM399 0h120v313q0 108 -58 165.5t-174 57.5
q-105 0 -201 -44l33 -97q79 33 151 33q63 0 96.5 -29t33.5 -84v-10q-69 22 -146 22q-97 0 -155.5 -44t-58.5 -129v-2q0 -77 54.5 -120t133.5 -43q107 0 171 76v-65z" />
    <glyph glyph-name="uni1EB2" unicode="&#x1eb2;" horiz-adv-x="790" 
d="M413 888l-4 -18h-37l-8 54l3 3q73 3 73 42v1q0 16 -11.5 26t-32.5 10q-34 0 -65 -33l-33 36q42 47 99 47q43 0 70 -22.5t27 -61.5v-1q0 -68 -81 -83zM397 750q59 0 96 31t41 87h-67q-15 -50 -70 -50t-70 50h-67q4 -56 41 -87t96 -31zM514 278h-241l120 280zM338 705
l-308 -705h126l72 169h331l71 -169h130l-308 705h-114z" />
    <glyph glyph-name="uni1EB3" unicode="&#x1eb3;" horiz-adv-x="587" 
d="M296 733l-4 -14h-29l-7 43l3 3q58 1 58 34q0 29 -35 29q-26 0 -52 -27l-26 29q32 37 79 37q35 0 56 -18t21 -49q0 -54 -64 -67zM289 597q59 0 96 31t41 87h-67q-15 -50 -70 -50t-70 50h-67q4 -56 41 -87t96 -31zM402 221v-30q0 -50 -39.5 -80.5t-100.5 -30.5
q-45 0 -73.5 20.5t-28.5 57.5v2q0 38 32 60t89 22q67 0 121 -21zM399 0h120v313q0 108 -58 165.5t-174 57.5q-105 0 -201 -44l33 -97q79 33 151 33q63 0 96.5 -29t33.5 -84v-10q-69 22 -146 22q-97 0 -155.5 -44t-58.5 -129v-2q0 -77 54.5 -120t133.5 -43q107 0 171 76v-65z
" />
    <glyph glyph-name="uni1EB4" unicode="&#x1eb4;" horiz-adv-x="790" 
d="M30 0l308 705h114l308 -705h-130l-71 169h-331l-72 -169h-126zM273 278h241l-121 280zM397 750q-59 0 -96 31t-41 87h67q15 -50 70 -50t70 50h67q-4 -56 -41 -87t-96 -31zM323 889l-43 13q12 41 28 60.5t44 19.5q20 0 51 -12.5t41 -12.5q14 0 21 7t14 25l43 -14
q-11 -41 -27 -60t-44 -19q-20 0 -51.5 12.5t-40.5 12.5q-14 0 -21 -7t-15 -25z" />
    <glyph glyph-name="uni1EB5" unicode="&#x1eb5;" horiz-adv-x="587" 
d="M519 0h-120v65q-64 -76 -171 -76q-79 0 -133.5 43t-54.5 120v2q0 85 58.5 129t155.5 44q77 0 146 -22v10q0 55 -33.5 84t-96.5 29q-72 0 -151 -33l-33 97q96 44 201 44q116 0 174 -57.5t58 -165.5v-313zM402 191v30q-54 21 -121 21q-57 0 -89 -22t-32 -60v-2
q0 -37 28.5 -57.5t73.5 -20.5q61 0 100.5 30.5t39.5 80.5zM289 597q-59 0 -96 31t-41 87h67q15 -50 70 -50t70 50h67q-4 -56 -41 -87t-96 -31zM215 744l-43 12q11 41 27 60.5t44 19.5q20 0 51.5 -12.5t41.5 -12.5q13 0 20 7t15 25l43 -14q-12 -41 -28 -60t-44 -19
q-19 0 -51 13t-41 13q-14 0 -21 -7t-14 -25z" />
    <glyph glyph-name="uni1EB6" unicode="&#x1eb6;" horiz-adv-x="790" 
d="M30 0l308 705h114l308 -705h-130l-71 169h-331l-72 -169h-126zM273 278h241l-121 280zM397 750q-59 0 -96 31t-41 87h67q15 -50 70 -50t70 50h67q-4 -56 -41 -87t-96 -31zM323 -168v110h107v-110h-107z" />
    <glyph glyph-name="uni1EB7" unicode="&#x1eb7;" horiz-adv-x="587" 
d="M519 0h-120v65q-64 -76 -171 -76q-79 0 -133.5 43t-54.5 120v2q0 85 58.5 129t155.5 44q77 0 146 -22v10q0 55 -33.5 84t-96.5 29q-72 0 -151 -33l-33 97q96 44 201 44q116 0 174 -57.5t58 -165.5v-313zM402 191v30q-54 21 -121 21q-57 0 -89 -22t-32 -60v-2
q0 -37 28.5 -57.5t73.5 -20.5q61 0 100.5 30.5t39.5 80.5zM289 597q-59 0 -96 31t-41 87h67q15 -50 70 -50t70 50h67q-4 -56 -41 -87t-96 -31zM222 -168v110h107v-110h-107z" />
    <glyph glyph-name="uni1EB8" unicode="&#x1eb8;" horiz-adv-x="670" 
d="M90 0v700h519v-110h-396v-182h351v-110h-351v-188h401v-110h-524zM296 -168v110h106v-110h-106z" />
    <glyph glyph-name="uni1EB9" unicode="&#x1eb9;" horiz-adv-x="604" 
d="M318 -12q-116 0 -193.5 76.5t-77.5 197.5v2q0 116 73 195.5t185 79.5q120 0 186.5 -81.5t66.5 -202.5q0 -10 -2 -34h-388q10 -64 51 -99t101 -35q77 0 143 63l71 -63q-84 -99 -216 -99zM167 301h271q-6 61 -41 100t-93 39q-56 0 -92.5 -38t-44.5 -101zM252 -168v110h107
v-110h-107z" />
    <glyph glyph-name="uni1EBA" unicode="&#x1eba;" horiz-adv-x="670" 
d="M370 767l-4 -18h-36l-9 53l4 4q72 3 72 42v1q0 16 -11.5 26t-31.5 10q-35 0 -65 -33l-34 35q42 47 100 47q43 0 69.5 -22.5t26.5 -60.5v-1q0 -69 -81 -83zM90 700v-700h524v110h-401v188h351v110h-351v182h396v110h-519z" />
    <glyph glyph-name="uni1EBB" unicode="&#x1ebb;" horiz-adv-x="604" 
d="M332 613l-4 -18h-37l-8 54l3 3q73 3 73 42v1q0 16 -11.5 26t-32.5 10q-33 0 -65 -33l-33 36q42 47 100 47q43 0 69.5 -22.5t26.5 -61.5v-1q0 -68 -81 -83zM438 301h-271q8 63 44.5 101t92.5 38q58 0 93 -39t41 -100zM318 -12q132 0 216 99l-71 63q-66 -63 -143 -63
q-60 0 -101 35t-51 99h388q2 24 2 34q0 121 -66.5 202.5t-186.5 81.5q-112 0 -185 -79.5t-73 -195.5v-2q0 -121 77.5 -197.5t193.5 -76.5z" />
    <glyph glyph-name="uni1EBC" unicode="&#x1ebc;" horiz-adv-x="670" 
d="M90 0v700h519v-110h-396v-182h351v-110h-351v-188h401v-110h-524zM271 742l-53 16q14 51 34.5 75.5t54.5 24.5q25 0 64 -16t52 -16q16 0 25 9t19 31l53 -17q-14 -51 -34.5 -75t-54.5 -24q-24 0 -64 16t-52 16q-16 0 -25 -9t-19 -31z" />
    <glyph glyph-name="uni1EBD" unicode="&#x1ebd;" horiz-adv-x="604" 
d="M318 -12q-116 0 -193.5 76.5t-77.5 197.5v2q0 116 73 195.5t185 79.5q120 0 186.5 -81.5t66.5 -202.5q0 -10 -2 -34h-388q10 -64 51 -99t101 -35q77 0 143 63l71 -63q-84 -99 -216 -99zM167 301h271q-6 61 -41 100t-93 39q-56 0 -92.5 -38t-44.5 -101zM223 584l-54 16
q15 52 35 76t55 24q25 0 64 -16t51 -16q16 0 25 9t19 31l54 -17q-15 -51 -35 -75t-55 -24q-24 0 -63.5 16t-51.5 16q-16 0 -25 -9t-19 -31z" />
    <glyph glyph-name="uni1EBE" unicode="&#x1ebe;" horiz-adv-x="670" 
d="M90 0v700h519v-110h-396v-182h351v-110h-351v-188h401v-110h-524zM209 750l93 117h90l92 -117h-76l-62 54l-62 -54h-75zM465 803l85 131l88 -39l-98 -92h-75z" />
    <glyph glyph-name="uni1EBF" unicode="&#x1ebf;" horiz-adv-x="604" 
d="M318 -12q-116 0 -193.5 76.5t-77.5 197.5v2q0 116 73 195.5t185 79.5q120 0 186.5 -81.5t66.5 -202.5q0 -10 -2 -34h-388q10 -64 51 -99t101 -35q77 0 143 63l71 -63q-84 -99 -216 -99zM167 301h271q-6 61 -41 100t-93 39q-56 0 -92.5 -38t-44.5 -101zM164 596l93 117h90
l92 -117h-76l-62 54l-62 -54h-75zM425 648l85 131l88 -39l-98 -92h-75z" />
    <glyph glyph-name="uni1EC0" unicode="&#x1ec0;" horiz-adv-x="670" 
d="M90 0v700h519v-110h-396v-182h351v-110h-351v-188h401v-110h-524zM209 750l93 117h90l92 -117h-76l-62 54l-62 -54h-75zM152 803l-98 92l88 39l85 -131h-75z" />
    <glyph glyph-name="uni1EC1" unicode="&#x1ec1;" horiz-adv-x="604" 
d="M98 779l85 -131h-75l-98 92zM257 713l-93 -117h75l62 54l62 -54h76l-92 117h-90zM438 301h-271q8 63 44.5 101t92.5 38q58 0 93 -39t41 -100zM318 -12q132 0 216 99l-71 63q-66 -63 -143 -63q-60 0 -101 35t-51 99h388q2 24 2 34q0 121 -66.5 202.5t-186.5 81.5
q-112 0 -185 -79.5t-73 -195.5v-2q0 -121 77.5 -197.5t193.5 -76.5z" />
    <glyph glyph-name="uni1EC2" unicode="&#x1ec2;" horiz-adv-x="670" 
d="M517 822l-4 -18h-37l-8 54l3 3q73 3 73 42v1q0 16 -11.5 26t-32.5 10q-34 0 -65 -33l-33 36q42 47 100 47q43 0 69.5 -22.5t26.5 -61.5v-1q0 -68 -81 -83zM302 867l-93 -117h75l62 54l62 -54h76l-92 117h-90zM90 700v-700h524v110h-401v188h351v110h-351v182h396v110
h-519z" />
    <glyph glyph-name="uni1EC3" unicode="&#x1ec3;" horiz-adv-x="604" 
d="M456 664l-3 -14h-29l-7 43l3 3q58 1 58 34q0 13 -9.5 21t-25.5 8q-28 0 -52 -27l-27 29q32 37 80 37q34 0 55.5 -18t21.5 -49q0 -54 -65 -67zM257 713l-93 -117h75l62 54l62 -54h76l-92 117h-90zM438 301h-271q8 63 44.5 101t92.5 38q58 0 93 -39t41 -100zM318 -12
q132 0 216 99l-71 63q-66 -63 -143 -63q-60 0 -101 35t-51 99h388q2 24 2 34q0 121 -66.5 202.5t-186.5 81.5q-112 0 -185 -79.5t-73 -195.5v-2q0 -121 77.5 -197.5t193.5 -76.5z" />
    <glyph glyph-name="uni1EC4" unicode="&#x1ec4;" horiz-adv-x="670" 
d="M90 0v700h519v-110h-396v-182h351v-110h-351v-188h401v-110h-524zM209 750l93 117h90l92 -117h-76l-62 54l-62 -54h-75zM275 886l-54 16q15 52 35 76t55 24q25 0 64 -16t51 -16q16 0 25 9t19 31l54 -17q-15 -51 -35 -75t-55 -24q-24 0 -63.5 16t-51.5 16q-16 0 -25 -9
t-19 -31z" />
    <glyph glyph-name="uni1EC5" unicode="&#x1ec5;" horiz-adv-x="604" 
d="M318 -12q-116 0 -193.5 76.5t-77.5 197.5v2q0 116 73 195.5t185 79.5q120 0 186.5 -81.5t66.5 -202.5q0 -10 -2 -34h-388q10 -64 51 -99t101 -35q77 0 143 63l71 -63q-84 -99 -216 -99zM167 301h271q-6 61 -41 100t-93 39q-56 0 -92.5 -38t-44.5 -101zM164 596l93 117h90
l92 -117h-76l-62 54l-62 -54h-75zM238 744l-43 12q11 41 27 60.5t44 19.5q20 0 51.5 -12.5t41.5 -12.5q13 0 20 7t15 25l43 -14q-12 -41 -28 -60t-44 -19q-19 0 -51 13t-41 13q-13 0 -20.5 -7t-14.5 -25z" />
    <glyph glyph-name="uni1EC6" unicode="&#x1ec6;" horiz-adv-x="670" 
d="M90 0v700h519v-110h-396v-182h351v-110h-351v-188h401v-110h-524zM209 750l93 117h90l92 -117h-76l-62 54l-62 -54h-75zM296 -168v110h106v-110h-106z" />
    <glyph glyph-name="uni1EC7" unicode="&#x1ec7;" horiz-adv-x="604" 
d="M318 -12q-116 0 -193.5 76.5t-77.5 197.5v2q0 116 73 195.5t185 79.5q120 0 186.5 -81.5t66.5 -202.5q0 -10 -2 -34h-388q10 -64 51 -99t101 -35q77 0 143 63l71 -63q-84 -99 -216 -99zM167 301h271q-6 61 -41 100t-93 39q-56 0 -92.5 -38t-44.5 -101zM164 596l93 117h90
l92 -117h-76l-62 54l-62 -54h-75zM252 -168v110h107v-110h-107z" />
    <glyph glyph-name="uni1EC8" unicode="&#x1ec8;" horiz-adv-x="317" 
d="M174 767l-4 -18h-37l-8 53l3 4q73 3 73 42v1q0 16 -11.5 26t-32.5 10q-34 0 -65 -33l-33 35q41 47 100 47q43 0 69.5 -22.5t26.5 -60.5v-1q0 -68 -81 -83zM97 700v-700h123v700h-123z" />
    <glyph glyph-name="uni1EC9" unicode="&#x1ec9;" horiz-adv-x="286" 
d="M162 613l-4 -18h-37l-8 54l3 3q73 3 73 42v1q0 16 -11.5 26t-32.5 10q-34 0 -65 -33l-33 36q42 47 100 47q43 0 69.5 -22.5t26.5 -61.5v-1q0 -68 -81 -83zM83 528v-528h121v528h-121z" />
    <glyph glyph-name="uni1ECA" unicode="&#x1eca;" horiz-adv-x="317" 
d="M97 0v700h123v-700h-123zM108 -168v110h106v-110h-106z" />
    <glyph glyph-name="uni1ECB" unicode="&#x1ecb;" horiz-adv-x="286" 
d="M78 609v115h130v-115h-130zM83 0v528h121v-528h-121zM83 -168v110h121v-110h-121z" />
    <glyph glyph-name="uni1ECC" unicode="&#x1ecc;" horiz-adv-x="850" 
d="M424 -12q-159 0 -262 105t-103 255v2q0 150 104.5 256t262.5 106q159 0 262 -105t103 -255v-2q0 -150 -104.5 -256t-262.5 -106zM426 101q103 0 169.5 71.5t66.5 175.5v2q0 104 -67.5 176.5t-170.5 72.5t-169.5 -71.5t-66.5 -175.5v-2q0 -104 67.5 -176.5t170.5 -72.5z
M369 -168v110h106v-110h-106z" />
    <glyph glyph-name="uni1ECD" unicode="&#x1ecd;" horiz-adv-x="657" 
d="M327 -12q-120 0 -200 79.5t-80 193.5v2q0 115 81 195.5t201 80.5q121 0 201 -79.5t80 -194.5v-2q0 -113 -81 -194t-202 -81zM329 93q72 0 116 48.5t44 119.5v2q0 71 -46 120.5t-116 49.5q-71 0 -115 -48.5t-44 -119.5v-2q0 -70 46 -120t115 -50zM272 -168v110h107v-110
h-107z" />
    <glyph glyph-name="uni1ECE" unicode="&#x1ece;" horiz-adv-x="850" 
d="M446 767l-4 -18h-37l-8 53l3 4q73 3 73 42v1q0 16 -11.5 26t-32.5 10q-33 0 -65 -33l-33 35q41 47 100 47q43 0 69.5 -22.5t26.5 -60.5v-1q0 -68 -81 -83zM426 101q-103 0 -170.5 72.5t-67.5 176.5v2q0 104 66.5 175.5t169.5 71.5t170.5 -72.5t67.5 -176.5v-2
q0 -104 -66.5 -175.5t-169.5 -71.5zM424 -12q158 0 262.5 106t104.5 256v2q0 150 -103 255t-262 105q-158 0 -262.5 -106t-104.5 -256v-2q0 -150 103 -255t262 -105z" />
    <glyph glyph-name="uni1ECF" unicode="&#x1ecf;" horiz-adv-x="657" 
d="M352 613l-4 -18h-37l-8 54l3 3q73 3 73 42v1q0 16 -11.5 26t-32.5 10q-33 0 -65 -33l-33 36q42 47 100 47q43 0 69.5 -22.5t26.5 -61.5v-1q0 -68 -81 -83zM329 93q-69 0 -115 50t-46 120v2q0 71 44 119.5t115 48.5q70 0 116 -49.5t46 -120.5v-2q0 -71 -44 -119.5
t-116 -48.5zM327 -12q121 0 202 81t81 194v2q0 115 -80 194.5t-201 79.5q-120 0 -201 -80.5t-81 -195.5v-2q0 -114 80 -193.5t200 -79.5z" />
    <glyph glyph-name="uni1ED0" unicode="&#x1ed0;" horiz-adv-x="850" 
d="M424 -12q-159 0 -262 105t-103 255v2q0 150 104.5 256t262.5 106q159 0 262 -105t103 -255v-2q0 -150 -104.5 -256t-262.5 -106zM426 101q103 0 169.5 71.5t66.5 175.5v2q0 104 -67.5 176.5t-170.5 72.5t-169.5 -71.5t-66.5 -175.5v-2q0 -104 67.5 -176.5t170.5 -72.5z
M287 750l93 117h90l93 -117h-77l-62 54l-61 -54h-76zM545 803l85 131l88 -39l-98 -92h-75z" />
    <glyph glyph-name="uni1ED1" unicode="&#x1ed1;" horiz-adv-x="657" 
d="M327 -12q-120 0 -200 79.5t-80 193.5v2q0 115 81 195.5t201 80.5q121 0 201 -79.5t80 -194.5v-2q0 -113 -81 -194t-202 -81zM329 93q72 0 116 48.5t44 119.5v2q0 71 -46 120.5t-116 49.5q-71 0 -115 -48.5t-44 -119.5v-2q0 -70 46 -120t115 -50zM189 596l92 117h90
l93 -117h-77l-62 54l-61 -54h-75zM445 648l85 131l88 -39l-98 -92h-75z" />
    <glyph glyph-name="uni1ED2" unicode="&#x1ed2;" horiz-adv-x="850" 
d="M424 -12q-159 0 -262 105t-103 255v2q0 150 104.5 256t262.5 106q159 0 262 -105t103 -255v-2q0 -150 -104.5 -256t-262.5 -106zM426 101q103 0 169.5 71.5t66.5 175.5v2q0 104 -67.5 176.5t-170.5 72.5t-169.5 -71.5t-66.5 -175.5v-2q0 -104 67.5 -176.5t170.5 -72.5z
M287 750l93 117h90l93 -117h-77l-62 54l-61 -54h-76zM222 803l-98 92l88 39l85 -131h-75z" />
    <glyph glyph-name="uni1ED3" unicode="&#x1ed3;" horiz-adv-x="657" 
d="M128 779l85 -131h-75l-98 92zM281 713l-92 -117h75l61 54l62 -54h77l-93 117h-90zM329 93q-69 0 -115 50t-46 120v2q0 71 44 119.5t115 48.5q70 0 116 -49.5t46 -120.5v-2q0 -71 -44 -119.5t-116 -48.5zM327 -12q121 0 202 81t81 194v2q0 115 -80 194.5t-201 79.5
q-120 0 -201 -80.5t-81 -195.5v-2q0 -114 80 -193.5t200 -79.5z" />
    <glyph glyph-name="uni1ED4" unicode="&#x1ed4;" horiz-adv-x="850" 
d="M597 822l-4 -18h-37l-8 54l3 3q73 3 73 42v1q0 16 -11.5 26t-32.5 10q-34 0 -65 -33l-33 36q42 47 100 47q43 0 69.5 -22.5t26.5 -61.5v-1q0 -68 -81 -83zM380 867l-93 -117h76l61 54l62 -54h77l-93 117h-90zM426 101q-103 0 -170.5 72.5t-67.5 176.5v2q0 104 66.5 175.5
t169.5 71.5t170.5 -72.5t67.5 -176.5v-2q0 -104 -66.5 -175.5t-169.5 -71.5zM424 -12q158 0 262.5 106t104.5 256v2q0 150 -103 255t-262 105q-158 0 -262.5 -106t-104.5 -256v-2q0 -150 103 -255t262 -105z" />
    <glyph glyph-name="uni1ED5" unicode="&#x1ed5;" horiz-adv-x="657" 
d="M476 664l-3 -14h-29l-7 43l3 3q58 1 58 34q0 13 -9.5 21t-25.5 8q-28 0 -52 -27l-27 29q32 37 80 37q34 0 55.5 -18t21.5 -49q0 -54 -65 -67zM281 713l-92 -117h75l61 54l62 -54h77l-93 117h-90zM329 93q-69 0 -115 50t-46 120v2q0 71 44 119.5t115 48.5q70 0 116 -49.5
t46 -120.5v-2q0 -71 -44 -119.5t-116 -48.5zM327 -12q121 0 202 81t81 194v2q0 115 -80 194.5t-201 79.5q-120 0 -201 -80.5t-81 -195.5v-2q0 -114 80 -193.5t200 -79.5z" />
    <glyph glyph-name="uni1ED6" unicode="&#x1ed6;" horiz-adv-x="850" 
d="M424 -12q-159 0 -262 105t-103 255v2q0 150 104.5 256t262.5 106q159 0 262 -105t103 -255v-2q0 -150 -104.5 -256t-262.5 -106zM426 101q103 0 169.5 71.5t66.5 175.5v2q0 104 -67.5 176.5t-170.5 72.5t-169.5 -71.5t-66.5 -175.5v-2q0 -104 67.5 -176.5t170.5 -72.5z
M287 750l93 117h90l93 -117h-77l-62 54l-61 -54h-76zM355 886l-54 16q15 52 35 76t55 24q25 0 64 -16t51 -16q16 0 25 9t19 31l54 -17q-15 -51 -35 -75t-55 -24q-24 0 -63.5 16t-51.5 16q-16 0 -25 -9t-19 -31z" />
    <glyph glyph-name="uni1ED7" unicode="&#x1ed7;" horiz-adv-x="657" 
d="M327 -12q-120 0 -200 79.5t-80 193.5v2q0 115 81 195.5t201 80.5q121 0 201 -79.5t80 -194.5v-2q0 -113 -81 -194t-202 -81zM329 93q72 0 116 48.5t44 119.5v2q0 71 -46 120.5t-116 49.5q-71 0 -115 -48.5t-44 -119.5v-2q0 -70 46 -120t115 -50zM189 596l92 117h90
l93 -117h-77l-62 54l-61 -54h-75zM268 744l-43 12q11 41 27 60.5t44 19.5q20 0 51.5 -12.5t41.5 -12.5q13 0 20 7t15 25l43 -14q-12 -41 -28 -60t-44 -19q-19 0 -51 13t-41 13q-13 0 -20.5 -7t-14.5 -25z" />
    <glyph glyph-name="uni1ED8" unicode="&#x1ed8;" horiz-adv-x="850" 
d="M424 -12q-159 0 -262 105t-103 255v2q0 150 104.5 256t262.5 106q159 0 262 -105t103 -255v-2q0 -150 -104.5 -256t-262.5 -106zM426 101q103 0 169.5 71.5t66.5 175.5v2q0 104 -67.5 176.5t-170.5 72.5t-169.5 -71.5t-66.5 -175.5v-2q0 -104 67.5 -176.5t170.5 -72.5z
M287 750l93 117h90l93 -117h-77l-62 54l-61 -54h-76zM369 -168v110h106v-110h-106z" />
    <glyph glyph-name="uni1ED9" unicode="&#x1ed9;" horiz-adv-x="657" 
d="M327 -12q-120 0 -200 79.5t-80 193.5v2q0 115 81 195.5t201 80.5q121 0 201 -79.5t80 -194.5v-2q0 -113 -81 -194t-202 -81zM329 93q72 0 116 48.5t44 119.5v2q0 71 -46 120.5t-116 49.5q-71 0 -115 -48.5t-44 -119.5v-2q0 -70 46 -120t115 -50zM189 596l92 117h90
l93 -117h-77l-62 54l-61 -54h-75zM272 -168v110h107v-110h-107z" />
    <glyph glyph-name="uni1EDA" unicode="&#x1eda;" horiz-adv-x="850" 
d="M457 750h-75l85 131l88 -39zM765 678h45q9 -130 -64 -149q45 -82 45 -177v-2q0 -150 -104.5 -256t-262.5 -106q-159 0 -262 105t-103 255v2q0 150 104.5 256t262.5 106q162 0 266 -109q5 -1 14 -1q55 0 59 76zM426 101q103 0 169.5 71.5t66.5 175.5v2q0 104 -67.5 176.5
t-170.5 72.5t-169.5 -71.5t-66.5 -175.5v-2q0 -104 67.5 -176.5t170.5 -72.5z" />
    <glyph glyph-name="uni1EDB" unicode="&#x1edb;" horiz-adv-x="657" 
d="M364 595h-75l85 131l88 -39zM576 545h44q8 -112 -46 -142q36 -64 36 -138v-2q0 -113 -81 -194t-202 -81q-120 0 -200 79.5t-80 193.5v2q0 115 81 195.5t201 80.5q113 0 191 -70q50 1 56 76zM329 93q72 0 116 48.5t44 119.5v2q0 71 -46 120.5t-116 49.5q-71 0 -115 -48.5
t-44 -119.5v-2q0 -70 46 -120t115 -50z" />
    <glyph glyph-name="uni1EDC" unicode="&#x1edc;" horiz-adv-x="850" 
d="M464 750h-75l-98 92l88 39zM765 678h45q9 -130 -64 -149q45 -82 45 -177v-2q0 -150 -104.5 -256t-262.5 -106q-159 0 -262 105t-103 255v2q0 150 104.5 256t262.5 106q162 0 266 -109q5 -1 14 -1q55 0 59 76zM426 101q103 0 169.5 71.5t66.5 175.5v2q0 104 -67.5 176.5
t-170.5 72.5t-169.5 -71.5t-66.5 -175.5v-2q0 -104 67.5 -176.5t170.5 -72.5z" />
    <glyph glyph-name="uni1EDD" unicode="&#x1edd;" horiz-adv-x="657" 
d="M366 594h-75l-98 92l88 39zM576 545h44q8 -112 -46 -142q36 -64 36 -138v-2q0 -113 -81 -194t-202 -81q-120 0 -200 79.5t-80 193.5v2q0 115 81 195.5t201 80.5q113 0 191 -70q50 1 56 76zM329 93q72 0 116 48.5t44 119.5v2q0 71 -46 120.5t-116 49.5q-71 0 -115 -48.5
t-44 -119.5v-2q0 -70 46 -120t115 -50z" />
    <glyph glyph-name="uni1EDE" unicode="&#x1ede;" horiz-adv-x="850" 
d="M446 767l-4 -18h-37l-8 53l3 4q73 3 73 42v1q0 16 -11.5 26t-32.5 10q-33 0 -65 -33l-33 35q41 47 100 47q43 0 69.5 -22.5t26.5 -60.5v-1q0 -68 -81 -83zM765 678h45q9 -130 -64 -149q45 -82 45 -177v-2q0 -150 -104.5 -256t-262.5 -106q-159 0 -262 105t-103 255v2
q0 150 104.5 256t262.5 106q162 0 266 -109q5 -1 14 -1q55 0 59 76zM426 101q103 0 169.5 71.5t66.5 175.5v2q0 104 -67.5 176.5t-170.5 72.5t-169.5 -71.5t-66.5 -175.5v-2q0 -104 67.5 -176.5t170.5 -72.5z" />
    <glyph glyph-name="uni1EDF" unicode="&#x1edf;" horiz-adv-x="657" 
d="M352 613l-4 -18h-37l-8 54l3 3q73 3 73 42v1q0 16 -11.5 26t-32.5 10q-33 0 -65 -33l-33 36q42 47 100 47q43 0 69.5 -22.5t26.5 -61.5v-1q0 -68 -81 -83zM576 545h44q8 -112 -46 -142q36 -64 36 -138v-2q0 -113 -81 -194t-202 -81q-120 0 -200 79.5t-80 193.5v2
q0 115 81 195.5t201 80.5q113 0 191 -70q50 1 56 76zM329 93q72 0 116 48.5t44 119.5v2q0 71 -46 120.5t-116 49.5q-71 0 -115 -48.5t-44 -119.5v-2q0 -70 46 -120t115 -50z" />
    <glyph glyph-name="uni1EE0" unicode="&#x1ee0;" horiz-adv-x="850" 
d="M327 742l-53 16q14 51 34.5 75.5t54.5 24.5q25 0 64 -16t52 -16q16 0 25 9t19 31l53 -17q-14 -51 -34.5 -75t-54.5 -24q-24 0 -64 16t-52 16q-16 0 -25 -9t-19 -31zM765 678h45q9 -130 -64 -149q45 -82 45 -177v-2q0 -150 -104.5 -256t-262.5 -106q-159 0 -262 105
t-103 255v2q0 150 104.5 256t262.5 106q162 0 266 -109q5 -1 14 -1q55 0 59 76zM426 101q103 0 169.5 71.5t66.5 175.5v2q0 104 -67.5 176.5t-170.5 72.5t-169.5 -71.5t-66.5 -175.5v-2q0 -104 67.5 -176.5t170.5 -72.5z" />
    <glyph glyph-name="uni1EE1" unicode="&#x1ee1;" horiz-adv-x="657" 
d="M244 584l-54 16q15 52 35 76t55 24q24 0 63 -16t52 -16q16 0 25 9t19 31l54 -17q-15 -51 -35 -75t-55 -24q-24 0 -63.5 16t-51.5 16q-16 0 -25 -9t-19 -31zM576 545h44q8 -112 -46 -142q36 -64 36 -138v-2q0 -113 -81 -194t-202 -81q-120 0 -200 79.5t-80 193.5v2
q0 115 81 195.5t201 80.5q113 0 191 -70q50 1 56 76zM329 93q72 0 116 48.5t44 119.5v2q0 71 -46 120.5t-116 49.5q-71 0 -115 -48.5t-44 -119.5v-2q0 -70 46 -120t115 -50z" />
    <glyph glyph-name="uni1EE2" unicode="&#x1ee2;" horiz-adv-x="850" 
d="M475 -168h-106v110h106v-110zM765 678h45q9 -130 -64 -149q45 -82 45 -177v-2q0 -150 -104.5 -256t-262.5 -106q-159 0 -262 105t-103 255v2q0 150 104.5 256t262.5 106q162 0 266 -109q5 -1 14 -1q55 0 59 76zM426 101q103 0 169.5 71.5t66.5 175.5v2q0 104 -67.5 176.5
t-170.5 72.5t-169.5 -71.5t-66.5 -175.5v-2q0 -104 67.5 -176.5t170.5 -72.5z" />
    <glyph glyph-name="uni1EE3" unicode="&#x1ee3;" horiz-adv-x="657" 
d="M379 -168h-107v110h107v-110zM576 545h44q8 -112 -46 -142q36 -64 36 -138v-2q0 -113 -81 -194t-202 -81q-120 0 -200 79.5t-80 193.5v2q0 115 81 195.5t201 80.5q113 0 191 -70q50 1 56 76zM329 93q72 0 116 48.5t44 119.5v2q0 71 -46 120.5t-116 49.5q-71 0 -115 -48.5
t-44 -119.5v-2q0 -70 46 -120t115 -50z" />
    <glyph glyph-name="uni1EE4" unicode="&#x1ee4;" horiz-adv-x="757" 
d="M377 -11q-139 0 -218.5 79.5t-79.5 228.5v403h123v-398q0 -97 46.5 -148.5t130.5 -51.5q83 0 129.5 50t46.5 145v403h123v-397q0 -153 -80 -233.5t-221 -80.5zM329 -168v110h106v-110h-106z" />
    <glyph glyph-name="uni1EE5" unicode="&#x1ee5;" horiz-adv-x="620" 
d="M258 -11q-89 0 -138.5 54.5t-49.5 148.5v336h121v-300q0 -62 29.5 -95.5t83.5 -33.5t86.5 35t32.5 96v298h121v-528h-121v82q-64 -93 -165 -93zM262 -168v110h107v-110h-107z" />
    <glyph glyph-name="uni1EE6" unicode="&#x1ee6;" horiz-adv-x="757" 
d="M396 767l-4 -18h-37l-8 53l3 4q73 3 73 42v1q0 16 -11.5 26t-32.5 10q-33 0 -65 -33l-33 35q41 47 100 47q43 0 69.5 -22.5t26.5 -60.5v-1q0 -68 -81 -83zM377 -11q141 0 221 80.5t80 233.5v397h-123v-403q0 -95 -46.5 -145t-129.5 -50q-84 0 -130.5 51.5t-46.5 148.5
v398h-123v-403q0 -149 79.5 -228.5t218.5 -79.5z" />
    <glyph glyph-name="uni1EE7" unicode="&#x1ee7;" horiz-adv-x="620" 
d="M322 613l-4 -18h-37l-8 54l3 3q73 3 73 42v1q0 16 -11.5 26t-32.5 10q-33 0 -65 -33l-33 36q42 47 100 47q43 0 69.5 -22.5t26.5 -61.5v-1q0 -68 -81 -83zM258 -11q101 0 165 93v-82h121v528h-121v-298q0 -61 -32.5 -96t-86.5 -35t-83.5 33.5t-29.5 95.5v300h-121v-336
q0 -94 49.5 -148.5t138.5 -54.5z" />
    <glyph glyph-name="uni1EE8" unicode="&#x1ee8;" horiz-adv-x="757" 
d="M406 750h-75l85 131l88 -39zM755 707h45q4 -74 -18.5 -113t-67.5 -39q-20 0 -36 6v-258q0 -153 -80 -233.5t-221 -80.5q-139 0 -218.5 79.5t-79.5 228.5v403h123v-398q0 -97 46.5 -148.5t130.5 -51.5q83 0 129.5 50t46.5 145v403h123v-68q6 -1 18 -1q55 0 59 76z" />
    <glyph glyph-name="uni1EE9" unicode="&#x1ee9;" horiz-adv-x="620" 
d="M334 595h-75l85 131l88 -39zM611 532h45q4 -74 -18.5 -113t-67.5 -39q-14 0 -26 3v-383h-121v82q-64 -93 -165 -93q-89 0 -138.5 54.5t-49.5 148.5v336h121v-300q0 -62 29.5 -95.5t83.5 -33.5t86.5 35t32.5 96v298h121v-72h8q55 0 59 76z" />
    <glyph glyph-name="uni1EEA" unicode="&#x1eea;" horiz-adv-x="757" 
d="M432 750h-75l-98 92l88 39zM755 707h45q4 -74 -18.5 -113t-67.5 -39q-20 0 -36 6v-258q0 -153 -80 -233.5t-221 -80.5q-139 0 -218.5 79.5t-79.5 228.5v403h123v-398q0 -97 46.5 -148.5t130.5 -51.5q83 0 129.5 50t46.5 145v403h123v-68q6 -1 18 -1q55 0 59 76z" />
    <glyph glyph-name="uni1EEB" unicode="&#x1eeb;" horiz-adv-x="620" 
d="M359 594h-75l-98 92l88 39zM611 532h45q4 -74 -18.5 -113t-67.5 -39q-14 0 -26 3v-383h-121v82q-64 -93 -165 -93q-89 0 -138.5 54.5t-49.5 148.5v336h121v-300q0 -62 29.5 -95.5t83.5 -33.5t86.5 35t32.5 96v298h121v-72h8q55 0 59 76z" />
    <glyph glyph-name="uni1EEC" unicode="&#x1eec;" horiz-adv-x="757" 
d="M396 767l-4 -18h-37l-8 53l3 4q73 3 73 42v1q0 16 -11.5 26t-32.5 10q-33 0 -65 -33l-33 35q41 47 100 47q43 0 69.5 -22.5t26.5 -60.5v-1q0 -68 -81 -83zM755 707h45q4 -74 -18.5 -113t-67.5 -39q-20 0 -36 6v-258q0 -153 -80 -233.5t-221 -80.5q-139 0 -218.5 79.5
t-79.5 228.5v403h123v-398q0 -97 46.5 -148.5t130.5 -51.5q83 0 129.5 50t46.5 145v403h123v-68q6 -1 18 -1q55 0 59 76z" />
    <glyph glyph-name="uni1EED" unicode="&#x1eed;" horiz-adv-x="620" 
d="M322 613l-4 -18h-37l-8 54l3 3q73 3 73 42v1q0 16 -11.5 26t-32.5 10q-33 0 -65 -33l-33 36q42 47 100 47q43 0 69.5 -22.5t26.5 -61.5v-1q0 -68 -81 -83zM611 532h45q4 -74 -18.5 -113t-67.5 -39q-14 0 -26 3v-383h-121v82q-64 -93 -165 -93q-89 0 -138.5 54.5
t-49.5 148.5v336h121v-300q0 -62 29.5 -95.5t83.5 -33.5t86.5 35t32.5 96v298h121v-72h8q55 0 59 76z" />
    <glyph glyph-name="uni1EEE" unicode="&#x1eee;" horiz-adv-x="757" 
d="M291 742l-53 16q14 51 34.5 75.5t54.5 24.5q25 0 64 -16t52 -16q16 0 25 9t19 31l53 -17q-14 -51 -34.5 -75t-54.5 -24q-24 0 -64 16t-52 16q-16 0 -25 -9t-19 -31zM755 707h45q4 -74 -18.5 -113t-67.5 -39q-20 0 -36 6v-258q0 -153 -80 -233.5t-221 -80.5
q-139 0 -218.5 79.5t-79.5 228.5v403h123v-398q0 -97 46.5 -148.5t130.5 -51.5q83 0 129.5 50t46.5 145v403h123v-68q6 -1 18 -1q55 0 59 76z" />
    <glyph glyph-name="uni1EEF" unicode="&#x1eef;" horiz-adv-x="620" 
d="M203 584l-54 16q15 52 35 76t55 24q25 0 64 -16t51 -16q16 0 25 9t19 31l54 -17q-15 -51 -35 -75t-55 -24q-24 0 -63.5 16t-51.5 16q-16 0 -25 -9t-19 -31zM611 532h45q4 -74 -18.5 -113t-67.5 -39q-14 0 -26 3v-383h-121v82q-64 -93 -165 -93q-89 0 -138.5 54.5
t-49.5 148.5v336h121v-300q0 -62 29.5 -95.5t83.5 -33.5t86.5 35t32.5 96v298h121v-72h8q55 0 59 76z" />
    <glyph glyph-name="uni1EF0" unicode="&#x1ef0;" horiz-adv-x="757" 
d="M435 -168h-106v110h106v-110zM755 707h45q4 -74 -18.5 -113t-67.5 -39q-20 0 -36 6v-258q0 -153 -80 -233.5t-221 -80.5q-139 0 -218.5 79.5t-79.5 228.5v403h123v-398q0 -97 46.5 -148.5t130.5 -51.5q83 0 129.5 50t46.5 145v403h123v-68q6 -1 18 -1q55 0 59 76z" />
    <glyph glyph-name="uni1EF1" unicode="&#x1ef1;" horiz-adv-x="620" 
d="M369 -168h-107v110h107v-110zM611 532h45q4 -74 -18.5 -113t-67.5 -39q-14 0 -26 3v-383h-121v82q-64 -93 -165 -93q-89 0 -138.5 54.5t-49.5 148.5v336h121v-300q0 -62 29.5 -95.5t83.5 -33.5t86.5 35t32.5 96v298h121v-72h8q55 0 59 76z" />
    <glyph glyph-name="Ygrave" unicode="&#x1ef2;" horiz-adv-x="716" 
d="M296 0v276l-278 424h145l196 -310l198 310h141l-278 -421v-279h-124zM366 750l-98 92l88 39l85 -131h-75z" />
    <glyph glyph-name="ygrave" unicode="&#x1ef3;" horiz-adv-x="596" 
d="M184 -163q-66 0 -125 32l41 90q38 -20 71 -20q27 0 43.5 13t31.5 48l-220 528h129l150 -392l137 392h126l-210 -543q-32 -81 -71 -114.5t-103 -33.5zM271 594l-98 92l88 39l85 -131h-75z" />
    <glyph glyph-name="uni1EF4" unicode="&#x1ef4;" horiz-adv-x="716" 
d="M296 0v276l-278 424h145l196 -310l198 310h141l-278 -421v-279h-124zM309 -168v110h106v-110h-106z" />
    <glyph glyph-name="uni1EF5" unicode="&#x1ef5;" horiz-adv-x="596" 
d="M184 -163q-66 0 -125 32l41 90q38 -20 71 -20q27 0 43.5 13t31.5 48l-220 528h129l150 -392l137 392h126l-210 -543q-32 -81 -71 -114.5t-103 -33.5zM372 -168v110h107v-110h-107z" />
    <glyph glyph-name="uni1EF6" unicode="&#x1ef6;" horiz-adv-x="716" 
d="M376 767l-4 -18h-37l-8 53l3 4q73 3 73 42v1q0 16 -11.5 26t-32.5 10q-33 0 -65 -33l-33 35q41 47 100 47q43 0 69.5 -22.5t26.5 -60.5v-1q0 -68 -81 -83zM296 276v-276h124v279l278 421h-141l-198 -310l-196 310h-145z" />
    <glyph glyph-name="uni1EF7" unicode="&#x1ef7;" horiz-adv-x="596" 
d="M312 613l-4 -18h-37l-8 54l3 3q73 3 73 42v1q0 16 -11.5 26t-32.5 10q-33 0 -65 -33l-33 36q42 47 100 47q43 0 69.5 -22.5t26.5 -61.5v-1q0 -68 -81 -83zM184 -163q64 0 103 33.5t71 114.5l210 543h-126l-137 -392l-150 392h-129l220 -528q-15 -35 -31.5 -48t-43.5 -13
q-33 0 -71 20l-41 -90q59 -32 125 -32z" />
    <glyph glyph-name="uni1EF8" unicode="&#x1ef8;" horiz-adv-x="716" 
d="M296 0v276l-278 424h145l196 -310l198 310h141l-278 -421v-279h-124zM271 742l-53 16q14 51 34.5 75.5t54.5 24.5q25 0 64 -16t52 -16q16 0 25 9t19 31l53 -17q-14 -51 -34.5 -75t-54.5 -24q-24 0 -64 16t-52 16q-16 0 -25 -9t-19 -31z" />
    <glyph glyph-name="uni1EF9" unicode="&#x1ef9;" horiz-adv-x="596" 
d="M184 -163q-66 0 -125 32l41 90q38 -20 71 -20q27 0 43.5 13t31.5 48l-220 528h129l150 -392l137 392h126l-210 -543q-32 -81 -71 -114.5t-103 -33.5zM203 584l-54 16q15 52 35 76t55 24q25 0 64 -16t51 -16q16 0 25 9t19 31l54 -17q-15 -51 -35 -75t-55 -24
q-24 0 -63.5 16t-51.5 16q-16 0 -25 -9t-19 -31z" />
    <glyph glyph-name="endash" unicode="&#x2013;" horiz-adv-x="528" 
d="M56 249v115h416v-115h-416z" />
    <glyph glyph-name="emdash" unicode="&#x2014;" horiz-adv-x="898" 
d="M56 249v115h786v-115h-786z" />
    <glyph glyph-name="quoteleft" unicode="&#x2018;" horiz-adv-x="269" 
d="M63 422v117q0 82 38 121t116 45l13 -52q-92 -17 -85 -93h51v-138h-133z" />
    <glyph glyph-name="quoteright" unicode="&#x2019;" horiz-adv-x="269" 
d="M52 417l-13 52q93 17 85 94h-51v137h133v-117q0 -82 -38 -121t-116 -45z" />
    <glyph glyph-name="quotesinglbase" unicode="&#x201a;" horiz-adv-x="269" 
d="M47 -145l-13 51q92 18 85 94h-51v137h133v-116q0 -82 -38 -121t-116 -45z" />
    <glyph glyph-name="quotedblleft" unicode="&#x201c;" horiz-adv-x="501" 
d="M295 422v117q0 82 38 121t116 45l13 -52q-92 -17 -86 -93h52v-138h-133zM63 422v117q0 82 38 121t116 45l13 -52q-92 -17 -85 -93h51v-138h-133z" />
    <glyph glyph-name="quotedblright" unicode="&#x201d;" horiz-adv-x="501" 
d="M284 417l-13 52q93 17 85 94h-51v137h133v-117q0 -82 -38 -121t-116 -45zM52 417l-13 52q93 17 85 94h-51v137h133v-117q0 -82 -38 -121t-116 -45z" />
    <glyph glyph-name="quotedblbase" unicode="&#x201e;" horiz-adv-x="501" 
d="M279 -145l-13 51q92 18 85 94h-51v137h133v-116q0 -82 -38 -121t-116 -45zM47 -145l-13 51q92 18 85 94h-51v137h133v-116q0 -82 -38 -121t-116 -45z" />
    <glyph glyph-name="dagger" unicode="&#x2020;" horiz-adv-x="410" 
d="M169 238l9 275l-122 -9v71l121 -9l-12 134h80l-12 -134l121 9v-71l-122 9l9 -275h-72z" />
    <glyph glyph-name="daggerdbl" unicode="&#x2021;" horiz-adv-x="430" 
d="M175 0l12 134l-121 -9v71l121 -9l-8 163l8 163l-121 -9v71l121 -9l-12 134h80l-12 -134l121 9v-71l-121 9l8 -163l-8 -163l121 9v-71l-121 9l12 -134h-80z" />
    <glyph glyph-name="bullet" unicode="&#x2022;" horiz-adv-x="491" 
d="M245 211q-58 0 -99.5 41t-41.5 99v2q0 57 42 98.5t99 41.5t99.5 -41.5t42.5 -98.5v-2q0 -58 -41.5 -99t-100.5 -41z" />
    <glyph glyph-name="ellipsis" unicode="&#x2026;" horiz-adv-x="792" 
d="M594 0v134h130v-134h-130zM331 0v134h130v-134h-130zM68 0v134h130v-134h-130z" />
    <glyph glyph-name="perthousand" unicode="&#x2030;" horiz-adv-x="1228" 
d="M212 350q-72 0 -118 51.5t-46 125.5v2q0 74 46.5 126.5t119.5 52.5q72 0 118 -51.5t46 -125.5v-2q0 -74 -46.5 -126.5t-119.5 -52.5zM119 0l512 700h99l-512 -700h-99zM1014 -8q-73 0 -118.5 51.5t-45.5 125.5v2q0 74 46.5 126.5t119.5 52.5q72 0 118 -51.5t46 -125.5v-2
q0 -74 -46.5 -126.5t-119.5 -52.5zM635 -8q-72 0 -118 51.5t-46 125.5v2q0 74 46.5 126.5t119.5 52.5q72 0 118 -51.5t46 -125.5v-2q0 -74 -46.5 -126.5t-119.5 -52.5zM214 427q34 0 54.5 28.5t20.5 71.5v2q0 43 -22 72.5t-55 29.5q-34 0 -54.5 -28.5t-20.5 -71.5v-2
q0 -43 22 -72.5t55 -29.5zM1016 69q34 0 54.5 28.5t20.5 71.5v2q0 43 -22 72.5t-55 29.5q-34 0 -54.5 -28.5t-20.5 -71.5v-2q0 -43 22 -72.5t55 -29.5zM637 69q34 0 54.5 28.5t20.5 71.5v2q0 43 -22 72.5t-55 29.5q-34 0 -54.5 -28.5t-20.5 -71.5v-2q0 -43 22 -72.5
t55 -29.5z" />
    <glyph glyph-name="guilsinglleft" unicode="&#x2039;" horiz-adv-x="354" 
d="M210 41l-166 219v8l166 220l92 -47l-132 -176l132 -177z" />
    <glyph glyph-name="guilsinglright" unicode="&#x203a;" horiz-adv-x="354" 
d="M145 41l-92 46l132 176l-132 177l92 48l165 -220v-8z" />
    <glyph glyph-name="fraction" unicode="&#x2044;" horiz-adv-x="459" 
d="M-70 -98l467 856h110l-467 -856h-110z" />
    <glyph glyph-name="zero.superior" unicode="&#x2070;" 
 />
    <glyph glyph-name="four.superior" unicode="&#x2074;" 
 />
    <glyph glyph-name="five.superior" unicode="&#x2075;" 
 />
    <glyph glyph-name="six.superior" unicode="&#x2076;" 
 />
    <glyph glyph-name="seven.superior" unicode="&#x2077;" 
 />
    <glyph glyph-name="eight.superior" unicode="&#x2078;" 
 />
    <glyph glyph-name="nine.superior" unicode="&#x2079;" 
 />
    <glyph glyph-name="parenleft.superior" unicode="&#x207d;" 
 />
    <glyph glyph-name="parenright.superior" unicode="&#x207e;" 
 />
    <glyph glyph-name="zero.inferior" unicode="&#x2080;" 
 />
    <glyph glyph-name="one.inferior" unicode="&#x2081;" 
 />
    <glyph glyph-name="two.inferior" unicode="&#x2082;" 
 />
    <glyph glyph-name="three.inferior" unicode="&#x2083;" 
 />
    <glyph glyph-name="four.inferior" unicode="&#x2084;" 
 />
    <glyph glyph-name="five.inferior" unicode="&#x2085;" 
 />
    <glyph glyph-name="six.inferior" unicode="&#x2086;" 
 />
    <glyph glyph-name="seven.inferior" unicode="&#x2087;" 
 />
    <glyph glyph-name="eight.inferior" unicode="&#x2088;" 
 />
    <glyph glyph-name="nine.inferior" unicode="&#x2089;" 
 />
    <glyph glyph-name="parenleft.inferior" unicode="&#x208d;" 
 />
    <glyph glyph-name="parenright.inferior" unicode="&#x208e;" 
 />
    <glyph glyph-name="afii61289" unicode="&#x2113;" 
 />
    <glyph glyph-name="afii61352" unicode="&#x2116;" 
 />
    <glyph glyph-name="trademark" unicode="&#x2122;" horiz-adv-x="690" 
d="M341 392v308h63l93 -146l93 146h61v-308h-57v219l-95 -148h-6l-95 148v-219h-57zM121 392v254h-95v54h249v-54h-95v-254h-59z" />
    <glyph glyph-name="Omega" unicode="&#x2126;" 
 />
    <glyph glyph-name="estimated" unicode="&#x212e;" 
 />
    <glyph glyph-name="partialdiff" unicode="&#x2202;" 
 />
    <glyph glyph-name="Delta" unicode="&#x2206;" 
 />
    <glyph glyph-name="product" unicode="&#x220f;" 
 />
    <glyph glyph-name="summation" unicode="&#x2211;" 
 />
    <glyph glyph-name="minus" unicode="&#x2212;" 
 />
    <glyph glyph-name="uni2215" unicode="&#x2215;" 
 />
    <glyph glyph-name="uni2219" unicode="&#x2219;" 
 />
    <glyph glyph-name="radical" unicode="&#x221a;" 
 />
    <glyph glyph-name="infinity" unicode="&#x221e;" 
 />
    <glyph glyph-name="integral" unicode="&#x222b;" 
 />
    <glyph glyph-name="approxequal" unicode="&#x2248;" 
 />
    <glyph glyph-name="notequal" unicode="&#x2260;" 
 />
    <glyph glyph-name="lessequal" unicode="&#x2264;" 
 />
    <glyph glyph-name="greaterequal" unicode="&#x2265;" 
 />
    <glyph glyph-name="lozenge" unicode="&#x25ca;" 
 />
    <glyph glyph-name="G_tildecomb" unicode="&#xe000;" 
 />
    <glyph glyph-name="M_uni0302" unicode="&#xe001;" 
 />
    <glyph glyph-name="N_uni0302" unicode="&#xe002;" 
 />
    <glyph glyph-name="f_f_j" unicode="&#xe003;" 
 />
    <glyph glyph-name="f_j" unicode="&#xe004;" 
 />
    <glyph glyph-name="g_tildecomb" unicode="&#xe005;" 
 />
    <glyph glyph-name="m_uni0302" unicode="&#xe006;" 
 />
    <glyph glyph-name="n_uni0302" unicode="&#xe007;" 
 />
    <glyph glyph-name="zero.slashfitted" unicode="&#xe008;" 
 />
    <glyph glyph-name="fi" unicode="&#xe016;" 
 />
    <glyph glyph-name="fl" unicode="&#xe017;" 
 />
    <glyph glyph-name="onesuperior" unicode="&#xe018;" 
 />
    <glyph glyph-name="twosuperior" unicode="&#xe019;" 
 />
    <glyph glyph-name="threesuperior" unicode="&#xe020;" 
 />
    <glyph glyph-name="breve_acutecomb" unicode="&#xe300;" 
 />
    <glyph glyph-name="breve_gravecomb" unicode="&#xe301;" 
 />
    <glyph glyph-name="breve_hookabovecomb" unicode="&#xe302;" 
 />
    <glyph glyph-name="breve_tildecomb" unicode="&#xe303;" 
 />
    <glyph glyph-name="circumflex_acutecomb" unicode="&#xe304;" 
 />
    <glyph glyph-name="circumflex_gravecomb" unicode="&#xe305;" 
 />
    <glyph glyph-name="circumflex_hookabovecomb" unicode="&#xe306;" 
 />
    <glyph glyph-name="circumflex_tildecomb" unicode="&#xe307;" 
 />
    <glyph glyph-name="space_dotbelowcomb" unicode="&#xe308;" 
 />
    <glyph glyph-name="space_hookabovecomb" unicode="&#xe309;" 
 />
    <glyph glyph-name="space_uni031B" unicode="&#xe310;" 
 />
    <glyph glyph-name="breve_acutecomb.cap" unicode="&#xe311;" 
 />
    <glyph glyph-name="breve_gravecomb.cap" unicode="&#xe312;" 
 />
    <glyph glyph-name="breve_hookabovecomb.cap" unicode="&#xe313;" 
 />
    <glyph glyph-name="breve_tildecomb.cap" unicode="&#xe314;" 
 />
    <glyph glyph-name="circumflex_acutecomb.cap" unicode="&#xe315;" 
 />
    <glyph glyph-name="circumflex_gravecomb.cap" unicode="&#xe316;" 
 />
    <glyph glyph-name="circumflex_hookabovecomb.cap" unicode="&#xe317;" 
 />
    <glyph glyph-name="circumflex_tildecomb.cap" unicode="&#xe318;" 
 />
    <glyph glyph-name="space_dotbelowcomb.cap" unicode="&#xe319;" 
 />
    <glyph glyph-name="space_hookabovecomb.cap" unicode="&#xe320;" 
 />
    <glyph glyph-name="space_uni031B.cap" unicode="&#xe321;" 
 />
    <glyph glyph-name="dotaccent.cap" unicode="&#xefed;" 
 />
    <glyph glyph-name="breve.cap" unicode="&#xefee;" 
 />
    <glyph glyph-name="ogonek.cap" unicode="&#xeff1;" 
 />
    <glyph glyph-name="cedilla.cap" unicode="&#xeff2;" 
 />
    <glyph glyph-name="ring.cap" unicode="&#xeff3;" 
 />
    <glyph glyph-name="tilde.cap" unicode="&#xeff5;" 
 />
    <glyph glyph-name="circumflex.cap" unicode="&#xeff7;" 
 />
    <glyph glyph-name="cent.denominator" unicode="&#xf629;" 
 />
    <glyph glyph-name="dollar.denominator" unicode="&#xf62a;" 
 />
    <glyph glyph-name="hyphen.denominator" unicode="&#xf62b;" 
 />
    <glyph glyph-name="parenleft.denominator" unicode="&#xf62c;" 
 />
    <glyph glyph-name="parenright.denominator" unicode="&#xf62d;" 
 />
    <glyph glyph-name="cent.numerator" unicode="&#xf62e;" 
 />
    <glyph glyph-name="dollar.numerator" unicode="&#xf62f;" 
 />
    <glyph glyph-name="hyphen.numerator" unicode="&#xf630;" 
 />
    <glyph glyph-name="parenleft.numerator" unicode="&#xf631;" 
 />
    <glyph glyph-name="parenright.numerator" unicode="&#xf632;" 
 />
    <glyph glyph-name="at.cap" unicode="&#xf633;" 
 />
    <glyph glyph-name="space_uni0326.cap" unicode="&#xf634;" 
 />
    <glyph glyph-name="zero.slash" unicode="&#xf638;" 
 />
    <glyph glyph-name="zero.fitted" unicode="&#xf639;" 
 />
    <glyph glyph-name="two.fitted" unicode="&#xf63a;" 
 />
    <glyph glyph-name="three.fitted" unicode="&#xf63b;" 
 />
    <glyph glyph-name="four.fitted" unicode="&#xf63c;" 
 />
    <glyph glyph-name="five.fitted" unicode="&#xf63d;" 
 />
    <glyph glyph-name="six.fitted" unicode="&#xf63e;" 
 />
    <glyph glyph-name="seven.fitted" unicode="&#xf63f;" 
 />
    <glyph glyph-name="eight.fitted" unicode="&#xf640;" 
 />
    <glyph glyph-name="nine.fitted" unicode="&#xf641;" 
 />
    <glyph glyph-name="percent.oldstyle" unicode="&#xf642;" 
 />
    <glyph glyph-name="zero.taboldstyle" unicode="&#xf643;" 
 />
    <glyph glyph-name="one.taboldstyle" unicode="&#xf644;" 
 />
    <glyph glyph-name="two.taboldstyle" unicode="&#xf645;" 
 />
    <glyph glyph-name="three.taboldstyle" unicode="&#xf646;" 
 />
    <glyph glyph-name="four.taboldstyle" unicode="&#xf647;" 
 />
    <glyph glyph-name="five.taboldstyle" unicode="&#xf648;" 
 />
    <glyph glyph-name="six.taboldstyle" unicode="&#xf649;" 
 />
    <glyph glyph-name="seven.taboldstyle" unicode="&#xf64a;" 
 />
    <glyph glyph-name="eight.taboldstyle" unicode="&#xf64b;" 
 />
    <glyph glyph-name="nine.taboldstyle" unicode="&#xf64c;" 
 />
    <glyph glyph-name="Euro.taboldstyle" unicode="&#xf64e;" 
 />
    <glyph glyph-name="florin.taboldstyle" unicode="&#xf64f;" 
 />
    <glyph glyph-name="numbersign.taboldstyle" unicode="&#xf650;" 
 />
    <glyph glyph-name="sterling.taboldstyle" unicode="&#xf651;" 
 />
    <glyph glyph-name="yen.taboldstyle" unicode="&#xf652;" 
 />
    <glyph glyph-name="dollar.taboldstyle" unicode="&#xf653;" 
 />
    <glyph glyph-name="cent.taboldstyle" unicode="&#xf654;" 
 />
    <glyph glyph-name="zero.denominator" unicode="&#xf655;" 
 />
    <glyph glyph-name="one.denominator" unicode="&#xf656;" 
 />
    <glyph glyph-name="two.denominator" unicode="&#xf657;" 
 />
    <glyph glyph-name="three.denominator" unicode="&#xf658;" 
 />
    <glyph glyph-name="four.denominator" unicode="&#xf659;" 
 />
    <glyph glyph-name="five.denominator" unicode="&#xf65a;" 
 />
    <glyph glyph-name="six.denominator" unicode="&#xf65b;" 
 />
    <glyph glyph-name="seven.denominator" unicode="&#xf65c;" 
 />
    <glyph glyph-name="eight.denominator" unicode="&#xf65d;" 
 />
    <glyph glyph-name="nine.denominator" unicode="&#xf65e;" 
 />
    <glyph glyph-name="comma.denominator" unicode="&#xf65f;" 
 />
    <glyph glyph-name="period.denominator" unicode="&#xf660;" 
 />
    <glyph glyph-name="zero.numerator" unicode="&#xf661;" 
 />
    <glyph glyph-name="one.numerator" unicode="&#xf662;" 
 />
    <glyph glyph-name="two.numerator" unicode="&#xf663;" 
 />
    <glyph glyph-name="three.numerator" unicode="&#xf664;" 
 />
    <glyph glyph-name="four.numerator" unicode="&#xf665;" 
 />
    <glyph glyph-name="five.numerator" unicode="&#xf666;" 
 />
    <glyph glyph-name="six.numerator" unicode="&#xf667;" 
 />
    <glyph glyph-name="seven.numerator" unicode="&#xf668;" 
 />
    <glyph glyph-name="eight.numerator" unicode="&#xf669;" 
 />
    <glyph glyph-name="nine.numerator" unicode="&#xf66a;" 
 />
    <glyph glyph-name="comma.numerator" unicode="&#xf66b;" 
 />
    <glyph glyph-name="period.numerator" unicode="&#xf66c;" 
 />
    <glyph glyph-name="parenleft.cap" unicode="&#xf6ae;" 
 />
    <glyph glyph-name="parenright.cap" unicode="&#xf6af;" 
 />
    <glyph glyph-name="bracketleft.cap" unicode="&#xf6b0;" 
 />
    <glyph glyph-name="bracketright.cap" unicode="&#xf6b1;" 
 />
    <glyph glyph-name="braceleft.cap" unicode="&#xf6b2;" 
 />
    <glyph glyph-name="braceright.cap" unicode="&#xf6b3;" 
 />
    <glyph glyph-name="exclamdown.cap" unicode="&#xf6b4;" 
 />
    <glyph glyph-name="questiondown.cap" unicode="&#xf6b5;" 
 />
    <glyph glyph-name="guillemotleft.cap" unicode="&#xf6b6;" 
 />
    <glyph glyph-name="guillemotright.cap" unicode="&#xf6b7;" 
 />
    <glyph glyph-name="guilsinglleft.cap" unicode="&#xf6b8;" 
 />
    <glyph glyph-name="guilsinglright.cap" unicode="&#xf6b9;" 
 />
    <glyph glyph-name="hyphen.cap" unicode="&#xf6ba;" 
 />
    <glyph glyph-name="endash.cap" unicode="&#xf6bb;" 
 />
    <glyph glyph-name="emdash.cap" unicode="&#xf6bc;" 
 />
    <glyph glyph-name="periodcentered.cap" unicode="&#xf6bd;" 
 />
    <glyph glyph-name="Scedilla.dup" unicode="&#xf6c1;" 
 />
    <glyph glyph-name="scedilla.dup" unicode="&#xf6c2;" 
 />
    <glyph glyph-name="space_uni0326" unicode="&#xf6c3;" 
 />
    <glyph glyph-name="acute.cap" unicode="&#xf6c9;" 
 />
    <glyph glyph-name="caron.cap" unicode="&#xf6ca;" 
 />
    <glyph glyph-name="dieresis.cap" unicode="&#xf6cb;" 
 />
    <glyph glyph-name="dieresis_acutecomb.cap" unicode="&#xf6cc;" 
 />
    <glyph glyph-name="dieresis_gravecomb.cap" unicode="&#xf6cd;" 
 />
    <glyph glyph-name="grave.cap" unicode="&#xf6ce;" 
 />
    <glyph glyph-name="hungarumlaut.cap" unicode="&#xf6cf;" 
 />
    <glyph glyph-name="macron.cap" unicode="&#xf6d0;" 
 />
    <glyph glyph-name="breve.cyrcap" unicode="&#xf6d1;" 
 />
    <glyph glyph-name="circumflex.cyrcap" unicode="&#xf6d2;" 
 />
    <glyph glyph-name="space_uni030F.cap" unicode="&#xf6d3;" 
 />
    <glyph glyph-name="breve.cyr" unicode="&#xf6d4;" 
 />
    <glyph glyph-name="circumflex.cyr" unicode="&#xf6d5;" 
 />
    <glyph glyph-name="space_uni030F" unicode="&#xf6d6;" 
 />
    <glyph glyph-name="dieresis_acutecomb" unicode="&#xf6d7;" 
 />
    <glyph glyph-name="dieresis_gravecomb" unicode="&#xf6d8;" 
 />
    <glyph glyph-name="one.fitted" unicode="&#xf6dc;" 
 />
    <glyph glyph-name="cent.inferior" unicode="&#xf6df;" 
 />
    <glyph glyph-name="cent.superior" unicode="&#xf6e0;" 
 />
    <glyph glyph-name="comma.inferior" unicode="&#xf6e1;" 
 />
    <glyph glyph-name="comma.superior" unicode="&#xf6e2;" 
 />
    <glyph glyph-name="dollar.inferior" unicode="&#xf6e3;" 
 />
    <glyph glyph-name="dollar.superior" unicode="&#xf6e4;" 
 />
    <glyph glyph-name="hyphen.inferior" unicode="&#xf6e5;" 
 />
    <glyph glyph-name="hyphen.superior" unicode="&#xf6e6;" 
 />
    <glyph glyph-name="period.inferior" unicode="&#xf6e7;" 
 />
    <glyph glyph-name="period.superior" unicode="&#xf6e8;" 
 />
    <glyph glyph-name="zero.oldstyle" unicode="&#xf730;" 
 />
    <glyph glyph-name="one.oldstyle" unicode="&#xf731;" 
 />
    <glyph glyph-name="two.oldstyle" unicode="&#xf732;" 
 />
    <glyph glyph-name="three.oldstyle" unicode="&#xf733;" 
 />
    <glyph glyph-name="four.oldstyle" unicode="&#xf734;" 
 />
    <glyph glyph-name="five.oldstyle" unicode="&#xf735;" 
 />
    <glyph glyph-name="six.oldstyle" unicode="&#xf736;" 
 />
    <glyph glyph-name="seven.oldstyle" unicode="&#xf737;" 
 />
    <glyph glyph-name="eight.oldstyle" unicode="&#xf738;" 
 />
    <glyph glyph-name="nine.oldstyle" unicode="&#xf739;" 
 />
    <glyph glyph-name="f_f" unicode="&#xfb00;" horiz-adv-x="752" 
d="M479 0v424h-67v101h67v38q0 88 43 131q42 42 118 42q52 0 99 -14v-102q-39 13 -71 13q-70 0 -70 -80v-29h140v-100h-138v-424h-121zM103 0v424h-67v101h67v38q0 88 43 131q42 42 119 42q51 0 98 -14v-102q-39 13 -71 13q-70 0 -70 -80v-29h140v-100h-138v-424h-121z" />
    <glyph glyph-name="f_i" unicode="&#xfb01;" horiz-adv-x="662" 
d="M454 609v115h130v-115h-130zM103 0v424h-67v101h67v38q0 88 43 131q42 42 119 42q51 0 98 -14v-102q-39 13 -71 13q-70 0 -70 -80v-29h140v-100h-138v-424h-121zM459 0v528h121v-528h-121z" />
    <glyph glyph-name="f_l" unicode="&#xfb02;" horiz-adv-x="662" 
d="M103 0v424h-67v101h67v38q0 88 43 131q42 42 119 42q51 0 98 -14v-102q-39 13 -71 13q-70 0 -70 -80v-29h140v-100h-138v-424h-121zM459 0v730h121v-730h-121z" />
    <glyph glyph-name="f_f_i" unicode="&#xfb03;" horiz-adv-x="1038" 
d="M830 609v115h130v-115h-130zM479 0v424h-67v101h67v38q0 88 43 131q42 42 118 42q52 0 99 -14v-102q-39 13 -71 13q-70 0 -70 -80v-29h140v-100h-138v-424h-121zM103 0v424h-67v101h67v38q0 88 43 131q42 42 119 42q51 0 98 -14v-102q-39 13 -71 13q-70 0 -70 -80v-29
h140v-100h-138v-424h-121zM834 0v528h122v-528h-122z" />
    <glyph glyph-name="f_f_l" unicode="&#xfb04;" horiz-adv-x="1038" 
d="M479 0v424h-67v101h67v38q0 88 43 131q42 42 118 42q52 0 99 -14v-102q-39 13 -71 13q-70 0 -70 -80v-29h140v-100h-138v-424h-121zM103 0v424h-67v101h67v38q0 88 43 131q42 42 119 42q51 0 98 -14v-102q-39 13 -71 13q-70 0 -70 -80v-29h140v-100h-138v-424h-121z
M834 0v730h122v-730h-122z" />
  </font>
</defs>
</svg>
