<?xml version="1.0" encoding="utf-8"?>
<!-- Generator: Adobe Illustrator 17.0.0, SVG Export Plug-In . SVG Version: 6.00 Build 0)  -->
<!DOCTYPE svg PUBLIC "-//W3C//DTD SVG 1.1//EN" "http://www.w3.org/Graphics/SVG/1.1/DTD/svg11.dtd">
<svg version="1.1" id="Layer_1" xmlns="http://www.w3.org/2000/svg" xmlns:xlink="http://www.w3.org/1999/xlink" x="0px" y="0px"
	 width="160px" height="60px" viewBox="0 0 160 60" enable-background="new 0 0 160 60" xml:space="preserve">
<g>
	<g>
		<path fill="#4FAF4E" d="M32.671,53.039c4.165,0,7.552-4.391,9.526-10.778c1.973-6.384-0.206-11.543-2.681-15.896
			c-5.762-10.141-4.328-19.404-4.328-19.404s-1.887,1.002-2.517,1.002c-0.587,0-2.349-1.001-2.349-1.001s1.338,9.263-4.043,19.404
			c-2.311,4.353-4.347,9.511-2.505,15.896C25.618,48.646,28.781,53.039,32.671,53.039L32.671,53.039z"/>
		<path fill="#4FAF4E" d="M21.714,33.673c0.873-5.805,4.985-10.623,6.561-15.098c1.597-4.533,1.214-8.023,1.214-8.023l-1.326-1.017
			c0,0-1.305,10.851-9.137,16.767c-4.283,3.238-5.977,7.576-6.032,11.773c-0.163,12.606,14.058,18.007,11.098,9.278
			C22.788,43.521,20.663,40.69,21.714,33.673z"/>
		<path fill="#4FAF4E" d="M13.671,26.009c5.019-2.375,8.846-5.198,8.846-5.198s-2.067,2.943-2.77,3.483
			c-2.988,2.297-5.459,3.938-7.042,7.508c-1.093,2.467-1.456,5.255-0.974,7.901c0.873,4.768,2.289,5.104,1.366,6.916
			c-3.007,5.898-11.633-8.65-5.548-16.014C9.608,28.116,11.51,27.031,13.671,26.009z"/>
		<path fill="#4FAF4E" d="M44.137,33.699c-0.871-5.807-4.984-10.624-6.56-15.098c-1.597-4.537-1.214-8.027-1.214-8.027l1.328-1.014
			c0,0,1.303,10.847,9.135,16.766c4.286,3.238,5.98,7.578,6.033,11.773c0.163,12.605-14.059,18.009-11.096,9.28
			C43.062,43.544,45.188,40.713,44.137,33.699z"/>
		<path fill="#4FAF4E" d="M52.183,26.033c-5.019-2.375-8.846-5.199-8.846-5.199s2.067,2.944,2.77,3.486
			c2.99,2.295,5.46,3.937,7.041,7.506c1.094,2.468,1.457,5.255,0.974,7.902c-0.871,4.767-2.288,5.106-1.365,6.915
			c3.006,5.898,11.633-8.649,5.546-16.013C56.246,28.139,54.343,27.055,52.183,26.033z"/>
	</g>
	<path fill="#020202" d="M64.192,19.169h8.341v16.415h2.435l-0.522,2.483h-6.48V21.489h-3.774V19.17h-0.001V19.169z M72.533,9.816
		l-0.016,6.174h-4.552V9.816H72.533z M74.51,19.168h6.048V9.757h4.553v9.412h5.801l-0.522,2.316h-5.28v16.614h-4.553V21.483h-6.048
		L74.51,19.168L74.51,19.168z"/>
	<path fill="#020202" d="M129.309,38.007v-7.645h22.95v4.805c0,1.554-1.255,2.839-2.84,2.839L129.309,38.007L129.309,38.007
		L129.309,38.007z M150.007,14.447h-18.392v2.315l-4.57,0.002V12.13h11.193V9.786h4.567v2.344h11.768l-0.014,4.634h-4.554V14.447
		L150.007,14.447z M134.041,16.527h4.59l-1.173,1.157l14.833,0.012v2.381l-8.057,3.904l5.18,2.247l5.16-0.032l-1.043,2.833
		l-5.682,0.001l-6.803-3.079l-6.412,3.122h-7.588v-2.614h6.815l3.791-1.955l-4.899-2.182l-1.154,1.11l-4.553,0.028L134.041,16.527z
		 M133.891,35.735h12.719c0.629,0,1.139-0.509,1.139-1.135v-1.967H133.89L133.891,35.735L133.891,35.735z M135.167,19.929
		l5.325,2.392l5.394-2.392C145.886,19.929,135.167,19.929,135.167,19.929z"/>
	<g>
		<path fill="#020202" d="M94.122,12.131h5.047V9.787h4.592v2.344h9.635V9.787h4.63v2.344h4.378l-0.522,2.317h-3.856v2.318h-4.63
			v-2.318h-9.635l-0.032,2.318h-4.59l0.03-2.318h-5.047V12.131z M94.641,23.746h13.171l-0.52,2.28h-3.533v9.171
			c0,1.554-1.389,2.839-2.944,2.839h-3.08v-2.121h0.093c0.418,0,1.349-0.181,1.349-0.569v-9.32h-4.535L94.641,23.746z
			 M95.433,19.006H106.5l-0.523,2.389H95.433V19.006z M109.231,23.746h13.172l-0.522,2.28l-3.856,0.026v9.171
			c0,1.555-1.035,2.813-2.618,2.813h-3.079v-2.121h0.12c0.418,0,1.012-0.181,1.012-0.569v-9.32h-4.227L109.231,23.746z
			 M110.054,19.006h11.034l-0.521,2.389h-10.514L110.054,19.006L110.054,19.006z"/>
		<polygon fill="#020202" points="94.875,28.333 97.134,28.333 97.134,35.096 94.877,35.589 		"/>
		<polygon fill="#020202" points="105.427,28.295 107.682,28.295 107.682,35.548 105.427,35.096 		"/>
		<polygon fill="#020202" points="109.552,28.295 111.81,28.295 111.81,35.096 109.544,35.548 		"/>
		<polygon fill="#020202" points="119.456,28.294 121.713,28.294 121.713,35.548 119.456,35.096 		"/>
	</g>
	<g>
		<path fill="#666766" d="M68.556,50.277c0.578-0.453,1.106-0.868,1.584-1.245c0.025,0.176,0.076,0.364,0.151,0.565
			c-0.478,0.327-1.044,0.73-1.698,1.208c-0.151,0.125-0.302,0.276-0.453,0.452l-0.453-0.452c0.251-0.151,0.364-0.428,0.339-0.83
			v-3.472h-1.32v-0.49h1.849V50.277z M69.159,44.92c-0.101-0.101-0.239-0.239-0.415-0.415c-0.503-0.528-0.88-0.893-1.132-1.095
			l0.415-0.339c0.377,0.302,0.893,0.792,1.547,1.471L69.159,44.92z M72.178,42.845h0.528v2.792h2.679v0.49h-2.679v4.527h3.131v0.528
			h-6.074v-0.528h2.415V42.845z"/>
		<path fill="#666766" d="M86.844,48.127l2.038-1.17h-4.679v-0.49h5.32v0.604l-2.151,1.282v0.378h4.075v0.49h-4.075v1.396
			c0.024,0.729-0.34,1.095-1.094,1.095c-0.377,0-0.792,0-1.245,0c0-0.051-0.013-0.113-0.038-0.188
			c-0.025-0.177-0.051-0.315-0.076-0.415c0.377,0.024,0.779,0.037,1.208,0.037c0.528,0.051,0.767-0.164,0.717-0.642v-1.282h-4.452
			v-0.49h4.452V48.127z M82.731,44.806h8.414v1.773h-0.528v-1.283h-7.357v1.283h-0.528V44.806z M83.486,43.222l0.415-0.264
			c0.453,0.503,0.817,0.942,1.094,1.32l-0.453,0.34C84.29,44.24,83.938,43.775,83.486,43.222z M86.051,42.958l0.453-0.227
			c0.352,0.452,0.692,0.943,1.019,1.472l-0.491,0.264C86.705,43.914,86.378,43.41,86.051,42.958z M89.032,44.693l-0.452-0.34
			c0.478-0.478,0.905-0.968,1.282-1.472l0.453,0.34c-0.126,0.151-0.327,0.377-0.604,0.679C89.41,44.253,89.183,44.517,89.032,44.693
			z"/>
		<path fill="#666766" d="M98.642,50.088l-0.227-0.604c2.414-0.754,4.502-1.445,6.264-2.075c0,0.227,0.023,0.44,0.074,0.642
			C102.39,48.805,100.352,49.484,98.642,50.088z M98.604,43.561h7.659c0,0.201,0,0.503,0,0.905c-0.051,2.214-0.102,3.861-0.15,4.942
			c0,1.408-0.693,2.088-2.076,2.037c-0.402,0.025-0.955,0.038-1.66,0.038c-0.025-0.227-0.074-0.44-0.15-0.642
			c0.428,0.025,1.006,0.038,1.736,0.038c1.131,0.075,1.66-0.453,1.584-1.585c0.1-2.012,0.15-3.76,0.15-5.244h-7.093V43.561z
			 M99.585,45.56l0.302-0.452c1.358,0.604,2.376,1.094,3.056,1.472l-0.303,0.49C101.509,46.441,100.491,45.938,99.585,45.56z"/>
		<path fill="#666766" d="M113.987,51.824c-0.075-0.177-0.164-0.34-0.264-0.491c1.458-0.302,2.439-0.591,2.942-0.867
			c-0.353-0.201-0.855-0.591-1.509-1.17c-0.075-0.075-0.139-0.125-0.188-0.15l0.377-0.34c0.628,0.604,1.207,1.031,1.735,1.282
			c0.428-0.427,0.68-0.955,0.755-1.584h-3.132V44.73h3.282c0.025-0.401,0.038-0.754,0.038-1.056h-4.037v-0.453h8.451v0.453h-3.924
			c0,0.302,0,0.654,0,1.056h3.207v4.226h-0.49v-0.452h-2.867c-0.126,0.704-0.391,1.308-0.793,1.811
			c0.981,0.353,2.704,0.578,5.169,0.68c-0.101,0.201-0.176,0.377-0.227,0.528c-2.591-0.127-4.363-0.415-5.319-0.868
			C116.741,51.056,115.671,51.446,113.987,51.824z M115.194,45.183v1.207h2.792c0-0.377,0-0.779,0-1.207H115.194z M117.911,48.051
			c0.024-0.125,0.038-0.326,0.038-0.604c0.024-0.251,0.037-0.453,0.037-0.604h-2.792v1.207H117.911z M118.401,48.051h2.83v-1.207
			h-2.754c0,0.15-0.014,0.353-0.038,0.604C118.439,47.724,118.426,47.926,118.401,48.051z M121.231,45.183h-2.717
			c-0.025,0.428-0.037,0.83-0.037,1.207h2.754V45.183z"/>
		<path fill="#666766" d="M131.708,51.748h-0.528v-4.979c-0.452,0.503-0.98,1.019-1.584,1.547c-0.151-0.201-0.265-0.34-0.34-0.415
			c1.257-1.006,2.276-2.15,3.056-3.434h-2.716v-0.453h2.98c0.226-0.401,0.439-0.83,0.641-1.282l0.528,0.113
			c-0.176,0.402-0.377,0.792-0.604,1.169h5.131v0.453h-5.395c-0.252,0.453-0.541,0.881-0.868,1.283h5.169v4.791
			c0.024,0.68-0.353,1.019-1.132,1.019c-0.327,0.025-0.768,0.038-1.32,0.038c0-0.202-0.051-0.377-0.151-0.528
			c0.353,0,0.805,0,1.358,0c0.503,0.024,0.741-0.177,0.717-0.604v-0.83h-4.942V51.748z M131.708,46.202v1.245h4.942v-1.245H131.708z
			 M131.708,47.9v1.282h4.942V47.9H131.708z"/>
		<path fill="#666766" d="M145.432,43.788h2.339v5.772h-1.849v0.717h-0.49V43.788z M145.922,44.24v4.829h1.358V44.24H145.922z
			 M147.733,51.069c-0.051-0.075-0.15-0.177-0.302-0.302c-0.051-0.051-0.088-0.089-0.113-0.113c1.308-0.854,2.276-2.075,2.905-3.66
			h-2.075v-0.452h2.415v-1.66h-2.037v-0.453h2.037v-1.66h0.49v1.66h2.227v0.453h-2.227v1.66h2.717v0.452h-2.377
			c0.578,1.46,1.496,2.629,2.754,3.509c-0.051,0.051-0.126,0.113-0.227,0.189c-0.101,0.075-0.176,0.138-0.226,0.188
			c-1.233-0.931-2.113-2.201-2.642-3.811v4.716h-0.49V47.07C149.909,48.956,148.965,50.29,147.733,51.069z"/>
	</g>
</g>
</svg>
