<?xml version="1.0" encoding="utf-8"?>
<!-- Generator: Adobe Illustrator 22.0.1, SVG Export Plug-In . SVG Version: 6.00 Build 0)  -->
<svg version="1.1"
	 id="svg8" inkscape:export-filename="C:\Users\Ivan Herrera\Pictures\Inkscape\ya.png" inkscape:export-xdpi="1003.6" inkscape:export-ydpi="1003.6" inkscape:version="0.92.3 (2405546, 2018-03-11)" sodipodi:docname="asdadasd.svg" xmlns:cc="http://creativecommons.org/ns#" xmlns:dc="http://purl.org/dc/elements/1.1/" xmlns:inkscape="http://www.inkscape.org/namespaces/inkscape" xmlns:rdf="http://www.w3.org/1999/02/22-rdf-syntax-ns#" xmlns:sodipodi="http://sodipodi.sourceforge.net/DTD/sodipodi-0.dtd" xmlns:svg="http://www.w3.org/2000/svg"
	 xmlns="http://www.w3.org/2000/svg" xmlns:xlink="http://www.w3.org/1999/xlink" x="0px" y="0px" viewBox="0 0 960 469"
	 style="enable-background:new 0 0 960 469;" xml:space="preserve">
<style type="text/css">
	.st0{fill:#ECECEC;}
	.st1{opacity:0.681;fill:#F4D7D7;enable-background:new    ;}
</style>
<rect id="rect826" y="1" class="st0" width="960" height="468"/>
<circle id="circle906" class="st1" cx="678" cy="399.4" r="37.3"/>
<circle id="circle912" class="st1" cx="245.3" cy="80.5" r="29.1"/>
<circle id="circle916" class="st1" cx="731.7" cy="65.3" r="29.1"/>
<circle id="circle908" class="st1" cx="245.5" cy="336.4" r="29.1"/>
<circle id="circle928" class="st1" cx="646.4" cy="208.7" r="18.3"/>
<circle id="circle932" class="st1" cx="737.4" cy="217.5" r="18.3"/>
<ellipse id="circle934" class="st1" cx="593.4" cy="256.7" rx="76.4" ry="75.2"/>
<circle id="circle938" class="st1" cx="440.5" cy="170.8" r="57.5"/>
<circle id="circle940" class="st1" cx="386.2" cy="102.6" r="57.5"/>
<circle id="circle942" class="st1" cx="655.3" cy="121.5" r="57.5"/>
<circle id="circle944" class="st1" cx="258.6" cy="189.7" r="57.5"/>
<circle id="circle936" class="st1" cx="363.4" cy="309.8" r="57.5"/>
<circle id="circle948" class="st1" cx="573.1" cy="64.7" r="17.1"/>
<circle id="circle944_1_" class="st1" cx="92.6" cy="391.7" r="57.5"/>
<ellipse id="circle934_1_" class="st1" cx="860.2" cy="102.6" rx="76.4" ry="75.2"/>
<circle id="circle922_1_" class="st1" cx="828.7" cy="232.9" r="18.3"/>
<circle id="circle904_1_" class="st1" cx="48.5" cy="58.6" r="37.3"/>
<circle id="circle924_1_" class="st1" cx="925.4" cy="208.7" r="18.3"/>
<circle id="circle944_2_" class="st1" cx="886.2" cy="309.8" r="57.5"/>
<circle id="circle918_1_" class="st1" cx="429.1" cy="397.2" r="29.1"/>
<circle id="circle920_1_" class="st1" cx="886.2" cy="422.5" r="18.3"/>
<ellipse id="circle902_1_" transform="matrix(4.531441e-02 -0.999 0.999 4.531441e-02 -144.1669 297.9454)" class="st1" cx="83.8" cy="224.4" rx="37.3" ry="37.3"/>
</svg>
