<?xml version="1.0" encoding="utf-8"?>
<!-- Generator: Adobe Illustrator 22.0.1, SVG Export Plug-In . SVG Version: 6.00 Build 0)  -->
<svg version="1.1"
	 id="svg8" inkscape:export-filename="C:\Users\Ivan Herrera\Pictures\Inkscape\ya.png" inkscape:export-xdpi="1003.6" inkscape:export-ydpi="1003.6" inkscape:version="0.92.3 (2405546, 2018-03-11)" sodipodi:docname="asdadasd.svg" xmlns:cc="http://creativecommons.org/ns#" xmlns:dc="http://purl.org/dc/elements/1.1/" xmlns:inkscape="http://www.inkscape.org/namespaces/inkscape" xmlns:rdf="http://www.w3.org/1999/02/22-rdf-syntax-ns#" xmlns:sodipodi="http://sodipodi.sourceforge.net/DTD/sodipodi-0.dtd" xmlns:svg="http://www.w3.org/2000/svg"
	 xmlns="http://www.w3.org/2000/svg" xmlns:xlink="http://www.w3.org/1999/xlink" x="0px" y="0px" viewBox="0 0 960 469"
	 style="enable-background:new 0 0 960 469;" xml:space="preserve">
<style type="text/css">
	.st0{enable-background:new    ;}
	.st1{fill:#4D4D4D;}
	.st2{fill:#FFB500;}
	.st3{fill:#000080;}
	.st4{fill:#D40000;}
	.st5{fill:#1A1A1A;}
	.st6{opacity:0.65;}
	.st7{fill:#FDD1CF;}
	.st8{fill:#F5A29F;}
	.st9{fill:#E9827C;}
	.st10{fill:#D86561;}
	.st11{fill:#B15551;}
	.st12{fill:#D71204;}
	.st13{fill:#AB150F;}
</style>
<g>
	<g class="st0">
		<path class="st1" d="M449.2,305.9H448l-8.2,11.6h-25.4v-73H405v-25l7.9-11.5v-1.8h36.4L449.2,305.9L449.2,305.9z M445.5,209.9
			h-14.6H426h-9.3v19.2h9.4V302h19.4V209.9L445.5,209.9z"/>
		<path class="st1" d="M491.7,278.6v27.3h-1.1l-8.2,11.6h-25.2v-25.7l7.9-11.5v-1.8h26.6L491.7,278.6L491.7,278.6z M488,302v-19.7
			h-19.1V302H488z"/>
		<path class="st1" d="M562,224.5v63.3c0,3-0.6,5.8-1.9,8.3c-1.3,2.5-3.1,4.6-5.5,6.2l-5.3,7.8c-1.6,2.2-3.7,3.9-6.2,5.3
			s-5.4,2.1-8.5,2.1h-19.2c-2.5,0-4.8-0.5-6.9-1.4c-2.2-0.9-4-2.2-5.6-3.7c-1.6-1.6-2.8-3.4-3.7-5.4s-1.4-4.3-1.4-6.6v-63.3
			c0-2,0.3-3.9,0.9-5.7c0.6-1.7,1.4-3.3,2.3-4.8l5.5-8.1c1.2-3.6,3.4-6.5,6.5-8.9c3.2-2.4,6.9-3.6,11.1-3.6h19.2
			c2.7,0,5.2,0.5,7.5,1.5s4.3,2.3,6,3.9c1.7,1.6,3,3.6,3.9,5.8C561.5,219.5,562,221.9,562,224.5z M558.3,287.8v-58.9v-4.5
			c0-4.1-1.4-7.5-4.3-10.4c-2.8-2.8-6.4-4.2-10.7-4.2H524c-4.1,0-7.5,1.4-10.4,4.2c-2.8,2.8-4.3,6.3-4.3,10.4v29.3v34.1
			c0,1.9,0.4,3.8,1.1,5.5c0.8,1.7,1.8,3.2,3.1,4.5s2.9,2.3,4.7,3.1c1.8,0.8,3.7,1.1,5.7,1.1h19.2c4.3,0,7.9-1.4,10.7-4.2
			C556.8,295,558.3,291.6,558.3,287.8z M538.5,229v53.9H529V229H538.5z"/>
	</g>
	<g class="st0">
		<path class="st2" d="M321.5,183.6h-1l-7.1,10.2h-43.6v-85.2l7-9.8v-1.7h44.7v23.1h-1l-7.1,10.2h-13.2v4.8h21.3v23.1h-1l-1.5,2.1
			h2.5L321.5,183.6L321.5,183.6z M318.3,163.7h-21.4v-8.5h21.4v-16.7h-21.4V117h21.4v-16.7h-21.4H280v80h16.8h21.4v-16.6H318.3z"/>
	</g>
	<g class="st0">
		<path class="st3" d="M382.8,151.9v15.8c0,2.6-0.6,5-1.7,7.1c-1.1,2.2-2.7,4-4.6,5.6l-4.1,6v-0.3l-0.7,1.1c-1.4,2-3.2,3.5-5.4,4.7
			c-2.2,1.2-4.6,1.8-7.4,1.8h-16.7c-4.3,0-7.8-1.4-10.6-4.3c-2.8-2.9-4.2-6.5-4.2-10.9v-54.9c0-3.5,0.9-6.5,2.7-8.8l5.2-7.4
			c1-3.2,2.8-5.7,5.4-7.4c2.6-1.8,5.6-2.7,9.2-2.7h16.7c4.6,0,8.4,1.4,11.6,4.3c3.1,2.9,4.7,6.6,4.7,11.2v16.1h-1.1l-7,10.2h-17.2
			v17.1l2.1-2.8v-1.5L382.8,151.9L382.8,151.9z M379.7,167.7v-12.5h-16.8v8.3h-8.5v-46.2h8.5v8.5h16.8v-8.5V113
			c0-3.5-1.3-6.5-3.9-8.8s-5.6-3.5-9.2-3.5H350c-3.6,0-6.5,1.2-8.8,3.5s-3.4,5.3-3.4,8.8v4.3v50.5c0,3.5,1.1,6.6,3.4,9
			c2.3,2.5,5.2,3.7,8.8,3.7h16.7c1.8,0,3.5-0.3,5-1c1.6-0.7,3-1.6,4.1-2.7c1.2-1.2,2.1-2.5,2.8-4
			C379.3,171.1,379.7,169.4,379.7,167.7z"/>
	</g>
	<g class="st0">
		<path class="st4" d="M444.7,96.9v70.5c0,2.7-0.6,5.2-1.7,7.4s-2.7,4.1-4.6,5.7l-4.8,6.9c-1.4,2-3.2,3.6-5.3,4.8s-4.6,1.8-7.3,1.8
			h-16.5c-2.1,0-4.2-0.4-6.1-1.3c-1.9-0.8-3.6-2-5-3.4s-2.5-3-3.3-4.9s-1.2-3.9-1.2-6v-69.9l6.9-9.9v-1.5h23.1v4.6l2.1-3.1v-1.5
			h23.7L444.7,96.9L444.7,96.9z M441.5,167.3v-67.2h-17.1v62.8h-8.7v-62.8h-16.5V163v4.4c0,1.8,0.3,3.5,1,5.1s1.6,3,2.8,4.1
			c1.2,1.2,2.5,2.1,4.1,2.8s3.3,1.1,5,1.1h16.5c1.8,0,3.4-0.4,5-1.1c1.6-0.7,3-1.6,4.1-2.8c1.2-1.2,2.1-2.5,2.7-4.1
			C441.2,170.8,441.5,169.1,441.5,167.3z"/>
	</g>
	<g class="st0">
		<path class="st5" d="M500.5,162l5.9,21.6H505l-7.1,10.2h-23.4l-0.6-2.7l-1.8,2.7h-21.9v-85.5l7-9.9V97H490c2.1,0,4.2,0.4,6.1,1.3
			c1.9,0.8,3.6,2,5,3.4s2.5,3.2,3.3,5.1c0.8,2,1.2,4.1,1.2,6.3v29c0,2.6-0.5,5.1-1.5,7.4c-1,2.3-2.5,4.2-4.5,5.6l-0.7,1L500.5,162z
			 M502.3,142.1v-29c0-1.8-0.3-3.5-1-5c-0.7-1.6-1.5-3-2.7-4.1c-1.1-1.2-2.4-2.1-3.9-2.7c-1.5-0.7-3.1-1-4.8-1h-17.2h-12.3v12.9v2.8
			v64.5h16.7v-25.2h0.4l6.7,25.2H502l-7.1-26.3c2.4-1,4.3-2.6,5.6-4.8C501.8,147.1,502.3,144.7,502.3,142.1z M485.8,116.9v21.6h-8.5
			v-21.6H485.8z"/>
		<path class="st5" d="M567.5,96.9v70.5c0,2.7-0.6,5.2-1.7,7.4c-1.1,2.2-2.7,4.1-4.6,5.7l-4.8,6.9c-1.4,2-3.2,3.6-5.3,4.8
			s-4.6,1.8-7.3,1.8h-16.5c-2.1,0-4.2-0.4-6.1-1.3c-1.9-0.8-3.6-2-5-3.4s-2.5-3-3.3-4.9s-1.2-3.9-1.2-6v-69.9l6.9-9.9v-1.5h23.1v4.6
			l2.1-3.1v-1.5h23.7L567.5,96.9L567.5,96.9z M564.2,167.3v-67.2h-17.1v62.8h-8.7v-62.8h-16.5V163v4.4c0,1.8,0.3,3.5,1,5.1
			s1.6,3,2.8,4.1c1.2,1.2,2.5,2.1,4.1,2.8s3.3,1.1,5,1.1h16.5c1.8,0,3.4-0.4,5-1.1c1.6-0.7,3-1.6,4.1-2.8c1.2-1.2,2.1-2.5,2.7-4.1
			C563.9,170.8,564.2,169.1,564.2,167.3z"/>
		<path class="st5" d="M628.7,154.7v12.8c0,2.7-0.6,5.2-1.7,7.4c-1.1,2.2-2.7,4.1-4.6,5.7l-4.8,6.9c-1.4,2-3.2,3.5-5.4,4.7
			s-4.5,1.8-7.1,1.8h-32.3v-85.8l7-9.8v-1.7h32.8c2.2,0,4.3,0.4,6.3,1.3s3.6,2,5,3.4c1.4,1.5,2.5,3.2,3.4,5.2c0.8,2,1.3,4.1,1.3,6.4
			v25.4c0,3.6-1.3,6.4-3.8,8.4c1.1,1,2,2.2,2.7,3.6C628.3,151.6,628.7,153.1,628.7,154.7z M625.5,167.4v-6V159v-4.3
			c0-2.1-0.8-4-2.4-5.7c-1.6-1.6-3.6-2.4-6.1-2.4c2.5,0,4.5-0.8,6.1-2.5c1.6-1.6,2.4-3.6,2.4-6v-4.3v-21c0-1.8-0.3-3.5-1-5
			c-0.7-1.6-1.5-3-2.7-4.1c-1.1-1.2-2.5-2.1-4-2.8c-1.5-0.7-3.2-1.1-5-1.1H596h-13v13v2.8v64.8h17.4h12.3c1.8,0,3.4-0.3,5-1
			c1.5-0.7,2.9-1.6,4-2.8s2-2.5,2.7-4.1C625,170.8,625.5,169.2,625.5,167.4z M608.5,117.2v21h-8v-21H608.5z M608.5,154.7v8.7h-8
			v-8.7H608.5z"/>
		<path class="st5" d="M690.2,97.1v45c0,3-0.6,5.6-1.8,7.9c-1.2,2.3-2.7,4.1-4.7,5.5l-4.5,6.4l-1.8,2v19.6h-1l-7.1,10.2h-22.1v-25.5
			c-3.6-0.6-6.7-2.2-9.1-5c-2.4-2.8-3.6-6.3-3.6-10.4v-44.3l7-9.9v-1.5H665v3.9l1.7-2.4v-1.5H690.2z M687,142.1v-28.9v-12.9h-12.8
			h-4.3V117v21.4h-8.1V117v-16.7h-4.3h-12.8v12.9v2.8v26.1c0,1.9,0.3,3.6,1,5.2c0.7,1.6,1.6,3,2.7,4.1c1.2,1.2,2.5,2.1,4.1,2.7
			c1.5,0.7,3.2,1,5,1v25.2h16.8v-25.2c1.8,0,3.4-0.3,5-1c1.5-0.7,2.9-1.6,4.1-2.7c1.2-1.2,2.1-2.5,2.7-4.1
			C686.5,145.7,687,144,687,142.1z"/>
	</g>
</g>
<g id="g991_1_" transform="translate(272.397,-177.00812)" class="st6">
	<path id="path1005_1_" inkscape:connector-curvature="0" class="st7" d="M561.5,541.2c-5-0.5-33.4-3.2-63.1-5.9
		c-65.1-5.9-65.9-6-62.2-7.4c3.8-1.5,35.1-1.4,46,0c5,0.7,13.2,1.8,18.3,2.5c9.3,1.2,21.5,2.9,35.2,4.8c4,0.6,14.4,2,23.1,3.2
		c8.8,1.2,15.9,2.6,15.9,3.1C574.7,542.6,574.2,542.6,561.5,541.2L561.5,541.2z M585.5,538.9c-3-0.5-10-1.6-15.6-2.3
		c-5.6-0.8-21.6-2.9-35.5-4.9c-13.9-1.9-32.4-4.4-41.2-5.6c-8.8-1.2-15.8-2.6-15.6-3.1c0.2-0.5,16.8-11.6,37-24.6
		c42.5-27.4,44.4-28.6,45.1-28c0.5,0.5,38.7,64.2,40.5,67.5c1,1.9,0.5,2.1-4,2C593.2,539.9,588.5,539.4,585.5,538.9L585.5,538.9z
		 M601.4,533.2c-16.4-26-38.8-64.7-38.3-66.1c1.2-3.2,49.1-75,49.7-74.4c0.7,0.7,0.4,24.8-0.3,30.1c-0.3,2-1.7,28.5-3.1,58.9
		c-1.4,30.4-3,55.7-3.5,56.3C605.5,538.6,603.5,536.4,601.4,533.2L601.4,533.2z M425.6,522.3c0-0.9,9.5-24.1,18.3-44.5
		c2.1-4.8,4.1-8.3,4.6-7.8c2.1,2.4,20,50.4,19.1,51.2C466.5,522.2,425.6,523.3,425.6,522.3L425.6,522.3z M472,517.6
		c0.3-1.2,4.3-17.8,8.8-36.8s8.5-34.9,8.8-35.2c0.5-0.5,20.8,5.8,53.5,16.7c6.1,2,11.1,4,11.1,4.4s-4.7,3.7-10.5,7.4
		s-23.7,15.2-39.9,25.7c-16.2,10.4-30,19.2-30.9,19.5C472,519.6,471.7,519.1,472,517.6L472,517.6z M459.9,488.1
		c-4.5-11.4-8.2-22.1-8.3-23.7c-0.2-2.7,1.5-3.9,16.3-11.5c11.5-5.9,16.5-8,16.5-6.8c0,1-2.2,10.8-4.9,21.8
		c-4.9,20.2-8,33.4-9.1,38.3c-0.3,1.5-1,2.7-1.6,2.7C468.5,508.8,464.4,499.5,459.9,488.1z M425.6,506.1c0-2.2,9.3-49.6,10.3-52.5
		c0.4-1.3,2-0.4,5.5,3.2l4.9,4.9l-9.4,22C427.6,505.9,425.6,509.9,425.6,506.1L425.6,506.1z M541.6,457.7
		c-6.6-2.2-20.8-6.9-31.6-10.4c-10.8-3.5-19.4-6.7-19.2-7.1c0.2-0.4,7.1-6.9,15.3-14.5c8.3-7.5,16.9-15.4,19.2-17.6s4.5-3.9,4.9-3.9
		c1.2,0,24.2,55.2,23.7,56.6C553.8,461.3,548.2,459.9,541.6,457.7L541.6,457.7z M557.2,457.4c-1.1-2.5-5.6-13.4-10.1-24.3
		s-9-21.9-10.1-24.3c-1.9-4.4-1.9-4.5,0.8-5.1c6.7-1.5,67.6-11.3,68-10.9c0.5,0.5-45.2,69.2-46,69.2
		C559.4,461.9,558.2,459.9,557.2,457.4L557.2,457.4z M442.8,451.2l-3.9-4.5l8.5-12.5c4.7-6.9,9.6-13.6,11.1-14.9
		c1.4-1.3,9.5-8.7,17.9-16.4c11.3-10.4,18.5-15.8,27.7-21c22.4-12.8,20-12,28.2-9.2c4.6,1.6,7,3,6.7,4.1c-0.2,0.9-2.6,6.2-5.4,11.7
		c-4.5,9.1-6.6,11.5-20.7,24.6c-8.6,8-18.1,16.9-21,19.7c-5.7,5.4-38.8,23.3-42.9,23.1C447.6,455.8,444.9,453.7,442.8,451.2
		L442.8,451.2z M535,396.5c1.9-5.1,9.6-19.8,10.6-20.4s50.6,11.9,51.7,13.1c0.7,0.7-1.6,1.4-7.6,2.3c-2.6,0.4-15.5,2.3-28.7,4.3
		C532,400.2,533.6,400.2,535,396.5L535,396.5z M599.3,385.6c-5.3-1.5-16.6-4.7-25.1-7c-14.8-4.1-17.4-5.1-16.3-6
		c0.4-0.3,12.6-3.1,44-10.1c2.3-0.5,3,0.6,6.5,11.3c2.2,6.5,4.2,12.5,4.5,13.3C613.6,389.1,610.8,388.8,599.3,385.6L599.3,385.6z
		 M536.9,368.9c-2.4-1.7-3.7-1.4,25.8-5.6c12.4-1.8,15.6-2,15.6-1.1c0,0.5-2.8,1.4-6.3,2.2c-3.5,0.7-11.2,2.4-17.1,3.8
		C542.2,371,539.8,371.1,536.9,368.9z"/>
	<path id="path1003_1_" inkscape:connector-curvature="0" class="st8" d="M557.9,540.5c-2.3-0.3-30.7-2.9-63.1-5.9
		s-59.5-5.6-60.1-5.8c-2.8-0.9,30.5-2.2,38.4-1.5c8.4,0.8,94.6,12.4,98.1,13.2C573.4,541.1,563.3,541,557.9,540.5L557.9,540.5z
		 M575.3,537.1c-10.6-1.5-36-5-56.5-7.7s-38.2-5.4-39.3-5.8c-1.5-0.6,8.8-7.8,37.9-26.4c21.9-14.1,40.4-25.7,41.1-25.9
		c1-0.2,26,40.2,39.6,63.8l2.9,5.1l-3.2-0.1C596,539.9,585.9,538.6,575.3,537.1L575.3,537.1z M602.8,534.6
		c-1.3-1.9-10.9-17.7-21.3-35l-18.9-31.4l25.3-38.3c25.1-38.1,25.3-38.3,25.3-32.9c0,3-1,25.7-2.3,50.5s-2.7,54-3.2,64.9
		c-0.5,10.9-1.2,21.1-1.6,22.8l-0.8,2.9L602.8,534.6z M431.1,509.3c14.4-34.4,16.5-39,17.4-38.1c1.7,1.8,19.3,48.8,18.5,49.6
		c-0.4,0.4-9.9,0.9-21,1.2l-20.3,0.4L431.1,509.3z M472.5,518.5c0-0.9,8.8-38.6,15.2-65.1l1.9-8l16.4,5.3c9,2.9,23.7,7.6,32.6,10.5
		l16.2,5.3l-8.4,5.4c-4.6,3-23.1,14.9-41.1,26.5C487.2,510,472.5,519.1,472.5,518.5L472.5,518.5z M459.4,485.8
		c-4.9-12.6-8.4-23.3-7.8-23.8c1.9-1.7,31.9-17.1,32.4-16.6c0.6,0.6-14,61.4-15,62.5C468.6,508.3,464.3,498.4,459.4,485.8z
		 M425.6,506.7c0-1.5,9.4-47.9,10.4-51.2c0.6-2,1.1-1.8,4.8,1.7c2.2,2.2,4.1,4.7,4.1,5.6c0,1.5-17.6,43.4-18.8,44.7
		C425.8,507.8,425.6,507.4,425.6,506.7L425.6,506.7z M557,456.3c-10-23.7-20.9-51.1-20.4-51.6c1-1,66.9-11.7,67.7-11
		c0.5,0.5-40.7,63.9-44,67.4C559.8,461.6,558.3,459.5,557,456.3L557,456.3z M526,452.3c-13.9-4.6-27.3-8.9-29.8-9.6
		s-4.5-1.7-4.5-2.2c0-1.2,38.4-36.6,39-36c0.2,0.2,5.4,12.6,11.5,27.5s11.3,27.5,11.6,28C554.9,461.6,551,460.5,526,452.3L526,452.3
		z M443.4,451.5l-4.4-4.4l8.2-12.2c6.4-9.6,11.9-15.6,25.3-28.1c18.3-17,20-18.3,39.6-29.1l12.8-7.1l6.4,2.1c3.5,1.1,6.7,2.7,7,3.5
		s-1.9,6.2-4.8,12.1c-4.7,9.3-6.8,11.9-16.6,20.9c-6.2,5.6-15.6,14.4-21,19.4c-8.4,8-12.2,10.4-27.9,18.3c-10,5-18.6,9.1-19.2,9.1
		C448.2,455.9,445.8,453.9,443.4,451.5L443.4,451.5z M539.4,388.2c4.1-8.2,6.4-11.6,7.9-11.6c4,0,49.1,12.4,48.2,13.2
		c-0.5,0.5-13.1,2.6-28,4.7c-14.9,2.2-28.6,4.2-30.4,4.6l-3.4,0.6L539.4,388.2z M584.6,381c-14.7-4.1-26.3-7.7-25.9-8.1
		c1.1-0.9,40.9-9.6,43.8-9.6c1.5,0,3.1,3.4,6.2,12.7c2.3,6.9,3.9,12.6,3.4,12.5C611.7,388.5,599.3,385.1,584.6,381L584.6,381z
		 M537.4,369.1c-2.7-1.2-2.1-1.5,6-2.7c16.3-2.6,32.5-4.5,33.1-4c0.5,0.5-32.8,8.3-34.9,8.1C540.9,370.4,539.1,369.8,537.4,369.1
		L537.4,369.1z"/>
	<path id="path1001_1_" inkscape:connector-curvature="0" class="st9" d="M565.4,540.5c1.2-0.3,3.1-0.3,4.2,0
		c1.2,0.3,0.2,0.5-2.1,0.5C565.2,541,564.2,540.8,565.4,540.5L565.4,540.5z M496.5,534.6c-30.1-2.9-56.3-5.4-58.3-5.6
		c-2-0.2,4-0.8,13.2-1.3c14-0.8,20.1-0.5,36.1,1.6c37.1,4.8,74.5,10.5,69.1,10.5C553.7,539.8,526.6,537.5,496.5,534.6z M537.7,531.7
		c-31.9-4.4-58.3-8.4-58.6-8.7c-0.3-0.3,17.5-12.3,39.7-26.5l40.3-25.9l2.3,3.8c1.3,2.1,10.7,17.7,20.9,34.8
		c15.7,26.2,18.2,30.9,16,30.8C596.9,539.9,569.6,536.2,537.7,531.7L537.7,531.7z M603,534.6c-1.2-1.8-10.7-17.5-21.2-34.9
		L562.7,468l24.9-37.4c13.7-20.6,25.1-36.9,25.3-36.3c0.5,1.5-6.7,142.4-7.3,143C605.3,537.5,604.1,536.3,603,534.6z M426.8,521.3
		c0-2,20.8-51,21.5-50.4c1.1,1.1,19.4,49.1,18.9,49.6C466.1,521.6,426.8,522.4,426.8,521.3L426.8,521.3z M472.9,516.5
		c0.4-1.2,4.2-17.4,8.6-35.9s8.2-33.9,8.5-34.2c0.7-0.7,63.1,19.4,63.1,20.3c0,0.6-77.4,50.8-79.6,51.6
		C472.8,518.5,472.5,517.8,472.9,516.5L472.9,516.5z M460.2,486.9c-4.4-11.4-8.3-21.6-8.7-22.7c-0.6-1.5,2.8-3.8,15.8-10.5
		c9.1-4.7,16.7-8.4,16.8-8.3c0.5,0.5-14.3,60.4-15.1,61.3C468.5,507.2,464.6,498.3,460.2,486.9z M426.2,504c0.3-1.7,2.5-12.5,4.8-24
		c2.3-11.6,4.5-22.3,4.9-23.9l0.7-2.9l4.1,4c2.3,2.2,4.1,4.7,4.1,5.5c0,1.5-15.9,38.8-18,42.4C425.8,506.6,425.7,506.4,426.2,504z
		 M547.8,433.5c-6.4-15.6-11.5-28.6-11.3-28.8c0.7-0.7,66.1-11.4,67.2-11.1c0.6,0.2-9.2,15.6-21.6,34.3l-22.6,33.9L547.8,433.5z
		 M521.5,450.7c-16.4-5.4-29.8-10.1-29.8-10.5s8.7-8.7,19.4-18.4l19.4-17.7l11.2,27.3c6.2,15,11.2,27.7,11.2,28.3
		C553,461.1,554.4,461.5,521.5,450.7L521.5,450.7z M443.9,452c-2.1-2.2-3.8-4.4-3.8-4.9s3.7-6.4,8.2-13.2
		c6.7-10,11.5-15.3,25.4-27.9c18.1-16.5,20.7-18.4,39.7-28.9l11.9-6.6l6.4,2.5c3.5,1.4,6.6,2.7,6.8,2.9c0.2,0.2-2.3,5.7-5.6,12.2
		c-4.8,9.5-7.4,13.1-13,18c-3.9,3.4-13,11.8-20.3,18.7c-12.1,11.4-14.8,13.3-30,21.1c-9.2,4.7-17.9,8.9-19.3,9.3
		C448.4,455.7,446.7,454.9,443.9,452L443.9,452z M535,398.2c0-2.3,10.2-21.6,11.4-21.7c2-0.1,49.8,12.6,49.4,13
		c-0.2,0.2-12.5,2.3-27.3,4.5s-28.3,4.3-30.2,4.7C536.5,399.1,535,398.8,535,398.2z M585.2,381c-14.4-4-25.8-7.6-25.3-8.1
		c1.2-1.1,43.5-10.2,44-9.5c1.2,1.5,9,25.2,8.3,25C611.8,388.4,599.6,385,585.2,381z M540.4,369.6c-1.3-0.3-2.8-0.9-3.3-1.4
		c-0.8-0.7,6.1-1.8,35.8-5.6c2-0.3,0.4,0.4-3.6,1.4C554.6,367.8,542.8,370.1,540.4,369.6z"/>
	<path id="path999_1_" inkscape:connector-curvature="0" class="st10" d="M566,540.5c0.8-0.3,2.2-0.3,3,0s0.2,0.6-1.5,0.6
		S565.1,540.8,566,540.5L566,540.5z M493.5,534.2l-58.9-5.5l17.4-0.9c16.9-0.8,18.8-0.7,63.7,5.6c25.5,3.6,44.1,6.4,41.5,6.4
		C554.6,539.8,525.9,537.3,493.5,534.2L493.5,534.2z M539.2,531.7c-31.7-4.4-58.4-8.3-59.3-8.6c-1.5-0.5,76.5-51.6,78.8-51.6
		c0.9,0,41.3,66.3,41.3,67.8C599.9,540.3,605.8,541,539.2,531.7L539.2,531.7z M584.9,504.6c-11.1-18.3-20.4-34.2-20.7-35.4
		c-0.4-1.4,7.9-15,23.8-39c13.4-20.3,24.5-36.6,24.7-36.4c0.5,0.5-6.7,143-7.2,143.6C605.2,537.6,596,522.8,584.9,504.6L584.9,504.6
		z M426.8,521.2c0-1.4,20.9-50.8,21.3-50.4c0.2,0.2,4.7,11.4,9.9,24.9l9.5,24.5l-9.8,0.8C444.2,522.1,426.8,522.2,426.8,521.2
		L426.8,521.2z M472.7,517.1c0.4-0.9,4.3-17.1,8.7-35.9s8.3-34.5,8.5-34.7c0.6-0.6,63,19.5,63,20.3c0,0.6-77.4,50.7-79.7,51.6
		C472.7,518.6,472.4,518,472.7,517.1L472.7,517.1z M459.8,485.8c-4.6-11.9-8.5-22.1-8.7-22.5c-0.2-0.5,7.3-4.8,16.5-9.6
		c9.3-4.8,16.6-8.1,16.3-7.2c-0.3,0.9-3.6,14.6-7.4,30.4s-7.2,29.2-7.6,29.7C468.6,507.2,464.5,497.8,459.8,485.8L459.8,485.8z
		 M426.8,503.2c0-0.7,2.2-11.9,4.8-25.1c2.6-13.1,4.8-24.2,4.8-24.5s1.9,1.2,4.2,3.5c2.3,2.2,4.2,4.7,4.2,5.5
		c0,1.3-16.6,40.2-17.6,41.3C427,504.2,426.8,503.9,426.8,503.2z M547.9,433.4c-6.4-15.6-11.5-28.5-11.4-28.7
		c0.6-0.5,67.4-11.4,67.7-11c0.2,0.2-9.8,15.6-22.2,34.2l-22.6,33.8L547.9,433.4z M522.1,450.7c-16.7-5.4-30.2-10.2-30.1-10.6
		c0.4-1.2,37.2-34.6,38.1-34.6s23.3,54.1,22.7,54.6C552.6,460.3,538.8,456,522.1,450.7z M444.2,452.1c-2.3-2-4.2-4.2-4.2-4.8
		s3.8-6.7,8.3-13.4c6.6-9.7,11.9-15.5,25.5-27.9c18.3-16.7,20.3-18.2,39.1-28.6l12.2-6.8l6.4,2.4c3.5,1.3,6.6,2.6,6.8,2.8
		c0.2,0.2-2.2,5.5-5.4,11.8c-5.6,11.1-6.3,11.9-26.6,30.5c-21.5,19.7-24.8,21.9-45.6,31.8l-12.4,5.8L444.2,452.1z M535,398.7
		c0-1.4,11-22.1,11.7-22.1c0.5,0,12,2.9,25.5,6.4c19.3,5,23.9,6.6,21,7.2c-2,0.4-15,2.4-28.9,4.4s-26.2,3.9-27.4,4.1
		C536,399,535,399,535,398.7L535,398.7z M585.3,380.9c-14.3-4-25.4-7.7-24.6-8.1c3.4-1.8,42.1-9.6,43-8.7c1.3,1.3,9.4,24.5,8.5,24.3
		C611.7,388.4,599.6,385,585.3,380.9z M537,368.4c-0.5-0.8,9.7-2.4,28.7-4.5c2.6-0.3-0.3,0.8-6.6,2.4
		C547.5,369.3,538.1,370.2,537,368.4z M573.3,362.5c0.9-0.3,1.9-0.3,2.3,0.1c0.4,0.4-0.3,0.7-1.6,0.6
		C572.6,363.2,572.3,362.9,573.3,362.5L573.3,362.5z"/>
	<path id="path997_1_" inkscape:connector-curvature="0" class="st11" d="M566,540.5c0.8-0.3,2.2-0.3,3,0s0.2,0.6-1.5,0.6
		S565.1,540.8,566,540.5L566,540.5z M554.6,539.3c1.2-0.3,3.1-0.3,4.2,0c1.2,0.3,0.2,0.5-2.1,0.5
		C554.3,539.8,553.4,539.6,554.6,539.3L554.6,539.3z M539.7,531.7c-32.1-4.5-59-8.3-59.8-8.6c-1.3-0.4,75.5-50.6,78.4-51.3
		c0.8-0.2,10.3,14.7,21.2,32.9c21.4,35.8,21.1,35.4,19.6,35.1C598.6,539.9,571.8,536.2,539.7,531.7L539.7,531.7z M536.8,538
		c-2-0.3-25.8-2.6-52.9-5.1c-45.8-4.3-48.4-4.7-36.1-5.1c20.9-0.7,25.9-0.3,55.3,3.8c15.2,2.1,32.5,4.6,38.5,5.4
		c8.1,1.1,9.3,1.5,4.8,1.5C543.1,538.5,538.8,538.3,536.8,538L536.8,538z M584.5,503.8c-11.4-18.9-20.7-35-20.7-35.7
		s11.1-18,24.7-38.3l24.7-37l-0.7,9.6c-0.4,5.3-2.1,37.5-3.7,71.5c-1.7,34.1-3.2,62.4-3.4,63.1C605.3,537.7,595.9,522.7,584.5,503.8
		L584.5,503.8z M426.8,521.4c0-0.5,7.6-18.9,19.6-47.2l1.7-4l9.7,25l9.7,25l-11,0.8C442.1,522,426.8,522.2,426.8,521.4L426.8,521.4z
		 M473.1,517c0.3-0.9,4.1-17,8.5-35.8s8.2-34.4,8.4-34.7c0.5-0.5,61.1,19,62.1,20c0.4,0.4-15.2,11.1-34.8,23.6
		C473.8,518.1,472.4,519,473.1,517L473.1,517z M459.9,485.7c-4.6-12-8.5-22.1-8.7-22.5s7.2-4.6,16.4-9.4l16.6-8.7l-2.8,11.7
		c-1.6,6.4-4.8,20.1-7.3,30.3c-2.4,10.3-4.7,19-5.1,19.4C468.6,507.1,464.5,497.6,459.9,485.7L459.9,485.7z M426.8,503.3
		c0-0.6,2.2-11.6,4.8-24.4c2.6-12.8,4.8-23.9,4.8-24.6s1.9,0.6,4.2,2.8c2.3,2.2,4.2,4.5,4.2,5.1c0,1.1-16.7,40.8-17.6,41.7
		C427,504.2,426.8,503.9,426.8,503.3L426.8,503.3z M548.2,434c-6.3-15.2-11.6-28.1-11.7-28.5c-0.3-0.7,67.2-12.4,67.8-11.7
		c0.1,0.1-9.9,15.5-22.2,34.1l-22.4,33.8L548.2,434z M522.6,450.6c-16.4-5.4-29.8-10.2-29.8-10.7c0.1-1.1,36.3-34.5,37.4-34.5
		c0.8,0,23.2,54.2,22.7,54.6C552.6,460.2,539,456,522.6,450.6L522.6,450.6z M445.5,453.4c-6.5-5.1-6.4-6,2.9-19.4
		c12.1-17.5,38.8-41.8,57.2-52.2c19.7-11.1,18.8-10.8,26.4-8.2c3.6,1.2,6.5,2.5,6.5,2.9s-2.6,5.6-5.7,11.6
		c-5.4,10.4-6.6,11.8-26.5,30.1c-20.7,19-21,19.2-39.3,28.4l-18.4,9.3L445.5,453.4z M535,398.6c0-1.2,11-22,11.6-22
		c2.5,0,48.4,12.7,47.3,13C591.5,390.4,535,399,535,398.6z M583.1,380.2c-18.1-5.1-23.9-7.1-21.6-7.7c17.2-4.3,41.4-9,42.2-8.3
		c0.8,0.8,8.3,21.4,8.3,22.7C612,388,606.6,386.8,583.1,380.2z M537,368.4c-0.6-1,31.7-5.5,32.7-4.5c0.3,0.3-0.4,0.6-1.7,0.6
		s-6.6,1.1-11.9,2.4C546.1,369.4,538,370,537,368.4L537,368.4z M573.3,362.5c0.9-0.3,1.9-0.3,2.3,0.1c0.4,0.4-0.3,0.7-1.6,0.6
		C572.6,363.2,572.3,362.9,573.3,362.5L573.3,362.5z"/>
	<path id="path995_1_" inkscape:connector-curvature="0" class="st12" d="M556.4,539.3c0.9-0.3,1.9-0.3,2.3,0.1
		c0.4,0.4-0.3,0.7-1.6,0.6C555.8,539.9,555.5,539.7,556.4,539.3L556.4,539.3z M575.9,536.5c-12.9-1.9-35.9-5.1-51.1-7.1
		c-41.3-5.6-46.4-6.4-46-6.7c0.2-0.2,18.2-11.8,39.9-25.8c32-20.6,39.9-25.2,41-23.9c2.3,2.4,41,67.3,40,67
		C599.5,539.9,588.8,538.4,575.9,536.5L575.9,536.5z M543.7,538.1c1.2-0.3,3.1-0.3,4.2,0c1.2,0.3,0.2,0.5-2.1,0.5
		C543.5,538.6,542.6,538.4,543.7,538.1L543.7,538.1z M501.3,534.6c-15.5-1.5-36.1-3.5-45.7-4.4l-17.4-1.6l18.4-0.3
		c15.6-0.3,23.2,0.3,49.9,3.9c17.3,2.3,32.3,4.5,33.3,4.7C544.9,538.2,526.4,537.1,501.3,534.6L501.3,534.6z M584.6,503.5
		c-11.4-19-20.7-35-20.7-35.7c0-0.6,11.1-17.8,24.6-38.1l24.6-36.9l-0.6,7.8c-0.3,4.3-2,35.9-3.6,70.3c-1.7,34.4-3.1,63.5-3.3,64.8
		C605.5,537.1,596.7,523.6,584.6,503.5L584.6,503.5z M426.8,521.7c0-0.2,4.8-11.9,10.6-25.9l10.6-25.5l9.6,24.9
		c5.3,13.7,9.6,25,9.5,25.1C466.9,520.8,426.8,522.1,426.8,521.7L426.8,521.7z M481.3,482.7c4.6-19.7,8.5-35.9,8.7-36.1
		c0.5-0.7,61.9,19.5,61.9,20.4c0,0.4-16.6,11.5-37,24.6c-20.3,13.1-38.1,24.5-39.5,25.4C473.1,518.3,473.7,515.2,481.3,482.7
		L481.3,482.7z M459.6,484.5l-8.4-22l15.6-8.1c8.6-4.5,15.9-7.9,16.1-7.6c0.3,0.3-2,11-5.2,23.8c-3.1,12.8-6.2,25.7-6.8,28.7
		c-0.6,3-1.5,5.8-2,6.3C468.5,506.1,464.3,496.6,459.6,484.5L459.6,484.5z M427.2,501.6c0.3-1.7,2.6-13.2,5.1-25.6l4.5-22.6l4.2,4.2
		l4.2,4.2l-9.3,21.4C430.9,495,426.9,503.3,427.2,501.6z M524.2,451c-15.5-5.1-29.3-9.6-30.5-9.9c-1.8-0.5,1.8-4.3,16.6-17.8
		c10.4-9.5,19.2-17.3,19.7-17.5c0.8-0.3,23.5,53.9,22.8,54.4C552.6,460.2,539.7,456.1,524.2,451L524.2,451z M548,432.8l-11.5-28
		l33.8-5.7c18.6-3.1,34-5.7,34.1-5.7c0.4-0.1-42.9,65-44.1,66.4C559.9,460.3,554.3,448.2,548,432.8L548,432.8z M443.9,450.8
		l-3.8-3.9l7.7-11.5c5.7-8.5,11.9-15.4,23.7-26.6c8.8-8.3,17.4-16.2,19.1-17.5c5-3.9,32.7-19.5,34.7-19.5c1.6,0,11.9,3.4,13.2,4.3
		c0.2,0.2-2.2,5.3-5.4,11.4c-5.6,10.6-6.8,12-27.1,30.7c-20.9,19.2-21.6,19.7-38.2,28.1c-9.3,4.7-17.6,8.5-18.5,8.5
		C448.4,454.7,446,452.9,443.9,450.8L443.9,450.8z M540.5,387.3c4.9-9.7,5.8-10.9,8.1-10.2c1.4,0.4,12.5,3.3,24.5,6.4
		s21.7,5.8,21.5,6c-0.5,0.5-54.8,8.7-57.5,8.7C535.3,398.2,535.9,396.4,540.5,387.3z M584.5,380.4c-16.6-4.6-23.7-7.1-22.2-7.7
		c4.8-2,40.6-9.3,41.3-8.5c0.4,0.5,2.2,5.1,4,10.3c1.8,5.2,3.6,10.2,3.9,11.1C612.5,388.1,611.8,388,584.5,380.4z M538.6,368.3
		c0-0.9,20.1-3.9,24.3-3.7c0.9,0-2.5,1.1-7.4,2.4C545.8,369.4,538.6,370,538.6,368.3z M566,363.7c0.9-0.3,1.9-0.3,2.3,0.1
		c0.4,0.4-0.3,0.7-1.6,0.6C565.4,364.4,565.1,364.1,566,363.7L566,363.7z"/>
	<path id="path993_1_" inkscape:connector-curvature="0" class="st13" d="M556.4,539.3c0.9-0.3,1.9-0.3,2.3,0.1
		c0.4,0.4-0.3,0.7-1.6,0.6C555.8,539.9,555.5,539.7,556.4,539.3L556.4,539.3z M589.7,538.2l-9.6-1.6l9,0.7l9,0.7l-1.8-2.9
		c-3.5-5.4-8.4-14.9-6.2-12c2.2,3,10.4,17.1,9.8,16.8C599.5,539.9,595,539.1,589.7,538.2L589.7,538.2z M543.7,538.1
		c1.2-0.3,3.1-0.3,4.2,0c1.2,0.3,0.2,0.5-2.1,0.5C543.5,538.6,542.6,538.4,543.7,538.1L543.7,538.1z M502.5,534.7
		c-14.9-1.5-24.9-2.8-22.2-2.9c2.6-0.1,7.8-0.4,11.4-0.7c5.6-0.5,6-0.4,2.4,0.5c-3.2,0.8-2.2,0.9,4.2,0.5c6.2-0.4,7.9-0.2,6.6,0.7
		c-1.4,1-0.8,1.1,2.4,0.7c2.3-0.4,11,0.4,19.2,1.6C547.4,538.3,536.3,538,502.5,534.7L502.5,534.7z M598.2,526
		c-3.9-6.4-7.9-13.1-8.8-14.7c-4.4-7.8,2.7,2.5,8.5,12.3l6.2,10.5l0.7-6.9l0.7-6.9l0.2,8.7c0.1,4.8,0,8.7-0.1,8.7
		S602.1,532.4,598.2,526L598.2,526z M568.1,535.3l-4.8-0.9h4.8c2.6,0,6.4,0.4,8.4,0.9l3.6,0.9h-3.6
		C574.5,536.2,570.7,535.8,568.1,535.3L568.1,535.3z M557,533.3c1.2-0.3,3.1-0.3,4.2,0c1.2,0.3,0.2,0.5-2.1,0.5
		C556.7,533.8,555.8,533.6,557,533.3L557,533.3z M548,532c1.5-0.3,3.7-0.3,4.8,0s-0.1,0.5-2.7,0.5C547.4,532.6,546.5,532.3,548,532
		L548,532z M467.4,530.8c1.5-0.3,3.7-0.3,4.8,0c1.1,0.3-0.1,0.5-2.7,0.5C466.8,531.4,465.9,531.1,467.4,530.8L467.4,530.8z
		 M532.6,530.5l-5.4-0.8h5.4c3,0,7,0.4,9,0.9l3.6,0.9h-3.6C539.6,531.3,535.6,530.9,532.6,530.5L532.6,530.5z M444.8,529.3
		c-5.7-0.7-4.8-0.8,5.7-1c7.5-0.1,12.3,0.3,12.3,1C462.9,530.6,455.4,530.6,444.8,529.3z M482.4,529.6c1.2-0.3,3.1-0.3,4.2,0
		c1.2,0.3,0.2,0.5-2.1,0.5C482.2,530.2,481.3,529.9,482.4,529.6L482.4,529.6z M471.6,528.4c1.8-0.3,4.5-0.3,6,0s0,0.5-3.3,0.5
		C471,528.9,469.8,528.7,471.6,528.4L471.6,528.4z M522.1,528.4c1.2-0.3,2.8-0.3,3.6,0s-0.1,0.6-2.1,0.6S520.9,528.7,522.1,528.4
		L522.1,528.4z M513.1,527.2c1.5-0.3,3.7-0.3,4.8,0s-0.1,0.5-2.7,0.5C512.5,527.8,511.6,527.5,513.1,527.2L513.1,527.2z
		 M497.7,525.7l-5.4-0.8h5.4c3,0,7,0.4,9,0.9l3.6,0.9h-3.6C504.8,526.5,500.7,526.1,497.7,525.7L497.7,525.7z M481.7,523.6
		c-3.2-0.5-3.3-0.6-1.2-2c6-4.1,8.9-5.7,8.9-5c0,0.4-1.7,1.8-3.8,3l-3.8,2.3l5.3,1.2c4.1,0.9,4.4,1.2,1.7,1.1
		C486.7,524.1,483.6,523.9,481.7,523.6L481.7,523.6z M426.8,521.2c0-0.5,0.5-1.7,1.2-2.7c1-1.6,1.2-1.5,1.2,0.2
		c0,1.6,1.4,2.1,6.9,2.5l6.9,0.4l-8.1,0.2C430.4,522,426.8,521.7,426.8,521.2L426.8,521.2z M455,520c5.3-0.2,9.9-1,10.4-1.7
		c0.5-0.8,1.1-0.5,1.5,0.7c0.6,1.7-0.7,1.9-10.4,1.7l-11.1-0.2L455,520z M585.5,517.2c-0.7-1.3-1-2.4-0.7-2.4s1.2,1.1,1.9,2.4
		c0.7,1.3,1,2.4,0.7,2.4C587.1,519.7,586.2,518.6,585.5,517.2z M473.5,515.1c0.5-2.2,0.8-2.6,1.1-1.2c0.4,1.9,0.7,1.9,3.7,0.2
		c3-1.8,3.1-1.8,0.8,0.1c-1.3,1.1-3.3,2.5-4.3,3.1C473.2,518.2,473,517.8,473.5,515.1L473.5,515.1z M606.4,508.8
		c0-5.6,0.2-7.9,0.5-5.1s0.3,7.4,0,10.2C606.6,516.8,606.4,514.5,606.4,508.8z M429.3,515.4c0-0.7,0.8-2.6,1.7-4.2
		c0.9-1.7,1.7-2.5,1.7-1.8s-0.8,2.6-1.7,4.2C430.1,515.3,429.3,516.1,429.3,515.4z M460.6,506.3c-2.1-5.4-3.6-10-3.4-10.2
		s2.2,4,4.3,9.3c2.1,5.4,3.6,10,3.4,10.2C464.7,515.9,462.7,511.7,460.6,506.3z M490.5,515.7c0-0.5,2.6-2.2,12.3-8.6
		c2-1.3,3.3-1.6,3.3-0.8c0,0.7-0.6,1.3-1.3,1.3c-0.7,0-3.5,1.5-6.3,3.4C492.1,515.4,490.5,516.3,490.5,515.7L490.5,515.7z
		 M576.4,501.9c-3.8-6.4-7.7-12.9-8.7-14.4c-0.9-1.5-1.4-2.7-1.1-2.7c0.5,0,11.8,18.3,17.3,28c0.3,0.5,0.3,0.9,0,0.9
		C583.6,513.6,580.2,508.4,576.4,501.9L576.4,501.9z M482.1,512c0-0.3,6.9-5,15.3-10.5c18.8-12.2,21.7-13.9,20.1-12.3
		c-0.7,0.7-8.2,5.8-16.8,11.4C481.6,513,482.1,512.7,482.1,512z M475,510c0.1-1,0.5-3.2,1.1-4.8l1-3l0.1,3c0.1,1.7-0.4,3.8-1.1,4.8
		C475.1,511.6,474.9,511.6,475,510L475,510z M433.3,506.4c1.1-3.9,4.7-12.1,5.2-11.6c0.3,0.3-0.9,3.4-2.6,7
		C434.2,505.3,433,507.4,433.3,506.4L433.3,506.4z M585.4,505c-0.8-1.5-2.3-4-3.2-5.5c-1-1.5-1.5-2.7-1.2-2.7c1,0,7.1,9.8,6.5,10.4
		C587.2,507.6,586.2,506.6,585.4,505L585.4,505z M465.4,499.6c-1.4-3.7-2.4-7-2.1-7.2c0.2-0.2,1.4,2,2.5,5s2.6,5.1,3.2,4.8
		c0.6-0.4,1.1,0.1,1.1,1.1C470.1,507.6,467.8,505.8,465.4,499.6L465.4,499.6z M507.4,504.9c0-0.5,2.6-2.2,12.3-8.6
		c1.8-1.2,3.3-1.8,3.3-1.4s-2.8,2.5-6.3,4.7C507.9,505.1,507.4,505.4,507.4,504.9z M426.9,503.4c0-0.7,1.1-5.8,2.3-11.4
		c1.4-6.1,2.1-8,1.8-4.8l-0.5,5.4l4.1-8.4c6-12.4,5.1-9-1.7,6.7C429.6,498.4,426.9,504.1,426.9,503.4z M477.7,498.9
		c0.3-1.5,1.3-5.8,2.1-9.6c0.8-3.8,1.7-6.7,2-6.4c0.7,0.7-3.3,18.7-4.2,18.7C477.3,501.6,477.3,500.4,477.7,498.9L477.7,498.9z
		 M470.3,498c0-1.7,0.3-2.3,0.6-1.5c0.3,0.8,0.3,2.2,0,3C470.5,500.3,470.3,499.7,470.3,498L470.3,498z M578.2,492.9
		c-0.8-1.5-2.2-4.1-3.2-5.7c-1.7-2.9-1.7-2.9,0.3-0.6c2.4,2.9,5.8,9,4.9,9C579.9,495.6,578.9,494.4,578.2,492.9L578.2,492.9z
		 M607.6,484.2c0-6.6,0.2-9.2,0.4-5.7s0.2,8.9,0,12C607.8,493.7,607.6,490.8,607.6,484.2L607.6,484.2z M454.5,490.8
		c-0.8-2-1.2-4-0.9-4.3c0.3-0.3,1.2,1.1,2,3.2C457.3,494.7,456.4,495.6,454.5,490.8L454.5,490.8z M471.5,493.2c0-1,0.5-3.2,1-4.8
		c0.8-2.4,1-2.5,1-0.6c0,1.3-0.4,3.5-1,4.8C471.9,494.1,471.5,494.3,471.5,493.2z M524.8,493.5c0.7-0.7,8.4-5.9,17.3-11.7
		c17.7-11.5,16.6-11.3,21.8-2.4c3.3,5.7,1.6,4.3-2.7-2.1l-3-4.6l-8.1,5.5c-4.5,3-8.4,5.5-8.6,5.5s-3.6,2.1-7.4,4.6
		C525.8,493.7,523.1,495.3,524.8,493.5L524.8,493.5z M438.8,492.4c0-0.5,0.5-1.8,1.2-2.8c1-1.6,1.2-1.5,1.2,0.2
		c0,1.1-0.5,2.4-1.2,2.8C439.4,493,438.8,492.9,438.8,492.4z M460.1,485.8c-2.6-6.5-1.8-7.3,1-1c1.2,2.7,1.9,5.1,1.6,5.4
		C462.3,490.6,461.2,488.6,460.1,485.8z M520,487.5c0.7-0.7,7.9-5.6,16.1-10.9L551,467l-5.3-1.5c-2.9-0.8-5.8-2-6.5-2.7
		c-0.8-0.8-0.5-0.9,0.8-0.5c1.1,0.4,4.2,1.4,6.9,2.2s4.9,1.9,4.9,2.4s-5.8,4.6-12.9,9.2C520.7,487.7,518.6,489,520,487.5z
		 M441.3,486.6c0-0.7,0.8-2.6,1.7-4.2c0.9-1.7,1.7-2.5,1.7-1.8s-0.8,2.6-1.7,4.2C442.1,486.4,441.3,487.2,441.3,486.6z M450.3,479.2
		c-2.1-5.6-2.2-5.6-3.7-2.7c-2.1,3.7-2.1,2.4-0.1-2.5l1.6-3.8l2.6,6.9c1.4,3.8,2.4,7.1,2.2,7.3C452.6,484.6,451.4,482.3,450.3,479.2
		L450.3,479.2z M473.8,482.9c0.1-1.4,0.3-1.7,0.7-0.7c0.3,0.9,0.3,1.9-0.1,2.3C474,484.9,473.7,484.1,473.8,482.9L473.8,482.9z
		 M571.1,481.2c-0.7-1.3-1-2.4-0.7-2.4s1.2,1.1,1.9,2.4s1,2.4,0.7,2.4C572.6,483.6,571.8,482.5,571.1,481.2z M431.9,479.4
		c0-1.3,0.4-4,0.9-6c0.8-3.2,0.9-3.3,0.9-0.6c0,1.7-0.4,4.4-0.9,6C432.1,481.1,431.9,481.3,431.9,479.4z M482.1,479.9
		c0-2.4,4.5-18.9,4.7-17.1c0.1,1.8-3.5,17.6-4.2,18.3C482.3,481.4,482.1,480.8,482.1,479.9z M475.1,478.2c0-1.3,0.4-3.5,1-4.8
		c1.3-3.1,1.3,0.1,0,4.2C475.3,480,475.1,480.1,475.1,478.2z M567.5,475.2c-0.7-1.3-1-2.4-0.7-2.4s1.2,1.1,1.9,2.4s1,2.4,0.7,2.4
		C569,477.6,568.2,476.5,567.5,475.2z M455.2,473.3c-1.2-3-0.8-3.8,0.6-1.4c0.7,1.2,1,2.4,0.7,2.8
		C456.2,475,455.6,474.4,455.2,473.3L455.2,473.3z M440.1,472.5c0-0.5,0.8-3.1,1.9-5.8c1.9-4.7,1.9-5-0.5-7.4
		c-3.3-3.3-4.7-2.1-5.7,4.5c-0.5,3-1.1,5.3-1.4,4.9c-0.3-0.3,0.1-3.9,0.9-8l1.5-7.4l4,3.9c2.2,2.2,4,4.5,3.9,5.2
		C444.6,464.1,440.2,473.6,440.1,472.5L440.1,472.5z M564.7,470.8c-0.4-0.4-0.8-1.5-0.8-2.4s11.1-18.2,24.6-38.6
		c15.4-23.1,24.6-35.9,24.6-34.3c0,1.5-0.5,2.7-1.2,2.7c-2.1,0-47.1,68.9-46.5,71.2C566.1,471.7,565.9,472,564.7,470.8L564.7,470.8z
		 M477.4,468c-0.1-1.7,0.4-3.8,1.1-4.8c1-1.6,1.2-1.6,1.1,0c-0.1,1-0.5,3.2-1.1,4.8l-1,3L477.4,468z M608.8,460.7
		c0-5.6,0.2-7.9,0.5-5.1s0.3,7.4,0,10.2S608.8,466.4,608.8,460.7z M452.3,465.7c-1.2-3.4-1.1-3.5,9-8.5c5.6-2.8,9.9-4.6,9.6-4.1
		s-4.5,2.8-9.2,5.1c-8.1,3.9-8.6,4.4-7.9,7.5C454.6,470.1,453.8,470.1,452.3,465.7L452.3,465.7z M534.8,461.1
		c0.9-0.3,1.9-0.3,2.3,0.1c0.4,0.4-0.3,0.7-1.6,0.6C534.1,461.8,533.8,461.5,534.8,461.1L534.8,461.1z M479.9,458.3
		c0-1.7,0.4-4.1,1-5.4l1-2.4v2.4c0,1.3-0.5,3.8-1,5.4l-1,3V458.3L479.9,458.3z M487.3,458c0.4-1.5,1-4.7,1.5-7.2
		c0.4-2.5,1.2-4.5,1.6-4.5c1.5,0,32,10.6,30.7,10.7c-0.7,0.1-7.7-2.1-15.6-4.7s-14.4-4.8-14.6-4.8c-0.1,0-0.9,3-1.6,6.6
		c-0.8,3.6-1.7,6.6-2,6.6C486.9,460.7,486.9,459.5,487.3,458L487.3,458z M526.8,459.4c-2.2-0.6-3.8-1.4-3.5-1.7
		c0.6-0.6,9.4,1.7,9.4,2.5C532.6,460.9,531.7,460.8,526.8,459.4L526.8,459.4z M533.8,454.1c-10.3-3.5-18.1-6.4-17.4-6.4
		c0.7-0.1,8.5,2.3,17.4,5.3c8.9,2.9,16.3,5.2,16.6,4.9c0.2-0.2-1.5-5.2-3.9-11c-2.3-5.8-4.1-10.8-3.8-11c0.2-0.2,2.7,5.1,5.4,11.8
		c2.7,6.8,4.8,12.4,4.7,12.5C552.6,460.3,544.1,457.5,533.8,454.1L533.8,454.1z M558.6,458.8c-0.4-1.1-0.5-2.3-0.1-2.6
		c0.3-0.3,0.6,0.1,0.7,1.1c0,0.9,1.7-0.2,3.7-2.5l3.7-4.2l-3.2,5.1c-1.8,2.8-3.4,5.1-3.6,5.1C559.5,460.7,559,459.8,558.6,458.8z
		 M443.9,450.8l-3.8-3.9l6.7-10.2c3.7-5.6,8.2-11.7,9.9-13.6c6.3-6.9,35-33.1,37.7-34.4c1.8-0.9,1.5-0.4-0.9,1.4
		c-2,1.5-11,9.7-20.1,18.2c-12.4,11.6-18.4,18.3-24.3,27l-7.9,11.6l3.8,4c2.1,2.2,3.6,4,3.2,4C448,454.7,446,452.9,443.9,450.8
		L443.9,450.8z M467.2,445.4c18.9-9.7,22.8-12.7,54.3-42.8c3.5-3.3,6.3-5.7,6.3-5.2c0,0.4-9.7,9.7-21.6,20.6
		c-21.2,19.5-21.8,20-38.5,28.3c-9.3,4.7-17.3,8.4-17.8,8.4C449.5,454.6,457.2,450.5,467.2,445.4L467.2,445.4z M554.4,448.6
		c-1.4-3.4-2.4-6.4-2.1-6.7c0.2-0.2,1.6,2.4,3,5.8s2.4,6.4,2.1,6.7C557.2,454.6,555.8,452,554.4,448.6z M476.7,449.3
		c5.7-3.5,6.6-3.6,6.6-0.9c0,1.5-0.3,1.7-0.9,0.6c-0.7-1.1-1.9-0.9-4.8,0.9c-2.1,1.3-4.3,2.3-4.8,2.3
		C472.3,452.3,474.1,450.9,476.7,449.3L476.7,449.3z M566.9,448.7c3.2-5.7,30.9-46.9,32-47.6c1.3-0.8-29.6,46.1-31.7,48.2
		C566.3,450.1,566.2,449.9,566.9,448.7z M501.3,443.8c-3.6-1.3-7.3-2.6-8.2-2.9c-0.9-0.3,6.1-7.5,17.2-17.7c19.1-17.4,21-19,21-16.6
		c0,0.7-0.5,1.2-1,1c-0.9-0.3-36.2,31.1-36.2,32.2c0,0.2,3.8,1.6,8.4,3.1s8.4,2.9,8.4,3.1C511,446.8,507.8,446.1,501.3,443.8z
		 M609.9,436.7c0-5.6,0.3-16.2,0.8-23.4c0.8-13.2,0.8-13.2,0.9-3c0,5.6-0.3,16.2-0.8,23.4C610,446.9,610,446.9,609.9,436.7
		L609.9,436.7z M550.2,438.4c-1.2-3-0.8-3.8,0.6-1.4c0.7,1.2,1,2.4,0.7,2.8C551.2,440.1,550.6,439.5,550.2,438.4L550.2,438.4z
		 M536.3,422.1c-2.8-6.7-4.8-12.4-4.6-12.6s2.7,5.1,5.5,11.8c2.8,6.7,4.8,12.4,4.6,12.6S539.1,428.8,536.3,422.1z M546,428.1
		c-1.4-3.4-2.4-6.4-2.1-6.7c0.2-0.2,1.6,2.4,3,5.8s2.4,6.4,2.1,6.7C548.8,434.1,547.4,431.5,546,428.1z M541.8,418
		c-1.2-3-0.8-3.8,0.6-1.4c0.7,1.2,1,2.4,0.7,2.8C542.8,419.7,542.2,419.1,541.8,418z M538.3,409.4l-1.8-4.6l11.6-2
		c6.4-1.1,12.9-2,14.6-2c1.7,0-2.9,1.1-10.2,2.4c-7.2,1.3-13.4,2.6-13.7,2.9s0.1,2,0.9,3.7c0.8,1.7,1.2,3.4,0.9,3.7
		C540.3,413.7,539.3,411.9,538.3,409.4z M567.2,399.8c0.8-0.3,2.2-0.3,3,0s0.2,0.6-1.5,0.6S566.3,400.2,567.2,399.8L567.2,399.8z
		 M580.1,397.6c4.6-0.9,9.8-1.6,11.4-1.6c1.7,0-0.5,0.7-4.8,1.6s-9.4,1.6-11.4,1.6S575.5,398.5,580.1,397.6z M601.1,397.2
		c0.7-1.2,0.9-2.6,0.4-3c-0.4-0.4,0.2-0.8,1.3-0.8c1.9,0,1.9,0.2,0.1,3C600.5,399.9,599.3,400.4,601.1,397.2L601.1,397.2z
		 M540.4,387.4c5.4-10.8,6.3-11.6,10.8-9.5c1.9,0.9,1.6,1-1.2,0.5c-3.5-0.6-3.8-0.3-8.1,8.4c-2.5,5-4.5,9.3-4.5,9.6
		c0,0.3,1.2,0.7,2.7,1c2,0.4,1.6,0.6-1.2,0.7l-3.9,0.2L540.4,387.4z M547.6,395.7c2.6-0.5,6.4-1,8.4-0.9c2.7,0.1,2.3,0.3-1.8,1
		C547,397.2,541.3,397,547.6,395.7z M595.7,395.8c-0.4-0.6,0.4-1.1,1.8-1.1c2.9,0,3.2,0.7,0.7,1.6
		C597.2,396.6,596.1,396.4,595.7,395.8z M561.8,393.8c1.2-0.3,2.8-0.3,3.6,0s-0.1,0.6-2.1,0.6S560.6,394.1,561.8,393.8L561.8,393.8z
		 M530,391.3c0.5-1.2,2.2-4.7,3.9-7.9c2.9-5.8,2.9-5.8,0.6-7.6c-2.3-1.8-2.3-1.8,0.6-0.9c1.7,0.5,3.2,1,3.4,1.2
		c0.5,0.4-8.1,17.4-8.8,17.4C529.3,393.4,529.5,392.5,530,391.3L530,391.3z M569,392.6c1.2-0.3,3.1-0.3,4.2,0
		c1.2,0.3,0.2,0.5-2.1,0.5C568.8,393.1,567.8,392.9,569,392.6L569,392.6z M583.1,390.4c4.3-0.8,6.8-1.6,5.5-1.7s-2-0.4-1.6-0.8
		s2.5-0.2,4.7,0.4c3.9,1,3.8,1.1-3.9,2.5c-4.4,0.8-9,1.3-10.2,1.3C576.3,392,578.8,391.2,583.1,390.4L583.1,390.4z M497.7,387
		c0-1.3,25.9-15.2,28.3-15.2c1.3,0,3.2,0.6,4.2,1.2c1.3,0.8,0.7,1-2.1,0.4c-3.8-0.7-8,1.1-25.3,11.2
		C500,386.3,497.7,387.3,497.7,387L497.7,387z M582.9,386.6c0.9-0.3,1.9-0.3,2.3,0.1c0.4,0.4-0.3,0.7-1.6,0.6
		C582.2,387.2,581.9,387,582.9,386.6L582.9,386.6z M608.9,383.1c-0.1-4.2,0.8-3.6,2.4,1.6c0.6,1.9,0.3,2.7-0.8,2.7
		C609.5,387.4,608.9,385.8,608.9,383.1z M572.9,384.3c-4.7-1.6-4.8-1.7-0.6-1c4.9,0.8,9.9,2.7,7.2,2.6
		C578.5,386,575.5,385.3,572.9,384.3L572.9,384.3z M604.5,385.4c0.9-0.3,1.9-0.3,2.3,0.1c0.4,0.4-0.3,0.7-1.6,0.6
		S603.6,385.8,604.5,385.4L604.5,385.4z M597.5,383.8c-2.5-0.8-2.6-1-0.6-1.1c1.3-0.1,3.2,0.4,4.2,1.1
		C603.3,385.1,601.8,385.1,597.5,383.8z M560.9,381.4c-3.1-1.3,0.1-1.3,4.2,0c2.4,0.8,2.5,1,0.6,1
		C564.4,382.4,562.2,381.9,560.9,381.4z M588.5,381.4l-2.4-1l2.4-0.1c1.3,0,3.2,0.5,4.2,1.1c1.6,1,1.6,1.2,0,1.1
		C591.7,382.4,589.8,381.9,588.5,381.4L588.5,381.4z M555.2,379.4c0.9-0.3,1.9-0.3,2.3,0.1c0.4,0.4-0.3,0.7-1.6,0.6
		C554.6,380,554.3,379.7,555.2,379.4L555.2,379.4z M577.7,378.3c-4.7-1.6-4.8-1.7-0.6-1c4.9,0.8,9.9,2.7,7.2,2.6
		C583.3,380,580.3,379.2,577.7,378.3z M566.9,375.4c-1.5-0.7-1.7-1-0.6-1c1,0,2.9,0.5,4.2,1c1.5,0.7,1.7,1,0.6,1
		C570.1,376.4,568.2,375.9,566.9,375.4L566.9,375.4z M561.5,373c1-0.6,4-1.4,6.6-1.8l4.8-0.7l-5.4,1.8
		C561.5,374.3,558.7,374.7,561.5,373L561.5,373z M581.9,368.1c11.8-2.9,15.1-2.8,4.2,0.2c-4.6,1.2-9.5,2.2-10.8,2.2
		C574,370.4,576.9,369.3,581.9,368.1z M604.8,369.6c0-0.8-1.1-2.5-2.4-3.8c-1.9-1.9-2-2.4-0.6-2.4c1.8,0,4.8,5.8,3.6,7
		C605,370.7,604.8,370.3,604.8,369.6z M538.6,368.3c0-0.9,20.1-3.9,24.3-3.7c0.9,0-2.5,1.1-7.4,2.4
		C545.8,369.4,538.6,370,538.6,368.3z M596.1,364.9c0.9-0.3,1.9-0.3,2.3,0.1s-0.3,0.7-1.6,0.6C595.4,365.6,595.1,365.3,596.1,364.9
		L596.1,364.9z M566,363.7c0.9-0.3,1.9-0.3,2.3,0.1c0.4,0.4-0.3,0.7-1.6,0.6C565.4,364.4,565.1,364.1,566,363.7L566,363.7z"/>
</g>
<g id="g1021_1_" transform="matrix(-1,0,0,1,-155.71988,-156.58664)" class="st6">
	<path id="path1007_1_" inkscape:connector-curvature="0" class="st7" d="M-284.2,512.2c-5-0.5-33.4-3.2-63.1-5.9
		c-65.1-5.9-65.9-6-62.2-7.4c3.8-1.5,35.1-1.4,46,0c5,0.7,13.2,1.8,18.3,2.5c9.3,1.2,21.5,2.9,35.2,4.8c4,0.6,14.4,2,23.1,3.2
		s15.9,2.6,15.9,3.1C-270.9,513.6-271.4,513.6-284.2,512.2L-284.2,512.2z M-260.1,509.9c-3-0.5-10-1.6-15.6-2.3
		c-5.6-0.8-21.6-2.9-35.5-4.9s-32.4-4.4-41.2-5.6c-8.8-1.2-15.8-2.6-15.6-3.1c0.2-0.5,16.8-11.6,37-24.6
		c42.5-27.4,44.4-28.6,45.1-28c0.5,0.5,38.7,64.2,40.5,67.5c1,1.9,0.5,2.1-4,2C-252.4,510.9-257.1,510.4-260.1,509.9L-260.1,509.9z
		 M-244.2,504.3c-16.4-26-38.8-64.7-38.3-66.1c1.2-3.2,49.1-75,49.7-74.4c0.7,0.7,0.4,24.8-0.3,30.1c-0.3,2-1.7,28.5-3.1,58.9
		c-1.4,30.4-3,55.7-3.5,56.3C-240.1,509.6-242.2,507.4-244.2,504.3L-244.2,504.3z M-420,493.4c0-0.9,9.5-24.1,18.3-44.5
		c2.1-4.8,4.1-8.3,4.6-7.8c2.1,2.4,20,50.4,19.1,51.2C-379.1,493.2-420,494.3-420,493.4L-420,493.4z M-373.6,488.7
		c0.3-1.2,4.3-17.8,8.8-36.8s8.5-34.9,8.8-35.2c0.5-0.5,20.8,5.8,53.5,16.7c6.1,2,11.1,4,11.1,4.4s-4.7,3.7-10.5,7.4
		c-5.8,3.7-23.7,15.2-39.9,25.7c-16.2,10.4-30,19.2-30.9,19.5C-373.6,490.6-374,490.1-373.6,488.7L-373.6,488.7z M-385.7,459.1
		c-4.5-11.4-8.2-22.1-8.3-23.7c-0.2-2.7,1.5-3.9,16.3-11.5c11.5-5.9,16.5-8,16.5-6.8c0,1-2.2,10.8-4.9,21.8
		c-4.9,20.2-8,33.4-9.1,38.3c-0.3,1.5-1,2.7-1.6,2.7C-377.2,479.8-381.2,470.5-385.7,459.1z M-420,477.1c0-2.2,9.3-49.6,10.3-52.5
		c0.4-1.3,2-0.4,5.5,3.2l4.9,4.9l-9.4,22C-418,476.9-420,480.9-420,477.1L-420,477.1z M-304,428.7c-6.6-2.2-20.8-6.9-31.6-10.4
		c-10.8-3.5-19.4-6.7-19.2-7.1c0.2-0.4,7.1-6.9,15.3-14.5c8.3-7.5,16.9-15.4,19.2-17.6c2.3-2.2,4.5-3.9,4.9-3.9
		c1.2,0,24.2,55.2,23.7,56.6C-291.8,432.4-297.4,430.9-304,428.7L-304,428.7z M-288.5,428.4c-1.1-2.5-5.6-13.4-10.1-24.3
		s-9-21.9-10.1-24.3c-1.9-4.4-1.9-4.5,0.8-5.1c6.7-1.5,67.6-11.3,68-10.9c0.5,0.5-45.2,69.2-46,69.2
		C-286.3,432.9-287.4,430.9-288.5,428.4L-288.5,428.4z M-402.9,422.2l-3.9-4.5l8.5-12.5c4.7-6.9,9.6-13.6,11.1-14.9
		c1.4-1.3,9.5-8.7,17.9-16.4c11.3-10.4,18.5-15.8,27.7-21c22.4-12.8,20-12,28.2-9.2c4.6,1.6,7,3,6.7,4.1c-0.2,0.9-2.6,6.2-5.4,11.7
		c-4.5,9.1-6.6,11.5-20.7,24.6c-8.6,8-18.1,16.9-21,19.7c-5.7,5.4-38.8,23.3-42.9,23.1C-398,426.8-400.7,424.7-402.9,422.2
		L-402.9,422.2z M-310.7,367.5c1.9-5.1,9.6-19.8,10.6-20.4s50.6,11.9,51.7,13.1c0.7,0.7-1.6,1.4-7.6,2.3c-2.6,0.4-15.5,2.3-28.7,4.3
		C-313.7,371.2-312,371.2-310.7,367.5L-310.7,367.5z M-246.3,356.6c-5.3-1.5-16.6-4.7-25.1-7c-14.8-4.1-17.4-5.1-16.3-6
		c0.4-0.3,12.6-3.1,44-10.1c2.3-0.5,3,0.6,6.5,11.3c2.2,6.5,4.2,12.5,4.5,13.3C-232,360.1-234.9,359.8-246.3,356.6L-246.3,356.6z
		 M-308.8,339.9c-2.4-1.7-3.7-1.4,25.8-5.6c12.4-1.8,15.6-2,15.6-1.1c0,0.5-2.8,1.4-6.3,2.2c-3.5,0.7-11.2,2.4-17.1,3.8
		C-303.4,342-305.8,342.1-308.8,339.9z"/>
	<path id="path1009_1_" inkscape:connector-curvature="0" class="st8" d="M-287.8,511.5c-2.3-0.3-30.7-2.9-63.1-5.9
		s-59.5-5.6-60.1-5.8c-2.8-0.9,30.5-2.2,38.4-1.5c8.4,0.8,94.6,12.4,98.1,13.2C-272.2,512.2-282.3,512.1-287.8,511.5L-287.8,511.5z
		 M-270.3,508.1c-10.6-1.5-36-5-56.5-7.7s-38.2-5.4-39.3-5.8c-1.5-0.6,8.8-7.8,37.9-26.4c21.9-14.1,40.4-25.7,41.1-25.9
		c1-0.2,26,40.2,39.6,63.8l2.9,5.1l-3.2-0.1C-249.7,510.9-259.8,509.6-270.3,508.1L-270.3,508.1z M-242.8,505.6
		c-1.3-1.9-10.9-17.7-21.3-35l-18.9-31.4l25.3-38.3c25.1-38.1,25.3-38.3,25.3-32.9c0,3-1,25.7-2.3,50.5s-2.7,54-3.2,64.9
		s-1.2,21.1-1.6,22.8l-0.8,2.9L-242.8,505.6z M-414.5,480.3c14.4-34.4,16.5-39,17.4-38.1c1.7,1.8,19.3,48.8,18.5,49.6
		c-0.4,0.4-9.9,0.9-21,1.2l-20.3,0.4L-414.5,480.3z M-373.1,489.5c0-0.9,8.8-38.6,15.2-65.1l1.9-8l16.4,5.3
		c9,2.9,23.7,7.6,32.6,10.5l16.2,5.3l-8.4,5.4c-4.6,3-23.1,14.9-41.1,26.5C-358.4,481-373.1,490.1-373.1,489.5L-373.1,489.5z
		 M-386.2,456.8c-4.9-12.6-8.4-23.3-7.8-23.8c1.9-1.7,31.9-17.1,32.4-16.6c0.6,0.6-14,61.4-15,62.5
		C-377,479.3-381.3,469.4-386.2,456.8z M-420,477.7c0-1.5,9.4-47.9,10.4-51.2c0.6-2,1.1-1.8,4.8,1.7c2.2,2.2,4.1,4.7,4.1,5.6
		c0,1.5-17.6,43.4-18.8,44.7C-419.8,478.8-420,478.5-420,477.7L-420,477.7z M-288.7,427.3c-10-23.7-20.9-51.1-20.4-51.6
		c1-1,66.9-11.7,67.7-11c0.5,0.5-40.7,63.9-44,67.4C-285.8,432.6-287.3,430.5-288.7,427.3L-288.7,427.3z M-319.6,423.3
		c-13.9-4.6-27.3-8.9-29.8-9.6s-4.5-1.7-4.5-2.2c0-1.2,38.4-36.6,39-36c0.2,0.2,5.4,12.6,11.5,27.5s11.3,27.5,11.6,28
		C-290.7,432.6-294.7,431.5-319.6,423.3L-319.6,423.3z M-402.2,422.5l-4.4-4.4l8.2-12.2c6.4-9.6,11.9-15.6,25.3-28.1
		c18.3-17,20-18.3,39.6-29.1l12.8-7.1l6.4,2.1c3.5,1.1,6.7,2.7,7,3.5s-1.9,6.2-4.8,12.1c-4.7,9.3-6.8,11.9-16.6,20.9
		c-6.2,5.6-15.6,14.4-21,19.4c-8.4,8-12.2,10.4-27.9,18.3c-10,5-18.6,9.1-19.2,9.1S-399.8,425-402.2,422.5L-402.2,422.5z
		 M-306.2,359.2c4.1-8.2,6.4-11.6,7.9-11.6c4,0,49.1,12.4,48.2,13.2c-0.5,0.5-13.1,2.6-28,4.7s-28.6,4.2-30.4,4.6l-3.4,0.6
		L-306.2,359.2z M-261,352.1c-14.7-4.1-26.3-7.7-25.9-8.1c1.1-0.9,40.9-9.6,43.8-9.6c1.5,0,3.1,3.4,6.2,12.7
		c2.3,6.9,3.9,12.6,3.4,12.5C-233.9,359.5-246.3,356.1-261,352.1L-261,352.1z M-308.2,340.1c-2.7-1.2-2.1-1.5,6-2.7
		c16.3-2.6,32.5-4.5,33.1-4c0.5,0.5-32.8,8.3-34.9,8.1C-304.7,341.5-306.6,340.8-308.2,340.1L-308.2,340.1z"/>
	<path id="path1011_1_" inkscape:connector-curvature="0" class="st9" d="M-280.3,511.5c1.2-0.3,3.1-0.3,4.2,0
		c1.2,0.3,0.2,0.5-2.1,0.5S-281.4,511.8-280.3,511.5L-280.3,511.5z M-349.1,505.6c-30.1-2.9-56.3-5.4-58.3-5.6s4-0.8,13.2-1.3
		c14-0.8,20.1-0.5,36.1,1.6c37.1,4.8,74.5,10.5,69.1,10.5C-292,510.8-319,508.5-349.1,505.6z M-307.9,502.7
		c-31.9-4.4-58.3-8.4-58.6-8.7c-0.3-0.3,17.5-12.3,39.7-26.5l40.3-25.9l2.3,3.8c1.3,2.1,10.7,17.7,20.9,34.8
		c15.7,26.2,18.2,30.9,16,30.8C-248.7,510.9-276,507.2-307.9,502.7L-307.9,502.7z M-242.6,505.6c-1.2-1.8-10.7-17.5-21.2-34.9
		l-19.1-31.7l24.9-37.4c13.7-20.6,25.1-36.9,25.3-36.3c0.5,1.5-6.7,142.4-7.3,143C-240.3,508.6-241.5,507.3-242.6,505.6z
		 M-418.9,492.4c0-2,20.8-51,21.5-50.4c1.1,1.1,19.4,49.1,18.9,49.6C-379.5,492.6-418.8,493.4-418.9,492.4L-418.9,492.4z
		 M-372.7,487.5c0.4-1.2,4.2-17.4,8.6-35.9s8.2-33.9,8.5-34.2c0.7-0.7,63.1,19.4,63.1,20.3c0,0.6-77.4,50.8-79.6,51.6
		C-372.9,489.6-373.1,488.8-372.7,487.5L-372.7,487.5z M-385.5,457.9c-4.4-11.4-8.3-21.6-8.7-22.7c-0.6-1.5,2.8-3.8,15.8-10.5
		c9.1-4.7,16.7-8.4,16.8-8.3c0.5,0.5-14.3,60.4-15.1,61.3C-377.1,478.2-381.1,469.3-385.5,457.9z M-419.4,475
		c0.3-1.7,2.5-12.5,4.8-24c2.3-11.6,4.5-22.3,4.9-23.9l0.7-2.9l4.1,4c2.3,2.2,4.1,4.7,4.1,5.5c0,1.5-15.9,38.8-18,42.4
		C-419.8,477.6-419.9,477.5-419.4,475z M-297.8,404.5c-6.4-15.6-11.5-28.6-11.3-28.8c0.7-0.7,66.1-11.4,67.2-11.1
		c0.6,0.2-9.2,15.6-21.6,34.3l-22.6,33.9L-297.8,404.5z M-324.1,421.8c-16.4-5.4-29.8-10.1-29.8-10.5s8.7-8.7,19.4-18.4l19.4-17.7
		l11.2,27.3c6.2,15,11.2,27.7,11.2,28.3C-292.6,432.1-291.3,432.5-324.1,421.8L-324.1,421.8z M-401.8,423c-2.1-2.2-3.8-4.4-3.8-4.9
		s3.7-6.4,8.2-13.2c6.7-10,11.5-15.3,25.4-27.9c18.1-16.5,20.7-18.4,39.7-28.9l11.9-6.6l6.4,2.5c3.5,1.4,6.6,2.7,6.8,2.9
		c0.2,0.2-2.3,5.7-5.6,12.2c-4.8,9.5-7.4,13.1-13,18c-3.9,3.4-13,11.8-20.3,18.7c-12.1,11.4-14.8,13.3-30,21.1
		c-9.2,4.7-17.9,8.9-19.3,9.3C-397.2,426.7-399,425.9-401.8,423L-401.8,423z M-310.6,369.2c0-2.3,10.2-21.6,11.4-21.7
		c2-0.1,49.8,12.6,49.4,13c-0.2,0.2-12.5,2.3-27.3,4.5s-28.3,4.3-30.2,4.7C-309.1,370.1-310.6,369.8-310.6,369.2z M-260.5,352.1
		c-14.4-4-25.8-7.6-25.3-8.1c1.2-1.1,43.5-10.2,44-9.5c1.2,1.5,9,25.2,8.3,25C-233.9,359.4-246.1,356.1-260.5,352.1z M-305.2,340.6
		c-1.3-0.3-2.8-0.9-3.3-1.4c-0.8-0.7,6.1-1.8,35.8-5.6c2-0.3,0.4,0.4-3.6,1.4C-291,338.8-302.9,341.1-305.2,340.6z"/>
	<path id="path1013_1_" inkscape:connector-curvature="0" class="st10" d="M-279.7,511.5c0.8-0.3,2.2-0.3,3,0s0.2,0.6-1.5,0.6
		C-279.8,512.1-280.5,511.8-279.7,511.5L-279.7,511.5z M-352.1,505.2l-58.9-5.5l17.4-0.9c16.9-0.8,18.8-0.7,63.7,5.6
		c25.5,3.6,44.1,6.4,41.5,6.4S-319.7,508.3-352.1,505.2L-352.1,505.2z M-306.4,502.8c-31.7-4.4-58.4-8.3-59.3-8.6
		c-1.5-0.5,76.5-51.6,78.8-51.6c0.9,0,41.3,66.3,41.3,67.8C-245.7,511.3-239.8,512-306.4,502.8L-306.4,502.8z M-260.7,475.6
		c-11.1-18.3-20.4-34.2-20.7-35.4c-0.4-1.4,7.9-15,23.8-39c13.4-20.3,24.5-36.6,24.7-36.4c0.5,0.5-6.7,143-7.2,143.6
		C-240.4,508.6-249.7,493.9-260.7,475.6L-260.7,475.6z M-418.8,492.3c0-1.4,20.9-50.8,21.3-50.4c0.2,0.2,4.7,11.4,9.9,24.9l9.5,24.5
		l-9.8,0.8C-401.5,493.1-418.8,493.2-418.8,492.3L-418.8,492.3z M-372.9,488.1c0.4-0.9,4.3-17.1,8.7-35.9
		c4.4-18.8,8.3-34.5,8.5-34.7c0.6-0.6,63,19.5,63,20.3c0,0.6-77.4,50.7-79.7,51.6C-373,489.6-373.2,489-372.9,488.1L-372.9,488.1z
		 M-385.8,456.8c-4.6-11.9-8.5-22.1-8.7-22.5c-0.2-0.5,7.3-4.8,16.5-9.6c9.3-4.8,16.6-8.1,16.3-7.2c-0.3,0.9-3.6,14.6-7.4,30.4
		c-3.8,15.9-7.2,29.2-7.6,29.7C-377.1,478.2-381.2,468.8-385.8,456.8L-385.8,456.8z M-418.8,474.2c0-0.7,2.2-11.9,4.8-25.1
		c2.6-13.1,4.8-24.2,4.8-24.5s1.9,1.2,4.2,3.5c2.3,2.2,4.2,4.7,4.2,5.5c0,1.3-16.6,40.2-17.6,41.3
		C-418.6,475.2-418.8,474.9-418.8,474.2z M-297.7,404.4c-6.4-15.6-11.5-28.5-11.4-28.7c0.6-0.5,67.4-11.4,67.7-11
		c0.2,0.2-9.8,15.6-22.2,34.2l-22.6,33.8L-297.7,404.4z M-323.5,421.7c-16.7-5.4-30.2-10.2-30.1-10.6c0.4-1.2,37.2-34.6,38.1-34.6
		s23.3,54.1,22.7,54.6C-293,431.3-306.8,427.1-323.5,421.7z M-401.4,423.1c-2.3-2-4.2-4.2-4.2-4.8c0-0.6,3.8-6.7,8.3-13.4
		c6.6-9.7,11.9-15.5,25.5-27.9c18.3-16.7,20.3-18.2,39.1-28.6l12.2-6.8l6.4,2.4c3.5,1.3,6.6,2.6,6.8,2.8c0.2,0.2-2.2,5.5-5.4,11.8
		c-5.6,11.1-6.3,11.9-26.6,30.5c-21.5,19.7-24.8,21.9-45.6,31.8l-12.4,5.8L-401.4,423.1z M-310.6,369.7c0-1.4,11-22.1,11.7-22.1
		c0.5,0,12,2.9,25.5,6.4c19.3,5,23.9,6.6,21,7.2c-2,0.4-15,2.4-28.9,4.4s-26.2,3.9-27.4,4.1C-309.7,370-310.6,370-310.6,369.7
		L-310.6,369.7z M-260.4,352c-14.3-4-25.4-7.7-24.6-8.1c3.4-1.8,42.1-9.6,43-8.7c1.3,1.3,9.4,24.5,8.5,24.3
		C-233.9,359.4-246,356-260.4,352z M-308.7,339.4c-0.5-0.8,9.7-2.4,28.7-4.5c2.6-0.3-0.3,0.8-6.6,2.4
		C-298.1,340.3-307.6,341.2-308.7,339.4z M-272.4,333.5c0.9-0.3,1.9-0.3,2.3,0.1s-0.3,0.7-1.6,0.6
		C-273,334.2-273.3,333.9-272.4,333.5L-272.4,333.5z"/>
	<path id="path1015_1_" inkscape:connector-curvature="0" class="st11" d="M-279.7,511.5c0.8-0.3,2.2-0.3,3,0s0.2,0.6-1.5,0.6
		C-279.8,512.1-280.5,511.8-279.7,511.5L-279.7,511.5z M-291.1,510.3c1.2-0.3,3.1-0.3,4.2,0c1.2,0.3,0.2,0.5-2.1,0.5
		C-291.3,510.8-292.2,510.6-291.1,510.3L-291.1,510.3z M-305.9,502.7c-32.1-4.5-59-8.3-59.8-8.6c-1.3-0.4,75.5-50.6,78.4-51.3
		c0.8-0.2,10.3,14.7,21.2,32.9c21.4,35.8,21.1,35.4,19.6,35.1C-247,510.9-273.8,507.2-305.9,502.7L-305.9,502.7z M-308.8,509.1
		c-2-0.3-25.8-2.6-52.9-5.1c-45.8-4.3-48.4-4.7-36.1-5.1c20.9-0.7,25.9-0.3,55.3,3.8c15.2,2.1,32.5,4.6,38.5,5.4
		c8.1,1.1,9.3,1.5,4.8,1.5C-302.5,509.5-306.8,509.3-308.8,509.1L-308.8,509.1z M-261.1,474.8c-11.4-18.9-20.7-35-20.7-35.7
		s11.1-18,24.7-38.3l24.7-37l-0.7,9.6c-0.4,5.3-2.1,37.5-3.7,71.5c-1.7,34.1-3.2,62.4-3.4,63.1
		C-240.3,508.7-249.7,493.7-261.1,474.8L-261.1,474.8z M-418.8,492.4c0-0.5,7.6-18.9,19.6-47.2l1.7-4l9.7,25l9.7,25l-11,0.8
		C-403.5,493-418.8,493.2-418.8,492.4L-418.8,492.4z M-372.6,488c0.3-0.9,4.1-17,8.5-35.8s8.2-34.4,8.4-34.7
		c0.5-0.5,61.1,19,62.1,20c0.4,0.4-15.2,11.1-34.8,23.6C-371.8,489.1-373.3,490-372.6,488L-372.6,488z M-385.8,456.7
		c-4.6-12-8.5-22.1-8.7-22.5s7.2-4.6,16.4-9.4l16.6-8.7l-2.8,11.7c-1.6,6.4-4.8,20.1-7.3,30.3c-2.4,10.3-4.7,19-5.1,19.4
		C-377,478.1-381.1,468.7-385.8,456.7L-385.8,456.7z M-418.8,474.3c0-0.6,2.2-11.6,4.8-24.4c2.6-12.8,4.8-23.9,4.8-24.6
		s1.9,0.6,4.2,2.8c2.3,2.2,4.2,4.5,4.2,5.1c0,1.1-16.7,40.8-17.6,41.7C-418.6,475.2-418.8,474.9-418.8,474.3L-418.8,474.3z
		 M-297.4,405c-6.3-15.2-11.6-28.1-11.7-28.5c-0.3-0.7,67.2-12.4,67.8-11.7c0.1,0.1-9.9,15.5-22.2,34.1l-22.4,33.8L-297.4,405z
		 M-323,421.6c-16.4-5.4-29.8-10.2-29.8-10.7c0.1-1.1,36.3-34.5,37.4-34.5c0.8,0,23.2,54.2,22.7,54.6
		C-293,431.2-306.6,427-323,421.6L-323,421.6z M-400.1,424.4c-6.5-5.1-6.4-6,2.9-19.4c12.1-17.5,38.8-41.8,57.2-52.2
		c19.7-11.1,18.8-10.8,26.4-8.2c3.6,1.2,6.5,2.5,6.5,2.9s-2.6,5.6-5.7,11.6c-5.4,10.4-6.6,11.8-26.5,30.1
		c-20.7,19-21,19.2-39.3,28.4l-18.4,9.3L-400.1,424.4z M-310.6,369.6c0-1.2,11-22,11.6-22c2.5,0,48.4,12.7,47.3,13
		C-254.1,361.4-310.6,370-310.6,369.6z M-262.5,351.2c-18.1-5.1-23.9-7.1-21.6-7.7c17.2-4.3,41.4-9,42.2-8.3
		c0.8,0.8,8.3,21.4,8.3,22.7C-233.7,359-239,357.8-262.5,351.2z M-308.7,339.4c-0.6-1,31.7-5.5,32.7-4.5c0.3,0.3-0.4,0.6-1.7,0.6
		c-1.3,0-6.6,1.1-11.9,2.4C-299.6,340.4-307.7,341-308.7,339.4L-308.7,339.4z M-272.4,333.5c0.9-0.3,1.9-0.3,2.3,0.1
		s-0.3,0.7-1.6,0.6C-273,334.2-273.3,333.9-272.4,333.5L-272.4,333.5z"/>
	<path id="path1017_1_" inkscape:connector-curvature="0" class="st12" d="M-289.2,510.3c0.9-0.3,1.9-0.3,2.3,0.1s-0.3,0.7-1.6,0.6
		C-289.9,511-290.2,510.7-289.2,510.3L-289.2,510.3z M-269.7,507.5c-12.9-1.9-35.9-5.1-51.1-7.1c-41.3-5.6-46.4-6.4-46-6.7
		c0.2-0.2,18.2-11.8,39.9-25.8c32-20.6,39.9-25.2,41-23.9c2.3,2.4,41,67.3,40,67C-246.1,510.9-256.8,509.4-269.7,507.5L-269.7,507.5
		z M-301.9,509.1c1.2-0.3,3.1-0.3,4.2,0c1.2,0.3,0.2,0.5-2.1,0.5S-303.1,509.4-301.9,509.1L-301.9,509.1z M-344.3,505.6
		c-15.5-1.5-36.1-3.5-45.7-4.4l-17.4-1.6l18.4-0.3c15.6-0.3,23.2,0.3,49.9,3.9c17.3,2.3,32.3,4.5,33.3,4.7
		C-300.7,509.2-319.2,508.1-344.3,505.6L-344.3,505.6z M-261,474.5c-11.4-19-20.7-35-20.7-35.7s11.1-17.8,24.6-38.1l24.6-36.9
		l-0.6,7.8c-0.3,4.3-2,35.9-3.6,70.3c-1.7,34.4-3.1,63.5-3.3,64.8C-240.2,508.1-249,494.6-261,474.5L-261,474.5z M-418.8,492.7
		c0-0.2,4.8-11.9,10.6-25.9l10.6-25.5l9.6,24.9c5.3,13.7,9.6,25,9.5,25.1C-378.7,491.8-418.8,493.1-418.8,492.7L-418.8,492.7z
		 M-364.3,453.7c4.6-19.7,8.5-35.9,8.7-36.1c0.5-0.7,61.9,19.5,61.9,20.4c0,0.4-16.6,11.5-37,24.6c-20.3,13.1-38.1,24.5-39.5,25.4
		C-372.5,489.3-372,486.2-364.3,453.7L-364.3,453.7z M-386,455.5l-8.4-22l15.6-8.1c8.6-4.5,15.9-7.9,16.1-7.6c0.3,0.3-2,11-5.2,23.8
		c-3.1,12.8-6.2,25.7-6.8,28.7c-0.6,3-1.5,5.8-2,6.3C-377.2,477.1-381.3,467.6-386,455.5L-386,455.5z M-418.4,472.6
		c0.3-1.7,2.6-13.2,5.1-25.6l4.5-22.6l4.2,4.2l4.2,4.2l-9.3,21.4C-414.8,466-418.7,474.3-418.4,472.6z M-321.4,422
		c-15.5-5.1-29.3-9.6-30.5-9.9c-1.8-0.5,1.8-4.3,16.6-17.8c10.4-9.5,19.2-17.3,19.7-17.5c0.8-0.3,23.5,53.9,22.8,54.4
		C-293,431.2-305.9,427.2-321.4,422L-321.4,422z M-297.6,403.8l-11.5-28l33.8-5.7c18.6-3.1,34-5.7,34.1-5.7
		c0.4-0.1-42.9,65-44.1,66.4C-285.7,431.4-291.3,419.2-297.6,403.8L-297.6,403.8z M-401.7,421.8l-3.8-3.9l7.7-11.5
		c5.7-8.5,11.9-15.4,23.7-26.6c8.8-8.3,17.4-16.2,19.1-17.5c5-3.9,32.7-19.5,34.7-19.5c1.6,0,11.9,3.4,13.2,4.3
		c0.2,0.2-2.2,5.3-5.4,11.4c-5.6,10.6-6.8,12-27.1,30.7c-20.9,19.2-21.6,19.7-38.2,28.1c-9.3,4.7-17.6,8.5-18.5,8.5
		C-397.2,425.7-399.6,424-401.7,421.8L-401.7,421.8z M-305.1,358.3c4.9-9.7,5.8-10.9,8.1-10.2c1.4,0.4,12.5,3.3,24.5,6.4
		s21.7,5.8,21.5,6c-0.5,0.5-54.8,8.7-57.5,8.7C-310.3,369.2-309.7,367.4-305.1,358.3z M-261.1,351.4c-16.6-4.6-23.7-7.1-22.2-7.7
		c4.8-2,40.6-9.3,41.3-8.5c0.4,0.5,2.2,5.1,4,10.3c1.8,5.2,3.6,10.2,3.9,11.1C-233.1,359.1-233.9,359-261.1,351.4z M-307,339.4
		c0-0.9,20.1-3.9,24.3-3.7c0.9,0-2.5,1.1-7.4,2.4C-299.8,340.4-307,341-307,339.4z M-279.6,334.7c0.9-0.3,1.9-0.3,2.3,0.1
		s-0.3,0.7-1.6,0.6C-280.3,335.4-280.5,335.1-279.6,334.7L-279.6,334.7z"/>
	<path id="path1019_1_" inkscape:connector-curvature="0" class="st13" d="M-289.2,510.3c0.9-0.3,1.9-0.3,2.3,0.1s-0.3,0.7-1.6,0.6
		C-289.9,511-290.2,510.7-289.2,510.3L-289.2,510.3z M-255.9,509.2l-9.6-1.6l9,0.7l9,0.7l-1.8-2.9c-3.5-5.4-8.4-14.9-6.2-12
		c2.2,3,10.4,17.1,9.8,16.8C-246.1,510.9-250.6,510.1-255.9,509.2L-255.9,509.2z M-301.9,509.1c1.2-0.3,3.1-0.3,4.2,0
		c1.2,0.3,0.2,0.5-2.1,0.5S-303.1,509.4-301.9,509.1L-301.9,509.1z M-343.1,505.7c-14.9-1.5-24.9-2.8-22.2-2.9
		c2.6-0.1,7.8-0.4,11.4-0.7c5.6-0.5,6-0.4,2.4,0.5c-3.2,0.8-2.2,0.9,4.2,0.5c6.2-0.4,7.9-0.2,6.6,0.7c-1.4,1-0.8,1.1,2.4,0.7
		c2.3-0.4,11,0.4,19.2,1.6C-298.3,509.3-309.4,509.1-343.1,505.7L-343.1,505.7z M-247.5,497c-3.9-6.4-7.9-13.1-8.8-14.7
		c-4.4-7.8,2.7,2.5,8.5,12.3l6.2,10.5l0.7-6.9l0.7-6.9l0.2,8.7c0.1,4.8,0,8.7-0.1,8.7S-243.6,503.4-247.5,497L-247.5,497z
		 M-277.6,506.3l-4.8-0.9h4.8c2.6,0,6.4,0.4,8.4,0.9l3.6,0.9h-3.6C-271.1,507.2-274.9,506.8-277.6,506.3L-277.6,506.3z
		 M-288.7,504.3c1.2-0.3,3.1-0.3,4.2,0c1.2,0.3,0.2,0.5-2.1,0.5C-288.9,504.8-289.8,504.6-288.7,504.3L-288.7,504.3z M-297.7,503
		c1.5-0.3,3.7-0.3,4.8,0c1.1,0.3-0.1,0.5-2.7,0.5C-298.2,503.6-299.2,503.3-297.7,503L-297.7,503z M-378.2,501.8
		c1.5-0.3,3.7-0.3,4.8,0c1.1,0.3-0.1,0.5-2.7,0.5C-378.8,502.4-379.7,502.1-378.2,501.8L-378.2,501.8z M-313,501.5l-5.4-0.8h5.4
		c3,0,7,0.4,9,0.9l3.6,0.9h-3.6C-306,502.3-310,502-313,501.5L-313,501.5z M-400.8,500.3c-5.7-0.7-4.8-0.8,5.7-1
		c7.5-0.1,12.3,0.3,12.3,1C-382.8,501.6-390.2,501.6-400.8,500.3z M-363.2,500.7c1.2-0.3,3.1-0.3,4.2,0c1.2,0.3,0.2,0.5-2.1,0.5
		C-363.4,501.2-364.4,501-363.2,500.7L-363.2,500.7z M-374,499.4c1.8-0.3,4.5-0.3,6,0s0,0.5-3.3,0.5
		C-374.6,499.9-375.9,499.7-374,499.4L-374,499.4z M-323.5,499.5c1.2-0.3,2.8-0.3,3.6,0c0.8,0.3-0.1,0.6-2.1,0.6
		C-324,500-324.7,499.8-323.5,499.5L-323.5,499.5z M-332.5,498.2c1.5-0.3,3.7-0.3,4.8,0c1.1,0.3-0.1,0.5-2.7,0.5
		C-333.1,498.8-334,498.5-332.5,498.2L-332.5,498.2z M-347.9,496.7l-5.4-0.8h5.4c3,0,7,0.4,9,0.9l3.6,0.9h-3.6
		C-340.9,497.5-344.9,497.1-347.9,496.7L-347.9,496.7z M-364,494.6c-3.2-0.5-3.3-0.6-1.2-2c6-4.1,8.9-5.7,8.9-5c0,0.4-1.7,1.8-3.8,3
		l-3.8,2.3l5.3,1.2c4.1,0.9,4.4,1.2,1.7,1.1C-358.9,495.1-362.1,494.9-364,494.6L-364,494.6z M-418.8,492.2c0-0.5,0.5-1.7,1.2-2.7
		c1-1.6,1.2-1.5,1.2,0.2c0,1.6,1.4,2.1,6.9,2.5l6.9,0.4l-8.1,0.2C-415.2,493-418.8,492.7-418.8,492.2L-418.8,492.2z M-390.6,491
		c5.3-0.2,9.9-1,10.4-1.7c0.5-0.8,1.1-0.5,1.5,0.7c0.6,1.7-0.7,1.9-10.4,1.7l-11.1-0.2L-390.6,491z M-260.1,488.3
		c-0.7-1.3-1-2.4-0.7-2.4s1.2,1.1,1.9,2.4c0.7,1.3,1,2.4,0.7,2.4C-258.6,490.7-259.4,489.6-260.1,488.3z M-372.1,486.1
		c0.5-2.2,0.8-2.6,1.1-1.2c0.4,1.9,0.7,1.9,3.7,0.2c3-1.8,3.1-1.8,0.8,0.1c-1.3,1.1-3.3,2.5-4.3,3.1
		C-372.5,489.2-372.7,488.8-372.1,486.1L-372.1,486.1z M-239.3,479.8c0-5.6,0.2-7.9,0.5-5.1s0.3,7.4,0,10.2
		C-239.1,487.8-239.3,485.5-239.3,479.8z M-416.3,486.5c0-0.7,0.8-2.6,1.7-4.2c0.9-1.7,1.7-2.5,1.7-1.8s-0.8,2.6-1.7,4.2
		C-415.6,486.3-416.3,487.1-416.3,486.5z M-385,477.3c-2.1-5.4-3.6-10-3.4-10.2s2.2,4,4.3,9.3c2.1,5.4,3.6,10,3.4,10.2
		C-381,486.9-382.9,482.7-385,477.3z M-355.1,486.7c0-0.5,2.6-2.2,12.3-8.6c2-1.3,3.3-1.6,3.3-0.8c0,0.7-0.6,1.3-1.3,1.3
		c-0.7,0-3.5,1.5-6.3,3.4C-353.5,486.4-355.1,487.3-355.1,486.7L-355.1,486.7z M-269.2,472.9c-3.8-6.4-7.7-12.9-8.7-14.4
		s-1.4-2.7-1.1-2.7c0.5,0,11.8,18.3,17.3,28c0.3,0.5,0.3,0.9,0,0.9C-262,484.7-265.4,479.4-269.2,472.9L-269.2,472.9z M-363.5,483
		c0-0.3,6.9-5,15.3-10.5c18.8-12.2,21.7-13.9,20.1-12.3c-0.7,0.7-8.2,5.8-16.8,11.4C-364,484-363.5,483.7-363.5,483z M-370.6,481
		c0.1-1,0.5-3.2,1.1-4.8l1-3l0.1,3c0.1,1.7-0.4,3.8-1.1,4.8C-370.6,482.6-370.7,482.6-370.6,481L-370.6,481z M-412.4,477.4
		c1.1-3.9,4.7-12.1,5.2-11.6c0.3,0.3-0.9,3.4-2.6,7C-411.5,476.3-412.6,478.4-412.4,477.4L-412.4,477.4z M-260.2,476
		c-0.8-1.5-2.3-4-3.2-5.5c-1-1.5-1.5-2.7-1.2-2.7c1,0,7.1,9.8,6.5,10.4C-258.5,478.6-259.4,477.6-260.2,476L-260.2,476z
		 M-380.2,470.6c-1.4-3.7-2.4-7-2.1-7.2c0.2-0.2,1.4,2,2.5,5s2.6,5.1,3.2,4.8c0.6-0.4,1.1,0.1,1.1,1.1
		C-375.5,478.6-377.8,476.8-380.2,470.6L-380.2,470.6z M-338.3,475.9c0-0.5,2.6-2.2,12.3-8.6c1.8-1.2,3.3-1.8,3.3-1.4
		s-2.8,2.5-6.3,4.7C-337.7,476.1-338.3,476.4-338.3,475.9z M-418.7,474.4c0-0.7,1.1-5.8,2.3-11.4c1.4-6.1,2.1-8,1.8-4.8l-0.5,5.4
		l4.1-8.4c6-12.4,5.1-9-1.7,6.7C-416.1,469.4-418.8,475.1-418.7,474.4z M-368,469.9c0.3-1.5,1.3-5.8,2.1-9.6c0.8-3.8,1.7-6.7,2-6.4
		c0.7,0.7-3.3,18.7-4.2,18.7C-368.3,472.6-368.3,471.4-368,469.9L-368,469.9z M-375.4,469c0-1.7,0.3-2.3,0.6-1.5
		c0.3,0.8,0.3,2.2,0,3C-375.1,471.4-375.4,470.7-375.4,469L-375.4,469z M-267.5,463.9c-0.8-1.5-2.2-4.1-3.2-5.7
		c-1.7-2.9-1.7-2.9,0.3-0.6c2.4,2.9,5.8,9,4.9,9C-265.8,466.6-266.7,465.4-267.5,463.9L-267.5,463.9z M-238,455.2
		c0-6.6,0.2-9.2,0.4-5.7s0.2,8.9,0,12C-237.8,464.7-238,461.8-238,455.2L-238,455.2z M-391.2,461.8c-0.8-2-1.2-4-0.9-4.3
		c0.3-0.3,1.2,1.1,2,3.2C-388.4,465.8-389.2,466.6-391.2,461.8L-391.2,461.8z M-374.1,464.2c0-1,0.5-3.2,1-4.8c0.8-2.4,1-2.5,1-0.6
		c0,1.3-0.4,3.5-1,4.8C-373.8,465.1-374.2,465.3-374.1,464.2z M-320.8,464.5c0.7-0.7,8.4-5.9,17.3-11.7
		c17.7-11.5,16.6-11.3,21.8-2.4c3.3,5.7,1.6,4.3-2.7-2.1l-3-4.6l-8.1,5.5c-4.5,3-8.4,5.5-8.6,5.5c-0.3,0-3.6,2.1-7.4,4.6
		C-319.8,464.7-322.5,466.3-320.8,464.5L-320.8,464.5z M-406.8,463.4c0-0.5,0.5-1.8,1.2-2.8c1-1.6,1.2-1.5,1.2,0.2
		c0,1.1-0.5,2.4-1.2,2.8S-406.8,463.9-406.8,463.4z M-385.6,456.8c-2.6-6.5-1.8-7.3,1-1c1.2,2.7,1.9,5.1,1.6,5.4
		C-383.3,461.6-384.5,459.6-385.6,456.8z M-325.6,458.5c0.7-0.7,7.9-5.6,16.1-10.9l14.9-9.6l-5.3-1.5c-2.9-0.8-5.8-2-6.5-2.7
		c-0.8-0.8-0.5-0.9,0.8-0.5c1.1,0.4,4.2,1.4,6.9,2.2c2.7,0.8,4.9,1.9,4.9,2.4s-5.8,4.6-12.9,9.2C-324.9,458.7-327,460-325.6,458.5z
		 M-404.3,457.6c0-0.7,0.8-2.6,1.7-4.2c0.9-1.7,1.7-2.5,1.7-1.8s-0.8,2.6-1.7,4.2S-404.3,458.3-404.3,457.6z M-395.4,450.2
		c-2.1-5.6-2.2-5.6-3.7-2.7c-2.1,3.7-2.1,2.4-0.1-2.5l1.6-3.8l2.6,6.9c1.4,3.8,2.4,7.1,2.2,7.3C-393,455.6-394.2,453.3-395.4,450.2
		L-395.4,450.2z M-371.8,453.9c0.1-1.4,0.3-1.7,0.7-0.7c0.3,0.9,0.3,1.9-0.1,2.3C-371.6,455.9-371.9,455.2-371.8,453.9L-371.8,453.9
		z M-274.5,452.2c-0.7-1.3-1-2.4-0.7-2.4s1.2,1.1,1.9,2.4c0.7,1.3,1,2.4,0.7,2.4C-273,454.6-273.8,453.5-274.5,452.2z M-413.8,450.4
		c0-1.3,0.4-4,0.9-6c0.8-3.2,0.9-3.3,0.9-0.6c0,1.7-0.4,4.4-0.9,6C-413.6,452.1-413.8,452.3-413.8,450.4z M-363.5,450.9
		c0-2.4,4.5-18.9,4.7-17.1c0.1,1.8-3.5,17.6-4.2,18.3C-363.3,452.4-363.5,451.8-363.5,450.9z M-370.5,449.2c0-1.3,0.4-3.5,1-4.8
		c1.3-3.1,1.3,0.1,0,4.2C-370.3,451-370.5,451.1-370.5,449.2z M-278.2,446.2c-0.7-1.3-1-2.4-0.7-2.4s1.2,1.1,1.9,2.4s1,2.4,0.7,2.4
		S-277.4,447.5-278.2,446.2z M-390.4,444.3c-1.2-3-0.8-3.8,0.6-1.4c0.7,1.2,1,2.4,0.7,2.8C-389.4,446-390,445.4-390.4,444.3
		L-390.4,444.3z M-405.5,443.5c0-0.5,0.8-3.1,1.9-5.8c1.9-4.7,1.9-5-0.5-7.4c-3.3-3.3-4.7-2.1-5.7,4.5c-0.5,3-1.1,5.3-1.4,4.9
		c-0.3-0.3,0.1-3.9,0.9-8l1.5-7.4l4,3.9c2.2,2.2,4,4.5,3.9,5.2C-401,435.1-405.4,444.6-405.5,443.5L-405.5,443.5z M-281,441.8
		c-0.4-0.4-0.8-1.5-0.8-2.4s11.1-18.2,24.6-38.6c15.4-23.1,24.6-35.9,24.6-34.3c0,1.5-0.5,2.7-1.2,2.7c-2.1,0-47.1,68.9-46.5,71.2
		C-279.5,442.7-279.7,443-281,441.8L-281,441.8z M-368.2,439c-0.1-1.7,0.4-3.8,1.1-4.8c1-1.6,1.2-1.6,1.1,0c-0.1,1-0.5,3.2-1.1,4.8
		l-1,3L-368.2,439z M-236.9,431.7c0-5.6,0.2-7.9,0.5-5.1s0.3,7.4,0,10.2S-236.9,437.4-236.9,431.7z M-393.3,436.8
		c-1.2-3.4-1.1-3.5,9-8.5c5.6-2.8,9.9-4.6,9.6-4.1s-4.5,2.8-9.2,5.1c-8.1,3.9-8.6,4.4-7.9,7.5C-391,441.1-391.8,441.1-393.3,436.8
		L-393.3,436.8z M-310.8,432.1c0.9-0.3,1.9-0.3,2.3,0.1s-0.3,0.7-1.6,0.6C-311.5,432.8-311.8,432.5-310.8,432.1L-310.8,432.1z
		 M-365.7,429.3c0-1.7,0.4-4.1,1-5.4l1-2.4v2.4c0,1.3-0.5,3.8-1,5.4l-1,3V429.3L-365.7,429.3z M-358.3,429c0.4-1.5,1-4.7,1.5-7.2
		c0.4-2.5,1.2-4.5,1.6-4.5c1.5,0,32,10.6,30.7,10.7c-0.7,0.1-7.7-2.1-15.6-4.7s-14.4-4.8-14.6-4.8c-0.1,0-0.9,3-1.6,6.6
		c-0.8,3.6-1.7,6.6-2,6.6C-358.7,431.7-358.7,430.5-358.3,429L-358.3,429z M-318.9,430.4c-2.2-0.6-3.8-1.4-3.5-1.7
		c0.6-0.6,9.4,1.7,9.4,2.5C-313,431.9-314,431.8-318.9,430.4L-318.9,430.4z M-311.8,425.1c-10.3-3.5-18.1-6.4-17.4-6.4
		c0.7-0.1,8.5,2.3,17.4,5.3c8.9,2.9,16.3,5.2,16.6,4.9c0.2-0.2-1.5-5.2-3.9-11c-2.3-5.8-4.1-10.8-3.8-11c0.2-0.2,2.7,5.1,5.4,11.8
		c2.7,6.8,4.8,12.4,4.7,12.5C-293.1,431.3-301.6,428.6-311.8,425.1L-311.8,425.1z M-287.1,429.8c-0.4-1.1-0.5-2.3-0.1-2.6
		c0.3-0.3,0.6,0.1,0.7,1.1c0,0.9,1.7-0.2,3.7-2.5l3.7-4.2l-3.2,5.1c-1.8,2.8-3.4,5.1-3.6,5.1C-286.2,431.7-286.7,430.9-287.1,429.8z
		 M-401.7,421.8l-3.8-3.9l6.7-10.2c3.7-5.6,8.2-11.7,9.9-13.6c6.3-6.9,35-33.1,37.7-34.4c1.8-0.9,1.5-0.4-0.9,1.4
		c-2,1.5-11,9.7-20.1,18.2c-12.4,11.6-18.4,18.3-24.3,27l-7.9,11.6l3.8,4c2.1,2.2,3.6,4,3.2,4C-397.7,425.7-399.6,424-401.7,421.8
		L-401.7,421.8z M-378.4,416.4c18.9-9.7,22.8-12.7,54.3-42.8c3.5-3.3,6.3-5.7,6.3-5.2c0,0.4-9.7,9.7-21.6,20.6
		c-21.2,19.5-21.8,20-38.5,28.3c-9.3,4.7-17.3,8.4-17.8,8.4C-396.2,425.7-388.4,421.5-378.4,416.4L-378.4,416.4z M-291.2,419.6
		c-1.4-3.4-2.4-6.4-2.1-6.7c0.2-0.2,1.6,2.4,3,5.8s2.4,6.4,2.1,6.7C-288.4,425.6-289.8,423-291.2,419.6z M-368.9,420.3
		c5.7-3.5,6.6-3.6,6.6-0.9c0,1.5-0.3,1.7-0.9,0.6c-0.7-1.1-1.9-0.9-4.8,0.9c-2.1,1.3-4.3,2.3-4.8,2.3
		C-373.4,423.3-371.6,421.9-368.9,420.3L-368.9,420.3z M-278.7,419.7c3.2-5.7,30.9-46.9,32-47.6c1.3-0.8-29.6,46.1-31.7,48.2
		C-279.3,421.1-279.4,420.9-278.7,419.7z M-344.3,414.8c-3.6-1.3-7.3-2.6-8.2-2.9c-0.9-0.3,6.1-7.5,17.2-17.7
		c19.1-17.4,21-19,21-16.6c0,0.7-0.5,1.2-1,1c-0.9-0.3-36.2,31.1-36.2,32.2c0,0.2,3.8,1.6,8.4,3.1s8.4,2.9,8.4,3.1
		C-334.7,417.8-337.8,417.1-344.3,414.8z M-235.7,407.7c0-5.6,0.3-16.2,0.8-23.4c0.8-13.2,0.8-13.2,0.9-3c0,5.6-0.3,16.2-0.8,23.4
		C-235.7,417.9-235.7,417.9-235.7,407.7L-235.7,407.7z M-295.4,409.5c-1.2-3-0.8-3.8,0.6-1.4c0.7,1.2,1,2.4,0.7,2.8
		C-294.4,411.2-295,410.5-295.4,409.5L-295.4,409.5z M-309.3,393.1c-2.8-6.7-4.8-12.4-4.6-12.6c0.2-0.2,2.7,5.1,5.5,11.8
		c2.8,6.7,4.8,12.4,4.6,12.6C-304.1,405.2-306.5,399.9-309.3,393.1z M-299.6,399.1c-1.4-3.4-2.4-6.4-2.1-6.7c0.2-0.2,1.6,2.4,3,5.8
		s2.4,6.4,2.1,6.7S-298.2,402.5-299.6,399.1z M-303.9,389c-1.2-3-0.8-3.8,0.6-1.4c0.7,1.2,1,2.4,0.7,2.8
		C-302.9,390.7-303.4,390.1-303.9,389z M-307.3,380.4l-1.8-4.6l11.6-2c6.4-1.1,12.9-2,14.6-2s-2.9,1.1-10.2,2.4s-13.4,2.6-13.7,2.9
		c-0.3,0.3,0.1,2,0.9,3.7s1.2,3.4,0.9,3.7C-305.3,384.7-306.3,382.9-307.3,380.4z M-278.5,370.8c0.8-0.3,2.2-0.3,3,0
		s0.2,0.6-1.5,0.6C-278.6,371.4-279.3,371.2-278.5,370.8L-278.5,370.8z M-265.5,368.6c4.6-0.9,9.8-1.6,11.4-1.6
		c1.7,0-0.5,0.7-4.8,1.6s-9.4,1.6-11.4,1.6S-270.2,369.5-265.5,368.6z M-244.6,368.2c0.7-1.2,0.9-2.6,0.4-3
		c-0.4-0.4,0.2-0.8,1.3-0.8c1.9,0,1.9,0.2,0.1,3C-245.1,370.9-246.3,371.5-244.6,368.2L-244.6,368.2z M-305.2,358.4
		c5.4-10.8,6.3-11.6,10.8-9.5c1.9,0.9,1.6,1-1.2,0.5c-3.5-0.6-3.8-0.3-8.1,8.4c-2.5,5-4.5,9.3-4.5,9.6c0,0.3,1.2,0.7,2.7,1
		c1.9,0.4,1.6,0.6-1.2,0.7l-3.9,0.2L-305.2,358.4z M-298,366.8c2.6-0.5,6.4-1,8.4-0.9c2.7,0.1,2.3,0.3-1.8,1
		C-298.6,368.2-304.3,368.1-298,366.8z M-249.9,366.8c-0.4-0.6,0.4-1.1,1.8-1.1c2.9,0,3.2,0.7,0.7,1.6
		C-248.4,367.6-249.5,367.4-249.9,366.8z M-283.8,364.8c1.2-0.3,2.8-0.3,3.6,0c0.8,0.3-0.1,0.6-2.1,0.6S-285,365.1-283.8,364.8
		L-283.8,364.8z M-315.7,362.3c0.5-1.2,2.2-4.7,3.9-7.9c2.9-5.8,2.9-5.8,0.6-7.6c-2.3-1.8-2.3-1.8,0.6-0.9c1.7,0.5,3.2,1,3.4,1.2
		c0.5,0.4-8.1,17.4-8.8,17.4C-316.3,364.4-316.1,363.5-315.7,362.3L-315.7,362.3z M-276.7,363.6c1.2-0.3,3.1-0.3,4.2,0
		c1.2,0.3,0.2,0.5-2.1,0.5C-276.9,364.1-277.8,363.9-276.7,363.6L-276.7,363.6z M-262.5,361.4c4.3-0.8,6.8-1.6,5.5-1.7
		c-1.3-0.1-2-0.4-1.6-0.8s2.5-0.2,4.7,0.4c3.9,1,3.8,1.1-3.9,2.5c-4.4,0.8-9,1.3-10.2,1.3C-269.3,363-266.8,362.2-262.5,361.4
		L-262.5,361.4z M-347.9,358c0-1.3,25.9-15.2,28.3-15.2c1.3,0,3.2,0.6,4.2,1.2c1.3,0.8,0.7,1-2.1,0.4c-3.8-0.7-8,1.1-25.3,11.2
		C-345.6,357.3-347.9,358.3-347.9,358L-347.9,358z M-262.7,357.6c0.9-0.3,1.9-0.3,2.3,0.1s-0.3,0.7-1.6,0.6
		C-263.4,358.3-263.7,358-262.7,357.6L-262.7,357.6z M-236.8,354.1c-0.1-4.2,0.8-3.6,2.4,1.6c0.6,1.9,0.3,2.7-0.8,2.7
		C-236.1,358.4-236.7,356.8-236.8,354.1z M-272.7,355.4c-4.7-1.6-4.8-1.7-0.6-1c4.9,0.8,9.9,2.7,7.2,2.6
		C-267.1,357-270.1,356.3-272.7,355.4L-272.7,355.4z M-241.1,356.4c0.9-0.3,1.9-0.3,2.3,0.1s-0.3,0.7-1.6,0.6
		C-241.8,357.1-242.1,356.8-241.1,356.4L-241.1,356.4z M-248.1,354.8c-2.5-0.8-2.6-1-0.6-1.1c1.3-0.1,3.2,0.4,4.2,1.1
		C-242.4,356.2-243.8,356.2-248.1,354.8z M-284.8,352.4c-3.1-1.3,0.1-1.3,4.2,0c2.4,0.8,2.5,1,0.6,1
		C-281.3,353.4-283.4,353-284.8,352.4z M-257.1,352.4l-2.4-1l2.4-0.1c1.3,0,3.2,0.5,4.2,1.1c1.6,1,1.6,1.2,0,1.1
		C-253.9,353.5-255.8,353-257.1,352.4L-257.1,352.4z M-290.4,350.4c0.9-0.3,1.9-0.3,2.3,0.1s-0.3,0.7-1.6,0.6
		C-291.1,351-291.4,350.8-290.4,350.4L-290.4,350.4z M-267.9,349.3c-4.7-1.6-4.8-1.7-0.6-1c4.9,0.8,9.9,2.7,7.2,2.6
		C-262.3,351-265.3,350.3-267.9,349.3z M-278.8,346.4c-1.5-0.7-1.7-1-0.6-1c1,0,2.9,0.5,4.2,1c1.5,0.7,1.7,1,0.6,1
		C-275.5,347.4-277.4,346.9-278.8,346.4L-278.8,346.4z M-284.2,344c1-0.6,4-1.4,6.6-1.8l4.8-0.7l-5.4,1.8
		C-284.2,345.3-286.9,345.7-284.2,344L-284.2,344z M-263.7,339.1c11.8-2.9,15.1-2.8,4.2,0.2c-4.6,1.2-9.5,2.2-10.8,2.2
		C-271.7,341.4-268.7,340.3-263.7,339.1z M-240.9,340.6c0-0.8-1.1-2.5-2.4-3.8c-1.9-1.9-2-2.4-0.6-2.4c1.8,0,4.8,5.8,3.6,7
		C-240.6,341.7-240.9,341.3-240.9,340.6z M-307,339.4c0-0.9,20.1-3.9,24.3-3.7c0.9,0-2.5,1.1-7.4,2.4
		C-299.8,340.4-307,341-307,339.4z M-249.5,335.9c0.9-0.3,1.9-0.3,2.3,0.1s-0.3,0.7-1.6,0.6C-250.2,336.6-250.5,336.3-249.5,335.9
		L-249.5,335.9z M-279.6,334.7c0.9-0.3,1.9-0.3,2.3,0.1s-0.3,0.7-1.6,0.6C-280.3,335.4-280.5,335.1-279.6,334.7L-279.6,334.7z"/>
</g>
<g class="st0">
	<path class="st5" d="M375.1,385.8c0,1.4-0.3,2.7-0.9,3.8c-0.6,1.2-1.4,2.1-2.5,2.9l-1.9,2.6h5.3v12.2h-0.6l-3.8,5.4h-24.9v-17
		c0-1.7,0.5-3.2,1.4-4.4l2.6-3.9c0.6-1.5,1.5-2.7,2.7-3.6h-6.7v-7.9c0-0.8,0.1-1.7,0.4-2.4c0.3-0.8,0.6-1.5,1.1-2.2l2.5-3.6
		c0.6-1.8,1.6-3.2,3.1-4.3s3.2-1.7,5.1-1.7h8.8c2.4,0,4.4,0.8,5.9,2.5c1.5,1.7,2.3,3.7,2.3,6.1V385.8z M366.9,392.3
		c0.9,0,1.8-0.2,2.6-0.5c0.8-0.3,1.5-0.8,2.1-1.4c0.6-0.6,1-1.3,1.4-2.1c0.3-0.8,0.5-1.6,0.5-2.5v-9.2v-4.2V370
		c0-1.9-0.6-3.5-1.8-4.8c-1.2-1.3-2.8-2-4.7-2h-8.8c-0.9,0-1.8,0.2-2.7,0.5c-0.8,0.3-1.6,0.8-2.2,1.5c-0.6,0.6-1.1,1.4-1.4,2.2
		c-0.3,0.8-0.5,1.7-0.5,2.7v2.3v4.2h8.8v-4.2h4.5v11.1h-6.5c-0.9,0-1.8,0.2-2.7,0.5c-0.8,0.3-1.6,0.8-2.2,1.4
		c-0.6,0.6-1.1,1.3-1.4,2.1c-0.3,0.8-0.5,1.6-0.5,2.5v2.3v3.3v3.4v2.3v4.4h6.8h8.8h6.5v-6.7v-2.1h-8.8h-4.5v-4.5H366.9z
		 M359.3,381.8V381l-0.4,0.7H359.3z"/>
	<path class="st5" d="M407.7,361.7v45.7h-0.6l-3.8,5.3h-11.5v-13.3h-5.5c-1.1,0-2.1-0.2-3-0.6c-0.9-0.4-1.8-1-2.5-1.7
		c-0.7-0.7-1.3-1.6-1.7-2.6c-0.4-1-0.6-2-0.6-3.2v-23.5l3.6-5.3v-0.8h12.2v2.4l1.2-1.6v-0.8H407.7z M406,405.6v-34v-1.7v-6.5h-6.7
		h-2.1v8.8v11.2h-4.6v-11.2v-8.8h-2.3h-6.5v6.5v15.6c0,0.9,0.2,1.8,0.5,2.6c0.3,0.8,0.8,1.5,1.4,2.1c0.6,0.6,1.3,1.1,2.1,1.4
		c0.8,0.3,1.6,0.5,2.5,0.5h2.3h4.6v13.3H406z"/>
	<path class="st5" d="M427.1,394.9v12.5h-0.5l-3.8,5.3h-11.5v-11.8l3.6-5.3v-0.8H427.1z M425.4,405.6v-9h-8.7v9H425.4z"/>
	<path class="st5" d="M450.4,407.4h-0.6l-3.7,5.3h-11.7v-33.4h-4.3v-11.5l3.6-5.3v-0.8h16.7V407.4z M448.7,363.4H442h-2.2h-4.3v8.8
		h4.3v33.4h8.9V363.4z"/>
	<path class="st5" d="M473.9,407.4h-0.6l-3.7,5.3h-11.7v-33.4h-4.3v-11.5l3.6-5.3v-0.8h16.7V407.4z M472.2,363.4h-6.7h-2.2h-4.3v8.8
		h4.3v33.4h8.9V363.4z"/>
	<path class="st5" d="M493.4,394.9v12.5h-0.5l-3.8,5.3h-11.5v-11.8l3.6-5.3v-0.8H493.4z M491.7,405.6v-9H483v9H491.7z"/>
	<path class="st5" d="M525.5,385.8c0,1.4-0.3,2.7-0.9,3.8c-0.6,1.2-1.4,2.1-2.5,2.9l-1.8,2.6h5.3v12.2h-0.6l-3.8,5.4h-24.9v-17
		c0-1.7,0.5-3.2,1.4-4.4l2.6-3.9c0.6-1.5,1.5-2.7,2.7-3.6h-6.7v-7.9c0-0.8,0.1-1.7,0.4-2.4c0.3-0.8,0.6-1.5,1.1-2.2l2.5-3.6
		c0.6-1.8,1.6-3.2,3.1-4.3c1.5-1.1,3.2-1.7,5.1-1.7h8.8c2.4,0,4.4,0.8,5.9,2.5c1.5,1.7,2.3,3.7,2.3,6.1V385.8z M517.3,392.3
		c0.9,0,1.8-0.2,2.6-0.5c0.8-0.3,1.5-0.8,2.1-1.4c0.6-0.6,1-1.3,1.4-2.1c0.3-0.8,0.5-1.6,0.5-2.5v-9.2v-4.2V370
		c0-1.9-0.6-3.5-1.8-4.8c-1.2-1.3-2.8-2-4.7-2h-8.8c-0.9,0-1.8,0.2-2.7,0.5s-1.6,0.8-2.2,1.5c-0.6,0.6-1.1,1.4-1.4,2.2
		c-0.3,0.8-0.5,1.7-0.5,2.7v2.3v4.2h8.8v-4.2h4.5v11.1h-6.5c-0.9,0-1.8,0.2-2.7,0.5c-0.8,0.3-1.6,0.8-2.2,1.4
		c-0.6,0.6-1.1,1.3-1.4,2.1c-0.3,0.8-0.5,1.6-0.5,2.5v2.3v3.3v3.4v2.3v4.4h6.8h8.8h6.5v-6.7v-2.1H515h-4.5v-4.5H517.3z M509.7,381.8
		V381l-0.4,0.7H509.7z"/>
	<path class="st5" d="M558,370.1v29c0,1.4-0.3,2.7-0.9,3.8s-1.4,2.1-2.5,2.8l-2.4,3.6c-0.7,1-1.7,1.8-2.8,2.4c-1.2,0.6-2.5,1-3.9,1
		h-8.8c-1.1,0-2.2-0.2-3.2-0.6c-1-0.4-1.8-1-2.6-1.7c-0.7-0.7-1.3-1.5-1.7-2.5c-0.4-0.9-0.6-1.9-0.6-3v-29c0-0.9,0.1-1.8,0.4-2.6
		c0.3-0.8,0.6-1.5,1.1-2.2l2.5-3.7c0.5-1.6,1.5-3,3-4.1c1.5-1.1,3.1-1.6,5.1-1.6h8.8c1.2,0,2.4,0.2,3.4,0.7c1.1,0.4,2,1,2.7,1.8
		c0.8,0.7,1.4,1.6,1.8,2.7S558,368.9,558,370.1z M556.3,399.1v-27V370c0-1.9-0.7-3.5-2-4.7c-1.3-1.3-2.9-1.9-4.9-1.9h-8.8
		c-1.9,0-3.5,0.6-4.8,1.9c-1.3,1.3-2,2.9-2,4.7v13.4v15.6c0,0.9,0.2,1.7,0.5,2.5c0.3,0.8,0.8,1.5,1.4,2.1c0.6,0.6,1.3,1.1,2.1,1.4
		c0.8,0.3,1.7,0.5,2.6,0.5h8.8c2,0,3.6-0.6,4.9-1.9C555.6,402.4,556.3,400.9,556.3,399.1z M547.3,372.1v24.7h-4.4v-24.7H547.3z"/>
	<path class="st5" d="M581.5,407.4h-0.6l-3.7,5.3h-11.7v-33.4h-4.3v-11.5l3.6-5.3v-0.8h16.7V407.4z M579.8,363.4h-6.7h-2.2h-4.3v8.8
		h4.3v33.4h8.9V363.4z"/>
	<path class="st5" d="M614.1,392.3v6.7c0,1.4-0.3,2.6-0.9,3.8c-0.6,1.1-1.3,2.1-2.3,3l-2.6,3.8c-0.7,1-1.7,1.8-2.8,2.4
		c-1.2,0.6-2.4,0.9-3.8,0.9h-8.9c-1.1,0-2.2-0.2-3.2-0.6c-1-0.4-1.9-1-2.6-1.7c-0.7-0.7-1.3-1.6-1.7-2.6c-0.4-1-0.6-2-0.6-3.2V398
		c0-1.3,0.3-2.5,1-3.4l0.2-0.4l0.6-0.8c-0.5-0.5-1-1.2-1.3-1.9c-0.3-0.7-0.5-1.6-0.5-2.4v-13.3c0-1.7,0.5-3.3,1.4-4.6l2.6-3.8
		c0.6-1.7,1.6-3,3-4c1.4-1,3.1-1.5,5.1-1.5h8.9c2.4,0,4.4,0.8,6,2.3c1.6,1.5,2.4,3.5,2.4,5.9v13.3c0,1.9-0.7,3.4-2,4.6
		C613.4,388.9,614.1,390.4,614.1,392.3z M612.4,398.9v-3.3v-1.3v-2.1c0-1.3-0.4-2.3-1.3-3.2c-0.9-0.8-1.9-1.3-3.2-1.3
		c1.3,0,2.4-0.4,3.2-1.3c0.9-0.9,1.3-2,1.3-3.3V381v-11.1c0-1.9-0.7-3.4-2-4.7c-1.3-1.2-2.9-1.9-4.8-1.9h-8.9
		c-1.9,0-3.5,0.6-4.8,1.9c-1.3,1.2-2,2.8-2,4.7v1.5v0.8v4.5v4.3v2.2c0,1.3,0.4,2.4,1.3,3.3c0.9,0.9,2,1.3,3.3,1.3
		c-1.3,0-2.4,0.4-3.3,1.3c-0.9,0.8-1.3,1.9-1.3,3.2v2.1v1.3v3.3c0,1.9,0.7,3.5,2,4.8c1.3,1.3,2.9,2,4.8,2h2.3h4.3h2.3
		c1.9,0,3.5-0.7,4.8-2C611.7,402.3,612.4,400.8,612.4,398.9z M603.4,372.2v11h-4.3v-6.5v-4.5H603.4z M603.4,392.3v4.4h-4.3v-2.3
		v-2.1H603.4z"/>
</g>
</svg>
