<?xml version="1.0" encoding="UTF-8" standalone="no"?>
<!-- Created with Inkscape (http://www.inkscape.org/) -->

<svg
   xmlns:dc="http://purl.org/dc/elements/1.1/"
   xmlns:cc="http://creativecommons.org/ns#"
   xmlns:rdf="http://www.w3.org/1999/02/22-rdf-syntax-ns#"
   xmlns:svg="http://www.w3.org/2000/svg"
   xmlns="http://www.w3.org/2000/svg"
   xmlns:sodipodi="http://sodipodi.sourceforge.net/DTD/sodipodi-0.dtd"
   xmlns:inkscape="http://www.inkscape.org/namespaces/inkscape"
   width="1000"
   height="1000"
   viewBox="0 0 1000 1000"
   id="svg2"
   version="1.1"
   inkscape:version="0.91 r13725"
   sodipodi:docname="phpwomen.svg">
  <defs
     id="defs4" />
  <sodipodi:namedview
     id="base"
     pagecolor="#ffffff"
     bordercolor="#666666"
     borderopacity="1.0"
     inkscape:pageopacity="0.0"
     inkscape:pageshadow="2"
     inkscape:zoom="0.7"
     inkscape:cx="872.38281"
     inkscape:cy="445.24747"
     inkscape:document-units="px"
     inkscape:current-layer="layer1"
     showgrid="false"
     units="px"
     inkscape:window-width="1920"
     inkscape:window-height="1046"
     inkscape:window-x="0"
     inkscape:window-y="0"
     inkscape:window-maximized="1" />
  <metadata
     id="metadata7">
    <rdf:RDF>
      <cc:Work
         rdf:about="">
        <dc:format>image/svg+xml</dc:format>
        <dc:type
           rdf:resource="http://purl.org/dc/dcmitype/StillImage" />
        <dc:title></dc:title>
      </cc:Work>
    </rdf:RDF>
  </metadata>
  <g
     inkscape:label="Layer 1"
     inkscape:groupmode="layer"
     id="layer1"
     transform="translate(0,-52.362161)">
    <rect
       style="fill:#41203f;stroke:none;fill-opacity:1"
       id="rect4255"
       x="0"
       y="52.362152"
       height="1000"
       width="1000" />
    <rect
       style="fill:#ffffff;stroke:none"
       id="rect4253"
       width="920"
       height="700"
       x="34.285713"
       y="90.933571" />
    <g
       id="g4327"
       style="fill:#ffffff">
      <path
         d="m 74.151195,845.59553 28.020705,105.78227 26.59106,-97.55137 30.59403,0 26.59106,97.85622 28.30664,-106.08712 33.7392,0 -45.74808,148.15614 -33.16735,0 -25.7333,-88.71077 -25.16144,88.71077 -33.453282,0 -46.034003,-148.15614 35.45476,0 z"
         style="font-style:normal;font-variant:normal;font-weight:bold;font-stretch:normal;font-size:289.1265564px;line-height:125%;font-family:Karla;-inkscape-font-specification:'Karla Bold';letter-spacing:0px;word-spacing:0px;fill:#ffffff;fill-opacity:1;stroke:none;stroke-width:1px;stroke-linecap:butt;stroke-linejoin:miter;stroke-opacity:1"
         id="path4238"
         inkscape:connector-curvature="0" />
      <path
         d="m 329.69512,841.63251 q 15.21624,0 28.56926,4.87757 13.35303,4.57272 22.97963,14.32785 21.42695,21.33937 21.42695,59.14052 0,37.19145 -21.42695,58.53082 -19.2532,19.51027 -51.54889,19.51027 -32.29569,0 -52.16995,-19.51027 -21.42697,-21.03451 -21.42697,-58.53082 0,-38.106 21.42697,-59.14052 19.56372,-19.20542 52.16995,-19.20542 z m 36.33265,78.0411 q 0,-23.47331 -9.31607,-35.05753 -9.31606,-11.88907 -26.08497,-11.88907 -16.45838,0 -27.01659,11.88907 -10.55822,11.58422 -10.55822,35.05753 0,23.47329 9.31607,35.36236 9.6266,11.58423 26.08498,11.58423 16.45839,0 27.0166,-11.58423 10.5582,-11.88907 10.5582,-35.36236 z"
         style="font-style:normal;font-variant:normal;font-weight:bold;font-stretch:normal;font-size:289.1265564px;line-height:125%;font-family:Karla;-inkscape-font-specification:'Karla Bold';letter-spacing:0px;word-spacing:0px;fill:#ffffff;fill-opacity:1;stroke:none;stroke-width:1px;stroke-linecap:butt;stroke-linejoin:miter;stroke-opacity:1"
         id="path4240"
         inkscape:connector-curvature="0" />
      <path
         d="m 543.22609,873.64156 q 12.71554,-32.00905 44.63967,-32.00905 23.53728,0 36.52336,17.98604 12.445,17.07148 12.445,47.55629 l 0,86.57683 -32.19467,0 0,-86.57683 q 0,-16.46179 -7.03413,-24.69269 -7.03413,-8.53575 -19.74967,-8.53575 -12.71555,0 -20.83186,12.49877 -8.11629,12.49877 -8.65739,37.80116 l 0,69.50534 -31.92412,0 0,-86.57683 q 0,-16.46179 -7.03413,-24.69269 -7.03413,-8.53575 -19.74967,-8.53575 -12.71555,0 -21.91402,12.80362 -8.92794,12.80362 -9.46902,38.41085 l 0,68.5908 -31.92413,0 0,-148.15614 27.86597,0 3.51707,25.60724 q 12.98609,-29.57026 41.6637,-29.57026 16.50315,0 27.32488,8.53574 11.09229,8.53575 16.50316,23.47331 z"
         style="font-style:normal;font-variant:normal;font-weight:bold;font-stretch:normal;font-size:289.1265564px;line-height:125%;font-family:Karla;-inkscape-font-specification:'Karla Bold';letter-spacing:0px;word-spacing:0px;fill:#ffffff;fill-opacity:1;stroke:none;stroke-width:1px;stroke-linecap:butt;stroke-linejoin:miter;stroke-opacity:1"
         id="path4242"
         inkscape:connector-curvature="0" />
      <path
         d="m 781.25979,863.47445 q 8.16903,9.84424 12.09016,22.76481 4.24789,12.92059 4.24789,23.68773 0,10.76714 -1.30704,19.38086 l -102.60296,0 q 0.65351,18.15033 9.47606,29.53275 8.82254,11.3824 26.79441,11.3824 23.85355,0 28.4282,-19.68849 l 38.88458,0 q -3.92114,22.45718 -21.893,35.37776 -18.62538,13.53584 -45.41978,13.53584 -31.36905,0 -52.60854,-21.53429 -21.89298,-22.45719 -21.89298,-57.52732 0,-35.99304 21.89298,-57.83496 20.91272,-20.91903 52.60854,-20.91903 33.00286,0 51.30148,21.84194 z M 730.28506,870.55 q -16.33805,0 -25.48736,10.15187 -9.14931,9.84424 -10.78311,25.53353 l 67.63954,0 q 0,-24.303 -16.33806,-32.60909 Q 739.10761,870.55 730.28506,870.55 Z"
         style="font-style:normal;font-variant:normal;font-weight:bold;font-stretch:normal;font-size:289.1265564px;line-height:125%;font-family:Karla;-inkscape-font-specification:'Karla Bold';letter-spacing:0px;word-spacing:0px;fill:#ffffff;fill-opacity:1;stroke:none;stroke-width:1px;stroke-linecap:butt;stroke-linejoin:miter;stroke-opacity:1"
         id="path4244"
         inkscape:connector-curvature="0" />
      <path
         d="m 854.9044,871.20277 q 14.07463,-29.57026 45.15608,-29.57026 26.38991,0 39.58486,17.98604 13.48816,17.98602 13.48816,47.55629 l 0,86.57683 -34.60008,0 0,-86.57683 q 0,-16.46179 -7.62376,-24.69269 -7.62375,-8.53575 -21.40515,-8.53575 -13.7814,0 -23.75092,12.80362 -9.6763,12.80362 -10.26274,38.41085 l 0,68.5908 -34.60012,0 0,-148.15614 30.2018,0 3.81187,25.60724 z"
         style="font-style:normal;font-variant:normal;font-weight:bold;font-stretch:normal;font-size:289.1265564px;line-height:125%;font-family:Karla;-inkscape-font-specification:'Karla Bold';letter-spacing:0px;word-spacing:0px;fill:#ffffff;fill-opacity:1;stroke:none;stroke-width:1px;stroke-linecap:butt;stroke-linejoin:miter;stroke-opacity:1"
         id="path4246"
         inkscape:connector-curvature="0" />
    </g>
    <g
       id="g4322"
       style="fill:#41203f;fill-opacity:1">
      <path
         d="m 541.08281,317.29923 c -31.65399,4.48578 -48.21785,13.46116 -64.20298,38.70084 l 4.28571,-118.62649 -97.83073,0 0,312.13069 94.97359,0 0,-113.15789 c 0,-26.081 4.30248,-44.16944 27.43886,-44.5901 20.19174,0 28.79464,14.30407 28.52587,37.01819 l -1.42858,120.7298 99.25931,0 0,-145.12815 c 0,-55.86047 -10.37511,-98.50546 -91.02105,-87.07689 z"
         style="font-style:normal;font-variant:normal;font-weight:800;font-stretch:normal;font-size:420.66131592px;line-height:125%;font-family:Montserrat;-inkscape-font-specification:'Montserrat Ultra-Bold';letter-spacing:0px;word-spacing:0px;fill:#41203f;fill-opacity:1;stroke:none;stroke-width:1px;stroke-linecap:butt;stroke-linejoin:miter;stroke-opacity:1"
         id="path4212"
         inkscape:connector-curvature="0"
         sodipodi:nodetypes="scccccscsccss" />
      <path
         sodipodi:nodetypes="sccccccsssccccc"
         inkscape:connector-curvature="0"
         transform="translate(0,52.362161)"
         id="path4214"
         d="m 825.69169,262.50028 c -25.66034,0 -54.67874,13.37465 -69.82255,32.30441 l 0,-26.50196 -84.97266,0 0,310.44727 89.25977,-2.85742 0,-92.39453 c 15.56447,18.92976 42.1452,19.44503 69.06752,19.44503 63.0992,0 95.33092,-48.70827 95.33092,-118.9587 0,-71.51243 -34.92248,-121.4841 -98.863,-121.4841 z m -29.97685,88.92745 c 20.51398,1.5e-4 37.14351,16.63056 37.14258,37.14454 -1.6e-4,20.51321 -16.62937,37.14242 -37.14258,37.14257 -20.51321,-1.6e-4 -37.14241,-16.62936 -37.14257,-37.14257 -9.3e-4,-20.51398 16.62859,-37.14438 37.14257,-37.14454 z"
         style="font-style:normal;font-variant:normal;font-weight:800;font-stretch:normal;font-size:420.66131592px;line-height:125%;font-family:Montserrat;-inkscape-font-specification:'Montserrat Ultra-Bold';letter-spacing:0px;word-spacing:0px;fill:#41203f;fill-opacity:1;stroke:none;stroke-width:1px;stroke-linecap:butt;stroke-linejoin:miter;stroke-opacity:1" />
      <path
         sodipodi:nodetypes="sccccccsssccccc"
         inkscape:connector-curvature="0"
         id="path4214-1"
         d="m 249.39468,314.23731 c -25.66034,0 -54.67874,13.37465 -69.82255,32.30441 l 0,-26.50196 -84.972663,0 0,310.44726 89.259773,-2.85742 0,-92.39453 c 15.56447,18.92976 42.1452,19.44503 69.06752,19.44503 63.0992,0 95.33092,-48.70827 95.33092,-118.9587 0,-71.51243 -34.92248,-121.48409 -98.863,-121.48409 z m -29.97685,88.92744 c 20.51398,1.5e-4 37.14351,16.63056 37.14258,37.14454 -1.6e-4,20.51321 -16.62937,37.14242 -37.14258,37.14257 -20.51321,-1.6e-4 -37.14241,-16.62936 -37.14257,-37.14257 -9.3e-4,-20.51398 16.62859,-37.14438 37.14257,-37.14454 z"
         style="font-style:normal;font-variant:normal;font-weight:800;font-stretch:normal;font-size:420.66131592px;line-height:125%;font-family:Montserrat;-inkscape-font-specification:'Montserrat Ultra-Bold';letter-spacing:0px;word-spacing:0px;fill:#41203f;fill-opacity:1;stroke:none;stroke-width:1px;stroke-linecap:butt;stroke-linejoin:miter;stroke-opacity:1" />
    </g>
  </g>
</svg>
