<svg id="logo_lockups" data-name="logo lockups" xmlns="http://www.w3.org/2000/svg" viewBox="0 0 550 200"><defs><style>.cls-1{fill:#eb4962;}.cls-2{fill:#00363d;}</style></defs><title>guidehc_horizontal copy</title><polygon class="cls-1" points="230.94 93.19 265.52 58.61 300.11 93.19 230.94 93.19"/><polygon class="cls-2" points="250.05 53.45 265.57 37.92 281.09 53.45 250.05 53.45"/><path class="cls-2" d="M220,149.79a11.12,11.12,0,0,0,7.9-3.07l3.92,4.22c-2.59,2.66-6.17,4.63-11.75,4.63-9.56,0-15.73-6.34-15.73-14.92a14.63,14.63,0,0,1,14.87-14.92c9.49,0,14.87,7.22,14.4,17.24H211.15c.8,4.16,3.72,6.81,8.83,6.81m6.84-11.58c-.6-3.88-2.92-6.74-7.57-6.74a7.71,7.71,0,0,0-8.1,6.74Z"/><polygon class="cls-2" points="72.68 149.48 89.95 131.94 73.09 131.94 73.09 126.44 97.95 126.44 97.95 132.06 80.68 149.59 98.18 149.59 98.18 155.1 72.68 155.1 72.68 149.48"/><path class="cls-2" d="M117.57,149.79a11.12,11.12,0,0,0,7.9-3.07l3.92,4.22c-2.59,2.66-6.17,4.63-11.75,4.63-9.56,0-15.73-6.34-15.73-14.92a14.63,14.63,0,0,1,14.87-14.92c9.49,0,14.87,7.22,14.4,17.24H108.74c.8,4.16,3.72,6.81,8.83,6.81m6.84-11.58c-.6-3.88-2.92-6.74-7.57-6.74a7.71,7.71,0,0,0-8.1,6.74Z"/><path class="cls-2" d="M168.45,140.68c0-9.17,6.85-14.9,14.39-14.9a12.41,12.41,0,0,1,9.55,4.3V113.16h6.1V155h-6.1v-4a12.26,12.26,0,0,1-9.61,4.53,14.45,14.45,0,0,1-14.33-14.9m24.29-.06a9.1,9.1,0,1,0-9.09,9.34,9.07,9.07,0,0,0,9.09-9.34"/><path class="cls-2" d="M237.56,148.93l5.52-2.87a8.2,8.2,0,0,0,7.37,4.18c3.45,0,5.24-1.77,5.24-3.78,0-2.29-3.34-2.81-7-3.55-4.89-1-10-2.64-10-8.54,0-4.53,4.31-8.71,11.11-8.66,5.35,0,9.32,2.12,11.57,5.56l-5.12,2.81a7.43,7.43,0,0,0-6.45-3.27c-3.28,0-4.95,1.61-4.95,3.44,0,2.06,2.65,2.64,6.79,3.55,4.72,1,10.07,2.58,10.07,8.54,0,4-3.45,9.29-11.63,9.23-6,0-10.19-2.41-12.6-6.65"/><polygon class="cls-2" points="278.36 142.28 273.52 147.56 273.52 155.01 267.42 155.01 267.42 113.16 273.52 113.16 273.52 140.56 286.47 126.35 293.9 126.35 282.67 138.62 294.19 155.01 287.28 155.01 278.36 142.28"/><path class="cls-2" d="M150,125.77c-7.25,0-13.32,4.7-13.32,12.5V155h6.22V139c0-4.7,2.7-7.51,7.31-7.51s6.91,2.81,6.91,7.51v16h6.22V138.27c0-7.8-6.07-12.5-13.32-12.5"/><path class="cls-2" d="M314,139.89c0-9.27,6.9-15.07,14.49-15.07a12.34,12.34,0,0,1,9.62,4.52V125.4h6.2v28.28c0,8.52-5.33,14.78-14.6,14.78-7.24,0-12.17-3.48-14.37-8.17l5.74-2.72c1.45,3.19,4.23,5.22,8.63,5.22,5.27,0,8.46-3.88,8.46-8.87v-3.65a12.37,12.37,0,0,1-9.74,4.69C321.11,155,314,149.11,314,139.89Zm24.46-.06a9.16,9.16,0,1,0-9.16,9.45A9.15,9.15,0,0,0,338.5,139.83Z"/><path class="cls-2" d="M350.14,142.27V125.4h6.32v16.34c0,4.75,2.32,7.77,7,7.77,4.12,0,7.3-3.13,7.3-8.17V125.4H377v29h-6.14v-3.77A10.76,10.76,0,0,1,362,155C354.37,155,350.14,150.21,350.14,142.27Z"/><path class="cls-2" d="M386,112.6a4.17,4.17,0,1,1-4.17,4.17A4,4,0,0,1,386,112.6Zm-3.13,12.81h6.26v29h-6.26Z"/><path class="cls-2" d="M393.6,139.89c0-9.27,6.9-15.07,14.49-15.07a12.48,12.48,0,0,1,9.62,4.35v-17.1h6.14v42.31h-6.14v-4A12.33,12.33,0,0,1,408,155C400.67,155,393.6,149.11,393.6,139.89Zm24.46-.06a9.16,9.16,0,1,0-9.16,9.45A9.15,9.15,0,0,0,418.06,139.83Z"/><path class="cls-2" d="M428.4,140a14.92,14.92,0,0,1,15.07-15.18c8.58,0,14.89,6.2,14.89,14.78V142h-24c.81,4.46,4.29,7.42,9.33,7.42a9.09,9.09,0,0,0,8.46-5.22l5.1,2.84A14.64,14.64,0,0,1,443.7,155C434.54,155,428.4,148.41,428.4,140Zm6.26-3.25H452c-.93-4.17-4.11-6.49-8.58-6.49A9,9,0,0,0,434.66,136.76Z"/></svg>