<svg id="logo_lockups" data-name="logo lockups" xmlns="http://www.w3.org/2000/svg" viewBox="0 0 550 100"><defs><style>.cls-1{fill:#00363d;}</style></defs><title>guidehc_wordmark copy</title><path class="cls-1" d="M220,68.32a11.12,11.12,0,0,0,7.9-3.07l3.92,4.22c-2.59,2.66-6.17,4.63-11.75,4.63-9.56,0-15.73-6.34-15.73-14.92a14.63,14.63,0,0,1,14.87-14.92c9.49,0,14.87,7.22,14.4,17.24H211.15c.8,4.16,3.72,6.81,8.83,6.81m6.84-11.58c-.6-3.88-2.92-6.74-7.57-6.74a7.71,7.71,0,0,0-8.1,6.74Z"/><polygon class="cls-1" points="72.68 68.01 89.95 50.47 73.09 50.47 73.09 44.97 97.95 44.97 97.95 50.59 80.68 68.12 98.18 68.12 98.18 73.63 72.68 73.63 72.68 68.01"/><path class="cls-1" d="M117.57,68.32a11.12,11.12,0,0,0,7.9-3.07l3.92,4.22c-2.59,2.66-6.17,4.63-11.75,4.63-9.56,0-15.73-6.34-15.73-14.92a14.63,14.63,0,0,1,14.87-14.92c9.49,0,14.87,7.22,14.4,17.24H108.74c.8,4.16,3.72,6.81,8.83,6.81m6.84-11.58c-.6-3.88-2.92-6.74-7.57-6.74a7.71,7.71,0,0,0-8.1,6.74Z"/><path class="cls-1" d="M168.45,59.21c0-9.17,6.85-14.9,14.39-14.9a12.41,12.41,0,0,1,9.55,4.3V31.69h6.1V73.54h-6.1v-4a12.26,12.26,0,0,1-9.61,4.53,14.45,14.45,0,0,1-14.33-14.9m24.29-.06a9.1,9.1,0,1,0-9.09,9.34,9.07,9.07,0,0,0,9.09-9.34"/><path class="cls-1" d="M237.56,67.46l5.52-2.87a8.2,8.2,0,0,0,7.37,4.18c3.45,0,5.24-1.77,5.24-3.78,0-2.29-3.34-2.81-7-3.55-4.89-1-10-2.64-10-8.54,0-4.53,4.31-8.71,11.11-8.66,5.35,0,9.32,2.12,11.57,5.56l-5.12,2.81a7.43,7.43,0,0,0-6.45-3.27c-3.28,0-4.95,1.61-4.95,3.44,0,2.06,2.65,2.64,6.79,3.55,4.72,1,10.07,2.58,10.07,8.54,0,4-3.45,9.29-11.63,9.23-6,0-10.19-2.41-12.6-6.65"/><polygon class="cls-1" points="278.36 60.81 273.52 66.09 273.52 73.54 267.42 73.54 267.42 31.69 273.52 31.69 273.52 59.09 286.47 44.88 293.9 44.88 282.67 57.15 294.19 73.54 287.28 73.54 278.36 60.81"/><path class="cls-1" d="M150,44.3c-7.25,0-13.32,4.7-13.32,12.5V73.54h6.22v-16c0-4.7,2.7-7.51,7.31-7.51s6.91,2.81,6.91,7.51v16h6.22V56.8c0-7.8-6.07-12.5-13.32-12.5"/><path class="cls-1" d="M314,58.42c0-9.27,6.9-15.07,14.49-15.07a12.34,12.34,0,0,1,9.62,4.52V43.93h6.2V72.22c0,8.52-5.33,14.78-14.6,14.78-7.24,0-12.17-3.48-14.37-8.17l5.74-2.72c1.45,3.19,4.23,5.22,8.63,5.22,5.27,0,8.46-3.88,8.46-8.87V68.8a12.37,12.37,0,0,1-9.74,4.69C321.11,73.49,314,67.64,314,58.42Zm24.46-.06a9.16,9.16,0,1,0-9.16,9.45A9.15,9.15,0,0,0,338.5,58.36Z"/><path class="cls-1" d="M350.14,60.8V43.93h6.32V60.28c0,4.75,2.32,7.77,7,7.77,4.12,0,7.3-3.13,7.3-8.17V43.93H377v29h-6.14V69.14A10.76,10.76,0,0,1,362,73.49C354.37,73.49,350.14,68.74,350.14,60.8Z"/><path class="cls-1" d="M386,31.13a4.17,4.17,0,1,1-4.17,4.17A4,4,0,0,1,386,31.13Zm-3.13,12.81h6.26v29h-6.26Z"/><path class="cls-1" d="M393.6,58.42c0-9.27,6.9-15.07,14.49-15.07a12.48,12.48,0,0,1,9.62,4.35V30.6h6.14V72.91h-6.14v-4A12.33,12.33,0,0,1,408,73.49C400.67,73.49,393.6,67.64,393.6,58.42Zm24.46-.06a9.16,9.16,0,1,0-9.16,9.45A9.15,9.15,0,0,0,418.06,58.36Z"/><path class="cls-1" d="M428.4,58.54a14.92,14.92,0,0,1,15.07-15.18c8.58,0,14.89,6.2,14.89,14.78v2.43h-24C435.18,65,438.66,68,443.7,68a9.09,9.09,0,0,0,8.46-5.22l5.1,2.84a14.64,14.64,0,0,1-13.56,7.88C434.54,73.49,428.4,66.94,428.4,58.54Zm6.26-3.25H452c-.93-4.17-4.11-6.49-8.58-6.49A9,9,0,0,0,434.66,55.29Z"/></svg>