<svg id="logo_lockups" data-name="logo lockups" xmlns="http://www.w3.org/2000/svg" viewBox="0 0 580 580"><defs><style>.cls-1{fill:#eb4962;}.cls-2{fill:#00363d;}</style></defs><title>guidehc_zendesk vertical copy</title><polygon class="cls-1" points="41.03 257.47 181.93 116.57 322.83 257.47 41.03 257.47"/><polygon class="cls-2" points="118.91 95.55 182.14 32.31 245.37 95.55 118.91 95.55"/><path class="cls-2" d="M295.38,403.85a19.27,19.27,0,0,0,13.69-5.32l6.79,7.32c-4.49,4.61-10.7,8-20.37,8-16.57,0-27.27-11-27.27-25.87A25.37,25.37,0,0,1,294,362.14c16.46,0,25.78,12.52,25,29.89H280.08c1.38,7.21,6.44,11.81,15.3,11.81m11.85-20.08c-1-6.73-5.06-11.69-13.12-11.69-7.48,0-12.66,4.25-14,11.69Z"/><polygon class="cls-2" points="40 403.31 69.94 372.9 40.7 372.9 40.7 363.36 83.81 363.36 83.81 373.1 53.87 403.5 84.21 403.5 84.21 413.05 40 413.05 40 403.31"/><path class="cls-2" d="M117.82,403.85a19.27,19.27,0,0,0,13.69-5.32l6.79,7.32c-4.49,4.61-10.7,8-20.37,8-16.57,0-27.27-11-27.27-25.87a25.37,25.37,0,0,1,25.77-25.87c16.46,0,25.78,12.52,25,29.89H102.52c1.38,7.21,6.44,11.81,15.3,11.81m11.85-20.08c-1-6.73-5.06-11.69-13.12-11.69-7.48,0-12.66,4.25-14,11.69Z"/><path class="cls-2" d="M206,388c0-15.9,11.87-25.84,24.95-25.84,6.59,0,12.88,2.88,16.57,7.46V340.34h10.58v72.55H247.55V406a21.25,21.25,0,0,1-16.67,7.85c-12.67,0-24.85-10-24.85-25.84m42.11-.1c0-8.84-6.69-16.1-15.77-16.1a15.73,15.73,0,0,0-15.77,16.1c0,9,6.88,16.2,15.77,16.2,9.08,0,15.77-7.26,15.77-16.2"/><path class="cls-2" d="M325.86,402.36l9.58-5a14.22,14.22,0,0,0,12.77,7.25c6,0,9.08-3.08,9.08-6.56,0-4-5.79-4.87-12.07-6.16-8.48-1.79-17.26-4.57-17.26-14.81,0-7.85,7.48-15.11,19.26-15,9.28,0,16.17,3.68,20.06,9.64l-8.88,4.87A12.89,12.89,0,0,0,347.22,371c-5.69,0-8.58,2.78-8.58,6,0,3.58,4.59,4.57,11.78,6.16,8.18,1.79,17.46,4.47,17.46,14.81,0,6.86-6,16.1-20.16,16-10.38,0-17.66-4.17-21.85-11.53"/><polygon class="cls-2" points="396.6 390.83 388.21 399.98 388.21 412.89 377.64 412.89 377.64 340.34 388.21 340.34 388.21 387.85 410.67 363.2 423.54 363.2 404.08 384.47 424.04 412.89 412.06 412.89 396.6 390.83"/><path class="cls-2" d="M174.08,362.2c-12.57,0-23.1,8.15-23.1,21.67v29h10.78V385.21c0-8.15,4.69-13,12.67-13s12,4.88,12,13v27.68h10.78v-29c0-13.52-10.53-21.67-23.1-21.67"/><path class="cls-2" d="M40,481.11c0-16.19,12-26.32,25.3-26.32a21.55,21.55,0,0,1,16.8,7.89V455.8H92.93v49.39c0,14.88-9.31,25.81-25.51,25.81-12.65,0-21.25-6.07-25.1-14.27l10-4.76c2.53,5.57,7.39,9.11,15.08,9.11,9.21,0,14.78-6.78,14.78-15.49v-6.38a21.6,21.6,0,0,1-17,8.2C52.35,507.42,40,497.2,40,481.11Zm42.71-.1c0-9-6.78-16.4-16-16.4-9,0-16,7.19-16,16.4s7,16.5,16,16.5C75.93,497.5,82.71,490.11,82.71,481Z"/><path class="cls-2" d="M103,485.25V455.8h11v28.54c0,8.3,4,13.56,12.25,13.56,7.19,0,12.75-5.46,12.75-14.27V455.8h10.83v50.61H139.18v-6.58a18.8,18.8,0,0,1-15.38,7.59C110.43,507.42,103,499.12,103,485.25Z"/><path class="cls-2" d="M165.74,433.43a7.29,7.29,0,1,1-7.29,7.29A7,7,0,0,1,165.74,433.43Zm-5.46,22.37H171.2v50.61H160.27Z"/><path class="cls-2" d="M179,481.11c0-16.19,12-26.32,25.3-26.32,6.68,0,13.06,2.94,16.8,7.59V432.52h10.73v73.89H221.06v-7a21.53,21.53,0,0,1-16.9,8C191.3,507.42,179,497.2,179,481.11Zm42.71-.1c0-9-6.78-16.4-16-16.4-9,0-16,7.19-16,16.4s7,16.5,16,16.5C214.89,497.5,221.67,490.11,221.67,481Z"/><path class="cls-2" d="M239.73,481.31A26.06,26.06,0,0,1,266,454.79c15,0,26,10.83,26,25.81v4.25h-41.9c1.42,7.79,7.49,13,16.3,13a15.87,15.87,0,0,0,14.78-9.11l8.91,5c-4.45,8.3-12.45,13.76-23.69,13.76C250.45,507.42,239.73,496,239.73,481.31Zm10.93-5.67H281c-1.62-7.29-7.19-11.34-15-11.34A15.74,15.74,0,0,0,250.66,475.64Z"/></svg>