<?xml version="1.0" encoding="utf-8"?>
<!-- Generator: Adobe Illustrator 24.3.0, SVG Export Plug-In . SVG Version: 6.00 Build 0)  -->
<svg version="1.1" id="Layer_1" xmlns="http://www.w3.org/2000/svg" xmlns:xlink="http://www.w3.org/1999/xlink" x="0px" y="0px"
	 viewBox="0 0 252.6 45" style="enable-background:new 0 0 252.6 45;" xml:space="preserve">
<style type="text/css">
	.st0{fill-rule:evenodd;clip-rule:evenodd;fill:#00D4B2;}
</style>
<g>
	<polygon class="st0" points="252.6,0 244.7,0 226.5,36.9 234.4,36.9 	"/>
	<g>
		<path d="M24.2,12.9V8.4h6.9V45h-6.9V32.2h-0.1c-2.4,3.2-5.5,4.8-9.3,4.8c-4.1,0-7.6-1.4-10.5-4.3S0,26.5,0,22.3
			c0-4.2,1.4-7.7,4.3-10.5C7.2,9,10.7,7.6,14.8,7.6C18.9,7.6,21.9,9.3,24.2,12.9L24.2,12.9z M21.7,28.3c1.6-1.7,2.5-3.7,2.5-6
			s-0.8-4.3-2.5-6c-1.6-1.7-3.7-2.5-6-2.5c-2.4,0-4.4,0.8-6,2.5c-1.7,1.7-2.5,3.7-2.5,6s0.8,4.3,2.5,6c1.7,1.7,3.7,2.5,6,2.5
			C18,30.8,20,30,21.7,28.3z"/>
		<path d="M55.3,8.4h6.9v27.8h-6.9v-4.3h-0.1c-1.7,3.4-4.4,5.1-8.1,5.1c-3.2,0-5.8-1.1-7.8-3.3c-2-2.2-3-5.1-3-8.6V8.4h6.9v16.4
			c0,1.7,0.6,3.1,1.8,4.3c1.2,1.2,2.6,1.8,4.3,1.8c1.7,0,3.1-0.6,4.3-1.8c1.2-1.2,1.8-2.6,1.8-4.3V8.4z"/>
		<path d="M96.4,22.3c0,1.1-0.1,2.1-0.4,3.1H73.6c0.5,1.7,1.5,3,2.9,4.1c1.5,1.1,3.1,1.6,4.9,1.6c1.6,0,3.1-0.4,4.5-1.1
			c1.4-0.8,2.5-1.7,3.3-2.9l4.6,4.1c-1.4,1.8-3.2,3.3-5.4,4.3c-2.2,1.1-4.5,1.6-7,1.6c-4.2,0-7.8-1.4-10.8-4.3s-4.4-6.4-4.4-10.5
			c0-4.1,1.5-7.6,4.4-10.5c3-2.8,6.5-4.2,10.8-4.2c4.1,0,7.6,1.4,10.5,4.3C94.9,14.7,96.4,18.2,96.4,22.3z M73.7,19.6h15.4
			c-0.4-1.8-1.3-3.3-2.7-4.4c-1.4-1.2-3-1.8-4.9-1.8c-1.9,0-3.5,0.6-5,1.8C75,16.3,74.1,17.8,73.7,19.6z"/>
		<path d="M111.3,31c1.6,0.1,2.8-0.1,3.7-0.6c0.9-0.5,1.4-1.2,1.4-2.1c0-0.9-0.4-1.6-1.2-2.1c-0.8-0.5-1.8-0.8-3.1-0.9
			c-1.2-0.1-2.5-0.3-4-0.6c-1.4-0.3-2.7-0.7-4-1.1c-1.2-0.5-2.2-1.3-3.1-2.6c-0.8-1.2-1.2-2.8-1.2-4.8c0-2.7,1-4.8,3.1-6.3
			c2.1-1.5,4.8-2.3,8.2-2.3c4.1,0,7.8,1.1,11.1,3.3l-3,5.1c-2-1.6-4.7-2.3-8.1-2.3c-2.9,0-4.3,0.8-4.3,2.5c0,1.1,0.6,1.8,1.7,2.3
			c1.1,0.4,2.5,0.8,4.1,0.9c1.6,0.2,3.2,0.5,4.8,0.8c1.6,0.4,3,1.3,4.1,2.6c1.1,1.3,1.7,3.2,1.7,5.6c0,2.8-1.2,4.9-3.5,6.5
			c-2.3,1.6-5.2,2.3-8.7,2.3c-4.5,0-8.4-1.1-11.7-3.3l3.3-5.5C104.8,29.9,107.7,30.8,111.3,31z"/>
		<path d="M125.3,13.9V8.4h3.1V1.9h6.9v6.5h3.5v5.6h-3.5v13.9c0,0.6,0.2,1.1,0.7,1.5c0.5,0.4,1,0.6,1.6,0.6c0.7,0,1.9,0,2.7,0l0,7.1
			c-1.8,0-2.3,0-4.7,0c-2.2,0-3.9-0.7-5.3-2.1c-1.3-1.4-2-3.2-2-5.4V13.9H125.3z"/>
		<path d="M173.3,22.3c0,1.1-0.1,2.1-0.4,3.1h-22.4c0.5,1.7,1.5,3,2.9,4.1c1.5,1.1,3.1,1.6,4.9,1.6c1.6,0,3.1-0.4,4.5-1.1
			c1.4-0.8,2.5-1.7,3.3-2.9l4.6,4.1c-1.4,1.8-3.2,3.3-5.4,4.3c-2.2,1.1-4.5,1.6-7,1.6c-4.2,0-7.8-1.4-10.8-4.3s-4.4-6.4-4.4-10.5
			c0-4.1,1.5-7.6,4.4-10.5c3-2.8,6.5-4.2,10.8-4.2c4.1,0,7.6,1.4,10.5,4.3C171.8,14.7,173.3,18.2,173.3,22.3z M150.6,19.6H166
			c-0.4-1.8-1.3-3.3-2.7-4.4c-1.4-1.2-3-1.8-4.9-1.8c-1.9,0-3.5,0.6-5,1.8C152,16.3,151,17.8,150.6,19.6z"/>
		<path d="M191.3,7.6c1.5,0,4.1,0.4,6.2,1.7l-3,5.6c-0.9-0.5-2.6-0.7-3.3-0.7c-2,0-3.7,0.7-5,2.1c-1.4,1.4-2.1,3.1-2.1,5.1v14.9
			h-6.9V8.4h6.9v4.1C186.1,9.2,188.5,7.6,191.3,7.6z"/>
		<path d="M209.3,31c1.6,0.1,2.8-0.1,3.7-0.6c0.9-0.5,1.4-1.2,1.4-2.1c0-0.9-0.4-1.6-1.2-2.1c-0.8-0.5-1.8-0.8-3.1-0.9
			c-1.2-0.1-2.5-0.3-4-0.6c-1.4-0.3-2.7-0.7-4-1.1c-1.2-0.5-2.2-1.3-3.1-2.6c-0.8-1.2-1.2-2.8-1.2-4.8c0-2.7,1-4.8,3.1-6.3
			c2.1-1.5,4.8-2.3,8.2-2.3c4.1,0,7.8,1.1,11.1,3.3l-3,5.1c-2-1.6-4.7-2.3-8.1-2.3c-2.9,0-4.3,0.8-4.3,2.5c0,1.1,0.6,1.8,1.7,2.3
			c1.1,0.4,2.5,0.8,4.1,0.9c1.6,0.2,3.2,0.5,4.8,0.8c1.6,0.4,3,1.3,4.1,2.6c1.1,1.3,1.7,3.2,1.7,5.6c0,2.8-1.2,4.9-3.5,6.5
			c-2.3,1.6-5.2,2.3-8.7,2.3c-4.5,0-8.4-1.1-11.7-3.3l3.3-5.5C202.8,29.9,205.7,30.8,209.3,31z"/>
	</g>
</g>
</svg>
