<?xml version="1.0" encoding="UTF-8"?><svg id="Layer_2" xmlns="http://www.w3.org/2000/svg" viewBox="0 0 408.78 71.78"><defs><style>.cls-1{fill:#555;}.cls-2{fill:#5a32ff;}</style></defs><g id="Layer_1-2"><path class="cls-2" d="m23.93,33.13h-1.84c-2.12,0-4.25.27-6.19,1.02-3.43,1.33-4.85,4.02-4.85,4.02v-4.6c0-.24-.19-.44-.44-.44H.44c-.24,0-.44.19-.44.44v37.78c0,.24.19.44.44.44h10.17c.24,0,.44-.19.44-.44v-16.63c0-6.1,4.94-11.04,11.04-11.04h1.84c.24,0,.44-.19.44-.44v-9.68c0-.24-.19-.44-.44-.44Z"/><path class="cls-2" d="m55.22,22.12h0s0-.02,0-.03c0-6.13-1.32-10.03-4.13-13.67C46.96,3.07,40.37,0,34.03,0H.44c-.24,0-.44.19-.44.44v25.76c0,.24.19.44.44.44h10.17c.24,0,.44-.19.44-.44v-15.22c0-.24.19-.44.44-.44h21.47c6.05,0,11.11,5.28,11.23,11.33.12,6.19-4.88,11.26-11.04,11.26h-1.84c-.24,0-.44.19-.44.44v9.68c0,.24.19.44.44.44h1.84c6.1,0,11.04,4.94,11.04,11.04v16.62c0,.24.19.44.44.44h10.17c.24,0,.44-.19.44-.44v-16.23c0-3.39-.72-7.04-2.45-9.94-2.31-3.86-5.65-6-8.46-6.77,2.85-.71,6.28-2.92,8.31-6.33,1.62-2.71,2.61-6.16,2.61-9.96Z"/><path class="cls-1" d="m97.01,19.4h6.08v5.28c2.14-4.28,5.61-6.21,10.29-6.21,1.34,0,2.67.13,4.21.53l-.6,6.21c-1.27-.4-2.47-.6-3.74-.6-5.35,0-9.82,3.54-9.82,11.63v18.98h-6.41V19.4Z"/><path class="cls-1" d="m388.2,19.4h6.08v5.28c2.14-4.28,5.61-6.21,10.29-6.21,1.34,0,2.67.13,4.21.53l-.6,6.21c-1.27-.4-2.47-.6-3.74-.6-5.35,0-9.82,3.54-9.82,11.63v18.98h-6.42V19.4Z"/><path class="cls-1" d="m138.44,50.14c-7.95,0-11.63-4.74-12.56-10.22h9.06v-5.55h-9.06c.92-5.08,4.29-8.95,9.06-9.92v-5.77c-9.5,1.08-15.74,8.67-15.74,18.49s5.55,18.84,19.11,18.84c6.35,0,12.16-2.47,15.37-5.01l-2.74-4.88c-3.27,2.41-8.22,4.01-12.5,4.01Z"/><path class="cls-1" d="m138.94,18.6v5.73c4.95.66,8.7,4.31,9.06,10.04h-9.06v5.55h15.47c.07-.87.2-1.8.2-3.27,0-10.73-6.56-17.34-15.67-18.04Z"/><path class="cls-1" d="m207.1,50.02c-5.94-1.02-10.33-6.4-10.33-12.78s4.39-11.62,10.33-12.64v-6.04c-9.99.97-16.81,9.03-16.81,18.68s6.81,17.79,16.81,18.75v-5.97Z"/><path class="cls-1" d="m211.1,18.56v6.03c5.97.99,10.39,6.38,10.39,12.65s-4.42,11.8-10.39,12.79v5.96c9.97-.93,16.81-8.89,16.81-18.75s-6.84-17.74-16.81-18.68Z"/><path class="cls-1" d="m291.02,50c-6.13-1.08-9.86-6.42-9.86-12.69s3.74-11.61,9.86-12.69v-6.02c-9.49.75-16.34,8.29-16.34,18.43s6.86,18.17,16.34,18.96v-6.01Z"/><path class="cls-1" d="m305.21,19.4v5.21c-2.63-3.2-6.08-5.29-10.19-5.89v5.8c6.5.82,10.6,6.31,10.6,12.71s-4.09,12.02-10.6,12.85v5.81c4.13-.57,7.61-2.57,10.19-5.76v5.08h6.15V19.4h-6.15Z"/><path class="cls-1" d="m175.02,24.01c1.85.55,3.65,1.71,5.05,3.75l4.08-3.88c-2.05-3.21-5.52-4.98-9.12-5.5v5.63Z"/><path class="cls-1" d="m166.57,36.91c1.13.6,2.79,1.3,4.45,2v-6.39c-.27-.12-.53-.24-.77-.35-2.27-1.07-3.01-2.74-3.01-4.21,0-1.94,1.28-3.73,3.78-4.21v-5.45c-6.17.65-9.93,4.72-9.93,9.92,0,3.27,1.67,6.62,5.48,8.69Z"/><path class="cls-1" d="m171.02,50.29c-2.73-.43-5.64-2.13-7.52-5.56l-4.61,3.54c2.71,5,7.48,7.37,12.13,7.7v-5.68Z"/><path class="cls-1" d="m179,36.11c-1.24-.65-2.62-1.27-3.98-1.86v6.45c.15.07.31.15.44.22,1.87,1,3.27,2.41,3.27,4.54,0,1.96-1.36,3.77-3.71,4.54v5.78c6.1-1.04,10.06-5.41,10.06-10.65,0-4.28-2.34-7.08-6.08-9.02Z"/><path class="cls-1" d="m359.71,50.02c-5.94-1.02-10.33-6.4-10.33-12.78s4.39-11.62,10.33-12.64v-6.04c-9.99.97-16.81,9.03-16.81,18.68s6.82,17.79,16.81,18.75v-5.97Z"/><path class="cls-1" d="m363.71,18.56v6.03c5.97.99,10.39,6.38,10.39,12.65s-4.42,11.8-10.39,12.79v5.96c9.97-.93,16.81-8.89,16.81-18.75s-6.84-17.74-16.81-18.68Z"/><path class="cls-1" d="m253.23,18.47c-2.76,0-5.22.67-7.26,1.87v6.04c1.61-1.25,3.63-1.97,5.92-1.97,5.21,0,9.15,3.67,9.15,10.89v19.91h6.35v-21.72c0-10.22-6.75-15.03-14.17-15.03Z"/><polygon class="cls-1" points="241.97 19.4 235.59 19.4 235.59 55.22 242 55.22 242 41.89 241.97 41.89 241.97 19.4"/><path class="cls-1" d="m338.09,48.13c-1.94,1.2-4.14,2.07-6.42,2.07-4.28,0-5.81-2.74-5.81-7.08l-.02-36.42h-6.26l-.07,35.95c0,8.35,3.68,13.43,11.43,13.43,3.41,0,6.95-1,9.55-3.01l-2.41-4.94Z"/><rect class="cls-1" x="329.85" y="19.4" width="8.71" height="5.48"/></g></svg>