<svg width="680" height="218" viewBox="0 0 680 218" fill="none" xmlns="http://www.w3.org/2000/svg">
<g clip-path="url(#clip0)">
<path d="M109.248 0C48.9141 0 0 48.803 0 109C0 169.197 48.9141 218 109.248 218C169.582 218 218.496 169.197 218.496 109C218.496 48.803 169.586 0 109.248 0ZM143.055 122.51C128.119 152.945 96.6631 174.63 60.2272 180.727C57.8843 181.119 57.018 177.768 59.2542 176.963C73.1662 171.947 100.077 158.229 113.801 136.582C124.846 120.432 131.678 88.4688 63.8119 95.6134C61.6013 95.8476 60.6411 92.369 62.681 91.5046C84.3812 82.3248 100.922 80.4769 117.527 80.2768C137.285 80.4727 159.677 89.9463 143.055 122.51ZM144.668 72.3573C135.954 72.3573 128.878 64.574 128.878 54.9726C128.878 45.3713 135.941 37.5837 144.668 37.5837C153.395 37.5837 160.458 45.367 160.458 54.9726C160.458 64.5782 153.361 72.3573 144.668 72.3573Z" fill="#003357"/>
<path d="M275.425 157.326C274.398 156.469 273.672 155.309 273.351 154.013C273.066 152.799 273.535 151.364 274.759 149.709L277.584 145.732C279.575 143.194 282.065 142.864 285.052 144.74C286.045 145.509 287.374 146.419 289.038 147.469C290.876 148.617 292.79 149.641 294.765 150.535C297.095 151.589 299.51 152.444 301.985 153.089C304.803 153.829 307.706 154.191 310.619 154.167C316.926 154.167 321.933 152.648 325.64 149.611C329.347 146.574 331.196 142.516 331.188 137.438C331.188 133.132 329.805 129.598 327.04 126.836C323.957 123.854 320.428 121.367 316.58 119.466C312.381 117.314 307.852 115.22 302.993 113.185C298.254 111.213 293.699 108.83 289.379 106.062C285.265 103.445 281.711 100.04 278.924 96.0433C276.153 92.0693 274.769 87.0451 274.772 80.9706C274.676 76.4637 275.613 71.9945 277.512 67.9041C279.412 63.8138 282.223 60.2106 285.731 57.3696C289.331 54.4624 293.438 52.2438 297.846 50.8253C302.667 49.2541 307.711 48.4719 312.782 48.5091C316.076 48.4934 319.363 48.7986 322.597 49.4202C325.469 49.9669 328.298 50.7139 331.064 51.6556C333.358 52.428 335.58 53.3982 337.704 54.5552C339.274 55.4003 340.774 56.3684 342.19 57.4505C344.844 59.3324 345.397 61.8176 343.85 64.9059L341.524 69.0445C340.529 70.8115 339.39 71.7227 338.11 71.778C336.659 71.7855 335.24 71.3518 334.043 70.5347C331.224 68.9062 328.313 67.4419 325.324 66.1492C321.728 64.5483 317.441 63.7478 312.462 63.7478C306.374 63.7478 301.338 65.2096 297.355 68.1333C293.372 71.057 291.381 75.0608 291.381 80.1446C291.381 84.34 292.765 87.7618 295.533 90.4102C298.627 93.2858 302.151 95.6619 305.98 97.4526C310.188 99.4964 314.725 101.483 319.593 103.414C324.358 105.293 328.92 107.651 333.206 110.452C337.327 113.133 340.881 116.595 343.666 120.641C346.423 124.674 347.801 129.836 347.801 136.126C347.837 140.58 346.992 144.998 345.313 149.125C343.679 153.13 341.185 156.728 338.007 159.668C334.602 162.77 330.629 165.187 326.306 166.787C321.711 168.552 316.482 169.437 310.619 169.439C306.627 169.457 302.646 169.036 298.746 168.183C295.311 167.44 291.95 166.386 288.705 165.037C285.977 163.902 283.335 162.57 280.802 161.052C278.922 159.94 277.125 158.695 275.425 157.326Z" fill="#003357"/>
<path d="M357.262 89.0863C357.262 85.4416 359.089 83.6207 362.742 83.6235H367.389C371.042 83.6235 372.868 85.4445 372.868 89.0863V96.5417C372.868 97.6542 372.756 98.7638 372.535 99.8543C372.419 100.342 372.363 100.843 372.369 101.345H372.702C373.806 98.7408 375.289 96.3134 377.102 94.1403C379.073 91.7345 381.371 89.6149 383.93 87.843C386.555 86.0083 389.399 84.5066 392.396 83.3723C395.445 82.2133 398.681 81.6244 401.943 81.6351C415.772 81.6351 424.182 87.9835 427.172 100.68H427.505C428.712 98.1001 430.276 95.7021 432.152 93.557C434.151 91.234 436.438 89.175 438.959 87.43C441.57 85.6347 444.42 84.2129 447.426 83.2063C450.582 82.1493 453.891 81.6185 457.22 81.6351C466.847 81.6351 473.876 84.3119 478.305 89.6654C482.735 95.0189 484.948 103.052 484.946 113.765V161.963C484.946 165.608 483.119 167.43 479.466 167.43H474.32C470.667 167.43 468.84 165.608 468.84 161.963V117.256C468.856 114.485 468.662 111.717 468.26 108.975C467.944 106.655 467.213 104.411 466.1 102.349C465.051 100.474 463.499 98.926 461.619 97.8787C459.668 96.7773 457.149 96.2267 454.062 96.2267C450.391 96.1729 446.775 97.1179 443.602 98.9602C440.482 100.794 437.792 103.272 435.712 106.228C433.499 109.376 431.842 112.878 430.812 116.583C429.712 120.407 429.153 124.365 429.152 128.343V161.98C429.152 165.625 427.381 167.447 423.839 167.447H418.522C414.974 167.447 413.203 165.625 413.209 161.98V117.273C413.215 114.615 413.049 111.96 412.71 109.324C412.44 106.99 411.765 104.721 410.717 102.618C409.729 100.668 408.202 99.0412 406.317 97.9298C404.38 96.7944 401.802 96.2267 398.584 96.2267C394.839 96.1702 391.149 97.1376 387.916 99.0241C384.768 100.894 382.052 103.405 379.944 106.394C377.736 109.543 376.08 113.043 375.049 116.745C373.955 120.515 373.396 124.419 373.389 128.343V161.98C373.389 165.625 371.562 167.447 367.909 167.447H362.737C359.084 167.447 357.258 165.625 357.258 161.98L357.262 89.0863Z" fill="#003357"/>
<path d="M491.727 144.574C491.727 140.265 492.557 136.538 494.219 133.393C495.822 130.312 498.09 127.625 500.859 125.524C503.726 123.373 506.888 121.643 510.248 120.389C513.77 119.055 517.41 118.057 521.121 117.409C524.772 116.759 528.456 116.317 532.157 116.085C535.753 115.863 538.991 115.752 541.87 115.752H546.184V113.598C546.184 110.192 545.715 107.294 544.776 104.904C543.959 102.712 542.62 100.751 540.875 99.1896C539.194 97.7435 537.207 96.6955 535.063 96.1239C532.735 95.5045 530.333 95.1995 527.924 95.217C524.111 95.151 520.317 95.7668 516.721 97.0351C514.055 97.9771 511.473 99.1407 509.001 100.514C505.789 102.064 503.299 101.401 501.529 98.5253L500.193 96.2261C498.424 92.9135 499.033 90.4284 502.02 88.7707C504.563 87.3514 508.132 85.8058 512.727 84.1339C517.322 82.462 522.828 81.6346 529.246 81.6516C539.756 81.6516 547.89 84.4391 553.648 90.014C559.406 95.5889 562.284 103.733 562.281 114.445V161.962C562.281 165.607 560.455 167.43 556.802 167.43H552.641C548.994 167.43 547.169 165.607 547.166 161.962V154.839C547.155 154.282 547.211 153.726 547.332 153.183C547.439 152.757 547.55 152.302 547.661 151.859H547.332C545.719 155.107 543.587 158.072 541.021 160.638C538.513 163.058 535.662 165.096 532.558 166.684C529.124 168.507 524.918 169.418 519.939 169.418C516.336 169.422 512.755 168.862 509.326 167.757C506.023 166.724 502.951 165.065 500.279 162.869C497.688 160.731 495.568 158.081 494.052 155.086C492.499 152.055 491.724 148.55 491.727 144.574ZM507.994 143.249C507.994 146.562 509.296 149.625 511.899 152.438C514.502 155.251 518.403 156.659 523.601 156.662C526.939 156.715 530.233 155.886 533.147 154.26C535.935 152.683 538.361 150.539 540.265 147.967C542.212 145.353 543.726 142.445 544.75 139.354C545.779 136.337 546.311 133.173 546.325 129.986V126.346H542.011C539.023 126.346 535.592 126.488 531.717 126.772C527.943 127.03 524.211 127.724 520.596 128.841C517.264 129.828 514.2 131.556 511.634 133.895C509.208 136.152 507.994 139.27 507.994 143.249Z" fill="#003357"/>
<path d="M576.39 89.0863C576.39 85.4417 578.216 83.6207 581.869 83.6236H586.516C590.169 83.6236 591.996 85.4445 591.996 89.0863V98.692C591.996 99.5776 591.967 100.406 591.911 101.179C591.867 101.846 591.784 102.51 591.663 103.167C591.557 103.769 591.502 104.378 591.497 104.989H591.829C592.751 102.147 594.004 99.4236 595.563 96.8739C597.13 94.2714 599.058 91.9032 601.29 89.84C603.482 87.8146 605.974 86.1386 608.678 84.8711C611.459 83.5868 614.493 82.9367 617.558 82.9679C621.1 82.9679 622.871 84.7902 622.871 88.4349V93.0717C622.871 96.7163 620.88 98.5373 616.897 98.5344C612.8 98.5344 609.231 99.5563 606.19 101.6C603.123 103.665 600.522 106.345 598.551 109.468C596.422 112.864 594.88 116.591 593.989 120.496C593.002 124.539 592.499 128.683 592.491 132.844V161.993C592.491 165.638 590.666 167.46 587.016 167.46H581.869C578.216 167.46 576.39 165.638 576.39 161.993V89.0863Z" fill="#003357"/>
<path d="M642.126 97.5337H636.318C632.773 97.5337 631.002 95.7113 631.005 92.0666V89.9377C631.005 86.2931 632.83 84.4707 636.48 84.4707H642.455V66.0642C642.455 62.4195 644.281 60.5972 647.934 60.5972H652.748C656.398 60.5972 658.223 62.4195 658.223 66.0642V84.4494H672.835C676.485 84.4494 678.31 86.2718 678.31 89.9165V92.0454C678.31 95.69 676.539 97.5124 672.997 97.5124H658.223V134.802C658.223 138.776 658.776 141.978 659.883 144.408C660.792 146.569 662.183 148.494 663.95 150.037C665.447 151.309 667.203 152.241 669.097 152.77C670.751 153.24 672.448 153.545 674.162 153.681C676.373 153.903 677.893 154.4 678.724 155.172C679.555 155.944 679.97 157.269 679.97 159.148V162.648C679.97 166.293 677.757 168.114 673.33 168.111C669.276 168.135 665.244 167.521 661.381 166.293C657.724 165.14 654.357 163.219 651.506 160.66C648.572 157.978 646.245 154.704 644.678 151.054C642.971 147.188 642.117 142.605 642.117 137.306L642.126 97.5337Z" fill="#003357"/>
</g>
<defs>
<clipPath id="clip0">
<rect width="679.974" height="218" fill="white"/>
</clipPath>
</defs>
</svg>
