<?xml version="1.0" encoding="UTF-8" standalone="no"?>
<!-- Created with Inkscape (http://www.inkscape.org/) -->

<svg
   xmlns:dc="http://purl.org/dc/elements/1.1/"
   xmlns:cc="http://creativecommons.org/ns#"
   xmlns:rdf="http://www.w3.org/1999/02/22-rdf-syntax-ns#"
   xmlns:svg="http://www.w3.org/2000/svg"
   xmlns="http://www.w3.org/2000/svg"
   xmlns:sodipodi="http://sodipodi.sourceforge.net/DTD/sodipodi-0.dtd"
   xmlns:inkscape="http://www.inkscape.org/namespaces/inkscape"
   id="svg2879"
   version="1.1"
   inkscape:version="0.47 r22583"
   width="151.17125"
   height="87.048126"
   xml:space="preserve"
   sodipodi:docname="SOBRE AMERICANO A%2FD. C.eps"><metadata
     id="metadata2885"><rdf:RDF><cc:Work
         rdf:about=""><dc:format>image/svg+xml</dc:format><dc:type
           rdf:resource="http://purl.org/dc/dcmitype/StillImage" /><dc:title></dc:title></cc:Work></rdf:RDF></metadata><defs
     id="defs2883"><inkscape:perspective
       sodipodi:type="inkscape:persp3d"
       inkscape:vp_x="0 : 0.5 : 1"
       inkscape:vp_y="0 : 1000 : 0"
       inkscape:vp_z="1 : 0.5 : 1"
       inkscape:persp3d-origin="0.5 : 0.33333333 : 1"
       id="perspective2887" /><clipPath
       clipPathUnits="userSpaceOnUse"
       id="clipPath2899"><path
         d="m 308.867,5.47656 5641.13,0 0,3118.11004 -5641.13,0 0,-3118.11004 z"
         id="path2901" /></clipPath><clipPath
       clipPathUnits="userSpaceOnUse"
       id="clipPath2957"><path
         d="m 3222.28,604.914 0,328.91 204.67,108.186 204.73,-108.186 0,-330.652 -204.92,-104.414 -204.48,106.156 z"
         id="path2959" /></clipPath><clipPath
       clipPathUnits="userSpaceOnUse"
       id="clipPath2971"><path
         d="m 3249.47,820.273 c 0,98.278 79.47,177.942 177.51,177.942 98.03,0 177.5,-79.664 177.5,-177.942 0,-98.277 -79.47,-177.941 -177.5,-177.941 -98.04,0 -177.51,79.664 -177.51,177.941 z"
         id="path2973" /></clipPath><clipPath
       clipPathUnits="userSpaceOnUse"
       id="clipPath3005"><path
         d="m 3284.71,778.941 c 0,78.813 63.69,142.704 142.27,142.704 78.57,0 142.26,-63.891 142.26,-142.704 0,-78.812 -63.69,-142.703 -142.26,-142.703 -78.58,0 -142.27,63.891 -142.27,142.703 z"
         id="path3007" /></clipPath><clipPath
       clipPathUnits="userSpaceOnUse"
       id="clipPath3039"><path
         d="m 3302.55,760.234 c 0,68.481 55.7,123.993 124.43,123.993 68.72,0 124.43,-55.512 124.43,-123.993 0,-68.48 -55.71,-123.996 -124.43,-123.996 -68.73,0 -124.43,55.516 -124.43,123.996 z"
         id="path3041" /></clipPath><clipPath
       clipPathUnits="userSpaceOnUse"
       id="clipPath3073"><path
         d="m 3333.44,730.648 c 0,53.586 41.88,97.02 93.54,97.02 51.66,0 93.54,-43.434 93.54,-97.02 0,-53.582 -41.88,-97.019 -93.54,-97.019 -51.66,0 -93.54,43.437 -93.54,97.019 z"
         id="path3075" /></clipPath><clipPath
       clipPathUnits="userSpaceOnUse"
       id="clipPath3183"><path
         d="m 3498.15,354.898 c 3.26,-0.839 6.71,-1.261 10.33,-1.261 3.74,0 7.03,0.488 9.88,1.461 2.88,0.968 5.32,2.336 7.34,4.105 2.05,1.766 4.03,4.367 5.92,7.813 1.9,3.445 3.36,7.836 4.37,13.183 1.03,5.383 1.55,10.946 1.55,16.688 0,8.211 -0.99,15.254 -2.98,21.125 -1.95,5.918 -4.92,10.445 -8.9,13.578 -3.98,3.137 -9.44,4.703 -16.38,4.703 -3.65,0 -7.36,-0.422 -11.13,-1.258 -0.09,-2.164 -0.17,-6.008 -0.22,-11.523 l -0.18,-9.602 0,-26.43 0.13,-20.531 c 0.03,-3.133 0.12,-7.148 0.27,-12.051 z"
         id="path3185" /></clipPath></defs><sodipodi:namedview
     pagecolor="#ffffff"
     bordercolor="#666666"
     borderopacity="1"
     objecttolerance="10"
     gridtolerance="10"
     guidetolerance="10"
     inkscape:pageopacity="0"
     inkscape:pageshadow="2"
     inkscape:window-width="1680"
     inkscape:window-height="975"
     id="namedview2881"
     showgrid="false"
     inkscape:zoom="2.5368505"
     inkscape:cx="23.289287"
     inkscape:cy="-6.9457228"
     inkscape:window-x="0"
     inkscape:window-y="24"
     inkscape:window-maximized="1"
     inkscape:current-layer="g2889" /><g
     id="g2889"
     inkscape:groupmode="layer"
     inkscape:label="ink_ext_XXXXXX"
     transform="matrix(-1.25,0,0,1.25,503.9575,-35.830625)"><g
       id="g2925"><text
         id="text2927"
         transform="matrix(0.850006,0,0,-1,10.5805,324.396)"><tspan
           id="tspan2929"
           sodipodi:role="line"
           y="0"
           x="0 3.892"
           style="font-size:7px;font-variant:normal;font-weight:300;writing-mode:lr-tb;fill:#a7a5a6;fill-opacity:1;fill-rule:nonzero;stroke:none;font-family:Univers;-inkscape-font-specification:Univers-Light">10</tspan></text>
</g><path
       id="path2931"
       style="fill:none;stroke:none"
       d="m 28.291,340.86 -27.811703,0" /><path
       id="path2933"
       style="fill:none;stroke:none"
       d="m 28.291,312.36 -27.811703,0" /><path
       id="path2935"
       style="fill:none;stroke:none"
       d="m 28.291,28.8543 -22.30428,0" /><path
       id="path2945"
       style="fill:none;stroke:none"
       d="M 28.291,104.303 6,104.303" /><path
       id="path2947"
       style="fill:none;stroke:none"
       d="m 27,48.7289 -21.01328,0" /><path
       id="path3145"
       style="fill:none;stroke:none"
       d="m 27.1488,14.6781 -21.16208,0" /><g
       id="g3147"><text
         id="text3149"
         transform="matrix(0.850006,0,0,-1,10.5805,71.5738)"><tspan
           id="tspan3151"
           sodipodi:role="line"
           y="0"
           x="0 3.892 7.7839999 9.7299995"
           style="font-size:7px;font-variant:normal;font-weight:300;writing-mode:lr-tb;fill:#a7a5a6;fill-opacity:1;fill-rule:nonzero;stroke:none;font-family:Univers;-inkscape-font-specification:Univers-Light">19.6</tspan><tspan
           id="tspan3153"
           y="35.755501"
           x="0"
           style="font-size:7px;font-variant:normal;font-weight:300;writing-mode:lr-tb;fill:#a7a5a6;fill-opacity:1;fill-rule:nonzero;stroke:none;font-family:Univers;-inkscape-font-specification:Univers-Light">7</tspan><tspan
           id="tspan3155"
           y="51.755501"
           x="0.29411599"
           style="font-size:7px;font-variant:normal;font-weight:300;writing-mode:lr-tb;fill:#a7a5a6;fill-opacity:1;fill-rule:nonzero;stroke:none;font-family:Univers;-inkscape-font-specification:Univers-Light">5</tspan></text>
</g><path
       id="path3157"
       style="fill:none;stroke:none"
       d="m 41.5,0.428125 -35.51328,0" /><g
       id="g3159"><text
         id="text3161"
         transform="matrix(0.850006,0,0,-1,10.8305,4.81836)"><tspan
           id="tspan3163"
           y="0"
           x="0"
           style="font-size:7px;font-variant:normal;font-weight:300;writing-mode:lr-tb;fill:#a7a5a6;fill-opacity:1;fill-rule:nonzero;stroke:none;font-family:Univers;-inkscape-font-specification:Univers-Light">5</tspan></text>
</g><g
       id="g4310"><path
         d="m 345.482,81.2932 c 0,-1.5379 -1.247,-2.7843 -2.785,-2.7843 -1.538,0 -2.784,1.2464 -2.784,2.7843 0,1.5375 1.246,2.7844 2.784,2.7844 1.538,0 2.785,-1.2469 2.785,-2.7844"
         style="fill:#231f50;fill-opacity:1;fill-rule:nonzero;stroke:none"
         id="path2949" /><path
         d="m 363.167,72.3741 0,-32.891 -20.467,-10.8186 -20.473,10.8186 0,33.0652 20.492,10.4414 20.448,-10.6156"
         style="fill:#231f50;fill-opacity:1;fill-rule:nonzero;stroke:none"
         id="path2951" /><g
         transform="matrix(-0.1,0,0,-0.1,685.395,132.8655)"
         id="g2953"><g
           id="g2955"
           clip-path="url(#clipPath2957)"><path
             d="m 3425.02,567.5 0,-49.598 -199.89,105.286 0.44,90.058 c 68.3,-32.633 108.32,-60.504 145.93,-77.441 57,-25.668 52.21,-47.422 53.52,-68.305"
             style="fill:#ffffff;fill-opacity:1;fill-rule:nonzero;stroke:none"
             id="path2961" /><path
             d="m 3428.9,567.5 0,-49.598 199.89,105.286 -0.44,90.058 c -68.31,-32.633 -108.33,-60.504 -145.94,-77.441 -57,-25.668 -52.21,-47.422 -53.51,-68.305"
             style="fill:#ffffff;fill-opacity:1;fill-rule:nonzero;stroke:none"
             id="path2963" /></g></g><path
         d="m 360.448,50.8382 c 0,-9.8278 -7.947,-17.7942 -17.751,-17.7942 -9.803,0 -17.75,7.9664 -17.75,17.7942 0,9.8277 7.947,17.7941 17.75,17.7941 9.804,0 17.751,-7.9664 17.751,-17.7941"
         style="fill:#ffffff;fill-opacity:1;fill-rule:nonzero;stroke:none"
         id="path2965" /><g
         transform="matrix(-0.1,0,0,-0.1,685.395,132.8655)"
         id="g2967"><g
           id="g2969"
           clip-path="url(#clipPath2971)"><path
             d="m 3283.4,709.332 19.15,0 12.61,-4.785 21.76,-5.223 14.79,-8.699 1.74,-14.359 -40.46,15.226 -16.1,6.965 -13.49,10.875"
             style="fill:#a80c30;fill-opacity:1;fill-rule:nonzero;stroke:none"
             id="path2975" /><path
             d="m 3258.17,752.402 30.45,-7.832 13.93,-5.218 28.27,-10.442 16.54,-9.137 -0.43,-13.488 -14.36,8.27 -26.54,9.133 -12.18,3.046 -24.37,2.176 -11.31,23.492"
             style="fill:#a80c30;fill-opacity:1;fill-rule:nonzero;stroke:none"
             id="path2977" /><path
             d="m 3247.29,817.227 36.11,-23.059 19.15,-10.875 31.76,-25.234 18.71,-13.051 -3.48,-11.746 -17.84,12.617 -31.76,15.226 -16.97,8.266 -33.5,13.922 -2.18,33.934"
             style="fill:#a80c30;fill-opacity:1;fill-rule:nonzero;stroke:none"
             id="path2979" /><path
             d="m 3262.52,897.281 37.42,-51.34 19.14,-20.882 27.41,-40.461 16.97,-20.883 -5.23,-8.266 -18.27,16.098 -31.32,33.066 -19.58,15.223 -39.15,40.461 12.61,36.984"
             style="fill:#a80c30;fill-opacity:1;fill-rule:nonzero;stroke:none"
             id="path2981" /><path
             d="m 3316.04,962.539 24.36,-69.609 14.36,-30.891 17.83,-52.644 13.05,-27.844 -10.44,-9.137 -16.97,25.672 -23.05,46.117 -17.84,26.539 -32.63,61.778 31.33,30.019"
             style="fill:#a80c30;fill-opacity:1;fill-rule:nonzero;stroke:none"
             id="path2983" /><path
             d="m 3401.31,999.086 3.91,-79.184 4.79,-36.543 2.61,-57.429 3.48,-33.5 -16.1,-3.914 -9.14,31.32 -10.44,55.691 -9.57,34.805 -15.66,77.008 46.12,11.746"
             style="fill:#a80c30;fill-opacity:1;fill-rule:nonzero;stroke:none"
             id="path2985" /><path
             d="m 3497.46,987.34 -17.41,-77.008 -10,-34.371 -10.44,-55.254 -9.57,-32.191 -14.8,2.609 3.48,33.934 2.61,57.863 4.35,36.98 4.79,80.055 46.99,-12.617"
             style="fill:#a80c30;fill-opacity:1;fill-rule:nonzero;stroke:none"
             id="path2987" /><path
             d="m 3567.5,934.262 -34.8,-62.215 -17.84,-26.539 -21.32,-47.86 -16.53,-23.058 -11.75,7.398 13.05,27.407 16.97,52.644 13.49,32.633 26.11,67.433 32.62,-27.843"
             style="fill:#a80c30;fill-opacity:1;fill-rule:nonzero;stroke:none"
             id="path2989" /><path
             d="m 3601.88,860.297 -40.47,-40.024 -20.45,-13.921 -29.58,-34.805 -20.01,-17.402 -6.53,7.828 19.58,22.191 26.54,42.637 19.58,19.574 37.84,50.035 13.5,-36.113"
             style="fill:#a80c30;fill-opacity:1;fill-rule:nonzero;stroke:none"
             id="path2991" /><path
             d="m 3601.88,782.855 -34.81,-12.617 -17.41,-10.004 -30.01,-16.097 -20.02,-9.137 -2.61,11.312 19.14,11.747 31.77,25.668 19.57,12.617 37.42,20.883 -3.04,-34.372"
             style="fill:#a80c30;fill-opacity:1;fill-rule:nonzero;stroke:none"
             id="path2993" /><path
             d="m 3593.61,752.836 -30.02,-6.524 -14.8,-5.222 -28.71,-12.18 -15.22,-7.832 0,-11.746 14.35,6.523 26.1,6.528 13.05,4.785 24.37,2.613 10.88,23.055"
             style="fill:#a80c30;fill-opacity:1;fill-rule:nonzero;stroke:none"
             id="path2995" /><path
             d="m 3570.55,712.375 -18.28,-0.434 -12.61,-4.785 -25.23,-6.961 -11.75,-3.48 -6.97,-17.403 11.75,0.434 28.28,12.617 9.14,3.481 19.14,7.398 6.53,9.133"
             style="fill:#a80c30;fill-opacity:1;fill-rule:nonzero;stroke:none"
             id="path2997" /></g></g><path
         d="m 356.924,54.9714 c 0,-7.8813 -6.369,-14.2704 -14.227,-14.2704 -7.857,0 -14.226,6.3891 -14.226,14.2704 0,7.8812 6.369,14.2703 14.226,14.2703 7.858,0 14.227,-6.3891 14.227,-14.2703"
         style="fill:#edad09;fill-opacity:1;fill-rule:nonzero;stroke:none"
         id="path2999" /><g
         transform="matrix(-0.1,0,0,-0.1,685.395,132.8655)"
         id="g3001"><g
           id="g3003"
           clip-path="url(#clipPath3005)"><path
             d="m 3283.4,709.332 19.15,0 12.61,-4.785 21.76,-5.223 14.79,-8.699 1.74,-14.359 -40.46,15.226 -16.1,6.965 -13.49,10.875"
             style="fill:#bc384b;fill-opacity:1;fill-rule:nonzero;stroke:none"
             id="path3009" /><path
             d="m 3258.17,752.402 30.45,-7.832 13.93,-5.218 28.27,-10.442 16.54,-9.137 -0.43,-13.488 -14.36,8.27 -26.54,9.133 -12.18,3.046 -24.37,2.176 -11.31,23.492"
             style="fill:#bc384b;fill-opacity:1;fill-rule:nonzero;stroke:none"
             id="path3011" /><path
             d="m 3247.29,817.227 36.11,-23.059 19.15,-10.875 31.76,-25.234 18.71,-13.051 -3.48,-11.746 -17.84,12.617 -31.76,15.226 -16.97,8.266 -33.5,13.922 -2.18,33.934"
             style="fill:#bc384b;fill-opacity:1;fill-rule:nonzero;stroke:none"
             id="path3013" /><path
             d="m 3262.52,897.281 37.42,-51.34 19.14,-20.882 27.41,-40.461 16.97,-20.883 -5.23,-8.266 -18.27,16.098 -31.32,33.066 -19.58,15.223 -39.15,40.461 12.61,36.984"
             style="fill:#bc384b;fill-opacity:1;fill-rule:nonzero;stroke:none"
             id="path3015" /><path
             d="m 3316.04,962.539 24.36,-69.609 14.36,-30.891 17.83,-52.644 13.05,-27.844 -10.44,-9.137 -16.97,25.672 -23.05,46.117 -17.84,26.539 -32.63,61.778 31.33,30.019"
             style="fill:#bc384b;fill-opacity:1;fill-rule:nonzero;stroke:none"
             id="path3017" /><path
             d="m 3401.31,999.086 3.91,-79.184 4.79,-36.543 2.61,-57.429 3.48,-33.5 -16.1,-3.914 -9.14,31.32 -10.44,55.691 -9.57,34.805 -15.66,77.008 46.12,11.746"
             style="fill:#bc384b;fill-opacity:1;fill-rule:nonzero;stroke:none"
             id="path3019" /><path
             d="m 3497.46,987.34 -17.41,-77.008 -10,-34.371 -10.44,-55.254 -9.57,-32.191 -14.8,2.609 3.48,33.934 2.61,57.863 4.35,36.98 4.79,80.055 46.99,-12.617"
             style="fill:#bc384b;fill-opacity:1;fill-rule:nonzero;stroke:none"
             id="path3021" /><path
             d="m 3567.5,934.262 -34.8,-62.215 -17.84,-26.539 -21.32,-47.86 -16.53,-23.058 -11.75,7.398 13.05,27.407 16.97,52.644 13.49,32.633 26.11,67.433 32.62,-27.843"
             style="fill:#bc384b;fill-opacity:1;fill-rule:nonzero;stroke:none"
             id="path3023" /><path
             d="m 3601.88,860.297 -40.47,-40.024 -20.45,-13.921 -29.58,-34.805 -20.01,-17.402 -6.53,7.828 19.58,22.191 26.54,42.637 19.58,19.574 37.84,50.035 13.5,-36.113"
             style="fill:#bc384b;fill-opacity:1;fill-rule:nonzero;stroke:none"
             id="path3025" /><path
             d="m 3601.88,782.855 -34.81,-12.617 -17.41,-10.004 -30.01,-16.097 -20.02,-9.137 -2.61,11.312 19.14,11.747 31.77,25.668 19.57,12.617 37.42,20.883 -3.04,-34.372"
             style="fill:#bc384b;fill-opacity:1;fill-rule:nonzero;stroke:none"
             id="path3027" /><path
             d="m 3593.61,752.836 -30.02,-6.524 -14.8,-5.222 -28.71,-12.18 -15.22,-7.832 0,-11.746 14.35,6.523 26.1,6.528 13.06,4.785 24.36,2.613 10.88,23.055"
             style="fill:#bc384b;fill-opacity:1;fill-rule:nonzero;stroke:none"
             id="path3029" /><path
             d="m 3570.55,712.375 -18.27,-0.434 -12.62,-4.785 -25.23,-6.961 -11.75,-3.48 -6.97,-17.403 11.75,0.434 28.28,12.617 9.14,3.481 19.14,7.398 6.53,9.133"
             style="fill:#bc384b;fill-opacity:1;fill-rule:nonzero;stroke:none"
             id="path3031" /></g></g><path
         d="m 355.14,56.8421 c 0,-6.8481 -5.57,-12.3993 -12.443,-12.3993 -6.872,0 -12.443,5.5512 -12.443,12.3993 0,6.848 5.571,12.3996 12.443,12.3996 6.873,0 12.443,-5.5516 12.443,-12.3996"
         style="fill:#ffffff;fill-opacity:1;fill-rule:nonzero;stroke:none"
         id="path3033" /><g
         transform="matrix(-0.1,0,0,-0.1,685.395,132.8655)"
         id="g3035"><g
           id="g3037"
           clip-path="url(#clipPath3039)"><path
             d="m 3283.4,709.332 19.15,0 12.61,-4.785 21.76,-5.223 14.79,-8.699 1.74,-14.359 -40.46,15.226 -16.1,6.965 -13.49,10.875"
             style="fill:#a80c30;fill-opacity:1;fill-rule:nonzero;stroke:none"
             id="path3043" /><path
             d="m 3258.17,752.402 30.45,-7.832 13.93,-5.218 28.27,-10.442 16.54,-9.137 -0.43,-13.488 -14.36,8.27 -26.54,9.133 -12.18,3.046 -24.37,2.176 -11.31,23.492"
             style="fill:#a80c30;fill-opacity:1;fill-rule:nonzero;stroke:none"
             id="path3045" /><path
             d="m 3247.29,817.227 36.11,-23.059 19.15,-10.875 31.76,-25.234 18.71,-13.051 -3.48,-11.746 -17.84,12.617 -31.76,15.226 -16.97,8.266 -33.5,13.922 -2.18,33.934"
             style="fill:#a80c30;fill-opacity:1;fill-rule:nonzero;stroke:none"
             id="path3047" /><path
             d="m 3262.52,897.281 37.42,-51.34 19.14,-20.882 27.41,-40.461 16.97,-20.883 -5.23,-8.266 -18.27,16.098 -31.32,33.066 -19.58,15.223 -39.15,40.461 12.61,36.984"
             style="fill:#a80c30;fill-opacity:1;fill-rule:nonzero;stroke:none"
             id="path3049" /><path
             d="m 3316.04,962.539 24.36,-69.609 14.36,-30.891 17.83,-52.644 13.05,-27.844 -10.44,-9.137 -16.97,25.672 -23.05,46.117 -17.84,26.539 -32.63,61.778 31.33,30.019"
             style="fill:#a80c30;fill-opacity:1;fill-rule:nonzero;stroke:none"
             id="path3051" /><path
             d="m 3401.31,999.086 3.91,-79.184 4.79,-36.543 2.61,-57.429 3.48,-33.5 -16.1,-3.914 -9.14,31.32 -10.44,55.691 -9.57,34.805 -15.66,77.008 46.12,11.746"
             style="fill:#a80c30;fill-opacity:1;fill-rule:nonzero;stroke:none"
             id="path3053" /><path
             d="m 3497.46,987.34 -17.41,-77.008 -10,-34.371 -10.44,-55.254 -9.57,-32.191 -14.8,2.609 3.48,33.934 2.61,57.863 4.35,36.98 4.79,80.055 46.99,-12.617"
             style="fill:#a80c30;fill-opacity:1;fill-rule:nonzero;stroke:none"
             id="path3055" /><path
             d="m 3567.5,934.262 -34.8,-62.215 -17.84,-26.539 -21.32,-47.86 -16.53,-23.058 -11.75,7.398 13.05,27.407 16.97,52.644 13.49,32.633 26.11,67.433 32.62,-27.843"
             style="fill:#a80c30;fill-opacity:1;fill-rule:nonzero;stroke:none"
             id="path3057" /><path
             d="m 3601.88,860.297 -40.47,-40.024 -20.45,-13.921 -29.58,-34.805 -20.01,-17.402 -6.53,7.828 19.58,22.191 26.54,42.637 19.58,19.574 37.84,50.035 13.5,-36.113"
             style="fill:#a80c30;fill-opacity:1;fill-rule:nonzero;stroke:none"
             id="path3059" /><path
             d="m 3601.88,782.855 -34.81,-12.617 -17.41,-10.004 -30.01,-16.097 -20.02,-9.137 -2.61,11.312 19.14,11.747 31.77,25.668 19.57,12.617 37.42,20.883 -3.04,-34.372"
             style="fill:#a80c30;fill-opacity:1;fill-rule:nonzero;stroke:none"
             id="path3061" /><path
             d="m 3593.61,752.836 -30.02,-6.524 -14.8,-5.222 -28.71,-12.18 -15.22,-7.832 0,-11.746 14.35,6.523 26.1,6.528 13.05,4.785 24.37,2.613 10.88,23.055"
             style="fill:#a80c30;fill-opacity:1;fill-rule:nonzero;stroke:none"
             id="path3063" /><path
             d="m 3570.55,712.375 -18.28,-0.434 -12.61,-4.785 -25.23,-6.961 -11.75,-3.48 -6.97,-17.403 11.75,0.434 28.28,12.617 9.14,3.481 19.14,7.398 6.53,9.133"
             style="fill:#a80c30;fill-opacity:1;fill-rule:nonzero;stroke:none"
             id="path3065" /></g></g><path
         d="m 352.051,59.8007 c 0,-5.3586 -4.188,-9.702 -9.354,-9.702 -5.166,0 -9.354,4.3434 -9.354,9.702 0,5.3582 4.188,9.7019 9.354,9.7019 5.166,0 9.354,-4.3437 9.354,-9.7019"
         style="fill:#edad09;fill-opacity:1;fill-rule:nonzero;stroke:none"
         id="path3067" /><g
         transform="matrix(-0.1,0,0,-0.1,685.395,132.8655)"
         id="g3069"><g
           id="g3071"
           clip-path="url(#clipPath3073)"><path
             d="m 3283.4,709.332 19.15,0 12.61,-4.785 21.76,-5.223 14.79,-8.699 1.74,-14.359 -40.46,15.226 -16.1,6.965 -13.49,10.875"
             style="fill:#bc384b;fill-opacity:1;fill-rule:nonzero;stroke:none"
             id="path3077" /><path
             d="m 3258.17,752.402 30.45,-7.832 13.93,-5.218 28.27,-10.442 16.54,-9.137 -0.43,-13.488 -14.36,8.27 -26.54,9.133 -12.18,3.046 -24.37,2.176 -11.31,23.492"
             style="fill:#bc384b;fill-opacity:1;fill-rule:nonzero;stroke:none"
             id="path3079" /><path
             d="m 3247.29,817.227 36.11,-23.059 19.15,-10.875 31.76,-25.234 18.71,-13.051 -3.48,-11.746 -17.84,12.617 -31.76,15.226 -16.97,8.266 -33.5,13.922 -2.18,33.934"
             style="fill:#bc384b;fill-opacity:1;fill-rule:nonzero;stroke:none"
             id="path3081" /><path
             d="m 3262.52,897.281 37.42,-51.34 19.14,-20.882 27.41,-40.461 16.97,-20.883 -5.23,-8.266 -18.27,16.098 -31.32,33.066 -19.58,15.223 -39.15,40.461 12.61,36.984"
             style="fill:#bc384b;fill-opacity:1;fill-rule:nonzero;stroke:none"
             id="path3083" /><path
             d="m 3316.04,962.539 24.36,-69.609 14.36,-30.891 17.83,-52.644 13.05,-27.844 -10.44,-9.137 -16.97,25.672 -23.05,46.117 -17.84,26.539 -32.63,61.778 31.33,30.019"
             style="fill:#bc384b;fill-opacity:1;fill-rule:nonzero;stroke:none"
             id="path3085" /><path
             d="m 3401.31,999.086 3.91,-79.184 4.79,-36.543 2.61,-57.429 3.48,-33.5 -16.1,-3.914 -9.14,31.32 -10.44,55.691 -9.57,34.805 -15.66,77.008 46.12,11.746"
             style="fill:#bc384b;fill-opacity:1;fill-rule:nonzero;stroke:none"
             id="path3087" /><path
             d="m 3497.46,987.34 -17.41,-77.008 -10,-34.371 -10.44,-55.254 -9.57,-32.191 -14.8,2.609 3.48,33.934 2.61,57.863 4.35,36.98 4.79,80.055 46.99,-12.617"
             style="fill:#bc384b;fill-opacity:1;fill-rule:nonzero;stroke:none"
             id="path3089" /><path
             d="m 3567.5,934.262 -34.8,-62.215 -17.84,-26.539 -21.32,-47.86 -16.53,-23.058 -11.75,7.398 13.05,27.407 16.97,52.644 13.49,32.633 26.11,67.433 32.62,-27.843"
             style="fill:#bc384b;fill-opacity:1;fill-rule:nonzero;stroke:none"
             id="path3091" /><path
             d="m 3601.88,860.297 -40.47,-40.024 -20.45,-13.921 -29.58,-34.805 -20.01,-17.402 -6.53,7.828 19.58,22.191 26.54,42.637 19.58,19.574 37.84,50.035 13.5,-36.113"
             style="fill:#bc384b;fill-opacity:1;fill-rule:nonzero;stroke:none"
             id="path3093" /><path
             d="m 3601.88,782.855 -34.81,-12.617 -17.41,-10.004 -30.01,-16.097 -20.02,-9.137 -2.61,11.312 19.14,11.747 31.77,25.668 19.57,12.617 37.42,20.883 -3.04,-34.372"
             style="fill:#bc384b;fill-opacity:1;fill-rule:nonzero;stroke:none"
             id="path3095" /><path
             d="m 3593.61,752.836 -30.02,-6.524 -14.8,-5.222 -28.71,-12.18 -15.22,-7.832 0,-11.746 14.35,6.523 26.1,6.528 13.06,4.785 24.36,2.613 10.88,23.055"
             style="fill:#bc384b;fill-opacity:1;fill-rule:nonzero;stroke:none"
             id="path3097" /><path
             d="m 3570.55,712.375 -18.27,-0.434 -12.62,-4.785 -25.23,-6.961 -11.75,-3.48 -6.97,-17.403 11.75,0.434 28.28,12.617 9.14,3.481 19.14,7.398 6.53,9.133"
             style="fill:#bc384b;fill-opacity:1;fill-rule:nonzero;stroke:none"
             id="path3099" /></g></g><path
         d="m 350.833,61.3233 c 0,-4.4211 -3.642,-8.0051 -8.136,-8.0051 -4.493,0 -8.135,3.584 -8.135,8.0051 0,4.4211 3.642,8.0051 8.135,8.0051 4.494,0 8.136,-3.584 8.136,-8.0051"
         style="fill:#231f50;fill-opacity:1;fill-rule:nonzero;stroke:none"
         id="path3101" /><path
         d="m 328.297,61.844 14.705,6.091 14.096,-5.9168 0,1.3922 -5.656,3.2629 -2.906,1.977 -5.534,1.8515 -5.264,-2.0445 -5.005,-2.2902 -4.436,-3.1918 0,-1.1313"
         style="fill:#231f50;fill-opacity:1;fill-rule:nonzero;stroke:none"
         id="path3103" /><path
         d="m 348.172,98.2803 -0.02,-0.5269 c -0.172,-0.1461 -0.316,-0.2785 -0.432,-0.3977 -0.018,-0.3 -0.032,-0.7172 -0.045,-1.2515 -0.02,-0.9094 -0.03,-1.541 -0.03,-1.8942 l 0,-2.7023 c 0,-0.4324 0.008,-0.9402 0.026,-1.5231 0.012,-0.3664 0.033,-0.5937 0.062,-0.682 0.021,-0.0574 0.052,-0.0992 0.094,-0.1262 0.098,-0.0613 0.301,-0.0945 0.61,-0.0992 l 0,-0.4172 c -0.433,0.0266 -0.816,0.0399 -1.149,0.0399 -0.255,0 -0.602,-0.0086 -1.041,-0.0266 -0.443,-0.0176 -0.786,-0.0262 -1.029,-0.0266 -0.727,0 -1.311,0.1391 -1.754,0.4172 -0.442,0.2739 -0.817,0.7352 -1.126,1.3844 -0.309,0.6488 -0.463,1.4418 -0.463,2.3777 0,0.6711 0.073,1.3 0.218,1.8872 0.146,0.5875 0.363,1.3113 0.612,1.7527 0.249,0.4367 0.517,0.7836 0.801,1.0398 0.285,0.2559 0.585,0.45 0.9,0.5825 0.311,0.1285 0.74,0.1921 1.286,0.1921 0.182,0 0.426,-0.0086 0.735,-0.0265 0.404,-0.0176 0.668,-0.0262 0.792,-0.0262 0.181,0 0.499,0.0176 0.953,0.0527"
         style="fill:#231f50;fill-opacity:1;fill-rule:nonzero;stroke:none"
         id="path3105" /><path
         d="m 355.429,98.2909 0.009,-0.6699 c -0.234,-0.0047 -0.379,-0.0176 -0.436,-0.0399 -0.059,-0.0265 -0.113,-0.073 -0.16,-0.139 -0.051,-0.0707 -0.122,-0.2496 -0.214,-0.5368 -0.053,-0.1632 -0.246,-0.7836 -0.579,-1.8609 l -1.113,-3.7351 c -0.121,-0.4106 -0.381,-1.3247 -0.779,-2.7418 l -0.289,0 -1.901,6.6425 c -0.308,1.0774 -0.513,1.7532 -0.614,2.0266 -0.056,0.1547 -0.117,0.2562 -0.183,0.3047 -0.068,0.0484 -0.219,0.075 -0.454,0.0797 l -0.009,0.6699 c 0.463,-0.0438 2.404,0 2.404,0 l 0.009,-0.6699 c -0.332,-0.009 -0.534,-0.0246 -0.605,-0.0465 -0.072,-0.0219 -0.119,-0.0528 -0.143,-0.093 -0.026,-0.0441 -0.04,-0.0969 -0.04,-0.159 0,-0.0968 0.021,-0.2226 0.063,-0.3773 l 0.547,-2.0266 2.578,0 0.485,1.702 c 0.086,0.3051 0.129,0.5277 0.129,0.6691 0,0.0617 -0.012,0.1125 -0.036,0.1524 -0.032,0.0574 -0.083,0.0972 -0.151,0.1191 -0.11,0.0352 -0.302,0.0551 -0.579,0.0598 l -0.009,0.6699 c 0.502,-0.0395 1.729,-0.0395 2.07,0"
         style="fill:#231f50;fill-opacity:1;fill-rule:nonzero;stroke:none"
         id="path3107" /><path
         d="m 360.783,98.2604 -0.038,-0.507 c -0.172,-0.1461 -0.316,-0.2785 -0.432,-0.3977 -0.018,-0.3 -0.032,-0.7172 -0.045,-1.2515 -0.02,-0.9094 -0.03,-1.541 -0.031,-1.8942 l 0,-2.7023 c 0,-0.4324 0.009,-0.9402 0.027,-1.5231 0.012,-0.3664 0.033,-0.5937 0.062,-0.682 0.021,-0.0574 0.052,-0.0992 0.094,-0.1262 0.098,-0.0613 0.301,-0.0945 0.61,-0.0992 l 0,-0.4172 c -0.433,0.0266 -0.816,0.0399 -1.149,0.0399 -0.255,0 -0.602,-0.0086 -1.041,-0.0266 -0.443,-0.0176 -0.785,-0.0262 -1.029,-0.0266 -0.727,0 -1.312,0.1391 -1.754,0.4172 -0.442,0.2739 -0.817,0.7352 -1.126,1.3844 -0.309,0.6488 -0.463,1.4418 -0.463,2.3777 0,0.6711 0.073,1.3 0.218,1.8872 0.146,0.5875 0.38,1.291 0.63,1.7324 0.249,0.4371 0.516,0.784 0.801,1.0398 0.285,0.2563 0.585,0.4504 0.899,0.5828 0.312,0.1282 0.741,0.1922 1.287,0.1922 0.181,0 0.426,-0.0086 0.734,-0.0265 0.404,-0.0176 0.668,-0.0262 0.793,-0.0266 0.181,0 0.498,0.018 0.953,0.0531"
         style="fill:#231f50;fill-opacity:1;fill-rule:nonzero;stroke:none"
         id="path3109" /><path
         d="m 361.414,97.6471 0,0.6438 c 0.632,-0.0352 2.622,0 2.622,0 l 0,-0.6438 c -0.35,-0.0086 -0.564,-0.0308 -0.641,-0.066 -0.077,-0.0398 -0.13,-0.0929 -0.161,-0.159 -0.035,-0.0882 -0.057,-0.3023 -0.066,-0.6425 -0.003,-0.0926 -0.009,-0.7196 -0.018,-1.8809 l 0,-3.0664 c 0,-0.6004 0.004,-1.1875 0.013,-1.7617 0.009,-0.4192 0.032,-0.6664 0.067,-0.7418 0.033,-0.0793 0.088,-0.1367 0.165,-0.1723 0.074,-0.0394 0.288,-0.0637 0.641,-0.0726 l 0,-0.4239 c -0.567,0.0313 -2.046,0.0313 -2.622,0 l 0,0.4239 c 0.353,0.0089 0.569,0.0332 0.645,0.0726 0.075,0.0356 0.127,0.0863 0.156,0.1528 0.036,0.0882 0.058,0.3023 0.067,0.6421 0.003,0.0887 0.009,0.7153 0.018,1.8809 l 0,3.0664 c 0,0.6008 -0.005,1.1856 -0.014,1.7551 -0.009,0.4195 -0.029,0.6687 -0.062,0.7484 -0.036,0.0793 -0.09,0.1391 -0.165,0.1789 -0.076,0.0352 -0.292,0.0574 -0.645,0.066"
         style="fill:#231f50;fill-opacity:1;fill-rule:nonzero;stroke:none"
         id="path3111" /><path
         d="m 368.234,97.7467 c -0.047,-0.4242 -0.075,-1.1105 -0.084,-2.0597 l -0.303,0 c -0.015,0.6445 -0.038,1.0265 -0.071,1.1457 -0.036,0.1148 -0.119,0.2383 -0.249,0.3707 -0.131,0.1324 -0.306,0.2519 -0.526,0.3578 -0.219,0.1016 -0.431,0.1523 -0.636,0.1523 -0.3,0 -0.576,-0.1015 -0.828,-0.3046 -0.253,-0.2075 -0.437,-0.4766 -0.553,-0.8082 -0.115,-0.3352 -0.173,-0.693 -0.173,-1.0727 0,-0.2914 0.03,-0.543 0.089,-0.7551 0.057,-0.2121 0.144,-0.3816 0.263,-0.5097 0.118,-0.1325 0.266,-0.2254 0.441,-0.2786 0.109,-0.0261 0.329,-0.0703 0.658,-0.132 0.33,-0.0617 0.61,-0.1305 0.842,-0.2055 0.308,-0.1414 0.536,-0.307 0.681,-0.4968 0.145,-0.1895 0.264,-0.4391 0.356,-0.7485 0.089,-0.309 0.133,-0.6422 0.133,-1 0,-0.5207 -0.09,-1.0109 -0.271,-1.4703 -0.184,-0.4637 -0.454,-0.8234 -0.81,-1.0793 -0.359,-0.2562 -0.748,-0.384 -1.167,-0.3844 -0.252,0 -0.526,0.0512 -0.823,0.1524 -0.3,0.0973 -0.579,0.241 -0.837,0.4305 0.041,0.2781 0.071,0.539 0.089,0.7816 0.018,0.2383 0.031,0.5918 0.04,1.0598 l 0.303,0 c 0.009,-0.6801 0.022,-1.0508 0.04,-1.1129 0.074,-0.159 0.175,-0.3024 0.303,-0.4305 0.305,-0.2559 0.624,-0.384 0.957,-0.384 0.43,0 0.774,0.1965 1.032,0.5895 0.256,0.3886 0.383,0.8941 0.383,1.5168 0,0.375 -0.046,0.6668 -0.138,0.8742 -0.092,0.2031 -0.257,0.3664 -0.494,0.4898 -0.163,0.084 -0.43,0.1637 -0.801,0.2387 -0.371,0.0703 -0.705,0.1477 -1.002,0.2316 -0.279,0.1239 -0.485,0.2715 -0.619,0.4438 -0.133,0.168 -0.243,0.3906 -0.329,0.6687 -0.086,0.2739 -0.129,0.5961 -0.129,0.9672 0,0.8785 0.245,1.6446 0.734,2.2981 0.49,0.6535 1.124,0.9801 1.901,0.9801 0.588,0 1.121,-0.1723 1.598,-0.5165"
         style="fill:#231f50;fill-opacity:1;fill-rule:nonzero;stroke:none"
         id="path3113" /><path
         d="m 374.342,89.0839 0,-0.4239 c -0.115,0.0043 -0.292,0.0114 -0.529,0.02 0,0 -2.375,-0.0333 -2.449,-0.0333 -0.567,0 -0.979,0.0754 -1.237,0.225 -0.262,0.1504 -0.463,0.3958 -0.606,0.7356 -0.142,0.3355 -0.214,0.702 -0.214,1.0992 0,0.3711 0.067,0.7395 0.201,1.1059 0.133,0.3668 0.328,0.6715 0.583,0.914 0.252,0.243 0.582,0.4305 0.988,0.5629 -0.074,0.1547 -0.249,0.4992 -0.525,1.0332 l -1.122,2.1989 c -0.32,0.6136 -0.507,0.9558 -0.561,1.0265 -0.026,0.0309 -0.053,0.0531 -0.08,0.066 -0.044,0.0223 -0.142,0.0332 -0.294,0.0332 l 0,0.6438 c 0.226,-0.0262 0.983,-0.0262 1.238,0 0.193,-0.3309 0.516,-1.1977 0.971,-2.1602 0.251,-0.5343 0.474,-0.98 0.667,-1.3379 0.312,-0.5914 0.609,-1.1281 0.89,-1.6093 l -0.044,-0.1989 c -0.154,0.0133 -0.272,0.02 -0.352,0.02 -0.54,0 -0.949,-0.1899 -1.228,-0.5696 -0.279,-0.3797 -0.419,-0.8804 -0.419,-1.5035 0,-0.543 0.12,-0.9734 0.361,-1.2914 0.24,-0.3223 0.604,-0.4832 1.091,-0.4836 0.305,0 0.605,0.0688 0.898,0.2055 0.013,0.2387 0.021,0.4617 0.027,0.6691 0.003,0.0617 0.014,0.7039 0.032,1.927 l 0,2.9406 c 0,0.6008 -0.006,1.1856 -0.018,1.7551 -0.006,0.4195 -0.025,0.6687 -0.058,0.7484 -0.036,0.0793 -0.092,0.1391 -0.169,0.1789 -0.077,0.0352 -0.291,0.0574 -0.641,0.066 l 0,0.6438 c 0.421,-0.0352 1.926,-0.0352 2.599,0 l 0,-0.6438 c -0.35,-0.0086 -0.563,-0.0308 -0.641,-0.066 -0.077,-0.0398 -0.13,-0.0929 -0.16,-0.159 -0.035,-0.0882 -0.058,-0.3023 -0.067,-0.6425 -0.002,-0.0926 -0.009,-0.7196 -0.017,-1.8809 l 0,-3.0664 c 0,-0.6004 0.004,-1.1875 0.013,-1.7617 0.009,-0.4192 0.031,-0.6664 0.067,-0.7418 0.032,-0.0793 0.087,-0.1367 0.164,-0.1723 0.074,-0.0394 0.288,-0.0637 0.641,-0.0726"
         style="fill:#231f50;fill-opacity:1;fill-rule:nonzero;stroke:none"
         id="path3115" /><path
         d="m 379.436,98.2967 0,-0.6429 c -0.312,-0.0043 -0.517,-0.0395 -0.615,-0.1059 -0.042,-0.0265 -0.071,-0.0683 -0.089,-0.1258 -0.03,-0.0882 -0.05,-0.3199 -0.062,-0.6953 -0.018,-0.5828 -0.027,-1.0863 -0.027,-1.5101 l 0,-3.3844 c 0,-0.6004 0.004,-1.1875 0.013,-1.7617 0.009,-0.4192 0.032,-0.6664 0.067,-0.7418 0.033,-0.0793 0.088,-0.1367 0.165,-0.1723 0.074,-0.0394 0.288,-0.0637 0.641,-0.0726 l 0,-0.4239 c 0,0 -4.587,0.0114 -4.848,0.0598 0.048,0.2516 0.08,0.4699 0.098,0.6555 0.006,0.0398 0.033,0.4992 0.08,1.3777 l 0.281,0 c -0.003,-0.4504 0.016,-0.8609 0.057,-1.232 0.164,-0.1012 0.343,-0.17 0.539,-0.2051 0.332,-0.0621 0.665,-0.0926 0.997,-0.093 0.071,0 0.23,0.009 0.476,0.0266 0.247,0.018 0.424,0.0332 0.53,0.0465 0.012,0.4898 0.021,0.9492 0.027,1.3773 l 0.018,2.2387 c -0.347,0.0265 -0.666,0.0394 -0.957,0.0394 -0.353,0 -0.655,-0.0238 -0.904,-0.0726 -0.095,-0.0176 -0.155,-0.0528 -0.183,-0.1059 -0.026,-0.0531 -0.05,-0.234 -0.071,-0.5433 l -0.026,-0.4633 -0.268,0 0,0.1258 0.023,1.3773 -0.023,1.5434 0.312,0 0.013,-0.4504 c 0.007,-0.3266 0.027,-0.5297 0.063,-0.6094 0.032,-0.0793 0.096,-0.1344 0.191,-0.1656 0.17,-0.0531 0.497,-0.0793 0.984,-0.0793 0.199,0 0.481,0.0109 0.846,0.0328 0.015,0.4418 0.022,1.0976 0.022,1.9672 0,0.8168 -0.007,1.4371 -0.022,1.8609 -0.428,0.0488 -0.907,0.0731 -1.438,0.0731 -0.377,0 -0.646,-0.0176 -0.806,-0.0532 -0.16,-0.0351 -0.308,-0.0945 -0.445,-0.1789 -0.036,-0.1367 -0.071,-0.3222 -0.107,-0.5562 -0.065,-0.3926 -0.108,-0.6887 -0.129,-0.8875 l -0.294,0 c 0.078,0.8922 0.116,1.8574 0.116,2.4445 0.255,0.0574 0.565,0.0859 0.93,0.0859 0,0 3.086,-0.0351 3.825,0"
         style="fill:#231f50;fill-opacity:1;fill-rule:nonzero;stroke:none"
         id="path3117" /><path
         d="m 383.113,98.2909 c 0.089,-0.384 0.275,-1.2793 0.556,-2.3789 l 1.514,-5.5699 c 0.16,-0.5914 0.26,-0.9336 0.298,-1.0262 0.027,-0.0574 0.064,-0.0992 0.111,-0.1262 0.066,-0.0441 0.229,-0.0793 0.49,-0.1058 l 0,-0.4239 c -0.537,0.0352 -1.837,0.0352 -2.413,0 l 0,0.4703 c 0.362,0.0086 0.573,0.02 0.632,0.0329 0.057,0.0132 0.097,0.0398 0.121,0.0796 0.021,0.0356 0.031,0.0774 0.031,0.1258 0,0.0489 -0.021,0.1637 -0.063,0.3446 -0.127,0.5875 -0.238,1.0597 -0.333,1.4171 l -1.394,5.2321 -1.162,-4.3379 c -0.169,-0.6227 -0.331,-1.3 -0.485,-2.0332 -0.065,-0.3137 -0.098,-0.5078 -0.098,-0.5828 0,-0.1059 0.039,-0.1766 0.116,-0.2121 0.059,-0.0309 0.288,-0.068 0.686,-0.1125 l 0,-0.4239 c -0.448,0.0266 -1.562,0.0266 -1.968,0 l 0,0.4239 c 0.225,0.0132 0.361,0.0351 0.405,0.0664 0.045,0.0308 0.086,0.0925 0.125,0.1851 0.026,0.0664 0.136,0.4242 0.329,1.0731 l 1.389,5.0863 0.343,1.3047 c 0.071,0.2605 0.129,0.4859 0.173,0.6754 0.045,0.1902 0.094,0.5644 0.147,0.816 l 0.45,0"
         style="fill:#231f50;fill-opacity:1;fill-rule:nonzero;stroke:none"
         id="path3119" /><path
         d="m 386.305,97.6471 0,0.6438 c 0.632,-0.0352 2.622,0 2.622,0 l 0,-0.6438 c -0.35,-0.0086 -0.564,-0.0308 -0.641,-0.066 -0.077,-0.0398 -0.13,-0.0929 -0.16,-0.159 -0.036,-0.0882 -0.058,-0.3023 -0.067,-0.6425 -0.003,-0.0926 -0.009,-0.7196 -0.018,-1.8809 l 0,-3.0664 c 0,-0.6004 0.005,-1.1875 0.013,-1.7617 0.009,-0.4192 0.032,-0.6664 0.067,-0.7418 0.033,-0.0793 0.088,-0.1367 0.165,-0.1723 0.074,-0.0394 0.288,-0.0637 0.641,-0.0726 l 0,-0.4239 c -0.567,0.0313 -2.046,0.0313 -2.622,0 l 0,0.4239 c 0.353,0.0089 0.569,0.0332 0.645,0.0726 0.075,0.0356 0.127,0.0863 0.156,0.1528 0.036,0.0882 0.058,0.3023 0.067,0.6421 0.003,0.0887 0.009,0.7153 0.018,1.8809 l 0,3.0664 c 0,0.6008 -0.005,1.1856 -0.014,1.7551 -0.009,0.4195 -0.029,0.6687 -0.062,0.7484 -0.035,0.0793 -0.09,0.1391 -0.165,0.1789 -0.076,0.0352 -0.292,0.0574 -0.645,0.066"
         style="fill:#231f50;fill-opacity:1;fill-rule:nonzero;stroke:none"
         id="path3121" /><path
         d="m 396.166,98.2909 0,-0.6371 c -0.312,-0.0043 -0.517,-0.0395 -0.615,-0.1059 -0.041,-0.0265 -0.07,-0.0683 -0.088,-0.1258 -0.03,-0.0882 -0.051,-0.3199 -0.063,-0.6953 -0.017,-0.5828 -0.027,-1.0863 -0.027,-1.5101 l 0,-5.3977 c 0,-0.1457 0.006,-0.2406 0.018,-0.2847 0.024,-0.0793 0.077,-0.1743 0.16,-0.2848 0.054,-0.0707 0.116,-0.1149 0.187,-0.1324 0.069,-0.0219 0.223,-0.0352 0.463,-0.0399 l 0,-0.4172 c -0.495,0.0176 -1.366,0.0176 -1.58,0 -0.252,0.4903 -0.438,0.8524 -0.556,1.0864 l -0.922,1.6886 -1.344,2.4106 c -0.431,0.7683 -0.776,1.3734 -1.038,1.8148 -0.166,0.2914 -0.305,0.5211 -0.418,0.6887 l 0,-4.8414 c 0,-0.4324 0.011,-0.9402 0.031,-1.5231 0.012,-0.3664 0.032,-0.5937 0.058,-0.682 0.021,-0.0574 0.052,-0.0992 0.093,-0.1262 0.099,-0.0613 0.302,-0.0945 0.61,-0.0992 l 0,-0.4172 c -0.35,0.0176 -1.709,0.0176 -1.985,0 l 0,0.4172 c 0.309,0.0047 0.512,0.0379 0.61,0.0992 0.041,0.0266 0.071,0.0711 0.089,0.1329 0.03,0.0835 0.05,0.3156 0.062,0.6953 0.018,0.5828 0.027,1.0839 0.027,1.5031 l 0,3.1855 c 0,0.645 -0.007,1.8481 -0.022,3.6098 l 0.458,-0.1988 0.107,-0.0332 c 0.018,-0.0086 0.034,-0.0219 0.049,-0.0395 0.021,-0.0219 0.077,-0.1105 0.169,-0.2648 0.246,-0.4153 0.428,-0.7285 0.543,-0.9407 l 0.574,-1.0796 3.157,-5.6094 0,5.0797 c 0,0.4328 -0.01,0.9426 -0.032,1.5297 -0.011,0.3668 -0.03,0.5918 -0.057,0.6757 -0.021,0.0618 -0.052,0.1059 -0.094,0.1325 -0.098,0.0617 -0.301,0.0949 -0.609,0.0992 l 0,0.6371 c 0.26,-0.0305 1.581,-0.0305 1.985,0"
         style="fill:#231f50;fill-opacity:1;fill-rule:nonzero;stroke:none"
         id="path3123" /><path
         d="m 403.166,89.0839 0,-0.4239 c -0.483,0.0352 -2.189,0.0352 -2.604,0 l 0,0.4239 c 0.35,0.0089 0.564,0.0332 0.641,0.0726 0.077,0.0356 0.129,0.0863 0.156,0.1528 0.039,0.0882 0.062,0.3023 0.071,0.6421 0.003,0.0887 0.009,0.7153 0.018,1.8809 l 0,2.4504 c 0,0.9496 -0.04,1.5766 -0.12,1.8812 -0.083,0.3 -0.214,0.5496 -0.392,0.7481 -0.136,0.1504 -0.32,0.2715 -0.552,0.3644 -0.232,0.0883 -0.489,0.1325 -0.775,0.1325 -0.332,0 -0.627,-0.0598 -0.885,-0.1789 -0.259,-0.1235 -0.451,-0.2711 -0.579,-0.4438 -0.131,-0.1766 -0.227,-0.373 -0.289,-0.5895 -0.066,-0.216 -0.112,-0.5117 -0.138,-0.8874 -0.03,-0.3793 -0.045,-0.8586 -0.045,-1.4372 l 0,-2.0398 c 0,-0.6004 0.006,-1.1875 0.018,-1.7617 0.006,-0.4192 0.027,-0.6664 0.062,-0.7418 0.033,-0.0793 0.088,-0.1367 0.165,-0.1723 0.077,-0.0394 0.291,-0.0637 0.641,-0.0726 l 0,-0.4239 c -0.49,0.0352 -1.647,0.0352 -2.182,0 l 0,0.4239 c 0.354,0.0089 0.569,0.0332 0.646,0.0726 0.074,0.0356 0.126,0.0863 0.156,0.1528 0.036,0.0882 0.058,0.3023 0.067,0.6421 0.003,0.0887 0.008,0.7153 0.017,1.8809 l 0,2.2187 c 0,1.0907 0.053,1.8524 0.156,2.2848 0.101,0.4328 0.288,0.8149 0.561,1.1457 0.205,0.2477 0.469,0.4395 0.792,0.5766 0.321,0.1367 0.677,0.2051 1.069,0.2051 0.457,0 0.853,-0.0793 1.188,-0.2383 0.336,-0.1637 0.591,-0.3754 0.766,-0.636 0.175,-0.2648 0.295,-0.5339 0.361,-0.8078 0.083,-0.3621 0.125,-0.9691 0.125,-1.8215 l 0,-2.9273 c 0,-0.6004 0.004,-1.1875 0.013,-1.7617 0.009,-0.4192 0.031,-0.6664 0.067,-0.7418 0.032,-0.0793 0.087,-0.1367 0.164,-0.1723 0.075,-0.0394 0.288,-0.0637 0.641,-0.0726"
         style="fill:#231f50;fill-opacity:1;fill-rule:nonzero;stroke:none"
         id="path3125" /><path
         d="m 319.896,96.9335 0.173,0.616 c 0.347,0.2605 0.687,0.448 1.02,0.5629 0.332,0.1191 0.694,0.1785 1.086,0.1785 0.46,0 0.888,-0.0859 1.282,-0.2582 0.395,-0.1719 0.74,-0.4172 1.037,-0.7352 0.294,-0.3222 0.535,-0.682 0.721,-1.0793 0.187,-0.3972 0.33,-0.8281 0.428,-1.2918 0.098,-0.4675 0.147,-0.9797 0.147,-1.5363 0,-1.4082 -0.33,-2.5738 -0.989,-3.4969 -0.661,-0.9269 -1.563,-1.3906 -2.706,-1.3906 -0.27,0 -0.52,0.0242 -0.748,0.0727 -0.232,0.0441 -0.512,0.1324 -0.841,0.2648 -0.333,0.1285 -0.536,0.2035 -0.61,0.2254 0.065,0.243 0.114,0.4812 0.147,0.7152 0.047,0.3754 0.08,0.8102 0.098,1.3047 l 0.28,0 0.004,-0.7816 c 0.03,-0.4324 0.192,-0.7547 0.486,-0.9668 0.291,-0.2121 0.718,-0.318 1.282,-0.318 0.421,0.009 0.779,0.0906 1.073,0.2449 0.293,0.1504 0.553,0.3911 0.779,0.7223 0.222,0.3266 0.405,0.7438 0.547,1.2516 0.142,0.5035 0.215,1.1371 0.218,1.9007 0,1.3379 -0.274,2.4153 -0.823,3.2321 -0.549,0.8125 -1.275,1.2183 -2.177,1.2183 -0.406,0 -0.783,-0.0836 -1.131,-0.2515 -0.237,-0.1149 -0.473,-0.2957 -0.708,-0.543 l -0.075,0.1391"
         style="fill:#231f50;fill-opacity:1;fill-rule:nonzero;stroke:none"
         id="path3127" /><path
         d="m 313.24,89.112 0,-0.4242 c -0.116,0.0047 -0.293,0.0113 -0.531,0.0199 0,0 -1.286,0.0246 -1.642,0.0066 -0.463,-0.0265 -0.732,-0.0394 -0.806,-0.0394 -0.566,0 -0.979,0.075 -1.237,0.225 -0.261,0.1504 -0.463,0.3953 -0.606,0.7351 -0.142,0.3356 -0.214,0.702 -0.214,1.0993 0,0.371 0.068,0.7398 0.201,1.1062 0.133,0.3664 0.328,0.6711 0.583,0.9137 0.252,0.2433 0.582,0.4308 0.988,0.5633 -0.074,0.1542 -0.249,0.4988 -0.525,1.0332 l -1.122,2.1988 c -0.32,0.6137 -0.507,0.9558 -0.561,1.0265 -0.027,0.0309 -0.053,0.0528 -0.08,0.0661 -0.044,0.0222 -0.142,0.0332 -0.293,0.0332 l 0.021,0.6156 c 0.226,-0.0262 0.983,-0.0262 1.238,0 0.193,-0.3309 0.495,-1.1699 0.948,-2.1324 0.253,-0.534 0.475,-0.9801 0.668,-1.3379 0.312,-0.5914 0.609,-1.1278 0.89,-1.6094 l -0.044,-0.1984 c -0.155,0.0132 -0.271,0.0199 -0.352,0.0199 -0.54,0 -0.949,-0.1899 -1.228,-0.5699 -0.279,-0.3793 -0.419,-0.8805 -0.419,-1.5032 0,-0.5429 0.12,-0.9734 0.361,-1.2914 0.24,-0.3222 0.604,-0.4832 1.09,-0.4836 0.306,0 0.606,0.0684 0.9,0.2055 0.012,0.2383 0.02,0.4613 0.026,0.6688 0.003,0.0617 0.014,0.7043 0.031,1.9273 l 0,2.9402 c 0,0.6008 -0.005,1.186 -0.017,1.7551 -0.006,0.4199 -0.025,0.6692 -0.058,0.7485 -0.036,0.0796 -0.092,0.1394 -0.169,0.1789 -0.077,0.0355 -0.291,0.0578 -0.641,0.0664 l 0.021,0.6156 c 0.422,-0.0352 1.927,-0.0352 2.6,0 l -0.021,-0.6156 c -0.351,-0.0086 -0.565,-0.0309 -0.642,-0.0664 -0.077,-0.0395 -0.13,-0.0926 -0.16,-0.159 -0.036,-0.0879 -0.058,-0.3024 -0.067,-0.6422 -0.003,-0.093 -0.008,-0.7199 -0.017,-1.8813 l 0,-3.0664 c 0,-0.6 0.004,-1.1875 0.013,-1.7613 0.008,-0.4195 0.031,-0.6668 0.067,-0.7418 0.032,-0.0797 0.087,-0.1367 0.164,-0.1723 0.074,-0.0398 0.288,-0.064 0.642,-0.0726"
         style="fill:#231f50;fill-opacity:1;fill-rule:nonzero;stroke:none"
         id="path3129" /><path
         d="m 307.011,98.2803 -0.034,-0.4992 c -0.172,-0.1457 -0.316,-0.2781 -0.432,-0.3972 -0.018,-0.3004 -0.033,-0.7176 -0.045,-1.252 -0.02,-0.9094 -0.031,-1.5406 -0.031,-1.8937 l 0,-2.7024 c 0,-0.4324 0.009,-0.9402 0.027,-1.5234 0.012,-0.3664 0.033,-0.5938 0.062,-0.6821 0.021,-0.0574 0.052,-0.0992 0.094,-0.1257 0.098,-0.0618 0.301,-0.095 0.61,-0.0993 l 0,-0.4175 c -0.434,0.0265 -0.817,0.0398 -1.149,0.0398 -0.255,0 -0.602,-0.0086 -1.041,-0.0266 -0.443,-0.0175 -0.786,-0.0261 -1.029,-0.0261 -0.727,0 -1.312,0.1386 -1.754,0.4168 -0.442,0.2738 -0.817,0.7355 -1.126,1.3843 -0.309,0.6489 -0.463,1.4418 -0.463,2.3778 0,0.6711 0.073,1.3004 0.218,1.8875 0.145,0.5875 0.377,1.2832 0.626,1.7246 0.249,0.4367 0.517,0.7836 0.802,1.0398 0.285,0.2559 0.584,0.45 0.899,0.5825 0.312,0.1285 0.74,0.1921 1.286,0.1921 0.182,0 0.426,-0.0086 0.735,-0.0265 0.404,-0.0176 0.668,-0.0262 0.792,-0.0262 0.182,0 0.499,0.0176 0.953,0.0527"
         style="fill:#231f50;fill-opacity:1;fill-rule:nonzero;stroke:none"
         id="path3131" /><path
         d="m 293.249,98.2714 -0.016,-0.4836 c -0.184,-0.1368 -0.286,-0.2207 -0.308,-0.2516 -0.02,-0.0352 -0.037,-0.0949 -0.048,-0.1789 -0.018,-0.1328 -0.033,-0.4125 -0.045,-0.841 -0.015,-0.4328 -0.022,-0.7617 -0.022,-0.9871 l 0,-3.9934 c 0,-0.4324 0.008,-0.9402 0.026,-1.5234 0.013,-0.3664 0.033,-0.5938 0.063,-0.6821 0.021,-0.0574 0.052,-0.0992 0.093,-0.1257 0.098,-0.0618 0.301,-0.095 0.61,-0.0993 l 0,-0.4175 c -0.098,0.0089 -0.221,0.0132 -0.369,0.0132 l -2.565,-0.0261 c -0.433,0 -0.766,0.066 -1.001,0.1984 -0.234,0.1324 -0.417,0.3492 -0.548,0.6492 -0.133,0.2957 -0.2,0.627 -0.2,0.9934 0,0.2914 0.04,0.5652 0.12,0.8211 0.077,0.2562 0.183,0.4793 0.317,0.6691 0.13,0.1852 0.277,0.3375 0.44,0.4567 0.16,0.1152 0.371,0.2211 0.632,0.3183 -0.347,0.0485 -0.628,0.1211 -0.841,0.2184 -0.214,0.0926 -0.392,0.234 -0.534,0.4238 -0.146,0.1856 -0.256,0.4129 -0.33,0.682 -0.074,0.2696 -0.111,0.5696 -0.111,0.9008 0,0.6535 0.15,1.402 0.417,1.9012 0.264,0.4945 0.606,0.8605 1.024,1.0992 0.312,0.1766 0.681,0.2649 1.108,0.2649 l 1.291,-0.0528 c 0.14,0 0.405,0.0176 0.797,0.0528"
         style="fill:#231f50;fill-opacity:1;fill-rule:nonzero;stroke:none"
         id="path3133" /><path
         d="m 288.986,98.2909 -0.036,-0.6422 c -0.234,-0.0043 -0.38,-0.0176 -0.436,-0.0398 -0.059,-0.0266 -0.112,-0.0727 -0.16,-0.1391 -0.051,-0.0707 -0.121,-0.2492 -0.214,-0.5363 -0.053,-0.1633 -0.246,-0.7836 -0.579,-1.861 l -1.112,-3.7355 c -0.122,-0.4106 -0.382,-1.3246 -0.779,-2.7418 l -0.29,0 -1.901,6.643 c -0.308,1.0773 -0.513,1.7527 -0.614,2.0261 -0.056,0.1547 -0.117,0.2567 -0.182,0.3051 -0.069,0.0484 -0.22,0.075 -0.454,0.0793 l 0.035,0.6422 c 0.463,-0.0438 2.404,0 2.404,0 l -0.036,-0.6422 c -0.332,-0.0086 -0.534,-0.0242 -0.605,-0.0465 -0.071,-0.0219 -0.119,-0.0527 -0.143,-0.0926 -0.026,-0.0441 -0.04,-0.0972 -0.04,-0.1589 0,-0.0973 0.021,-0.2231 0.063,-0.3778 l 0.547,-2.0265 2.578,0 0.485,1.7023 c 0.086,0.3043 0.129,0.5277 0.129,0.6688 0,0.0621 -0.012,0.1125 -0.035,0.1523 -0.033,0.0574 -0.084,0.0973 -0.152,0.1191 -0.11,0.0356 -0.302,0.0555 -0.579,0.0598 l 0.036,0.6422 c 0.502,-0.0395 1.729,-0.0395 2.07,0"
         style="fill:#231f50;fill-opacity:1;fill-rule:nonzero;stroke:none"
         id="path3135" /><path
         d="m 300.148,93.4565 c 0,-0.6976 -0.07,-1.3422 -0.209,-1.934 -0.143,-0.5914 -0.377,-1.1238 -0.704,-1.5961 -0.326,-0.4722 -0.696,-0.8277 -1.108,-1.0664 -0.413,-0.2425 -0.885,-0.364 -1.416,-0.364 -0.49,0 -0.935,0.1039 -1.336,0.3109 -0.4,0.2035 -0.728,0.475 -0.983,0.8148 -0.258,0.3356 -0.462,0.7043 -0.61,1.1059 -0.113,0.3004 -0.202,0.6539 -0.267,1.0598 -0.068,0.4062 -0.102,0.841 -0.102,1.3047 0,1.4882 0.336,2.7265 1.01,3.7156 0.671,0.989 1.518,1.4832 2.542,1.4832 0.466,0 0.901,-0.1125 1.304,-0.3375 0.404,-0.2254 0.745,-0.5586 1.024,-1.0004 0.279,-0.4457 0.491,-0.9844 0.637,-1.6156 0.145,-0.636 0.218,-1.2629 0.218,-1.8809"
         style="fill:#231f50;fill-opacity:1;fill-rule:nonzero;stroke:none"
         id="path3137" /><path
         d="m 319.817,93.4565 c 0,-0.6976 -0.07,-1.3422 -0.209,-1.934 -0.143,-0.5914 -0.377,-1.1238 -0.703,-1.5961 -0.327,-0.4722 -0.696,-0.8277 -1.109,-1.0664 -0.412,-0.2425 -0.884,-0.364 -1.415,-0.364 -0.49,0 -0.935,0.1039 -1.336,0.3109 -0.4,0.2035 -0.729,0.475 -0.984,0.8148 -0.258,0.3356 -0.461,0.7043 -0.61,1.1059 -0.112,0.3004 -0.201,0.6539 -0.267,1.0598 -0.068,0.4062 -0.102,0.841 -0.102,1.3047 0,1.4882 0.337,2.7265 1.01,3.7156 0.671,0.989 1.519,1.4832 2.542,1.4832 0.466,0 0.901,-0.1125 1.305,-0.3375 0.403,-0.2254 0.745,-0.5586 1.024,-1.0004 0.278,-0.4457 0.491,-0.9844 0.636,-1.6156 0.146,-0.636 0.218,-1.2629 0.218,-1.8809"
         style="fill:#231f50;fill-opacity:1;fill-rule:nonzero;stroke:none"
         id="path3139" /><path
         d="m 315.627,88.405 -0.871,-0.8114 -0.365,0.3922 0.87,0.8113 0.366,-0.3921"
         style="fill:#231f50;fill-opacity:1;fill-rule:nonzero;stroke:none"
         id="path3141" /><path
         d="m 337.007,98.2604 -0.047,-0.4808 c -0.172,-0.1457 -0.316,-0.2778 -0.432,-0.3973 -0.018,-0.3 -0.032,-0.7172 -0.044,-1.2516 -0.021,-0.9093 -0.031,-1.541 -0.032,-1.8945 l 0,-2.7019 c 0,-0.4325 0.009,-0.9403 0.027,-1.5231 0.012,-0.3664 0.033,-0.5937 0.062,-0.6824 0.022,-0.0571 0.053,-0.0988 0.094,-0.1258 0.098,-0.0617 0.301,-0.0949 0.61,-0.0992 l 0,-0.4172 c -0.433,0.0266 -0.816,0.0398 -1.148,0.0398 -0.256,0 -0.603,-0.0089 -1.042,-0.0265 -0.442,-0.0176 -0.785,-0.0262 -1.028,-0.0266 -0.728,0 -1.312,0.1391 -1.754,0.4172 -0.442,0.2738 -0.818,0.7352 -1.127,1.384 -0.308,0.6492 -0.462,1.4418 -0.463,2.3777 0,0.6711 0.073,1.3004 0.219,1.8875 0.145,0.5875 0.389,1.2645 0.639,1.7059 0.249,0.4371 0.516,0.784 0.801,1.0398 0.285,0.2563 0.585,0.4504 0.899,0.5828 0.312,0.1282 0.741,0.1922 1.287,0.1922 0.181,0 0.426,-0.0086 0.734,-0.0265 0.404,-0.0176 0.668,-0.0262 0.793,-0.0266 0.181,0 0.498,0.018 0.952,0.0531"
         style="fill:#231f50;fill-opacity:1;fill-rule:nonzero;stroke:none"
         id="path3143" /><path
         d="m 286.88,94.3835 -2.248,0 1.113,-3.9934 1.135,3.9934"
         style="fill:#ffffff;fill-opacity:1;fill-rule:nonzero;stroke:none"
         id="path3165" /><path
         d="m 291.964,92.5956 c -0.169,0.0133 -0.317,0.0195 -0.445,0.0195 -0.368,0 -0.652,-0.0414 -0.851,-0.1254 -0.201,-0.084 -0.357,-0.1945 -0.467,-0.3316 -0.11,-0.1367 -0.2,-0.3223 -0.271,-0.5563 -0.074,-0.2336 -0.112,-0.5074 -0.112,-0.8211 0,-0.5515 0.119,-0.9492 0.356,-1.1922 0.235,-0.2468 0.579,-0.3707 1.033,-0.3707 0.252,0 0.492,0.0332 0.717,0.0993 0.026,0.3664 0.04,0.9339 0.04,1.7019 l 0,1.5766"
         style="fill:#ffffff;fill-opacity:1;fill-rule:nonzero;stroke:none"
         id="path3167" /><path
         d="m 291.95,97.4167 c -0.222,0.0797 -0.457,0.1195 -0.703,0.1195 -0.391,0 -0.707,-0.0883 -0.948,-0.2652 -0.24,-0.1809 -0.424,-0.4524 -0.552,-0.8145 -0.131,-0.3617 -0.196,-0.7769 -0.196,-1.2449 0,-0.4637 0.061,-0.8523 0.183,-1.1656 0.122,-0.318 0.304,-0.552 0.547,-0.7024 0.241,-0.1543 0.638,-0.2312 1.193,-0.2316 0.128,0 0.291,0.009 0.49,0.0265 l 0,2.5098 c 0,0.2434 -0.005,0.8328 -0.014,1.7684"
         style="fill:#ffffff;fill-opacity:1;fill-rule:nonzero;stroke:none"
         id="path3169" /><path
         d="m 299.222,92.9065 c 0,0.4195 -0.028,0.8457 -0.085,1.2785 -0.056,0.4328 -0.127,0.8059 -0.213,1.1192 -0.143,0.5297 -0.328,0.9758 -0.557,1.3379 -0.231,0.3574 -0.488,0.6222 -0.77,0.7945 -0.285,0.168 -0.6,0.2519 -0.944,0.2519 -0.478,0 -0.893,-0.1722 -1.246,-0.5168 -0.353,-0.3488 -0.616,-0.8363 -0.788,-1.4636 -0.175,-0.6313 -0.263,-1.3574 -0.263,-2.1789 0,-0.702 0.062,-1.3489 0.187,-1.9407 0.077,-0.3617 0.18,-0.6882 0.307,-0.98 0.128,-0.2957 0.281,-0.5516 0.459,-0.7684 0.175,-0.2203 0.404,-0.4058 0.686,-0.5562 0.281,-0.15 0.586,-0.225 0.912,-0.225 0.472,0 0.886,0.157 1.242,0.4703 0.356,0.3133 0.625,0.7679 0.806,1.364 0.178,0.5918 0.267,1.2629 0.267,2.0133"
         style="fill:#ffffff;fill-opacity:1;fill-rule:nonzero;stroke:none"
         id="path3171" /><path
         d="m 305.597,97.3772 c -0.327,0.084 -0.671,0.1258 -1.033,0.1258 -0.374,0 -0.703,-0.0484 -0.989,-0.1457 -0.287,-0.0973 -0.532,-0.234 -0.734,-0.4106 -0.205,-0.1765 -0.402,-0.4371 -0.592,-0.7816 -0.19,-0.3441 -0.335,-0.7836 -0.436,-1.318 -0.104,-0.5382 -0.156,-1.0949 -0.156,-1.6691 0,-0.8211 0.099,-1.5254 0.298,-2.1125 0.196,-0.5914 0.493,-1.0441 0.891,-1.3578 0.397,-0.3133 0.943,-0.4699 1.638,-0.4699 0.365,0 0.736,0.0418 1.113,0.1257 0.009,0.2165 0.016,0.6008 0.022,1.1524 l 0.018,0.9601 0,2.6426 -0.013,2.0531 c -0.004,0.3137 -0.013,0.7153 -0.027,1.2055"
         style="fill:#ffffff;fill-opacity:1;fill-rule:nonzero;stroke:none"
         id="path3173" /><path
         d="m 318.891,92.9065 c 0,0.4195 -0.028,0.8457 -0.084,1.2785 -0.057,0.4328 -0.128,0.8059 -0.214,1.1192 -0.143,0.5297 -0.328,0.9758 -0.557,1.3379 -0.231,0.3574 -0.487,0.6222 -0.77,0.7945 -0.284,0.168 -0.599,0.2519 -0.943,0.2519 -0.478,0 -0.894,-0.1722 -1.247,-0.5168 -0.353,-0.3488 -0.615,-0.8363 -0.788,-1.4636 -0.175,-0.6313 -0.262,-1.3574 -0.262,-2.1789 0,-0.702 0.062,-1.3489 0.187,-1.9407 0.077,-0.3617 0.179,-0.6882 0.307,-0.98 0.128,-0.2957 0.28,-0.5516 0.459,-0.7684 0.175,-0.2203 0.403,-0.4058 0.685,-0.5562 0.282,-0.15 0.586,-0.225 0.912,-0.225 0.472,0 0.886,0.157 1.242,0.4703 0.357,0.3133 0.625,0.7679 0.806,1.364 0.178,0.5918 0.267,1.2629 0.267,2.0133"
         style="fill:#ffffff;fill-opacity:1;fill-rule:nonzero;stroke:none"
         id="path3175" /><path
         d="m 335.58,97.3757 c -0.326,0.0839 -0.671,0.1261 -1.033,0.1261 -0.374,0 -0.703,-0.0488 -0.988,-0.1461 -0.288,-0.0968 -0.532,-0.2336 -0.734,-0.4105 -0.205,-0.1766 -0.403,-0.4367 -0.592,-0.7813 -0.19,-0.3445 -0.336,-0.7836 -0.437,-1.3183 -0.103,-0.5383 -0.155,-1.0946 -0.155,-1.6688 0,-0.8211 0.099,-1.5254 0.298,-2.1125 0.195,-0.5918 0.492,-1.0445 0.89,-1.3578 0.398,-0.3137 0.944,-0.4703 1.638,-0.4703 0.365,0 0.736,0.0422 1.113,0.1258 0.009,0.2164 0.017,0.6008 0.022,1.1523 l 0.018,0.9602 0,2.643 -0.013,2.0531 c -0.003,0.3133 -0.012,0.7148 -0.027,1.2051"
         style="fill:#ffffff;fill-opacity:1;fill-rule:nonzero;stroke:none"
         id="path3177" /><g
         transform="matrix(-0.1,0,0,-0.1,685.395,132.8655)"
         id="g3179"><g
           id="g3181"
           clip-path="url(#clipPath3183)"><path
             d="m 3497.82,398.148 c 3.47,-0.261 6.66,-0.394 9.57,-0.394 3.53,0 6.54,0.238 9.03,0.726 0.95,0.176 1.56,0.528 1.83,1.059 0.27,0.531 0.5,2.34 0.71,5.43 l 0.27,4.636 2.67,0 0,-1.257 -0.22,-13.774 0.22,-15.433 -3.12,0 -0.13,4.504 c -0.06,3.265 -0.27,5.296 -0.62,6.093 -0.33,0.793 -0.97,1.344 -1.92,1.657 -1.69,0.527 -4.97,0.793 -9.84,0.793 -1.99,0 -4.81,-0.11 -8.45,-0.329 -0.15,-4.418 0,6.289 0,6.289"
             style="fill:#231f50;fill-opacity:1;fill-rule:nonzero;stroke:none"
             id="path3187" /></g></g><path
         d="m 346.772,97.3491 c -0.327,0.0844 -0.671,0.1258 -1.033,0.1258 -0.374,0 -0.703,-0.0485 -0.988,-0.1453 -0.288,-0.0973 -0.533,-0.234 -0.735,-0.411 -0.205,-0.1765 -0.402,-0.4367 -0.592,-0.7812 -0.19,-0.3446 -0.335,-0.7836 -0.436,-1.318 -0.104,-0.5387 -0.155,-1.0949 -0.156,-1.6691 0,-0.8211 0.1,-1.5254 0.299,-2.1125 0.195,-0.5918 0.492,-1.0442 0.89,-1.3578 0.397,-0.3133 0.944,-0.47 1.638,-0.4704 0.365,0 0.736,0.0422 1.113,0.1258 0.009,0.2168 0.016,0.6008 0.022,1.1528 l 0.018,0.9601 0,2.6426 -0.013,2.0531 c -0.004,0.3133 -0.012,0.7153 -0.027,1.2051"
         style="fill:#fdffff;fill-opacity:1;fill-rule:evenodd;stroke:none"
         id="path3189" /><path
         d="m 353.368,94.3557 -2.248,0 1.113,-3.9937 1.135,3.9937"
         style="fill:#ffffff;fill-opacity:1;fill-rule:nonzero;stroke:none"
         id="path3191" /><path
         d="m 359.365,97.3491 c -0.327,0.0844 -0.671,0.1258 -1.033,0.1258 -0.374,0 -0.703,-0.0485 -0.988,-0.1453 -0.288,-0.0973 -0.533,-0.234 -0.735,-0.411 -0.205,-0.1765 -0.402,-0.4367 -0.592,-0.7812 -0.19,-0.3446 -0.335,-0.7836 -0.436,-1.318 -0.104,-0.5387 -0.156,-1.0949 -0.156,-1.6691 0,-0.8211 0.1,-1.5254 0.298,-2.1125 0.196,-0.5918 0.493,-1.0442 0.891,-1.3578 0.397,-0.3133 0.943,-0.47 1.638,-0.4704 0.365,0 0.736,0.0422 1.113,0.1258 0.009,0.2168 0.016,0.6008 0.022,1.1528 l 0.018,0.9601 0,2.6426 -0.014,2.0531 c -0.002,0.3133 -0.011,0.7153 -0.026,1.2051"
         style="fill:#fdffff;fill-opacity:1;fill-rule:evenodd;stroke:none"
         id="path3193" /></g></g></svg>