<?xml version="1.0" encoding="utf-8"?>
<!-- Generator: Adobe Illustrator 18.1.1, SVG Export Plug-In . SVG Version: 6.00 Build 0)  -->
<svg version="1.1" id="Layer_1" xmlns="http://www.w3.org/2000/svg" xmlns:xlink="http://www.w3.org/1999/xlink" x="0px" y="0px"
	 viewBox="0 0 69.7 31.3" enable-background="new 0 0 69.7 31.3" xml:space="preserve">
<path fill="#DC1E32" d="M57.3,6.7h-4v3.9h4c0.9,0,1.7,0.8,1.7,1.7c0,0.9-0.8,1.7-1.7,1.7h-4v3.9h4c3.1,0,5.6-2.5,5.6-5.6
	C62.9,9.2,60.4,6.7,57.3,6.7 M34.7,27.4c4.7,0,8.8-2.7,10.7-6.7h5v6.7h2.8v-6.7h4c4.7,0,8.5-3.7,8.5-8.4c0-4.6-3.8-8.4-8.5-8.4h-6.8
	v10h-4c-0.8-5.7-5.8-10-11.7-10H20.8L7,27.4h3.3l4-6.7h14.2v6.7H34.7z M69.7,12.3c0,6.8-5.6,12.3-12.4,12.3v6.7H46.5V26
	c-2.9,3.2-7.1,5.2-11.8,5.2H24.5v-6.7h-8l-4,6.7H0L18.4,0h16.3c4.7,0,8.9,2,11.8,5.2V0h10.7C64.1,0,69.7,5.5,69.7,12.3z M24.5,6.7
	V14h-6.3l-2.3,3.9h12.6V6.7H24.5z M43.8,15.6c0,4.9-4,8.9-9,8.9h-3.4v-3.9h3.4c2.8,0,5.1-2.2,5.1-5c0-2.8-2.3-5-5.1-5h-3.4V6.7h3.4
	C39.7,6.7,43.8,10.7,43.8,15.6z M61.1,29.6v-0.4h0.3c0.2,0,0.3,0.1,0.3,0.2c0,0.1-0.1,0.2-0.3,0.2 M61.3,29.9c0.1,0,0.2,0,0.3,0.1
	c0.1,0.1,0.1,0.2,0.1,0.4c0,0.1,0,0.2,0.1,0.3h0.3C62,30.5,62,30.3,62,30.1c0-0.2-0.1-0.3-0.3-0.3v0c0.2,0,0.4-0.2,0.4-0.4
	c0-0.4-0.3-0.5-0.7-0.5h-0.6v1.8h0.3v-0.8H61.3z M61.4,31.3c0.8,0,1.5-0.7,1.5-1.5c0-0.8-0.7-1.5-1.5-1.5c-0.8,0-1.5,0.7-1.5,1.5
	C59.9,30.6,60.6,31.3,61.4,31.3z M61.4,31c-0.7,0-1.2-0.5-1.2-1.2c0-0.7,0.6-1.2,1.2-1.2c0.7,0,1.2,0.6,1.2,1.2
	C62.7,30.4,62.1,31,61.4,31z"/>
</svg>
