<?xml version="1.0" encoding="utf-8"?>
<!-- Generator: Adobe Illustrator 21.1.0, SVG Export Plug-In . SVG Version: 6.00 Build 0)  -->
<svg version="1.1" id="Layer_1" xmlns="http://www.w3.org/2000/svg" xmlns:xlink="http://www.w3.org/1999/xlink" x="0px" y="0px"
	 viewBox="0 0 973.6 495.5" style="enable-background:new 0 0 973.6 495.5;" xml:space="preserve">
<style type="text/css">
	.st0{fill-rule:evenodd;clip-rule:evenodd;}
</style>
<g>
	<path class="st0" d="M213.2,170c-7.4,2.6-13.7,6.2-19.4,10.2c-11.6,8.3-20.8,18.7-27.1,32c-3.1,6.5-5.8,14.4-7.1,22.5
		c-1.4,8.8-1.3,18.4,0.2,27.3c2.7,16.2,10,30,19,40c13.4,15,32.8,27.5,60.3,28.3c9.6,0.3,18.3-1.2,26-3.5
		c22.3-6.7,38.5-20.9,48.8-39.8c1.6-3,4.2-6.5,4.1-10.7c-0.1-4.4-2.6-7.5-6.2-8.6c-4.1-1.3-7.4,0.6-9.1,3.3c-1,1.6-1.6,3.3-2.3,5
		c-0.8,1.7-1.7,3.2-2.7,4.8c-9,15.3-22.9,26.8-42.9,31.1c-8.3,1.8-18.6,1.8-26.9,0.1c-16-3.3-27.8-11.2-37.1-22.1
		c-8.8-10.4-15.6-24.8-15.2-44c0.4-18.3,7.8-31.8,17.1-42c9.5-10.4,21.9-18.2,38.5-20.7c11.4-1.7,23.9,0.3,32.4,3.2
		c1.9,0.6,3.3,1.7,5.3,2.1c4.6,1,8.2-1.7,9.4-5c1.6-4.5-0.7-8.7-3.3-10.6c-1.4-1.1-3.3-1.7-5.1-2.3c-9-3.3-19.5-5.7-32-5.1
		C229.1,165.7,220.7,167.4,213.2,170z M266.9,210.3c1-2.4,2.5-4.8,2.9-7.2c1-6-3.1-10.5-8.5-10.2c-5.9,0.4-7.5,5.3-9.4,9.7
		c-5.3,12.3-10.9,25.8-16,37.6c-3.8,1.4-7.6,3-11.5,4.5c-3.9,1.5-7.5,3.5-8,8.2c-0.5,5.4,3.4,9.1,8.5,9.1c3.2,0,6.1-1.8,8.8-2.9
		c2.9-1.2,5.7-2.3,8.4-3.3c12.5,5.4,26.5,11.3,39,16.7c1.9,0.8,3.9,1.9,6,2c4.8,0.3,8.6-2.9,9.1-7.2c0.4-4.1-1.7-6.8-4-8.3
		c-1.9-1.3-4.6-2.1-6.9-3.1c-7.2-3-14.3-5.9-21.1-9.1c14.7-5.9,29.5-11.8,44.4-17.7c2.1-0.8,4.6-1.6,6.2-2.8c2.8-2,4.3-5.9,3.2-9.5
		c-1.1-3.4-3.8-5.7-8-5.8c-3.3-0.1-6,1.7-8.6,2.8c-14.5,5.8-29.2,11.6-43.5,17.4C260.9,224.6,263.9,217.2,266.9,210.3z"/>
	<path class="st0" d="M257.9,231.3c14.3-5.7,28.9-11.6,43.5-17.4c2.7-1.1,5.3-2.8,8.6-2.8c4.2,0.1,6.9,2.4,8,5.8
		c1.1,3.6-0.4,7.5-3.2,9.5c-1.6,1.2-4.1,1.9-6.2,2.8c-14.8,5.9-29.6,11.8-44.4,17.7c6.9,3.2,14,6.1,21.1,9.1c2.3,1,4.9,1.8,6.9,3.1
		c2.3,1.5,4.4,4.2,4,8.3c-0.4,4.3-4.3,7.5-9.1,7.2c-2-0.1-4-1.1-6-2c-12.6-5.4-26.5-11.3-39-16.7c-2.7,1-5.5,2.1-8.4,3.3
		c-2.8,1.1-5.6,2.9-8.8,2.9c-5.2,0-9-3.6-8.5-9.1c0.5-4.7,4.1-6.7,8-8.2c3.9-1.6,7.7-3.1,11.5-4.5c5.1-11.8,10.7-25.3,16-37.6
		c1.9-4.4,3.5-9.4,9.4-9.7c5.5-0.3,9.5,4.2,8.5,10.2c-0.4,2.4-1.8,4.8-2.9,7.2C263.9,217.2,260.9,224.6,257.9,231.3z"/>
	<path d="M411.3,253.9H372L358.5,288H351l38.9-97.2h4.3l38.1,97.2h-7.6L411.3,253.9z M374.4,247.8h34.6l-13.2-34.9
		c-1.1-2.7-2.4-6.5-4-11.4c-1.2,4.2-2.5,8.1-3.9,11.5L374.4,247.8z"/>
	<path d="M443.5,196.1c0-4.2,1.4-6.4,4.2-6.4c1.4,0,2.4,0.6,3.2,1.7c0.8,1.1,1.2,2.7,1.2,4.7c0,2-0.4,3.6-1.2,4.7
		c-0.8,1.1-1.8,1.7-3.2,1.7C444.9,202.5,443.5,200.4,443.5,196.1z M451,288h-6.6v-72h6.6V288z"/>
	<path d="M503.4,214.7c3,0,6.3,0.3,9.8,0.9l-1.3,6.3c-3-0.8-6.1-1.1-9.3-1.1c-6.1,0-11.2,2.6-15.1,7.8c-3.9,5.2-5.9,11.8-5.9,19.7
		V288h-6.6v-72h5.6l0.7,13h0.5c3-5.3,6.1-9,9.5-11.2C494.6,215.8,498.6,214.7,503.4,214.7z"/>
	<path d="M607.3,288h-20.5v-41.8h-38.3V288H528v-96.8h20.5v37.9h38.3v-37.9h20.5V288z"/>
	<path d="M660.4,289.4c-11.9,0-21.2-3.3-27.9-9.9c-6.7-6.6-10.1-15.9-10.1-27.9c0-12.4,3.1-22,9.3-28.8c6.2-6.8,14.8-10.2,25.7-10.2
		c10.5,0,18.6,3,24.4,8.9c5.8,6,8.7,14.2,8.7,24.7v9.8h-47.7c0.2,5.7,1.9,10.2,5.1,13.4c3.2,3.2,7.6,4.8,13.4,4.8
		c4.5,0,8.7-0.5,12.6-1.4c4-0.9,8.1-2.4,12.4-4.4v15.6c-3.5,1.8-7.3,3.1-11.3,3.9C671,288.9,666.1,289.4,660.4,289.4z M657.5,227
		c-4.3,0-7.6,1.4-10.1,4.1c-2.4,2.7-3.8,6.6-4.2,11.6h28.3c-0.1-5-1.4-8.8-3.9-11.6C665.2,228.4,661.8,227,657.5,227z"/>
	<path d="M727.2,288H707V185h20.2V288z"/>
	<path d="M785.8,289.4c-8.7,0-15.5-3.2-20.5-9.5h-1.1c0.7,6.2,1.1,9.8,1.1,10.7v30h-20.2V214h16.4l2.8,9.6h0.9
		c4.7-7.3,11.7-11,21-11c8.7,0,15.6,3.4,20.5,10.1c4.9,6.8,7.4,16.1,7.4,28.1c0,7.9-1.2,14.8-3.5,20.6c-2.3,5.8-5.6,10.3-9.9,13.3
		C796.6,287.8,791.5,289.4,785.8,289.4z M779.8,228.8c-5,0-8.6,1.5-10.9,4.6c-2.3,3.1-3.5,8.1-3.6,15.2v2.2c0,7.9,1.2,13.6,3.5,17.1
		c2.4,3.4,6.1,5.2,11.2,5.2c9,0,13.6-7.5,13.6-22.4c0-7.3-1.1-12.7-3.3-16.4C788.1,230.6,784.6,228.8,779.8,228.8z"/>
</g>
</svg>
