<?xml version="1.0" encoding="UTF-8"?>
<svg width="318px" height="84px" viewBox="0 0 318 84" version="1.1" xmlns="http://www.w3.org/2000/svg" xmlns:xlink="http://www.w3.org/1999/xlink">
    <!-- Generator: Sketch 52.6 (67491) - http://www.bohemiancoding.com/sketch -->
    <title>Group 2</title>
    <desc>Created with Sketch.</desc>
    <defs>
        <path d="M35.6954752,5.43661177 L35.6954752,10.391227 L30.7043937,15.3458422 L30.7043937,33.7486988 L35.6954752,38.703314 L35.6954752,43.6579292 L0.75790456,43.6579292 L0.75790456,38.703314 L5.74898608,33.7486988 L5.74898608,15.3458422 L0.75790456,10.391227 L0.75790456,5.43661177 L0.75790456,0.481996542 L5.74898608,0.481996542 L5.74898608,5.43661177 L10.7400676,5.43661177 L10.7400676,0.481996542 L15.7311491,0.481996542 L15.7311491,5.43661177 L20.7222307,5.43661177 L20.7222307,0.481996542 L25.7133122,0.481996542 L25.7133122,5.43661177 L30.7043937,5.43661177 L30.7043937,0.481996542 L35.6954752,0.481996542 L35.6954752,5.43661177 Z M18.2266115,17.4692487 C15.6671136,17.4692487 13.5921142,19.4762218 13.5921142,21.952043 L13.5921142,30.9174901 L22.8612656,30.9174901 L22.8612656,21.952043 C22.8612656,19.4764341 20.7861094,17.4692487 18.2266115,17.4692487 Z" id="path-1"></path>
    </defs>
    <g id="Brand" stroke="none" stroke-width="1" fill="none" fill-rule="evenodd">
        <g id="Brand-/-Legacy">
            <g id="Group-2">
                <path d="M129.383423,70.4896289 C142.063814,70.4896289 150.776722,63.0992165 153.732887,52.7526392 L146.964825,50.2632371 C144.708804,57.8092371 138.796474,63.4881856 129.383423,63.4881856 C119.348021,63.4881856 109.779381,56.0977732 109.779381,41.7059175 C109.779381,27.3140619 119.348021,20.0014433 129.383423,20.0014433 C138.407505,20.0014433 144.475423,24.6690722 146.575856,32.9930103 L153.655093,30.5036082 C150.854515,19.8458557 141.986021,13 129.383423,13 C115.691711,13 102,23.2687835 102,41.7059175 C102,60.1430515 115.147155,70.4896289 129.383423,70.4896289 L129.383423,70.4896289 Z M159.178454,59.2873196 C159.178454,65.1996495 164.079464,70.4896289 171.703258,70.4896289 C178.393526,70.4896289 182.127629,66.9111134 183.761299,64.2661237 C183.761299,66.9889072 183.99468,68.3891959 184.150268,69.3227216 L191.307299,69.3227216 C191.151711,68.3891959 190.840536,66.4443505 190.840536,63.1770103 L190.840536,44.428701 C190.840536,37.1160825 186.484082,30.7369897 175.281773,30.7369897 C167.191216,30.7369897 160.73433,35.7157938 159.956392,42.8728247 L166.957835,44.5064948 C167.424598,40.1500412 170.302969,36.9604948 175.437361,36.9604948 C181.116309,36.9604948 183.527918,39.9944536 183.527918,43.6507629 C183.527918,44.9732577 182.905567,46.1401649 180.649546,46.4513402 L170.536351,47.9294227 C164.079464,48.8629485 159.178454,52.5970515 159.178454,59.2873196 L159.178454,59.2873196 Z M172.714577,64.3439175 C168.980474,64.3439175 166.64666,61.6989278 166.64666,58.8983505 C166.64666,55.5532165 168.980474,53.7639588 172.092227,53.2971959 L183.527918,51.585732 L183.527918,53.2971959 C183.527918,61.4655464 178.704701,64.3439175 172.714577,64.3439175 L172.714577,64.3439175 Z M198.697711,59.5984948 C199.320062,63.8771546 203.676515,70.4896289 213.945299,70.4896289 C223.202763,70.4896289 227.63701,64.1883299 227.63701,58.8983505 C227.63701,53.3749897 224.058495,49.2519175 217.290433,47.7738351 L211.222515,46.4513402 C208.344144,45.8289897 206.943856,44.1953196 206.943856,41.939299 C206.943856,39.3721031 209.433258,36.9604948 213.167361,36.9604948 C219.079691,36.9604948 220.635567,41.2391546 220.946742,43.184 L227.403629,40.7723918 C226.625691,37.4272577 223.436144,30.7369897 213.167361,30.7369897 C205.854742,30.7369897 199.864619,36.1825567 199.864619,42.5616495 C199.864619,47.8516289 203.36534,51.8191134 209.199876,53.0638144 L215.578969,54.4641031 C218.690722,55.1642474 220.402186,56.9535052 220.402186,59.2873196 C220.402186,61.9323093 218.146165,64.2661237 214.023093,64.2661237 C208.733113,64.2661237 205.776948,61.1543711 205.310186,57.2646804 L198.697711,59.5984948 Z M247.163258,20.0792371 L240.47299,20.0792371 L240.47299,26.1471546 C240.47299,29.4144948 238.761526,31.9038969 234.716247,31.9038969 L232.693608,31.9038969 L232.693608,38.5163711 L239.850639,38.5163711 L239.850639,59.0539381 C239.850639,65.822 243.895918,69.7116907 250.27501,69.7116907 C252.764412,69.7116907 254.631464,69.2449278 255.253814,69.0115464 L255.253814,62.7880412 C254.631464,62.9436289 253.308969,63.0992165 252.375443,63.0992165 C248.563546,63.0992165 247.163258,61.3877526 247.163258,57.9648247 L247.163258,38.5163711 L255.253814,38.5163711 L255.253814,31.9038969 L247.163258,31.9038969 L247.163258,20.0792371 Z M272.29066,69.3227216 L272.29066,13 L264.978041,13 L264.978041,69.3227216 L272.29066,69.3227216 Z M289.483093,46.7625155 C289.794268,41.939299 293.528371,37.1938763 299.674082,37.1938763 C306.286557,37.1938763 309.787278,41.3947423 309.942866,46.7625155 L289.483093,46.7625155 Z M311.031979,56.4867423 C309.631691,60.6876082 306.597732,64.0327423 300.529814,64.0327423 C294.228515,64.0327423 289.405299,59.3651134 289.249711,52.6748454 L317.411072,52.6748454 C317.488866,52.2080825 317.56666,51.2745567 317.56666,50.3410309 C317.56666,38.6719588 311.109773,30.7369897 299.596289,30.7369897 C290.183237,30.7369897 281.703711,38.7497526 281.703711,50.4966186 C281.703711,63.1770103 290.494412,70.4896289 300.529814,70.4896289 C309.242722,70.4896289 315.232845,65.2774433 317.333278,58.6649691 L311.031979,56.4867423 Z" id="Castle" fill="#2A21A4"></path>
                <g id="Group">
                    <path d="M42,79 C62.4345357,79 79,62.4345357 79,42 C79,21.5654643 62.4345357,5 42,5 C21.5654643,5 5,21.5654643 5,42 C5,62.4345357 21.5654643,79 42,79 Z M42,84 C65.1959595,84 84,65.1959595 84,42 C84,18.8040405 65.1959595,0 42,0 C18.8040405,0 0,18.8040405 0,42 C0,65.1959595 18.8040405,84 42,84 Z" id="Oval-1" fill="#2A21A4"></path>
                    <g id="Icon" transform="translate(24.376793, 20.343968)">
                        <mask id="mask-2" fill="white">
                            <use xlink:href="#path-1"></use>
                        </mask>
                        <use id="Clip-30" fill="#2A21A4" xlink:href="#path-1"></use>
                    </g>
                </g>
            </g>
        </g>
    </g>
</svg>