<svg xmlns="http://www.w3.org/2000/svg" viewBox="0 0 203.92 139.67"><defs><style>.cls-1{fill:#00aeef;}</style></defs><g id="Layer_2" data-name="Layer 2"><g id="logos"><path d="M3.47,93.94v41.69H28.78v3.27H0v-45Z"/><path d="M77.4,116.48c-.06,11.82-7.58,23.19-22.67,23.19s-22.68-11.43-22.68-23.32c0-12.07,7.52-23.12,22.68-23.12S77.47,104.34,77.4,116.48Zm-41.94-.06c.06,10.15,6.49,20,19.27,20s19.33-9.89,19.33-20c0-10.41-6.42-20-19.33-20S35.39,105.82,35.46,116.42Z"/><path d="M124.84,102.22a20.92,20.92,0,0,0-14.45-5.78c-13.17,0-19.91,9.64-19.85,20,0,10.6,6.75,19.72,19.85,19.72a20.27,20.27,0,0,0,13.68-5.2V118.41H108.4v-3h18.95v16.83a23.22,23.22,0,0,1-17,7.26c-15.29,0-23.19-10.66-23.19-22.93-.06-14.07,9.51-23.26,23.19-23.26A23.39,23.39,0,0,1,126.83,100Z"/><path d="M145.14,138.9v-45h3.41v45Z"/><path d="M203.92,132.67a23.15,23.15,0,0,1-16.38,6.75c-15.16,0-23.06-10.6-23.13-22.74s7.71-23.26,23.13-23.26a23.15,23.15,0,0,1,16.38,6.75l-2.38,2a19.68,19.68,0,0,0-14-5.71c-13.1,0-19.85,9.25-19.79,20,.13,10.53,6.81,19.65,19.79,19.65a20.11,20.11,0,0,0,14.07-5.71Z"/><path d="M4.4,25.54V67.23H29.71V70.5H.93v-45Z"/><path d="M68.06,25.54V53.48c0,23.51-34.43,23.58-34.43,0V25.54H37V53.48c0,19.34,27.62,19.27,27.62,0V25.54Z"/><path d="M79,25.54,109.3,62.73V25.54h3.4v45h-1.35L81,33.38V70.5H77.57v-45Z"/><path d="M203.85,70.5h-4.56l-15.54-17H171.48v17H168v-45H187.8c9.76,0,14.71,7,14.77,14,.06,7.32-4.75,13.75-14.58,13.75ZM171.48,50.2h15.93c7.84,0,11.31-4.43,11.37-10.72.06-5.27-3.53-10.73-11-10.73H171.48Z"/><rect class="cls-1" x="111.17" y="44.7" width="44.53" height="3.13" transform="translate(41.84 153.77) rotate(-68.69)"/><polygon class="cls-1" points="163.32 77.61 134.65 12.46 137.52 11.21 166.19 76.36 163.32 77.61"/><path class="cls-1" d="M133.85,14a7,7,0,1,1,7-7A7,7,0,0,1,133.85,14Zm0-10.63A3.64,3.64,0,1,0,137.49,7,3.64,3.64,0,0,0,133.85,3.36Z"/><path class="cls-1" d="M166.31,87.87a7,7,0,1,1,7-7A7,7,0,0,1,166.31,87.87Zm0-10.64A3.64,3.64,0,1,0,170,80.87,3.64,3.64,0,0,0,166.31,77.23Z"/><path class="cls-1" d="M123.78,77.79a7,7,0,1,1,7-7A7,7,0,0,1,123.78,77.79Zm0-10.63a3.64,3.64,0,1,0,3.64,3.64A3.64,3.64,0,0,0,123.78,67.16Z"/></g></g></svg>