<svg id="LOGO" xmlns="http://www.w3.org/2000/svg" viewBox="0 0 1127.98 231.63"><path d="M1436.88,449.79c-50.15,0-87.53,38.93-87.53,90.95,0,51.09,37.38,90,87.53,90,50.46,0,87.53-38.93,87.53-90C1524.41,488.41,1486.72,449.79,1436.88,449.79Zm0,163.53c-40.18,0-68.84-30.53-68.84-72.58,0-43.92,28.66-73.82,68.84-73.82,39.87,0,68.84,29.9,68.84,73.82C1505.72,582.79,1476.75,613.32,1436.88,613.32Z" transform="translate(-396.43 -424.19)"/><rect x="900.28" y="29.03" width="18.07" height="173.18"/><polygon points="861.04 40.87 847.33 29.03 785.03 100.98 780.05 100.98 717.44 29.03 704.05 40.87 767.59 113.13 767.59 118.42 704.05 190.07 717.44 202.21 780.05 130.88 785.03 130.88 846.4 202.21 860.1 190.69 797.49 118.42 797.49 113.13 861.04 40.87"/><path d="M998.31,453.22,931.66,626.4h18.69L966,585.34l11.61-9.4h62.13l10,8.43,15.83,42h19.63l-66.35-173.18ZM978,553.93l27.82-73h5l27.8,73.75-3.81,3.81h-52Z" transform="translate(-396.43 -424.19)"/><polygon points="417.8 180.72 412.81 180.72 354.57 29.03 322.8 29.03 322.8 202.21 340.86 202.21 340.86 56.75 345.85 56.75 402.22 202.21 428.39 202.21 483.52 56.75 488.5 56.75 488.5 202.21 506.57 202.21 506.57 29.03 474.8 29.03 417.8 180.72"/><polygon points="68.06 0 57.16 10.9 92.04 45.48 92.04 74.76 88.46 78.03 39.09 28.97 28.5 39.56 77.56 88.93 74.6 92.2 45.63 92.2 10.75 57.31 0 68.06 39.4 107.46 107.31 107.46 107.31 38.94 68.06 0"/><polygon points="163.19 0 174.09 10.9 139.21 45.48 139.21 74.76 142.79 78.03 192.16 28.97 202.75 39.56 153.69 88.93 156.65 92.2 185.62 92.2 220.5 57.31 231.25 68.06 191.85 107.46 123.94 107.46 123.94 38.94 163.19 0"/><polygon points="68.06 231.63 57.16 220.73 92.04 186.15 92.04 156.87 88.46 153.6 39.09 202.66 28.5 192.07 77.56 142.7 74.6 139.43 45.63 139.43 10.75 174.32 0 163.57 39.4 124.17 107.31 124.17 107.31 192.69 68.06 231.63"/><polygon points="163.19 231.63 174.09 220.73 139.21 186.15 139.21 156.87 142.79 153.6 192.16 202.66 202.75 192.07 153.69 142.7 156.65 139.43 185.62 139.43 220.5 174.32 231.25 163.57 191.85 124.17 123.94 124.17 123.94 192.69 163.19 231.63"/></svg>