<?xml version="1.0" encoding="UTF-8" standalone="no"?>
<svg
   xmlns:dc="http://purl.org/dc/elements/1.1/"
   xmlns:cc="http://creativecommons.org/ns#"
   xmlns:rdf="http://www.w3.org/1999/02/22-rdf-syntax-ns#"
   xmlns:svg="http://www.w3.org/2000/svg"
   xmlns="http://www.w3.org/2000/svg"
   xmlns:sodipodi="http://sodipodi.sourceforge.net/DTD/sodipodi-0.dtd"
   xmlns:inkscape="http://www.inkscape.org/namespaces/inkscape"
   version="1.1"
   id="svg2"
   xml:space="preserve"
   width="1137.3199"
   height="1024.2667"
   viewBox="0 0 1137.3199 1024.2667"
   sodipodi:docname="211109_PANION_Logo_blueyellow.ai"><metadata
     id="metadata8"><rdf:RDF><cc:Work
         rdf:about=""><dc:format>image/svg+xml</dc:format><dc:type
           rdf:resource="http://purl.org/dc/dcmitype/StillImage" /></cc:Work></rdf:RDF></metadata><defs
     id="defs6"><clipPath
       clipPathUnits="userSpaceOnUse"
       id="clipPath18"><path
         d="M 0,768.2 H 852.99 V 0 H 0 Z"
         id="path16" /></clipPath></defs><sodipodi:namedview
     pagecolor="#ffffff"
     bordercolor="#666666"
     borderopacity="1"
     objecttolerance="10"
     gridtolerance="10"
     guidetolerance="10"
     inkscape:pageopacity="0"
     inkscape:pageshadow="2"
     inkscape:window-width="640"
     inkscape:window-height="480"
     id="namedview4" /><g
     id="g10"
     inkscape:groupmode="layer"
     inkscape:label="211109_PANION_Logo_blueyellow"
     transform="matrix(1.3333333,0,0,-1.3333333,0,1024.2667)"><g
       id="g12"><g
         id="g14"
         clip-path="url(#clipPath18)"><g
           id="g20"
           transform="translate(189.79,176.1001)"><path
             d="M 0,0 C 7.8,0 13.2,3.9 13.2,11 13.2,18.4 7.7,22 0,22 H -12.3 V -0.1 Z M 33.1,11.1 C 33.1,-5.5 20,-17.3 0.7,-17.3 h -13 V -41.6 H -31.2 V 39.7 H 0.7 C 20.1,39.72 33.1,28.02 33.1,11.1"
             style="fill:#221c35;fill-opacity:1;fill-rule:nonzero;stroke:none"
             id="path22" /></g><g
           id="g24"
           transform="translate(271.89,164.2)"><path
             d="M 0,0 H 23.8 L 11.9,26.5 Z M 37.2,-29.68 31,-15.98 H -7.1 l -6.2,-13.7 h -20.3 l 37.5,81.3 h 16.4 l 37.5,-81.3 z"
             style="fill:#221c35;fill-opacity:1;fill-rule:nonzero;stroke:none"
             id="path26" /></g><g
           id="g28"
           transform="translate(415.29,215.82)"><path
             d="M 0,0 H 19.1 V -81.3 H 1.6 L -41.7,-29 V -81.3 H -60.6 V 0 h 17.4 L 0.1,-52.2 Z"
             style="fill:#221c35;fill-opacity:1;fill-rule:nonzero;stroke:none"
             id="path30" /></g><path
           d="m 468.89,215.82 h 19.2 v -81.3 h -19.2 z"
           style="fill:#221c35;fill-opacity:1;fill-rule:nonzero;stroke:none"
           id="path32" /><g
           id="g34"
           transform="translate(584.49,175.2)"><path
             d="m 0,0 c 0,13.8 -10.1,24 -23.7,24 -13.6,0 -23.7,-10.2 -23.7,-24 0,-13.8 10,-24 23.7,-24 C -10,-24 0,-13.88 0,0 m -67.3,0 c 0,23.3 18.3,42.4 43.6,42.4 25.3,0 43.6,-19.1 43.6,-42.4 0,-23.3 -18.3,-42.4 -43.6,-42.4 -25.3,0 -43.6,19.12 -43.6,42.4"
             style="fill:#f2a900;fill-opacity:1;fill-rule:nonzero;stroke:none"
             id="path36" /></g><g
           id="g38"
           transform="translate(691.19,215.82)"><path
             d="M 0,0 H 19.1 V -81.3 H 1.6 L -41.7,-29 V -81.3 H -60.6 V 0 h 17.41 L 0.11,-52.2 0.01,0 Z"
             style="fill:#f2a900;fill-opacity:1;fill-rule:nonzero;stroke:none"
             id="path40" /></g><g
           id="g42"
           transform="translate(710.19,449.92)"><path
             d="m 0,0 c 0,1.904 -0.1,3.807 -0.3,5.7 l -0.4,5.7 c -0.2,1.9 -0.4,3.8 -0.7,5.6 -0.4,3.8 -1.2,7.5 -1.9,11.2 -0.9,3.7 -1.6,7.4 -2.7,11.1 -2.023,7.337 -4.563,14.522 -7.6,21.5 -36.221,84.353 -133.966,123.371 -218.319,87.15 -20.068,-8.618 -38.241,-21.105 -53.481,-36.75 -24.362,24.945 -55.953,41.597 -90.3,47.6 v -19.4 c 69.069,-13.707 118.845,-74.284 118.9,-144.7 0,-81.3 -66.2,-147.5 -147.5,-147.5 -81.3,0 -147.5,66.1 -147.5,147.5 0,71.5 51.2,131.3 118.9,144.7 v 19.4 c -78.2,-13.6 -137.9,-81.9 -137.9,-164 0,-91.8 74.7,-166.5 166.5,-166.5 79.2,0 145.6,55.6 162.4,129.8 0.1,0.6 0.3,1.1 0.4,1.7 0.3,1.6 0.6,3.1 0.9,4.7 0.2,1 0.4,2 0.5,3 l 0.6,4.2 c 0.2,1.3 0.3,2.5 0.5,3.8 0.2,1.3 0.3,2.5 0.4,3.8 0.1,1.5 0.3,3.1 0.4,4.6 0.1,1 0.2,2.1 0.2,3.1 0.1,2.4 0.2,4.9 0.2,7.3 v 0.6 c 0.037,13.05 3.633,25.842 10.4,37 10.288,16.859 27.075,28.726 46.4,32.8 6.415,1.288 12.971,1.725 19.5,1.3 12.997,-0.866 25.497,-5.333 36.1,-12.9 10.681,-7.558 19.085,-17.9 24.3,-29.9 1.259,-2.962 2.328,-6.002 3.2,-9.1 0.5,-1.5 0.7,-3.1 1.2,-4.7 0.2,-1.6 0.6,-3.2 0.8,-4.8 l 0.3,-2.4 0.2,-2.4 c 0.085,-0.83 0.119,-1.665 0.1,-2.5 l 0.1,-2.6 v -147.2 h 19.1 v 147 c -0.011,4.146 -0.278,8.287 -0.8,12.4 -0.2,2.1 -0.7,4.1 -1,6.1 -0.5,2 -0.8,4 -1.5,6 -1.067,3.966 -2.437,7.844 -4.1,11.6 -13.374,30.997 -42.923,51.944 -76.6,54.3 -8.234,0.621 -16.515,0.082 -24.6,-1.6 -24.501,-5.095 -45.791,-20.122 -58.8,-41.5 -0.2,-0.3 -0.4,-0.7 -0.6,-1 -2.203,7.461 -4.875,14.776 -8,21.9 22.324,28.438 57.347,43.887 93.4,41.2 40.79,-2.892 76.574,-28.264 92.8,-65.8 1.963,-4.59 3.633,-9.299 5,-14.1 0.7,-2.4 1.2,-4.8 1.8,-7.3 0.4,-2.5 1,-4.9 1.2,-7.4 0.635,-4.942 0.969,-9.918 1,-14.9 v -147.2 h 19.1 V -5.5 c -0.001,5.854 -0.402,11.701 -1.2,17.5 -0.3,2.9 -0.9,5.8 -1.4,8.7 -0.7,2.8 -1.2,5.7 -2.1,8.5 -1.573,5.653 -3.51,11.198 -5.8,16.6 -9.375,21.618 -24.487,40.258 -43.7,53.9 -29.066,20.538 -65.333,28.139 -100.2,21 -26.761,-5.516 -51.05,-19.465 -69.3,-39.8 -1.4,2.3 -2.8,4.6 -4.4,6.8 -0.5,0.8 -1,1.5 -1.6,2.3 -0.6,0.8 -1.1,1.5 -1.6,2.3 -1.1,1.6 -2.3,3.1 -3.5,4.7 0,0.055 -0.045,0.1 -0.1,0.1 11.198,11.682 24.238,21.445 38.6,28.9 23.995,12.522 51.008,18.098 78,16.1 27.001,-1.805 52.969,-11.084 75,-26.8 22.044,-15.623 39.375,-37.001 50.1,-61.8 2.678,-6.168 4.917,-12.517 6.7,-19 1,-3.2 1.6,-6.5 2.4,-9.8 0.6,-3.3 1.3,-6.6 1.6,-9.9 0.881,-6.63 1.315,-13.312 1.3,-20 V -152.4 H 0.1 V -5.5 Z"
             style="fill:#221c35;fill-opacity:1;fill-rule:nonzero;stroke:none"
             id="path44" /></g><g
           id="g46"
           transform="translate(297.79,553.72)"><path
             d="m 0,0 c 1.1,0.1 2.1,0.2 3.2,0.2 1.7,0.1 3.4,0.1 5.1,0.1 1.7,0 3.4,-0.1 5.1,-0.1 1.1,-0.1 2.1,-0.1 3.2,-0.2 56.983,-4.379 101.012,-51.849 101.1,-109 0,-60.3 -49.1,-109.3 -109.4,-109.3 -60.3,0 -109.4,49.1 -109.4,109.3 0,57.48 44.6,104.7 101.1,109 z m -120.2,-109.1 c -0.007,-70.913 57.474,-128.406 128.387,-128.413 70.914,-0.007 128.406,57.474 128.413,128.388 v 0.025 c 0,67.6 -52.5,123.1 -118.9,128 v 74.2 h -19 V 19 c -67.014,-5.079 -118.82,-60.894 -118.9,-128.1"
             style="fill:#221c35;fill-opacity:1;fill-rule:nonzero;stroke:none"
             id="path48" /></g><g
           id="g50"
           transform="translate(306,354.32)"><path
             d="M 0,0 C 49.888,0.021 90.313,40.481 90.292,90.368 90.275,129.207 65.435,163.687 28.6,176 V 155.6 C 64.635,139.86 81.087,97.888 65.347,61.853 49.607,25.818 7.635,9.366 -28.4,25.106 c -36.035,15.74 -52.487,57.712 -36.747,93.747 7.182,16.441 20.306,29.565 36.747,36.747 V 176 C -75.714,160.184 -101.249,109.007 -85.433,61.692 -73.143,24.927 -38.765,0.102 0,0"
             style="fill:#221c35;fill-opacity:1;fill-rule:nonzero;stroke:none"
             id="path52" /></g><g
           id="g54"
           transform="translate(315.49,515.2)"><path
             d="m 0,0 v 19.3 c -3.1,0.3 -6.3,0.5 -9.5,0.5 -3.2,0 -6.4,-0.2 -9.5,-0.5 V -70.5 H 0.1 Z"
             style="fill:#221c35;fill-opacity:1;fill-rule:nonzero;stroke:none"
             id="path56" /></g></g></g></g></svg>
