<svg viewBox="0 0 850.39 850.39" xmlns="http://www.w3.org/2000/svg"><path d="m459.41 412.72h17.1v35.69c5.22-1.79 10-4.27 15-5 17.49-2.62 27.49 10.72 29.49 25.1a40.54 40.54 0 0 1 -.8 13.61c-4.73 21.54-31.34 27-43.25 13.56a7 7 0 0 0 -1.27-.82c-.18 2.24-.34 4.23-.52 6.41h-15.7zm30 74.73c8.79 0 14.35-5.59 14.38-14.54 0-8.61-5.6-14.48-14-14.62-8.64-.14-14.45 5.64-14.48 14.42 0 9.07 5.39 14.71 14.13 14.74z"/><path d="m742.17 449.74v-36.84h17.35v88.3h-15.69c-.13-2-.26-4-.39-6-.47.11-.91.07-1.1.27-7.87 8.14-17.33 9.29-27.42 5.55-10.48-3.88-15.78-12.19-17-23-1.37-12.16 1.59-23 11.87-30.61 8.87-6.55 21.64-5.93 30.34.89.49.35.98.7 2.04 1.44zm1.46 23.13c0-8.76-5.48-14.48-14-14.58s-14.57 5.8-14.59 14.47c0 8.91 5.55 14.65 14.28 14.69s14.31-5.45 14.31-14.58z"/><path d="m451.36 478.37h-40.76c1 5.06 3.52 8.46 7.74 10.09 7.25 2.81 13.3.54 18.24-5.66l12.72 9.3c-3.42 2.51-6.28 5.07-9.53 6.94-12.64 7.25-30.37 4.34-39.76-6.66-8-9.34-9.05-20.11-4.71-31.24 4.25-10.92 13.13-16.32 24.36-17.78 10.92-1.43 20.61 1 27 10.91 4.75 7.28 5.16 15.37 4.7 24.1zm-17.83-12.11c.5-6-4-10.56-10.28-10.71-7-.16-12.34 4.46-12.14 10.71z"/><path d="m693 478.36h-40.7c1.19 5 3.54 8.45 7.8 10.09 7.25 2.79 13.32.62 18.28-5.67l12.72 9.33c-3.5 2.56-6.38 5.13-9.66 7-12.39 7.05-30 4.25-39.25-6.28-8.33-9.51-9.53-20.52-5-31.92 4.4-11 13.47-16.32 24.94-17.62 11.05-1.25 20.58 1.49 26.74 11.6 4.39 7.11 4.86 14.99 4.13 23.47zm-17.37-12.18c-.47-6.65-4.51-10.5-10.63-10.6-6.87-.11-11.58 3.8-12.42 10.6z"/><path d="m579.1 501.28h-16.1c-.13-2-.25-3.77-.41-6.23a24.27 24.27 0 0 1 -15.23 7.79c-10.13 1.15-19.48-3.6-22.29-11.55-4-11.33 2.86-21.93 16.26-24.31 6.91-1.23 14-1.54 21.38-2.31a8.35 8.35 0 0 0 -5-8.23c-7.85-3.71-14.45-.77-20.26 4.53l-10.16-9.53c4.54-2.34 8.36-4.82 12.53-6.34a40.73 40.73 0 0 1 23.2-1c7.93 1.79 12.9 6.87 14.51 14.74a87.54 87.54 0 0 1 1.47 15.16c.27 9 .1 18 .1 27.28zm-16.56-24.94c-6.19 0-12.32-.57-17.67 2.59-1.88 1.12-3.85 4.15-3.67 6.12s2.7 4.55 4.76 5.28c9.5 3.4 17.58-3.27 16.58-13.99z"/><path d="m629.62 450.25-10.09 9.54a94.88 94.88 0 0 0 -9.8-3.39 7.2 7.2 0 0 0 -4.85.92 5.28 5.28 0 0 0 -2.36 3.62 4.31 4.31 0 0 0 2.33 3.2 73.35 73.35 0 0 0 8.58 2.62c2.51.71 5.07 1.28 7.54 2.1 6.22 2.07 10.3 6 11 12.86.75 7.45-1.68 13.32-8.28 17.26-10 6-29 5.11-38.2-1.8l-2.25-1.67 9.76-10.93c4.41 1.82 8.27 3.49 12.2 5a6.44 6.44 0 0 0 3.12 0c2.54-.43 5.7-.56 6.1-3.81s-2.49-4.26-5.06-5c-4.27-1.21-8.6-2.19-12.87-3.42-6.46-1.86-10.81-5.9-11.62-12.79-.86-7.36 1.71-13.37 8-17.52 9.11-6 26.42-5.28 35 1.41a17.19 17.19 0 0 1 1.75 1.8z"/><path d="m369.07 501.34h-17.31v-56.75h17l.51 7.14c3.25-2.53 6.12-5.84 9.75-7.32s8-1.16 12.39-1.67v15.72c-3.45 0-6.69-.25-9.88.05-7.74.73-11.65 4.61-12 12.34-.39 8.48-.31 17-.44 25.47-.04 1.54-.02 3.08-.02 5.02z"/><g fill="none"><path d="m78.75 457.77c-.1-.15-.34.16-.51.24l.55-.17a.43.43 0 0 0 -.04-.07z"/><path d="m272 488.12c-.1-.15-.34.16-.51.25l.55-.18s-.04-.04-.04-.07z"/><path d="m186.33 562c13 16.08 43.76 11.76 53.45-1.52-10.25 5.67-40.56 6.29-53.45 1.52z"/></g><path d="m302.45 449.57a84 84 0 0 0 -13.74-30.65 76.32 76.32 0 0 0 -20.66-20.11c-5.68-3.64-12.74-7-19.68-6.34a13.53 13.53 0 0 0 -2.68.53c-61-37.94-117.46 2.31-133.65 61.07 10.76-17 27.62-33.84 49-47.47-4.34 3.53-8.65 7-12.79 10.67s-8.16 7.42-12 11.33a165.9 165.9 0 0 0 -20.73 25.26c-2 3.11-4 6.29-5.69 9.56-8.49 43.24 4.54 94.32 52.15 131.5-7.95-7-13.5-31.51-12.43-53.34a93 93 0 0 1 .95-9.66 35.27 35.27 0 0 1 -18-21.72c-1.08-3.5-1.92-6.68-1.31-10.19.65-3.68 2.31-6 5.25-7.35a29 29 0 0 1 9.37-2.43 115.23 115.23 0 0 1 21.76.24 160.38 160.38 0 0 1 22.78 3.67c19.37-10.89 37.42-26.33 44.57-39.6-.35 16.5-6.85 27.77-19.57 38.09 19.94-2 34.74-14.84 43.48-27.86 3.74 9.47 7.06 18.57 12.58 23.6s.26.53.68 1.5c2 .06 3.92.18 5.81.36a29 29 0 0 1 9.38 2.43c2.93 1.34 4.6 3.68 5.24 7.35.62 3.51-.22 6.69-1.3 10.19-.19.63-.4 1.24-.62 1.85.74-1.26 1.47-2.51 2.16-3.76a93.84 93.84 0 0 0 8.57-20.73 79.54 79.54 0 0 0 1.12-37.99z"/><path d="m215.98 542.9h3.58l-5.75-11.21h-2.31l-5.75 11.21h3.57l3.33-6.69z"/><path d="m186.33 562c12.89 4.78 43.2 4.16 53.45-1.52-15.09-1.77-38.51-2.55-53.45 1.52z"/><path d="m186.33 562c10 25 43.83 23.12 53.45-1.52-9.69 13.27-40.4 17.59-53.45 1.52z"/><path d="m259.84 356.71a82 82 0 0 1 -10.79 9.71 88.4 88.4 0 0 1 -9.08 6.05c-1.91 1.09-3.84 2.11-5.82 3.07-1.28.62-2.58 1.22-3.9 1.77l3.5-2.47c1.77-1.26 3.53-2.53 5.24-3.84q4.26-3.25 8.26-6.78a110.06 110.06 0 0 0 11.92-12.13c-.13-.59-.26-1.17-.41-1.75 0-.48.05-1 .05-1.45l-.4.22a37.73 37.73 0 0 0 -2-5.27 81.91 81.91 0 0 1 -7.33 6.22 90.07 90.07 0 0 1 -9.08 6.05 87 87 0 0 1 -9.72 4.83c3-2.08 5.9-4.13 8.74-6.31s5.6-4.42 8.26-6.77 5.1-4.67 7.48-7.16a39.15 39.15 0 0 0 -4.48-6.15 41.44 41.44 0 0 0 -31-13.72 42.07 42.07 0 0 0 -18.54 4.17 39.28 39.28 0 0 0 -21.49 27c.59-.07 1.18-.15 1.77-.25l.65-.11.63-.15 1.28-.3 1.25-.4.63-.2.62-.24 1.23-.5 1.19-.6.61-.29.57-.35 1.17-.68a22.82 22.82 0 0 1 -9.41 5.55c-.85.26-1.71.47-2.58.66-.17 1.11-.29 2.23-.36 3.37.94.18 1.88.34 2.83.46a34.41 34.41 0 0 0 10.38-.16l.65-.1.63-.15 1.28-.3 1.25-.4.63-.2.62-.25 1.23-.41 1.19-.6.61-.29.57-.35 1.17-.69a22.82 22.82 0 0 1 -9.41 5.55 31.67 31.67 0 0 1 -11 1.27c-.89-.05-1.77-.13-2.64-.23 0 .87.07 1.74.15 2.6a36.3 36.3 0 0 0 1 5.82 37.45 37.45 0 0 0 3.14 8.16 77 77 0 0 1 35.34 1.31 60 60 0 0 1 -7.21-12.21 81.33 81.33 0 0 1 -6.07-21.06 90 90 0 0 1 -1-10.86 85.36 85.36 0 0 1 .39-10.85c0 23 6.51 43.31 16.5 55.72q1.4.42 2.79.9a101.31 101.31 0 0 1 18 8.17c1.05.6 2.1 1.22 3.16 1.87a38.29 38.29 0 0 0 15.32-30.43c0-1.04-.07-2.07-.16-3.09z"/><path d="m182.57 501.13c7.15 2.83 10.52 6.06 10.52 6.06 9.62-6.42-10.52-6.06-10.52-6.06z" fill="none"/><path d="m290.83 500.31c-.54-3.09-1.85-5-4.24-6.05a27.26 27.26 0 0 0 -8.81-2.28c-1.6-.15-3.23-.26-4.91-.32-1.21-.05-2.45-.08-3.72-.08-3.84 0-8 .21-12.81.64-8.27.74-24.11 2.95-31 6.56a12 12 0 0 0 -4.68 4l-.73-.48-.77-.43a15.75 15.75 0 0 0 -14.55-.07c-.26.14-.52.28-.77.43s-.5.3-.74.47a12.08 12.08 0 0 0 -4.62-3.89 46.27 46.27 0 0 0 -10.35-3.39 166.53 166.53 0 0 0 -20.67-3.17c-4.79-.43-9-.64-12.8-.64-3.05 0-5.88.13-8.63.4a27.12 27.12 0 0 0 -8.81 2.28c-2.4 1.09-3.7 3-4.25 6.05s.24 6.1 1.26 9.37c2.87 9.31 8.45 16.15 16.6 20.43a39.07 39.07 0 0 0 4.34 1.95c11.6 4.37 27.38 1.65 38.37-6.61 7.32-5.51 11.1-12.37 10.67-19.37.27-.21.54-.42.83-.61s.54-.34.82-.49a12.32 12.32 0 0 1 12.08.09c.28.16.55.33.82.52s.57.4.85.62c-.38 6.95 3.39 13.77 10.67 19.24 11 8.26 26.77 11 38.37 6.61a36.7 36.7 0 0 0 8.81-4.73 33.55 33.55 0 0 0 12.13-17.65c1-3.3 1.79-6.27 1.24-9.4zm-97.74 6.88s-3.37-3.23-10.52-6.06c0 0 20.14-.36 10.52 6.06zm85.67-4a20.76 20.76 0 0 0 -2.59-1.57 41.7 41.7 0 0 0 -8.52-3.3 59.4 59.4 0 0 1 7.44-.42c4.55.1 8.63 1.1 3.67 5.25z"/></svg>