<svg xmlns="http://www.w3.org/2000/svg" viewBox="0 0 576.41 380.23"><defs><style>.cls-1{fill:#d5c7ff;}.cls-2{fill:#9e83f0;}.cls-3{fill:#e8e0ff;}.cls-4{fill:#d32d2f;}.cls-5{fill:#fff;}.cls-6{fill:#bd0c0e;}.cls-7{fill:#ffb4c4;}.cls-8{fill:#eda600;}.cls-9{fill:#ffce62;}.cls-10{fill:#ffb8c4;}.cls-11{fill:#a88ef3;}</style></defs><g id="Layer_2" data-name="Layer 2"><g id="Layer_2-2" data-name="Layer 2"><path class="cls-1" d="M298.87,379.19,177.63,313.64a4.8,4.8,0,0,1-.2-8.33l76-45.9a9.57,9.57,0,0,1,9.52-.22l128.14,69.28L307.44,379A8.63,8.63,0,0,1,298.87,379.19Z"/><path class="cls-2" d="M258.89,288.37c12.76,9,68.15,47,80.49,55.48a1.92,1.92,0,0,1-.09,3.22L300.6,370.68a1.91,1.91,0,0,1-2.58-.56c-6.69-9.8-43.76-64.26-43.76-65.55,0-1,1-9.92,1.62-14.86A1.92,1.92,0,0,1,258.89,288.37Z"/><path class="cls-3" d="M248.14,268.47,137.85,213a3.84,3.84,0,0,0-5.39,4.56l41.93,91.31a9.58,9.58,0,0,0,4.62,5.63l120.7,65.27a3.84,3.84,0,0,0,5.45-4.67l-49-97.52A16.28,16.28,0,0,0,248.14,268.47Z"/><path class="cls-4" d="M385.31,73.15c-.25-.75,6.23-28.63,35.06-39.82,21.29-8.27,32.32-4,35.57,3.76s-10.27,17.28-10.27,17.28,16.78-7,19,6.76-7.26,20-14.53,20.29-12.52,0-12.52,0,8,9-1,16.78-27.81-4.51-27.81-4.51Z"/><path class="cls-5" d="M335.51,98s-3,19.19-2.07,28.21,5.1,33.32,16.82,39.36,10.38,5.76,10.38,5.76l-1.42,14s-.68,11.06,14.31,9.83S397.46,181,397.46,181s-.89-.71-1.66-6.79-.91-26.37-.91-26.37,10.78,3.54,15.79-.86,5-9.24,5.19-12.6-1.16-9.1-6.65-9.1h-8.53l-2-32L372.72,79Z"/><path class="cls-4" d="M358.51,184.62A15.8,15.8,0,0,0,375.75,194c13-1.75,21-14.76,21-14.76s25.66-.17,46.45,25.63,30.81,68.38,25.3,94.18-19.54,39.07-40.08,40.33-65.38-15-65.38-15l-.65-7.89-51.8-31.6S331,189.38,358.51,184.62Z"/><path class="cls-2" d="M274.46,288.85l13-9.65a1.93,1.93,0,0,1,2.11-.12l31.76,18.42a1.92,1.92,0,0,1,.23,3.17l-15,11.85a1.94,1.94,0,0,1-2.29.07L274.51,292A1.92,1.92,0,0,1,274.46,288.85Z"/><ellipse class="cls-3" cx="206.2" cy="288.86" rx="7.41" ry="10.42" transform="translate(-98 106.05) rotate(-23.48)"/><path class="cls-6" d="M442.23,203.79c-20.62-24.66-45.51-24.51-45.51-24.51s-7.94,13-21,14.76a15.82,15.82,0,0,1-17.25-9.42c-5.46.94-10.64,5.47-15.44,12.1.27.59.57,1.2.93,1.82,10.73,18.75,60.44,21.29,88.48,13.82C436.71,211.23,440.21,207.59,442.23,203.79Z"/><path class="cls-6" d="M428.42,228.86s9.6,50.09-7.28,62.89-57.28,10-57.28,10,26.86-7.61,47.57-32.51C425.18,252.72,428.42,228.86,428.42,228.86Z"/><path d="M334.36,98a145.11,145.11,0,0,0-2.14,19.16,86.64,86.64,0,0,0,3.08,27.52,63.08,63.08,0,0,0,2.51,7,43.28,43.28,0,0,0,3.3,6.47,31.9,31.9,0,0,0,9.38,9.24,29.31,29.31,0,0,0,12.24,4.65,24.61,24.61,0,0,0,12.46-2c8.2-3.47,14.67-10.42,18.69-18.26.52-1,1-2,1.44-3.08a1.32,1.32,0,0,0-.62-1.72c-.74-.24-1.27.44-1.52,1-3.22,7.5-8.88,14.43-16.24,18.35a24.48,24.48,0,0,1-11.52,3,24.73,24.73,0,0,1-11.58-3.28,31.21,31.21,0,0,1-9.58-8.12,41.83,41.83,0,0,1-6-12.28,79,79,0,0,1-3.76-26.41,133.44,133.44,0,0,1,1.93-19.75l.27-1.61a1.15,1.15,0,0,0-1-1.38c-.76,0-1.19.79-1.3,1.44Z"/><path d="M398.61,141.06a8.6,8.6,0,0,1,2.22-4.1,9.74,9.74,0,0,1,4.24-2.63,8.53,8.53,0,0,1,2.45-.39,2.72,2.72,0,0,1,2.34.77,2.24,2.24,0,0,1,.38.95,3.52,3.52,0,0,1,0,1,3,3,0,0,1-1,1.74,3.79,3.79,0,0,1-5-.47c-.51-.51-1.34.05-1.62.53a1.57,1.57,0,0,0,.2,1.93,5.69,5.69,0,0,0,6.66.86,6.44,6.44,0,0,0,3.08-6.58,4.12,4.12,0,0,0-2.25-3.19,6.56,6.56,0,0,0-3.62-.31,12.12,12.12,0,0,0-6.39,3,12.3,12.3,0,0,0-3.93,6.91,1.14,1.14,0,0,0,1,1.38c.78,0,1.17-.79,1.3-1.44Z"/><path class="cls-4" d="M354.49,71.93C339.22,78.41,334.31,89.18,334.13,96s13.14,9.13,20.36,5.94a33,33,0,0,0,12-9.33s-2.71,7.58,4.55,9.33c5.37,1.29,11.46-5.09,11.46-5.09s1.79,4.85,5.93,4.47,8.06-4.9,8.06-4.9-9.7,19.84,2.6,29.59c10.19,1.29,14.4,2.23,14.4,2.23,2.54-5.94,3.79-33.09-6.39-45.39S371.93,64.53,354.49,71.93Z"/><path d="M367.43,201.88c6.88,3.55,14.73.2,20.34-4.16a1.75,1.75,0,0,0,.63-1.94,1,1,0,0,0-1.51-.49A25.14,25.14,0,0,1,378,200a13.59,13.59,0,0,1-9.63-.9c-.65-.34-1.35.5-1.52,1a1.37,1.37,0,0,0,.63,1.72Z"/><path d="M391.49,72.05a47.25,47.25,0,0,0-25.23-5,39.33,39.33,0,0,0-21.32,8.6,37.11,37.11,0,0,0-7.63,8.48c-2.14,3.32-4.13,7.34-3.82,11.39a7.84,7.84,0,0,0,2.68,5.35,12.74,12.74,0,0,0,5.14,2.48,24,24,0,0,0,10.37.36,26.6,26.6,0,0,0,17.37-11.23,21.6,21.6,0,0,0,1.3-2.23,1.55,1.55,0,0,0-.2-1.93,1.14,1.14,0,0,0-1.62.53,23.91,23.91,0,0,1-23.93,12.25c-3-.4-7.07-1.45-8.37-4.5-1.4-3.28.55-7.11,2.2-9.93A33,33,0,0,1,345,78.77a36.43,36.43,0,0,1,19-8.68,44.89,44.89,0,0,1,23.85,3.42c.93.39,1.85.82,2.75,1.28.65.32,1.34-.5,1.51-1a1.35,1.35,0,0,0-.62-1.72Z"/><path d="M364.89,96.28a6.21,6.21,0,0,0,.84,4.84,6.42,6.42,0,0,0,3.89,2.72c3.58.85,7.05-.86,9.73-3.12A28.65,28.65,0,0,0,383.13,97c1.21-1.5,2.4-3.28,2.21-5.3-.15-1.62-1.45-3.28-3.22-3-2.05.28-3.1,2.33-3.35,4.19-.47,3.49.32,9.06,4.85,9.21,1.43,0,1.88-2.77.29-2.82-2.51-.09-3-3.19-2.93-5.11,0-.78-.09-2.25.82-2.61s1.36.6,1.23,1.28a7.36,7.36,0,0,1-2,3,26.82,26.82,0,0,1-2.82,2.72c-2,1.61-4.24,2.89-6.85,2.74a5,5,0,0,1-3.34-1.5,4.32,4.32,0,0,1-.88-1.49A2.75,2.75,0,0,1,367,97c.13-.62.11-1.48-.63-1.72a1.33,1.33,0,0,0-1.51,1Z"/><path d="M395.81,101.85a14.6,14.6,0,0,0-1.29,12.26,1,1,0,0,0,1.51.49,1.72,1.72,0,0,0,.63-1.93,11.16,11.16,0,0,1,1-9.43,1.51,1.51,0,0,0-.2-1.92c-.58-.45-1.3,0-1.62.53Z"/><path d="M387.89,69.83a65.72,65.72,0,0,1,11.69-19,55.55,55.55,0,0,1,18.24-13.71A50.38,50.38,0,0,1,441,32.41c3.37.16,7.11.5,10.11,2.2a7.33,7.33,0,0,1,3.12,3.09,6.41,6.41,0,0,1,.18,4.79c-1.16,3.56-4,6.51-6.54,9.13-2.31,2.35-5.43,5.1-9,5a2.52,2.52,0,0,1-1.83-.67.87.87,0,0,1-.2-.48c0,.06,0,.21,0-.06,0,0-.05.2,0,0s0,0,0,0,.17-.3.12-.23c.8-1.18,2.72-1.64,4.15-1.91a21.74,21.74,0,0,1,11.06.65,14.93,14.93,0,0,1,8.06,6.31A13.14,13.14,0,0,1,462,64.69a10.84,10.84,0,0,1-.06,4.58,11.73,11.73,0,0,1-5.27,6.89,26.57,26.57,0,0,1-9.07,3.48,30.4,30.4,0,0,1-10.32.67,11.6,11.6,0,0,1-4.84-1.73,8.73,8.73,0,0,1-1.07-.83c-.1-.09-.18-.21-.28-.29s-.08-.11-.12-.18.06.13,0,0,.05-.07,0,0,.05-.08.06-.08l.15-.13a1.47,1.47,0,0,1,1.07-.22,5.9,5.9,0,0,1,2.6,1.14,14,14,0,0,1,2,1.67,13,13,0,0,1,2.82,4.2,12.53,12.53,0,0,1-.06,9.87,12.77,12.77,0,0,1-3,4.22,1.66,1.66,0,0,0-.23,2c.44.61,1.15.42,1.62,0a16.11,16.11,0,0,0,5-11.31,15.67,15.67,0,0,0-4.51-11.22,10.65,10.65,0,0,0-5.44-3.32,3.73,3.73,0,0,0-3.21.94,3.64,3.64,0,0,0-1.16,3.06c.27,2.07,2.83,3.43,4.57,4.13a17.14,17.14,0,0,0,5.93,1.08,38,38,0,0,0,11.46-1.63,22.86,22.86,0,0,0,9.61-5.24,14,14,0,0,0,4.27-10.32,16,16,0,0,0-4.37-10.42,18.37,18.37,0,0,0-10.95-5.39,24,24,0,0,0-6.34,0,13.42,13.42,0,0,0-5.95,1.8c-1.66,1.13-2.95,3.23-2,5.24.83,1.85,3,2.35,4.88,2.06,4.28-.66,7.59-3.67,10.44-6.72s6-6.84,6.8-11.27a9,9,0,0,0-1.15-6.11,9.89,9.89,0,0,0-4.16-3.55,18.6,18.6,0,0,0-5.26-1.59,46.45,46.45,0,0,0-6.55-.57,50.92,50.92,0,0,0-13.18,1.58,55.89,55.89,0,0,0-23.06,12.26,65.76,65.76,0,0,0-15.29,19.94q-1.44,2.85-2.62,5.81a1.32,1.32,0,0,0,.62,1.72c.73.24,1.28-.44,1.52-1Z"/><path class="cls-5" d="M362.79,303.85l-22.64-2.92-8.29-9.28L329.19,287h-3l-.62,6,3.82,8.07-15.51,3.06s-9.35,2.25-10.09,2.58a9.75,9.75,0,0,0-2.65,2.52c-.21.46,1.67,2.38,1.67,2.38l-1.11,3s-1,2.66-.56,2.94,2.65,1.62,2.65,1.62v3.27l2.8,1.78,21.32-7.72c-.32.1-10.05,7.72-10.05,7.72s-1.64,2.86-1.41,3.13a42.21,42.21,0,0,0,5.09.95l15.61-7.71,6.66,3.54,12.09,1,6.56-2.8Z"/><path d="M418,104.76a16.92,16.92,0,0,0,10.42,7.16,1.37,1.37,0,0,0,1.52-1c.17-.54.09-1.56-.63-1.71a15.2,15.2,0,0,1-9.46-6.43,1,1,0,0,0-1.62,0,1.68,1.68,0,0,0-.23,2Z"/><path d="M420.07,111.64a9.15,9.15,0,0,0,5.24,5.67,1,1,0,0,0,.89-.15,1.73,1.73,0,0,0,.63-.87,1.37,1.37,0,0,0-.63-1.72c-.23-.09-.45-.2-.68-.31l.27.14a8.3,8.3,0,0,1-1.28-.84,6.66,6.66,0,0,1-.56-.5l-.14-.13c-.19-.19.18.2,0,0a3.33,3.33,0,0,1-.25-.28,7.48,7.48,0,0,1-.85-1.23l-.11-.2s.12.24,0,.09-.11-.25-.17-.38-.19-.49-.27-.74a1,1,0,0,0-1.51-.49,1.77,1.77,0,0,0-.63,1.94Z"/><path d="M362.71,301.79a103.89,103.89,0,0,0-1.24,22.83,1,1,0,0,0,1.3,1,1.71,1.71,0,0,0,1-1.75A101.06,101.06,0,0,1,365,301.73a1.15,1.15,0,0,0-1-1.39c-.76,0-1.18.8-1.29,1.45Z"/><path d="M362.08,325.92c9.15,2.85,18.29,5.73,27.45,8.55,8.85,2.72,17.86,5.25,27.13,6,8.25.66,16.84-.18,24.5-3.47a42.37,42.37,0,0,0,17.61-14.65,76.43,76.43,0,0,0,9.94-20.45c.3-.88.58-1.77.85-2.66.19-.61.08-1.49-.62-1.72s-1.33.42-1.51,1a81.06,81.06,0,0,1-8.93,20.11,40.93,40.93,0,0,1-15.63,14.69c-7.2,3.64-15.46,4.78-23.45,4.44-9-.37-17.7-2.66-26.25-5.22-8.95-2.69-17.86-5.54-26.78-8.32L363,323.18c-1.42-.44-2.31,2.3-.89,2.74Z"/><path d="M427.09,226.53l1.27,18.79c.39,5.83.86,11.67.68,17.52a49.2,49.2,0,0,1-2.93,16.48,30.56,30.56,0,0,1-7.43,11.05,21.29,21.29,0,0,1-13.11,6,1.54,1.54,0,0,0-1.29,1.45c-.06.6.27,1.42,1,1.38,9.85-.61,17.86-8.12,21.91-16.71,5.13-10.88,4.44-23.31,3.66-35q-.74-10.86-1.46-21.72a1,1,0,0,0-1.31-1,1.71,1.71,0,0,0-1,1.75Z"/><path d="M393.71,149.08a177,177,0,0,0,.78,26.65,1,1,0,0,0,1.3,1,1.69,1.69,0,0,0,1-1.75A170.11,170.11,0,0,1,396,149c0-.63-.26-1.4-1-1.39a1.55,1.55,0,0,0-1.29,1.45Z"/><path d="M357.81,185.85c2,5,6.7,8.3,11.85,9.34,5.74,1.17,11.52-.56,16.3-3.79a34.92,34.92,0,0,0,7.52-7,1.69,1.69,0,0,0,.23-2,1,1,0,0,0-1.62,0c-3.45,4.25-7.86,7.91-13.17,9.53a16.85,16.85,0,0,1-14-1.74,12.56,12.56,0,0,1-5-5.82,1,1,0,0,0-1.51-.49,1.73,1.73,0,0,0-.63,1.94Z"/><path d="M197.17,287.78a12.62,12.62,0,0,0,7,12.37,8.67,8.67,0,0,0,3.89,1,5,5,0,0,0,3.61-1.76,10.94,10.94,0,0,0,2.29-7.42,15.13,15.13,0,0,0-6.68-12.28,8.31,8.31,0,0,0-3.55-1.45,3.17,3.17,0,0,0-3.37,2.16c-.88,2.58.38,5.53,2.31,7.26a6.71,6.71,0,0,0,7.79.9,8.07,8.07,0,0,0,4.08-7.51,1,1,0,0,0-1.3-1,1.7,1.7,0,0,0-1,1.74,4,4,0,0,1-.54,2.27,5.1,5.1,0,0,1-1.69,1.77,4.65,4.65,0,0,1-5,0,5.24,5.24,0,0,1-2.62-4.22c0-.15,0-.47.1-.59s0,.06.05,0a1.83,1.83,0,0,1,1.24,0,8.24,8.24,0,0,1,2.4,1.22,12.85,12.85,0,0,1,5.42,9.38,8.62,8.62,0,0,1-1,5.12,2.79,2.79,0,0,1-1.83,1.4,5.85,5.85,0,0,1-3.15-.56,10.14,10.14,0,0,1-6.18-9.95c.06-.63-.28-1.4-1-1.39a1.54,1.54,0,0,0-1.29,1.44Z"/><path d="M372.8,303.7l5.11.38a1.26,1.26,0,0,0,.85-.42,1.86,1.86,0,0,0,.45-1,1.17,1.17,0,0,0-1-1.39l-5.11-.38a1.26,1.26,0,0,0-.84.42,1.79,1.79,0,0,0-.45,1c0,.69.26,1.33,1,1.39Z"/><path d="M372.79,309.58l6.36.69a1.21,1.21,0,0,0,.84-.43,1.73,1.73,0,0,0,.45-1,1.15,1.15,0,0,0-1-1.38l-6.36-.69a1.21,1.21,0,0,0-.84.43,1.73,1.73,0,0,0-.45,1,1.15,1.15,0,0,0,1,1.38Z"/><path d="M359.89,145.46a5.11,5.11,0,0,1-2.09,2.89,5.67,5.67,0,0,1-3.72,1,5.84,5.84,0,0,1-5.07-5.06,1,1,0,0,0-1.3-1,1.67,1.67,0,0,0-1,1.75,8,8,0,0,0,7.07,7.1,8.26,8.26,0,0,0,8.23-6c.17-.61.09-1.49-.62-1.72s-1.34.42-1.51,1Z"/><path d="M351.62,116.76l-4.23,11.52-2.07,5.65a3.8,3.8,0,0,0-.24,2.93c.43.93,1.43,1.19,2.31,1.51l6.66,2.41c1.39.5,2.29-2.23.89-2.74l-6.77-2.45c-.28-.1-.58-.19-.85-.31a.43.43,0,0,1-.21-.11.72.72,0,0,1,.07.25s.4-1.12.44-1.24l1.22-3.32,4.91-13.41a1.33,1.33,0,0,0-.62-1.72c-.71-.23-1.3.43-1.51,1Z"/><ellipse cx="367.51" cy="124.96" rx="3.2" ry="4.38"/><ellipse cx="340.92" cy="124.96" rx="3.2" ry="4.38"/><path d="M364.93,114.72a15.5,15.5,0,0,1,10,3.48c1.21,1,2.54-1.55,1.42-2.45a17.31,17.31,0,0,0-11.11-3.86c-1.43,0-1.88,2.85-.29,2.83Z"/><path d="M337.11,116a13,13,0,0,1,8.54-1.75,1.18,1.18,0,0,0,.84-.42,1.79,1.79,0,0,0,.45-1,1.15,1.15,0,0,0-1-1.38,14.9,14.9,0,0,0-9.72,2.14,1.71,1.71,0,0,0-.62,1.94,1,1,0,0,0,1.51.49Z"/><path d="M394.44,149.24c4.05,1.14,8.32,1.9,12.47.85a12.41,12.41,0,0,0,8.35-6.78,18.07,18.07,0,0,0,1.28-11.11,9.08,9.08,0,0,0-2.86-5,13.57,13.57,0,0,0-5.06-2.61,16.79,16.79,0,0,0-12.56,1.35c-1.28.69-.71,3.28.89,2.43a14.42,14.42,0,0,1,9.44-1.37c3.05.6,6.48,2.11,7.61,5.24a14,14,0,0,1-.3,9,9.53,9.53,0,0,1-6.27,5.92c-4,1.27-8.2.46-12.1-.64-1.44-.41-2.32,2.33-.89,2.74Z"/><path d="M363.3,302.48a126.19,126.19,0,0,0-49.07.25q-4,.81-7.91,1.87c-2.35.64-5.21,1.41-6.21,3.91-.89,2.2.5,4.14,2.53,4.89a9.44,9.44,0,0,0,4,.53,1.55,1.55,0,0,0,1.29-1.44c.06-.58-.27-1.46-1-1.39a6.42,6.42,0,0,1-1.16,0l-.4,0c-.05,0-.46-.06-.24,0a7.43,7.43,0,0,1-1-.22,3.59,3.59,0,0,1-1.56-.73l-.16-.15s.13.16,0,0-.22-.39-.12-.17c0-.09-.11-.44-.08-.19,0-.08,0-.28,0-.2.25-.71,1.55-1.17,2.21-1.4,1.13-.4,2.3-.68,3.45-1q3.66-1,7.38-1.69a124.91,124.91,0,0,1,47.2-.09,1.35,1.35,0,0,0,1.51-1c.17-.53.09-1.58-.62-1.72Z"/><path d="M304.43,320.71a4.87,4.87,0,0,1-3.29-1.07,4.1,4.1,0,0,1-1.28-4,4.58,4.58,0,0,1,2.88-3.49c3-1,18.94-5.9,19.62-6.11a1.44,1.44,0,1,1,.84,2.76c-.16.05-16.58,5.08-19.54,6.08a1.72,1.72,0,0,0-1,1.31,1.3,1.3,0,0,0,.32,1.23c.26.22,1.34.86,4.43-.25a1.43,1.43,0,0,1,1.84.86,1.45,1.45,0,0,1-.87,1.85A11.85,11.85,0,0,1,304.43,320.71Z"/><path d="M324.21,310.86c-5.86,2.19-11.76,4.36-17.53,6.79-1.27.53-2.6,1-3.36,2.22a3.89,3.89,0,0,0,.24,4.54c1.39,1.57,3.66,1.5,5.54,1a27,27,0,0,0,4-1.61c1.35-.59,2.71-1.15,4.08-1.7q6.11-2.46,12.35-4.61l-.6-2.58a64.06,64.06,0,0,0-11.85,8.5,5.07,5.07,0,0,0-2,3.18,2.73,2.73,0,0,0,1.62,2.77c2,1,4.71.27,6.69-.44a52,52,0,0,0,7-3.27c1.09-.58,2.18-1.19,3.25-1.82l1.64-1a4.59,4.59,0,0,1,1.42-.74c.88-.19,1.76.81,2.44,1.24a17.31,17.31,0,0,0,2.87,1.48,20.84,20.84,0,0,0,6.39,1.35,29.77,29.77,0,0,0,7.42-.53c2.35-.44,4.83-1.11,6.41-3a1.71,1.71,0,0,0,.23-2,1,1,0,0,0-1.63,0c-1.17,1.45-3.1,1.88-4.85,2.23a29.4,29.4,0,0,1-5.84.55,20.07,20.07,0,0,1-5.82-.82,16.38,16.38,0,0,1-2.62-1,22.05,22.05,0,0,1-2.44-1.57,3.31,3.31,0,0,0-3.06-.53,17.67,17.67,0,0,0-3,1.67c-2,1.17-4,2.28-6.06,3.29a22.92,22.92,0,0,1-6.42,2.43,5.73,5.73,0,0,1-2.79-.06c-.2-.08-.55-.26-.57-.39,0,.24.25-.19.35-.3a42,42,0,0,1,5.65-4.66,61.77,61.77,0,0,1,6.43-4.09c1.06-.58.91-3.09-.59-2.57-3.17,1.09-6.32,2.26-9.45,3.47-2.62,1-5.23,2.06-7.79,3.2a16.65,16.65,0,0,1-3.68,1.36,5.79,5.79,0,0,1-1.44.09,2.93,2.93,0,0,1-1-.21l-.21-.09c.27.12,0,0,0,0l-.33-.25c-.06-.05-.21-.24,0,0,0-.05-.1-.11-.14-.17a.76.76,0,0,0-.12-.19c-.13-.15.05.24,0,0a1.18,1.18,0,0,0-.07-.2c-.12-.2,0,.29,0,.06s0-.24,0-.35c.08.56-.06-.06,0-.12s-.15.39,0,.17c0-.05,0-.24.09-.27-.13.06-.15.35,0,.1a1.3,1.3,0,0,0,.1-.15c0-.13-.25.23-.06.09a.73.73,0,0,0,.14-.16c.14-.19-.24.13,0,0l.13-.09a2.12,2.12,0,0,0,.2-.12c-.23.19-.19.09-.06,0l1.38-.61c3.3-1.39,6.65-2.66,10-3.94,2.55-1,5.1-1.94,7.65-2.89a1.71,1.71,0,0,0,1-1.75,1,1,0,0,0-1.31-1Z"/><path d="M330.58,303.3c1.49,0,2-2.94.3-2.94-1.49,0-1.95,2.94-.3,2.94Z"/><path d="M331.65,300.81a21.49,21.49,0,0,1-3.16-6,21,21,0,0,1-.8-3.22,12.27,12.27,0,0,1-.25-3.18c0-.47-.11.16-.13.06s.35,0,.35,0a1.63,1.63,0,0,1,.95.68c.67.88,1.21,1.88,1.84,2.79a47,47,0,0,0,10.3,10.56c1.27.94,2.58-1.6,1.43-2.46a44.1,44.1,0,0,1-10.62-11.22,7.52,7.52,0,0,0-2.37-2.81,2.62,2.62,0,0,0-3.57,1,6.68,6.68,0,0,0-.41,4,25,25,0,0,0,.73,3.93,23.42,23.42,0,0,0,3.87,7.93c1,1.35,2.69-.88,1.84-2Z"/><path class="cls-4" d="M177.94,125.09l10.85-27.86A16.32,16.32,0,0,1,201.3,87.06l56.14-9.42a16.34,16.34,0,0,1,17.82,10l11.3,27.84a12.47,12.47,0,0,1-.83,11.06l-42.49,71.61a6.72,6.72,0,0,1-10.89.93l-52.28-61.32A12.48,12.48,0,0,1,177.94,125.09Z"/><polygon class="cls-7" points="192.5 96.32 224.69 90.75 213.38 128.25 192.5 96.32"/><polygon class="cls-6" points="236.76 90.75 256.43 120.58 266.68 85.48 236.76 90.75"/><polygon class="cls-7" points="262.87 120.58 275.26 87.6 286.56 115.44 262.87 120.58"/><polygon class="cls-6" points="285.73 126.5 262.87 129.31 246.28 192.98 285.73 126.5"/><polygon class="cls-6" points="180.07 137.72 206.2 137.25 232.35 199.04 180.07 137.72"/><path class="cls-7" d="M192.34,109.48l10.75,18.11c.36.62,1.21.43,1.62,0a1.69,1.69,0,0,0,.22-2l-10.75-18.12c-.36-.61-1.21-.43-1.62,0a1.69,1.69,0,0,0-.22,2Z"/><path class="cls-7" d="M222.64,126.4a198.6,198.6,0,0,0,25.39-3,1.57,1.57,0,0,0,1.3-1.44c0-.53-.28-1.51-1-1.38a200.41,200.41,0,0,1-25.39,3c-1.43.07-1.86,2.9-.29,2.82Z"/><path class="cls-7" d="M259.61,127.15l-9,37.22-2.53,10.47c-.15.62-.1,1.49.62,1.72a1.33,1.33,0,0,0,1.51-1l9-37.23,2.54-10.47c.15-.61.09-1.48-.63-1.71s-1.36.41-1.51,1Z"/><polygon class="cls-8" points="6.45 145.49 26.2 159.89 1.32 183.21 33.4 189.47 33.63 213.09 60.88 191.66 68.02 214.73 78.9 191.27 101.43 189.52 82.94 174.71 105.25 152.44 77.06 153.39 83.4 110.3 40.98 143.68 6.45 145.49"/><path class="cls-9" d="M81.39,109,54.22,129.79a1.28,1.28,0,0,1-1.63-.06L33.05,112.22a1.27,1.27,0,0,0-2.11,1.13l3.81,27.2a1.27,1.27,0,0,1-1.2,1.45L7.07,143.14a1.27,1.27,0,0,0-.62,2.35l19.63,12.34a1.28,1.28,0,0,1,.13,2.06L.47,181a1.27,1.27,0,0,0,.85,2.26l31.28-1.16a1.28,1.28,0,0,1,1.32,1.38l-2.48,28.68a1.27,1.27,0,0,0,2.19,1l19.82-21.23a1.28,1.28,0,0,1,2.1.35l10.07,22.72a1.28,1.28,0,0,0,2.4-.2l7.22-27.54a1.27,1.27,0,0,1,1.39-.94l24.8,3.27a1.27,1.27,0,0,0,1.11-2.11l-18.18-20a1.27,1.27,0,0,1,.27-1.93l20.63-13a1.27,1.27,0,0,0-.43-2.32l-28.78-5.87a1.28,1.28,0,0,1-1-1.56L83.4,110.3A1.28,1.28,0,0,0,81.39,109Z"/><circle cx="65.06" cy="152.79" r="2.66"/><circle cx="40.77" cy="162.25" r="2.66"/><path d="M46.77,167.3a9.1,9.1,0,0,0,11,2.3A9.86,9.86,0,0,0,62.54,159c-.17-.78-.79-1.63-1.7-1.36a2,2,0,0,0-1.11,2.21,5.28,5.28,0,0,1-.4,3.65,6.16,6.16,0,0,1-2.69,2.82,6.69,6.69,0,0,1-7.72-1.5c-1.51-1.74-3.36,1.1-2.15,2.51Z"/><path class="cls-9" d="M556.49,245.24l-8-9.07c6-5.36,15.65-16.48,15.84-23.5a4.34,4.34,0,0,0-1.34-3.49c-.44-.42-2.33-.8-6.7.5-4.93,1.48-10.91,4.4-17.24,7.49-7.69,3.76-15.65,7.65-22.81,9.4-12.51,3-18.65-1.85-21.6-6.49-2.67-4.21-4.38-11,2.66-19.54,3.89-4.71,9.62-9.09,15.68-13.72,15.94-12.2,21.86-18.34,17.23-24.82-3.17-4.45-10.44-3.42-21.17-1.35-5.07,1-10.32,2-15.06,1.85-6.6-.2-11.45-2.66-14.41-7.33-3.5-5.53-5.46-14.79,5.13-27.55a72.28,72.28,0,0,1,12.19-11.42l7.06,9.85c-4.13,3-18.64,15.54-14.14,22.62,1.75,2.77,8.12,1.78,16.93.08,11.32-2.19,25.4-4.91,33.34,6.2,3.83,5.37,6.76,14-1.06,24.54-4.58,6.18-11.75,11.66-18.68,16.95-5.49,4.21-10.69,8.18-13.7,11.83s-2.19,4.64-1.76,5.32c.58.92,1.8,2.83,8.5,1.2,5.88-1.43,13.23-5,20.35-8.51,6.79-3.32,13.21-6.45,19.1-8.21,3.07-.92,12.41-3.71,18.69,2.5A16.5,16.5,0,0,1,576.41,213C576,227.52,558.49,243.47,556.49,245.24Z"/><path class="cls-10" d="M40.4,258.9a42,42,0,0,1,2.53-5.38,51.84,51.84,0,0,1,9.45-12.21l6.82,7.53a42.32,42.32,0,0,0-7.5,9.84c-3.92,7.19-4.48,13.93-1.65,20a20.27,20.27,0,0,0,3.76,5.61q.33-1.14.75-2.25c4.9-12.76,18.33-21.75,25.32-23.4,8.69-2.06,17.15,2,20.57,9.92,3,7.05,2.07,18.29-10.77,26.8-5.29,3.51-14.56,6.22-24.1,5.11a33,33,0,0,0,7.35,8.08c24.38,20.05,38.14,7.13,38.28,7l7.1,7.28a28.08,28.08,0,0,1-14.72,6.72c-14.66,2.31-28.28-5.87-37.12-13.14-8.39-6.9-12-13.79-13.26-19.84A29.52,29.52,0,0,1,40.82,283C37.34,275.46,37.21,267.23,40.4,258.9Zm50.77,20a8,8,0,0,0,0-6.27c-1.68-3.88-5.68-4.84-8.9-4.08-4.41,1-16.5,9.19-18.91,19.58-.12.51-.21,1-.28,1.54,7.84,2.15,16.49.25,21-2.76C87.11,284.89,90,282.05,91.17,278.9Z"/><path class="cls-11" d="M214.4,26.81l-13.2,3.66c-2.31-8.33-7.51-14.38-13.91-16.2-5.73-1.62-12,.4-17.74,5.7-5.4,5-6.43,11.29-7.63,18.56-1.38,8.4-2.95,17.93-12,25.13-14.93,11.92-33-.15-40.51-8.19l10-9.35c.13.14,13.19,13.83,21.94,6.83,4.66-3.72,5.7-8.75,7-16.65,1.33-8.09,3-18.16,11.82-26.37C169.57,1.26,180.51-1.88,191,1.1,202.06,4.22,210.8,13.83,214.4,26.81Z"/></g></g></svg>