<svg width="1257" height="218" viewBox="0 0 1257 218" fill="none" xmlns="http://www.w3.org/2000/svg">
<g clip-path="url(#clip0)">
<path d="M730.483 55.9599C730.483 52.3152 732.311 50.4943 735.965 50.4971H773.33C778.373 50.4476 783.383 51.3132 788.115 53.0518C792.474 54.6537 796.438 57.1683 799.741 60.4264C803.022 63.7384 805.593 67.6816 807.297 72.0161C809.171 76.8185 810.101 81.9359 810.034 87.0888C810.096 92.2689 809.167 97.4134 807.297 102.247C805.595 106.632 803.025 110.632 799.741 114.007C796.448 117.316 792.484 119.885 788.115 121.543C783.397 123.341 778.382 124.24 773.33 124.191H746.758V161.954C746.758 165.599 744.932 167.421 741.281 167.421H735.965C732.311 167.421 730.483 165.599 730.483 161.954V55.9599ZM770.675 109.957C777.759 109.957 783.324 107.914 787.368 103.826C791.413 99.7387 793.432 94.1624 793.426 87.0973C793.426 80.035 791.407 74.5424 787.368 70.6196C783.329 66.6967 777.82 64.7367 770.841 64.7395H746.758V109.957H770.675Z" fill="#003357"/>
<path d="M811.516 125.525C811.516 118.9 812.596 112.882 814.756 107.472C816.744 102.328 819.735 97.6272 823.555 93.6424C827.316 89.7972 831.841 86.779 836.841 84.7819C842.145 82.656 847.815 81.5871 853.53 81.6354C859.285 81.6354 864.434 82.6288 868.977 84.6158C873.343 86.4832 877.228 89.3149 880.337 92.8973C883.472 96.5925 885.843 100.87 887.313 105.483C888.97 110.677 889.783 116.102 889.721 121.552C889.734 122.285 889.601 123.014 889.331 123.695C889.061 124.377 888.658 124.999 888.146 125.525C887.624 126.072 886.991 126.503 886.29 126.789C885.588 127.074 884.834 127.208 884.077 127.181H827.957C828.096 131.358 829.056 135.466 830.783 139.273C832.33 142.65 834.531 145.689 837.26 148.215C839.88 150.621 842.958 152.478 846.311 153.678C849.747 154.904 853.373 155.521 857.022 155.5C861.67 155.5 865.712 154.755 869.147 153.265C872.583 151.774 875.24 150.311 877.118 148.875C880.44 147.112 882.93 147.719 884.59 150.697L886.084 153.184C886.972 154.62 887.276 155.972 886.997 157.241C886.719 158.51 885.865 159.586 884.436 160.469C881.028 162.878 877.316 164.828 873.395 166.268C870.797 167.21 868.131 167.957 865.42 168.503C862.329 169.125 859.182 169.431 856.028 169.414C849.385 169.414 843.349 168.279 837.921 166.008C832.678 163.867 827.91 160.715 823.888 156.735C819.926 152.765 816.819 148.03 814.756 142.82C812.568 137.317 811.468 131.444 811.516 125.525ZM873.63 116.583C873.408 109.186 871.332 103.61 867.401 99.8545C865.527 98.0237 863.306 96.5828 860.869 95.6158C858.431 94.6487 855.825 94.1747 853.201 94.2214C847.002 94.2214 841.66 96.1815 837.174 100.101C832.689 104.022 829.842 109.516 828.636 116.583H873.63Z" fill="#003357"/>
<path d="M899.37 89.0859C899.37 85.4412 901.197 83.6203 904.852 83.6232H909.501C913.156 83.6232 914.983 85.4441 914.983 89.0859V96.5414C914.982 97.6538 914.871 98.7635 914.65 99.8539C914.534 100.342 914.478 100.843 914.483 101.344H914.817C915.834 99.1719 917.086 97.1173 918.552 95.2172C920.411 92.7546 922.622 90.577 925.114 88.7538C927.971 86.6603 931.099 84.9616 934.413 83.7041C937.956 82.3245 942.053 81.6348 946.704 81.6348C956.666 81.6348 963.945 84.3115 968.542 89.665C973.138 95.0185 975.437 103.052 975.437 113.764V161.963C975.437 165.607 973.609 167.43 969.955 167.43H964.806C961.152 167.43 959.324 165.607 959.324 161.963V117.409C959.34 114.638 959.146 111.869 958.744 109.127C958.426 106.797 957.665 104.548 956.502 102.502C955.353 100.588 953.683 99.0377 951.686 98.0316C949.583 96.9303 946.871 96.3782 943.549 96.3753C939.653 96.3317 935.796 97.1519 932.257 98.7767C928.881 100.334 925.857 102.559 923.368 105.317C920.809 108.196 918.835 111.543 917.557 115.174C916.156 119.079 915.453 123.199 915.483 127.347V161.963C915.483 165.607 913.655 167.43 910.001 167.43H904.852C901.197 167.43 899.37 165.607 899.37 161.963V89.0859Z" fill="#003357"/>
<path d="M986.217 160.307C984.774 159.424 983.998 158.32 983.89 156.994C983.816 155.526 984.224 154.073 985.051 152.856L986.712 150.535C987.819 149.099 988.958 148.327 990.127 148.219C991.297 148.111 992.709 148.497 994.363 149.377C996.932 150.968 999.593 152.406 1002.33 153.682C1005.75 155.337 1009.96 156.165 1014.95 156.168C1019.16 156.168 1022.6 155.202 1025.25 153.269C1027.91 151.336 1029.24 148.602 1029.24 145.068C1029.28 143.785 1029 142.512 1028.44 141.358C1027.87 140.204 1027.03 139.204 1026 138.443C1023.51 136.602 1020.81 135.073 1017.95 133.891C1014.72 132.512 1011.26 131.186 1007.56 129.915C1003.92 128.676 1000.43 127.008 997.185 124.946C994.042 122.968 991.308 120.41 989.128 117.409C986.974 114.429 985.895 110.564 985.892 105.815C985.892 101.841 986.695 98.3358 988.3 95.2986C989.865 92.3095 992.111 89.7282 994.858 87.7622C997.806 85.69 1001.09 84.1481 1004.57 83.2064C1008.39 82.1451 1012.33 81.6163 1016.29 81.6353C1022.15 81.6353 1026.99 82.4073 1030.8 83.9515C1033.81 85.1095 1036.73 86.4945 1039.52 88.0944C1041.07 88.8693 1041.98 89.8897 1042.26 91.1557C1042.54 92.4217 1042.23 93.8296 1041.35 95.3795L1039.85 97.866C1038.3 100.625 1035.87 101.233 1032.55 99.6884C1030.32 98.4843 1028.02 97.433 1025.65 96.5419C1022.83 95.4405 1019.43 94.8884 1015.44 94.8856C1011.45 94.8827 1008.12 95.7655 1005.43 97.5339C1002.71 99.3023 1001.36 101.952 1001.36 105.483C1001.32 106.776 1001.6 108.058 1002.16 109.225C1002.72 110.392 1003.54 111.409 1004.57 112.194C1007.04 114.077 1009.75 115.61 1012.63 116.749C1015.84 118.075 1019.3 119.399 1023.01 120.722C1026.63 122 1030.1 123.637 1033.39 125.606C1036.57 127.505 1039.31 130.042 1041.45 133.057C1043.61 136.097 1044.69 139.99 1044.69 144.736C1044.72 148.121 1043.99 151.471 1042.55 154.538C1041.12 157.605 1039.01 160.311 1036.38 162.457C1033.56 164.758 1030.32 166.501 1026.84 167.592C1022.83 168.851 1018.65 169.466 1014.45 169.414C1011.19 169.44 1007.94 169.135 1004.74 168.503C1002.04 167.966 999.402 167.19 996.847 166.183C994.704 165.334 992.623 164.338 990.618 163.202C989.081 162.348 987.609 161.38 986.217 160.307Z" fill="#003357"/>
<path d="M1059.8 66.8949C1056.14 66.8949 1054.32 65.0725 1054.32 61.4279V55.9608C1054.32 52.3161 1056.14 50.4952 1059.8 50.4981H1065.45C1069.1 50.4981 1070.93 52.319 1070.92 55.9608V61.4279C1070.92 65.0725 1069.1 66.8949 1065.45 66.8949H1059.8ZM1054.48 89.0866C1054.48 85.4419 1056.31 83.621 1059.97 83.6238H1065.11C1068.77 83.6238 1070.6 85.4448 1070.6 89.0866V161.963C1070.6 165.608 1068.77 167.43 1065.11 167.43H1059.97C1056.31 167.43 1054.48 165.608 1054.48 161.963V89.0866Z" fill="#003357"/>
<path d="M1080.39 125.358C1080.34 119.354 1081.55 113.405 1083.96 107.901C1086.24 102.689 1089.52 97.9652 1093.6 93.991C1097.7 90.033 1102.56 86.9348 1107.88 84.8793C1119.28 80.5767 1131.86 80.5767 1143.25 84.8793C1148.59 86.9358 1153.47 90.0298 1157.61 93.9818C1161.74 97.9338 1165.05 102.665 1167.34 107.901C1169.69 113.457 1170.9 119.427 1170.9 125.458C1170.9 131.49 1169.69 137.46 1167.34 143.015C1165.04 148.244 1161.74 152.972 1157.62 156.93C1153.47 160.887 1148.59 164.008 1143.25 166.123C1131.88 170.54 1119.26 170.54 1107.88 166.123C1102.57 164.029 1097.72 160.91 1093.62 156.945C1089.51 152.98 1086.24 148.246 1083.97 143.015C1081.54 137.448 1080.32 131.43 1080.39 125.358ZM1096.67 125.358C1096.62 129.53 1097.41 133.67 1099 137.531C1100.44 141.075 1102.55 144.309 1105.22 147.056C1109.26 151.104 1114.43 153.857 1120.05 154.966C1125.67 156.075 1131.49 155.488 1136.78 153.281C1140.22 151.821 1143.35 149.712 1145.99 147.069C1148.7 144.346 1150.82 141.098 1152.22 137.527C1153.75 133.652 1154.51 129.518 1154.46 125.354C1154.5 121.272 1153.74 117.222 1152.22 113.432C1150.8 109.901 1148.68 106.691 1145.99 103.993C1143.35 101.352 1140.22 99.2446 1136.78 97.7847C1131.5 95.5395 1125.67 94.9308 1120.04 96.0381C1114.41 97.1454 1109.25 99.9172 1105.22 103.993C1099.67 109.718 1096.6 117.394 1096.68 125.358H1096.67Z" fill="#003357"/>
<path d="M1180.7 89.0859C1180.7 85.4412 1182.53 83.6203 1186.18 83.6232H1190.83C1194.49 83.6232 1196.31 85.4441 1196.31 89.0859V96.5414C1196.31 97.6536 1196.2 98.763 1195.98 99.8539C1195.87 100.342 1195.81 100.843 1195.82 101.344H1196.15C1197.16 99.171 1198.42 97.1162 1199.88 95.2172C1201.74 92.7557 1203.95 90.5782 1206.44 88.7538C1209.3 86.6602 1212.43 84.9616 1215.75 83.7041C1219.28 82.3245 1223.38 81.6348 1228.03 81.6348C1237.99 81.6348 1245.27 84.3115 1249.87 89.665C1254.47 95.0185 1256.77 103.052 1256.76 113.764V161.963C1256.76 165.607 1254.94 167.43 1251.28 167.43H1246.13C1242.48 167.43 1240.66 165.607 1240.66 161.963V117.409C1240.67 114.638 1240.48 111.87 1240.08 109.127C1239.76 106.797 1238.99 104.549 1237.83 102.502C1236.68 100.586 1235.01 99.0354 1233.01 98.0316C1230.91 96.9303 1228.2 96.3782 1224.88 96.3753C1220.98 96.3327 1217.12 97.1528 1213.59 98.7767C1210.21 100.335 1207.19 102.56 1204.7 105.317C1202.14 108.194 1200.16 111.542 1198.89 115.174C1197.49 119.079 1196.78 123.199 1196.81 127.347V161.963C1196.81 165.607 1194.98 167.43 1191.33 167.43H1186.21C1182.55 167.43 1180.72 165.607 1180.72 161.963L1180.7 89.0859Z" fill="#003357"/>
<path d="M109.295 0C48.9352 0 0 48.803 0 109C0 169.197 48.9352 218 109.295 218C169.655 218 218.59 169.201 218.59 109C218.59 48.7988 169.659 0 109.295 0ZM143.117 122.51C128.174 152.945 96.7048 174.63 60.2532 180.727C57.9093 181.119 57.0426 177.768 59.2798 176.963C73.1978 171.947 100.12 158.229 113.85 136.582C124.9 120.432 131.735 88.4688 63.8394 95.6134C61.6279 95.8476 60.6673 92.369 62.708 91.5046C84.4176 82.3248 100.966 80.4769 117.578 80.2768C137.345 80.4727 159.746 89.9463 143.117 122.51ZM144.731 72.3573C136.013 72.3573 128.934 64.574 128.934 54.9726C128.934 45.3713 136 37.5837 144.731 37.5837C153.461 37.5837 160.527 45.367 160.527 54.9726C160.527 64.5782 153.427 72.3573 144.731 72.3573Z" fill="#003357"/>
<path d="M275.543 157.327C274.517 156.47 273.79 155.31 273.468 154.014C273.184 152.799 273.653 151.364 274.877 149.709L277.703 145.732C279.696 143.195 282.186 142.864 285.175 144.74C286.168 145.51 287.497 146.421 289.162 147.474C291.003 148.619 292.917 149.641 294.892 150.535C297.223 151.59 299.639 152.444 302.116 153.09C304.934 153.83 307.838 154.192 310.752 154.167C317.062 154.167 322.072 152.649 325.78 149.611C329.489 146.574 331.339 142.516 331.331 137.438C331.331 133.132 329.947 129.598 327.181 126.836C324.095 123.856 320.565 121.369 316.717 119.466C312.516 117.314 307.984 115.221 303.123 113.186C298.384 111.214 293.827 108.831 289.504 106.067C285.388 103.447 281.833 100.04 279.044 96.0438C276.272 92.0698 274.887 87.0456 274.89 80.9711C274.794 76.4642 275.732 71.995 277.632 67.9046C279.532 63.8143 282.344 60.2111 285.854 57.3701C289.455 54.4629 293.564 52.2442 297.974 50.8258C302.797 49.2546 307.843 48.4724 312.917 48.5096C316.212 48.4939 319.501 48.7991 322.736 49.4207C325.609 49.9674 328.439 50.7143 331.207 51.6561C333.501 52.4285 335.724 53.3987 337.85 54.5557C339.42 55.4008 340.92 56.3689 342.337 57.451C344.992 59.3329 345.546 61.8181 343.998 64.9064L341.671 69.045C340.676 70.812 339.536 71.7232 338.255 71.7785C336.804 71.786 335.385 71.3523 334.187 70.5352C331.367 68.9067 328.454 67.4424 325.465 66.1497C321.867 64.5488 317.578 63.7483 312.597 63.7483C306.506 63.7483 301.468 65.2101 297.483 68.1338C293.499 71.0575 291.506 75.0613 291.506 80.1451C291.506 84.3405 292.891 87.7624 295.66 90.4107C298.755 93.2863 302.282 95.6624 306.112 97.4531C310.321 99.4969 314.861 101.484 319.731 103.414C324.498 105.294 329.061 107.652 333.35 110.452C337.473 113.133 341.028 116.595 343.814 120.641C346.572 124.675 347.951 129.837 347.951 136.127C347.987 140.581 347.141 144.998 345.462 149.126C343.827 153.13 341.332 156.729 338.153 159.668C334.746 162.77 330.771 165.187 326.446 166.787C321.85 168.553 316.618 169.437 310.752 169.44C306.759 169.457 302.776 169.036 298.875 168.184C295.438 167.44 292.076 166.387 288.829 165.037C286.1 163.903 283.457 162.571 280.923 161.052C279.042 159.941 277.244 158.696 275.543 157.327Z" fill="#003357"/>
<path d="M357.416 89.0863C357.416 85.4416 359.244 83.6207 362.898 83.6235H367.548C371.202 83.6235 373.029 85.4445 373.029 89.0863V96.5418C373.029 97.6542 372.917 98.7638 372.696 99.8543C372.58 100.342 372.524 100.843 372.53 101.345H372.863C373.968 98.7408 375.451 96.3134 377.265 94.1403C379.236 91.7347 381.535 89.6164 384.095 87.8473C386.721 86.0097 389.567 84.5064 392.566 83.3723C395.615 82.2133 398.853 81.6244 402.116 81.6351C415.952 81.6351 424.365 87.9835 427.357 100.68H427.69C428.896 98.1009 430.461 95.7042 432.339 93.5613C434.337 91.2358 436.625 89.1752 439.149 87.43C441.76 85.6347 444.612 84.2129 447.619 83.2063C450.776 82.1493 454.087 81.6185 457.417 81.6351C467.049 81.6351 474.08 84.3119 478.512 89.6654C482.943 95.0189 485.158 103.052 485.155 113.765V161.963C485.155 165.608 483.328 167.43 479.673 167.43H474.524C470.87 167.43 469.042 165.608 469.042 161.963V117.256C469.058 114.485 468.864 111.717 468.462 108.975C468.146 106.655 467.414 104.411 466.301 102.349C465.25 100.475 463.698 98.9272 461.819 97.8787C459.866 96.7774 457.346 96.2267 454.258 96.2267C450.585 96.1729 446.968 97.1179 443.794 98.9602C440.673 100.794 437.981 103.272 435.9 106.228C433.686 109.376 432.029 112.878 430.998 116.583C429.898 120.407 429.339 124.365 429.338 128.343V161.98C429.338 165.625 427.566 167.447 424.022 167.447H418.703C415.153 167.447 413.382 165.625 413.387 161.98V117.273C413.394 114.615 413.227 111.96 412.888 109.324C412.618 106.99 411.943 104.721 410.894 102.618C409.906 100.668 408.378 99.0412 406.492 97.9298C404.554 96.7944 401.975 96.2267 398.756 96.2267C395.009 96.1702 391.318 97.1376 388.083 99.0241C384.935 100.895 382.218 103.406 380.108 106.394C377.89 109.542 376.227 113.044 375.19 116.749C374.095 120.517 373.536 124.42 373.529 128.343V161.98C373.529 165.625 371.702 167.447 368.047 167.447H362.894C359.239 167.447 357.412 165.625 357.412 161.98L357.416 89.0863Z" fill="#003357"/>
<path d="M491.939 144.574C491.939 140.265 492.77 136.538 494.432 133.393C496.036 130.312 498.305 127.625 501.075 125.524C503.944 123.374 507.107 121.645 510.468 120.389C513.991 119.055 517.634 118.057 521.346 117.409C524.999 116.761 528.685 116.319 532.387 116.085C535.984 115.863 539.223 115.752 542.104 115.752H546.42V113.598C546.42 110.192 545.95 107.294 545.011 104.904C544.194 102.712 542.855 100.751 541.109 99.1896C539.427 97.7435 537.439 96.6955 535.294 96.1239C532.965 95.5045 530.562 95.1995 528.152 95.217C524.337 95.151 520.541 95.7667 516.944 97.0351C514.277 97.9771 511.694 99.1407 509.221 100.514C506.008 102.064 503.516 101.402 501.746 98.5296L500.409 96.2261C498.639 92.9135 499.248 90.4284 502.237 88.7707C504.781 87.3514 508.352 85.8058 512.948 84.1339C517.545 82.462 523.054 81.6346 529.475 81.6516C539.989 81.6516 548.126 84.4391 553.887 90.014C559.648 95.5889 562.527 103.733 562.524 114.445V161.962C562.524 165.607 560.697 167.43 557.042 167.43H552.88C549.231 167.43 547.405 165.607 547.402 161.962V154.839C547.391 154.284 547.447 153.729 547.569 153.187C547.675 152.761 547.786 152.301 547.897 151.859H547.569C545.955 155.107 543.822 158.072 541.254 160.638C538.746 163.058 535.893 165.096 532.788 166.684C529.353 168.507 525.144 169.418 520.164 169.418C516.559 169.422 512.976 168.862 509.546 167.757C506.241 166.724 503.168 165.065 500.495 162.869C497.903 160.731 495.782 158.081 494.266 155.086C492.712 152.055 491.936 148.55 491.939 144.574ZM508.214 143.249C508.214 146.562 509.516 149.626 512.12 152.442C514.724 155.258 518.627 156.664 523.827 156.661C527.167 156.715 530.462 155.886 533.377 154.26C536.167 152.683 538.593 150.539 540.498 147.967C542.446 145.353 543.961 142.445 544.986 139.353C546.015 136.337 546.547 133.173 546.561 129.986V126.342H542.245C539.256 126.342 535.824 126.484 531.947 126.767C528.171 127.025 524.437 127.72 520.821 128.837C517.488 129.824 514.422 131.552 511.855 133.891C509.428 136.156 508.214 139.275 508.214 143.249Z" fill="#003357"/>
<path d="M576.638 89.0863C576.638 85.4417 578.465 83.6207 582.12 83.6236H586.769C590.424 83.6236 592.251 85.4445 592.251 89.0863V98.692C592.251 99.5776 592.223 100.406 592.166 101.179C592.122 101.846 592.04 102.51 591.918 103.167C591.812 103.769 591.757 104.378 591.752 104.989H592.085C593.006 102.147 594.26 99.4236 595.82 96.8739C597.388 94.2714 599.317 91.9032 601.55 89.84C603.742 87.8146 606.235 86.1386 608.94 84.8711C611.723 83.5868 614.758 82.9367 617.825 82.9679C621.368 82.9679 623.14 84.7902 623.14 88.4349V93.0717C623.14 96.7163 621.148 98.5387 617.163 98.5387C613.064 98.5387 609.494 99.5591 606.451 101.6C603.383 103.665 600.781 106.345 598.809 109.468C596.679 112.864 595.136 116.591 594.245 120.496C593.257 124.539 592.754 128.683 592.746 132.844V161.993C592.746 165.638 590.921 167.46 587.269 167.46H582.12C578.465 167.46 576.638 165.638 576.638 161.993V89.0863Z" fill="#003357"/>
<path d="M642.403 97.5337H636.593C633.046 97.5337 631.275 95.7114 631.277 92.0667V89.9378C631.277 86.2931 633.103 84.4707 636.755 84.4707H642.732V66.0642C642.732 62.4195 644.559 60.5972 648.214 60.5972H653.03C656.681 60.5972 658.507 62.4195 658.507 66.0642V84.4494H673.125C676.777 84.4494 678.603 86.2718 678.603 89.9165V92.0454C678.603 95.6901 676.831 97.5124 673.288 97.5124H658.507V134.802C658.507 138.776 659.061 141.978 660.168 144.408C661.077 146.569 662.469 148.494 664.237 150.037C665.735 151.309 667.491 152.241 669.386 152.77C671.041 153.24 672.738 153.545 674.453 153.682C676.665 153.903 678.186 154.4 679.017 155.172C679.848 155.944 680.264 157.269 680.264 159.149V162.648C680.264 166.293 678.049 168.114 673.621 168.111C669.565 168.135 665.531 167.521 661.667 166.293C658.008 165.14 654.64 163.219 651.787 160.66C648.852 157.978 646.524 154.704 644.956 151.054C643.249 147.188 642.395 142.606 642.395 137.306L642.403 97.5337Z" fill="#003357"/>
</g>
<defs>
<clipPath id="clip0">
<rect width="1256.77" height="218" fill="white"/>
</clipPath>
</defs>
</svg>
