<?xml version="1.0" encoding="UTF-8" standalone="no"?>
<!-- Created with Inkscape (http://www.inkscape.org/) -->

<svg
   version="1.1"
   id="svg1"
   width="477.45181"
   height="158.18259"
   viewBox="0 0 477.45182 158.18259"
   xmlns="http://www.w3.org/2000/svg"
   xmlns:svg="http://www.w3.org/2000/svg">
  <defs
     id="defs1">
    <clipPath
       clipPathUnits="userSpaceOnUse"
       id="clipPath92-4-3">
      <path
         d="m 139.45355,769.41455 h 201.2489 v 189.41077 h -201.2489 z"
         transform="matrix(33.324792,0,0,-33.324792,-4647.2571,31921.208)"
         clip-rule="evenodd"
         id="path92-4-9" />
    </clipPath>
    <clipPath
       clipPathUnits="userSpaceOnUse"
       id="clipPath90-1-9">
      <path
         d="m 139.45355,769.41455 h 201.2489 v 189.41077 h -201.2489 z"
         transform="matrix(33.324792,0,0,-33.324792,-4647.2571,31921.208)"
         clip-rule="evenodd"
         id="path90-6-7" />
    </clipPath>
    <clipPath
       clipPathUnits="userSpaceOnUse"
       id="clipPath88-9-0">
      <path
         d="M 0,726.99774 H 457.74258 V 1019.006 H 0 Z"
         transform="matrix(11.815416,0,0,-11.815416,-0.1033849,12029.78)"
         clip-rule="evenodd"
         id="path88-0-3" />
    </clipPath>
    <clipPath
       clipPathUnits="userSpaceOnUse"
       id="clipPath86-8-9">
      <path
         d="M 128.55235,502.2933 H 353.4776 V 727.21856 H 128.55235 Z"
         transform="matrix(22.78811,0,0,-22.78811,-2929.4687,16566.316)"
         clip-rule="evenodd"
         id="path86-6-8" />
    </clipPath>
    <clipPath
       clipPathUnits="userSpaceOnUse"
       id="clipPath84-1-6">
      <path
         d="M 128.55235,502.2933 H 353.4776 V 727.21856 H 128.55235 Z"
         transform="matrix(22.78811,0,0,-22.78811,-2929.4687,16566.316)"
         clip-rule="evenodd"
         id="path84-9-5" />
    </clipPath>
    <clipPath
       clipPathUnits="userSpaceOnUse"
       id="clipPath82-3-7">
      <path
         d="M 128.55235,502.2933 H 353.4776 V 727.21856 H 128.55235 Z"
         transform="matrix(22.78811,0,0,-22.78811,-2929.4687,16566.316)"
         clip-rule="evenodd"
         id="path82-0-6" />
    </clipPath>
    <clipPath
       clipPathUnits="userSpaceOnUse"
       id="clipPath80-0-2">
      <path
         d="M 128.55235,502.2933 H 353.4776 V 727.21856 H 128.55235 Z"
         transform="matrix(22.78811,0,0,-22.78811,-2929.4687,16566.316)"
         clip-rule="evenodd"
         id="path80-0-7" />
    </clipPath>
    <clipPath
       clipPathUnits="userSpaceOnUse"
       id="clipPath78-9-0">
      <path
         d="M 128.55235,502.2933 H 353.4776 V 727.21856 H 128.55235 Z"
         transform="matrix(22.78811,0,0,-22.78811,-2929.4687,16566.316)"
         clip-rule="evenodd"
         id="path78-3-3" />
    </clipPath>
  </defs>
  <g
     id="g115"
     transform="translate(-975.22027,-371.98786)">
    <path
       style="font-size:120px;font-family:'Bebas Neue Cyrillic';-inkscape-font-specification:'Bebas Neue Cyrillic';letter-spacing:-1.74419px;white-space:pre;fill:#505252;stroke:#ffffff;stroke-width:0;stroke-linecap:round;stroke-linejoin:round;paint-order:markers fill stroke"
       d="m 24.978281,351.69141 q 9.96,0 14.76,5.28 4.92,5.28 4.92,15.48 v 10.92 q 0,10.2 -4.92,15.48 -4.8,5.28 -14.76,5.28 h -6.24 v 31.56 H 5.5382812 v -84 z m -6.24,12 v 28.44 h 6.24 q 3.12,0 4.8,-1.68 1.68,-1.68 1.68,-6.24 v -12.6 q 0,-4.56 -1.68,-6.24 -1.68,-1.68 -4.8,-1.68 z m 43.495907,23.4 h 18.12 v 12 h -18.12 v 24.6 h 22.8 v 12 h -36 v -84 h 36 v 12 h -22.8 z m 56.815812,48.6 q -0.24,-0.84 -0.48,-1.56 -0.24,-0.72 -0.48,-1.8 -0.12,-1.08 -0.24,-2.76 0,-1.68 0,-4.2 v -13.2 q 0,-5.88 -2.04,-8.28 -2.04,-2.4 -6.6,-2.4 h -4.56 v 34.2 H 91.450002 v -84 H 111.37 q 10.32,0 14.88,4.8 4.68,4.8 4.68,14.52 v 6.6 q 0,12.96 -8.64,17.04 5.04,2.04 6.84,6.72 1.92,4.56 1.92,11.16 v 12.96 q 0,3.12 0.24,5.52 0.24,2.28 1.2,4.68 z m -14.4,-72 v 25.8 h 5.16 q 3.72,0 5.76,-1.92 2.16,-1.92 2.16,-6.96 v -8.28 q 0,-4.56 -1.68,-6.6 -1.56,-2.04 -5.04,-2.04 z m 46.01586,59.28 v 12.72 h -12.72 v -12.72 z m 4.25591,-71.28 h 40.8 v 12 h -13.8 v 72 h -13.2 v -72 h -13.8 z m 57.77589,71.28 v 12.72 h -12.72 v -12.72 z m 4.25591,-71.28 h 40.8 v 12 h -13.8 v 72 h -13.2 v -72 h -13.8 z m 57.77587,71.28 v 12.72 h -12.72 v -12.72 z"
       id="text225-5-1-1"
       aria-label="PER.T.T."
       transform="matrix(1.2477477,0,0,1.1908199,1109.525,-30.551659)" />
    <path
       d="m 1130.621,500.88764 q 2.1006,0 3.1509,1.12714 1.0503,1.12714 1.0503,3.30456 v 2.33113 q 0,2.17743 -1.0503,3.30457 -1.0503,1.12714 -3.1509,1.12714 h -1.3321 v 6.73722 h -2.8178 v -17.93176 z m -1.3321,8.63286 h 1.3321 q 0.6917,0 1.0247,-0.38425 0.3586,-0.38426 0.3586,-1.30646 v -2.68976 q 0,-0.92221 -0.3586,-1.30646 -0.333,-0.38425 -1.0247,-0.38425 h -1.3321 z m 23.3519,-1.07591 v 2.56168 h -3.8681 v 5.25145 h 4.8672 v 2.56168 h -7.6851 v -17.93176 h 7.6851 v 2.56168 h -4.8672 v 4.99527 z m 18.331,10.37481 q -0.1537,-0.43549 -0.2049,-0.81974 -0.051,-0.38425 -0.051,-1.38331 v -2.81785 q 0,-1.2296 -0.4355,-1.74194 -0.4355,-0.53795 -1.409,-0.53795 h -0.9734 v 7.30079 h -2.8178 v -17.93176 h 4.2524 q 2.1774,0 3.1764,1.02467 0.9991,0.99905 0.9991,3.09963 v 1.40893 q 0,2.76661 -1.8444,3.63758 0.999,0.40987 1.4345,1.38331 0.4355,0.94782 0.4355,2.43359 v 2.76662 q 0,0.7685 0.051,1.25522 0.051,0.4611 0.2562,0.92221 z m -3.074,-9.86247 h 1.1015 q 0.8454,0 1.2553,-0.43549 0.4354,-0.43548 0.4354,-1.46015 v -1.76756 q 0,-0.97344 -0.3586,-1.40893 -0.333,-0.43548 -1.0759,-0.43548 h -1.3577 z m 23.8643,-0.51234 v 2.56168 h -3.8682 v 5.25145 h 4.8672 v 2.56168 h -7.685 v -17.93176 h 7.685 v 2.56168 h -4.8672 v 4.99527 z m 15.2569,-7.55695 v 17.93176 h -2.8178 v -17.93176 z m 17.6394,17.93176 q -0.1537,-0.43549 -0.2049,-0.81974 -0.051,-0.38425 -0.051,-1.38331 v -2.81785 q 0,-1.2296 -0.4355,-1.74194 -0.4354,-0.53795 -1.4089,-0.53795 h -0.9734 v 7.30079 h -2.8179 v -17.93176 h 4.2524 q 2.1775,0 3.1765,1.02467 0.9991,0.99905 0.9991,3.09963 v 1.40893 q 0,2.76661 -1.8444,3.63758 0.999,0.40987 1.4345,1.38331 0.4355,0.94782 0.4355,2.43359 v 2.76662 q 0,0.7685 0.051,1.25522 0.051,0.4611 0.2562,0.92221 z m -3.074,-9.86247 h 1.1015 q 0.8454,0 1.2552,-0.43549 0.4355,-0.43548 0.4355,-1.46015 v -1.76756 q 0,-0.97344 -0.3586,-1.40893 -0.333,-0.43548 -1.0759,-0.43548 h -1.3577 z m 23.4544,9.86247 -0.4868,-3.25334 h -3.4582 l -0.4867,3.25334 h -2.5873 l 2.869,-17.93176 h 4.1243 l 2.8691,17.93176 z m -0.871,-5.68693 -1.3577,-9.06835 -1.3577,9.06835 z m 15.2057,-3.27895 q 0,-0.97344 0.4611,-1.79318 0.4867,-0.81974 1.3065,-1.28084 0.8197,-0.48672 1.7932,-0.48672 0.9734,0 1.7931,0.48672 0.8198,0.4611 1.2809,1.28084 0.4867,0.81974 0.4867,1.79318 0,0.97344 -0.4867,1.79317 -0.4611,0.81974 -1.2809,1.30646 -0.8197,0.4611 -1.7931,0.4611 -0.9735,0 -1.7932,-0.4611 -0.8198,-0.48672 -1.3065,-1.30646 -0.4611,-0.81973 -0.4611,-1.79317 z m 27.2457,-8.96588 v 2.56168 h -2.946 v 15.37008 h -2.8178 v -15.37008 h -2.9459 v -2.56168 z m 17.6137,7.55695 v 2.56168 h -3.8681 v 5.25145 h 4.8672 v 2.56168 h -7.6851 v -17.93176 h 7.6851 v 2.56168 h -4.8672 v 4.99527 z m 20.6109,6.07118 q 0,2.17743 -1.0759,3.35581 -1.0759,1.15275 -3.1252,1.15275 -2.0494,0 -3.1253,-1.15275 -1.0759,-1.17838 -1.0759,-3.35581 v -9.32451 q 0,-2.17743 1.0759,-3.33018 1.0759,-1.17838 3.1253,-1.17838 2.0493,0 3.1252,1.17838 1.0759,1.15275 1.0759,3.33018 v 1.74194 h -2.6641 v -1.92126 q 0,-1.76756 -1.4602,-1.76756 -1.4601,0 -1.4601,1.76756 v 9.68315 q 0,1.74194 1.4601,1.74194 1.4602,0 1.4602,-1.74194 v -2.56168 h 2.6641 z m 11.4145,4.30363 v -17.93176 h 2.8178 v 7.68504 h 3.2021 v -7.68504 h 2.8691 v 17.93176 h -2.8691 v -7.68504 h -3.2021 v 7.68504 z m 21.1232,-8.96588 q 0,-0.97344 0.4611,-1.79318 0.4867,-0.81974 1.3065,-1.28084 0.8197,-0.48672 1.7932,-0.48672 0.9734,0 1.7931,0.48672 0.8198,0.4611 1.2809,1.28084 0.4867,0.81974 0.4867,1.79318 0,0.97344 -0.4867,1.79317 -0.4611,0.81974 -1.2809,1.30646 -0.8197,0.4611 -1.7931,0.4611 -0.9735,0 -1.7932,-0.4611 -0.8198,-0.48672 -1.3065,-1.30646 -0.4611,-0.81973 -0.4611,-1.79317 z m 27.2457,-8.96588 v 2.56168 h -2.946 v 15.37008 h -2.8178 v -15.37008 h -2.9459 v -2.56168 z m 17.2039,17.93176 -0.4868,-3.25334 h -3.4582 l -0.4867,3.25334 h -2.5873 l 2.869,-17.93176 h 4.1243 l 2.8691,17.93176 z m -0.871,-5.68693 -1.3577,-9.06835 -1.3577,9.06835 z m 17.5368,-12.24483 v 15.37008 h 4.6367 v 2.56168 h -7.4545 v -17.93176 z m 18.3823,12.42414 v 5.50762 h -2.8178 v -17.93176 h 2.8178 v 7.81312 l 3.6888,-7.81312 h 2.8179 l -3.9194,7.99244 3.9194,9.93932 h -2.8947 l -2.741,-7.14709 z m 16.9989,-8.12052 q 0,-2.17743 1.0503,-3.33018 1.0503,-1.17838 3.0997,-1.17838 2.0493,0 3.0996,1.17838 1.0503,1.15275 1.0503,3.33018 v 0.56357 h -2.6642 v -0.74289 q 0,-0.9222 -0.3586,-1.33207 -0.3586,-0.43549 -1.0503,-0.43549 -0.6916,0 -1.0503,0.43549 -0.3586,0.40987 -0.3586,1.33207 0,1.12714 0.5892,1.9725 0.6148,0.84535 1.8188,1.92126 0.999,0.9222 1.6138,1.63947 0.6148,0.69165 1.0503,1.69071 0.4355,0.99905 0.4355,2.27989 0,2.17743 -1.0759,3.35581 -1.0759,1.15275 -3.1253,1.15275 -2.0493,0 -3.1252,-1.15275 -1.0759,-1.17838 -1.0759,-3.35581 v -1.10152 h 2.6641 v 1.28084 q 0,1.74194 1.4602,1.74194 1.4601,0 1.4601,-1.74194 0,-1.12714 -0.6148,-1.97249 -0.5891,-0.84536 -1.7931,-1.92126 -0.9991,-0.92221 -1.6139,-1.61386 -0.6148,-0.71727 -1.0503,-1.71633 -0.4355,-0.99905 -0.4355,-2.27989 z"
       id="text226-6-8-7-1-8-3-8"
       style="font-weight:bold;font-size:25.6168px;line-height:0;font-family:'Bebas Neue';-inkscape-font-specification:'Bebas Neue Bold';letter-spacing:9.69814px;fill:#505252;stroke:#ffffff;stroke-width:0;stroke-linecap:round;stroke-linejoin:round;paint-order:markers fill stroke"
       aria-label="Pereira•Tech•TALKS"
       transform="scale(0.99292678,1.0071236)" />
    <path
       id="path77-0-5"
       d="m 1693,5110 c -81,-12 -177,-62 -238,-124 -164,-169 -164,-426 0,-591 29,-29 76,-63 104,-76 l 50,-24 1,-1185 V 1925 l -186,-185 c -102,-102 -192,-197 -200,-212 -11,-22 -14,-91 -14,-362 V 830 l -51,-26 C 1018,733 929,590 928,435 927,120 1248,-86 1533,48 c 166,77 266,266 237,449 -21,127 -112,251 -225,306 l -55,28 v 286 287 l 194,195 c 107,108 200,209 205,224 8,19 11,415 11,1245 v 1217 l 51,23 c 69,32 150,116 190,198 32,65 34,74 34,174 -1,86 -5,116 -24,163 -72,183 -264,294 -458,267 z m 138,-303 c 90,-60 88,-181 -4,-237 -92,-56 -210,12 -210,121 0,108 125,176 214,116 z M 1427,540 c 70,-42 84,-151 28,-210 -115,-120 -299,8 -228,157 33,69 131,96 200,53 z"
       style="fill:#175764;fill-opacity:1;fill-rule:nonzero;stroke:none"
       transform="matrix(0.01404241,0,0,-0.01404241,1006.8443,443.85127)"
       clip-path="url(#clipPath78-9-0)" />
    <path
       id="path79-3-5"
       d="m 3325,5113 c -152,-17 -282,-110 -348,-251 -30,-62 -32,-75 -32,-172 0,-97 2,-110 32,-172 40,-85 106,-156 183,-197 l 60,-32 V 3066 1844 l 29,-45 c 16,-24 108,-123 205,-219 l 176,-175 V 1123 840 l -52,-26 C 3282,664 3266,248 3550,75 c 301,-183 683,67 638,417 -15,118 -107,244 -221,303 l -57,30 v 333 c 0,270 -3,338 -14,360 -8,15 -98,110 -200,212 l -186,185 v 1190 l 1,1190 50,23 c 27,13 71,45 97,70 226,220 145,591 -152,700 -53,20 -130,30 -181,25 z m 105,-301 c 66,-33 92,-121 56,-190 -35,-67 -127,-92 -193,-52 -155,94 -26,324 137,242 z M 3846,541 c 105,-64 71,-234 -51,-257 -111,-20 -203,104 -151,205 35,67 135,93 202,52 z"
       style="fill:#175764;fill-opacity:1;fill-rule:nonzero;stroke:none"
       transform="matrix(0.01404241,0,0,-0.01404241,1006.8443,443.85127)"
       clip-path="url(#clipPath80-0-2)" />
    <path
       id="path81-1-8"
       d="M 425,3883 C 324,3873 230,3827 159,3753 76,3666 40,3578 40,3460 c 0,-213 151,-387 363,-420 73,-11 112,-8 191,17 l 48,15 89,-88 89,-89 V 2748 2601 L 569,2343 C 431,2201 311,2074 302,2060 c -14,-20 -18,-60 -20,-246 l -4,-221 -49,-23 C 202,1557 156,1523 127,1494 -33,1335 -40,1082 112,915 275,736 557,728 724,898 c 93,95 131,195 124,328 -4,70 -10,94 -41,157 -41,83 -111,155 -190,197 l -47,25 v 165 164 l 264,266 c 218,219 266,272 275,305 14,53 14,428 0,479 -8,31 -41,70 -136,167 l -125,128 18,48 c 23,59 25,177 5,248 -57,194 -249,327 -446,308 z m 121,-298 c 114,-75 61,-258 -75,-258 -149,0 -194,197 -61,266 40,21 97,18 136,-8 z M 484,1326 c 93,-39 112,-158 36,-231 -40,-38 -120,-46 -167,-16 -89,56 -85,193 7,242 41,23 79,24 124,5 z"
       style="fill:#175764;fill-opacity:1;fill-rule:nonzero;stroke:none"
       transform="matrix(0.01404241,0,0,-0.01404241,1006.8443,443.85127)"
       clip-path="url(#clipPath82-3-7)" />
    <path
       id="path83-1-1"
       d="m 4585,3878 c -154,-21 -296,-145 -341,-297 -21,-74 -21,-183 2,-254 l 18,-57 -121,-123 c -93,-94 -123,-131 -132,-162 -14,-52 -14,-427 0,-480 9,-33 57,-86 275,-305 l 264,-266 v -166 -166 l -31,-13 c -97,-40 -196,-151 -229,-256 -111,-360 262,-675 598,-504 156,80 255,274 224,441 -23,127 -112,249 -220,304 l -52,26 v 198 c 0,110 -5,215 -11,237 -9,33 -56,85 -275,305 l -264,265 v 145 145 l 90,90 90,89 47,-16 c 73,-25 114,-29 187,-19 349,50 494,475 245,720 -100,98 -223,139 -364,119 z m 141,-293 c 61,-40 82,-130 44,-192 -54,-90 -196,-85 -242,7 -65,128 79,263 198,185 z m 34,-2264 c 92,-49 96,-186 7,-242 -47,-30 -127,-22 -167,16 -120,115 14,305 160,226 z"
       style="fill:#175764;fill-opacity:1;fill-rule:nonzero;stroke:none"
       transform="matrix(0.01404241,0,0,-0.01404241,1006.8443,443.85127)"
       clip-path="url(#clipPath84-1-6)" />
    <path
       id="path85-5-4"
       d="m 2390,3161 c -73,-23 -106,-42 -159,-87 -143,-124 -185,-337 -100,-506 38,-76 117,-155 187,-187 l 52,-24 V 1593 830 l -46,-22 c -71,-33 -159,-120 -194,-191 -175,-361 201,-739 565,-568 163,76 262,265 234,444 -20,128 -114,261 -226,318 l -48,25 -3,757 -2,756 45,20 c 66,29 157,120 193,194 68,137 60,293 -20,418 -104,162 -303,237 -478,180 z m 196,-286 c 117,-76 63,-259 -76,-259 -149,0 -193,198 -60,267 40,21 97,18 136,-8 z m 1,-2335 c 64,-38 83,-128 40,-191 -98,-147 -311,-27 -243,136 29,69 133,98 203,55 z"
       style="fill:#175764;fill-opacity:1;fill-rule:nonzero;stroke:none"
       transform="matrix(0.01404241,0,0,-0.01404241,1006.8443,443.85127)"
       clip-path="url(#clipPath86-8-9)" />
    <path
       id="path87-0-7"
       d="m 1148,3204 c -60,-32 -58,-10 -58,-753 0,-635 1,-687 20,-798 61,-359 225,-671 486,-924 82,-79 204,-176 264,-210 22,-12 -71,-15 -707,-19 l -733,-5 -32,-33 c -28,-28 -33,-39 -33,-82 0,-43 5,-54 33,-82 l 32,-33 2316,-3 c 2056,-2 2319,0 2348,13 61,29 84,107 49,166 -36,61 -12,59 -800,60 -559,0 -714,3 -699,12 147,94 347,279 450,417 53,71 148,229 171,283 13,33 19,36 92,52 112,24 247,83 347,149 256,170 409,440 447,787 35,319 -50,497 -276,581 -53,19 -80,22 -225,22 -91,1 -180,-2 -197,-6 l -33,-7 v 175 c 0,191 -5,210 -61,240 -43,22 -3161,21 -3201,-2 z m 3022,-822 c 0,-672 -2,-697 -70,-903 -46,-139 -87,-223 -171,-350 -76,-114 -261,-302 -371,-377 -156,-106 -358,-191 -545,-229 -131,-27 -414,-24 -543,5 -297,66 -511,182 -721,391 -174,174 -275,336 -349,560 -68,206 -70,231 -70,903 v 598 h 1420 1420 z m 645,158 c 78,-39 90,-69 89,-220 -1,-289 -99,-515 -289,-667 -69,-55 -230,-142 -242,-130 -3,4 2,44 12,89 16,71 19,142 22,503 3,231 8,423 12,428 16,16 102,26 221,24 111,-2 130,-5 175,-27 z"
       style="fill:#175764;fill-opacity:1;fill-rule:nonzero;stroke:none"
       transform="matrix(0.02708326,0,0,-0.02708326,965.71048,537.02594)"
       clip-path="url(#clipPath88-9-0)" />
    <path
       id="path89-8-1"
       d="M 2120,5914 C 1577,5845 1123,5499 792,4905 531,4437 390,3852 388,3236 c -1,-316 22,-549 83,-826 214,-986 807,-1717 1507,-1859 542,-110 1075,115 1485,629 531,664 760,1723 586,2710 -121,688 -441,1303 -861,1655 -218,183 -441,297 -679,345 -98,20 -315,33 -389,24 z m 305,-884 c 61,-94 98,-172 133,-281 54,-169 65,-259 58,-479 -14,-450 -55,-655 -262,-1320 -195,-623 -232,-790 -241,-1095 -6,-193 9,-365 47,-521 10,-43 17,-80 15,-82 -9,-10 -131,172 -170,252 -137,289 -174,624 -114,1041 37,260 87,454 258,1003 166,530 208,706 231,974 16,188 -13,437 -70,602 -11,33 -20,62 -20,65 1,13 94,-97 135,-159 z"
       style="fill:#175764;fill-opacity:1;fill-rule:nonzero;stroke:none"
       transform="matrix(0.00960246,0,0,-0.00960246,1010.3326,517.74239)"
       clip-path="url(#clipPath90-1-9)" />
    <path
       id="path91-4-3"
       d="m 4480,5289 c -122,-11 -272,-35 -380,-60 -94,-23 -328,-94 -347,-106 -8,-6 6,-39 45,-108 223,-401 392,-989 418,-1458 9,-164 -12,-158 181,-58 440,228 675,429 862,739 24,40 45,71 47,70 5,-6 -17,-164 -32,-222 -22,-85 -84,-224 -145,-324 -116,-188 -484,-507 -794,-687 -55,-32 -101,-59 -103,-60 -2,-2 -10,-74 -18,-161 -58,-628 -240,-1177 -542,-1633 -90,-137 -246,-325 -338,-410 -37,-33 -60,-61 -52,-61 27,0 242,41 323,61 200,51 457,152 680,268 703,365 1333,1019 1645,1710 360,796 320,1555 -106,2032 -250,278 -580,431 -1009,468 -135,12 -198,12 -335,0 z"
       style="fill:#175764;fill-opacity:1;fill-rule:nonzero;stroke:none"
       transform="matrix(0.00960246,0,0,-0.00960246,1010.3326,517.74239)"
       clip-path="url(#clipPath92-4-3)" />
  </g>
</svg>
