<svg id="logo_lockups" data-name="logo lockups" xmlns="http://www.w3.org/2000/svg" viewBox="0 0 550 100"><defs><style>.cls-1{fill:#00363d;}</style></defs><title>chat_wordmark</title><path class="cls-1" d="M244.18,65.42a11.12,11.12,0,0,0,7.9-3.07L256,66.58c-2.59,2.66-6.17,4.63-11.75,4.63-9.56,0-15.73-6.34-15.73-14.92a14.63,14.63,0,0,1,14.87-14.92c9.49,0,14.87,7.22,14.4,17.24H235.35c.8,4.16,3.72,6.81,8.83,6.81M251,53.84c-.6-3.88-2.92-6.74-7.57-6.74a7.71,7.71,0,0,0-8.1,6.74Z"/><polygon class="cls-1" points="96.88 65.11 114.15 47.57 97.28 47.57 97.28 42.06 122.15 42.06 122.15 47.68 104.88 65.22 122.38 65.22 122.38 70.72 96.88 70.72 96.88 65.11"/><path class="cls-1" d="M141.76,65.42a11.12,11.12,0,0,0,7.9-3.07l3.92,4.22c-2.59,2.66-6.17,4.63-11.75,4.63-9.56,0-15.73-6.34-15.73-14.92A14.63,14.63,0,0,1,141,41.36c9.49,0,14.87,7.22,14.4,17.24H132.94c.8,4.16,3.72,6.81,8.83,6.81m6.84-11.58c-.6-3.88-2.92-6.74-7.57-6.74a7.71,7.71,0,0,0-8.1,6.74Z"/><path class="cls-1" d="M192.65,56.31c0-9.17,6.85-14.9,14.39-14.9a12.41,12.41,0,0,1,9.55,4.3V28.79h6.1V70.64h-6.1v-4A12.26,12.26,0,0,1,207,71.21a14.45,14.45,0,0,1-14.33-14.9m24.29-.06a9.1,9.1,0,1,0-9.09,9.34,9.07,9.07,0,0,0,9.09-9.34"/><path class="cls-1" d="M261.75,64.56l5.52-2.87a8.2,8.2,0,0,0,7.37,4.18c3.45,0,5.24-1.77,5.24-3.78,0-2.29-3.34-2.81-7-3.55-4.89-1-10-2.64-10-8.54,0-4.53,4.31-8.71,11.11-8.66,5.35,0,9.32,2.12,11.57,5.56l-5.12,2.81a7.43,7.43,0,0,0-6.45-3.27c-3.28,0-4.95,1.61-4.95,3.44,0,2.06,2.65,2.64,6.79,3.55C280.63,54.47,286,56,286,62c0,4-3.45,9.29-11.63,9.23-6,0-10.19-2.41-12.6-6.65"/><polygon class="cls-1" points="302.55 57.91 297.72 63.19 297.72 70.64 291.62 70.64 291.62 28.79 297.72 28.79 297.72 56.19 310.67 41.98 318.09 41.98 306.87 54.24 318.38 70.64 311.47 70.64 302.55 57.91"/><path class="cls-1" d="M174.21,41.4c-7.25,0-13.32,4.7-13.32,12.5V70.64h6.22v-16c0-4.7,2.7-7.51,7.31-7.51s6.91,2.81,6.91,7.51v16h6.22V53.89c0-7.8-6.07-12.5-13.32-12.5"/><path class="cls-1" d="M336.54,56.28a14.73,14.73,0,0,1,14.95-14.89,14.41,14.41,0,0,1,13.57,8.76l-5.5,2.35a8.54,8.54,0,0,0-8.08-5.38,8.93,8.93,0,0,0-8.94,9.16,9,9,0,0,0,9,9.16,8.62,8.62,0,0,0,8.08-5.61l5.56,2.35a14.45,14.45,0,0,1-13.75,9A14.77,14.77,0,0,1,336.54,56.28Z"/><path class="cls-1" d="M370,28.79h6.07V45.57a11,11,0,0,1,8.82-4.18c7.22,0,11.63,4.7,11.63,12.49V70.6H390.3V54.45c0-4.75-2.29-7.73-6.93-7.73-4.07,0-7.22,3.09-7.22,8.13V70.6H370Z"/><path class="cls-1" d="M401.73,56.28c0-9.16,6.82-14.89,14.32-14.89a12.33,12.33,0,0,1,9.51,4.3V42h6.13V70.6h-6.13v-4A12.18,12.18,0,0,1,416,71.18C408.71,71.18,401.73,65.39,401.73,56.28Zm24.17-.06a9.05,9.05,0,1,0-9,9.34A9,9,0,0,0,425.9,56.23Z"/><path class="cls-1" d="M436,42h4.87V35.2L447,31.83V42h6.07v5.5H447v11.4c0,5.16.8,6,6.07,6V70.6h-.92c-8.71,0-11.34-2.75-11.34-11.68V47.46H436Z"/></svg>