<svg id="logo_lockups" data-name="logo lockups" xmlns="http://www.w3.org/2000/svg" viewBox="0 0 550 200"><defs><style>.cls-1{fill:#f79a3e;}.cls-2{fill:#00363d;}</style></defs><title>chat_horizontal</title><path class="cls-1" d="M265.23,27.73a.33.33,0,0,1,.13.06,32.26,32.26,0,0,1,0,45.57l-22.9-22.9Z"/><path class="cls-2" d="M291.25,53.81a.41.41,0,0,0-.06-.11,22.94,22.94,0,0,1,0-32.44l16.3,16.3Z"/><path class="cls-2" d="M244.18,160.53a11.12,11.12,0,0,0,7.9-3.07l3.92,4.22c-2.59,2.66-6.17,4.63-11.75,4.63-9.56,0-15.73-6.34-15.73-14.92a14.63,14.63,0,0,1,14.87-14.92c9.49,0,14.87,7.22,14.4,17.24H235.35c.8,4.16,3.72,6.81,8.83,6.81M251,148.95c-.6-3.88-2.92-6.74-7.57-6.74a7.71,7.71,0,0,0-8.1,6.74Z"/><polygon class="cls-2" points="96.88 160.22 114.15 142.68 97.28 142.68 97.28 137.18 122.15 137.18 122.15 142.8 104.88 160.34 122.38 160.34 122.38 165.84 96.88 165.84 96.88 160.22"/><path class="cls-2" d="M141.76,160.53a11.12,11.12,0,0,0,7.9-3.07l3.92,4.22c-2.59,2.66-6.17,4.63-11.75,4.63-9.56,0-15.73-6.34-15.73-14.92A14.63,14.63,0,0,1,141,136.48c9.49,0,14.87,7.22,14.4,17.24H132.94c.8,4.16,3.72,6.81,8.83,6.81m6.84-11.58c-.6-3.88-2.92-6.74-7.57-6.74a7.71,7.71,0,0,0-8.1,6.74Z"/><path class="cls-2" d="M192.65,151.42c0-9.17,6.85-14.9,14.39-14.9a12.41,12.41,0,0,1,9.55,4.3V123.91h6.1v41.85h-6.1v-4a12.26,12.26,0,0,1-9.61,4.53,14.45,14.45,0,0,1-14.33-14.9m24.29-.06a9.1,9.1,0,1,0-9.09,9.34,9.07,9.07,0,0,0,9.09-9.34"/><path class="cls-2" d="M261.75,159.67l5.52-2.87a8.2,8.2,0,0,0,7.37,4.18c3.45,0,5.24-1.77,5.24-3.78,0-2.29-3.34-2.81-7-3.55-4.89-1-10-2.64-10-8.54,0-4.53,4.31-8.71,11.11-8.66,5.35,0,9.32,2.12,11.57,5.56l-5.12,2.81a7.43,7.43,0,0,0-6.45-3.27c-3.28,0-4.95,1.61-4.95,3.44,0,2.06,2.65,2.64,6.79,3.55,4.72,1,10.07,2.58,10.07,8.54,0,4-3.45,9.29-11.63,9.23-6,0-10.19-2.41-12.6-6.65"/><polygon class="cls-2" points="302.55 153.03 297.72 158.3 297.72 165.75 291.62 165.75 291.62 123.91 297.72 123.91 297.72 151.31 310.67 137.09 318.09 137.09 306.87 149.36 318.38 165.75 311.47 165.75 302.55 153.03"/><path class="cls-2" d="M174.21,136.51c-7.25,0-13.32,4.7-13.32,12.5v16.74h6.22v-16c0-4.7,2.7-7.51,7.31-7.51s6.91,2.81,6.91,7.51v16h6.22V149c0-7.8-6.07-12.5-13.32-12.5"/><path class="cls-2" d="M336.54,151.4a14.73,14.73,0,0,1,14.95-14.89,14.41,14.41,0,0,1,13.57,8.76l-5.5,2.35a8.54,8.54,0,0,0-8.08-5.38,8.93,8.93,0,0,0-8.94,9.16,9,9,0,0,0,9,9.16,8.62,8.62,0,0,0,8.08-5.61l5.56,2.35a14.45,14.45,0,0,1-13.75,9A14.77,14.77,0,0,1,336.54,151.4Z"/><path class="cls-2" d="M370,123.9h6.07v16.78a11,11,0,0,1,8.82-4.18c7.22,0,11.63,4.7,11.63,12.49v16.73H390.3V149.56c0-4.75-2.29-7.73-6.93-7.73-4.07,0-7.22,3.09-7.22,8.13v15.75H370Z"/><path class="cls-2" d="M401.73,151.4c0-9.16,6.82-14.89,14.32-14.89a12.33,12.33,0,0,1,9.51,4.3v-3.72h6.13v28.64h-6.13v-4a12.18,12.18,0,0,1-9.57,4.53C408.71,166.29,401.73,160.5,401.73,151.4Zm24.17-.06a9.05,9.05,0,1,0-9,9.34A9,9,0,0,0,425.9,151.34Z"/><path class="cls-2" d="M436,137.08h4.87v-6.76l6.19-3.38v10.14h6.07v5.5H447V154c0,5.16.8,6,6.07,6v5.79h-.92c-8.71,0-11.34-2.75-11.34-11.68V142.58H436Z"/></svg>