<svg id="logo_lockups" data-name="logo lockups" xmlns="http://www.w3.org/2000/svg" viewBox="0 0 580 580"><defs><style>.cls-1{fill:#f79a3e;}.cls-2{fill:#00363d;}</style></defs><title>chat_zendesk vertical</title><path class="cls-1" d="M138.52,60.05a1.41,1.41,0,0,1,.57.25,139.85,139.85,0,0,1,.18,197.53L40,158.57Z"/><path class="cls-2" d="M251.33,173.1a1.78,1.78,0,0,0-.25-.48,99.45,99.45,0,0,1,0-140.62l70.66,70.66Z"/><path class="cls-2" d="M295.38,403.94a19.27,19.27,0,0,0,13.69-5.32l6.79,7.32c-4.49,4.61-10.7,8-20.37,8-16.57,0-27.27-11-27.27-25.87A25.37,25.37,0,0,1,294,362.23c16.46,0,25.78,12.52,25,29.89H280.08c1.38,7.21,6.44,11.81,15.3,11.81m11.85-20.08c-1-6.73-5.06-11.69-13.12-11.69-7.48,0-12.66,4.25-14,11.69Z"/><polygon class="cls-2" points="40 403.4 69.94 372.99 40.7 372.99 40.7 363.45 83.81 363.45 83.81 373.19 53.87 403.6 84.21 403.6 84.21 413.14 40 413.14 40 403.4"/><path class="cls-2" d="M117.82,403.94a19.27,19.27,0,0,0,13.69-5.32l6.79,7.32c-4.49,4.61-10.7,8-20.37,8-16.57,0-27.27-11-27.27-25.87a25.37,25.37,0,0,1,25.77-25.87c16.46,0,25.78,12.52,25,29.89H102.52c1.38,7.21,6.44,11.81,15.3,11.81m11.85-20.08c-1-6.73-5.06-11.69-13.12-11.69-7.48,0-12.66,4.25-14,11.69Z"/><path class="cls-2" d="M206,388.14c0-15.9,11.87-25.84,24.95-25.84,6.59,0,12.88,2.88,16.57,7.46V340.43h10.58V413H247.55v-6.86A21.25,21.25,0,0,1,230.89,414c-12.67,0-24.85-10-24.85-25.84m42.11-.1c0-8.84-6.69-16.1-15.77-16.1A15.73,15.73,0,0,0,216.62,388c0,9,6.88,16.2,15.77,16.2,9.08,0,15.77-7.26,15.77-16.2"/><path class="cls-2" d="M325.86,402.45l9.58-5a14.22,14.22,0,0,0,12.77,7.25c6,0,9.08-3.08,9.08-6.56,0-4-5.79-4.87-12.07-6.16-8.48-1.79-17.26-4.57-17.26-14.81,0-7.85,7.48-15.11,19.26-15,9.28,0,16.17,3.68,20.06,9.64l-8.88,4.87A12.89,12.89,0,0,0,347.22,371c-5.69,0-8.58,2.78-8.58,6,0,3.58,4.59,4.57,11.78,6.16,8.18,1.79,17.46,4.47,17.46,14.81,0,6.86-6,16.1-20.16,16-10.38,0-17.66-4.17-21.85-11.53"/><polygon class="cls-2" points="396.6 390.92 388.21 400.06 388.21 412.98 377.64 412.98 377.64 340.43 388.21 340.43 388.21 387.94 410.67 363.29 423.54 363.29 404.08 384.56 424.04 412.98 412.06 412.98 396.6 390.92"/><path class="cls-2" d="M174.08,362.29c-12.57,0-23.1,8.15-23.1,21.67v29h10.78V385.3c0-8.15,4.69-13,12.67-13s12,4.88,12,13V413h10.78V384c0-13.52-10.53-21.67-23.1-21.67"/><path class="cls-2" d="M40,481.63a25.86,25.86,0,0,1,26.24-26.14c11.16,0,20,6.33,23.83,15.38L80.42,475a15,15,0,0,0-14.18-9.45c-8.95,0-15.68,7.14-15.68,16.09a15.84,15.84,0,0,0,15.89,16.09c6.84,0,11.86-4.22,14.18-9.85L90.37,492a25.36,25.36,0,0,1-24.13,15.79A25.92,25.92,0,0,1,40,481.63Z"/><path class="cls-2" d="M98.78,433.37h10.66v29.46a19.33,19.33,0,0,1,15.48-7.34c12.67,0,20.41,8.24,20.41,21.92v29.36h-11V478.41c0-8.34-4-13.57-12.17-13.57-7.14,0-12.67,5.43-12.67,14.28v27.65H98.78Z"/><path class="cls-2" d="M154.43,481.63c0-16.09,12-26.14,25.14-26.14A21.65,21.65,0,0,1,196.25,463v-6.54H207v50.27H196.25v-6.94a21.38,21.38,0,0,1-16.79,7.94C166.69,507.77,154.43,497.61,154.43,481.63Zm42.43-.1c0-8.95-6.74-16.29-15.89-16.29-8.95,0-15.89,7.14-15.89,16.29S172,497.91,181,497.91C190.12,497.91,196.86,490.58,196.86,481.53Z"/><path class="cls-2" d="M214.58,456.49h8.55V444.63L234,438.7v17.8h10.66v9.65H234v20c0,9,1.41,10.46,10.66,10.46v10.15H243c-15.28,0-19.91-4.83-19.91-20.51V466.14h-8.55Z"/></svg>