<?xml version="1.0" encoding="utf-8"?>
<!-- Generator: Adobe Illustrator 18.0.0, SVG Export Plug-In . SVG Version: 6.00 Build 0)  -->
<!DOCTYPE svg PUBLIC "-//W3C//DTD SVG 1.1//EN" "http://www.w3.org/Graphics/SVG/1.1/DTD/svg11.dtd">
<svg version="1.1" id="Layer_1" xmlns="http://www.w3.org/2000/svg" xmlns:xlink="http://www.w3.org/1999/xlink" x="0px" y="0px"
	 width="163.5px" height="23px" viewBox="0 0 163.5 23" enable-background="new 0 0 163.5 23" xml:space="preserve">
<g>
	<path d="M48.1,10.9c-1.7,0-2.5,1.5-2.5,3.2c0,1.2,0.7,2,1.8,2c1.1,0,2.2-0.9,2.5-2.3l0.3-1.4C49.8,11.5,49.3,10.9,48.1,10.9z"/>
	<path d="M114.5,10.3c-1.3,0-2.4,0.9-2.9,2.1c0.4,0,0.7,0,1,0c2.6,0,3.3-0.5,3.3-1.2C115.9,10.8,115.4,10.3,114.5,10.3z"/>
	<path d="M127.1,10.9c-1.7,0-2.7,1.6-2.7,3.3c0,1.1,0.7,1.9,1.8,1.9c1.2,0,2.3-0.9,2.6-2.4l0.3-1.4
		C128.7,11.5,128.1,10.9,127.1,10.9z"/>
	<path d="M64,11.3c0-0.5-0.5-0.9-1.4-0.9c-1.3,0-2.4,0.9-2.9,2.1c0.4,0,0.7,0,1,0C63.2,12.4,64,11.9,64,11.3z"/>
	<path d="M100.1,7.6h-1.7l-0.6,2.8h1.9c1.5,0,2.2-0.6,2.2-1.7C101.9,8,101.3,7.6,100.1,7.6z"/>
	<path d="M162.4,10.4c0-1.2-0.5-2.3-1.3-3.2c-1.5-1.5-3.8-2.3-6.4-2.3c-2.5,0-4.4,0.8-5.6,2c-1.1-1.3-2.7-2.1-4.7-2.1
		c-1.1,0-2.4,0.2-3.7,1c-0.8-0.5-1.8-0.8-2.8-0.8c-1.1,0-1.9,0.2-2.6,0.6c-0.8-0.4-1.7-0.6-2.5-0.6c-1.3,0-2.3,0.3-3,0.7
		c-1-0.6-2.2-0.9-3.5-0.9c-2.1,0-4.1,0.9-5.6,2.3c-1.2-1.4-3.1-2.3-6-2.3c-2.1,0-3.9,0.6-5.5,1.6c-0.5-2.5-2.7-4.8-7.5-4.8h-4.8
		c-2.1,0-3.8,0.9-4.7,2.5l-0.6-0.8c-1-1.4-3.1-1.5-3.7-1.5c-2.6,0-4.4,1.2-5.4,3.5c-0.5,0.1-1,0.4-1.5,0.8c-1-0.8-2.3-1.3-3.9-1.3
		c-1.1,0-2.4,0.2-3.7,1c-0.8-0.5-1.8-0.8-2.8-0.8c-1.4,0-2.5,0.4-3.1,1.1c-1.2-0.8-2.8-1.3-4.8-1.3c-1.5,0-2.8,0.3-4.1,0.8l0,0
		c0.4-1.8-0.2-3-0.8-3.7c-0.6-0.7-1.7-1.6-3.7-1.6h-0.5c-1.7,0-3.9,0.7-4.6,4.2L49,5.2c-0.6-0.1-1.2-0.2-1.8-0.2
		c-1.8,0-3.4,0.6-4.7,1.6c-0.6-0.7-1.7-1.4-3.6-1.4h-0.5c-1.1,0-2.5,0.3-3.5,1.5c-0.6-0.7-1.7-1.5-3.7-1.5h-0.5
		c-0.8,0-1.7,0.2-2.5,0.7c-0.2-0.1-0.3-0.2-0.4-0.3l0.3-1.1l-0.8-1c-1-1.4-3.1-1.5-3.7-1.5c-2,0-3.6,0.7-4.6,2.1
		c-0.1-0.1-0.2-0.2-0.2-0.3c-1.5-1.5-4-2.4-7-2.4c-6.2,0-9,3.9-9,7.8c0,1,0.2,1.8,0.5,2.6c-1.4,0.8-2.5,2.5-2.5,4.3
		c0,1.3,0.5,2.6,1.6,3.8c1.1,1.1,3.3,2.4,7.3,2.4c3.5,0,5.8-1,7.3-2.5c0.1,0.2,0.2,0.3,0.3,0.4c0.8,1,2.3,2.1,5.1,2.1
		c2.3,0,3.7-0.8,4.5-1.6c0.8,0.8,2.1,1.5,4.2,1.5c1,0,2.3-0.2,3.6-0.9c0.9,0.6,2,0.9,3.3,0.9c1.6,0,2.9-0.6,3.7-1.4
		c1.1,0.9,2.6,1.4,4.2,1.4c1.2,0,2.3-0.3,3.3-0.9c0.9,0.6,1.9,0.9,3.2,0.9c1.8,0,3.1-0.6,3.9-1.5c1.4,1,3.2,1.5,5.4,1.5
		c1.9,0,3.5-0.4,4.8-1.2c0.8,0.6,1.9,1,3.1,1h0.5c1.2,0,2.6-0.4,3.6-1.7c0.8,1.1,2.2,1.9,4.4,1.9c2,0,3.3-0.8,3.9-1.5
		c0.1-0.1,0.1-0.1,0.1-0.2c0.9,0.8,2.3,1.7,4.7,1.7c2.1,0,3.5-0.7,4.3-1.4c0.7,0.6,1.8,1.1,3.4,1.1h5c3.8,0,6.1-1,7.5-2.3
		c1.5,1.6,3.8,2.6,6.6,2.6c2.5,0,4.7-0.7,6-2.1c1.2,1.3,2.9,2.1,4.9,2.1c1.3,0,2.5-0.3,3.5-0.9c0.9,0.6,2,0.9,3.3,0.9
		c1.2,0,2.2-0.3,3-0.8c0.7,0.4,1.6,0.6,2.5,0.6h0.5c1.2,0,2.6-0.4,3.6-1.7c0.8,1.1,2.2,1.9,4.4,1.9c1.8,0,2.9-0.6,3.6-1.2
		c1.4,0.8,3.2,1.2,5.2,1.2c5.7,0,7.7-3.5,7.7-6.5c0-0.8-0.1-1.5-0.4-2.1C161.9,12.9,162.4,11.8,162.4,10.4z M15.8,9.7
		c-1-1.3-2.6-2.2-4.1-2.2c-1.2,0-1.8,0.5-1.8,1.2c0,0.7,1.1,1,2.5,1.5c2,0.7,4,1.7,4,4.1c0,3-2.1,5.3-6.8,5.3
		c-2.7,0-4.5-0.7-5.5-1.7c-0.6-0.6-0.9-1.2-0.9-1.9c0-1.4,1.6-2.4,1.7-2.2c1,1.2,2.9,2.2,4.6,2.2c1.2,0,1.7-0.4,1.7-1.2
		c0-0.7-1-0.9-2.2-1.4c-1.8-0.7-3.7-1.7-3.7-4.3C5.3,6.5,7.2,4,11.7,4c2.5,0,4.2,0.6,5.2,1.6c0.5,0.5,0.7,1.1,0.7,1.7
		C17.6,8.9,15.9,9.9,15.8,9.7z M27,10.7c-0.3,0.3-0.6,0.4-1.5,0.4h-1.6l-0.8,3.7c-0.2,1,0.2,1.4,0.8,1.4c0.5,0,1-0.2,1.3-0.5
		c0.1-0.1,0.6,0.3,0.6,1.2c0,0.7-0.3,1.2-0.7,1.7c-0.6,0.6-1.6,1-2.8,1c-2.9,0-4.1-1.7-3.6-4.5l0.8-4h-0.3c-1,0-1.5-0.5-1.5-1.2
		c0-0.4,0.2-1.3,0.6-1.7C18.7,8,19,7.8,19.9,7.8h0.4l0.1-0.3c0.4-2,1.3-2.9,3.2-2.9c1,0,1.7,0.4,1.6,0.5l-0.6,2.7h1.3
		c1.1,0,1.6,0.5,1.6,1.2C27.6,9.4,27.4,10.3,27,10.7z M40.8,9.9l-1.3,6.3c-0.3,1.4-0.1,1.9,0.7,2.1c0,0-0.3,1.2-2.3,1.2
		c-1.8,0-2.7-0.9-2.8-2.3c-1,1.4-2.3,2.3-4.1,2.3c-2.7,0-3.9-2-3.2-5.2l0.9-4.5c0.3-1.6,0.9-2.1,2.1-2.1h0.5c1.2,0,2.3,0.5,1.9,2.1
		l-0.9,4c-0.3,1.2,0.1,2.1,1.2,2.1c0.8,0,1.2-0.3,1.7-1l1.1-5.1c0.3-1.6,0.9-2.1,2-2.1h0.5C40,7.7,41.1,8.2,40.8,9.9z M52.2,19.6
		c-1.8,0-2.6-0.9-2.7-2.3c-0.7,1.4-2,2.3-3.7,2.3c-2.5,0-4.4-1.8-4.4-4.8c0-3.7,2.3-7.2,5.8-7.2c1.4,0,2.9,0.6,3.6,1.9l0.9-4.3
		C52,3.6,52.6,3,53.8,3h0.5c1.2,0,2.3,0.5,1.9,2.1l-2.3,11c-0.3,1.4-0.1,1.9,0.7,2.1C54.5,18.4,54.2,19.6,52.2,19.6z M61.5,16.6
		c1.3,0,2.4-0.7,3.1-1.5c0,0,1.8,0.2,1.8,1.6c0,0.8-0.2,1.2-0.7,1.7c-0.7,0.7-2.2,1.3-4.2,1.3c-4.1,0-5.9-2.1-5.9-5
		c0-4.2,3.2-7,7.2-7c3.1,0,4.8,1.4,4.8,3.6c0,2.4-1.5,3.8-6.6,3.8c-0.6,0-1.2,0-1.8,0C59.3,16,60.1,16.6,61.5,16.6z M80.4,18
		c0,0-0.4,1.6-2.6,1.6c-1.9,0-2.7-0.9-2.7-2.3c0-0.7,0.2-1.3,0.5-2.7c0.3-1,0.4-1.7,0.4-2.1c0-0.9-0.5-1.4-1.3-1.4
		c-0.8,0-1.2,0.3-1.7,1l-1.1,5.1c-0.3,1.6-0.9,2.1-2,2.1h-0.5c-1.2,0-2.3-0.5-1.9-2.1L69.4,8c0-0.1,0.6-0.3,1.3-0.3
		c1.1,0,2.2,0.6,2.4,2.2c1-1.4,2.3-2.4,4.2-2.4c2.2,0,3.5,1.5,3.5,3.6c0,0.8-0.2,1.8-0.6,3.3c-0.3,1.1-0.5,2-0.5,2.5
		C79.5,17.6,79.8,17.9,80.4,18z M91.2,10.7c-0.3,0.3-0.6,0.4-1.5,0.4h-1.6l-0.8,3.7c-0.2,1,0.2,1.4,0.8,1.4c0.5,0,1-0.2,1.3-0.5
		c0.1-0.1,0.6,0.3,0.6,1.2c0,0.7-0.3,1.2-0.7,1.7c-0.6,0.6-1.6,1-2.8,1c-2.9,0-4.1-1.7-3.6-4.5l0.8-4h-0.3c-1,0-1.5-0.5-1.5-1.2
		c0-0.4,0.2-1.3,0.6-1.7C83,8,83.3,7.8,84.2,7.8h0.4l0.1-0.3c0.4-2,1.3-2.9,3.2-2.9c1,0,1.7,0.4,1.6,0.5l-0.6,2.7h1.3
		c1.1,0,1.6,0.5,1.6,1.2C91.8,9.4,91.7,10.3,91.2,10.7z M106.2,14.6c0,2.8-1.8,4.7-7,4.7h-5c-1.8,0-2.7-0.9-2.3-2.9l2.1-9.7
		c0.3-1.6,1.3-2.3,2.8-2.3h4.8c3.3,0,5,1.2,5,3.3c0,1.9-0.9,3.2-3.2,3.8C105.3,11.9,106.2,13.1,106.2,14.6z M112.9,14.9
		c-0.6,0-1.2,0-1.8,0c0.1,1.1,0.9,1.7,2.4,1.7c1.3,0,2.4-0.7,3.1-1.5c0,0,1.8,0.2,1.8,1.6c0,0.8-0.2,1.2-0.7,1.7
		c-0.7,0.7-2.1,1.3-4.2,1.3c-4.1,0-5.9-2.1-5.9-5c0-4.2,3.2-7,7.2-7c3.1,0,4.8,1.4,4.8,3.6C119.5,13.5,118,14.9,112.9,14.9z
		 M132.6,16.2c-0.3,1.4-0.1,1.9,0.7,2.1c0,0-0.3,1.2-2.3,1.2c-1.8,0-2.7-1-2.8-2.4c-0.8,1.4-2.2,2.4-4,2.4c-2.5,0-4.2-1.8-4.2-4.6
		c0-3.8,2.5-7.4,6.2-7.4c1.5,0,2.9,0.7,3.5,2c0.6-1.3,1.5-1.8,3-1.8c0.9,0,1.5,0.4,1.5,0.5L132.6,16.2z M147.6,18
		c0,0-0.4,1.6-2.6,1.6c-1.9,0-2.7-0.9-2.7-2.3c0-0.7,0.2-1.3,0.5-2.7c0.3-1,0.4-1.7,0.4-2.1c0-0.9-0.5-1.4-1.3-1.4
		c-0.8,0-1.2,0.3-1.7,1l-1.1,5.1c-0.3,1.6-0.9,2.1-2,2.1h-0.5c-1.2,0-2.3-0.5-1.9-2.1l1.9-9.2c0-0.1,0.6-0.3,1.3-0.3
		c1.1,0,2.2,0.6,2.4,2.2c1-1.4,2.3-2.4,4.2-2.4c2.2,0,3.5,1.5,3.5,3.6c0,0.8-0.2,1.8-0.6,3.3c-0.3,1.1-0.5,2-0.5,2.5
		C146.7,17.6,147,17.9,147.6,18z M158.3,12.4c-0.8-1-2-1.8-3.3-1.8c-0.7,0-1.1,0.3-1.1,0.7c0,0.3,0.4,0.5,1.6,1
		c1.8,0.7,3.4,1.5,3.4,3.5c0,2.3-1.7,3.8-5.1,3.8c-2.4,0-4-0.6-4.9-1.5c-0.4-0.4-0.7-0.9-0.7-1.5c0-1.2,1.2-1.9,1.3-1.8
		c0.9,0.9,2.4,1.8,3.7,1.8c0.7,0,1.1-0.3,1.1-0.6c0-0.3-0.4-0.5-1.2-0.9c-1.6-0.6-3.3-1.3-3.3-3.4c0-2.4,1.7-4,4.9-4
		c2,0,3.6,0.6,4.5,1.5c0.3,0.3,0.6,0.8,0.6,1.3C159.8,11.8,158.4,12.5,158.3,12.4z"/>
	<path d="M99.5,13.1h-2.2L96.6,16h2.4c1.7,0,2.5-0.5,2.5-1.8C101.5,13.4,100.8,13.1,99.5,13.1z"/>
</g>
<g>
</g>
<g>
</g>
<g>
</g>
<g>
</g>
<g>
</g>
<g>
</g>
<g>
</g>
<g>
</g>
<g>
</g>
<g>
</g>
<g>
</g>
<g>
</g>
<g>
</g>
<g>
</g>
<g>
</g>
</svg>
