<?xml version="1.0" encoding="UTF-8" standalone="no"?>
<svg width="203px" height="203px" viewBox="0 0 203 203" version="1.1" xmlns="http://www.w3.org/2000/svg" xmlns:xlink="http://www.w3.org/1999/xlink" xmlns:sketch="http://www.bohemiancoding.com/sketch/ns">
    <title>ga-logo</title>
    <description>Created with Sketch (http://www.bohemiancoding.com/sketch)</description>
    <defs></defs>
    <g id="Page-1" stroke="none" stroke-width="1" fill="none" fill-rule="evenodd" sketch:type="MSPage">
        <g id="960-Grid" sketch:type="MSArtboardGroup" transform="translate(-378.000000, -3641.000000)">
            <g id="join-us" sketch:type="MSLayerGroup" transform="translate(165.000000, 3571.000000)">
                <g id="ga-logo" transform="translate(206.000000, 63.000000)" sketch:type="MSShapeGroup">
                    <path d="M75.4605547,12.4986654 C71.5011163,13.8610521 67.6524435,15.4614903 63.9316322,17.2828838 L63.9316322,17.2828838 C63.976254,17.3541909 64.0197807,17.426566 64.0621778,17.5 C65.9951745,20.8480485 64.8480485,25.1291811 61.5,27.0621778 C58.1519515,28.9951745 53.8708189,27.8480485 51.9378222,24.5 C51.8971833,24.4296114 51.8579059,24.3588104 51.8199816,24.2876275 C48.2872354,26.6700581 44.9125106,29.2689245 41.7148227,32.0652114 C42.1534037,32.3402839 42.5681259,32.6686309 42.9497475,33.0502525 C45.6834176,35.7839227 45.6834176,40.2160773 42.9497475,42.9497475 C40.2160773,45.6834176 35.7839227,45.6834176 33.0502525,42.9497475 C32.6686309,42.5681259 32.3402839,42.1534037 32.0652114,41.7148227 L32.0652114,41.7148227 C29.2689245,44.9125106 26.6700581,48.2872354 24.2876275,51.8199816 L24.2876275,51.8199816 C24.3588104,51.8579059 24.4296114,51.8971833 24.5,51.9378222 C27.8480485,53.8708189 28.9951745,58.1519515 27.0621778,61.5 C25.1291811,64.8480485 20.8480485,65.9951745 17.5,64.0621778 C17.426566,64.0197807 17.3541909,63.976254 17.2828838,63.9316322 C15.4614903,67.6524435 13.8610521,71.5011163 12.4986654,75.4605547 C15.8123252,76.722085 17.6990684,80.3126086 16.7614808,83.8117333 C15.8233902,87.3127351 12.3909839,89.4792947 8.88855163,88.9117479 L8.88855163,88.9117479 C8.24092333,92.2241395 7.75440118,95.5942036 7.43747713,99.0134482 L7.43747713,99.0134482 C11.0996823,99.2392729 14,102.280933 14,106 C14,109.833294 10.918785,112.946932 7.09793879,112.999329 C7.32206211,118.137334 7.92816407,123.176206 8.88855163,128.088252 C12.3909839,127.520705 15.8233902,129.687265 16.7614808,133.188267 C17.6990684,136.687391 15.8123252,140.277915 12.4986654,141.539445 L12.4986654,141.539445 C13.8610521,145.498884 15.4614903,149.347557 17.2828838,153.068368 L17.2828838,153.068368 C17.3541909,153.023746 17.426566,152.980219 17.5,152.937822 C20.8480485,151.004825 25.1291811,152.151951 27.0621778,155.5 C28.9951745,158.848049 27.8480485,163.129181 24.5,165.062178 C24.4296114,165.102817 24.3588104,165.142094 24.2876275,165.180018 C26.6700581,168.712765 29.2689245,172.087489 32.0652114,175.285177 C32.3402839,174.846596 32.6686309,174.431874 33.0502525,174.050253 C35.7839227,171.316582 40.2160773,171.316582 42.9497475,174.050253 C45.6834176,176.783923 45.6834176,181.216077 42.9497475,183.949747 C42.5681259,184.331369 42.1534037,184.659716 41.7148227,184.934789 L41.7148227,184.934789 C45.0429277,187.845122 48.562805,190.541602 52.2530162,193.002792 L52.2530162,193.002792 C54.3070994,190.042481 58.3235054,189.103872 61.5,190.937822 C64.6593158,192.761854 65.8588515,196.67675 64.359867,199.925494 C67.9475188,201.660797 71.6528165,203.191146 75.4605547,204.501335 C76.722085,201.187675 80.3126086,199.300932 83.8117333,200.238519 C87.3127351,201.17661 89.4792947,204.609016 88.9117479,208.111448 L88.9117479,208.111448 C92.2241395,208.759077 95.5942036,209.245599 99.0134482,209.562523 L99.0134482,209.562523 C99.2392729,205.900318 102.280933,203 106,203 C109.833294,203 112.946932,206.081215 112.999329,209.902061 C118.137334,209.677938 123.176206,209.071836 128.088252,208.111448 C127.520705,204.609016 129.687265,201.17661 133.188267,200.238519 C136.687391,199.300932 140.277915,201.187675 141.539445,204.501335 L141.539445,204.501335 C145.347183,203.191146 149.052481,201.660797 152.640133,199.925494 L152.640133,199.925494 C151.141148,196.67675 152.340684,192.761854 155.5,190.937822 C158.676495,189.103872 162.692901,190.042481 164.746984,193.002792 C168.437195,190.541602 171.957072,187.845122 175.285177,184.934789 C174.846596,184.659716 174.431874,184.331369 174.050253,183.949747 C171.316582,181.216077 171.316582,176.783923 174.050253,174.050253 C176.783923,171.316582 181.216077,171.316582 183.949747,174.050253 C184.331369,174.431874 184.659716,174.846596 184.934789,175.285177 L184.934789,175.285177 C187.845122,171.957072 190.541602,168.437195 193.002792,164.746984 L193.002792,164.746984 C190.042481,162.692901 189.103872,158.676495 190.937822,155.5 C192.761854,152.340684 196.67675,151.141148 199.925494,152.640133 C201.660797,149.052481 203.191146,145.347183 204.501335,141.539445 C201.187675,140.277915 199.300932,136.687391 200.238519,133.188267 C201.17661,129.687265 204.609016,127.520705 208.111448,128.088252 C209.071836,123.176206 209.677938,118.137334 209.902061,112.999329 L209.902061,112.999329 C206.081215,112.946932 203,109.833294 203,106 C203,102.280933 205.900318,99.2392729 209.562523,99.0134482 C209.245599,95.5942036 208.759077,92.2241395 208.111448,88.9117479 C204.609016,89.4792947 201.17661,87.3127351 200.238519,83.8117333 C199.300932,80.3126086 201.187675,76.722085 204.501335,75.4605547 L204.501335,75.4605547 C203.191146,71.6528165 201.660797,67.9475188 199.925494,64.359867 L199.925494,64.359867 C196.67675,65.8588515 192.761854,64.6593158 190.937822,61.5 C189.103872,58.3235054 190.042481,54.3070994 193.002792,52.2530162 C190.541602,48.562805 187.845122,45.0429277 184.934789,41.7148227 C184.659716,42.1534037 184.331369,42.5681259 183.949747,42.9497475 C181.216077,45.6834176 176.783923,45.6834176 174.050253,42.9497475 C171.316582,40.2160773 171.316582,35.7839227 174.050253,33.0502525 C174.431874,32.6686309 174.846596,32.3402839 175.285177,32.0652114 L175.285177,32.0652114 C172.087489,29.2689245 168.712765,26.6700581 165.180018,24.2876275 L165.180018,24.2876275 C165.142094,24.3588104 165.102817,24.4296114 165.062178,24.5 C163.129181,27.8480485 158.848049,28.9951745 155.5,27.0621778 C152.151951,25.1291811 151.004825,20.8480485 152.937822,17.5 C152.980219,17.426566 153.023746,17.3541909 153.068368,17.2828838 C149.347557,15.4614903 145.498884,13.8610521 141.539445,12.4986654 C140.277915,15.8123252 136.687391,17.6990684 133.188267,16.7614808 C129.687265,15.8233902 127.520705,12.3909839 128.088252,8.88855163 L128.088252,8.88855163 C123.176206,7.92816407 118.137334,7.32206211 112.999329,7.09793879 L112.999329,7.09793879 C112.946932,10.918785 109.833294,14 106,14 C102.280933,14 99.2392729,11.0996823 99.0134482,7.43747713 C95.5942036,7.75440118 92.2241395,8.24092333 88.9117479,8.88855163 C89.4792947,12.3909839 87.3127351,15.8233902 83.8117333,16.7614808 C80.3126086,17.6990684 76.722085,15.8123252 75.4605547,12.4986654 Z" id="background" fill="#FB0F3B"></path>
                    <g id="letters" transform="translate(58.000000, 48.000000)" fill="#FFFFFF">
                        <path d="M19.5605572,62.2590656 L40.2242649,62.2590656 L40.2242649,97.1558667 C40.2242649,97.1558667 42.1375712,118.000008 20.1104065,118 C-1.91675817,117.99999 0.044833148,99.535194 0.044833148,99.535194 L0.044833148,21.4139461 C0.044833148,21.4139461 -1.48581187,0 20.3258797,0 C42.1375712,0 40.9895874,21.4139461 40.9895874,21.4139461 L40.9895874,39.2589012 L25.6831372,39.2589012 L25.6831372,21.4139461 C25.6831372,21.4139461 25.683138,15.4656262 20.3258797,15.4656278 C14.9686214,15.4656301 15.3512834,21.4139461 15.3512834,21.4139461 L15.3512834,97.5524212 C15.3512834,97.5524212 14.9686214,102.70763 19.5605572,102.70763 C24.1524929,102.70763 24.9178147,98.3455303 24.9178147,98.3455303 L24.9178147,76.1243169 L19.5605409,76.1243169 L19.5605572,62.2590656 Z" id="g"></path>
                        <path d="M45,118 L62.0656731,118 L65.7168683,89.1020408 L75.8721959,89.1020408 L79.5281138,118 L97,118 L80.7467531,0 L60.8381664,2.40897354e-15 L45,118 Z M69,77 C72.8659934,77 76,73.8659934 76,70 C76,66.1340066 72.8659934,63 69,63 C65.1340066,63 62,66.1340066 62,70 C62,73.8659934 65.1340066,77 69,77 Z" id="a"></path>
                    </g>
                </g>
            </g>
        </g>
    </g>
</svg>