<?xml version="1.0" encoding="utf-8"?>
<!-- Generator: Adobe Illustrator 21.0.0, SVG Export Plug-In . SVG Version: 6.00 Build 0)  -->
<svg version="1.1" id="Layer_1" xmlns="http://www.w3.org/2000/svg" xmlns:xlink="http://www.w3.org/1999/xlink" x="0px" y="0px"
	 width="217.8px" height="54.6px" viewBox="0 0 217.8 54.6" style="enable-background:new 0 0 217.8 54.6;" xml:space="preserve">
<style type="text/css">
	.st0{fill:#E0E0E0;}
	.st1{fill:#960C1A;}
</style>
<path class="st0" d="M190.7,9.4c1.1,0.5,1.2,1.4,1.2,2.5c-0.1,3.3,0,6.5,0,10.3c3.1-2.9,6.5-3.6,10.2-3.2c5.1,0.6,8,3.7,8,8.8
	c0,5.4-0.1,10.9,0.1,16.3c0,1.8-0.6,2.2-2.2,2.2c-5.2,0-5.2,0-5.2-5.3c0-3.6,0-7.3,0-10.9c-0.1-3.8-1.1-5.1-4.1-5.4
	c-3.3-0.4-5.8,1.2-6.5,4.5c-0.6,2.7-0.1,5.5-0.2,8.2c-0.1,1.3,0,2.7,0,4c-0.1,1.6,0.7,4.1-0.3,4.5c-1.8,0.8-4.2,0.4-6.3,0.3
	c-1.4-0.1-0.8-1.4-0.8-2.1c0-9.8,0-19.6,0-29.4c0-1.8-0.1-3.6-0.1-5.3C186.4,9.4,188.5,9.4,190.7,9.4z"/>
<path class="st0" d="M112.2,47.3c-0.2-0.7-0.9-0.5-1.3-0.7c-4.6-1.6-6.8-4.9-6.9-9.7c-0.1-7.7,0-15.5-0.1-23.2
	c0-1.4,0.5-1.9,1.8-1.7c0.1,0,0.2,0,0.3,0c5.2-0.1,5.3-0.1,5.3,5.1c0,1.7,0.5,2.1,2.1,2.1c3.9-0.1,7.8,0.1,11.7-0.1
	c2.5-0.1,1.8,1.5,1.9,2.8c0.1,1.4,0.1,2.5-2,2.4c-3.8-0.2-7.6,0-11.5-0.1c-1.7,0-2.4,0.3-2.3,2.2c0.2,3.3,0,6.6,0.1,9.9
	c0.1,3.3,1.2,4.6,3.8,4.8c2.8,0.2,4-1,4.6-4.3c0.4-2.1,0.3-4.3,0.2-6.4c0-1.3,0.2-1.8,1.7-1.9c5.3-0.1,5.3-0.2,5.2,5
	c0,1.8-0.2,3.5-0.5,5.3c-0.7,4.9-4,7.3-8.5,8.5C116.1,47.3,114.2,47.3,112.2,47.3z"/>
<path class="st0" d="M166.6,47.3c-0.2-0.2-0.3-0.5-0.5-0.5c-9.9-3.4-13.3-16.2-6.4-24.3c5.6-6.6,18.8-4.8,22,2.9
	c1.3,3.1,1.1,3.5-2.2,3.5c-2.3,0-4.3,0.3-5.9-2.5c-1.7-3.1-6.6-2.4-8.3,1c-1.9,3.6-1.7,7.4,0,11.1c1.5,3.3,6.8,3.8,8.4,0.6
	c1.5-3.2,3.7-2.6,6-2.6c2.9,0,3.1,0.2,1.9,3c-1.8,4.2-5.1,6.5-9.4,7.4c-0.5,0.1-1.1-0.2-1.3,0.5C169.5,47.3,168.1,47.3,166.6,47.3z"
	/>
<path class="st1" d="M71.6,9.4c0.7,0.6,1.2,1.1,1.2,2.3c-0.1,10.9-0.1,21.8,0,32.7c0,1.6-0.5,1.8-2,1.9c-5.5,0-5.5,0.1-5.6-5.5
	c0-10.5-0.1-20.9-0.1-31.4C67.4,9.4,69.5,9.4,71.6,9.4z"/>
<path class="st1" d="M63.5,28.4c-2-9.9-11.5-13-19.1-6.3c-0.1,0-0.3-0.1-0.5-0.2c0-3.4-0.1-6.8,0-10.1c0-1.1-0.4-1.7-1.1-2.3
	c-2,0-3.9,0-5.9,0c-0.5,0.8-0.5,1.6-0.5,2.5c0,10.7,0.1,21.5,0,32.2c0,1.7,0.4,2.4,2.2,2.2c0.5-0.1,1.1,0,1.6,0c2,0,4.4,0.6,3.5-3.3
	c1.5,2.4,3.9,2.8,5.6,4.3c1.2,0,2.5,0,3.7,0c0.2-0.8,0.8-0.4,1.3-0.6c4.5-1.2,7.5-3.8,8.9-8.3C64.1,35.1,64.2,31.7,63.5,28.4z
	 M56.1,34.9c-0.5,3.5-3,6-6,6.1c-3.3,0.1-5.7-2.2-6.4-5.9c-0.3-1.6-0.2-3.2,0.1-4.8c0.6-3.8,2.8-5.8,6.1-5.8c3.4,0,5.6,2.1,6.1,5.8
	c0.1,0.8,0.1,1.6,0.2,2.4C56.2,33.5,56.2,34.2,56.1,34.9z"/>
<path class="st1" d="M33.2,26.9c-0.4-3.7-2.5-6.2-6.1-7.4c-3.7-1.2-7.5-1.2-11.3-0.2c-2.9,0.8-5.1,2.3-6.2,5.3
	c-1.2,3.4-1.2,3.4,2.3,3.4c2.1,0,4.1,0.5,5.4-2.4c1-2.2,5.2-2.2,7.2-0.5c1.8,1.5,1.5,3.3-0.7,4c-1.5,0.5-3.1,0.8-4.7,0.9
	c-5.4,0.5-10.1,2-11.5,8.1c0,0.7,0,1.4,0,2.1c1.4,4.1,4.7,5.8,8.5,6.9c0.7,0,1.4,0,2.1,0c2.2-1.1,5-0.8,7-2.6c0.6-0.5,0.7,0.4,1,0.8
	c0.5,0.7,6.5,1.1,7,0.5c0.2-0.2,0.2-0.6,0.2-1C33.3,39,33.8,32.9,33.2,26.9z M18.1,42c-1.3-0.2-2.3-0.8-2.5-2.3
	c-0.3-1.8,0.1-3.5,2-4.1c2.3-0.8,4.7-1.5,7.1-1.9c1.6-0.3,0.4,1.4,0.9,1.7C25.7,39.7,22.2,42.6,18.1,42z"/>
<path class="st1" d="M84.1,34.6c4.6,0.1,9.2,0,13.9,0c4.1,0,4.1,0,3.6-4c-0.8-6.9-4.3-10.9-10.5-11.9c-7.2-1.2-13.5,2.1-15.5,8.3
	c-1.3,4-1.1,8.1,0.3,12.1c1.3,3.8,4,6.2,7.8,7.3c1.1,0.3,2.5,0,3.4,1c0.9,0,1.8,0,2.7,0c0.4-1,1.2-0.5,1.8-0.6c5-0.8,9-4.3,9.5-8.5
	c-1.9,0-3.7,0-5.6,0c-0.9,0-1.6,0.1-2.2,1c-1.5,2-3.6,2.4-6,1.9c-2.5-0.5-3.9-2.3-4.7-4.6C82.1,35,82.4,34.5,84.1,34.6z M83.2,28
	c1.1-2.4,2.8-3.8,5.6-3.7c2.4,0.1,4.6,2,5.2,4.3c0.3,1.1,0.2,1.7-1.2,1.6c-0.4,0-0.8,0-1.1,0c-1.1,0-2.3,0-3.4,0
	c-0.9,0-1.9-0.1-2.8,0c-0.3,0-0.6,0-0.9,0.1C82.5,30.4,82.5,29.5,83.2,28z"/>
<path class="st0" d="M136.9,34.6c4.6,0.1,9.2,0,13.9,0c4.1,0,4.1,0,3.6-4c-0.8-6.9-4.3-10.9-10.5-11.9c-7.2-1.2-13.5,2.1-15.5,8.3
	c-1.3,4-1.1,8.1,0.3,12.1c1.3,3.8,4,6.2,7.8,7.3c1.1,0.3,2.5,0,3.4,1c0.9,0,1.8,0,2.7,0c0.4-1,1.2-0.5,1.8-0.6c5-0.8,9-4.3,9.5-8.5
	c-1.9,0-3.7,0-5.6,0c-0.9,0-1.6,0.1-2.2,1c-1.5,2-3.6,2.4-6,1.9c-2.5-0.5-3.9-2.3-4.7-4.6C134.9,35,135.3,34.5,136.9,34.6z
	 M135.9,28.2c0.9-2.4,3-4,5.4-3.9c2.4,0,4.6,1.7,5.4,4c0.5,1.4,0.2,2-1.4,1.9c-1.4-0.1-2.8,0-4.3,0c-1.2,0-2.5-0.1-3.7,0
	C135.7,30.3,135.3,29.7,135.9,28.2z"/>
</svg>
