<?xml version="1.0" encoding="utf-8"?>
<!-- Generator: Adobe Illustrator 21.0.0, SVG Export Plug-In . SVG Version: 6.00 Build 0)  -->
<svg version="1.1" id="Layer_1" xmlns="http://www.w3.org/2000/svg" xmlns:xlink="http://www.w3.org/1999/xlink" x="0px" y="0px"
	 width="275px" height="134.7px" viewBox="0 0 275 134.7" style="enable-background:new 0 0 275 134.7;" xml:space="preserve">
<style type="text/css">
	.st0{fill:#FFFFFF;}
	.st1{fill:#FAA61B;}
</style>
<g>
	<path class="st0" d="M40.6,77.3c3-3.4,9-5.7,14.1-5.5c11.3,0.4,18.3,6.7,18.3,18.9c0,23.4-13.9,36.6-34.6,36.6
		c-8.1,0-17.4-1.7-24.6-4.5l12-67.8c0.9-5.5,3.1-7.7,9.9-7.7h10.1L40.6,77.3z M34.5,112.3c1.9,0.5,2.3,0.5,4.7,0.5
		c8.6,0,14.5-8.2,14.5-19.5c0-5.2-2.4-7.2-6.6-7.2c-3.7,0-8.2,3.3-8.8,4.6L34.5,112.3L34.5,112.3z M132.9,124.6
		c0.6,1.3,2.2,2.7,5.8,2.7c4.1,0,8.7-0.6,13.8-0.6c7.9,0,10.7,0.5,20.9,0.7c4.1,0.1,6.2-1.4,7.1-5.7c0.5-2.5,1.1-5.4,1.7-9.6
		c-4.2,0.4-8.2,0.1-11.6-0.1c-4.8-0.3-9.9-0.6-13.9-0.3c1.8-2.8,4.8-6.5,9.8-11.3c2.4-2.2,6.6-5.8,11.2-10.7
		c4.5-4.9,9.8-10.7,8.2-18c-5,0.3-8.6,0.5-15.2,0.5c-8.2,0-18.4-0.5-23.9-0.5c-4.7,0-6.9,1.5-7.7,5.3c-0.7,3.2-2,10.1-2,10.1
		c0.8-0.2,4.5-0.5,7.6-0.4c3.1,0,11.4,0.2,13.2,0.5c-0.8,2.3-8.1,7.8-12.7,12.9c-2.9,3.2-7.7,8.7-10.2,12.8c-6.4,3.4-10,2.4-9.4-2.6
		l2.6-14.8c0.3-2.8,1-5.9,0.9-8.6c-0.5-9.6-6.7-15.5-17.3-15.5c-5.8,0-10,2.9-13.1,5.6c0,0-0.8-4.5-6.8-4.8l-10.3,0l-8.3,47.1
		c-1.2,6.2,1,7.1,6.5,7l10.5,0l6.3-35.3c0.8-1.7,4.5-5.3,9.1-5.3c3,0,5.6,1.5,4.9,5.3l-3.2,19c-0.8,6.1,1.3,11,3.3,12.9
		c2.7,2.8,6.6,4.1,10.5,4.3C125.7,127.4,130.5,126.4,132.9,124.6L132.9,124.6L132.9,124.6z"/>
	<path class="st1" d="M227.3,7.2c1.3,8.5,1.3,8.5,1.3,8.5c0.1,0.8,0.9,1.4,1.7,1.4h9l-8.2,5.3c-0.8,0.5-1.2,1.4-1.1,2.2l1.3,8.6h0
		l-6.4-5.3c-0.6-0.5-1.6-0.5-2.4,0l-8.2,5.3l4.2-8.5c0.4-0.8,0.3-1.8-0.3-2.3l-6.4-5.3l0,0h9c0.9,0,1.7-0.6,2.1-1.4L227.3,7.2
		L227.3,7.2z M199.3,24.9l1.3,8.5c0.1,0.8,0.9,1.4,1.7,1.4h9l-8.2,5.3c-0.8,0.5-1.2,1.3-1.1,2.3l1.3,8.6l0,0l-6.4-5.3
		c-0.6-0.5-1.6-0.5-2.4,0l-8.2,5.3c4.2-8.5,4.2-8.5,4.2-8.5c0.4-0.8,0.3-1.8-0.3-2.3l-6.4-5.3h9c0.9,0,1.7-0.6,2.1-1.4L199.3,24.9
		L199.3,24.9z M249,24.9l1.3,8.5c0.1,0.8,0.9,1.4,1.7,1.4h9l-8.2,5.3c-0.8,0.5-1.2,1.4-1.1,2.3l1.3,8.6l0,0l-6.4-5.3
		c-0.6-0.5-1.6-0.5-2.4,0c0,0-8.2,5.3-8.2,5.3l4.2-8.5c0.4-0.8,0.3-1.8-0.3-2.3l-6.4-5.3h9c0.9,0,1.7-0.6,2.1-1.4L249,24.9L249,24.9
		L249,24.9z M217,61.6c1.3,8.5,1.3,8.5,1.3,8.5c0.1,0.8,0.9,1.4,1.7,1.4h9l-8.2,5.3c-0.8,0.5-1.2,1.4-1.1,2.3l1.3,8.6l0,0
		c-6.4-5.3-6.4-5.3-6.4-5.3c-0.6-0.5-1.6-0.5-2.4,0l-8.2,5.3l4.2-8.5c0.4-0.8,0.3-1.8-0.3-2.2l-6.4-5.3h9c0.9,0,1.7-0.6,2.1-1.4
		L217,61.6L217,61.6z"/>
</g>
</svg>
