<?xml version="1.0" encoding="utf-8"?>
<!-- Generator: Adobe Illustrator 21.0.0, SVG Export Plug-In . SVG Version: 6.00 Build 0)  -->
<svg version="1.1" id="Layer_1" xmlns="http://www.w3.org/2000/svg" xmlns:xlink="http://www.w3.org/1999/xlink" x="0px" y="0px"
	 width="335.9px" height="319.4px" viewBox="0 0 335.9 319.4" style="enable-background:new 0 0 335.9 319.4;" xml:space="preserve"
	>
<style type="text/css">
	.st0{fill:#FFFFFF;}
</style>
<path class="st0" d="M57.6,155.9c-0.1-2.1,0-4.3,0.3-6.6s0.8-4.4,1.4-6.3c0.7-1.9,1.5-3.5,2.6-4.9c1-1.3,2.3-2.1,3.7-2.4
	c1.4-0.3,2.5,0,3.5,0.8s1.6,2.1,2,3.9c0.4,1.8,0.3,3.6-0.1,5.2c-0.5,1.6-1.3,3.1-2.4,4.5s-2.6,2.5-4.3,3.5c-1.7,1-3.7,1.7-5.8,2.1
	L57.6,155.9z M124.2,192.5c-0.2-1.2-0.6-2.3-1-3.4c-0.4-1.1-0.9-2-1.4-2.8s-1.2-1.4-1.9-1.8c-0.7-0.4-1.5-0.5-2.4-0.3
	c-2.7,0.4-9.5,7-9.5,20.6v16.3c0.3,0.2,1,0.4,1.5,0.6c0.5,0.2,1,0.4,1.6,0.5s1.2,0.2,1.9,0.2c0.7,0,1.3,0,2-0.2
	c1.5-0.3,2.9-1.1,4.1-2.2c1.2-1.1,2.1-2.5,2.9-4.2s1.4-3.5,1.9-5.5s0.8-4,0.9-6.1c0.2-2.1,0.2-4.1,0.1-6.1
	C124.8,195.9,124.5,194.1,124.2,192.5z M235.4,157.5c-1.7,0.4-3.1,1.1-4.3,2.3s-2.2,2.6-3,4.3s-1.5,3.6-1.9,5.7
	c-0.5,2.1-0.8,4.2-0.9,6.3c-0.2,2.1-0.2,4.2,0,6.2c0.1,2,0.4,3.8,0.7,5.5c0.4,1.7,0.8,3.1,1.2,4.1c0.5,1.1,1,1.9,1.5,2.5
	c0.6,0.6,1.2,1,1.8,1.2s1.3,0.2,2,0c1.3-0.3,2.5-1.1,3.6-2.5s2.1-3.1,2.9-5.2c0.8-2,1.4-4.3,1.9-6.8s0.7-4.9,0.7-7.3v-15.1
	c-0.7-0.7-1.6-1.1-2.7-1.3C237.6,157.2,236.5,157.3,235.4,157.5z M193.3,311.1C106.3,327,23,269.4,7.1,182.5
	C-7.9,100.4,46.6,21.6,128.8,6.6c77.6-14.2,152,37.3,166.2,114.9l0,0l34.5-7.3C346.2,206.2,285.3,294.4,193.3,311.1z M147.3,157.9
	c0.2,0.9,0.5,1.7,1,2.3s1.1,1.1,1.8,1.4c0.7,0.3,1.5,0.5,2.3,0.6c0.9,0,1.8,0,2.7-0.2c1-0.2,2-0.6,3-1.1c0.9-0.5,1.7-1.1,2.4-1.9
	c0.7-0.7,1.1-1.6,1.4-2.6c0.3-1,0.3-2.1,0-3.3c-0.2-1-0.6-1.7-1.1-2.4c-0.5-0.6-1.2-1.1-1.9-1.4c-0.7-0.3-1.5-0.5-2.4-0.5
	s-1.8,0.1-2.7,0.3c-1.1,0.2-2.1,0.6-3,1.1s-1.7,1.1-2.3,1.8s-1,1.6-1.3,2.6C147,155.5,147,156.7,147.3,157.9z M48.3,174
	c1.5,2,3.3,3.6,5.3,4.7c2.1,1.1,4.4,1.8,6.8,2c2.5,0.2,5.1,0.1,7.7-0.5c3-0.6,5.4-1.5,7.5-2.6c2-1.1,3.6-2.3,4.8-3.5
	c1.2-1.3,2-2.6,2.4-3.9c0.4-1.3,0.5-2.5,0.3-3.5c-0.2-0.7-0.4-1.4-0.7-2c-0.3-0.6-0.7-1.1-1.1-1.5c-0.4,1-1,2-1.7,3s-1.5,2-2.4,2.9
	s-2,1.7-3.2,2.4s-2.5,1.2-3.9,1.5c-3.2,0.7-5.7,0.3-7.6-1.2s-3.3-3.9-4-7.3c-0.1-0.5-0.2-1-0.3-1.6s-0.2-1.2-0.2-1.8
	c0.5-0.1,1.1-0.1,1.7-0.3c0.6-0.1,1.1-0.2,1.6-0.3c3.7-0.8,7-2,10-3.6s5.4-3.5,7.3-5.6s3.3-4.4,4.2-6.8c0.8-2.4,1-4.8,0.5-7.2
	c-0.7-3.2-2.3-5.5-5-6.8s-6.1-1.5-10.2-0.7c-3.2,0.7-6,1.7-8.5,3.2s-4.7,3.2-6.5,5.2s-3.4,4.2-4.6,6.6c-1.2,2.4-2.2,4.8-2.8,7.3
	s-1,5-1.1,7.4c-0.1,2.5,0.1,4.8,0.6,6.9C45.8,169.4,46.8,171.9,48.3,174z M85.7,218.3c-0.3-1.6-0.9-3-1.6-4.3
	c-0.7-1.2-1.6-2.3-2.7-3.2s-2.5-1.7-4-2.4c-1.6-0.7-3.3-1.2-5.4-1.7c-1.9-0.4-3.5-0.8-4.8-1.1c-1.4-0.3-2.5-0.7-3.4-1.2
	s-1.7-1-2.2-1.6s-0.9-1.4-1.1-2.4c-0.2-0.8-0.2-1.7,0-2.5s0.5-1.6,1.1-2.2c0.5-0.7,1.2-1.3,2-1.8s1.8-0.9,2.9-1.1
	c1.2-0.3,2.3-0.2,3.3,0.2s1.8,1.1,2.6,1.9c0.7,0.9,1.3,1.8,1.8,3c0.5,1.1,0.8,2.3,1.1,3.4c3.1-0.7,5.4-1.7,6.9-3.1
	c1.6-1.4,2.1-3.3,1.6-5.6c-0.2-1-0.7-2-1.5-2.9s-1.8-1.6-3.3-2c-1.4-0.5-3.2-0.7-5.3-0.8c-2.1,0-4.6,0.3-7.5,0.9
	c-3,0.6-5.7,1.5-8,2.7c-2.3,1.1-4.1,2.5-5.6,4.1c-1.4,1.6-2.4,3.3-3,5.2c-0.5,1.9-0.6,3.9-0.2,6c0.4,1.7,0.9,3.2,1.7,4.4
	s1.8,2.3,3,3.2s2.6,1.7,4.1,2.3c1.6,0.6,3.3,1.2,5.1,1.6c1.9,0.5,3.5,0.9,4.8,1.3c1.4,0.4,2.5,0.8,3.5,1.3c0.9,0.5,1.7,1.1,2.2,1.8
	s0.9,1.5,1.1,2.5c0.2,1.1,0.2,2-0.1,2.9c-0.3,0.9-0.7,1.7-1.3,2.4c-0.6,0.7-1.4,1.3-2.4,1.8s-2,0.9-3.2,1.1c-1.6,0.3-3,0.3-4.2-0.1
	c-1.2-0.4-2.3-1.1-3.2-2s-1.7-2.1-2.3-3.4c-0.6-1.4-1.1-2.8-1.4-4.4c-1.2,0.2-2.3,0.6-3.3,1.1c-1.1,0.5-1.9,1.1-2.7,1.9
	c-0.7,0.8-1.3,1.7-1.6,2.7c-0.3,1.1-0.4,2.3-0.1,3.6c0.3,1.5,1,2.8,2,3.8s2.3,1.8,3.9,2.3c1.6,0.5,3.4,0.8,5.5,0.8s4.4-0.3,6.9-0.8
	c3.5-0.7,6.4-1.7,8.9-3c2.5-1.2,4.5-2.7,6-4.4s2.5-3.5,3-5.6C86.2,222.8,86.2,220.6,85.7,218.3z M137.8,196c0-2.5-0.2-4.8-0.7-6.9
	c-0.5-2.6-1.3-4.7-2.3-6.6c-1-1.8-2.2-3.3-3.6-4.4c-1.4-1.1-2.9-1.8-4.6-2.2c-1.7-0.3-3.5-0.3-5.4,0.1c-2.1,0.5-3.9,1.2-5.4,2.1
	c-1.5,1-2.7,2.1-3.8,3.5c-1,1.4-1.9,2.9-2.6,4.7s-1.4,3.6-2,5.7l-0.6-12L88,184v4.9l1.8-0.4c0.8-0.2,1.5-0.3,2.1-0.3s1.1,0,1.5,0.2
	s0.8,0.5,1,0.9c0.3,0.4,0.5,1.1,0.7,1.9c0,0.1,0,0.3,0.1,0.6c0,0.3,0,0.6,0.1,0.9c0,0.4,0,0.8,0,1.2s0,0.8,0,1.2v55.2l18.4-4v-3.7
	c0,0-1.6,0.3-2.2,0.3s-1.1,0-1.5-0.2s-0.8-0.5-1-0.9c-0.3-0.5-0.5-1.1-0.7-1.9c0-0.1,0-0.3-0.1-0.6c0-0.3,0-0.6-0.1-0.9
	c0-0.4,0-0.8,0-1.2s0-0.8,0-1.2v-8.7c1.3,0.4,2.5,0.7,4.1,0.7s3.2-0.1,5-0.5c3-0.6,5.6-1.7,7.9-3.3s4.2-3.4,5.9-5.6
	c1.6-2.1,3-4.5,4-7c1-2.6,1.8-5.1,2.2-7.8C137.6,201.1,137.8,198.5,137.8,196z M138,165.1c1.3-0.6,2.4-1.3,3.3-2.1
	c1-0.8,1.8-1.7,2.5-2.6l-2.1-3.5c-0.3,0.2-0.5,0.4-0.8,0.6c-0.7,0.5-1.5,0.8-2.4,1c-1,0.2-1.8,0-2.5-0.5c-0.7-0.6-1.4-1.5-1.6-2.8
	c-0.3-1.2-0.4-2.7-0.5-4.1c-0.1-1.4-0.1-3-0.1-4.6v-9.7c0-0.8,0-1.6,0-2.5s0-1.8,0-2.7s-0.1-1.8-0.1-2.6c-0.1-0.9-0.2-1.7-0.3-2.4
	c-0.3-1.3-0.7-2.6-1.3-3.7s-1.4-2.1-2.3-2.8c-1-0.8-2.1-1.3-3.5-1.5c-1.4-0.3-3-0.2-4.8,0.2c-1.9,0.4-3.6,1-5.1,1.7
	c-7,3.5-10.1,12.1-10.1,12.1l-0.5-9.6L86,127v4.9l1.8-0.4c0.8-0.2,1.5-0.3,2.1-0.3s1.1,0,1.5,0.2s0.8,0.5,1,0.9
	c0.3,0.4,0.5,1.1,0.7,1.9c0,0.1,0,0.3,0.1,0.6c0,0.3,0,0.6,0.1,0.9c0,0.4,0,0.8,0,1.2s0,0.8,0,1.2v36.2l13-2.7V150
	c0-13,5.2-19.3,6.6-20.6c0.9-0.8,1.7-1.4,2.7-1.6c0.8-0.2,1.4-0.1,1.9,0.1s1,0.5,1.3,1c0.4,0.4,0.7,0.9,0.9,1.5
	c0.2,0.6,0.4,1.1,0.5,1.7c0.1,0.7,0.3,1.5,0.3,2.4c0.1,0.9,0.1,1.8,0.1,2.8c0,0.9,0,1.8,0,2.7s0,1.6,0,2.2v7.2
	c0,4.6,0.3,8.2,0.8,10.7c0.6,2.8,1.9,4.8,4,6s4.8,1.4,8.1,0.7C135.3,166.2,136.8,165.7,138,165.1z M172.6,209.3l-2.7-2.5
	c-0.9,0.9-1.6,1.5-2.3,2s-1.5,0.9-2.4,1c-1,0.2-1.8,0-2.4-0.6c-0.7-0.6-1.1-1.5-1.4-2.8c-0.3-1.2-0.4-2.5-0.5-4
	c-0.1-1.4-0.1-3-0.1-4.6l0.1-29.6l-20.5,4.4v4.9l1.8-0.4c0.8-0.2,1.5-0.3,2.1-0.3s1.1,0,1.5,0.2s0.8,0.5,1,0.9
	c0.3,0.4,0.5,1.1,0.7,1.9c0,0.1,0,0.3,0.1,0.6c0,0.3,0,0.6,0.1,0.9c0,0.4,0,0.8,0,1.2s0,0.8,0,1.2v16.9c0,2.3,0,4.4,0.2,6.1
	c0.1,1.8,0.3,3.3,0.6,4.5c0.6,2.8,1.9,4.8,4,6s4.8,1.4,8.1,0.7c1.6-0.3,3-0.8,4.2-1.4c1.2-0.6,2.3-1.3,3.3-2.1s1.8-1.7,2.5-2.6
	C171.5,211.1,172.1,210.2,172.6,209.3z M211.9,163.1c-2.5-7.1-13.1-7.7-19,1c-3.9,5.8-3.8,10.9-3.8,10.9l-0.4-12.4l-19.4,4.1v4.9
	l1.7-0.4c1.6-0.3,2.8-0.4,3.7,0c0.8,0.3,1.3,1,1.5,2.1c0.1,0.6,0.2,1.3,0.3,2.2c0,0.8,0.1,1.5,0.1,2v36.6l13-2.8l0.1-15.8
	c0.2-14.4,2.7-26.9,8.9-28.4c4.9-1.1,6,7.7,6,7.7C211.9,172.9,212.9,166,211.9,163.1z M266,190.3l-2.6-3.1c-0.8,0.7-1.5,1.3-2.2,1.8
	s-1.4,0.9-2.2,1c-0.9,0.2-1.7,0-2.4-0.6c-0.7-0.6-1.2-1.6-1.5-3.1c-0.1-0.6-0.2-1.3-0.3-2.1c-0.1-0.9-0.1-1.8-0.1-2.7s0-1.8,0-2.6
	s0-1.5,0-2v-28.5c0,0-4.8,0.4-8.7,4.1c0,0-1.6-0.4-2.6-0.6c-1-0.2-2.1-0.3-3.2-0.3c-1.1-0.1-2.3-0.1-3.5,0s-2.4,0.2-3.5,0.5
	c-2.9,0.6-5.5,1.7-7.8,3.2s-4.2,3.3-5.9,5.4c-1.7,2.1-3,4.4-4.1,6.9s-1.9,5.1-2.4,7.7c-0.5,2.6-0.8,5.2-0.8,7.8s0.2,5,0.7,7.3
	s1.2,4.3,2.1,6.1c0.9,1.8,2.1,3.4,3.4,4.6c1.3,1.2,2.8,2,4.6,2.5c1.7,0.5,3.6,0.5,5.7,0.1c2.1-0.4,3.9-1.1,5.4-2s2.7-2,3.8-3.3
	c4.1-5.1,5.2-10.9,5.2-10.9s0.2,2.2,0.3,3.1c0.1,0.9,0.2,1.8,0.4,2.7c0.5,2.3,1.6,3.8,3.4,4.7c1.8,0.9,4,1,6.5,0.5
	c1.5-0.3,3-0.8,4.2-1.4c1.3-0.6,2.4-1.3,3.5-2c1-0.7,2-1.5,2.8-2.3C264.6,191.8,265.4,191.1,266,190.3z M292.4,183.9l-2.7-2.5
	c-0.8,0.9-1.6,1.5-2.3,2c-0.7,0.5-1.5,0.8-2.4,1c-1,0.2-1.8,0-2.4-0.6c-0.7-0.6-1.1-1.5-1.4-2.8c-0.3-1.2-0.4-2.5-0.5-4
	c-0.1-1.4-0.1-3-0.1-4.6v-48.1l-20.6,4.4v4.9l2-0.5c0.8-0.2,1.5-0.3,2.1-0.3s1.1,0,1.5,0.2s0.8,0.5,1,0.9c0.3,0.4,0.5,1.1,0.7,1.9
	c0,0.1,0,0.3,0.1,0.6c0,0.3,0,0.6,0.1,0.9c0,0.4,0,0.8,0,1.2s0,0.8,0,1.2v35.5c0,4.6,0.3,8.2,0.8,10.7c0.6,2.8,1.9,4.8,4,6
	s4.8,1.4,8.1,0.7c1.6-0.3,3-0.8,4.2-1.4c1.2-0.6,2.4-1.3,3.3-2.1c1-0.8,1.8-1.7,2.5-2.6C291.2,185.7,291.8,184.8,292.4,183.9z"/>
</svg>
