<svg id="Layer_1" xmlns="http://www.w3.org/2000/svg" viewBox="0 0 5669.3 4252"><style>.st0{fill:#FDE700;}</style><path class="st0" d="M216.6 1081.9v2101.4s-34 160.4 272.1 272.7c306.1 112.3 1834.6 575.1 1834.6 575.1s547.7 146.5 1209.1-61.8c714.1-224.9 1666.4-529.3 1666.4-529.3s255.1-64.2 255.1-304.8c0-240.6-4.7-2038.8-4.7-2038.8s46.5-215.6-340.7-340.7c-471.6-152.3-1650.8-511-1650.8-511s-580.1-173.5-1226.2 10.9C1585.4 440.2 505.7 785.1 505.7 785.1s-289.1 48.1-289.1 296.8z"/><path d="M3020.5 3696.4c.3 1.4.5 3 .5 4.9 0 2-.2 3.6-.5 5v4.9c-.8 3.1-1.2 6-1.2 8.9 0 2.9-.2 5.9-.8 8.9-.6 1.4-.9 2.9-1.1 4.6-.1 1.7-.4 3.2-1 4.5-1.3 4.7-2.7 9.2-3.9 13.5-1.2 4.3-2.7 8.5-4.4 12.6-9.1 20.7-21.7 38-37.9 52-16.2 13.9-35.6 24.7-58.2 32.1-3.9 1.4-8 2.4-12.4 3.1-4.4.7-8.8 1.6-13.3 2.7-2.5.3-4.9.5-7.2.6-2.3.1-4.8.3-7.3.6h-4.6c-1.4.3-3.2.5-5.4.6-2.2.2-4 0-5.4-.6-1.4-.3-2.7-.3-4-.2-1.2.1-2.6 0-3.9-.2h-4.5c-2.2-.5-4.5-1-6.9-1.3-2.3-.3-4.7-.5-6.8-.8-2.5-.6-4.9-1.1-7.3-1.6-2.4-.5-4.6-1.1-6.8-1.7-3.1-1.1-6.1-2.1-9.1-2.9-3-.9-6.1-2-9.1-3.3-1.4-.6-2.7-1.1-4-1.7-1.3-.5-2.5-1.1-3.9-1.6-4.5-2.2-8.7-4.5-12.9-7-1.9-1.1-3.8-2.2-5.6-3.3-1.8-1.1-3.7-2.3-5.6-3.7-7.2-4.9-13.8-10.6-19.9-17-6.1-6.4-11.7-13.3-17-20.8-4.4-5.5-8.4-12.1-12-19.9-1.3-3-2.6-6.2-3.7-9.3-1.1-3.2-2.2-6.4-3.3-9.8-.6-1.3-.9-2.7-1-3.9-.2-1.3-.5-2.6-1-3.9-1.1-3.3-1.9-6.7-2.3-10.2-.4-3.5-1-7-1.9-10.6-.3-1.7-.4-3.3-.2-4.8s.1-3.1-.2-4.8c-.6-1.4-.9-3.9-.9-7.5s.1-6.1.4-7.5v-5c.5-3 .9-5.9 1-8.7.1-2.8.5-5.4 1-7.9.5-1.9.9-3.8 1-5.6.1-1.8.5-3.7 1-5.6 1.1-3.9 2.2-7.8 3.3-11.6 1.1-3.9 2.5-7.6 4.1-11.2 6.4-15.2 14.5-28.5 24.5-40 9.9-11.5 21.5-21.3 34.8-29.7 4.9-3.1 10.2-5.7 15.5-8.1 5.5-2.3 11-4.6 16.8-6.8 3.9-1.7 8-2.9 12.2-3.7 4.3-.8 8.6-1.8 13.1-2.9 1.4-.5 2.6-.8 3.7-.8s2.3-.1 3.8-.4c2.2-.2 4.4-.5 6.4-.6 2.1-.2 4.2-.4 6.4-.6.6-.3 1.3-.3 2.3 0 .9.2 1.7.2 2.3 0 11.6-.3 22.7.3 33.4 1.9 10.6 1.5 20 4.1 28 7.7 3.6 1.4 7.1 2.7 10.4 3.8 3.3 1.1 6.5 2.6 9.6 4.5 1.4.5 2.6 1.1 3.7 1.7 1.1.5 2.3 1.2 3.8 2 5.8 3.6 11.9 7.6 18.2 12 1.4 1.1 2.7 2.4 4.1 3.7 1.3 1.4 2.7 2.6 4.2 3.8 2.4 1.9 4.9 4.2 7.2 6.6 2.4 2.5 4.5 4.9 6.4 7.5.8 1.1 2.3 2.8 4.6 5 3.1 4.2 5.9 8.5 8.7 13.1 2.8 4.5 5.2 9.2 7.5 13.9 1.1 2.2 2 4.4 2.7 6.4.7 2.1 1.5 4.2 2.3 6.4 1.9 4.1 3.4 8.6 4.1 13.3.9 4.7 2 9.5 3.4 14.5.6 1.9.8 3.8.8 5.6 0 1.8.3 3.7.9 5.6v2c.3 1.4.3 2.8 0 4.2-.4 1.7-.3 3.1.3 4.4zm-42.7 21.6c.5-2.8.8-5.6.8-8.7v-9.1c0-8.9-.7-16.9-2.1-24.1-1.4-7.2-3.3-13.9-5.8-20.3-1.1-2.7-2.2-5.4-3.1-8.1-.9-2.6-2.1-5-3.5-7.2-1.9-3.1-3.7-5.9-5.4-8.7-1.7-2.8-3.6-5.5-5.8-8.3-.6-1.1-1.4-2-2.5-2.9-1.1-.9-2.1-1.8-2.9-2.9-2.3-3.3-5-6.1-8.3-8.3-1.4-1.4-2.8-2.7-4.3-4-1.6-1.2-3.1-2.6-4.8-3.9-7.2-5-15.2-9.4-24-13.3-3.8-1.7-7.9-3-12-4-4.2-.9-8.4-2-12.9-3.1-1.1-.3-2.6-.5-4.5-.5-3-.8-6.4-1.2-10.1-1.2h-11c-.6.3-1.1.3-1.6.2-.6-.1-1.1 0-1.7.2l-9.9 1.2c-4.2 1.1-8.2 2-12 2.9-3.9.8-7.8 1.9-11.7 3.3-16.6 6.9-30.4 16.3-41.5 28.2-11 11.9-19.8 26.5-26.1 44-1.4 3.6-2.3 7.3-2.9 11.4-.5 4-1.3 7.9-2.5 11.8v3.7c-.6 2.2-.9 4.5-.9 6.8v7.3c0 5.8.2 11.3.6 16.4.4 5.1 1.3 10 2.7 14.7 1.1 3.9 2.1 7.5 2.9 10.8.8 3.3 1.9 6.6 3.3 10 6.1 13.8 14 25.9 23.6 36.2 9.7 10.4 21.4 18.6 35.3 24.7 3.5 1.4 7.2 2.7 11 4 3.7 1.2 7.6 2.6 11.8 4 2.2.2 4.2.5 5.9.8 1.9.3 3.8.5 6 .8.5 0 1.2.1 2.1.2.8.2 1.5.2 2.1.2 1.7.3 3.5.4 5.4.4h10.8l10-1.2c4.1-.9 8.1-1.7 12-2.5 3.9-.8 7.6-1.9 11.2-3.3 16-6.4 29.6-14.8 40.6-25.5 11.1-10.7 20.1-23.9 26.9-39.6 2.2-4.7 3.8-9.4 4.8-14.1 1-4.7 2.1-9.8 3.5-15.3.1-1.9.2-3.3.5-4.1zm-45.2-55.1c.5 2.5.5 5.7 0 9.7-.6 4-1.1 7.1-1.7 9.3-1.9 5.5-4.5 10.1-7.7 13.7-3.2 3.6-7 6.8-11.4 9.6-3.1 1.6-6.8 3-11.2 4.1-4.4 1.1-7 3.4-7.9 7.1-.3.8-.3 1.7 0 2.7.2 1 .5 1.7.8 2.3.8 1.9 1.7 3.7 2.7 5.2 1 1.5 2 3.1 3.1 4.8 3.8 6.1 7.6 12.2 11.2 18.2 3.6 6.1 7.3 12.2 11.2 18.3.5 1.1 1.4 2.5 2.5 4.1 1.1 1.6 2 3.4 2.7 5.2.7 1.8 1 3.5 1 5.2s-.8 3.1-2.5 4.2c-2.2.6-4.1.8-5.8.8h-3.3c-2.2.5-4.1.5-5.8 0-1.4-.3-2.7-.3-4 0-1.2.3-2.6.2-3.9-.4-2.8-.8-4.8-2.2-6.2-4.2-1.4-1.9-2.8-4-4.1-6.2-5.3-8-10.2-16.3-14.7-24.9-4.6-8.6-9.4-17-14.3-25.3-1.3-2.2-2.8-4.4-4.3-6.6-1.5-2.2-3.7-3.9-6.4-5-.6-.5-1.2-.7-1.9-.6-.7.1-1.6.1-2.7-.2-.6-.2-1.8-.4-3.7-.4-2 .5-3.6 1-5 1.4-1.3.5-2.5 1.4-3.3 2.7-1.4 1.9-2.1 4.3-2.1 7V3765.3c0 3.9-.1 7.8-.2 11.8-.2 4-1.5 6.8-3.9 8.5-.9.5-1.7.9-2.7 1-.9.2-2 .3-3.1.6h-3.3c-2.5.5-4.9.5-7 0h-3.3c-3.3-.6-5.5-1.2-6.6-2.1-1.1-.8-1.8-1.9-2.1-3.3-.2-1.4-.7-2.7-1.3-4.1v-3.7c-.3-1.4-.3-3.1-.2-5.2.1-2.1.2-3.9.2-5.6v-126c0-1.4-.1-2.9-.2-4.6-.2-1.6-.1-3.2.2-4.5v-3.8c.5-2.7 1.1-4.7 1.7-5.8.8-1.1 1.8-1.9 2.9-2.3 1.1-.4 2.3-.9 3.8-1.5.8-.3 1.7-.3 2.7 0 .9.3 1.7.2 2.3-.4h35.6c11.3 0 21.8.4 31.3 1.1 9.6.7 18.2 2.7 25.9 6 2.5 1.1 5.2 2.5 8.3 4.3 3 1.8 5.3 3.7 6.7 5.6 2.5 3.3 4.4 6.4 5.8 9.1 1.4 2.7 2.8 6.5 4.1 11.2l1.3 7.4v3.9zm-34.9 7.8c1.1-3.3 1.4-6.6.6-9.9-.7-3.3-1.7-6.1-3.1-8.3-2-3.1-4.6-5.3-7.9-6.9-3.3-1.5-7-2.6-11.2-3.3-4.1-.7-8.7-1.1-13.7-1.2-5-.1-9.9-.2-14.9-.2-.6.3-1.3.3-2.3.2-1-.1-1.7-.1-2.3.2-4.1.9-6.8 2.8-7.9 5.8-.8 1.7-1.2 3.6-1.2 5.8v6.6c0 5.2.1 10.4.2 15.5s1.9 8.6 5.2 10.5c2.2 1.1 4.9 1.6 8.1 1.4 3.2-.1 6.2-.2 9.3-.2 7.7 0 15.1-.3 22-1s12-3.2 15.3-7.6c1.8-1.8 3-4.3 3.8-7.4zM2671.9 3120.4c-2.1-.1-4.2-.1-6.2-.1l-20.4-.3c-1.7-.1-3.6-.1-5.6-.2-2 0-3.6.2-5 .6-2.3 1.1-3.7 2.6-4.4 4.6-.7 2-1.4 4.1-2.1 6.6-1.2 2.7-2.2 5.3-3.2 8-.9 2.7-2 5-3.4 7.3-3 4.7-6.3 8.7-10 12.3-3.7 3.7-8.2 6.5-13.3 8.6-2.3 1.1-4.6 1.8-6.9 2.2-2.3.4-4.8.8-7.5 1.2-.6.2-1.6.3-3 .3-1.1.2-2.6.3-4.3.4-1.8.1-3.2-.1-4.4-.6h-2.6c-1.2 0-2.2 0-3.2-.3-.9 0-2-.3-3.1-.5-3.1-.9-6-1.8-8.6-2.7-2.7-.8-5.2-1.8-7.6-3-8-4.3-14.3-9.8-19.1-16.5-4.8-6.6-8.7-14.7-11.6-24-.7-2-1.2-4.1-1.6-6.2-.4-2.2-.8-4.4-1.2-6.9-.4-2.2-.6-4-.6-5.4-.5-1.1-.6-2.2-.5-3.4.2-1.1 0-2.2-.4-3.3v-3c-.2-.9-.2-1.8-.2-2.7.2-.9.2-1.8.3-2.7 0-1.8 0-3.6-.1-5.5s.1-3.7.6-5.5c.5-1.5.6-3 .6-4.5-.1-1.4.1-2.8.6-4.2.2-1.5.4-3 .7-4.3.2-1.4.5-2.7.7-4.4 1.2-3.1 2.2-6.1 3.2-8.9.9-2.9 2-5.7 3.1-8.3 6.5-14.8 17.4-25.3 32.5-31.6 1.6-.6 3.1-1 4.6-1.4 1.5-.4 3.1-.7 4.8-1.1 4.2-1 9.2-1.5 14.9-1.4 5.7.1 10.4.8 14.1 2.2 5.7 1.9 10.9 4.3 15.5 7.2 6.8 4.4 12.3 10.2 16.4 17.6 1.3 2 2.4 4.4 3.3 7.1.9 2.7 2.2 4.8 3.9 6.4 1.1.6 2.7 1.2 5 1.6 2.2.4 4.7.6 7.3.8 2.6.2 5.4.3 8.1.2h7.2c1.6 0 3.2.2 4.8.3 1.6.1 3.2 0 4.5-.5l2.7.1c1.6-.4 2.9-.8 4.2-1.1 1.2-.4 2-1.2 2.5-2.5.7-1.8.9-3.6.4-5.7-.4-2-.9-3.8-1.2-5.3-1.3-4.7-2.7-9.1-4.2-13-1.5-3.9-3.4-7.8-5.8-11.6-8.7-14.2-20.5-25.6-35.5-34.3-15-8.7-34.2-13-57.5-12.9-.4.2-.9.1-1.7 0-.6-.3-1.2-.3-1.6 0-1.8.2-3.5.3-5.2.4-1.6 0-3.4.2-5.2.4-1.1.4-2.4.6-3.7.6-1.3 0-2.6.2-4 .6-3.2.6-6.1 1.3-9.1 2-2.9.7-5.7 1.7-8.4 2.7-7.9 3-14.8 6.4-21.1 10.2-6.2 3.8-12 8.4-17.6 13.9-1.4 1.3-2.7 2.7-4.1 3.9-1.4 1.3-2.6 2.8-3.8 4.3-3.8 4.8-7.6 10.3-11.2 16.5-1.6 2.5-3 5-4.3 8-1.3 2.8-2.5 5.8-3.6 8.6-1.1 2.6-2.1 5.5-2.8 8.4-.7 3-1.6 6.1-2.5 9.2-.5 1.8-.8 3.5-1.1 5.2-.2 1.7-.6 3.3-1.1 5.1-.3 2-.5 4-.6 6-.2 2-.5 3.9-1 5.7l-.1 2.9c0 .5.1 1.1.2 1.9.1.8 0 1.6-.3 2.2-.5 1.1-.7 2.8-.7 5-.1 2.2.1 3.9.5 5l-.1 6.3c.2.9.3 1.7.2 2.5-.2.8 0 1.7.5 2.8.4 2 .7 4.1.9 6.3.1 2.3.4 4.4.9 6.4.2.8.2 1.7.2 2.4 0 .8.2 1.8.6 2.9 1.1 3.5 2 7 2.8 10.3.9 3.3 1.9 6.7 3.1 10.1 5.6 13.4 12.9 25.1 22 34.8 9.1 9.8 20.3 17.8 33.4 23.7 1.9.9 3.7 1.8 5.8 2.6 1.9.9 3.9 1.6 5.9 2.3 2.2.7 4.4 1.4 6.5 1.8 2 .5 4.3 1.1 6.5 1.8 1.8.2 3.5.5 5 .7 1.5.3 3.1.6 4.7.8 1.5 0 2.6.2 3.3.4 1.8.5 3.6.8 5.6.8 2 0 4.1 0 6 .1l5.3.1c1.6-.2 3.1-.4 4.6-.5 1.4-.1 2.9-.1 4.5-.1 1.1-.4 2.2-.5 3.3-.4.9.2 2 0 3.1-.5 2.5-.5 4.9-.8 7.3-1.2 2.5-.4 4.9-1 7.4-1.9 23.4-7.2 41.4-20.2 54.1-39.2 1.1-1.6 2-3.1 2.7-4.8.6-1.7 1.6-3.4 2.7-5.1 1.6-2.8 3-5.9 4-8.9 1.1-3.1 2.1-6.3 3.4-9.7l2.1-9c.7-2.2 1-4.5.9-6.9-.1-2.5-.9-4.3-2.4-5.4-1.1-.3-2.8-.8-4.9-.8zM2380.1 2969c-1-1.6-2.7-2.7-5.2-3.1-2.3-.4-4.9-.8-7.6-.9l-29-2.3-124.3-9.7c-.4.2-.9.2-1.3 0-.5-.1-.9-.1-1.3.1-2.5.5-4.2 1.5-5.3 2.9-.9 1.1-1.5 2.6-1.7 4.6-.2 2-.3 4-.4 6l-1.6 20.6-5.8 72.5-7.1 90.5-1.9 23.9c-.1 2-.3 4.1-.5 6.2-.2 2.1.2 3.9 1 5.2.9 1.9 2.6 3.1 4.9 3.6 2.3.5 5 .9 8 1.2l26.3 2.1 98.5 7.7 24.9 1.9c2.5.2 4.7.4 6.8.6 2.1.2 3.9-.3 5.3-1.3 1.8-.9 3-2.7 3.4-4.9.4-2.3.7-4.8.9-7.5l1.2-15.3c.2-1.8.2-3.4.3-5 0-1.6-.2-3-.5-4.1-.5-1.8-1.7-3.1-3.4-3.9-1.3-.8-2.7-1.3-4.5-1.4-1.6-.2-3.4-.3-5.2-.5l-17.6-1.4-62.6-4.9-13.9-1.1c-1.2 0-2.3-.2-3.7-.1-1.3 0-2.5-.2-3.6-.4l-3.4-.3c-1.1-.5-2.1-.9-3.1-1.1-1-.2-1.8-.6-2.4-1.4-1.5-1.2-2.3-2.9-2.4-5-.2-2.2-.2-4.6 0-7.2l1.4-18.6 1.1-12.6c0-1.2.2-2.3.2-3.6.1-1.2.3-2.3.6-3.4.9-2 2-3.3 3.5-4.2 1.5-.9 3.3-1.4 5.5-1.6 2.2-.2 4.4-.2 6.8.2 2.5.3 5 .6 7.6.8l64.9 5.1c1.5.1 3.4.3 5.8.6 2.3.3 4.7.5 7 .7 2.3.2 4.4.3 6.3.2 1.9 0 3.4-.5 4.6-.9 1.5-1.1 2.4-2.4 3-4.1.5-1.2.8-2.4 1-4 .1-1.5.3-3.1.3-4.6.1-1.8.4-3.8.7-6.3.3-2.4.5-4.8.6-7.2.1-2.3 0-4.5-.3-6.6-.3-2-.9-3.4-2-4.1-.9-.8-2.2-1.4-4.1-1.7-1.9-.4-3.9-.6-6.1-1-2.2-.3-4.5-.4-6.8-.6-2.3 0-4.3-.2-5.9-.3l-57.2-4.5-17.9-1.4c-2-.1-4-.3-5.6-.6-1.8-.2-3.3-.9-4.5-1.9-1.1-.8-1.8-1.8-2.2-3-.3-1.3-.6-2.8-.9-4.6l.8-9.7 1.5-18.9c.2-2.7.5-5.1 1.1-7.1.6-2.2 1.6-3.7 3.2-4.7 1-.6 2.4-.9 4.4-1.2 2-.1 4.2-.2 6.6-.1 2.3.1 4.7.2 7 .5s4.3.5 6.2.6l60.2 4.8 22.9 1.8c2.2.1 4.3.3 6.3.5s3.7-.2 5.1-.9c1.6-.8 2.8-2.4 3.7-5 .2-2.2.5-3.9.8-5 .3-1.5.5-3.1.6-4.8 0-1.6.1-3.4.2-5.2.2-1.5.4-3.2.6-5 .3-1.7.4-3.4.2-5l.3-3.7c-.4-.9-.6-1.8-.6-2.7-.1-.7-.3-1.5-.7-2.2zm-514.8-60.7c-.8-1.7-2.3-3-4.7-3.7-2.3-.7-4.8-1.4-7.4-1.9l-28.4-5.9-122.3-25.1c-.5.2-.9.1-1.3-.1s-.8-.2-1.3-.1c-2.6.2-4.4.9-5.6 2.2-1.1.9-1.8 2.4-2.2 4.3-.4 2-.8 3.9-1.2 5.9l-4.2 20.3-14.7 71.3-18.3 88.9-4.8 23.5-1.2 6c-.4 2.1-.3 3.9.2 5.4.8 1.9 2.2 3.3 4.4 4.1 2.3.8 4.9 1.5 8 2.2l25.8 5.3 96.7 20 24.6 5c2.4.5 4.6 1 6.7 1.4 2 .3 3.8.2 5.3-.6 2-.8 3.3-2.2 4-4.5.7-2.2 1.3-4.7 1.9-7.3l3-15c.4-1.7.7-3.4.9-4.9.2-1.6.2-2.9 0-4.1-.3-1.9-1.2-3.3-2.8-4.3-1.2-.9-2.6-1.5-4.2-1.9-1.6-.3-3.4-.6-5-1.1l-17.4-3.6-61.4-12.6-13.7-2.9c-1.1-.2-2.3-.3-3.6-.5-1.4-.2-2.6-.5-3.6-.9l-3.3-.6c-.9-.7-1.9-1.2-2.8-1.5-1-.3-1.7-.9-2.2-1.7-1.3-1.4-1.9-3.2-1.8-5.3.1-2.1.4-4.5 1-7.1l3.7-18.3 2.6-12.4c.3-1.1.5-2.2.7-3.4.3-1.3.6-2.3 1.1-3.3 1.1-1.9 2.4-3.1 4-3.8 1.6-.8 3.5-1 5.7-.9 2.1.1 4.4.5 6.7 1 2.4.6 4.9 1.2 7.6 1.7l63.7 13.1c1.5.3 3.4.8 5.7 1.4 2.3.5 4.6 1 6.9 1.6 2.3.5 4.3.8 6.3.9 1.9.2 3.5 0 4.7-.4 1.5-.8 2.7-2 3.5-3.7.7-1 1.2-2.2 1.4-3.8.4-1.5.6-3 1-4.6.3-1.7.9-3.8 1.4-6.1.6-2.4 1.1-4.7 1.5-7.1.3-2.3.5-4.5.5-6.5s-.5-3.5-1.5-4.4c-.8-.8-2-1.6-3.8-2.2-1.8-.6-3.8-1.1-5.9-1.7-2.2-.5-4.4-1-6.7-1.3-2.3-.4-4.2-.8-5.7-1l-56.2-11.6-17.6-3.6c-2-.4-3.9-.9-5.5-1.3-1.7-.5-3.1-1.3-4.3-2.4-.9-.9-1.5-2-1.7-3.3-.2-1.3-.3-2.8-.3-4.7l1.9-9.5 3.9-18.6c.5-2.6 1.2-4.9 1.9-6.9.8-2 2-3.4 3.8-4.1 1-.5 2.5-.7 4.6-.6 2 0 4.2.3 6.5.6 2.3.4 4.5.8 6.8 1.4 2.3.6 4.3 1 6.1 1.4l59.1 12.2 22.5 4.7c2.2.5 4.2.8 6.2 1.3 2 .3 3.7.3 5.2-.3 1.7-.6 3.2-2.1 4.4-4.6.5-2.2.9-3.8 1.3-4.9.6-1.5.9-3 1.2-4.7.3-1.6.6-3.3.9-5 .3-1.6.7-3.2 1.2-4.9.5-1.7.7-3.3.9-4.9l.7-3.7c-.3-.9-.3-1.9-.2-2.7-1.1-1.2-1.1-2-1.5-2.7zm224.9 227.4c-2.1-.8-4.3-1.3-6.7-1.8-2.4-.4-4.9-.8-7.6-1-2.7-.3-4.9-.6-6.6-.8l-64.1-8.9c-4.4-.6-8.9-1.2-13.6-1.9-4.7-.6-7.5-2.5-8.7-5.5-.3-1.2-.4-2.5-.3-4 .1-1.5.3-3 .5-4.5l.5-3.2c-.2-1.7-.2-3.3.2-4.9.3-1.6.6-3.3.9-5.1l2.7-19.5 14-100.1 4.2-30.1c.4-2.8.8-5.6 1.2-8.1.3-2.5 0-4.7-.8-6.4-.9-1.7-2.5-2.8-4.8-3.2-2.2-.5-4.6-.9-7-1.2l-28.1-3.9c-.5.2-1 .2-1.4-.1-.4-.1-.9-.1-1.4 0-2.8.3-4.6 1.1-5.8 2.6-.8 1.1-1.3 2.5-1.8 4.5-.4 2-.6 4-1 5.9l-2.9 20.9-10.4 74.6-12.3 87.6-3.2 23.1c-.3 2-.6 4-.9 6.1-.2 2.1-.1 3.9.6 5.3.9 1.9 2.4 3.2 4.7 3.8 2.3.7 5 1.2 8 1.6l23.7 3.3 89.6 12.5 23.5 3.3c2 .3 4 .5 6.2.9 2.2.3 3.9 0 5.2-.6 1.4-.6 2.7-1.6 3.8-3.2.6-1.1.9-2.3 1-3.9.2-1.6.3-3.2.5-5l2.1-15.2c.3-2.2.5-4.4.9-6.2.3-2.1-.1-3.8-1-5.3-.3-.8-1.5-1.6-3.6-2.4zm2142.5-321.8c-.1 1.3 0 2.4.5 3.6.4 1.1.5 2.3.4 3.5 0 1.4.3 2.8.9 4.1.5 1.4.9 2.8.9 4.4l.6 1.9c.1 1.2.5 2.1 1.1 3.1.5.8.8 1.9.9 3 0 1.2.3 2.8 1 5.1.8 2.2 1.5 3.8 2.3 4.7.6 1.2 1 2.5 1.3 3.9.2 1.4.7 2.8 1.3 4 .7.7 1.1 1.6 1.4 2.5.2 1 .6 2 1.1 3 1 1.5 1.9 3 2.6 4.5.8 1.5 1.6 3 2.5 4.2.5.8.9 1.6 1.1 2.3.3.7.8 1.6 1.6 2.5 2.1 3.1 4.2 6.1 6.2 9 1.9 3 4.1 5.8 6.3 8.3 9.7 10.8 20.5 19.4 32.3 25.6 11.8 6.3 24.9 10 39.5 11.2 2.7.3 5.3.4 8 .5 2.7.1 5.3.1 8 .2 1.8-.1 3.7-.3 5.4-.6 1.8-.2 3.6-.4 5.4-.5 1.8-.2 3.5-.5 5-.8 1.5-.4 3.1-.7 5-.8l3.5-1.2c1.2-.1 2.1-.4 3-.8.9-.4 2-.7 3.1-.9.7 0 2.1-.3 4.3-.9 2.2-.6 3.6-1.1 4.4-1.6l10.1-4.4c1-.7 2-1.1 3.3-1.5 1.1-.4 2.1-.9 3.1-1.7 2.2-1.2 4.3-2.4 6.5-3.6 2.2-1.3 4.3-2.7 6.3-4.3 14-10.5 24.8-22.5 32.3-35.9 7.4-13.4 11.9-28.6 13.3-45.5.3-3.8.5-7.8.2-11.6-.3-4-.5-8-.7-12.1-.1-1.6-.3-3.2-.5-4.7-.3-1.6-.5-3.1-.5-4.8-.3-2.4-.9-4.8-1.7-7.2-.8-2.3-1.3-4.6-1.6-6.8l-1.4-4.1c0-1.4-.6-3.6-1.7-6.6-1.2-3-2.1-5.1-3-6.2l-.8-2.6c-.5-.9-1-2.1-1.4-3.6-.4-1.4-1-2.7-1.8-3.8-.9-1.1-1.5-2.4-2-3.7-.5-1.4-1.2-2.7-2.1-4.1-1.4-2.1-2.7-4.2-3.8-6.3-1.2-2-2.4-4.1-3.8-5.9-2.1-2.8-4.1-5.5-5.9-7.8-1.9-2.5-4-4.9-6.2-7.5-3-3.4-6.3-6.5-9.8-9.2-3.5-2.7-6.9-5.3-10.4-7.9-1.2-.8-2.5-1.6-3.9-2.4-1.4-.8-2.9-1.6-4.3-2.2-2.7-1.9-6-3.6-9.8-5-3.8-1.4-7.3-2.7-10.7-3.6-10.7-3.2-22.1-4.8-34.2-4.5-12.2.2-25.6 3-40.5 8.5-.4.3-.9.5-1.7.5-.8.1-1.4.3-1.7.6l-9.2 4.1c-1 .6-2 1-2.9 1.4-.9.3-1.9.8-2.7 1.6-2.7 1.8-5.5 3.5-8.4 5.2-2.8 1.7-5.5 3.4-7.9 5.5-10.2 8.8-18.2 18-24.2 27.5s-10.4 20.3-13.3 32.6c-1 3.9-1.7 7.9-2 11.9-.3 4.1-.7 8.1-1.2 12.3-.2 3.8 0 7.6.6 11.2.6 3.5.9 7.3 1.1 11.2zm53.4-50.9c2.9-8.5 8.2-16.1 15.8-22.9 1.6-1.5 3.4-2.9 5.4-4.1 2.1-1.3 4.2-2.6 6.4-3.7.9-.8 1.8-1.2 2.6-1.5.9-.1 1.8-.5 2.5-1 .3-.4.8-.6 1.4-.7.5 0 1-.3 1.4-.6 15.6-5.3 28.9-5.9 39.9-2.2 11 3.6 20.5 10.1 28.8 19.3 1.8 2 3.5 4 4.9 6.1l4.2 6.3c.9 1.1 1.4 2.2 1.9 3.3.9 1.3 1.6 2.8 2.2 4.3.6 1.5 1.5 3.1 2.5 4.6.7.7 1.1 1.4 1.2 2.2.2.8.5 1.5 1 2.3l1.8 5.4c.8.9 1.5 2.3 2.1 4.4.7 2 1 3.6 1 4.7l.9 2.6c.3 1 .6 2 1 3 .3 1 .4 1.9.5 2.8l1.6 7.9c0 3 .3 6 .7 8.9.4 3 .4 5.7.1 8.4-.5 10.3-2.4 19.1-5.6 26.6s-8.8 14.5-16.7 21.1c-1.7 1.5-3.5 2.8-5.5 3.7-2 1-4 2.1-5.9 3.2-.9.8-1.8 1.3-2.7 1.5-.9.2-1.8.6-2.8 1.1l-2.5.8c-1.6.5-2.9.9-4.1 1.4-1.2.4-2.6.6-4 .6-1.1.2-2.2.4-3.1.8-.9.4-1.9.6-3.2.5-3.2.2-6.3.3-9.2.3-2.9 0-5.7-.3-8.5-1-1.4-.3-2.9-.5-4.3-.7-1.4-.3-2.7-.7-4.2-1.4-6.2-1.9-12.1-5.2-17.4-9.8-5.3-4.7-10.3-10-14.9-16-1.5-1.8-2.9-3.9-4-6.1-1.1-2.2-2.3-4.4-3.7-6.4-.3-.9-.6-1.7-1-2.3-.4-.7-.6-1.5-.9-2.3-.5-.8-.9-1.6-1.2-2.6-.4-.9-.7-1.8-1.2-2.6l-1.1-3.5c-.8-.9-1.6-2.8-2.5-5.7-.8-2.9-1.3-4.9-1.2-6.1-.2-1.2-.5-2.3-1.2-3.5-.6-1.2-.9-2.4-.9-3.6 0-.9-.2-1.7-.4-2.4-.3-.8-.4-1.6-.6-2.5-.1-2.5-.3-5-.8-7.2-.4-2.4-.7-4.8-.8-7.3 0-10.5 1.4-19.9 4.3-28.4zM2949 2979.9c0-1.1-.1-2.2-.1-3.3-.1-1.1-.2-2.1-.5-3l-.1-1.7c-.3-1.1-.7-2.1-1-3.1-.4-1-.9-1.7-1.6-2-1.8-1.1-4.1-1.6-6.9-1.6-2.8 0-5.6 0-8.5.2l-34 1.4-133.3 5.6-1.6.1c-1.8.5-3 1.1-3.6 1.6-1.8 1.2-2.8 2.9-3 5.1-.2 2.2-.3 4.8-.2 7.7l.7 16.3c.1 1.8.2 3.6.4 5.3.2 1.8.6 3.2 1.3 4.3.9 1.3 2.3 2.2 4.2 2.8 1.8.3 4.1.4 7.1.2 3-.3 5.7-.4 8.1-.5l31-1.3c4.7-.2 8.7-.3 12.2 0 3.4.2 5.8 2.1 7.1 5.9.5.9.5 1.7.4 2.6-.2.9-.1 2 .1 3.1.5 1.2.7 2.8.7 4.5-.1 1.6 0 3.3 0 4.8l1.2 28.4 3.9 92.6 1.4 33.3c.1 2.9.3 5.7.4 8.5.1 2.8.7 5 1.9 6.7 1.1 1.3 2.8 2 5 2.1 2.1.2 4.4.1 6.9 0l22.6-.9c1.8-.1 3.7-.2 5.7-.2 2-.2 3.8-.4 5.3-.9 2.4-1.2 3.7-3.1 4-5.6.2-2.6.2-5.7.1-9.2l-1.3-31.3-4.1-96-1.2-29.7c-.1-1.3-.2-2.8-.4-4.5-.2-1.6-.2-3.1 0-4.5.4-1.1.4-2.1.2-3-.3-.9-.2-1.9-.1-3 .9-3.8 3-6 6.2-6.5 3.2-.4 7-.8 11.4-.9l34-1.4c4.7-.2 8.7-.5 12-.8 3.3-.3 5.5-2.4 6.5-6.3.3-1.4.4-2.8.2-4.2-.2-1.4-.3-3-.3-4.5l-.4-13.2zm759.7 29.9c-1.5-.6-3.3-.7-5.3-.3-2.1.4-4.1.8-6.1 1.1l-20 3.8c-1.8.3-3.6.6-5.6 1.1-2 .3-3.5.9-4.7 1.5-2 1.5-3.2 3.3-3.4 5.4-.3 2.1-.6 4.4-.8 7-.6 2.8-1.1 5.6-1.5 8.4-.4 2.8-1 5.4-1.9 7.8-2 5.2-4.4 9.8-7.4 14.1-2.9 4.3-6.7 8-11.3 11.2-2 1.5-4.1 2.7-6.3 3.6-2.2.8-4.6 1.7-7.1 2.7-.6.3-1.6.6-2.9.9-1 .4-2.4.8-4.1 1.3-1.7.5-3.2.6-4.3.3l-2.7.5c-1 .2-2.1.4-3.1.4-1.1.1-2.1.1-3.2.1-3.3-.3-6.2-.6-9-.8-2.7-.3-5.5-.7-8.1-1.4-8.6-2.7-16-6.7-22-12.3-6-5.5-11.4-12.6-16.2-21.2-1-1.8-2-3.8-2.8-5.8-.9-2-1.7-4.1-2.6-6.5-.8-2.1-1.4-3.8-1.7-5.1-.6-1.1-1-2-1-3.2-.1-1.1-.5-2.2-1.1-3.1l-.6-3c-.4-.8-.6-1.7-.6-2.6-.1-.9-.2-1.7-.4-2.7-.3-1.7-.8-3.6-1.2-5.4-.5-1.9-.7-3.6-.5-5.5.1-1.6 0-3.1-.4-4.5s-.5-2.8-.3-4.2c-.1-1.6-.1-3.1-.2-4.4 0-1.3-.1-2.8-.2-4.4.5-3.2.9-6.4 1.3-9.4.3-3 .8-5.9 1.4-8.7 3.4-15.8 11.9-28.3 25.5-37.4 1.5-.9 2.8-1.7 4.2-2.3 1.4-.6 2.9-1.3 4.5-2 4-1.9 8.7-3.4 14.3-4.4 5.6-1 10.4-1.2 14.4-.6 6 .7 11.6 2 16.7 4 7.6 2.9 14.1 7.5 19.6 14 1.7 1.7 3.2 3.8 4.6 6.2 1.3 2.4 3 4.3 5.1 5.5 1.3.5 3 .6 5.2.5 2.3 0 4.7-.3 7.4-.7 2.6-.3 5.3-.9 8-1.5 2.7-.7 5.1-1.2 7-1.6 1.5-.2 3.1-.5 4.8-.7 1.7-.2 3.1-.6 4.3-1.3l2.6-.5c1.4-.8 2.7-1.4 3.9-1.9 1.1-.6 1.8-1.6 2-2.9.3-1.9 0-3.7-.8-5.6-.8-1.9-1.6-3.5-2.2-5-2.2-4.3-4.5-8.3-6.7-11.8-2.2-3.6-4.9-6.9-8-10.2-11.4-12.1-25.3-20.9-41.7-26.4-16.4-5.5-36.1-5.9-58.9-1.1-.4.3-.9.4-1.7.3-.7-.1-1.2.1-1.6.3-1.7.6-3.4 1.1-5 1.5-1.6.5-3.3.9-5 1.4-1 .7-2.1 1.1-3.5 1.3-1.3.3-2.6.7-3.8 1.4-2.9 1.2-5.8 2.5-8.4 3.7-2.7 1.4-5.3 2.8-7.7 4.4-7.1 4.5-13.3 9.2-18.5 14.2-5.3 4.9-10.1 10.6-14.6 17.1-1 1.6-2.1 3.1-3.1 4.7-1.1 1.6-2 3.3-2.8 5-2.8 5.5-5.4 11.6-7.7 18.4-1.1 2.7-1.9 5.6-2.6 8.6-.6 3-1.3 6.1-1.8 9.2-.6 2.8-1 5.7-1 8.8-.1 3.1-.3 6.2-.6 9.5-.1 1.9-.1 3.6 0 5.3.1 1.7.1 3.4 0 5.2.1 2 .4 4 .5 6.1.3 2 .4 3.9.2 5.7l.6 3c0 .4.2 1 .5 1.8.2.7.3 1.4.2 2.1-.2 1.2-.1 2.9.3 5 .4 2.2.9 3.8 1.5 4.8l1.3 6.3c.4.8.6 1.6.6 2.4.1.8.4 1.7 1 2.7.8 1.9 1.5 3.9 2.1 6.1.6 2.2 1.4 4.2 2.2 6 .4.9.6 1.7.8 2.5.2.8.5 1.6 1.2 2.7 1.7 3.3 3.4 6.5 4.8 9.6 1.5 3.1 3.2 6.2 5.2 9.2 8.1 12 17.7 22 28.5 29.7 10.9 7.8 23.4 13.3 37.6 16.6 1.9.5 3.9 1 6 1.4 2.2.3 4.3.7 6.4 1 2.3.3 4.5.4 6.7.5 2.1 0 4.4.2 6.7.4 1.8-.1 3.4-.2 5.1-.3 1.6 0 3.1-.1 4.7-.2 1.5-.3 2.6-.4 3.3-.3 1.9.1 3.8 0 5.8-.4 2-.3 3.9-.8 5.9-1.1l5.2-1c1.5-.5 3-.9 4.4-1.3 1.4-.3 2.8-.7 4.4-1 1-.6 2-1 3-1.1 1-.1 2-.5 3-1.1l6.9-2.7c2.3-.9 4.6-2 6.9-3.3 21.5-11.8 36.5-28.2 44.9-49.3.9-1.8 1.4-3.5 1.8-5.2.4-1.8.9-3.6 1.6-5.6 1-3.2 1.7-6.3 2.1-9.6.4-3.2.9-6.6 1.3-10.1l.3-9.2c.2-2.3.1-4.6-.5-7-.7-2.7-1.8-4.3-3.5-5.1zm348.5 8.8c2.1-.1 4.4-.2 6.7-.1 1.7-.3 3.4-.6 5-.7 1.6-.2 3.1-.4 4.7-.6 1.6-.3 2.6-.6 3.4-.6 1.8 0 3.7-.3 5.6-.8 2-.6 3.9-1.1 5.8-1.6l5.2-1.4c1.5-.6 2.9-1.2 4.2-1.7 1.4-.5 2.8-1 4.3-1.4.9-.7 1.9-1.2 2.9-1.4 1-.2 2-.6 2.9-1.3 2.2-1.1 4.5-2.2 6.7-3.3 2.2-1 4.5-2.4 6.6-3.9 20.5-13.5 34-31.2 40.8-52.8.7-1.9 1.1-3.6 1.3-5.4.2-1.8.6-3.7 1.2-5.7.8-3.2 1.2-6.4 1.3-9.7.2-3.2.3-6.7.5-10.1l-.5-9.2c0-2.3-.4-4.7-1.1-7-.7-2.3-2-3.8-3.8-4.5-1.5-.5-3.3-.4-5.3.1-2 .6-4 1.1-5.9 1.7l-19.7 5.4c-1.7.4-3.5.9-5.5 1.5-1.9.5-3.4 1.2-4.6 2-1.8 1.7-2.8 3.5-3 5.7-.1 2.1-.1 4.4-.1 7-.4 2.8-.5 5.7-.8 8.5-.2 2.8-.5 5.5-1.2 8-1.6 5.3-3.6 10.1-6.2 14.7-2.6 4.5-6.1 8.6-10.4 12.1-1.9 1.7-3.8 3-5.9 4-2.1 1.1-4.4 2.2-6.9 3.4-.6.3-1.5.7-2.8 1.1-1 .5-2.3 1-4 1.7-1.7.6-3.2.8-4.3.7l-2.5.6c-1.1.3-2.2.6-3.1.8-1 .1-2 .3-3.2.3-3.2 0-6.2 0-9-.1-2.7 0-5.5-.3-8.1-.7-8.9-1.9-16.5-5.4-23-10.4-6.4-5-12.4-11.6-17.9-19.9-1.2-1.7-2.3-3.5-3.3-5.4-1-1.9-2-4-3.1-6.2-1-2-1.8-3.6-2.1-5-.8-1-1.2-2-1.4-3.1-.2-1.1-.6-2.2-1.3-3.1l-.8-2.9c-.5-.8-.7-1.6-.8-2.5l-.6-2.7c-.5-1.7-1-3.4-1.7-5.3-.5-1.7-.9-3.6-1-5.4 0-1.6-.2-3.1-.7-4.5-.5-1.4-.7-2.8-.6-4.2-.2-1.5-.4-3-.5-4.3-.2-1.3-.4-2.7-.5-4.4.2-3.3.4-6.4.4-9.5.2-3 .4-5.9.7-8.8 2-16 9.4-29.2 22.3-39.4 1.3-1.1 2.6-2 3.9-2.6 1.3-.8 2.8-1.5 4.4-2.5 3.8-2.2 8.4-4.1 13.8-5.5 5.4-1.6 10.2-2.2 14.2-1.9 6 .1 11.7 1 17 2.6 7.7 2.2 14.7 6.3 20.6 12.2 1.9 1.6 3.6 3.6 5.2 5.9 1.5 2.3 3.3 4 5.5 5 1.2.3 3 .3 5.2.1 2.3-.2 4.7-.6 7.3-1.3 2.6-.6 5.2-1.3 7.9-2.2 2.7-.8 4.9-1.6 6.9-2 1.5-.4 3.1-.8 4.7-1.2 1.6-.3 3.1-.9 4.2-1.7l2.6-.7c1.4-.8 2.6-1.6 3.8-2.2 1-.6 1.6-1.7 1.7-3.1.1-1.9-.3-3.8-1.2-5.5s-1.8-3.4-2.7-4.8c-2.6-4.2-5-7.9-7.6-11.2-2.6-3.4-5.5-6.5-8.9-9.5-12.3-11.1-26.8-18.7-43.7-22.8-16.8-4.2-36.4-2.8-58.8 3.8-.4.3-.9.5-1.6.4-.7 0-1.3.1-1.6.5-1.7.7-3.3 1.3-4.9 1.9-1.6.5-3.2 1.2-4.9 1.9-1 .7-2.1 1.3-3.3 1.6-1.3.3-2.5.8-3.7 1.7-2.8 1.5-5.5 3-8.1 4.5-2.6 1.5-5 3.1-7.3 5-6.6 5.1-12.4 10.3-17.3 15.7-4.9 5.4-9.2 11.5-13.1 18.3-.9 1.7-1.9 3.3-2.8 5-.9 1.7-1.7 3.4-2.3 5.2-2.4 5.6-4.4 12-6.2 18.9-.9 2.8-1.4 5.8-1.9 8.8-.3 3.1-.8 6.2-1 9.3-.4 2.9-.5 5.8-.4 8.9.2 3.1.3 6.2.2 9.5.1 1.8.2 3.6.4 5.2.2 1.7.4 3.4.4 5.3.3 2 .8 3.9 1.2 5.9.4 2 .6 3.8.7 5.7l.8 2.9c.1.4.4 1 .6 1.7.3.7.4 1.4.4 2.2-.1 1.2.1 2.8.7 5s1.3 3.7 2 4.7l1.7 6.1c.4.9.7 1.6.8 2.4.1.8.5 1.6 1.3 2.6.9 1.9 1.8 3.8 2.6 5.9.8 2.1 1.7 4 2.7 5.8.5.8.8 1.6 1 2.3.2.8.6 1.6 1.4 2.5 2 3.1 3.9 6.2 5.7 9.2 1.7 3 3.6 5.9 5.8 8.7 9.2 11.3 19.4 20.4 31 27.3 11.5 6.9 24.4 11.4 38.7 13.3 2 .4 4.1.7 6.2.9 2.1.2 4.3.4 6.4.5 2-.3 4.3-.4 6.4-.4zm-808.1 144.1c-.7-1.9-1.2-3.9-1.9-5.8l-1.6-5.8c-.7-2.2-1.1-4.5-1.4-7-.2-2.4-.7-4.7-1.3-6.9-.3-1.1-.5-2.1-.4-3 0-.9-.1-1.7-.5-2.5-.3-1.1-.5-2.2-.5-3.2 0-1.1-.1-2-.4-2.8-.1-1.3-.3-2.6-.5-3.9-.2-1.1-.4-2.4-.6-3.8-.6-1.9-1.1-4.1-1.4-6.2-.3-2.2-.8-4.3-1.4-6.2-1.9-5-3.7-9.4-5.7-13.2-1.9-3.9-4.5-7.5-7.5-11-1.8-2.2-3.9-4.2-6.3-5.7-2.4-1.6-4.8-3.2-7.1-4.7-.8-.3-1.6-.9-2.5-1.8-1-.8-1.3-1.9-1-3.2.3-1.2.9-2.2 1.7-3.1.8-.9 1.6-1.7 2.5-2.4 1.4-1.3 2.8-2.5 4-3.7 1.2-1.3 2.5-2.5 3.7-3.7.8-.8 1.6-1.6 2.3-2.6.6-.9 1.3-1.9 1.8-2.8.4-.7.9-1.5 1.5-2.3.6-.8 1-1.6 1.5-2.3 1.5-2.8 2.6-5.8 3.4-8.9.8-3.1 1.6-6.4 2.4-9.8.3-1.6.4-3.1.3-4.6-.2-1.4-.1-3.1.2-4.9.3-1.6.4-3.7.4-6.2 0-2.6-.3-4.7-1-6.5l-.3-3c-.5-.8-.8-1.7-.7-2.7 0-.9-.2-1.8-.5-2.7-1.5-3.8-2.8-7.3-4.1-10.6-1.2-3.3-2.8-6.4-4.9-9.3-1-.9-1.9-2.1-2.6-3.3-.6-1.2-1.5-2.3-2.5-3.3-3.5-4.4-7.9-8.1-12.9-11.2-5-3-10.3-5.5-16.2-7.4-1.6-.5-3.2-.9-4.8-1.2l-4.8-.9c-1.2-.3-2.4-.4-3.6-.3-1.2.1-2.4 0-3.5-.3-2.9-.4-6-.5-9.3-.3-3.2.2-6.6.6-10.1.9l-112.9 11.1c-.4.3-.9.3-1.5.3s-1.1.1-1.5.3c-2.4 1.1-3.9 2.4-4.6 3.8-1 1.7-1.2 3.8-.9 6.5.4 2.6.7 5.2 1 7.6l19.9 201.9c.3 2.9.6 5.8.9 8.9.3 3 1.4 4.9 3.2 5.8 2.2 1.4 5.2 1.8 9.2 1.3 3.9-.5 7.7-1 11.3-1.3l14.9-1.5c1.7-.2 3.4-.4 4.9-.5 1.6-.2 2.9-.6 3.9-1.1 2-.9 3.2-2.3 3.6-4.4.4-1.1.5-2.4.3-3.9-.1-1.4-.3-3-.5-4.8-.1-1.7-.3-3.6-.4-5.5-.1-1.9-.2-3.7-.3-5.5l-4.2-42.5c-.4-3.8-.9-7.9-1.6-12.7-.7-4.6-.2-8.1 1.3-10.5.8-1.2 1.8-2 3.1-2.3 1.4-.3 2.8-.8 4.6-1.4l27.2-2.7c5.1-.5 10.2-1 15.4-1.6 5.2-.5 9.8-.3 14 .6 1.4.3 2.6.5 3.7.6 1.2.1 2.2.4 3.4.7 4.6 1.6 8.4 4.2 11.2 8 2.8 3.7 5.3 8.1 7.7 13 .9 2.3 1.6 4.8 2.2 7.3.6 2.5 1.2 4.9 1.9 7.3.2 1.3.4 2.3.6 3 .7 2.4 1.2 5 1.5 8.1.3 3 .9 5.8 1.8 8.3.1.7.2 1.4.4 2.1.2.8.3 1.6.4 2.5 1.3 3.7 2.2 7.6 2.9 11.7.6 4.2 2 7.7 4.1 10.3 1.5 2.1 3.7 3.2 6.3 3.2 2.7.1 5.8 0 9.3-.4l18.3-1.8c2.4-.3 4.8-.4 7.2-.5 2.3-.1 4.1-.8 5.3-2 .6-.5 1.1-1.3 1.6-2.5.3-1.2.3-2.3-.2-3.7-.5-1.2-1.1-3.1-1.8-5zm-68.8-130.3c-.4 2.5-1.1 4.7-2.3 6.9-1.7 3.1-4 5.6-6.6 7.7-2.8 2-5.9 3.8-9.5 5.3-1.5.6-3.1 1-4.7 1.2-1.8.2-3.4.6-5.1 1.2l-4.3.4c-1.3.6-2.8.9-4.5.9-1.8.1-3.5.2-5 .3l-19.6 1.9c-2.1.2-4.3.5-7 .9-2.6.3-5.2.5-7.7.6-2.5-.1-4.7-.2-6.7-.4-2.1-.3-3.6-1-4.6-2.3-1.3-1.4-2.1-3.5-2.3-6.1-.2-2.7-.5-5.3-.8-8l-3-30.9c-.3-2.7-.6-5.3-1-8.1-.4-2.7-.1-5.1.8-7 .7-1.6 2.4-2.9 5-3.8.4 0 .9 0 1.3.1.5.1.9-.2 1.3-.6l38.5-3.8c5.4-.5 10.5-.9 15.3-1.2 4.9-.2 9.4.3 13.3 1.8 7.4 2.3 12.7 6.9 16.1 13.4.6.6.8 1.3.9 1.9.1.7.4 1.4.9 2.3.6 1.8 1.3 4.4 1.9 7.9.7 3.4.9 6.5.7 8.9-.4 3.2-.9 6-1.3 8.6zm225.4 100.4l-7.8-54.2-16.5-114.6-4.1-28.7c-.5-2.8-.8-5.5-1.3-7.9-.5-2.4-1.3-4.3-2.7-5.7-1.3-1.4-3.1-2-5.2-1.8-2.3.3-4.6.5-7 .8l-28.3 4.2c-.5 0-1 .2-1.6.4-.5.2-1.1.3-1.8.4-1.9 1.2-3.1 2.4-3.8 3.9-.9 2-.9 5-.2 9.2.7 4.2 1.3 7.7 1.8 10.8l6.9 48.3 17.3 120.5 4.1 28.8c.4 2.4.8 4.7 1.3 6.9.6 2.2 1.4 3.7 2.7 4.7 1.5.9 3.3 1.3 5.5 1.2 2.1 0 4.3-.3 6.8-.6l19.5-2.8c1.8-.3 3.5-.4 5.3-.5 1.8 0 3.4-.3 4.9-1 3-1.4 4.7-2.8 5.4-4.5.9-1.9 1-4.7.3-8.1-.5-3.6-1-6.9-1.5-9.7zm1084.7-171.4c-66.3 44.8-443 169.4-443 169.4-44 66.9 411.5-76.7 455.7-110.3 44.2-33.5 53.7-103.9-12.7-59.1zM4983.6 2294.7s-95.8 21.5-246-36.7c-288.4-111.7-368.3-229.2-368.3-229.2 227.1-59.3 360.3-287.3 382.9-392.2 22.6-104.9-5.7-308.3-176.7-272.3-171.1 36-295.1 279-334.1 345.7-26.8 45.8-25.8 12.2-22.4-13.4 0-.2.1-.3.1-.4 85.7-350.6 203.1-426.7 166.3-576.6-36.8-149.9-207-195.8-228.5-109.5 0 0-135.7 410-192.1 866.1-42 82.4-197.4 370.3-330.5 398.4-155.5 32.9-171.5-293-106.9-460.5 52.2-135.3 147.3-269.7 146.3-118.3-.9 151.4-39.9 188.2-39.9 188.2s143.7 73.7 225.8-114.6c82.1-188.4 43.5-369.8-118.2-368-155.6 1.7-353.1 215.7-477.1 561.2-35.4 78.7-80.8 175.9-123.1 256.1-87.1 164.8-174.5 171.8-83.6-119.2s150.7-424.2 74.7-518.8c-76-94.6-123.5-35-130.2-21 0 0-166.1 231.3-276.2 596-36.7 121.6-45.7 226.8-33.7 309.1-29.2 34.5-88.9 90.6-169.4 90.6-120.2-.1-178.3-55-107.2-290.9 0 0 384.6-536.5 378.1-943.7-3.3-210.3-155.1-320-228.9-206.2 0 0-341.8 536.4-431.2 1130.6-89.4 594.2 226.1 583.7 347.1 525.9 72.7-34.8 177.7-124.7 249.9-190.8 48 78.8 131.7 102.9 231.4 52.3 130.7-66.2 211.7-233.6 253.8-348.7 23.3 222.8 176.3 362.5 353.9 301 187.7-65 322.1-347.5 374.3-474.9-1.1 21.6-2 43.1-2.6 64.6-14.8 558.1 209.4 435.7 242.8 424.9 33.4-10.8 57.5-36.6 57.5-36.6s-40.2-192.2-52.2-421.6c52.3 64.3 138.9 168.3 196 224.3 86.5 84.8 354.6 314.9 515.5 221.7 160.7-93.5 82.6-292.6 82.6-292.6zm-2314.8-865.6c54.6 115.7-198.4 634.9-228.2 634.9 0 0 189.3-717.5 228.2-634.9zm1719.8 244.4c112.8-99.5 119.3 66.2 45.4 157.1-73.9 90.9-167 143.8-206.7 142-.1 0 48.5-199.6 161.3-299.1zm-1206.3-264.6c137.3 2.6 196.4-228.8 39-276.6 0 0-49-23.2-113.9 50.3-65 73.5-62.5 223.7 74.9 226.3zM2079.7 1896.7s-283.4 44.6-541.9 83.2c80.4-348.1 138.3-517.2 138.3-517.2s528.5-38.4 571.8-56.3c43.4-17.8 91.7-76.7 119.6-160.6 27.8-83.9 70.4-155.8-19.4-151.5-89.8 4.3-919.5 99.5-1198.4 154-278.8 54.5-613.7 227.3-511.4 533 0 0 235.3-221.7 733.1-297.7 0 0-82.6 254.4-160.8 542.8-10.4 1.3-20.3 2.6-29 3.6-209.6 25.1-163.5 264.2-39.3 243 1.7-.3 3.8-.6 5.6-.8-37.9 159.9-67 311.5-72.8 418-19.4 353.8 144 455 375.9 382.5 0 0-91.2-239.2 21.4-791.6 2.2-10.6 4.3-20.8 6.4-31.2 204.6-11.2 432.2-26.4 494.5-58.7 107.4-55.5 154.6-263.1 106.4-294.5z"/></svg>