<?xml version="1.0" encoding="utf-8"?>
<!-- Generator: Adobe Illustrator 21.0.0, SVG Export Plug-In . SVG Version: 6.00 Build 0)  -->
<svg version="1.1" id="Layer_1" xmlns="http://www.w3.org/2000/svg" xmlns:xlink="http://www.w3.org/1999/xlink" x="0px" y="0px"
	 width="510.2px" height="220px" viewBox="0 0 510.2 220" style="enable-background:new 0 0 510.2 220;" xml:space="preserve">
<style type="text/css">
	.st0{fill-rule:evenodd;clip-rule:evenodd;fill:#ED2C74;}
	.st1{fill:#FFFFFF;}
</style>
<g id="XMLID_43_">
	<path id="XMLID_70_" class="st0" d="M320.6,199.5c-1.3,0-2.3-0.2-3.1-0.7c-0.8-0.5-1.4-1.3-1.8-2.6c0,0-4.8-14.9-5.1-15.9
		c-0.2-0.7-0.1-1.4,0.1-1.7c0.2-0.3,0.4-0.6,0.8-1c0.4-0.4,1-0.7,1.7-0.9c0.7-0.3,1.5-0.4,2.5-0.4c0.4,0,0.8,0.1,1.3,0.2
		c0.5,0.1,0.9,0.3,1.4,0.7c0.4,0.3,0.8,0.8,1.2,1.4c0.4,0.6,0.6,1.3,0.8,2.3l1.1,6.7l1.8-7.4c0.2-1.2,0.7-2,1.5-2.5
		c0.8-0.6,1.7-0.8,2.7-0.8c0.5,0,0.9,0.1,1.4,0.2c0.5,0.1,0.9,0.3,1.3,0.6c0.4,0.3,0.7,0.6,1,1.1c0.3,0.4,0.4,0.9,0.5,1.4l1.8,7.4
		l1.1-6.9c0.1-0.8,0.4-1.5,0.7-2.1c0.3-0.6,0.7-1,1.1-1.3c0.4-0.4,0.9-0.6,1.4-0.7c0.5-0.2,1-0.2,1.5-0.2c0.9,0,1.6,0.1,2.3,0.4
		c0.7,0.3,1.2,0.6,1.6,0.9c0.4,0.4,0.7,0.7,0.9,1c0.2,0.3,0.4,0.7,0.1,1.7l-5.1,15.9c-0.3,1.2-0.9,2.1-1.8,2.6
		c-0.9,0.5-1.9,0.7-3.2,0.7c-1.3,0-2.3-0.2-3.2-0.7c-0.8-0.5-1.5-1.3-1.8-2.6l-1.9-7.1l-1.8,7.1c-0.3,1.2-1,2.1-1.9,2.6
		C323,199.2,321.9,199.5,320.6,199.5"/>
	<path id="XMLID_67_" class="st0" d="M275.2,187.5c0.8,0,1.4-0.2,1.8-0.6c0.4-0.4,0.6-1,0.6-1.7c0-1.6-0.9-2.4-2.6-2.4h-1.7v4.7
		H275.2z M273.5,195.5c0,1.3-0.3,2.3-1,3c-0.6,0.7-1.6,1-2.8,1h-1.3c-1.2,0-2.1-0.3-2.7-1c-0.6-0.7-1-1.7-1-3v-14.3
		c0-3.2,1.5-4.8,4.4-4.8h6.1c3.5,0,6.2,0.7,8,2.2c1.8,1.4,2.7,3.6,2.7,6.6c0,2.9-0.9,5-2.6,6.4c-1.7,1.4-4.3,2.1-7.7,2.1h-2.2V195.5
		z"/>
	<path id="XMLID_66_" class="st0" d="M349.6,199.3c-2.9,0-4.4-1.6-4.4-4.8v-13.4c0-3.2,1.5-4.8,4.4-4.8h11.7c1.4,0,2.4,0.3,3,0.8
		c0.6,0.5,1,1.3,1,2.5v0.2c0,1.2-0.3,2.1-1,2.6c-0.6,0.5-1.7,0.7-3,0.7h-7.4v1.5h4.4c1.4,0,2.5,0.2,3.1,0.7c0.6,0.4,0.9,1.2,0.9,2.3
		v0.1c0,1.1-0.3,1.9-1,2.4c-0.6,0.5-1.6,0.7-3,0.7h-4.4v1.8h7.5c1.4,0,2.4,0.2,3,0.7c0.6,0.4,1,1.2,1,2.4v0.2c0,1.2-0.3,2.1-1,2.6
		c-0.6,0.5-1.7,0.8-3,0.8H349.6z"/>
	<path id="XMLID_63_" class="st0" d="M377.1,187c1.6,0,2.4-0.7,2.4-2.1c0-0.7-0.2-1.2-0.6-1.6c-0.4-0.4-1-0.5-1.8-0.5H375v4.1H377.1
		z M387.8,195.6c0.5,0.6,0.8,1.4,0.3,2c-0.2,0.3-0.4,0.4-0.5,0.5c-0.4,0.3-0.9,0.6-1.6,0.9c-0.7,0.3-1.5,0.4-2.4,0.4
		c-0.7,0-1.3-0.1-1.9-0.2c-0.5-0.2-1-0.4-1.5-0.7c-0.4-0.3-0.8-0.7-1.3-1.1c-0.4-0.5-0.8-1-1.3-1.7l-2.2-3.1h-0.4v2.8
		c0,2.7-1.3,4-3.8,4h-1.2c-1.2,0-2.1-0.4-2.7-1.3c-0.6-0.9-0.9-2.1-0.9-3.8v-13.2c0-3.2,1.5-4.8,4.4-4.8h7.3c3.4,0,5.9,0.7,7.5,2
		c1.7,1.3,2.5,3.3,2.5,5.8c0,1.6-0.4,2.9-1.1,4c-0.7,1.1-1.8,2-3.2,2.6L387.8,195.6z"/>
	<path id="XMLID_62_" class="st0" d="M398.3,199.8c-1.8,0-3.3-0.1-4.5-0.4c-1.2-0.2-2.2-0.6-2.9-1c-0.7-0.4-1.2-1-1.5-1.5
		c-0.3-0.6-0.4-1.2-0.4-1.9c0-0.5,0.1-1,0.4-1.5c0.3-0.5,0.5-0.9,0.8-1.3c0.3-0.4,0.8-0.6,1.2-0.7c0.5-0.1,1.1,0.1,1.7,0.3
		c0.5,0.3,1.1,0.5,1.7,0.7c0.6,0.2,1.2,0.4,1.8,0.5c0.6,0.1,1.2,0.2,1.7,0.2c0.9,0,1.5-0.1,1.8-0.2c0.4-0.2,0.5-0.4,0.5-0.8
		c0-0.2-0.1-0.4-0.2-0.5c-0.2-0.1-0.4-0.2-0.7-0.3c-0.3-0.1-0.7-0.2-1.1-0.2c-0.4-0.1-0.9-0.2-1.3-0.2c-1-0.2-2-0.4-2.9-0.8
		c-0.9-0.3-1.8-0.8-2.5-1.3c-0.7-0.5-1.3-1.2-1.8-2.1c-0.4-0.8-0.7-1.8-0.7-3c0-2.6,0.9-4.5,2.6-5.8c1.7-1.4,4.4-2.1,7.8-2.1
		c1.6,0,3,0.1,4.1,0.4c1.1,0.2,2.1,0.6,2.8,1c0.7,0.4,1.3,0.9,1.6,1.4c0.3,0.5,0.5,1.1,0.5,1.8c0,0.6-0.1,1-0.4,1.6
		c-0.3,0.6-0.5,0.9-0.9,1.4c-0.3,0.4-0.7,0.6-1.1,0.7c-0.9,0.1-2.3-0.7-3.4-1.1c-1.1-0.4-2.2-0.6-3.1-0.6c-0.9,0-1.5,0.1-1.8,0.2
		c-0.3,0.1-0.5,0.4-0.5,0.7c0,0.2,0.1,0.3,0.3,0.5c0.2,0.1,0.4,0.2,0.8,0.3c0.3,0.1,0.7,0.1,1.2,0.2c0.4,0,0.9,0.1,1.5,0.2
		c1.2,0.3,2.3,0.6,3.3,1c1,0.4,1.8,0.9,2.6,1.4c0.7,0.6,1.3,1.2,1.6,2c0.4,0.8,0.6,1.7,0.6,2.7c0,2.7-0.9,4.7-2.7,6.1
		C404.9,199.2,402.1,199.8,398.3,199.8"/>
	<path id="XMLID_61_" class="st0" d="M414,199.5c-2.4,0-3.7-1.3-3.7-4v-15.3c0-2.7,1.2-4,3.7-4h1.3c2.5,0,3.8,1.3,3.8,4v4h5.2v-4
		c0-2.7,1.2-4,3.6-4h1.3c2.5,0,3.8,1.3,3.8,4v15.3c0,2.7-1.3,4-3.8,4h-1.3c-2.4,0-3.6-1.3-3.6-4v-4.1h-5.2v4.1c0,2.7-1.3,4-3.8,4
		H414z"/>
	<path id="XMLID_58_" class="st0" d="M446.4,199.8c-1.8,0-3.4-0.3-5-0.9c-1.5-0.6-2.8-1.5-3.9-2.5c-1.1-1.1-1.9-2.3-2.6-3.8
		c-0.6-1.5-0.9-3.1-0.9-4.8c0-1.7,0.3-3.4,0.9-4.8s1.5-2.7,2.6-3.8c1.1-1.1,2.4-1.9,3.9-2.5c1.5-0.6,3.2-0.9,5-0.9
		c1.8,0,3.4,0.3,4.9,0.9c1.5,0.6,2.8,1.4,3.9,2.5c1.1,1.1,1.9,2.3,2.6,3.8c0.6,1.5,0.9,3.1,0.9,4.8c0,1.7-0.3,3.4-0.9,4.8
		c-0.6,1.5-1.5,2.7-2.6,3.8c-1.1,1.1-2.4,1.9-3.9,2.5C449.8,199.5,448.2,199.8,446.4,199.8 M446.4,192.1c1.2,0,2.1-0.4,2.8-1.1
		c0.7-0.8,1-1.8,1-3.1c0-1.3-0.3-2.4-1-3.1c-0.7-0.8-1.6-1.2-2.8-1.2c-1.2,0-2.2,0.4-2.8,1.1c-0.7,0.7-1,1.8-1,3.2
		c0,1.3,0.3,2.4,1,3.1C444.2,191.7,445.2,192.1,446.4,192.1"/>
	<path id="XMLID_55_" class="st0" d="M470.2,187.5c0.8,0,1.4-0.2,1.8-0.6c0.4-0.4,0.6-1,0.6-1.7c0-1.6-0.9-2.4-2.6-2.4h-1.7v4.7
		H470.2z M468.5,195.5c0,1.3-0.3,2.3-1,3c-0.6,0.7-1.6,1-2.8,1h-1.3c-1.2,0-2.1-0.3-2.7-1c-0.6-0.7-1-1.7-1-3v-14.3
		c0-3.2,1.5-4.8,4.4-4.8h6.1c3.5,0,6.2,0.7,8,2.2c1.8,1.4,2.7,3.6,2.7,6.6c0,2.9-0.9,5-2.6,6.4c-1.7,1.4-4.3,2.1-7.7,2.1h-2.2V195.5
		z"/>
	<path id="XMLID_52_" class="st0" d="M299.1,192.1c1.2,0,2.1-0.4,2.8-1.1c0.7-0.8,1-1.8,1-3.1c0-1.3-0.3-2.4-1-3.1
		c-0.7-0.8-1.6-1.2-2.8-1.2c-1.2,0-2.1,0.4-2.8,1.1c-0.7,0.7-1,1.8-1,3.2c0,1.3,0.3,2.4,1,3.1C297,191.7,297.9,192.1,299.1,192.1
		 M299.1,199.8c-1.8,0-3.4-0.3-5-0.9c-1.5-0.6-2.8-1.5-3.9-2.5c-1.1-1.1-1.9-2.3-2.6-3.8c-0.6-1.5-0.9-3.1-0.9-4.8
		c0-1.7,0.3-3.4,0.9-4.8c0.6-1.5,1.5-2.7,2.6-3.8c1.1-1.1,2.4-1.9,3.9-2.5c1.5-0.6,3.2-0.9,5-0.9c1.8,0,3.4,0.3,4.9,0.9
		c1.5,0.6,2.8,1.4,3.9,2.5c1.1,1.1,1.9,2.3,2.6,3.8c0.6,1.5,0.9,3.1,0.9,4.8c0,1.7-0.3,3.4-0.9,4.8c-0.6,1.5-1.5,2.7-2.6,3.8
		c-1.1,1.1-2.4,1.9-3.9,2.5C302.5,199.5,300.9,199.8,299.1,199.8"/>
	<path id="XMLID_47_" class="st0" d="M236.3,170.7c-9.5,0-17.2,7.7-17.2,17.2c0,9.5,7.7,17.2,17.2,17.2c9.5,0,17.2-7.7,17.2-17.2
		C253.4,178.3,245.8,170.7,236.3,170.7 M224.5,185.8c-0.3-0.3-0.3-0.9,0-1.2l6.6-6.2c0.3-0.3,0.9-0.3,1.2,0l1.5,1.6
		c0.3,0.3,0.3,0.9,0,1.2l-6.6,6.2c-0.3,0.3-0.9,0.3-1.2,0L224.5,185.8z M245.8,195.6c-2.2,2.8-5.7,4.5-9.5,4.5
		c-3.9,0-7.4-1.7-9.6-4.6c-1-1.4-0.4-1.8,0.2-2.3c0.6-0.5,1.6-0.6,2.3,0.2c1.7,2,4.2,3.3,7,3.3c2.8,0,5.3-1.3,7-3.3
		c0.7-0.8,1.7-0.8,2.3-0.2C246.2,193.8,246.8,194.3,245.8,195.6 M247.3,185.8l-1.5,1.6c-0.3,0.3-0.8,0.4-1.2,0l-6.6-6.2
		c-0.3-0.3-0.4-0.8,0-1.2l1.5-1.6c0.3-0.3,0.8-0.4,1.2,0l6.6,6.2C247.6,184.9,247.6,185.4,247.3,185.8"/>
	<path id="XMLID_44_" class="st0" d="M236.3,166.6c-11.7,0-21.2,9.5-21.2,21.2c0,11.7,9.5,21.2,21.2,21.2c11.7,0,21.2-9.5,21.2-21.2
		C257.5,176.1,248,166.6,236.3,166.6 M236.3,206.9c-10.5,0-19-8.5-19-19c0-10.5,8.5-19,19-19c10.5,0,19,8.5,19,19
		C255.3,198.3,246.8,206.9,236.3,206.9"/>
</g>
<g id="XMLID_23_">
	<path id="XMLID_24_" class="st1" d="M43,198.5c0,0.3-0.1,0.5-0.2,0.7c-0.2,0.2-0.4,0.3-0.7,0.3h-0.3c-0.6,0-0.9-0.3-0.9-1v-18.6
		c0-0.3,0.1-0.6,0.4-0.9c0.2-0.2,0.5-0.4,0.9-0.4h5.3c2.4,0,4.3,0.5,5.6,1.6c1.3,1.1,2,2.6,2,4.6c0,2.1-0.7,3.6-2,4.7
		c-1.3,1.1-3.3,1.6-5.9,1.6H43V198.5z M47.3,189.4c1.8,0,3.2-0.4,4.1-1.1c0.9-0.7,1.4-1.8,1.4-3.3c0-2.9-1.8-4.4-5.3-4.4H43v8.8
		H47.3z"/>
	<path id="XMLID_27_" class="st1" d="M68.2,199.8c-1.5,0-2.9-0.3-4.2-0.8s-2.3-1.3-3.2-2.2c-0.9-0.9-1.6-2.1-2.1-3.4
		c-0.5-1.3-0.8-2.8-0.8-4.3c0-1.6,0.3-3,0.8-4.4c0.5-1.3,1.2-2.5,2.1-3.4c0.9-0.9,2-1.7,3.3-2.2c1.3-0.5,2.7-0.8,4.2-0.8
		c1.5,0,2.9,0.3,4.2,0.8c1.3,0.5,2.3,1.3,3.2,2.2c0.9,0.9,1.6,2.1,2.1,3.4c0.5,1.3,0.8,2.8,0.8,4.4c0,1.6-0.3,3-0.8,4.4
		c-0.5,1.3-1.2,2.5-2.1,3.4c-0.9,0.9-2,1.7-3.3,2.2C71.1,199.5,69.7,199.8,68.2,199.8z M68.3,197.9c1.2,0,2.3-0.2,3.2-0.6
		c1-0.4,1.8-1,2.5-1.8c0.7-0.8,1.3-1.7,1.7-2.8c0.4-1.1,0.6-2.3,0.6-3.6c0-1.3-0.2-2.5-0.6-3.6s-1-2-1.7-2.8
		c-0.7-0.8-1.6-1.4-2.6-1.9c-1-0.4-2.1-0.7-3.2-0.7c-1.2,0-2.3,0.2-3.2,0.7c-1,0.4-1.8,1-2.5,1.8c-0.7,0.8-1.3,1.7-1.7,2.8
		c-0.4,1.1-0.6,2.3-0.6,3.6c0,1.3,0.2,2.5,0.6,3.6c0.4,1.1,1,2,1.7,2.8c0.7,0.8,1.6,1.4,2.6,1.8C66,197.7,67.1,197.9,68.3,197.9z"/>
	<path id="XMLID_30_" class="st1" d="M87.5,199.6c-0.6,0-1-0.1-1.2-0.2c-0.2-0.1-0.4-0.4-0.4-0.7L81,179c0-0.1,0.1-0.2,0.3-0.3
		s0.5-0.2,0.9-0.2c0.7,0,1.1,0.4,1.3,1.3l4,17.5l4.5-14.8c0.1-0.4,0.3-0.7,0.5-0.9c0.2-0.2,0.6-0.3,1.2-0.3s0.9,0.1,1.2,0.3
		c0.2,0.2,0.4,0.5,0.5,0.9l4.5,14.8l4.1-17.5c0.1-0.5,0.2-0.8,0.4-1c0.2-0.2,0.4-0.3,0.8-0.3s0.7,0.1,0.9,0.2
		c0.2,0.1,0.3,0.2,0.3,0.3l-4.8,19.7c-0.1,0.3-0.2,0.6-0.4,0.7c-0.2,0.1-0.7,0.2-1.2,0.2c-0.5,0-0.9-0.1-1.1-0.2s-0.4-0.4-0.5-0.7
		l-4.5-15.1l-4.8,15.1c-0.1,0.3-0.2,0.6-0.4,0.7C88.3,199.5,88,199.6,87.5,199.6z"/>
	<path id="XMLID_32_" class="st1" d="M111.3,199c-0.2-0.2-0.4-0.5-0.4-0.9v-18.3c0-0.3,0.1-0.6,0.4-0.9c0.2-0.2,0.5-0.4,0.9-0.4
		h12.4c0.7,0,1,0.3,1,0.9v0.2c0,0.6-0.3,0.9-1,0.9h-11.4v7.1h9.2c0.7,0,1,0.3,1,0.9v0.1c0,0.6-0.3,0.9-1,0.9h-9.2v7.7h11.6
		c0.7,0,1,0.3,1,0.9v0.2c0,0.6-0.3,0.9-1,0.9h-12.6C111.8,199.4,111.5,199.3,111.3,199z"/>
	<path id="XMLID_34_" class="st1" d="M143.8,198.5c0,0,0,0.1,0,0.2c-0.1,0.1-0.1,0.2-0.3,0.3c-0.1,0.1-0.3,0.2-0.4,0.3
		c-0.2,0.1-0.4,0.1-0.6,0.1c-0.2,0-0.4-0.1-0.7-0.2c-0.2-0.1-0.5-0.3-0.7-0.6l-6.7-8.1h-2.6v7.8c0,0.3-0.1,0.5-0.2,0.7
		c-0.2,0.2-0.4,0.3-0.7,0.3h-0.3c-0.6,0-0.9-0.3-0.9-1v-18.6c0-0.3,0.1-0.6,0.4-0.9c0.2-0.2,0.5-0.4,0.9-0.4h5.7
		c2.4,0,4.3,0.5,5.6,1.5c1.3,1,1.9,2.5,1.9,4.5c0,1.9-0.6,3.3-1.8,4.4c-1.2,1-2.9,1.6-5.1,1.6L143.8,198.5z M136.8,188.8
		c1.7,0,3-0.4,3.8-1.1c0.8-0.7,1.2-1.7,1.2-3c0-2.7-1.7-4.1-5.2-4.1h-4.8v8.2H136.8z"/>
	<path id="XMLID_37_" class="st1" d="M148.4,198.5v-19c0-0.7,0.3-1,0.9-1h0.3c0.6,0,1,0.3,1,1v19c0,0.7-0.3,1-1,1h-0.3
		C148.8,199.5,148.4,199.2,148.4,198.5z"/>
	<path id="XMLID_39_" class="st1" d="M156.2,198.5V180c0-0.4,0.1-0.8,0.3-1c0.2-0.3,0.5-0.4,0.9-0.4h0.5c0.4,0,0.7,0.1,0.9,0.3
		c0.2,0.2,0.5,0.5,0.7,0.8l11.2,16.3v-16.4c0-0.7,0.3-1,0.9-1h0.3c0.6,0,0.9,0.3,0.9,1V198c0,0.4-0.1,0.8-0.3,1.1
		c-0.2,0.3-0.5,0.4-0.8,0.4h-0.2c-0.4,0-0.7-0.1-0.8-0.2c-0.2-0.1-0.3-0.3-0.6-0.6l-11.9-17.2v17.1c0,0.7-0.3,1-0.9,1H157
		C156.5,199.5,156.2,199.2,156.2,198.5z"/>
	<path id="XMLID_41_" class="st1" d="M191.4,198.8c-1.2,0.6-2.7,1-4.4,1c-1.5,0-2.8-0.3-4-0.8c-1.2-0.5-2.2-1.3-3.1-2.2
		c-0.8-0.9-1.5-2.1-2-3.4c-0.5-1.3-0.7-2.7-0.7-4.3c0-1.6,0.3-3,0.8-4.4c0.5-1.3,1.2-2.5,2.1-3.4c0.9-0.9,2-1.7,3.3-2.2
		c1.3-0.5,2.7-0.8,4.2-0.8c1.2,0,2.3,0.2,3.3,0.5c1,0.3,1.8,0.7,2.4,1.1c0.7,0.4,1.1,0.9,1.5,1.4c0.3,0.5,0.5,0.9,0.5,1.2
		c0,0.3-0.1,0.5-0.2,0.7c-0.1,0.2-0.3,0.3-0.4,0.4c-0.2,0.1-0.3,0.1-0.4,0.1c-0.1,0-0.2,0-0.2,0c-0.3-0.6-0.7-1.1-1.2-1.5
		c-0.5-0.4-1-0.8-1.6-1.1c-0.6-0.3-1.2-0.5-1.8-0.7c-0.6-0.1-1.3-0.2-1.9-0.2c-1.2,0-2.3,0.2-3.3,0.6c-1,0.4-1.8,1-2.5,1.8
		c-0.7,0.8-1.3,1.7-1.6,2.8c-0.4,1.1-0.6,2.3-0.6,3.6c0,1.3,0.2,2.5,0.5,3.6s0.9,2,1.5,2.8c0.7,0.8,1.5,1.4,2.4,1.8
		c1,0.4,2.1,0.7,3.3,0.7c0.9,0,1.8-0.1,2.6-0.4c0.8-0.3,1.5-0.6,2.1-1.1c0.6-0.5,1.1-1,1.5-1.7c0.4-0.7,0.6-1.4,0.8-2.2v-1.8h-5.8
		c-0.8,0-1.2-0.3-1.2-0.9v-0.1c0-0.6,0.4-0.9,1.2-0.9h6.1c0.5,0,0.9,0.2,1.2,0.5c0.3,0.3,0.4,0.7,0.4,1.1v8.9c0,0-0.1,0.1-0.2,0.1
		c-0.1,0.1-0.3,0.1-0.5,0.1c-0.4,0-0.7-0.1-0.9-0.4c-0.2-0.3-0.3-0.8-0.3-1.7v-1.3C193.6,197.3,192.6,198.2,191.4,198.8z"/>
</g>
<path id="XMLID_2_" class="st1" d="M483.5,124.8c0.8,1.2,1.2,2.4,1.2,3.6c0,1.3-0.4,2.4-1.3,3.2c-0.8,0.9-1.9,1.3-3.1,1.3h-6.8
	c-1.3,0-3.2-0.5-4.8-2.8L450,106.6l-18.8,23.6c-0.7,0.8-1.3,1.4-1.9,1.9c-0.8,0.6-1.7,0.9-2.9,0.9h-6.5c-1.2,0-2.3-0.5-3.1-1.3
	c-0.8-0.9-1.3-2-1.3-3.2c0-1.2,0.4-2.4,1.2-3.6l0-0.1l23.5-30.5l-22-28c-0.9-1.3-1.4-2.5-1.4-3.5c0-1.3,0.5-2.4,1.4-3.3
	c0.9-0.8,1.9-1.3,3-1.3h6.7c1.9,0,3.5,1,4.8,2.9l17.6,22.1L468.1,61c0.6-0.9,1.3-1.5,1.9-2c0.8-0.6,1.7-0.9,2.9-0.9h6.4
	c1.1,0,2.2,0.5,3,1.3c0.8,0.9,1.3,1.9,1.3,3.1c0,1.3-0.4,2.5-1.3,3.7L460,94.5L483.5,124.8 M396.9,124.6c5.2-5.3,7.7-13.4,7.7-24.6
	V63c0-1.4-0.5-2.5-1.3-3.4c-0.9-0.9-2-1.4-3.3-1.4h-6.4c-1.3,0-2.5,0.5-3.3,1.4c-0.9,0.9-1.3,2.1-1.3,3.4v36.3
	c0,13.5-5.9,20.3-17.4,20.3c-11.5,0-17.4-6.8-17.4-20.3V63c0-1.4-0.5-2.5-1.3-3.4c-0.9-0.9-2-1.4-3.3-1.4H343
	c-1.3,0-2.5,0.5-3.3,1.4c-0.9,0.9-1.3,2.1-1.3,3.4v37c0,11.2,2.5,19.3,7.7,24.6c7.5,7.7,15.6,9.3,25.5,9.3S389.5,132.3,396.9,124.6
	 M323.3,131.5c0.9-0.9,1.3-2.1,1.3-3.4V25.6c0-1.4-0.4-2.5-1.3-3.5c-0.9-0.9-2-1.4-3.3-1.4h-6.1c-1.3,0-2.4,0.4-3.3,1.3
	c-0.9,0.9-1.4,2.1-1.4,3.6v102.5c0,1.4,0.5,2.5,1.3,3.4c0.9,0.9,2,1.4,3.3,1.4h6.1C321.3,132.9,322.4,132.4,323.3,131.5 M295.6,33.6
	c0.9-0.9,1.4-2,1.4-3.4v-4.6c0-1.4-0.5-2.5-1.3-3.4c-0.9-0.9-2-1.4-3.3-1.4H284c-8.8,0-15.2,2.3-19.1,6.9
	c-3.9,4.5-5.9,10.9-5.9,19.1v11.4h-10.5c-1.3,0-2.5,0.5-3.3,1.4c-0.9,0.9-1.3,2.1-1.3,3.4v4.6c0,1.4,0.5,2.6,1.4,3.4
	c0.9,0.8,2,1.3,3.3,1.3H259v55.8c0,1.4,0.5,2.5,1.3,3.4c0.9,0.9,2,1.4,3.3,1.4h6c1.3,0,2.5-0.5,3.3-1.4s1.3-2.1,1.3-3.4V72.3h16.5
	c1.3,0,2.4-0.4,3.3-1.3c0.9-0.9,1.4-2,1.4-3.4V63c0-1.4-0.5-2.5-1.3-3.5c-0.9-0.9-2-1.4-3.3-1.4h-16.5V47.5c0-4.4,0.7-7.7,2.2-9.7
	c1.4-1.9,4-2.8,7.7-2.8h7.9C293.6,34.9,294.7,34.5,295.6,33.6 M193.6,20.8h-53.9c-6.1,0-11.2,3.9-13.2,9.3l0,0
	c-1.9,5.5-7.1,9.4-13.3,9.4l-59.8,0c-7.7,0-14,6.3-14,14v9.3c0,7.7,6.3,14,14,14l47.3,0c6.1,0,11.2-3.9,13.2-9.3l0,0
	c1.9-5.5,7.1-9.4,13.3-9.4l66.4,0c7.7,0,14-6.3,14-14v-9.3C207.6,27,201.4,20.8,193.6,20.8z M193.6,95.5h-78.9
	c-6.1,0-11.3,3.9-13.2,9.3c-1.9,5.4-7.1,9.3-13.2,9.3l-53.5,0c-7.7,0-14,6.3-14,14v9.3c0,7.7,6.3,14,14,14h41.1
	c6.1,0,11.3-3.9,13.2-9.4c1.9-5.4,7.1-9.3,13.2-9.3h91.3c7.7,0,14-6.3,14-14v-9.3C207.6,101.8,201.4,95.5,193.6,95.5z"/>
</svg>
