<?xml version="1.0" encoding="utf-8"?>
<!-- Generator: Adobe Illustrator 21.0.0, SVG Export Plug-In . SVG Version: 6.00 Build 0)  -->
<svg version="1.1" id="Layer_1" xmlns="http://www.w3.org/2000/svg" xmlns:xlink="http://www.w3.org/1999/xlink" x="0px" y="0px"
	 width="129.5px" height="60px" viewBox="0 0 129.5 60" style="enable-background:new 0 0 129.5 60;" xml:space="preserve">
<style type="text/css">
	.st0{fill:#FFFFFF;}
</style>
<g>
	<path class="st0" d="M26.3,27.9H15.9c-0.3,0-0.5,0.2-0.5,0.5v5.1c0,0.3,0.2,0.5,0.5,0.5h4.1v6.4c0,0-0.9,0.3-3.5,0.3
		c-3,0-7.2-1.1-7.2-10.3c0-9.2,4.4-10.4,8.5-10.4c3.5,0,5.1,0.6,6,0.9c0.3,0.1,0.6-0.2,0.6-0.5l1.2-5c0-0.1,0-0.3-0.2-0.4
		c-0.4-0.3-2.8-1.6-8.9-1.6c-7,0-14.2,3-14.2,17.3c0,14.3,8.2,16.5,15.2,16.5c5.7,0,9.2-2.5,9.2-2.5c0.1-0.1,0.2-0.3,0.2-0.4v-16
		C26.8,28.2,26.6,27.9,26.3,27.9z"/>
	<path class="st0" d="M80.4,15.2c0-0.3-0.2-0.5-0.5-0.5H74c-0.3,0-0.5,0.2-0.5,0.5c0,0,0,11.4,0,11.4h-9.2V15.2
		c0-0.3-0.2-0.5-0.5-0.5h-5.9c-0.3,0-0.5,0.2-0.5,0.5v30.9c0,0.3,0.2,0.5,0.5,0.5h5.9c0.3,0,0.5-0.2,0.5-0.5V32.9h9.2
		c0,0,0,13.2,0,13.2c0,0.3,0.2,0.5,0.5,0.5h5.9c0.3,0,0.5-0.2,0.5-0.5V15.2z"/>
	<g>
		<g>
			<ellipse class="st0" cx="33.7" cy="19.3" rx="3.8" ry="3.8"/>
			<path class="st0" d="M37.1,39.6c0-0.8,0-14.3,0-14.3c0-0.3-0.2-0.5-0.5-0.5h-5.9c-0.3,0-0.5,0.3-0.5,0.5c0,0,0,17.2,0,20.4
				c0,0.6,0.4,0.8,0.9,0.8c0,0,2.5,0,5.3,0c0.6,0,0.7-0.3,0.7-0.8C37.1,44.7,37.1,40.4,37.1,39.6z"/>
		</g>
	</g>
	<path class="st0" d="M102.8,24.9H97c-0.3,0-0.5,0.2-0.5,0.5v15.2c0,0-1.5,1.1-3.6,1.1c-2.1,0-2.7-1-2.7-3c0-2.1,0-13.2,0-13.2
		c0-0.3-0.2-0.5-0.5-0.5h-5.9c-0.3,0-0.5,0.2-0.5,0.5c0,0,0,8.1,0,14.2c0,6.1,3.4,7.6,8.1,7.6c3.9,0,7-2.1,7-2.1s0.1,1.1,0.2,1.3
		c0.1,0.1,0.2,0.3,0.4,0.3l3.8,0c0.3,0,0.5-0.2,0.5-0.5l0-20.7C103.3,25.1,103.1,24.9,102.8,24.9z"/>
	<path class="st0" d="M118.9,24.2c-3.3,0-5.6,1.5-5.6,1.5V15.2c0-0.3-0.2-0.5-0.5-0.5h-5.9c-0.3,0-0.5,0.2-0.5,0.5v30.9
		c0,0.3,0.2,0.5,0.5,0.5c0,0,4.1,0,4.1,0c0.2,0,0.3-0.1,0.4-0.3c0.1-0.2,0.2-1.4,0.2-1.4s2.4,2.3,7,2.3c5.4,0,8.5-2.7,8.5-12.3
		C127.1,25.4,122.2,24.2,118.9,24.2z M116.5,41.6c-2-0.1-3.4-1-3.4-1v-9.8c0,0,1.4-0.8,3-1c2.1-0.2,4.1,0.4,4.1,5.5
		C120.3,40.6,119.4,41.7,116.5,41.6z"/>
	<path class="st0" d="M54,24.8h-4.4c0,0,0-5.9,0-5.9c0-0.2-0.1-0.3-0.4-0.3h-6c-0.2,0-0.4,0.1-0.4,0.3v6c0,0-3,0.7-3.2,0.8
		c-0.2,0.1-0.4,0.2-0.4,0.5v3.8c0,0.3,0.2,0.5,0.5,0.5h3.1c0,0,0,4,0,9.1c0,6.8,4.8,7.5,8,7.5c1.5,0,3.2-0.5,3.5-0.6
		c0.2-0.1,0.3-0.2,0.3-0.4l0-4.2c0-0.3-0.2-0.5-0.5-0.5c-0.3,0-0.9,0.1-1.6,0.1c-2.2,0-2.9-1-2.9-2.3c0-1.3,0-8.7,0-8.7H54
		c0.3,0,0.5-0.2,0.5-0.5v-4.8C54.5,25.1,54.3,24.8,54,24.8z"/>
</g>
</svg>
