<?xml version="1.0" encoding="utf-8"?>
<!-- Generator: Adobe Illustrator 21.0.0, SVG Export Plug-In . SVG Version: 6.00 Build 0)  -->
<svg version="1.1" id="Layer_1" xmlns="http://www.w3.org/2000/svg" xmlns:xlink="http://www.w3.org/1999/xlink" x="0px" y="0px"
	 width="317.3px" height="60px" viewBox="0 0 317.3 60" style="enable-background:new 0 0 317.3 60;" xml:space="preserve">
<style type="text/css">
	.st0{fill:#FFFFFF;}
	.st1{fill:#92288F;}
</style>
<path class="st0" d="M144,45c-3.8,0.1-3.5,0-4.7-3.3c-0.7-2-0.7-2-2.8-2c-1.7,0-3.5,0-5.2,0c-0.7,0-1.1,0.2-1.3,0.9
	c-0.3,1-0.7,1.9-1,2.9c-0.3,1-1,1.5-2,1.5c-1.2,0-2.4,0-3.6,0c-0.7,0-0.7-0.2-0.5-0.8c3.1-8,6.2-16,9.3-24c0-0.1,0.1-0.2,0.1-0.2
	c1.2-0.9,2.5-0.2,3.7-0.4c0.6-0.1,0.8,0.2,1,0.7c3.1,8,6.2,15.9,9.3,23.8c0.3,0.7,0.2,0.9-0.6,0.9C145.2,45,144.6,45,144,45z
	 M134.5,27.8c-0.8,2.3-1.6,4.4-2.3,6.5c-0.2,0.5-0.2,0.8,0.5,0.8c1.2,0,2.5,0,3.7,0c0.5,0,0.7-0.1,0.5-0.7
	C136,32.3,135.3,30.2,134.5,27.8z"/>
<path class="st1" d="M52.8,41.3c-5,0-9-4.1-9-9c0-4.9,4.1-9,9-9c5,0,9.1,4.1,9.1,9.1C61.8,37.3,57.8,41.3,52.8,41.3z"/>
<path class="st0" d="M268.6,19.8c-2.1,3.2-4,6.4-6.2,9.2c-2.4,3.1-3.7,6.3-3.2,10.2c0.2,1.6,0,3.2,0.1,4.9c0,0.8-0.2,1-1,1
	c-1.3-0.1-2.6-0.1-4,0c-0.8,0-1.1-0.2-1.1-1.1c0-3,0-6,0-9.1c0-0.8-0.2-1.4-0.6-2c-2.9-4.3-5.8-8.6-8.7-13.1c2,0,3.9,0,5.8,0
	c0.7,0,1.2,0.6,1.6,1.2c1.7,2.5,3.5,4.9,5.1,7.7c0.8-1.3,1.6-2.4,2.4-3.6c0.9-1.4,1.9-2.7,2.8-4.1c0.6-0.8,1.3-1.3,2.4-1.2
	C265.4,19.8,266.9,19.8,268.6,19.8z"/>
<path class="st0" d="M81.6,19.8c1.8,0,3.5,0,5.2,0c1,0,1.6,0.6,2.1,1.4c1.7,2.5,3.3,4.9,5,7.5c1.7-2.5,3.4-4.9,5-7.4
	c0.7-1.1,1.6-1.6,2.9-1.5c1.4,0.1,2.7,0,4.2,0c-0.3,0.9-0.8,1.5-1.2,2.1c-2.5,3.7-4.9,7.3-7.4,11c-0.4,0.6-0.6,1.3-0.6,2
	c0,3,0,6,0,8.9c0,1-0.3,1.2-1.2,1.2c-1.3-0.1-2.6-0.1-3.8,0c-0.7,0-0.9-0.3-0.9-1c0-3,0-6,0-8.9c0-0.8-0.2-1.5-0.7-2.2
	c-2.7-4-5.4-8-8.1-12.1C81.8,20.5,81.5,20.3,81.6,19.8z"/>
<path class="st0" d="M213.2,19.8c3.2,0,6.4,0,9.6,0c0.9,0,1.1,0.3,1.1,1.2c0,3.8,0,3.8-3.7,3.8c-1.2,0-2.8-0.5-3.6,0.2
	c-0.8,0.8-0.3,2.4-0.3,3.7c0,5.1,0,10.1,0,15.2c0,0.9-0.2,1.3-1.2,1.2c-1.3-0.1-2.6-0.1-3.8,0c-1,0.1-1.2-0.3-1.2-1.2
	c0-6,0-11.9,0-17.9c0-1-0.3-1.3-1.3-1.2c-1.5,0.1-3,0-4.5,0c-1.4,0-1.8-0.4-1.9-1.8c-0.1-3.1-0.1-3.1,3-3.1
	C208.1,19.8,210.7,19.8,213.2,19.8z"/>
<path class="st0" d="M168.9,32.5c0-3.8,0-7.7,0-11.5c0-1,0.3-1.3,1.3-1.2c1.3,0.1,2.6,0.1,4,0c0.9,0,1,0.3,1,1.1
	c0,5.8,0,11.7,0,17.5c0,1.1,0.2,1.5,1.4,1.4c2.2-0.1,4.3,0,6.5,0c1.4,0,2.1,0.7,2.2,2.1c0.2,3.2,0.2,3.2-3.1,3.2c-4,0-8,0-12,0
	c-0.9,0-1.2-0.2-1.2-1.2C168.9,40.1,168.9,36.3,168.9,32.5z"/>
<path class="st0" d="M8.2,32.3c0-3.8,0-7.7,0-11.5c0-0.8,0.2-1.1,1-1.1c1.4,0.1,2.7,0.1,4.1,0c0.9-0.1,1.1,0.3,1.1,1.2
	c0,5.8,0,11.7,0,17.5c0,1.1,0.3,1.4,1.3,1.3c2.3-0.1,4.5,0,6.8,0c1.4,0,2,0.6,2,2c0.1,3.3,0.1,3.3-3.2,3.3c-4,0-8,0-12,0
	c-1,0-1.2-0.3-1.2-1.2C8.2,40,8.2,36.2,8.2,32.3z"/>
<path class="st1" d="M66.3,13.6c-2.5,0-4.5-2-4.4-4.5c0-2.4,2-4.4,4.4-4.4c2.5,0,4.5,2,4.5,4.4C70.8,11.6,68.8,13.7,66.3,13.6z"/>
<path class="st0" d="M288.1,30.4c-0.2-3,0-6-0.1-9.1c0-0.5,0-0.9,0.7-0.9c0.5,0,0.7,0.1,0.7,0.6c0,4.2,0,8.3,0,12.5
	c-0.1,0.1-0.2,0.1-0.3,0.2c-3.1-3.5-6.2-7.1-9.2-10.6c-0.4,0.1-0.3,0.5-0.3,0.8c0,2.9,0,5.7,0.1,8.6c0,0.6,0,0.9-0.8,0.9
	c-0.8,0-0.7-0.5-0.7-1c0-3.6,0-7.2,0-10.7c0-0.4-0.3-1,0.3-1.2c0.6-0.2,0.9,0.2,1.3,0.6c2.4,2.8,4.9,5.6,7.3,8.4
	C287.4,29.8,287.7,30.2,288.1,30.4C288,30.5,288.1,30.5,288.1,30.4z"/>
<path class="st1" d="M44,52.1c0,2.2-1.7,3.9-4,3.9c-2.2,0-3.9-1.8-3.9-4c0-2.2,1.7-3.9,4-3.9C42.3,48.2,44,49.9,44,52.1z"/>
<path class="st0" d="M307.9,21.7c-1.9,0-3.5,0-5.2,0c-0.4,0-0.9,0.2-0.9-0.5c0-0.8,0.4-0.7,0.9-0.7c2.4,0,4.8,0,7.4,0
	c-2.3,4-4.5,7.7-6.8,11.7c2.1,0,4,0,5.9,0c0.4,0,1-0.2,1,0.6c0,0.9-0.6,0.6-1,0.7c-2.3,0-4.6,0-6.9,0c-1,0-1.1-0.2-0.6-1
	c2-3.3,3.9-6.7,5.9-10C307.6,22.2,307.7,22.1,307.9,21.7z"/>
<path class="st1" d="M52.5,50.4c-1.2,0-2.2-1-2.3-2.2c0-1.2,1-2.3,2.2-2.3c1.2,0,2.2,1,2.2,2.2C54.8,49.3,53.7,50.4,52.5,50.4z"/>
<path class="st0" d="M288.1,30.4C288.1,30.5,288,30.5,288.1,30.4C288,30.5,288,30.4,288.1,30.4L288.1,30.4z"/>
</svg>
