<?xml version="1.0" encoding="utf-8"?>
<!-- Generator: Adobe Illustrator 21.0.0, SVG Export Plug-In . SVG Version: 6.00 Build 0)  -->
<svg version="1.1" id="Layer_1" xmlns="http://www.w3.org/2000/svg" xmlns:xlink="http://www.w3.org/1999/xlink" x="0px" y="0px"
	 width="131.7px" height="60px" viewBox="0 0 131.7 60" style="enable-background:new 0 0 131.7 60;" xml:space="preserve">
<style type="text/css">
	.st0{fill:#FFFFFF;}
	.st1{fill-rule:evenodd;clip-rule:evenodd;fill:#E73F16;}
	.st2{opacity:0.4;fill-rule:evenodd;clip-rule:evenodd;}
	.st3{opacity:0.1;fill-rule:evenodd;clip-rule:evenodd;}
	.st4{opacity:5.000000e-02;fill-rule:evenodd;clip-rule:evenodd;}
	.st5{fill-rule:evenodd;clip-rule:evenodd;fill:#2960B8;}
	.st6{fill-rule:evenodd;clip-rule:evenodd;}
</style>
<g>
	<path class="st0" d="M9.1,24.2v3.4c2.7-3.8,6.8-4.7,11.3-3.6v4.5C14.6,26.8,9.1,31,9.1,37.1v15.2h-5v-28H9.1z"/>
	<path class="st0" d="M50.9,24.2v28.1h-5.1v-3.8c-2,3.1-6.5,4.2-10,4.3c-9.8,0-15.1-6.9-15.1-14.6c0-7.6,5.5-14.4,15-14.4
		c3.5,0,7.7,0.8,10.2,4.2l-0.1-3.7H50.9z M35.5,28.2c-6.1,0.1-9.8,4.4-9.8,9.9c0,5.4,3.8,10.3,10.2,10.1c4.6-0.1,9.8-3.4,9.8-10
		C45.8,31.5,40.3,28.1,35.5,28.2z"/>
	<path class="st0" d="M60.8,27.8c2.4-3.3,6-4.1,9.5-4.1c9.5,0,14.4,6.8,14.4,14.4c0,7.7-4.7,14.6-14.5,14.6
		c-3.5-0.1-7.3-1.2-9.3-4.3v3.8h-5.1V15.9h5.1V27.8z M69.9,48.2c6.4,0.2,9.7-5,9.7-10.1c-0.1-4.9-3.1-9.8-9.2-9.9
		c-4.8-0.1-9.6,3.3-9.6,10C60.8,44.8,65.3,48.1,69.9,48.2z"/>
	<path class="st0" d="M93.7,23.9h-5.1v28.4h5.1V23.9z"/>
	<path class="st0" d="M122.2,15.9h5.1v36.4h-5.1v-3.8c-2,3.1-5.9,4.2-9.4,4.3c-9.8,0-15-6.3-15-14.6c0-8.1,5.4-14.4,14.9-14.4
		c3.5,0,7,0.8,9.5,4.1V15.9z M112.7,28.2c-6.1,0.1-9.7,5-9.7,9.9c-0.1,5.9,3.6,10.3,10.1,10.1c4.7-0.1,9.2-3.4,9.2-10
		C122.2,31.5,117.4,28.1,112.7,28.2z"/>
</g>
<path class="st1" d="M88.3,12.6l2.9-6l2.9,6c0,0,0.8,1.6,1.2,2.9c0.1,0.3,0,0.5,0.1,0.7l-0.1,1.1c-0.6,0.7-2,1.3-4.1,1.3
	c-2.2,0-4.1-0.6-4.1-1.7c0-0.1,0-0.2,0-0.3c0-0.1,0-0.4,0-0.5c0-0.2,0-0.4,0.1-0.6C87.5,14.2,88.3,12.6,88.3,12.6z M89.6,18.5
	c0.5,0.2,2.5,0.2,3,0c1.6-0.6-1.5-3.9-1.5-3.9S88.2,17.9,89.6,18.5z"/>
<path class="st2" d="M88.6,11.8l2.5,2.8c0,0-0.6,0.7-1.1,1.4l-1.5-4L88.6,11.8z"/>
<polygon class="st1" points="91.1,6.4 88.5,11.7 91.4,14.9 93.8,12.2 "/>
<path class="st3" d="M94.3,13c1,4.1-1,5.1-1.3,5.3c1.4-0.5,2.3-1.4,2.3-2.9C95,14.8,94.6,13.8,94.3,13z"/>
<path class="st4" d="M89.2,17.9c0,0.1,0,0.3,0.1,0.4c0.3,0.3-2.7-0.1-2.3-2.8C87,15.5,88.9,17.8,89.2,17.9z"/>
<path class="st5" d="M87,15.5c-0.4,1.5,0.4,4.2,0.6,4.4c1.5,1.6,5.2,1.6,6.9,0c0.2-0.2,1-2.9,0.7-4.4c0.1,2-1.6,2.7-2.3,2.9
	c-0.9,0.3-2.7,0.2-3.5,0C88.7,18.1,87,17.8,87,15.5z"/>
<path class="st3" d="M87.9,17.7c0,0,0.1,2.1,0.4,2.7c-0.1-0.1-0.5-0.4-0.6-0.5c-0.4-0.7-0.9-2.9-0.6-4.4
	C87.1,16.5,87.2,17.1,87.9,17.7z"/>
<path class="st3" d="M94.2,17.7L94,20.4c0.3-0.2,0.4-0.3,0.6-0.5c0.2-0.3,1-2.9,0.7-4.4C95.2,16.5,94.9,17.1,94.2,17.7z"/>
<polygon class="st6" points="88.5,11.7 88.5,12 88.6,11.8 "/>
<polygon class="st3" points="88.5,11.7 88.5,12 88.6,11.8 "/>
</svg>
