<?xml version="1.0" encoding="utf-8"?>
<!-- Generator: Adobe Illustrator 21.0.0, SVG Export Plug-In . SVG Version: 6.00 Build 0)  -->
<svg version="1.1" id="Layer_1" xmlns="http://www.w3.org/2000/svg" xmlns:xlink="http://www.w3.org/1999/xlink" x="0px" y="0px"
	 width="219px" height="60px" viewBox="0 0 219 60" style="enable-background:new 0 0 219 60;" xml:space="preserve">
<style type="text/css">
	.st0{fill:#EAEAEA;}
</style>
<g>
	<g>
		<g>
			<path class="st0" d="M35,32.2c0,0-0.1,0.1-0.1,0.1c-0.4,0.7-1,1.3-1.6,1.8c-0.1,0-0.1,0.1-0.2,0.1c-0.5,0.4-1.1,0.8-1.8,1.1
				c-0.1,0.1-0.3,0.1-0.4,0.2c-0.3,0.1-0.5,0.2-0.8,0.3c-0.1,0-0.1,0-0.2,0.1c-0.8,0.2-1.5,0.3-2.4,0.3c-2.2,0-4.3-0.9-5.8-2.2
				c-0.1-0.1-0.2-0.2-0.3-0.3c-0.1-0.1-0.2-0.2-0.3-0.3c-0.1-0.1-0.2-0.2-0.3-0.3c-0.2-0.2-0.4-0.5-0.6-0.8
				c-0.1-0.1-0.1-0.2-0.2-0.2c-0.8-1.3-1.3-2.8-1.3-4.5c0-2.1,0.7-4,2-5.5c0-0.1,0.1-0.1,0.1-0.2c0.2-0.3,0.5-0.5,0.7-0.7
				C22,21.1,22,21,22.1,21c0.1-0.1,0.3-0.2,0.4-0.3c0.1-0.1,0.2-0.2,0.3-0.2c0.1-0.1,0.2-0.1,0.2-0.2c0.1,0,0.1-0.1,0.2-0.1
				c0.2-0.1,0.4-0.2,0.6-0.3c0.1-0.1,0.2-0.1,0.3-0.2c0.1-0.1,0.3-0.1,0.4-0.2c0,0,0.1,0,0.1,0c0.9-0.3,1.9-0.5,2.9-0.5
				c1.3,0,2.5,0.3,3.6,0.8c0.1,0,0.1,0.1,0.2,0.1c2.9,1.4,4.9,4.4,4.9,7.8C36.3,29.3,35.9,30.8,35,32.2 M37.7,21
				c-0.8-0.1-1.6-0.1-2.4-0.2c-1.9-2.1-4.6-3.4-7.6-3.4c-4,0-7.5,2.4-9.2,5.8c-3.3,1.1-6.4,2.6-9.3,4.4c1.3,0.8,2.5,1.5,3.9,2.1
				c-3.3,0.8-6.4,2.1-9.2,3.9c2.8-1.1,5.8-1.7,8.9-1.7c1.2,0,2.3,0.1,3.4,0.2c-0.4-0.9-0.6-1.8-0.7-2.8c0.2,0.6,0.5,1.2,0.7,1.7
				c0.8,0.3,1.6,0.6,2.3,0.9c1.6,3.4,5.1,5.8,9.2,5.8c3,0,5.8-1.3,7.6-3.4c0.8,0,1.6-0.1,2.4-0.2c-0.1-2.2-0.1-4.4-0.1-6.5
				C37.6,25.4,37.7,23.2,37.7,21"/>
		</g>
		<polygon class="st0" points="30.5,27 27.9,26.5 29,21.2 24.6,27.9 27.2,28.4 25.9,34 		"/>
		<g>
			<path class="st0" d="M38.3,27.6c0,4.9,0.2,9.8,0.6,14.6c0.9-0.2,1.7-0.4,2.6-0.6c0.3-4.6,0.5-9.3,0.5-14c0-4.7-0.2-9.4-0.5-14
				c-0.8-0.2-1.7-0.4-2.6-0.6C38.5,17.8,38.3,22.7,38.3,27.6"/>
			<path class="st0" d="M16.6,18.6c1-1,2.1-2,3.4-2.8c1.3-0.8,2.7-1.5,4.2-2.1c0.4-0.2,0.9-0.3,1.3-0.5c-0.5,0-1.1-0.1-1.6-0.1
				c-2.4,0-4.9,0.4-7.2,1.1c-2,0.6-3.9,1.5-5.6,2.7l3.7,4.1C15.2,20.2,15.8,19.3,16.6,18.6"/>
			<path class="st0" d="M23.7,12.4c1.2,0,2.3,0.1,3.4,0.2c0.8-0.2,1.7-0.4,2.5-0.5c-3.1-1.1-6.4-1.7-9.9-1.7c-2.9,0-5.7,0.4-8.3,1.2
				l1.3,3.4C16.1,13.3,19.8,12.4,23.7,12.4"/>
			<path class="st0" d="M54.6,27.7c0-1.6-1.3-2.9-2.9-2.9c-1.6,0-2.9,1.3-2.9,2.9c0,1.6,1.3,2.9,2.9,2.9
				C53.3,30.6,54.6,29.3,54.6,27.7"/>
			<path class="st0" d="M48.3,28.9c-0.1-0.4-0.2-0.8-0.2-1.2c0-0.4,0.1-0.8,0.2-1.2c-2.1,0-4.1-0.7-5.7-1.8c0,1,0,1.9,0,2.9
				c0,1,0,2.1,0,3.1C44.2,29.6,46.2,28.9,48.3,28.9"/>
			<path class="st0" d="M21.8,18.4c1.8-1.1,3.8-1.7,5.9-1.7c1.6,0,3.1,0.3,4.6,1c0.7,0.3,1.3,0.7,2,1.2c0.5,0.4,1,0.8,1.5,1.3
				c0.7,0,1.4,0.1,2.1,0.2c0.1-2.5,0.2-5,0.4-7.4l0-0.1c-1.3-0.2-2.7-0.3-4.2-0.3c-9.8,0-18,5-20.1,11.7c1.3-0.6,2.7-1.1,4.1-1.6
				C18.9,20.9,20.2,19.5,21.8,18.4"/>
			<path class="st0" d="M38.2,42.3L38.2,42.3c-0.2-2.5-0.3-5-0.4-7.5C37,34.9,36.3,35,35.6,35c-0.4,0.5-0.9,0.9-1.5,1.3
				c-0.6,0.5-1.3,0.8-2,1.2c-1.4,0.7-3,1-4.6,1c-2.1,0-4.1-0.6-5.9-1.7c-1.6-1-2.9-2.5-3.8-4.2c-0.4-0.1-0.7-0.3-1.1-0.4l0.4,0.9
				l-1.2-0.2c-0.5-0.1-1-0.1-1.4-0.2c1.1,2.2,2.9,4.2,5.2,5.8l0,0c1.4,1.5,2.3,3.6,2.3,5.8c0,1.4-0.3,2.8-1,3.9
				c-0.1,0.2-0.1,0.7,0.3,0.9c1.1,0.5,2.2,0.7,3.4,0.7c0.5,0,1.1-0.1,1.6-0.2l0,0c-0.1-0.6-0.2-1.2-0.2-1.8c0-2.2,0.9-4.3,2.3-5.8
				l0,0c0.9,0.2,1.9,0.3,2.9,0.4l0,0c0,1.2,0.3,2.4,0.8,3.4l0.8-0.8c-0.2-0.7-0.3-1.4-0.3-2.2c0-0.1,0-0.3,0-0.4l0,0
				c0.4,0,0.9,0,1.3,0C35.4,42.6,36.8,42.5,38.2,42.3"/>
		</g>
	</g>
	<g>
		<path class="st0" d="M82.6,21.2c0-5.9-3.9-8.7-11.8-8.7c-3.3,0-6.4,0.2-8.2,0.3c0,0-0.6,0.1-0.6,0.6v28.6c0,0,0,0.6,0.6,0.6h4.7
			c0,0,0.6,0,0.6-0.6V31.2c0,0,0-0.6,0.6-0.6h2.7c0,0,0.6,0,0.8,0.5l5.1,10.9c0,0,0.2,0.5,0.8,0.5h5.3c0,0,0.6,0,0.3-0.5l-6.2-12.5
			c0,0-0.3-0.5-0.3-0.6c0,0,0,0,0,0c0,0,0,0,0.5-0.2C80.3,28.1,82.6,25.1,82.6,21.2 M76.6,21.6c0,2.8-2.1,4.5-5.3,4.5h-2.8
			c0,0-0.6,0-0.6-0.6v-7.7c0,0,0-0.6,0.4-0.6c0.4,0,1.4-0.1,2.9-0.1C74.6,17.2,76.6,18.2,76.6,21.6"/>
		<path class="st0" d="M213.5,42.6c0,0,0.6,0,0.6-0.6V13.2c0,0,0-0.6-0.6-0.6H209c0,0-0.6,0-0.6,0.6v11c0,0,0,0.6,0,1.1l0.2,7.8
			c0,0,0,0.6,0,0.6c0,0,0,0,0,0c0,0,0,0-0.3-0.5c-3-6.6-7.1-13.6-10.6-20.1c0,0-0.3-0.5-0.9-0.5h-5.6c0,0-0.6,0-0.6,0.6v28.9
			c0,0,0,0.6,0.6,0.6h4.5c0,0,0.6,0,0.6-0.6V30.6c0,0,0-0.6,0-1.1l-0.2-7.8c0,0,0-0.6,0.1-0.6c0,0-0.1,0,0,0c0,0,0.1,0,0.3,0.5
			c2,4.3,5.2,10,11,20.5c0,0,0.3,0.5,0.8,0.5H213.5z"/>
		<path class="st0" d="M173.6,43.1c8.1,0,11.9-4.5,11.9-13.3V13.2c0,0,0-0.6-0.6-0.6H180c0,0-0.6,0-0.6,0.6v17.7
			c0,4.8-2,7.3-5.7,7.3c-3.6,0-5.6-2.7-5.6-7.3V13.2c0,0,0-0.6-0.6-0.6h-4.9c0,0-0.6,0-0.6,0.6v17.4
			C162.1,39.1,166.3,43.1,173.6,43.1"/>
		<path class="st0" d="M127.2,12.6c0,0-0.6,0-0.8,0.5l-2.8,6.7l-2.4,6.6h0c0,0,0,0-0.2-0.5l-2.2-6.1l-2.7-6.7c0,0-0.2-0.5-0.8-0.5
			h-5.7c0,0-0.6,0-0.3,0.5l8.6,17.4c0,0,0.3,0.5,0.3,1.1v10.4c0,0,0,0.6,0.6,0.6h5.1c0,0,0.6,0,0.6-0.6V31.6c0,0,0-0.6,0.3-1.1
			l8.7-17.4c0,0,0.3-0.5-0.3-0.5H127.2z"/>
		<path class="st0" d="M152.3,30.2c0,0-0.6,0-0.6,0.6v6.4c0,0,0,0.6-0.3,0.7c-0.3,0.1-1.4,0.3-2.7,0.3c-5.6,0-9.1-3.9-9.1-10.4
			c0-6.8,3.7-10.4,9.4-10.4c2.9,0,5.8,0.5,7.7,1.2l0.2-4.3c0,0,0-0.6-0.5-0.8c-1.2-0.5-4.1-1.1-7.5-1.1c-9.7,0-15.5,6.4-15.5,15.6
			c0,8.9,4.9,15.1,15,15.1c3.5,0,7.2-0.8,8.7-1.3c0,0,0.5-0.2,0.5-0.8V30.7c0,0,0-0.6-0.6-0.6H152.3z"/>
		<path class="st0" d="M94.6,30.2l1.4-5.6l1.8-7H98c0,0,0.1,0,0.3,0.6l1.6,6.5l1.5,5.6h6l-5.2-17.1c0,0-0.2-0.6-0.7-0.6h-6.6
			c0,0-0.6,0-0.7,0.6l-5.2,17.1H94.6z"/>
		<path class="st0" d="M108.7,34.9h-6.2l1.9,7.1l0.1,0.3c0,0,0.1,0.3,0.7,0.3h5.3c0,0,0.6,0,0.4-0.5L108.7,34.9z"/>
		<path class="st0" d="M87.5,34.9l-2.2,7.2c0,0-0.2,0.5,0.4,0.5h5.1c0,0,0.6,0,0.7-0.5l1.9-7.2H87.5z"/>
	</g>
</g>
</svg>
