<?xml version="1.0" encoding="UTF-8" standalone="no"?>
<svg xmlns:sketch="http://www.bohemiancoding.com/sketch/ns" xmlns="http://www.w3.org/2000/svg" height="247px" width="600px" version="1.1" xmlns:xlink="http://www.w3.org/1999/xlink" viewBox="0 0 600 247">
 <title>Sharesight</title>
 <desc>www.sharesight.com</desc>
 <g id="Page-1" fill-rule="evenodd" sketch:type="MSPage" fill="none">
  <g id="Imported-Layers" sketch:type="MSLayerGroup">
   <path id="Fill-1" sketch:type="MSShapeGroup" fill="#F86D0F" d="m67.899 188.94c0 8.8-3.454 15.4-10.363 19.8-6.008 3.86-13.994 5.71-23.956 5.57h-6.233c-16.972 0-25.458-8.54-25.458-25.64l-0.0001-3.92h5.8575v3.92c0 13.15 6.7086 19.73 20.127 19.73h2.402c7.21 0 13.368-0.94 18.475-2.82 7.859-2.89 11.79-8.29 11.79-16.18 0-5.97-2.727-10.81-8.179-14.53-2.901-1.97-8.58-4.52-17.033-7.64l-6.926-2.5c-9.715-3.58-16.25-6.65-19.603-9.22-5.6089-4.26-8.4121-10.1-8.4121-17.53 0-14.76 11.34-22.14 34.019-22.14h7.735c16.921 0 25.383 8.46 25.383 25.38v3.92h-5.858v-3.91c0-13.3-6.743-19.95-20.229-19.95h-8.948c-16.947 0-25.418 5.44-25.418 16.33-0.0004 5.63 2.235 10.1 6.707 13.39 2.762 2.01 7.835 4.35 15.221 7l10.664 3.85c9.462 3.44 15.594 6.23 18.399 8.39 6.558 5.09 9.837 11.32 9.837 18.7"/>
   <path id="Fill-2" sketch:type="MSShapeGroup" fill="#F86D0F" d="m133.98 214.31h-6.15v-39.44c0-6.43-1.88-11.77-5.64-16.04-4.05-4.64-9.51-6.95-16.37-6.95-7.858 0-14.041 2.64-18.547 7.91-4.156 4.82-6.233 10.93-6.233 18.31v36.21h-6.158v-98.47h6.158v43.81c5.858-8.8 14.119-13.21 24.78-13.21 9.26 0 16.37 2.89 21.33 8.67 4.56 5.27 6.83 12.24 6.83 20.9v38.3"/>
   <path id="Fill-3" sketch:type="MSShapeGroup" fill="#F86D0F" d="m213.96 214.31h-6.31v-12.37c-3.95 5.04-9.46 8.82-16.52 11.34-4.25 1.52-8.74 2.27-13.44 2.27-11.07 0-19.95-3.19-26.66-9.59-6.71-6.39-10.06-14.68-10.06-24.86 0-10.36 3.23-18.66 9.68-24.89 6.56-6.42 15.47-9.63 26.74-9.63 12.87 0 22.95 4.91 30.26 14.72v-13.55h6.31v66.56zm-6.31-20.83v-9.01c0-9.3-2.4-16.89-7.2-22.76-5.35-6.6-12.92-9.9-22.72-9.9-9.3 0-16.68 2.75-22.13 8.25-5.3 5.32-7.95 12.29-7.95 20.9 0 8.76 2.6 15.75 7.8 20.98 5.4 5.45 12.83 8.18 22.28 8.18 4.8 0 9.27-0.94 13.42-2.82 7.2-3.25 12.7-7.86 16.5-13.82z"/>
   <path id="Fill-4" sketch:type="MSShapeGroup" fill="#F86D0F" d="m260.52 154.15l-0.44-0.07c0.5 0-2.33-0.32-8.49-0.96-6.96-0.04-12.84 2.76-17.65 8.4-4.56 5.37-6.84 13.06-6.84 23.06v29.73h-6.16v-66.49h6.16v13c5.86-8.85 14.32-13.28 25.39-13.28 0.85 0.1 3.53 0.44 8.03 1.04v5.57"/>
   <path id="Fill-5" sketch:type="MSShapeGroup" fill="#F86D0F" d="m340.65 179.94c0 1.19-0.13 2.2-0.38 3.02h-66.08c0.5 8.18 3.53 14.75 9.08 19.72 5.56 4.96 12.79 7.44 21.71 7.44 4.65 0 9.38-0.71 14.19-2.13 5.41-1.56 9.51-3.69 12.32-6.4l4.65 4.06c-7.01 6.6-17.4 9.9-31.16 9.9-11.12 0-20.14-3.19-27.08-9.59-6.93-6.39-10.4-14.68-10.4-24.86 0-9.99 3.41-18.24 10.22-24.75 6.8-6.51 15.64-9.77 26.51-9.77 10.56 0 19.27 3.15 26.13 9.44s10.29 14.26 10.29 23.92zm-6.69-2.41c-0.8-7.66-3.88-13.86-9.23-18.61-5.36-4.74-12.22-7.11-20.58-7.11s-15.24 2.37-20.65 7.11c-5.41 4.75-8.51 10.95-9.31 18.61h59.77z"/>
   <path id="Fill-6" sketch:type="MSShapeGroup" fill="#2F353E" d="m403.2 197.26c0 11.37-9.44 17.05-28.31 17.05h-7.36c-9.06 0-15.69-2.42-19.9-7.28l5.63-3.1c3.46 3.3 8.21 4.95 14.27 4.95h11.94c11.62 0 17.42-3.72 17.42-11.17 0-6.39-5.53-10.99-16.59-13.8l-14.05-3.56c-12.06-3.07-18.09-8.73-18.09-16.99 0-10.36 7.63-15.54 22.9-15.54h11.19c9.16 0 15.77 2.32 19.83 6.97l-5.64 3.07c-3.3-3.07-8.26-4.61-14.87-4.61h-12.84c-9.51 0-14.27 3.48-14.27 10.43 0 5.25 4.91 9.14 14.72 11.65l14.65 3.78c12.91 3.34 19.37 9.4 19.37 18.15"/>
   <path id="Fill-7" sketch:type="MSShapeGroup" fill="#2F353E" d="m419.27 129.12c0 2.79-1.55 4.19-4.66 4.19-2.95 0-4.43-1.4-4.43-4.19 0-2.71 1.48-4.06 4.43-4.06 3.11 0 4.66 1.35 4.66 4.06zm-7.73 18.7h6.3v66.49h-6.3v-66.49z"/>
   <path id="Fill-8" sketch:type="MSShapeGroup" fill="#2F353E" d="m499.25 211.63c0 10.32-3.08 18.52-9.24 24.62-6.36 6.33-15.12 9.49-26.28 9.49-5.81 0-10.89-0.55-15.25-1.65-2.55-0.64-7.31-2.29-14.27-4.95l2.18-5.78c8.31 4.4 17.52 6.6 27.64 6.6 9.26 0 16.44-2.63 21.55-7.9 4.91-5.05 7.36-11.86 7.36-20.43v-9.28c-1.85 2.11-4.61 4.4-8.26 6.88-3.06 2.01-5.56 3.37-7.51 4.05-4.46 1.52-9.19 2.27-14.19 2.27-11.07 0-19.96-3.19-26.66-9.59-6.71-6.39-10.07-14.68-10.07-24.86 0-10.36 3.23-18.66 9.69-24.89 6.56-6.42 15.47-9.63 26.74-9.63 12.86 0 22.95 4.91 30.26 14.72v-13.48h6.31v63.81zm-6.31-17.05v-10.11c0-9.3-2.4-16.89-7.2-22.76-5.35-6.6-12.93-9.9-22.73-9.9-9.3 0-16.67 2.75-22.12 8.25-5.3 5.32-7.95 12.29-7.95 20.9 0 8.76 2.6 15.75 7.8 20.98 5.4 5.45 12.82 8.18 22.27 8.18 5.25 0 9.98-0.94 14.18-2.82 6.45-2.89 11.7-7.13 15.75-12.72z"/>
   <path id="Fill-9" sketch:type="MSShapeGroup" fill="#2F353E" d="m565.33 214.31h-6.16v-39.44c0-6.43-1.87-11.77-5.63-16.04-4.05-4.64-9.51-6.95-16.37-6.95-7.86 0-14.04 2.64-18.55 7.91-4.15 4.82-6.23 10.93-6.23 18.31v36.21h-6.16v-98.47h6.16v43.81c5.86-8.8 14.12-13.21 24.78-13.21 9.26 0 16.37 2.89 21.33 8.67 4.55 5.27 6.83 12.24 6.83 20.9v38.3"/>
   <path id="Fill-10" sketch:type="MSShapeGroup" fill="#2F353E" d="m598.3 153.25h-19.68v47.52c0 5.41 2.11 8.11 6.31 8.11h4.36v5.43h-3.23c-9.16 0-13.74-4.3-13.74-12.92v-72.41h6.3v18.84h19.68v5.43"/>
   <path id="Fill-11" sketch:type="MSShapeGroup" fill="#717A83" d="m583.74 16.897c-10.52-10.679-24.56-16.626-39.54-16.744l-0.46-0.00221c-14.88 0-28.91 5.7766-39.49 16.266-10.58 10.495-16.47 24.484-16.59 39.39-0.1 12.313 3.75 24.05 10.96 33.77l-57.82 40.053 4.07 5.87 58.38-40.442c0.18 0.181 0.35 0.364 0.53 0.544 10.51 10.678 24.55 16.628 39.53 16.738l0.45 0.01c14.89 0 28.92-5.78 39.5-16.269 10.58-10.495 16.47-24.483 16.59-39.386 0.12-14.985-5.6-29.119-16.11-39.798zm-4.95 74.675c-9.38 9.298-21.82 14.428-35.03 14.428h-0.4c-13.29-0.11-25.74-5.38-35.06-14.852-9.32-9.471-14.4-22.004-14.29-35.291 0.1-13.219 5.33-25.624 14.71-34.932 9.38-9.302 21.82-14.425 35.02-14.425l0.41 0.0016c13.29 0.1051 25.74 5.3794 35.06 14.849 9.32 9.47 14.4 22.004 14.29 35.293-0.1 13.218-5.33 25.621-14.71 34.928z"/>
   <path id="Fill-12" sketch:type="MSShapeGroup" fill="#F86D0F" d="m513.5 89.28v-7.151h-6.38c1.87 2.605 4.01 5.003 6.38 7.151"/>
   <path id="Fill-13" sketch:type="MSShapeGroup" fill="#FFF4EE" d="m573.67 22.677v66.686c9.11-8.215 14.84-20.111 14.84-33.344 0-13.234-5.73-25.129-14.84-33.342"/>
   <path id="Fill-14" sketch:type="MSShapeGroup" fill="#FDDDC7" d="m554.05 99.683c6.84-1.627 13.07-4.821 18.3-9.182v-50.222h-18.3v59.404"/>
   <path id="Fill-15" sketch:type="MSShapeGroup" fill="#FBAF7D" d="m534.43 99.955c2.97 0.615 6.05 0.945 9.2 0.945 3.12 0 6.17-0.32 9.11-0.925v-46.794h-18.31v46.774"/>
   <path id="Fill-16" sketch:type="MSShapeGroup" fill="#F9873A" d="m514.81 90.42c5.23 4.382 11.46 7.596 18.31 9.24v-30.612h-18.31v21.372"/>
  </g>
 </g>
</svg>
