<?xml version="1.0" encoding="utf-8"?>
<!-- Generator: Adobe Illustrator 21.0.0, SVG Export Plug-In . SVG Version: 6.00 Build 0)  -->
<svg version="1.1" id="Layer_1" xmlns="http://www.w3.org/2000/svg" xmlns:xlink="http://www.w3.org/1999/xlink" x="0px" y="0px"
	 width="286.5px" height="73.2px" viewBox="0 0 286.5 73.2" style="enable-background:new 0 0 286.5 73.2;" xml:space="preserve">
<style type="text/css">
	.st0{fill:#FFDD00;}
	.st1{fill:#FFFFFF;}
</style>
<path class="st0" d="M59.2,19.7c0,0.2-0.2,0.4-0.4,0.4l-14.6,0c-0.2,0-0.4,0.2-0.4,0.4l0.1,47.9c0,0.2-0.2,0.4-0.4,0.4l-20.6,0
	c-0.2,0-0.4-0.2-0.4-0.4l-0.1-47.9c0-0.2-0.2-0.4-0.4-0.4l-14.5,0c-0.2,0-0.4-0.2-0.4-0.4L6.9,4c0-0.2,0.2-0.4,0.4-0.4l51.4-0.1
	c0.2,0,0.4,0.2,0.4,0.4L59.2,19.7z"/>
<path class="st1" d="M157.6,10.9h-6.8v21.4h-9.4V10.9h-6.7V3.6h23V10.9z"/>
<path class="st1" d="M183.9,32.3h-10.2l-1.1-4h-8.2l-1.1,4h-9.8l10-28.7h10.4L183.9,32.3z M170.6,21.1l-2.1-7.7l-2.1,7.7H170.6z"/>
<path class="st1" d="M204.7,32.3h-19.2V3.6h9.4v21h9.8V32.3z"/>
<path class="st1" d="M228,32.3h-20.8V3.6h20.4V11h-11v3.1H227v7.4h-10.4v3.3H228V32.3z"/>
<path class="st1" d="M258.8,32.3h-9.8l-8.7-16c0,0,0.2,3.1,0.2,5.2v10.8h-9.2V3.6h10.2l8.3,16c0,0-0.2-3.1-0.2-5.2V3.6h9.2V32.3z"/>
<path class="st1" d="M283.9,10.9h-6.8v21.4h-9.4V10.9h-6.7V3.6h23V10.9z"/>
<path class="st0" d="M164.7,70.3h-10.2l-1.1-4h-8.2l-1.1,4h-9.8l10-28.7h10.4L164.7,70.3z M151.4,59l-2.1-7.7l-2.1,7.7H151.4z"/>
<path class="st0" d="M192.4,70.3h-10.8l-4.6-9.6h-1.2v9.6h-9.4V41.5h12.5c3.5,0,6.2,0.6,8.3,2.1c2.1,1.5,3.5,4,3.5,7.1
	c0,5.8-3.5,7.9-4.8,8.7L192.4,70.3z M180.2,49.1c-0.4-0.3-1-0.5-2.1-0.5h-2.4v5h2.4c1,0,1.7-0.2,2.1-0.5c0.5-0.3,1-0.7,1-2
	S180.6,49.4,180.2,49.1z"/>
<path class="st0" d="M227.8,70.3h-9.2l-0.3-16.5l-3.7,16.5h-8.1l-3.7-16.5l-0.3,16.5H193l1.7-28.7h12.1l3.6,15.6l3.7-15.6h12.1
	L227.8,70.3z"/>
<path class="st0" d="M257.5,41.5l-10,17.5v11.2h-9.4V59l-10-17.5h10.4l4.2,9.7l4.3-9.7H257.5z"/>
<path class="st0" d="M59.2,19.7c0,0.2-0.2,0.4-0.4,0.4l-14.6,0c-0.2,0-0.4,0.2-0.4,0.4l0.1,47.9c0,0.2-0.2,0.4-0.4,0.4l-20.6,0
	c-0.2,0-0.4-0.2-0.4-0.4l-0.1-47.9c0-0.2-0.2-0.4-0.4-0.4l-14.5,0c-0.2,0-0.4-0.2-0.4-0.4L6.9,4c0-0.2,0.2-0.4,0.4-0.4l51.4-0.1
	c0.2,0,0.4,0.2,0.4,0.4L59.2,19.7z"/>
<path class="st0" d="M100.1,4.2c-0.1-0.2-0.3-0.4-0.6-0.4l-22.9,0c-0.2,0-0.5,0.2-0.6,0.4L53.6,69.2c-0.1,0.2,0.1,0.4,0.3,0.4
	l21.5,0c0.2,0,0.5-0.2,0.5-0.4l2.2-8.4c0.1-0.2,0.3-0.4,0.5-0.4l17.9,0c0.2,0,0.5,0.2,0.6,0.4l2.4,8.4c0.1,0.2,0.3,0.4,0.6,0.4
	l22.5,0c0.2,0,0.4-0.2,0.3-0.4L100.1,4.2z M93.6,38.4c-0.2,0.1-0.3,0.4-0.2,0.7l2.8,8.5c0.1,0.2,0,0.3-0.2,0.2l-7.3-5.2
	c-0.2-0.1-0.5-0.1-0.7,0l-7.2,5.3c-0.2,0.1-0.3,0.1-0.2-0.2l2.7-8.5c0.1-0.2,0-0.5-0.2-0.7l-7.3-5.2c-0.2-0.1-0.2-0.3,0.1-0.3l9,0
	c0.2,0,0.5-0.2,0.6-0.4l2.7-8.5c0.1-0.2,0.2-0.2,0.3,0l2.8,8.5c0.1,0.2,0.3,0.4,0.6,0.4l9,0c0.2,0,0.3,0.1,0.1,0.3L93.6,38.4z"/>
</svg>
