<?xml version="1.0" encoding="UTF-8" standalone="no"?>
<svg width="990px" height="600px" viewBox="0 0 990 600" version="1.1" xmlns="http://www.w3.org/2000/svg" xmlns:xlink="http://www.w3.org/1999/xlink">
    <!-- Generator: Sketch 3.7.2 (28276) - http://www.bohemiancoding.com/sketch -->
    <title>LF-IGALIA</title>
    <desc>Created with Sketch.</desc>
    <defs>
        <linearGradient x1="0.025686901%" y1="49.9857875%" x2="99.9758466%" y2="49.9857875%" id="linearGradient-1">
            <stop stop-color="#FF0000" offset="0%"></stop>
            <stop stop-color="#670164" offset="100%"></stop>
        </linearGradient>
        <linearGradient x1="0.025686901%" y1="49.8910371%" x2="99.9758466%" y2="49.8910371%" id="linearGradient-2">
            <stop stop-color="#FF0000" offset="0%"></stop>
            <stop stop-color="#670164" offset="100%"></stop>
        </linearGradient>
        <linearGradient x1="50.0540456%" y1="99.9698849%" x2="50.0540456%" y2="-0.0502557545%" id="linearGradient-3">
            <stop stop-color="#FFFF99" offset="0%"></stop>
            <stop stop-color="#FF9900" offset="100%"></stop>
        </linearGradient>
        <linearGradient x1="50.0824342%" y1="99.9699042%" x2="50.0824342%" y2="0.0136741214%" id="linearGradient-4">
            <stop stop-color="#FFFF99" offset="0%"></stop>
            <stop stop-color="#FF9900" offset="100%"></stop>
        </linearGradient>
        <linearGradient x1="100.0211%" y1="49.9428571%" x2="0.0108695652%" y2="49.9428571%" id="linearGradient-5">
            <stop stop-color="#BFE7E5" offset="0%"></stop>
            <stop stop-color="#0067B1" offset="100%"></stop>
        </linearGradient>
        <linearGradient x1="100.0211%" y1="49.9827145%" x2="0.0108695652%" y2="49.9827145%" id="linearGradient-6">
            <stop stop-color="#BFE7E5" offset="0%"></stop>
            <stop stop-color="#0067B1" offset="100%"></stop>
        </linearGradient>
        <linearGradient x1="50.0033291%" y1="0.0210997442%" x2="50.0033291%" y2="100.036445%" id="linearGradient-7">
            <stop stop-color="#FFFF00" offset="0%"></stop>
            <stop stop-color="#A1C22D" offset="100%"></stop>
        </linearGradient>
        <linearGradient x1="49.9073584%" y1="-0.0428388747%" x2="49.9073584%" y2="99.9725064%" id="linearGradient-8">
            <stop stop-color="#FFFF00" offset="0%"></stop>
            <stop stop-color="#A1C22D" offset="100%"></stop>
        </linearGradient>
    </defs>
    <g id="Page-1" stroke="none" stroke-width="1" fill="none" fill-rule="evenodd">
        <g id="LF-IGALIA">
            <g id="Group" transform="translate(185.000000, 189.000000)">
                <path d="M299.3,61.4 C299.3,71 296.5,72.6 287.8,72.6 C278.9,72.6 276.1,71 276.1,61.4 C276.1,52.8 278.9,51.5 287.8,51.5 C296.5,51.5 299.3,52.8 299.3,61.4 L299.3,61.4 Z M297.7,145.1 C297.7,157.9 303.9,164.6 303.9,164.6 C303.9,164.6 295.7,171 289.4,171 C281.1,171 277.6,156.1 277.6,150 L277.6,85.8 L297.7,85.8 L297.7,145.1 L297.7,145.1 Z" id="Shape" fill="#3F3F3F"></path>
                <path d="M539.1,61.4 C539.1,71 536.3,72.6 527.6,72.6 C518.7,72.6 515.9,71 515.9,61.4 C515.9,52.8 518.7,51.5 527.6,51.5 C536.3,51.5 539.1,52.8 539.1,61.4 L539.1,61.4 Z M537.4,145.1 C537.4,157.9 543.6,164.6 543.6,164.6 C543.6,164.6 535.4,171 529.1,171 C520.8,171 517.3,156.1 517.3,150 L517.3,85.8 L537.4,85.8 C537.4,85.8 537.4,132.4 537.4,145.1 L537.4,145.1 Z" id="Shape" fill="#3F3F3F"></path>
                <path d="M343.7,170.3 C321,170.3 309,160.9 309,127.3 C309,93.6 321.5,83.4 348.7,83.4 C357.5,83.4 368.1,84.7 376.6,86.9 C385.4,89.2 384.7,96.5 384.7,96.5 L384.7,162 C384.7,194.3 366.7,201.4 340.6,201.4 C334.3,201.4 326.5,200.5 320,199 C311.5,196.9 314.6,184.7 314.6,184.7 L315.7,180.3 C323.3,182.7 332.7,184.4 340.5,184.4 C355.7,184.4 364.7,180.2 364.7,164.9 C360.1,167.7 353.1,170.3 343.7,170.3 L343.7,170.3 Z M364.6,106.5 C364.6,106.5 365,102.4 359.7,101.2 C356.1,100.4 352.1,99.9 348.7,99.9 C334.4,99.9 329.7,103.6 329.7,127.1 C329.7,147.7 334.1,152.9 348.2,152.9 C357.1,152.9 364.6,150.1 364.6,145.1 L364.6,106.5 L364.6,106.5 Z" id="Shape" fill="#3F3F3F"></path>
                <path d="M501.9,63.7 L501.9,145.2 C501.9,153.1 503.7,158.7 508.2,164.7 C508.2,164.7 492.7,177.4 486.8,167.2 C483.6,161.7 481.8,155.1 481.8,146.1 L481.8,51.4 L490.1,51.4 C502.8,51.3 501.9,63.7 501.9,63.7 L501.9,63.7 Z" id="Shape" fill="#3F3F3F"></path>
                <path d="M620.4,157.1 C620.4,157.1 620.4,164.4 612,166.8 C602.8,169.5 591.8,170.6 583.1,170.6 C557,170.6 548.2,164.6 548.2,143 C548.2,119.7 561.3,115.9 580.6,115.9 C587.6,115.9 594.1,116.7 601,118.2 C601,103.8 597.6,100.2 580.4,100.2 C575.6,100.2 570.8,100.6 566.3,101.4 C554.6,103.5 553.4,95.1 553.4,95.1 L551.7,87.6 C556.2,86.4 561.7,85.3 567.6,84.5 C573.1,83.7 578.9,83.3 584.6,83.3 C609.1,83.3 620.3,90.8 620.3,115.4 L620.3,157.1 L620.4,157.1 Z M601.1,148.5 L601.1,131.9 C596.6,130.9 590.7,130.4 584.7,130.4 C573.4,130.4 569.3,131.7 569.3,142.2 C569.3,153.4 572.4,155.2 584.5,155.2 C588.7,155.2 593,154.6 596.9,153.7 C601.2,152.7 601.1,148.5 601.1,148.5 L601.1,148.5 Z" id="Shape" fill="#3F3F3F"></path>
                <path d="M468,157.1 C468,157.1 468,164.4 459.6,166.8 C450.4,169.5 439.4,170.6 430.7,170.6 C404.6,170.6 395.9,164.6 395.9,143 C395.9,119.7 409,115.9 428.3,115.9 C435.3,115.9 441.8,116.7 448.7,118.2 C448.7,103.8 445.3,100.2 428.1,100.2 C423.3,100.2 418.5,100.6 414,101.4 C402.3,103.5 401.1,95.1 401.1,95.1 L399.4,87.6 C403.9,86.4 409.4,85.3 415.3,84.5 C420.8,83.7 426.6,83.3 432.3,83.3 C456.8,83.3 468,90.8 468,115.4 L468,157.1 L468,157.1 Z M448.7,148.5 L448.7,131.9 C444.2,130.9 438.3,130.4 432.3,130.4 C421,130.4 416.9,131.7 416.9,142.2 C416.9,153.4 420,155.2 432.1,155.2 C436.3,155.2 440.6,154.6 444.5,153.7 C448.8,152.7 448.7,148.5 448.7,148.5 L448.7,148.5 Z" id="Shape" fill="#3F3F3F"></path>
                <path d="M32.5,188.8 C58.4,214.7 117.5,168.5 143,143.1 C155.2,155.3 175.7,175.6 189,188.9 C171.8,206.1 144.3,221.2 110.2,221.2 C76,221.2 49.1,205.4 32.5,188.8 L32.5,188.8 Z" id="Shape" fill="url(#linearGradient-1)" style="mix-blend-mode: multiply;"></path>
                <path d="M189,188.9 C163.1,214.8 104,168.6 78.5,143.2 C66.3,155.4 45.8,175.7 32.5,189 C49.7,206.2 77.2,221.3 111.3,221.3 C145.5,221.2 172.4,205.4 189,188.9 L189,188.9 Z" id="Shape" fill="url(#linearGradient-2)" style="mix-blend-mode: multiply;"></path>
                <path d="M188.9,188.9 C214.8,163 168.4,103.7 143,78.2 C155.2,66 175.7,45.7 188.9,32.5 C206.1,49.7 221.2,77.2 221.2,111.3 C221.3,145.4 205.5,172.3 188.9,188.9 L188.9,188.9 Z" id="Shape" fill="url(#linearGradient-3)" style="mix-blend-mode: multiply;"></path>
                <path d="M188.9,32.4 C214.8,58.3 168.4,117.6 143,143.1 C155.2,155.3 175.7,175.6 188.9,188.9 C206.1,171.7 221.2,144.2 221.2,110.1 C221.3,75.9 205.5,49 188.9,32.4 L188.9,32.4 Z" id="Shape" fill="url(#linearGradient-4)" style="mix-blend-mode: multiply;"></path>
                <path d="M188.9,32.5 C163,6.6 103.9,53.2 78.5,78.6 C66.3,66.4 45.8,45.7 32.5,32.5 C49.7,15.3 77.2,0.2 111.3,0.2 C145.4,0.2 172.4,15.9 188.9,32.5 L188.9,32.5 Z" id="Shape" fill="url(#linearGradient-5)" style="mix-blend-mode: multiply;"></path>
                <path d="M32.5,32.5 C58.4,6.6 117.5,52.8 143,78.2 C155.2,66 175.7,45.7 188.9,32.4 C171.7,15.2 144.2,0.1 110.1,0.1 C76,0.1 49.1,15.9 32.5,32.5 L32.5,32.5 Z" id="Shape" fill="url(#linearGradient-6)" style="mix-blend-mode: multiply;"></path>
                <path d="M32.6,32.4 C6.7,58.3 53.1,117.6 78.5,143.1 C66.3,155.3 45.8,175.6 32.5,188.8 C15.3,171.6 0.4,144.3 0.4,110.2 C0.4,76.1 16,49 32.6,32.4 L32.6,32.4 Z" id="Shape" fill="url(#linearGradient-7)" style="mix-blend-mode: multiply;"></path>
                <path d="M32.5,188.9 C6.6,163 53,104.1 78.5,78.7 C66.3,66.5 45.8,45.8 32.6,32.5 C15.4,49.7 0.5,77.4 0.5,111.6 C0.4,145.6 16,172.3 32.5,188.9 L32.5,188.9 Z" id="Shape" fill="url(#linearGradient-8)" style="mix-blend-mode: multiply;"></path>
            </g>
        </g>
    </g>
</svg>