<?xml version="1.0" encoding="UTF-8" standalone="no"?>
<!-- Created with Inkscape (http://www.inkscape.org/) -->

<svg
   xmlns:dc="http://purl.org/dc/elements/1.1/"
   xmlns:cc="http://creativecommons.org/ns#"
   xmlns:rdf="http://www.w3.org/1999/02/22-rdf-syntax-ns#"
   xmlns:svg="http://www.w3.org/2000/svg"
   xmlns="http://www.w3.org/2000/svg"
   xmlns:sodipodi="http://sodipodi.sourceforge.net/DTD/sodipodi-0.dtd"
   xmlns:inkscape="http://www.inkscape.org/namespaces/inkscape"
   id="svg2"
   version="1.1"
   inkscape:version="0.91 r13725"
   xml:space="preserve"
   width="606.25"
   height="222.5"
   viewBox="0 0 606.25 222.5"
   sodipodi:docname="quobis.svg"><metadata
     id="metadata8"><rdf:RDF><cc:Work
         rdf:about=""><dc:format>image/svg+xml</dc:format><dc:type
           rdf:resource="http://purl.org/dc/dcmitype/StillImage" /><dc:title></dc:title></cc:Work></rdf:RDF></metadata><defs
     id="defs6" /><sodipodi:namedview
     pagecolor="#ffffff"
     bordercolor="#666666"
     borderopacity="1"
     objecttolerance="10"
     gridtolerance="10"
     guidetolerance="10"
     inkscape:pageopacity="0"
     inkscape:pageshadow="2"
     inkscape:window-width="640"
     inkscape:window-height="480"
     id="namedview4"
     showgrid="false"
     inkscape:zoom="0.60371134"
     inkscape:cx="303.125"
     inkscape:cy="111.25"
     inkscape:window-x="39"
     inkscape:window-y="24"
     inkscape:window-maximized="0"
     inkscape:current-layer="g10" /><g
     id="g10"
     inkscape:groupmode="layer"
     inkscape:label="ink_ext_XXXXXX"
     transform="matrix(1.25,0,0,-1.25,0,222.5)"><g
       id="g12"
       transform="scale(0.1,0.1)"><path
         d="m 2407.89,1329.84 c -266.64,0 -449.62,-177.94 -449.62,-427.688 0,-248.105 181.22,-426.043 449.62,-426.043 268.37,0 449.62,177.938 449.62,426.043 0,249.748 -182.98,427.688 -449.62,427.688 z m 0,-202.43 c 125.46,0 202.15,-114.25 202.15,-225.258 0,-107.726 -76.69,-223.621 -202.15,-223.621 -125.49,0 -202.16,115.895 -202.16,223.621 0,111.008 76.67,225.258 202.16,225.258"
         style="fill:#023252;fill-opacity:1;fill-rule:evenodd;stroke:none"
         id="path14"
         inkscape:connector-curvature="0" /><path
         d="m 2407.89,1329.84 c -266.64,0 -449.62,-177.94 -449.62,-427.688 0,-248.105 181.22,-426.043 449.62,-426.043 268.37,0 449.62,177.938 449.62,426.043 0,249.748 -182.98,427.688 -449.62,427.688 z"
         style="fill:none;stroke:#023252;stroke-width:10;stroke-linecap:butt;stroke-linejoin:miter;stroke-miterlimit:3.86370993;stroke-dasharray:none;stroke-opacity:1"
         id="path16"
         inkscape:connector-curvature="0" /><path
         d="m 2407.89,1127.41 c 125.46,0 202.15,-114.25 202.15,-225.258 0,-107.726 -76.69,-223.621 -202.15,-223.621 -125.49,0 -202.16,115.895 -202.16,223.621 0,111.008 76.67,225.258 202.16,225.258 z"
         style="fill:none;stroke:#023252;stroke-width:10;stroke-linecap:butt;stroke-linejoin:miter;stroke-miterlimit:3.86370993;stroke-dasharray:none;stroke-opacity:1"
         id="path18"
         inkscape:connector-curvature="0" /><path
         d="m 2837.67,502.074 243.25,0 0,74.625 3.47,0 c 48.66,-64.898 140.73,-100.586 227.61,-100.586 251.95,0 394.43,210.871 394.43,428.231 0,209.246 -147.7,420.116 -389.2,420.116 -90.35,0 -180.71,-37.32 -236.31,-98.95 l 0,536.2 -243.25,0 0,-1259.636 z m 420.49,175.184 c -125.11,0 -201.58,116.773 -201.58,223.844 0,107.048 76.47,222.208 201.58,222.208 125.08,0 201.55,-115.16 201.55,-222.208 0,-107.071 -76.47,-223.844 -201.55,-223.844"
         style="fill:#023252;fill-opacity:1;fill-rule:evenodd;stroke:none"
         id="path20"
         inkscape:connector-curvature="0" /><path
         d="m 2837.67,502.074 243.25,0 0,74.625 3.47,0 c 48.66,-64.898 140.73,-100.586 227.61,-100.586 251.95,0 394.43,210.871 394.43,428.231 0,209.246 -147.7,420.116 -389.2,420.116 -90.35,0 -180.71,-37.32 -236.31,-98.95 l 0,536.2 -243.25,0 0,-1259.636 z"
         style="fill:none;stroke:#023252;stroke-width:10;stroke-linecap:butt;stroke-linejoin:miter;stroke-miterlimit:3.86370993;stroke-dasharray:none;stroke-opacity:1"
         id="path22"
         inkscape:connector-curvature="0" /><path
         d="m 3258.16,677.258 c -125.11,0 -201.58,116.773 -201.58,223.844 0,107.048 76.47,222.208 201.58,222.208 125.08,0 201.55,-115.16 201.55,-222.208 0,-107.071 -76.47,-223.844 -201.55,-223.844 z"
         style="fill:none;stroke:#023252;stroke-width:10;stroke-linecap:butt;stroke-linejoin:miter;stroke-miterlimit:3.86370993;stroke-dasharray:none;stroke-opacity:1"
         id="path24"
         inkscape:connector-curvature="0" /><path
         d="m 3898.48,1298.5 -227.08,0 0,-796.426 227.08,0 0,796.426 z m -113.55,468.77 c -74.63,0 -134.62,-61.63 -134.62,-134.62 0,-74.62 59.99,-134.64 134.62,-134.64 74.62,0 134.64,60.02 134.64,134.64 0,72.99 -60.02,134.62 -134.64,134.62"
         style="fill:#023252;fill-opacity:1;fill-rule:evenodd;stroke:none"
         id="path26"
         inkscape:connector-curvature="0" /><path
         d="m 3671.4,502.074 227.086,0 0,796.422 -227.086,0 0,-796.422 z"
         style="fill:none;stroke:#023252;stroke-width:10;stroke-linecap:butt;stroke-linejoin:miter;stroke-miterlimit:3.86370993;stroke-dasharray:none;stroke-opacity:1"
         id="path28"
         inkscape:connector-curvature="0" /><path
         d="m 3784.93,1767.27 c -74.63,0 -134.62,-61.63 -134.62,-134.62 0,-74.62 59.99,-134.64 134.62,-134.64 74.62,0 134.64,60.02 134.64,134.64 0,72.99 -60.02,134.62 -134.64,134.62 z"
         style="fill:none;stroke:#023252;stroke-width:10;stroke-linecap:butt;stroke-linejoin:miter;stroke-miterlimit:3.86370993;stroke-dasharray:none;stroke-opacity:1"
         id="path30"
         inkscape:connector-curvature="0" /><path
         d="m 4538.92,1166.64 c -64.87,56.77 -109.98,188.03 -368.02,170.29 -148.88,-10.23 -281.22,-121.15 -281.22,-270.37 0,-128.158 120.14,-177.103 199.62,-211.185 79.5,-34.055 287.54,-87.52 243.85,-141.91 -130.32,-162.25 -246.19,-27.371 -289.97,21.285 L 3869.34,622.168 c 69.74,-84.324 149,-138.363 255.52,-146.055 166.66,-12.039 427.65,53.457 424.7,230.258 -3.54,212.863 -195.98,245 -278.7,280.692 -81.1,35.687 -163.82,51.897 -163.82,110.317 0,38.92 58.49,83.44 95.79,83.44 87.75,0 133.35,-61.42 165.8,-92.24 l 170.29,78.06"
         style="fill:#023252;fill-opacity:1;fill-rule:nonzero;stroke:none"
         id="path32"
         inkscape:connector-curvature="0" /><path
         d="m 4538.92,1166.64 c -64.87,56.77 -109.98,188.03 -368.02,170.29 -148.88,-10.23 -281.22,-121.15 -281.22,-270.37 0,-128.158 120.14,-177.103 199.62,-211.185 79.5,-34.055 287.54,-87.52 243.85,-141.91 -130.32,-162.25 -246.19,-27.371 -289.97,21.285 L 3869.34,622.168 c 69.74,-84.324 149,-138.363 255.52,-146.055 166.66,-12.039 427.65,53.457 424.7,230.258 -3.54,212.863 -195.98,245 -278.7,280.692 -81.1,35.687 -163.82,51.897 -163.82,110.317 0,38.92 58.49,83.44 95.79,83.44 87.75,0 133.35,-61.42 165.8,-92.24 l 170.29,78.06 z"
         style="fill:none;stroke:#023252;stroke-width:10;stroke-linecap:butt;stroke-linejoin:miter;stroke-miterlimit:3.86370993;stroke-dasharray:none;stroke-opacity:1"
         id="path34"
         inkscape:connector-curvature="0" /><path
         d="m 1224.7,1305 245.01,0 0,-434.867 c 0,-91.551 15.75,-201.09 140.01,-201.09 124.26,0 140.01,109.539 140.01,201.09 l 0,434.867 245.02,0 0,-472.484 c 0,-176.356 -73.71,-289.457 -219.61,-334.383 -29.37,53.191 -145.66,131.527 -171.2,142.879 -33.55,14.91 -193.82,-108.094 -193.82,-126.727 0,-2.058 3.71,-4.793 10.41,-7.988 -90.28,34.402 -149.55,97.937 -177.38,189.215 51.93,152.578 82.61,368.028 -18.45,598.868 l 0,10.62"
         style="fill:#023252;fill-opacity:1;fill-rule:nonzero;stroke:none"
         id="path36"
         inkscape:connector-curvature="0" /><path
         d="m 1224.7,1305 245.01,0 0,-434.867 c 0,-91.551 15.75,-201.09 140.01,-201.09 124.26,0 140.01,109.539 140.01,201.09 l 0,434.867 245.02,0 0,-472.484 c 0,-176.356 -73.71,-289.457 -219.61,-334.383 -29.37,53.191 -145.66,131.527 -171.2,142.879 -33.55,14.91 -193.82,-108.094 -193.82,-126.727 0,-2.058 3.71,-4.793 10.41,-7.988 -90.28,34.402 -149.55,97.937 -177.38,189.215 51.93,152.578 82.61,368.028 -18.45,598.868 l 0,10.62 z"
         style="fill:none;stroke:#023252;stroke-width:10;stroke-linecap:butt;stroke-linejoin:miter;stroke-miterlimit:3.86370993;stroke-dasharray:none;stroke-opacity:1"
         id="path38"
         inkscape:connector-curvature="0" /><path
         d="m 4733.8,518.105 c 57.15,0 105.97,44.383 105.97,105.137 0,60.196 -48.82,104.582 -105.97,104.582 -57.7,0 -106.52,-44.386 -106.52,-104.582 0,-60.754 48.82,-105.137 106.52,-105.137 z m -85.44,105.137 c 0,49.653 37.45,87.106 85.44,87.106 47.44,0 84.89,-37.453 84.89,-87.106 0,-50.488 -37.45,-87.66 -84.89,-87.66 -47.99,0 -85.44,37.172 -85.44,87.66 z m 63.25,-8.324 21.08,0 31.9,-52.43 20.53,0 -34.39,53.262 c 17.75,2.223 31.34,11.652 31.34,33.293 0,23.852 -14.15,34.395 -42.72,34.395 l -46.05,0 0,-120.95 18.31,0 0,52.43 z m 0,15.535 0,37.449 24.97,0 c 12.76,0 26.35,-2.773 26.35,-17.754 0,-18.585 -13.87,-19.695 -29.4,-19.695 l -21.92,0"
         style="fill:#023252;fill-opacity:1;fill-rule:evenodd;stroke:none"
         id="path40"
         inkscape:connector-curvature="0" /><path
         d="m 4733.8,518.105 c 57.15,0 105.97,44.383 105.97,105.137 0,60.196 -48.82,104.582 -105.97,104.582 -57.7,0 -106.52,-44.386 -106.52,-104.582 0,-60.754 48.82,-105.137 106.52,-105.137 z"
         style="fill:none;stroke:#023252;stroke-width:10;stroke-linecap:butt;stroke-linejoin:miter;stroke-miterlimit:3.86370993;stroke-dasharray:none;stroke-opacity:1"
         id="path42"
         inkscape:connector-curvature="0" /><path
         d="m 4648.36,623.242 c 0,49.653 37.45,87.106 85.44,87.106 47.44,0 84.89,-37.453 84.89,-87.106 0,-50.488 -37.45,-87.66 -84.89,-87.66 -47.99,0 -85.44,37.172 -85.44,87.66 z"
         style="fill:none;stroke:#023252;stroke-width:10;stroke-linecap:butt;stroke-linejoin:miter;stroke-miterlimit:3.86370993;stroke-dasharray:none;stroke-opacity:1"
         id="path44"
         inkscape:connector-curvature="0" /><path
         d="m 4711.61,614.918 21.08,0 31.9,-52.43 20.53,0 -34.39,53.262 c 17.75,2.223 31.34,11.652 31.34,33.293 0,23.852 -14.15,34.395 -42.72,34.395 l -46.05,0 0,-120.95 18.31,0 0,52.43 z"
         style="fill:none;stroke:#023252;stroke-width:10;stroke-linecap:butt;stroke-linejoin:miter;stroke-miterlimit:3.86370993;stroke-dasharray:none;stroke-opacity:1"
         id="path46"
         inkscape:connector-curvature="0" /><path
         d="m 4711.61,630.453 0,37.449 24.97,0 c 12.76,0 26.35,-2.773 26.35,-17.754 0,-18.585 -13.87,-19.695 -29.4,-19.695 l -21.92,0 z"
         style="fill:none;stroke:#023252;stroke-width:10;stroke-linecap:butt;stroke-linejoin:miter;stroke-miterlimit:3.86370993;stroke-dasharray:none;stroke-opacity:1"
         id="path48"
         inkscape:connector-curvature="0" /><path
         d="m 1411.58,514.602 c 0,17.738 152.55,134.812 184.48,120.625 31.93,-14.192 212.87,-138.364 159.65,-173.84 -53.21,-35.481 -344.13,35.476 -344.13,53.215"
         style="fill:#b12525;fill-opacity:1;fill-rule:nonzero;stroke:none"
         id="path50"
         inkscape:connector-curvature="0" /><path
         d="m 1411.58,514.602 c 0,17.738 152.55,134.812 184.48,120.625 31.93,-14.192 212.87,-138.364 159.65,-173.84 -53.21,-35.481 -344.13,35.476 -344.13,53.215 z"
         style="fill:none;stroke:#b12525;stroke-width:10;stroke-linecap:butt;stroke-linejoin:miter;stroke-miterlimit:3.86370993;stroke-dasharray:none;stroke-opacity:1"
         id="path52"
         inkscape:connector-curvature="0" /><path
         d="M 724.383,1698.9 C 515.117,1710.68 111.617,1740.1 11.5586,1201.23 -104.98,573.602 738.426,185.145 1327.65,482.699 c 0,0 144.88,64.559 -240.97,64.559 0,0 367.99,495.052 -41.4,992.722 0,0 -111.628,147.15 -320.897,158.92 z M 568.09,1448.43 c 0,0 -503.5587,-194.23 -391.727,-468.242 120.907,-296.254 568.305,-359.036 706.938,-270.75 138.639,88.289 326.989,456.472 88.289,674.252 -188.281,171.78 -403.5,64.74 -403.5,64.74"
         style="fill:#b12525;fill-opacity:1;fill-rule:evenodd;stroke:none"
         id="path54"
         inkscape:connector-curvature="0" /><path
         d="m 1309.2,368.531 c 0,3.957 -2.44,10.039 -7.31,17.653 0.3,0.91 0.3,2.129 0,3.043 l -11.87,7.304 c -4.57,-1.215 -7.31,-6.996 -8.22,-17.652 l 0.61,-1.524 c -2.74,-8.523 -4.27,-14.914 -4.57,-19.48 l 1.22,-3.656 -1.22,-2.125 c -0.3,-6.399 -1.21,-12.789 -3.04,-19.789 l 1.22,-3.348 c -2.75,-8.223 -4.88,-21.004 -6.7,-38.051 -2.44,-8.523 -3.96,-16.133 -4.87,-22.828 l 0.3,-0.609 c -2.74,-7.614 -3.96,-14.614 -3.96,-21.004 0,-3.957 -0.61,-7.613 -1.52,-10.961 -0.91,-3.043 -1.52,-5.477 -1.52,-7 -0.3,-16.742 -1.21,-28.918 -2.43,-36.527 l 0.61,-1.215 -1.22,-3.961 1.83,-3.957 c -0.92,-2.133 -0.92,-5.172 -0.61,-9.129 0.3,-3.961 0.3,-6.09 0,-7.008 l 0.91,-2.125 c -0.3,-0.918 -0.3,-1.832 -0.61,-2.742 -0.3,-1.215 -0.3,-2.129 0,-2.738 0.31,-0.914 0.91,-1.219 2.13,-1.219 2.74,-11.57 5.78,-17.352 9.13,-17.352 2.13,0 3.35,-0.609 3.96,-1.828 0.6,-0.914 1.21,-1.824 2.13,-2.129 4.56,0.914 7.31,0.61 8.22,-0.91 3.34,1.215 5.48,2.434 6.39,3.344 0.31,4.57 1.22,10.047 3.35,16.437 l -2.13,3.348 c 0,2.441 0,4.566 -0.31,6.09 l -3.65,2.433 -0.91,3.352 1.82,4.562 -2.43,1.825 c -0.61,1.832 -0.92,3.656 -0.92,5.484 0,0.914 0.61,3.957 1.53,8.828 2.74,17.957 3.96,31.656 5.17,41.094 3.35,24.652 6.09,39.574 7.31,45.355 l -0.92,2.434 2.74,6.391 c -0.61,0.918 -1.21,2.441 -1.52,3.957 l 3.05,5.789 -0.92,1.519 c 2.44,5.481 3.66,14.305 3.66,26.785 0,0 -0.61,1.832 -1.52,5.789 0.3,1.215 0.91,1.825 2.12,1.825 l 0.92,0 c 0.3,1.215 1.22,7.308 2.74,18.261 1.21,7.914 1.83,14.008 1.83,17.965"
         style="fill:#023252;fill-opacity:1;fill-rule:nonzero;stroke:none"
         id="path56"
         inkscape:connector-curvature="0" /><path
         d="m 1434.58,142.055 1.52,-1.825 3.65,0.301 1.52,1.824 3.05,-1.218 c 3.65,2.133 6.39,3.351 8.52,3.656 l 3.65,-3.047 7.92,-0.301 c 0,0 2.43,0.301 7,0.91 l 1.22,-0.609 2.74,0.309 c 0.91,2.738 2.13,4.566 3.95,5.476 l 1.52,-2.738 2.14,-0.305 c 0,0 2.43,0.305 7.3,1.219 l -0.91,1.215 c 0,1.523 2.74,2.437 8.22,3.348 0.3,1.218 0.91,2.132 1.82,2.742 l 2.44,-0.91 c 2.43,0.3 4.87,1.519 7,3.343 l 0,0.614 c -0.91,0.91 -1.83,1.824 -2.44,3.043 0.92,3.347 -0.3,6.089 -3.65,8.523 l 0,3.043 -5.48,4.262 c -2.13,-2.133 -3.35,-3.047 -4.26,-3.047 -0.61,0 -0.91,0.308 -1.22,0.914 l 0.61,1.824 c -3.04,0.918 -5.78,1.527 -7.91,1.828 -1.52,-1.219 -4.26,-1.828 -8.83,-1.219 -4.56,0 -7.61,0 -9.13,-0.91 -1.52,0.91 -10.66,1.52 -27.09,2.434 -14.31,0.609 -24.36,1.219 -30.14,1.219 l -3.04,0 -0.31,-0.61 -0.61,-2.433 -1.21,2.433 c -9.14,2.731 -17.05,4.246 -23.75,5.157 l -1.21,-0.301 c -11.27,1.511 -20.4,6.363 -27.4,14.547 0.61,0.91 0.92,3.64 1.22,8.187 0.3,3.637 1.52,5.762 3.95,6.664 8.84,-1.812 15.23,-3.027 19.79,-3.332 l 1.53,0.606 c 4.56,0 10.03,0.605 17.04,1.515 9.44,1.52 15.22,2.125 16.74,2.426 0.31,1.211 0.91,1.82 1.83,2.121 3.35,-0.91 11.26,0 24.35,2.125 1.52,2.727 2.43,3.938 3.35,3.938 l 0.91,0 c 7,5.757 10.65,11.214 10.65,16.066 0,5.457 -3.34,13.34 -10.34,23.078 -7.31,10.352 -14,15.524 -19.79,15.524 l -1.52,-0.606 c -4.57,2.129 -10.35,3.039 -17.66,2.738 -1.52,0.61 -2.74,0.914 -3.95,0.914 -7,0 -14.61,-1.523 -23.14,-4.261 -5.78,0.914 -13.09,-2.434 -21.31,-10.047 -10.04,-9.133 -16.44,-14.301 -19.17,-15.211 -0.61,-2.125 -2.44,-6.063 -5.48,-12.43 -2.44,-5.152 -3.96,-9.398 -3.96,-13.035 0,-10.914 0.91,-18.793 2.74,-23.949 l -2.13,-2.121 -0.3,-1.817 c 0,-2.425 0.91,-3.941 2.43,-4.855 -0.61,-1.512 -0.92,-3.027 -0.92,-4.547 0,-3.937 1.83,-6.664 5.79,-8.484 l 0.61,-3.653 3.04,-1.215 2.44,-4.265 1.82,-0.305 3.66,-5.476 1.82,-0.309 1.22,-2.125 2.13,-0.613 c 1.53,-2.434 3.96,-4.262 7.31,-5.477 0.3,-0.308 3.35,-1.219 9.13,-2.742 l 3.35,-2.434 1.22,0.301 c 0.91,-0.906 2.73,-1.824 5.48,-2.43 2.73,-0.308 4.56,-1.218 5.47,-2.437 8.22,-2.129 14.62,-3.656 18.57,-4.563 l 0,1.516 1.53,3.047 3.95,-2.129 0.91,-1.828 5.18,0 1.82,1.219 c 2.14,-0.918 3.96,-1.524 5.79,-1.524 0,0 1.22,0.305 3.96,0.914 l 2.12,1.825 4.27,-1.524 3.35,0.309 z m -18.27,103.82 c 0,-3.035 -1.22,-4.852 -3.35,-5.152 -16.43,-3.336 -24.96,-4.852 -25.26,-4.852 l -7.31,0 c -1.82,0 -3.35,0.606 -4.26,1.516 -0.31,3.941 2.44,7.273 8.22,10 4.56,2.125 9.13,3.336 13.7,3.336 10.04,0 16.13,-1.512 18.26,-4.848 z m 24.05,-93.773 -0.61,-3.047 c -1.21,0.605 -2.74,1.215 -4.26,1.824 l 0.91,2.133 1.83,0.609 c 1.52,-0.914 2.13,-1.219 2.13,-1.519"
         style="fill:#023252;fill-opacity:1;fill-rule:evenodd;stroke:none"
         id="path58"
         inkscape:connector-curvature="0" /><path
         d="m 1667.02,187.105 c 1.52,0.305 2.44,0.606 3.04,0.915 l -0.6,0.3 -2.44,0 c -1.52,2.442 -3.04,3.957 -4.56,4.871 l 0,1.219 1.52,1.524 c -2.74,0.3 -4.27,0.91 -4.57,1.218 0.61,0.911 0.91,1.825 0.61,2.434 -2.74,0.914 -4.87,1.824 -6.39,2.738 l -1.52,-0.914 -1.52,2.438 -0.61,0.3 c -1.53,-0.3 -4.57,-0.91 -9.14,-1.214 -3.95,-0.301 -6.7,-0.914 -8.52,-1.825 -2.13,0.301 -4.27,0.301 -6.09,-0.609 -2.74,0.609 -8.22,0.609 -15.83,0.301 l -1.22,2.133 0.61,1.523 c -1.82,1.52 -3.34,2.742 -4.26,3.043 l 0.31,1.523 1.52,2.133 c -0.91,2.125 -2.13,4.258 -3.66,6.391 l 0.61,1.519 -1.22,2.739 c 0.31,3.957 -1.52,11.871 -5.78,24.351 -3.95,11.266 -7.3,19.481 -10.04,24.66 l 0.61,0.911 c -0.31,2.132 0,3.957 0.3,5.48 l -0.3,0.301 -2.44,0.918 -1.22,1.523 c -0.91,2.735 -1.52,4.567 -2.43,5.477 -6.7,3.656 -11.87,7.004 -15.83,10.047 -1.22,-0.61 -2.13,-1.828 -3.05,-3.352 -0.61,-1.523 -1.21,-3.348 -1.82,-4.867 l 0,-2.133 -3.04,-4.262 c 0.3,-1.824 0,-3.652 -0.31,-5.781 l -1.52,-1.828 c -0.61,-5.172 -6.4,-17.656 -17.65,-38.051 l 0.3,-1.215 c -0.61,-3.957 -2.44,-7.613 -5.48,-10.961 l -2.44,-0.91 c 0.31,-1.828 -0.61,-2.742 -3.04,-2.742 -3.66,0 -6.39,-7.305 -8.52,-21.613 l -1.22,-1.215 c 0.3,-1.523 -1.53,-7.004 -4.87,-15.832 0.31,-1.523 -0.3,-3.348 -1.22,-5.481 l -2.43,-1.515 0,-4.266 c -2.74,-0.914 -3.96,-4.566 -3.96,-10.347 l 0,-7.614 c 0.91,-1.519 1.22,-3.957 1.22,-7.304 4.25,-2.739 7.3,-5.176 9.43,-6.696 l 0.61,-0.304 0.91,0.304 8.53,-3.047 2.74,0.309 0.91,0.914 1.22,5.172 c 5.17,7 7.61,13.391 7.61,19.176 2.43,5.179 3.95,7.914 4.26,8.523 3.05,-3.043 5.78,-4.566 7.92,-4.566 0.3,0 0.91,0.304 1.82,0.613 l 5.18,-1.523 c 14.3,0.91 21.91,1.824 22.83,2.132 3.34,-0.308 7.3,0.907 12.48,3.039 3.34,-2.132 5.17,-4.261 5.17,-6.996 l 0,-0.609 3.04,-3.352 -0.3,-0.914 c 1.82,-5.171 4.87,-9.437 9.44,-13.394 4.56,-3.957 9.13,-5.781 14,-5.781 2.74,0 4.56,0.605 6.09,1.519 l -2.14,2.133 0.61,2.129 3.66,1.523 c 0,0.305 -0.31,1.219 -0.91,2.742 7.6,6.391 11.56,12.782 11.56,19.786 l 0,0.609 -0.61,0.91 c -3.35,-0.305 -5.78,1.219 -7.3,4.262 l 0,1.523 1.52,1.219 4.26,0 1.83,1.824 4.26,-0.609 c 4.26,2.434 7.3,4.262 9.13,5.48 5.79,0 9.13,1.52 10.35,4.871 z m -84.62,15.829 c -0.31,-1.215 0,-2.434 0.61,-3.957 l -1.83,-2.434 c -1.52,0 -3.95,-0.309 -7,-1.219 -2.74,-0.609 -5.18,-0.914 -6.7,-0.914 0.31,0 -0.91,0.305 -4.26,0.61 -1.52,-1.524 -4.56,-2.434 -9.13,-2.434 l -0.92,0.301 -1.21,1.523 0,0.914 0.6,0.91 -0.6,1.829 c 2.13,2.128 3.65,3.656 4.56,4.57 l -1.22,2.125 0.61,2.742 c 3.05,4.871 5.48,8.828 7,11.871 0.31,1.524 0.31,2.742 0.61,3.957 l -0.61,1.219 0,1.215 c 3.05,3.957 4.57,6.699 4.57,8.523 l 0,0.61 1.83,1.523 1.83,-0.609 2.13,-4.262 -0.31,-1.52 2.13,-1.828 c 0.91,-6.086 2.44,-10.961 4.57,-14.308 l -1.22,-4.258 c 1.22,-0.61 2.13,-1.219 2.44,-2.133 l 0,-3.352 1.52,-1.214"
         style="fill:#023252;fill-opacity:1;fill-rule:evenodd;stroke:none"
         id="path60"
         inkscape:connector-curvature="0" /><path
         d="m 1709.3,226.07 -1.23,-1.218 -0.3,1.519 0.61,1.524 0.61,-0.309 0.31,-1.516 z m 163.4,-8.832 c -0.91,3.957 -1.83,6.7 -2.74,8.832 l -6.39,-2.742 -3.35,1.824 c -0.91,-0.3 -3.35,-2.738 -7.31,-6.695 -2.74,-2.734 -5.78,-4.262 -9.13,-4.262 -11.87,46.575 -20.7,77.012 -26.48,91.325 -0.91,2.125 -1.22,6.082 -1.22,11.562 0,11.875 -0.92,18.875 -3.07,21.613 0.31,2.743 0,6.391 -0.93,11.266 -0.92,4.871 -1.22,8.215 -1.22,10.348 0,2.742 0.61,5.175 1.53,7.304 l -2.76,4.875 c 0.92,6.082 1.23,9.739 1.23,10.957 0,2.129 -0.31,4.258 -0.93,6.09 l -6.14,3.348 -2.15,0 c -2.15,-1.832 -3.99,-4.57 -4.92,-8.223 l 1.85,-1.824 c 0,-1.523 -1.85,-3.348 -5.53,-5.176 -0.31,-8.222 -1.23,-13.394 -3.08,-14.918 l 1.54,-10.957 c -1.54,-1.824 -2.15,-4.262 -2.15,-7.308 0,-24.352 1.84,-41.399 5.84,-51.438 l 1.23,-0.918 c 0,-5.172 1.84,-10.957 5.83,-17.348 l -0.61,-0.613 1.23,-4.867 1.84,-0.609 c 0,-2.133 0.31,-5.172 0.92,-9.129 0.62,-3.961 0.93,-6.7 0.93,-8.832 l -0.31,-0.91 c -17.81,9.742 -33.64,14.609 -47.95,14.609 -10.05,0 -21.31,-2.742 -33.18,-8.524 l -0.91,0 -10.05,-7 -5.47,0.61 c -11.27,-8.219 -17.05,-13.399 -17.05,-14.914 l -1.52,-0.309 c -14.31,-14 -21.62,-31.047 -21.62,-51.137 0,-8.828 1.83,-15.523 5.79,-19.789 l 3.35,-0.3 2.13,-7.918 c 5.47,-4.871 9.74,-7.305 12.78,-7.305 0,0 0.91,0.309 2.74,0.609 l 7,-5.175 c 4.57,0.308 8.52,0.609 11.26,1.523 l 9.44,-1.828 2.44,2.742 3.95,-1.219 2.14,3.043 4.56,-1.218 3.65,2.132 2.13,-0.914 c 4.57,2.739 12.18,5.176 22.23,7.305 7.6,1.523 15.52,3.352 23.43,4.875 l 0.31,0.605 c 5.83,-0.304 13.5,1.219 23.33,4.266 9.79,3.043 16.49,6.391 20.14,10.039 5.17,-10.348 7.61,-17.652 7.91,-21.914 3.96,-6.086 6.7,-11.262 8.23,-15.523 l 1.51,2.129 -0.61,2.132 3.66,6.086 3.65,0.914 0.61,1.215 c -2.13,10.051 -3.65,16.746 -4.56,19.789 l 2.13,3.656 -3.35,11.868 0.31,1.828 7.3,3.961 c 0.61,2.125 3.04,5.172 7.3,9.129 4.27,3.957 6.4,7.308 6.4,10.347 l -0.92,2.133 1.83,4.867 z m -65.84,162.856 c 0,-0.606 0,-0.914 -0.3,-1.215 l 0.3,1.215 z m -6.45,-172.895 c -1.23,-4.566 -2.15,-7.308 -2.76,-8.222 -1.54,-2.133 -4.31,-3.348 -7.69,-3.348 l -1.22,0.305 c -7,-2.438 -11.26,-3.657 -12.78,-3.657 l -2.14,-2.433 -0.91,1.523 c -10.96,-3.347 -19.48,-5.48 -25.26,-6.394 l -1.22,1.222 -0.61,0 c -1.52,0 -3.35,-0.613 -5.78,-1.832 -1.52,-0.3 -3.66,-0.609 -6.09,-1.215 l -1.82,0.915 -1.83,-1.219 c -4.57,1.219 -8.22,0.91 -11.26,-1.215 l -0.92,0 c -7.61,0 -16.13,1.824 -24.96,5.476 l -0.3,1.825 c 1.21,2.738 5.17,7.304 11.87,13.09 8.82,7.613 13.7,11.57 14.31,12.48 l 0.91,0.305 1.82,-1.215 3.66,3.957 1.21,0 1.83,-1.219 3.35,2.129 c 1.52,0 3.65,0.609 6.39,1.828 l 1.52,-0.609 c 2.13,1.828 3.66,3.043 4.88,3.347 l 2.43,-0.609 c 0.91,0.914 3.35,1.524 6.69,1.524 l 1.83,-0.915 3.35,2.129 0.61,-1.214 1.52,-0.915 3.35,1.524 c 2.13,-2.742 5.18,-3.352 8.52,-2.133 l 1.22,-0.91 2.13,0.91 c 2.74,-1.519 4.57,-2.434 6.09,-2.738 l 0.61,-1.52 c 3.95,-1.527 7.62,-2.133 11.31,-2.133 l 2.45,-2.433 0.93,0 1.53,1.215 0.93,-1.524 -3.69,-3.347 0.92,-1.825 2.15,0.914 0.62,-0.308 0.3,-1.516"
         style="fill:#023252;fill-opacity:1;fill-rule:evenodd;stroke:none"
         id="path62"
         inkscape:connector-curvature="0" /><path
         d="m 1932.33,362.133 0,0.918 c -1.21,1.523 -2.74,2.433 -4.56,2.433 -1.83,0.606 -3.04,1.215 -3.35,2.739 l 0,2.742 c -1.83,2.129 -3.65,3.648 -5.18,3.957 -3.35,6.09 -6.08,9.129 -8.21,9.129 -1.53,0 -3.05,-0.914 -5.18,-2.434 -2.13,-1.523 -3.65,-2.129 -4.87,-2.437 -0.91,-1.52 -2.13,-2.735 -3.35,-3.957 0.61,-1.215 0.92,-2.735 0.92,-4.868 -1.53,-0.917 -2.75,-1.218 -3.66,-1.523 -0.91,-5.176 -1.82,-8.824 -2.74,-10.352 l 1.22,-1.824 -0.61,-2.129 c 1.52,-3.351 2.44,-5.785 2.74,-7.609 -0.3,-2.441 0.3,-4.566 2.13,-6.395 1.53,-1.828 2.75,-3.351 3.04,-4.871 l 2.44,-0.914 1.52,0.61 4.26,-2.133 4.27,3.047 c 2.73,-0.61 4.87,-0.914 6.39,-0.914 3.04,0 6.09,3.047 9.43,8.828 l -1.82,1.219 -0.92,2.433 c 0.92,0.914 2.14,2.133 3.66,3.656 0.3,2.125 0.3,5.172 0.3,9.129 l 2.13,1.52 z m -3.65,-94.973 c -1.83,0.309 -3.34,0.918 -4.87,2.133 0.92,5.176 0,8.215 -3.04,9.133 -0.92,0.914 -1.53,1.824 -1.83,2.738 -7.3,4.566 -11.87,7.004 -14,7.309 -4.56,-1.524 -6.7,-9.743 -6.7,-24.66 0,-3.043 -0.91,-12.481 -3.04,-28.614 -2.13,-15.828 -3.35,-25.875 -4.27,-29.832 l 0.92,-1.519 -0.92,-4.567 c 0.31,-1.218 0.61,-2.129 1.22,-3.047 -0.61,-1.519 -1.52,-3.347 -2.74,-5.175 0,-3.348 -0.91,-5.782 -2.43,-7.911 -0.91,-5.175 -1.22,-8.527 -1.22,-10.043 0,-2.742 0.92,-7.007 2.44,-12.789 1.51,-5.48 2.43,-9.738 2.43,-12.785 2.13,-1.519 4.26,-2.738 5.78,-3.043 1.22,0.61 3.36,0.305 6.09,-1.218 3.35,0.914 6.7,4.261 10.05,10.046 3.34,5.786 5.48,10.653 6.09,14.61 1.52,1.523 2.74,4.871 4.26,10.351 1.22,4.871 2.13,8.524 2.13,11.262 0,7.305 0,10.352 -0.3,9.137 0.3,2.125 1.51,4.867 3.95,8.215 -1.22,6.089 -1.22,10.047 0,12.175 -0.3,5.176 0.91,14.918 3.04,29.223 -3.04,7 -4.56,11.266 -4.56,12.781 0,0.309 0.61,2.133 1.52,6.09"
         style="fill:#023252;fill-opacity:1;fill-rule:evenodd;stroke:none"
         id="path64"
         inkscape:connector-curvature="0" /><path
         d="m 2117.04,206.281 c 2.73,3.043 4.26,9.442 4.57,18.871 -0.31,-7.304 -0.31,-1.214 -0.31,18.266 -0.91,2.738 -1.83,4.871 -2.74,7.004 l 0.91,2.433 c -0.31,1.524 -1.22,2.739 -2.43,3.653 0.61,4.562 -0.61,10.043 -3.66,15.828 -2.74,5.781 -4.25,9.437 -4.25,11.262 -0.92,0.308 -1.53,1.218 -1.83,2.132 l 0.3,1.219 c -2.13,5.781 -6.09,12.781 -11.87,20.395 -1.83,-0.61 -3.35,-0.309 -4.26,1.215 l -0.61,-0.606 c 0,-1.828 -0.31,-3.043 -0.91,-3.652 -2.74,-0.305 -4.88,-1.223 -6.4,-2.738 l 0.31,-1.219 -2.44,-3.656 1.83,-1.524 c -2.13,-1.824 -3.66,-4.258 -4.26,-7.605 1.82,-0.918 3.04,-2.743 3.35,-5.485 l -2.14,-6.39 1.52,-2.129 3.05,1.828 c 0.61,-0.914 1.22,-1.828 1.52,-3.047 0.92,-0.301 1.52,-0.91 2.13,-1.824 l -0.91,-2.742 1.52,-1.825 c 2.13,-6.39 3.66,-11.265 4.87,-14.304 l -0.61,-1.219 3.05,-16.746 c -1.22,-2.434 -1.83,-4.867 -1.83,-7.606 0,-2.437 0.31,-4.875 1.22,-7.308 -4.87,-9.438 -8.52,-15.219 -10.66,-17.352 -2.12,-2.129 -7.91,-5.781 -17.35,-10.957 -2.43,0.606 -5.17,0.606 -7.91,-0.301 -0.92,0.301 -3.35,0.907 -6.7,2.434 -3.35,1.215 -5.17,1.824 -5.78,1.824 0,0 -1.53,0 -4.26,-0.305 -3.96,2.739 -7.61,4.262 -10.66,5.176 -2.13,-0.304 -7,1.828 -15.21,6.391 l -2.44,0.305 -1.22,1.222 0.3,1.824 c -2.43,0.911 -5.48,3.957 -8.82,9.434 -3.35,5.176 -6.09,8.523 -7.92,9.742 -3.95,8.219 -10.35,16.434 -19.78,24.047 l -1.83,0 c -2.13,-1.523 -4.57,-5.48 -7.3,-11.562 -1.83,-4.266 -3.66,-8.832 -5.79,-13.399 0.61,-3.957 -0.3,-6.09 -2.74,-7 -3.65,-10.047 -5.48,-17.961 -5.48,-23.133 l 0,-0.609 1.83,-3.047 c -1.83,-6.391 -3.35,-10.957 -4.57,-14 0.61,-2.133 0.61,-4.266 0,-7.004 1.52,-2.129 2.13,-4.262 2.13,-6.394 l 0.91,-2.129 -1.52,-5.477 1.52,-2.433 c -0.3,-1.223 -0.3,-2.743 0.31,-4.266 0.92,-2.133 1.22,-3.648 1.52,-3.957 5.79,-2.434 9.14,-3.652 9.44,-3.652 0,0 1.21,0.304 3.96,0.609 3.34,3.961 6.08,9.133 8.22,15.832 2.74,8.824 4.56,14.605 5.47,16.738 0.31,5.176 0.31,9.742 0.61,13.09 l 1.53,1.824 3.04,0.914 2.44,-2.738 c -0.31,-2.133 2.73,-5.781 8.82,-10.957 5.18,-4.266 9.44,-7.305 12.79,-9.437 0.91,0.304 1.82,0 3.04,-0.914 0.92,-0.915 1.83,-1.219 2.44,-1.52 l 6.08,-4.566 c 5.79,-0.914 10.35,-1.825 13.09,-2.743 1.52,0.918 2.44,0.309 2.74,-1.824 9.74,-2.433 15.22,-3.957 16.14,-4.566 4.87,-0.914 8.52,-1.524 10.96,-2.438 l 1.21,0 1.22,2.739 1.22,-1.825 2.43,0 c 2.13,-0.3 4.57,0.305 7,1.825 2.14,1.218 3.96,1.832 5.18,1.523 5.48,2.742 11.57,7.914 17.96,14.918 7,7.914 10.65,14.305 10.65,19.484 0,3.649 0.92,5.782 2.44,6.391 l 0.61,3.348 1.82,1.828 -1.82,4.562"
         style="fill:#023252;fill-opacity:1;fill-rule:nonzero;stroke:none"
         id="path66"
         inkscape:connector-curvature="0" /><path
         d="m 2276.14,175.539 -2.13,7.609 c -1.52,1.524 -3.05,2.434 -4.26,3.047 l 0,1.215 -1.82,3.352 0,3.648 c -2.75,4.567 -5.79,7 -9.14,7 -2.44,-0.91 -4.26,-1.824 -5.79,-2.734 -0.91,0 -1.51,0.605 -1.82,1.515 l 1.22,4.266 c 1.52,1.52 2.44,3.957 3.05,7.914 -0.92,4.258 -1.53,7.609 -1.53,10.348 0,3.961 -1.83,8.219 -5.17,13.09 -3.96,5.781 -6.39,10.046 -7.01,12.175 l -3.95,2.739 c -0.31,1.523 -1.52,3.656 -3.66,6.09 -2.13,2.433 -4.25,3.957 -5.78,4.867 l -1.52,0 c -4.26,2.742 -8.22,4.871 -12.18,6.699 l -1.52,-0.91 -3.04,3.347 c -3.35,0.911 -7.61,1.219 -12.79,1.219 -0.61,0 -1.52,-0.308 -3.04,-0.308 -1.22,-0.61 -2.13,-0.61 -3.05,-0.61 -0.91,0 -1.82,0 -2.73,0.309 -2.14,-0.309 -4.27,-1.524 -6.4,-4.266 l -6.69,0.61 c -3.05,-1.825 -5.48,-3.348 -7.31,-4.258 l -1.22,0.301 c -2.13,-1.52 -6.09,-4.567 -11.57,-9.434 -4.56,-4.266 -8.52,-7.004 -11.87,-8.524 l -3.04,-5.785 -1.22,-0.609 c -1.21,-4.566 -2.43,-7.609 -3.96,-9.742 l 0.31,-4.258 -0.92,-1.523 c 0.31,-3.043 0,-5.176 -1.21,-6.7 l 0.91,-2.738 -2.43,-5.176 c 0,-1.824 0.3,-3.347 0.91,-4.566 -0.61,-0.91 -0.91,-2.434 -0.91,-3.957 0,-3.649 0.6,-5.477 2.13,-5.781 l 1.52,-2.743 -1.52,-3.043 19.78,-18.871 5.18,0 3.96,-4.566 c 0.91,0.609 1.52,0.91 2.12,1.219 l 0.92,-0.61 1.52,-0.914 c 1.83,0 3.35,0.606 4.57,1.524 l 6.39,-4.567 c 0.91,0.61 2.13,1.52 3.35,2.434 l 2.74,0.609 1.52,-0.91 c -0.31,-0.918 0,-1.523 0.91,-1.832 0.61,-0.301 1.83,-0.605 3.35,-1.215 1.52,-0.609 2.74,-0.91 3.65,-0.91 l 3.35,0.301 c 4.26,-1.215 7.91,-1.824 10.96,-1.524 0.91,0.309 1.83,0.309 3.04,0.309 l 4.87,2.738 3.05,-2.738 c 0.91,0.605 2.13,1.523 3.04,2.738 l 2.13,0.301 c 2.44,0 5.79,-0.605 10.35,-1.516 l 4.27,2.125 c 4.56,-0.3 7.91,-2.125 10.35,-4.867 -1.22,-3.656 -2.14,-6.39 -3.05,-8.222 0.3,-1.516 0.91,-3.04 1.52,-3.957 -1.52,-2.129 -2.13,-4.567 -2.13,-7 0,-1.524 0.3,-3.348 0.91,-5.172 -2.13,-12.789 -3.95,-25.879 -6.39,-38.6605 -3.34,-17.0469 -10.65,-26.7852 -21,-29.5274 l -16.44,-4.2617 c -8.83,2.4375 -19.48,3.6524 -31.96,3.6524 -1.52,0 -2.44,0 -2.74,-0.3047 -0.92,0.914 -2.74,1.5234 -5.78,2.4375 -2.75,0.6093 -4.57,1.5195 -5.18,2.7382 l -4.57,0.3047 -4.56,-2.4336 -1.22,-1.832 0.3,-5.1719 6.39,-7 0,-1.2187 c 1.22,-2.1289 2.44,-3.9531 3.66,-6.086 1.83,-2.7421 3.35,-3.9609 4.57,-3.9609 0.3,0 1.22,0 2.44,0.3086 0.9,0 1.82,0 2.42,0 l 1.22,-1.832 4.87,-1.2149 c 0.31,-0.9101 1.22,-1.8281 2.75,-1.8281 1.21,-0.6055 3.34,-1.5195 6.39,-3.0391 2.74,-1.5234 4.26,-2.1328 3.95,-2.1328 0.91,0 1.53,0.9141 2.14,2.4336 l 2.43,-1.8242 c 1.52,0.3047 2.43,0.9141 3.04,2.1289 0,-1.5195 0.31,-3.043 1.22,-4.5625 3.35,0.3008 7.61,-0.6094 13.09,-2.7422 3.35,1.5235 6.09,2.1328 8.83,2.1328 1.82,0 3.65,-0.6093 5.48,-1.832 l 0.91,0 c 2.74,0 5.48,1.2227 8.83,4.2656 l 2.13,0 2.44,3.9571 c 0.91,-0.9141 2.13,-0.9141 3.34,-0.6094 5.18,5.7851 8.53,10.0469 10.66,13.3906 0,1.2227 0.61,2.1328 1.82,2.4375 l 0.61,3.3516 c 3.05,1.5195 4.57,3.6523 4.57,6.0859 l -0.31,1.5195 c 2.13,1.5274 4.27,4.875 5.79,9.7422 1.52,4.5664 2.13,8.5235 2.13,11.5703 l 0,1.8243 1.52,3.0429 c -0.31,2.1328 0,4.8711 0.61,8.5235 0.31,3.3519 0.61,6.0899 0.61,7.6129 l -0.3,2.434 1.82,2.434 -0.91,3.656 c 0.91,0.91 1.52,4.258 1.82,10.043 0.31,5.781 0.91,9.437 2.13,10.961 -0.3,1.824 -0.61,3.648 -0.61,5.781 0,2.742 0.61,6.695 1.53,11.871 0.61,5.176 1.22,9.133 1.22,11.875 0,0.91 -0.31,2.125 -1.22,3.043 0.3,2.738 1.52,5.172 3.04,7.914 z m -27.7,23.137 -1.22,-1.223 -1.22,0.61 -0.61,-0.305 c -0.91,-1.215 -2.12,-1.824 -3.65,-1.824 l -0.61,0 c -0.61,-0.305 -4.25,-0.914 -11.25,-2.438 0,0 -0.92,0.305 -3.05,0.609 l -2.74,-1.828 c -2.13,0.914 -4.26,1.219 -6.39,1.219 -1.83,0 -3.35,-0.305 -4.57,-1.219 l -1.52,-2.738 -1.22,2.738 c -1.83,0.61 -9.43,1.219 -22.83,2.133 -11.56,0.61 -21.31,3.653 -29.22,8.828 l -1.83,4.567 c 0,1.828 0.92,3.957 3.04,6.39 1.83,2.434 3.05,4.262 3.36,5.481 3.95,3.652 8.82,7.304 14.61,10.351 1.21,0.606 6.39,3.348 15.82,7.914 2.13,-0.304 3.96,0 6.09,0.911 5.78,-1.52 10.05,-2.434 13.4,-2.743 1.82,-1.214 5.78,-2.734 12.17,-4.257 3.35,-0.914 7,-4.872 10.96,-11.872 1.52,-0.609 2.74,-1.523 3.65,-3.042 -0.91,-2.743 -1.82,-4.567 -2.73,-5.782 l 0.3,-1.222 1.22,-1.52 0,-0.914 c -1.22,-1.219 -2.44,-2.133 -3.96,-2.742 l -0.31,-0.91 0,-0.61 2.75,-2.129 0.6,0 2.13,0.911 1.52,-1.52 c 1.53,-0.309 3.05,-0.609 4.57,-1.219 l 1.52,0.91 1.22,-1.515"
         style="fill:#023252;fill-opacity:1;fill-rule:evenodd;stroke:none"
         id="path68"
         inkscape:connector-curvature="0" /><path
         d="m 2476.59,37.6445 -0.91,-2.7422 -0.3,2.1329 0.6,0.914 0.61,-0.3047 z m -82.19,10.0469 -0.61,-0.6094 -0.6,0 0.3,1.2188 0.91,0 0,-0.6094 z m 85.84,121.7576 -0.3,-1.824 8.83,-5.48 c 0.3,-2.434 3.04,-3.653 8.52,-3.653 1.52,0 2.43,0.61 3.35,2.133 l 3.65,-3.656 0.61,0 c 1.52,0 3.05,0.914 4.57,3.043 l 1.21,-2.129 5.18,0 1.52,0.609 1.83,-0.914 6.39,0 c 0.3,1.824 2.43,3.047 6.09,3.957 4.56,1.215 7,2.129 7.92,2.738 l 0.9,-1.214 c 2.13,1.214 4.27,2.433 6.7,3.957 2.43,1.214 4.57,1.824 6.09,1.824 l 1.52,-2.434 c -0.91,-2.742 -1.22,-5.172 -1.22,-7.613 0,-3.348 0.92,-6.086 2.44,-8.523 l -1.22,-4.563 c 0.91,-6.394 0.91,-13.394 0.91,-21.008 l 0,-6.996 0.61,-1.219 c 0,-3.347 0.31,-8.828 1.22,-15.828 0.92,-6.9997 1.22,-12.4802 1.22,-16.1326 0,-1.2226 -0.3,-2.4375 -0.61,-3.3476 1.52,-5.7891 2.13,-8.832 2.13,-8.832 0,-12.7813 -10.96,-21.3047 -32.87,-25.8711 -6.09,-1.2188 -12.18,-2.7383 -18.57,-4.2618 -7.31,-1.5234 -13.4,-2.4336 -18.57,-2.4336 l -12.18,0 -0.91,0.3008 0.3,0 c -1.52,0.9141 -2.74,1.2149 -3.96,1.2149 -1.51,0 -2.43,-0.3008 -3.34,-0.9102 -17.96,1.2188 -31.66,2.1328 -40.79,2.7422 l -4.87,-2.7422 -0.31,0.6094 3.66,0.9141 c -2.14,2.1289 -7,3.3476 -14.62,3.3476 l -8.52,3.3477 c 0,1.8281 -0.91,2.7382 -3.04,2.7382 l -0.92,0 c -1.52,1.5235 -3.95,3.043 -7.91,5.1758 -3.96,2.1328 -6.09,3.6563 -6.7,4.5664 -1.22,-0.3007 -1.82,-1.5195 -2.13,-3.0429 l 2.74,-4.2657 c -0.91,-3.957 0.61,-6.9961 3.96,-9.1289 l 1.22,0.6094 -1.52,-2.7383 c 2.74,-4.2656 4.87,-8.2187 5.78,-11.5703 1.22,-0.3008 3.35,-1.8242 6.7,-4.5664 2.43,-2.1328 4.87,-3.0391 7,-3.0391 l 1.21,0.3008 c 3.35,-3.3476 5.79,-4.8672 7.31,-4.8672 0,0 0.61,0.3008 2.13,0.6055 l 4.87,-3.6523 2.44,0.6054 c 4.56,-1.5156 7.61,-2.4336 8.82,-3.0429 1.22,0 2.44,0.3086 3.66,0.9179 10.34,-2.1328 18.57,-3.6562 24.96,-3.957 1.22,0 4.26,0 8.82,0.3008 3.66,0.3047 6.7,0 8.83,-0.60939 l 5.79,1.52339 2.43,-1.2148 5.18,0.3008 -0.31,0 c 7,-0.60939 16.44,0.6094 28.92,3.6562 13.39,3.3477 22.22,5.1719 26.79,5.1719 l 0.61,-0.6055 8.82,4.2579 2.44,-0.6094 c 5.78,1.5234 11.26,6.0898 16.13,13.6992 4.87,7.3047 7.31,14.0039 7.31,20.3945 0,2.4375 -0.3,4.5664 -1.22,6.3907 l 1.22,6.0898 -0.91,1.8281 0.91,2.4375 c -1.52,4.5625 -2.14,10.6485 -2.14,18.8711 0,9.4372 -0.3,15.8282 -0.9,19.1762 l -0.31,0 c -0.3,5.175 -0.3,9.132 -0.3,12.175 0,3.957 0.3,6.391 0.61,7.305 l -0.92,0.918 -0.3,3.043 c 0,2.129 0.3,3.648 1.22,4.563 l -1.22,4.566 0.91,2.133 c -1.22,2.133 -1.83,7 -1.83,15.222 0,6.692 0.61,10.649 1.83,11.871 l -0.61,6.997 2.44,3.351 c -1.52,1.219 -2.13,3.652 -2.13,7 0,2.434 0.3,3.957 1.21,4.871 l 0.3,3.653 c 0,1.214 -0.3,2.433 -0.6,3.957 l 2.44,3.957 -0.92,1.523 c 0.92,3.348 1.52,6.086 2.13,7.609 l -0.61,2.739 c 2.14,4.566 3.35,14.004 3.35,28.312 0,0.301 -0.31,1.215 -0.61,2.129 -0.3,0.91 -0.6,1.828 -0.6,2.738 l 0,0.305 c -0.62,0.91 -2.14,3.043 -4.58,5.785 -2.12,2.129 -3.34,4.262 -3.65,6.086 -2.43,0.305 -3.95,1.219 -4.87,3.043 l -9.74,-5.781 -2.43,-7 0.31,-4.566 c -0.92,-1.219 -2.44,-5.786 -3.96,-13.704 -1.52,-7.605 -2.44,-12.781 -2.44,-15.519 -2.44,-3.352 -4.87,-6.699 -7.31,-9.742 -3.65,-4.567 -7,-6.7 -9.13,-6.391 l -0.91,0 -0.91,-1.523 c 0,-3.043 -4.87,-5.782 -14.92,-8.524 -8.22,-2.133 -14.91,-3.351 -19.79,-3.351 -0.91,0 -2.74,0.308 -5.17,0.918 -2.43,0.3 -4.26,0.609 -5.48,0.3 l -1.22,0 0.31,1.219 -1.53,7.305 c 0.31,0.609 0.92,7.308 1.83,19.789 0.92,12.48 1.52,19.48 1.52,21.609 2.14,5.785 3.65,10.957 4.26,16.137 l -2.73,8.215 -4.57,2.742 -1.83,5.785 -3.35,2.43 c -0.61,0 -1.52,0 -2.73,0 -1.22,0.308 -2.13,0.308 -2.44,0.308 -5.48,0 -10.04,-10.046 -12.48,-29.832 -1.52,-12.785 -2.44,-25.57 -3.65,-38.66 l 0.91,-1.215 c 0,-5.175 -0.3,-8.828 -0.61,-10.351 l 3.05,-5.481 -1.22,-3.648 3.35,-3.957 c 1.22,-10.051 4.26,-15.223 8.82,-15.223"
         style="fill:#023252;fill-opacity:1;fill-rule:evenodd;stroke:none"
         id="path70"
         inkscape:connector-curvature="0" /><path
         d="m 2675.88,271.117 c -0.92,-4.867 -1.83,-8.824 -3.35,-11.871 l -1.22,0 -4.26,2.742 -1.21,2.434 -3.66,2.437 -4.57,-2.132 -3.65,2.433 -5.48,-3.347 c -0.6,0.304 -1.21,0.304 -1.82,0.304 -3.66,0 -10.05,-3.652 -18.87,-10.652 l -1.23,-3.352 -3.95,-0.3 -1.52,-4.262 -4.88,-3.352 -0.6,0 c -2.74,-3.648 -5.79,-7.304 -8.53,-10.652 -3.04,-4.567 -4.56,-8.828 -4.56,-12.481 l 0,-1.519 c -3.35,-6.699 -5.18,-13.699 -5.18,-21.313 0,-11.261 5.18,-26.48 15.53,-45.964 12.78,-3.957 22.22,-7.305 28.31,-10.04 l 3.34,1.215 2.14,-2.132 3.04,-0.305 1.22,2.437 1.22,0 c 2.73,-2.742 7,-4.261 12.17,-4.261 4.57,0 8.22,1.214 10.65,3.953 2.75,-1.516 6.09,-2.129 9.44,-2.129 1.83,0 3.65,0.305 5.79,0.613 l 1.52,2.734 0.91,0.309 7.92,-3.656 5.47,1.523 2.44,3.047 c 9.74,0.91 17.66,3.953 23.74,8.524 l 2.13,-0.309 4.27,2.434 1.21,-0.301 c 6.4,6.086 11.57,9.433 14.92,9.738 0.3,1.527 1.21,3.352 3.35,5.785 2.13,2.434 3.04,4.266 3.04,5.781 l 0,0.918 c 2.74,4.258 3.96,10.348 3.96,17.957 0,6.395 -0.91,12.176 -2.74,17.352 l -2.74,0.914 2.13,2.434 c -3.04,8.828 -5.48,15.523 -7.61,19.789 -2.13,2.129 -5.48,6.695 -10.05,12.781 -4.26,5.781 -7.91,9.738 -10.65,12.18 l -3.95,0.605 c -4.57,4.871 -11.57,9.133 -21.32,12.481 -11.87,3.961 -19.48,7.308 -22.82,9.742 l -1.83,-1.219 -3.05,2.742 -3.95,-7.304 -2.13,-0.918 -0.92,-3.043 2.44,-1.524 z m 50.83,-45.656 c 0.61,-2.438 3.05,-6.699 7.92,-12.18 3.96,-4.867 6.08,-9.133 6.08,-13.09 0,-5.476 -7.6,-10.347 -22.52,-14.304 -7.61,-2.133 -15.53,-3.653 -23.14,-5.481 -6.39,-0.91 -11.26,-1.519 -14.3,-2.433 l -1.21,0.914 c -5.79,-1.215 -9.75,-1.832 -12.18,-1.832 l -2.13,0.308 -1.83,0.914 c -2.13,-0.304 -3.96,0 -6.09,1.219 -7,0 -12.48,0.91 -17.04,2.434 l -3.05,-0.914 c -9.43,2.738 -14,5.785 -14,8.523 0,0.914 0,2.129 0.3,3.957 0.31,1.524 0.31,2.738 0.31,3.656 5.78,6.391 9.43,11.262 11.56,15.219 3.96,0.609 8.22,3.957 13.4,10.348 l 0.91,0.304 2.44,-1.218 c 1.82,0.609 3.95,1.828 6.08,3.656 l 5.18,-0.609 c 1.52,-3.047 3.35,-5.176 5.78,-6.696 l 4.87,2.129 c 0.91,1.52 3.04,2.129 6.39,2.434 l 0.61,1.523 c -0.91,1.219 -1.51,2.438 -1.51,3.653 0,0.609 0,1.218 0.3,1.824 l -1.22,2.441 2.13,5.172 c -2.13,5.785 -3.66,10.043 -4.57,13.09 l 0.31,1.519 0.91,0.606 1.53,-1.824 0,-1.215 1.51,-1.828 c 7.31,-1.524 12.79,-2.739 16.44,-3.047 1.52,-0.606 4.57,-2.735 9.44,-6.391 3.65,-2.738 7,-4.258 10.05,-4.566 3.34,-3.649 6.69,-6.391 10.34,-8.215"
         style="fill:#023252;fill-opacity:1;fill-rule:evenodd;stroke:none"
         id="path72"
         inkscape:connector-curvature="0" /><path
         d="m 2914.49,232.766 c 0,0.609 -0.3,1.828 -0.91,3.343 -0.31,1.528 -0.61,2.743 -0.61,3.657 l 0.3,1.523 c -1.52,1.828 -2.13,5.176 -2.13,9.742 -1.21,0.91 -1.82,2.739 -1.82,5.782 l -1.22,1.824 c -2.14,0.609 -3.96,2.433 -5.78,5.48 0.3,2.133 0.61,4.567 0.3,7.918 l -1.83,0.91 -3.95,7.004 -3.05,1.215 -2.74,6.395 -3.96,1.214 -3.34,-3.652 2.43,-3.957 c -2.13,-5.172 -3.04,-10.957 -3.04,-17.351 0,-3.958 0,-6.7 0.31,-8.219 1.51,-6.086 2.43,-11.262 2.43,-15.219 1.82,-3.348 2.74,-5.781 2.74,-6.699 0,-1.215 0,-3.043 -0.31,-5.477 -0.3,-2.129 -0.3,-3.957 -0.3,-5.176 0,-6.394 -5.17,-14.308 -15.22,-23.742 -10.05,-9.437 -18.27,-14.308 -24.66,-14.308 l -2.13,0.304 -0.61,-0.914 c -5.78,-0.91 -10.35,-1.824 -13.69,-3.347 -6.4,0.304 -11.27,-0.305 -14.62,-1.828 -5.78,2.441 -10.65,3.656 -14,3.656 l -0.91,2.129 c 0.91,4.261 1.83,7.304 2.43,9.437 l -0.3,0.61 c 1.52,4.566 2.43,6.699 2.74,7 0.6,2.738 0.91,3.957 0.91,4.261 3.35,6.699 4.87,10.957 4.87,12.785 0,3.957 0.61,6.086 1.52,7.004 0.31,3.957 0.31,5.782 0.31,6.09 0,3.344 -0.61,5.781 -2.13,7.606 l 0.91,2.433 c -1.83,6.395 -6.39,11.875 -14,16.438 l -3.96,0 c -2.43,-4.258 -4.87,-8.524 -7.31,-12.782 -3.04,-5.48 -4.87,-9.746 -5.48,-13.089 -0.3,-3.348 -1.52,-6.086 -3.34,-8.219 l 0.91,-3.652 c -0.61,-1.219 -1.22,-2.739 -1.52,-4.567 l 0.91,-2.738 -3.04,-5.176 0.91,-2.742 c -3.35,-7.609 -5.17,-13.695 -5.17,-18.567 0,-1.218 0,-2.433 0.3,-3.351 l -1.22,-2.738 c 1.53,-8.825 2.44,-13.09 2.44,-13.391 0,-5.48 3.96,-11.566 11.57,-17.965 7,-6.082 13.69,-9.43 19.48,-10.347 l 1.22,-1.524 c 2.12,-0.301 4.26,-0.91 6.08,-1.824 l 0.92,3.043 0.91,0.305 5.78,-2.739 2.44,2.434 0.91,0 1.52,-1.52 4.27,-0.304 3.04,-1.829 c 0.91,0.61 2.13,1.524 3.65,3.043 3.05,-0.609 6.39,0 9.74,1.832 l 2.44,-0.609 c 6.69,2.125 11.87,3.649 15.22,4.563 0.91,-0.305 1.83,-0.606 3.35,-0.606 1.21,1.52 3.04,3.043 5.78,4.258 0.91,0.309 3.04,1.219 6.7,2.742 1.51,4.258 3.35,6.391 5.48,6.391 l 0.3,0 3.96,7.304 0.91,-0.304 c 0.61,-0.91 1.22,-1.824 1.83,-2.129 l 3.04,2.742 1.52,-0.613 c 3.65,4.566 6.4,7.914 7.92,10.351 -0.31,6.391 0.61,10.352 2.43,11.262 l 1.53,-0.305 1.82,4.262 c -0.61,1.52 -0.91,3.047 -1.21,4.566 l 1.82,0.915 0.91,1.523 c 2.13,3.648 3.35,7.605 3.35,11.871 l -0.91,1.219 c 0.91,0.91 1.52,3.347 1.52,6.695 0,6.391 -0.3,11.567 -1.22,15.219 l 0.61,1.219"
         style="fill:#023252;fill-opacity:1;fill-rule:nonzero;stroke:none"
         id="path74"
         inkscape:connector-curvature="0" /><path
         d="m 3023.43,277.207 c -6.09,-0.914 -9.43,-1.215 -9.74,-1.215 l -2.44,-0.609 -1.52,0.91 c -1.21,0 -2.73,-0.609 -4.26,-2.133 -5.17,1.223 -9.43,1.223 -12.78,0.309 l -1.22,-1.524 c -3.34,-0.91 -5.79,-1.828 -7.31,-2.433 l -1.82,-2.434 -2.13,0.606 c -3.96,-6.391 -6.4,-9.438 -7.92,-9.739 -2.74,-11.57 -5.17,-20.394 -7.3,-26.785 l 0.3,-0.918 c -1.83,-4.562 -2.74,-8.828 -2.74,-12.48 l -1.52,-1.215 c 0.3,-3.656 -0.31,-6.391 -1.52,-7.914 l 2.13,-0.61 c -0.92,0.911 -0.92,2.133 -0.61,3.348 l -2.13,3.957 1.22,5.477 -1.22,2.742 c 0.61,1.523 1.52,2.738 2.43,3.957 -1.52,5.172 -2.73,9.133 -3.35,11.871 -2.73,3.957 -3.95,6.699 -3.95,7.609 l 0.3,1.219 c -2.13,5.477 -3.04,9.434 -3.04,12.176 l 0,0.609 -0.91,0.61 -4.57,12.48 -1.83,1.215 c -1.82,4.566 -4.56,7.613 -7.91,9.437 -2.13,-0.914 -3.96,-3.656 -6.09,-7.613 -2.13,-3.957 -3.04,-7.301 -3.04,-10.039 0,-4.566 1.52,-11.57 4.26,-21.004 2.74,-9.437 3.95,-16.441 3.95,-21.312 l 2.44,-2.739 c -0.3,-3.043 -0.3,-5.175 0.3,-6.695 l -0.91,-3.348 c 1.22,-0.609 1.83,-1.824 1.83,-3.957 0,-9.437 3.96,-30.441 11.57,-63.316 0.91,-0.305 1.82,-0.609 2.13,-1.523 0,-2.129 0.61,-4.262 1.82,-6.395 1.22,-2.125 2.44,-3.957 3.65,-5.781 l 2.14,0.609 3.04,-0.609 c 7.92,2.742 12.48,10.047 14,21.918 l -2.13,2.133 0,0.91 -0.61,-0.91 2.13,-1.832 2.13,3.046 c -1.52,1.829 -2.73,3.653 -3.65,5.786 l 0.92,1.523 c 1.52,9.434 2.43,14.606 2.73,15.215 -0.6,3.047 0,5.785 1.83,8.523 0,3.047 0.92,7.614 3.04,13.399 2.13,5.781 3.05,10.347 3.05,13.39 0,0 -0.31,0.914 -0.61,2.739 l 0.61,2.132 c 0.61,0.915 1.53,1.825 2.44,2.739 l 0.3,3.652 7.91,9.438 c 2.74,0.3 5.79,0.914 8.53,2.433 l 1.82,-0.605 0.92,1.519 2.73,0.914 4.27,-0.914 1.52,0.61 2.13,-1.524 1.83,0 c 0.91,0.914 2.13,1.219 3.65,1.219 0.91,0 2.43,-0.305 4.56,-0.305 2.14,-0.605 3.66,-0.605 4.87,-0.605 l 3.66,-2.742 1.82,2.132 c 4.27,-1.523 7.92,-2.437 10.66,-3.347 0.61,-1.219 2.13,-1.828 4.57,-2.133 2.43,-0.301 4.25,-1.523 5.17,-3.957 l 4.56,2.129 0.61,0.914 2.75,0.613 c 0.91,3.649 1.52,6.692 1.52,8.824 0,5.172 -0.92,9.129 -3.05,11.563 0.31,3.047 -1.22,6.09 -4.26,8.832 -2.74,2.133 -5.48,3.957 -8.22,6.09 -2.13,0.301 -3.96,1.215 -5.48,2.125 l -1.21,-0.301 -5.79,3.348 c -2.43,0.304 -4.57,0.304 -6.39,0.304 l -1.82,1.215 c -4.57,0.918 -7.62,2.133 -9.75,3.047"
         style="fill:#023252;fill-opacity:1;fill-rule:evenodd;stroke:none"
         id="path76"
         inkscape:connector-curvature="0" /><path
         d="m 3310.18,347 c 1.31,1.645 1.96,5.91 1.96,12.141 0,2.953 -0.33,6.558 -1.31,10.5 0.66,1.64 0.98,3.609 0.98,5.906 0,5.246 -1.96,11.156 -5.58,17.387 -3.6,6.23 -7.54,10.496 -11.8,13.121 l -4.27,0.656 -2.62,-0.656 c -2.95,-2.625 -4.27,-7.871 -4.27,-15.746 l -1.96,-2.629 0.98,-3.934 -2.3,-6.887 c 1.32,-3.609 1.32,-5.91 0.33,-7.218 -0.33,-2.625 -0.66,-5.25 -0.66,-7.547 0,-3.61 0.66,-7.219 1.65,-10.172 l -1.32,-3.934 1.32,-7.218 -1.98,-3.286 0.66,-2.949 c -0.33,-1.64 -0.98,-3.609 -1.97,-5.582 0,-0.324 -0.65,-3.933 -1.63,-10.82 l 0.98,-1.969 c -2.96,-3.609 -4.27,-10.504 -4.27,-20.016 l 0.65,-1.64 c -2.95,-8.531 -4.59,-15.418 -4.59,-20.34 0,-1.313 0.33,-2.953 0.99,-4.594 l -1.31,-2.949 c 0,-14.437 -0.98,-24.281 -3.28,-29.855 0.32,-1.313 0,-5.579 -0.99,-13.129 -1.31,-8.2 -1.97,-13.121 -1.97,-14.762 0,-4.266 0.66,-11.152 1.97,-20.008 0.99,-8.863 1.64,-15.426 1.64,-20.016 0,-3.941 -0.98,-6.886 -3.28,-8.531 l 3.94,-5.25 -0.66,-2.625 c 0.66,-2.953 2.3,-5.906 4.92,-8.855 l 0,-1.973 4.27,-5.578 6.23,-2.289 c 1.64,0.652 3.94,0.324 6.57,-1.316 2.29,0.328 4.91,2.953 7.87,7.218 2.62,4.262 4.26,7.543 4.59,10.496 l -1.64,3.286 c 0.33,2.621 0.66,6.554 0.66,11.476 0,5.582 -0.66,9.188 -1.64,10.828 0.98,6.891 1.64,14.766 1.64,24.281 0,8.856 -0.33,18.696 -1.32,29.528 l -0.98,0.328 c 2.3,4.59 3.61,10.824 3.61,19.031 0,1.637 0,2.621 -0.33,3.606 l 2.3,2.293 0.33,0.656 c 0,1.644 -0.99,2.629 -2.96,2.953 2.96,6.891 4.6,14.105 4.6,21.656 0,2.949 -0.33,5.903 -0.66,8.856 l 2.3,3.613 c -0.99,1.965 -1.64,3.934 -1.32,5.574 l 0,2.297 2.96,4.59 c 0,0.988 0.33,1.973 0.65,3.613 0.33,1.641 0.66,2.621 0.66,3.281 l 0,5.579 -0.98,1.636 c 1.31,4.598 1.96,8.86 1.96,12.797 0,0.985 0,1.965 -0.32,2.625 l 1.31,10.172 -1.31,2.293"
         style="fill:#023252;fill-opacity:1;fill-rule:nonzero;stroke:none"
         id="path78"
         inkscape:connector-curvature="0" /><path
         d="m 3595.88,345.691 c 5.58,3.61 8.85,6.559 9.84,8.532 0.99,1.636 1.64,5.898 1.64,12.136 0,0 -0.33,0.657 -0.65,1.969 l -4.27,2.953 c 1.97,4.59 3.61,7.871 4.92,10.168 l -3.28,1.313 c -0.98,0 -1.97,0.328 -2.62,0.984 l -3.62,0.328 -2.62,2.297 -2.62,-0.328 c -1.31,1.637 -3.28,2.297 -5.58,2.297 -3.28,0 -5.58,-0.328 -6.56,-0.985 l -0.99,2.297 c -4.92,1.641 -9.18,2.293 -12.46,2.293 -0.99,0 -1.64,0 -2.3,-0.324 l -2.62,1.637 -1.97,-0.981 c -0.99,0 -1.64,0.325 -2.63,1.313 -2.62,0 -6.56,0.328 -11.81,1.312 -5.25,0.985 -9.18,1.309 -11.81,1.309 -1.64,0 -2.95,-0.324 -4.26,-0.656 l -0.66,1.312 -4.92,0.656 -3.94,-1.968 -1.31,1.312 c -2.96,1.317 -5.58,1.973 -7.55,1.973 -1.64,0 -2.62,-0.328 -3.6,-1.317 -5.58,1.641 -10.18,2.629 -13.13,2.629 -2.62,0 -4.27,-0.656 -5.25,-1.968 l -3.94,1.968 c -6.88,0 -11.81,0 -14.1,-0.332 l -1.97,-1.308 c -1.31,0 -2.95,0.984 -4.59,2.621 -2.63,0 -6.24,0 -10.51,0.332 -4.92,0.324 -8.52,0.656 -10.49,0.656 -0.66,0 -1.97,-0.656 -3.61,-1.969 l -5.25,0.981 -6.56,-1.313 -1.31,1.645 -4.6,-1.645 -6.55,1.969 c -5.26,-1.312 -11.16,-1.969 -17.4,-1.637 -0.98,-0.332 -3.6,-0.656 -8.53,-0.656 -3.93,0 -6.55,-0.656 -7.54,-1.641 l -4.27,1.641 -3.93,-2.297 c -2.3,0.324 -5.91,0.324 -10.5,-0.656 -5.25,-0.988 -8.86,-1.641 -10.5,-1.641 -8.2,-3.281 -12.47,-4.922 -12.8,-4.922 -0.32,-1.64 -2.29,-5.25 -5.24,-10.828 -2.63,-4.589 -3.61,-8.203 -3.61,-11.156 l 0,-0.652 c -1.31,-0.985 -2.3,-1.969 -3.28,-3.61 l 1.31,-1.64 1.97,-0.653 1.64,3.278 1.97,-0.656 c -1.65,-2.297 -2.63,-4.594 -3.29,-6.563 0.99,-0.988 1.98,-1.969 3.61,-2.625 0.66,-0.328 1.64,-0.984 2.63,-1.641 l 1.64,-1.968 c 1.31,0.656 2.62,1.312 3.6,2.3 l 0.66,-1.316 c 1.31,0.328 3.29,0 5.58,-0.984 1.97,0.984 3.94,1.644 5.9,1.968 l 2.31,2.954 3.6,-0.985 c 4.59,0.985 7.88,1.641 10.17,2.297 3.61,-0.988 5.91,-1.312 6.89,-1.312 0.98,0 1.64,0.324 1.97,1.312 9.19,0.984 15.75,0.984 20.01,0.984 l 3.61,0 c 6.24,0.985 11.82,1.637 16.41,1.637 l 2.95,-1.965 1.64,0.985 c 0.66,0 1.31,-0.328 1.64,-1.309 11.16,-0.332 17.39,-0.332 19.03,0 l 2.29,-0.988 0.66,0 2.63,1.312 c 4.59,0 8.53,0.328 11.48,0.985 l 2.62,-0.985 c 0.66,0.985 1.64,1.965 2.63,2.621 4.26,-0.98 7.22,-1.964 9.18,-2.621 l 2.96,1.313 c 14.11,-2.293 26.57,-3.61 38.06,-3.61 4.92,0 8.19,0.329 9.51,0.985 l 2.63,-1.641 c 1.3,0.985 2.62,1.309 3.93,1.309 l 1.64,-0.324 c 1.64,-1.641 4.27,-2.622 7.22,-2.622 0.98,0 1.97,0 3.28,0.325 l 2.95,-1.641 2.96,0.984 c 7.21,-2.621 13.45,-3.609 18.37,-3.277 l 4.26,0.324 c 2.3,-1.636 4.59,-2.293 6.89,-2.293 0.99,0 1.64,0 2.62,0.325 2.3,-1.641 5.58,-2.622 10.18,-2.622 l 1.31,0 z M 3477.44,133.09 c 4.92,2.301 7.55,4.265 7.87,5.91 1.98,10.828 3.62,19.355 4.6,24.934 0.66,5.578 1.31,8.855 0.98,9.511 l -2.29,7.219 c 0.65,0.988 0.65,4.594 0,10.828 -0.66,7.875 -0.99,11.809 -0.99,12.141 0,1.637 0.33,3.277 0.66,4.922 l -0.98,1.965 c 0,0.988 0,2.625 -0.33,4.921 -0.33,1.969 -0.33,3.61 -0.33,4.59 0,4.926 0.98,12.141 2.62,21.985 1.32,9.839 2.3,17.39 2.3,22.964 0,3.614 -0.33,6.891 -0.66,10.5 l 0.66,1.313 c -0.98,5.574 -0.66,10.496 0.33,14.762 l -1.31,3.285 c 0.32,12.465 0.65,24.273 0.32,35.758 l -0.98,1.312 c 0.32,3.281 0.66,5.906 0.98,7.547 -1.64,5.578 -2.95,10.5 -4.26,14.109 l -4.59,1.309 -1.65,-0.652 -1.64,0.652 c -4.59,-1.309 -6.89,-4.918 -6.89,-10.496 0,-2.297 0,-3.941 0.33,-4.266 -3.6,-3.609 -6.56,-7.55 -8.53,-11.484 l 0.33,-1.641 -3.28,-5.902 c 0.33,-2.629 0,-8.207 -0.98,-17.063 -0.66,-5.574 -1.32,-11.48 -1.98,-17.39 l 1.98,-3.61 c -0.99,-14.105 -1.32,-23.293 -1.32,-27.558 0,-1.637 0.33,-3.277 0.66,-4.266 l -2.95,-23.617 c -0.33,-1.641 0,-4.922 0.66,-10.5 0.32,-4.262 0,-7.875 -1.32,-10.828 l 1.32,-4.266 -0.99,-2.297 0.66,-3.277 -0.99,-2.953 c -0.98,-0.656 -1.64,-1.645 -1.64,-2.953 l 2.63,-6.235 c -0.99,-3.609 -1.32,-9.511 -0.66,-17.386 0.33,-7.547 0.33,-13.449 -0.66,-17.059 1.65,-2.301 2.3,-4.598 2.3,-7.219 0.32,-4.921 0.98,-7.546 1.31,-8.203 0.99,-1.316 3.94,-2.297 9.51,-2.953 1.64,1.637 3.29,0.985 4.93,-1.965 l 2.62,1.637 c -0.33,1.641 -0.33,2.953 0,3.938 0.66,-0.329 1.31,-0.985 1.64,-1.973"
         style="fill:#023252;fill-opacity:1;fill-rule:evenodd;stroke:none"
         id="path80"
         inkscape:connector-curvature="0" /><path
         d="m 3635.34,362.133 0,0.918 c -1.22,1.523 -2.74,2.433 -4.57,2.433 -1.82,0.606 -3.04,1.215 -3.35,2.739 l 0,2.742 c -1.82,2.129 -3.65,3.648 -5.17,3.957 -3.35,6.09 -6.09,9.129 -8.22,9.129 -1.52,0 -3.05,-0.914 -5.18,-2.434 -2.13,-1.523 -3.65,-2.129 -4.87,-2.437 -0.91,-1.52 -2.13,-2.735 -3.34,-3.957 0.6,-1.215 0.91,-2.735 0.91,-4.868 -1.52,-0.917 -2.74,-1.218 -3.66,-1.523 -0.91,-5.176 -1.82,-8.824 -2.73,-10.352 l 1.22,-1.824 -0.62,-2.129 c 1.53,-3.351 2.44,-5.785 2.74,-7.609 -0.3,-2.441 0.31,-4.566 2.14,-6.395 1.52,-1.828 2.74,-3.351 3.04,-4.871 l 2.44,-0.914 1.52,0.61 4.26,-2.133 4.26,3.047 c 2.74,-0.61 4.87,-0.914 6.39,-0.914 3.05,0 6.09,3.047 9.44,8.828 l -1.83,1.219 -0.91,2.433 c 0.91,0.914 2.13,2.133 3.65,3.656 0.3,2.125 0.3,5.172 0.3,9.129 l 2.14,1.52 z m -3.66,-94.973 c -1.82,0.309 -3.34,0.918 -4.86,2.133 0.91,5.176 0,8.215 -3.05,9.133 -0.91,0.914 -1.52,1.824 -1.82,2.738 -7.31,4.566 -11.88,7.004 -14.01,7.309 -4.56,-1.524 -6.7,-9.743 -6.7,-24.66 0,-3.043 -0.91,-12.481 -3.04,-28.614 -2.13,-15.828 -3.35,-25.875 -4.26,-29.832 l 0.91,-1.519 -0.91,-4.567 c 0.3,-1.218 0.61,-2.129 1.22,-3.047 -0.61,-1.519 -1.52,-3.347 -2.74,-5.175 0,-3.348 -0.92,-5.782 -2.44,-7.911 -0.91,-5.175 -1.22,-8.527 -1.22,-10.043 0,-2.742 0.92,-7.007 2.44,-12.789 1.52,-5.48 2.44,-9.738 2.44,-12.785 2.12,-1.519 4.25,-2.738 5.78,-3.043 1.22,0.61 3.35,0.305 6.09,-1.218 3.34,0.914 6.69,4.261 10.04,10.046 3.35,5.786 5.48,10.653 6.09,14.61 1.52,1.523 2.74,4.871 4.26,10.351 1.22,4.871 2.13,8.524 2.13,11.262 0,7.305 0,10.352 -0.3,9.137 0.3,2.125 1.52,4.867 3.95,8.215 -1.21,6.089 -1.21,10.047 0,12.175 -0.3,5.176 0.92,14.918 3.05,29.223 -3.05,7 -4.57,11.266 -4.57,12.781 0,0.309 0.61,2.133 1.52,6.09"
         style="fill:#023252;fill-opacity:1;fill-rule:evenodd;stroke:none"
         id="path82"
         inkscape:connector-curvature="0" /><path
         d="m 3820.04,206.281 c 2.74,3.043 4.26,9.442 4.57,18.871 -0.31,-7.304 -0.31,-1.214 -0.31,18.266 -0.91,2.738 -1.82,4.871 -2.74,7.004 l 0.92,2.433 c -0.31,1.524 -1.22,2.739 -2.44,3.653 0.61,4.562 -0.61,10.043 -3.65,15.828 -2.75,5.781 -4.26,9.437 -4.26,11.262 -0.92,0.308 -1.52,1.218 -1.83,2.132 l 0.31,1.219 c -2.14,5.781 -6.09,12.781 -11.88,20.395 -1.82,-0.61 -3.35,-0.309 -4.26,1.215 l -0.61,-0.606 c 0,-1.828 -0.3,-3.043 -0.91,-3.652 -2.74,-0.305 -4.87,-1.223 -6.4,-2.738 l 0.31,-1.219 -2.43,-3.656 1.82,-1.524 c -2.13,-1.824 -3.65,-4.258 -4.26,-7.605 1.83,-0.918 3.05,-2.743 3.35,-5.485 l -2.13,-6.39 1.52,-2.129 3.04,1.828 c 0.61,-0.914 1.22,-1.828 1.53,-3.047 0.91,-0.301 1.52,-0.91 2.13,-1.824 l -0.91,-2.742 1.51,-1.825 c 2.13,-6.39 3.66,-11.265 4.88,-14.304 l -0.61,-1.219 3.04,-16.746 c -1.21,-2.434 -1.83,-4.867 -1.83,-7.606 0,-2.437 0.31,-4.875 1.22,-7.308 -4.87,-9.438 -8.52,-15.219 -10.65,-17.352 -2.13,-2.129 -7.92,-5.781 -17.35,-10.957 -2.44,0.606 -5.18,0.606 -7.92,-0.301 -0.91,0.301 -3.35,0.907 -6.7,2.434 -3.34,1.215 -5.17,1.824 -5.78,1.824 0,0 -1.52,0 -4.26,-0.305 -3.96,2.739 -7.61,4.262 -10.65,5.176 -2.13,-0.304 -7.01,1.828 -15.22,6.391 l -2.44,0.305 -1.22,1.222 0.31,1.824 c -2.44,0.911 -5.48,3.957 -8.83,9.434 -3.35,5.176 -6.09,8.523 -7.92,9.742 -3.95,8.219 -10.35,16.434 -19.78,24.047 l -1.83,0 c -2.13,-1.523 -4.56,-5.48 -7.3,-11.562 -1.83,-4.266 -3.65,-8.832 -5.79,-13.399 0.61,-3.957 -0.3,-6.09 -2.73,-7 -3.66,-10.047 -5.48,-17.961 -5.48,-23.133 l 0,-0.609 1.82,-3.047 c -1.82,-6.391 -3.35,-10.957 -4.56,-14 0.6,-2.133 0.6,-4.266 0,-7.004 1.52,-2.129 2.13,-4.262 2.13,-6.394 l 0.91,-2.129 -1.52,-5.477 1.52,-2.433 c -0.3,-1.223 -0.3,-2.743 0.3,-4.266 0.92,-2.133 1.22,-3.648 1.53,-3.957 5.78,-2.434 9.13,-3.652 9.43,-3.652 0,0 1.21,0.304 3.96,0.609 3.35,3.961 6.09,9.133 8.22,15.832 2.74,8.824 4.57,14.605 5.48,16.738 0.3,5.176 0.3,9.742 0.61,13.09 l 1.52,1.824 3.04,0.914 2.44,-2.738 c -0.31,-2.133 2.74,-5.781 8.82,-10.957 5.18,-4.266 9.44,-7.305 12.79,-9.437 0.91,0.304 1.83,0 3.04,-0.914 0.92,-0.915 1.83,-1.219 2.44,-1.52 l 6.09,-4.566 c 5.78,-0.914 10.34,-1.825 13.09,-2.743 1.52,0.918 2.43,0.309 2.74,-1.824 9.74,-2.433 15.22,-3.957 16.13,-4.566 4.87,-0.914 8.52,-1.524 10.96,-2.438 l 1.22,0 1.21,2.739 1.22,-1.825 2.43,0 c 2.14,-0.3 4.57,0.305 7.01,1.825 2.13,1.218 3.96,1.832 5.17,1.523 5.48,2.742 11.57,7.914 17.96,14.918 7,7.914 10.66,14.305 10.66,19.484 0,3.649 0.91,5.782 2.43,6.391 l 0.61,3.348 1.83,1.828 -1.83,4.562"
         style="fill:#023252;fill-opacity:1;fill-rule:nonzero;stroke:none"
         id="path84"
         inkscape:connector-curvature="0" /><path
         d="m 3942.62,142.055 1.52,-1.825 3.65,0.301 1.53,1.824 3.04,-1.218 c 3.65,2.133 6.39,3.351 8.52,3.656 l 3.65,-3.047 7.92,-0.301 c 0,0 2.43,0.301 7,0.91 l 1.22,-0.609 2.74,0.309 c 0.91,2.738 2.13,4.566 3.96,5.476 l 1.52,-2.738 2.13,-0.305 c 0,0 2.43,0.305 7.3,1.219 l -0.91,1.215 c 0,1.523 2.74,2.437 8.22,3.348 0.3,1.218 0.91,2.132 1.82,2.742 l 2.44,-0.91 c 2.43,0.3 4.87,1.519 7,3.343 l 0,0.614 c -0.91,0.91 -1.83,1.824 -2.44,3.043 0.92,3.347 -0.3,6.089 -3.65,8.523 l 0,3.043 -5.48,4.262 c -2.13,-2.133 -3.35,-3.047 -4.26,-3.047 -0.61,0 -0.91,0.308 -1.21,0.914 l 0.6,1.824 c -3.04,0.918 -5.78,1.527 -7.91,1.828 -1.52,-1.219 -4.27,-1.828 -8.83,-1.219 -4.57,0 -7.61,0 -9.13,-0.91 -1.53,0.91 -10.65,1.52 -27.1,2.434 -14.3,0.609 -24.35,1.219 -30.13,1.219 l -3.04,0 -0.31,-0.61 -0.61,-2.433 -1.21,2.433 c -9.14,2.731 -17.05,4.246 -23.75,5.157 l -1.22,-0.301 c -11.26,1.511 -20.39,6.363 -27.39,14.547 0.61,0.91 0.91,3.64 1.22,8.187 0.3,3.637 1.52,5.762 3.95,6.664 8.83,-1.812 15.22,-3.027 19.79,-3.332 l 1.52,0.606 c 4.57,0 10.05,0.605 17.05,1.515 9.44,1.52 15.22,2.125 16.74,2.426 0.3,1.211 0.92,1.82 1.82,2.121 3.36,-0.91 11.27,0 24.36,2.125 1.52,2.727 2.43,3.938 3.35,3.938 l 0.91,0 c 7,5.757 10.65,11.214 10.65,16.066 0,5.457 -3.34,13.34 -10.34,23.078 -7.31,10.352 -14,15.524 -19.79,15.524 l -1.52,-0.606 c -4.57,2.129 -10.35,3.039 -17.65,2.738 -1.53,0.61 -2.75,0.914 -3.97,0.914 -7,0 -14.61,-1.523 -23.13,-4.261 -5.78,0.914 -13.09,-2.434 -21.31,-10.047 -10.04,-9.133 -16.44,-14.301 -19.17,-15.211 -0.61,-2.125 -2.44,-6.063 -5.48,-12.43 -2.44,-5.152 -3.96,-9.398 -3.96,-13.035 0,-10.914 0.91,-18.793 2.74,-23.949 l -2.13,-2.121 -0.31,-1.817 c 0,-2.425 0.91,-3.941 2.44,-4.855 -0.61,-1.512 -0.92,-3.027 -0.92,-4.547 0,-3.937 1.83,-6.664 5.78,-8.484 l 0.61,-3.653 3.05,-1.215 2.43,-4.265 1.83,-0.305 3.66,-5.476 1.82,-0.309 1.22,-2.125 2.13,-0.613 c 1.52,-2.434 3.96,-4.262 7.31,-5.477 0.3,-0.308 3.35,-1.219 9.13,-2.742 l 3.35,-2.434 1.21,0.301 c 0.92,-0.906 2.74,-1.824 5.49,-2.43 2.73,-0.308 4.56,-1.218 5.47,-2.437 8.22,-2.129 14.62,-3.656 18.57,-4.563 l 0,1.516 1.53,3.047 3.95,-2.129 0.91,-1.828 5.18,0 1.82,1.219 c 2.14,-0.918 3.96,-1.524 5.79,-1.524 0,0 1.22,0.305 3.96,0.914 l 2.12,1.825 4.27,-1.524 3.35,0.309 z m -18.26,103.82 c 0,-3.035 -1.23,-4.852 -3.35,-5.152 -16.44,-3.336 -24.96,-4.852 -25.27,-4.852 l -7.31,0 c -1.82,0 -3.35,0.606 -4.26,1.516 -0.3,3.941 2.44,7.273 8.22,10 4.56,2.125 9.13,3.336 13.7,3.336 10.04,0 16.13,-1.512 18.27,-4.848 z m 24.04,-93.773 -0.61,-3.047 c -1.22,0.605 -2.74,1.215 -4.26,1.824 l 0.91,2.133 1.83,0.609 c 1.52,-0.914 2.13,-1.219 2.13,-1.519"
         style="fill:#023252;fill-opacity:1;fill-rule:evenodd;stroke:none"
         id="path86"
         inkscape:connector-curvature="0" /><path
         d="m 4111.44,277.207 c -6.09,-0.914 -9.44,-1.215 -9.74,-1.215 l -2.44,-0.609 -1.51,0.91 c -1.23,0 -2.75,-0.609 -4.27,-2.133 -5.18,1.223 -9.44,1.223 -12.78,0.309 l -1.22,-1.524 c -3.35,-0.91 -5.78,-1.828 -7.31,-2.433 l -1.83,-2.434 -2.12,0.606 c -3.96,-6.391 -6.4,-9.438 -7.92,-9.739 -2.74,-11.57 -5.17,-20.394 -7.3,-26.785 l 0.3,-0.918 c -1.83,-4.562 -2.74,-8.828 -2.74,-12.48 l -1.52,-1.215 c 0.3,-3.656 -0.31,-6.391 -1.52,-7.914 l 2.13,-0.61 c -0.92,0.911 -0.92,2.133 -0.61,3.348 l -2.13,3.957 1.22,5.477 -1.22,2.742 c 0.61,1.523 1.52,2.738 2.43,3.957 -1.52,5.172 -2.73,9.133 -3.35,11.871 -2.73,3.957 -3.95,6.699 -3.95,7.609 l 0.3,1.219 c -2.13,5.477 -3.04,9.434 -3.04,12.176 l 0,0.609 -0.92,0.61 -4.56,12.48 -1.83,1.215 c -1.82,4.566 -4.56,7.613 -7.91,9.437 -2.13,-0.914 -3.96,-3.656 -6.09,-7.613 -2.13,-3.957 -3.04,-7.301 -3.04,-10.039 0,-4.566 1.51,-11.57 4.25,-21.004 2.75,-9.437 3.96,-16.441 3.96,-21.312 l 2.44,-2.739 c -0.31,-3.043 -0.31,-5.175 0.3,-6.695 l -0.91,-3.348 c 1.22,-0.609 1.83,-1.824 1.83,-3.957 0,-9.437 3.95,-30.441 11.56,-63.316 0.92,-0.305 1.83,-0.609 2.14,-1.523 0,-2.129 0.61,-4.262 1.82,-6.395 1.22,-2.125 2.43,-3.957 3.65,-5.781 l 2.14,0.609 3.04,-0.609 c 7.92,2.742 12.48,10.047 14,21.918 l -2.13,2.133 0,0.91 -0.61,-0.91 2.13,-1.832 2.13,3.046 c -1.52,1.829 -2.74,3.653 -3.65,5.786 l 0.91,1.523 c 1.53,9.434 2.44,14.606 2.74,15.215 -0.6,3.047 0,5.785 1.83,8.523 0,3.047 0.91,7.614 3.04,13.399 2.14,5.781 3.05,10.347 3.05,13.39 0,0 -0.31,0.914 -0.61,2.739 l 0.61,2.132 c 0.61,0.915 1.52,1.825 2.43,2.739 l 0.31,3.652 7.92,9.438 c 2.73,0.3 5.78,0.914 8.52,2.433 l 1.82,-0.605 0.91,1.519 2.74,0.914 4.27,-0.914 1.51,0.61 2.14,-1.524 1.82,0 c 0.92,0.914 2.14,1.219 3.66,1.219 0.91,0 2.43,-0.305 4.57,-0.305 2.13,-0.605 3.65,-0.605 4.86,-0.605 l 3.66,-2.742 1.82,2.132 c 4.27,-1.523 7.92,-2.437 10.66,-3.347 0.61,-1.219 2.13,-1.828 4.56,-2.133 2.44,-0.301 4.26,-1.523 5.18,-3.957 l 4.57,2.129 0.6,0.914 2.74,0.613 c 0.92,3.649 1.53,6.692 1.53,8.824 0,5.172 -0.92,9.129 -3.05,11.563 0.31,3.047 -1.22,6.09 -4.26,8.832 -2.74,2.133 -5.48,3.957 -8.22,6.09 -2.13,0.301 -3.96,1.215 -5.48,2.125 l -1.21,-0.301 -5.79,3.348 c -2.44,0.304 -4.57,0.304 -6.39,0.304 l -1.83,1.215 c -4.56,0.918 -7.61,2.133 -9.74,3.047"
         style="fill:#023252;fill-opacity:1;fill-rule:evenodd;stroke:none"
         id="path88"
         inkscape:connector-curvature="0" /><path
         d="m 4321.41,187.105 c 1.51,0.305 2.43,0.606 3.04,0.915 l -0.61,0.3 -2.43,0 c -1.53,2.442 -3.05,3.957 -4.57,4.871 l 0,1.219 1.52,1.524 c -2.73,0.3 -4.26,0.91 -4.57,1.218 0.61,0.911 0.92,1.825 0.61,2.434 -2.74,0.914 -4.86,1.824 -6.39,2.738 l -1.52,-0.914 -1.53,2.438 -0.6,0.3 c -1.52,-0.3 -4.57,-0.91 -9.13,-1.214 -3.96,-0.301 -6.7,-0.914 -8.53,-1.825 -2.13,0.301 -4.26,0.301 -6.09,-0.609 -2.73,0.609 -8.22,0.609 -15.82,0.301 l -1.22,2.133 0.61,1.523 c -1.83,1.52 -3.35,2.742 -4.27,3.043 l 0.31,1.523 1.52,2.133 c -0.91,2.125 -2.13,4.258 -3.65,6.391 l 0.61,1.519 -1.22,2.739 c 0.31,3.957 -1.52,11.871 -5.78,24.351 -3.96,11.266 -7.31,19.481 -10.05,24.66 l 0.61,0.911 c -0.3,2.132 0,3.957 0.3,5.48 l -0.3,0.301 -2.44,0.918 -1.21,1.523 c -0.92,2.735 -1.53,4.567 -2.44,5.477 -6.69,3.656 -11.87,7.004 -15.83,10.047 -1.21,-0.61 -2.13,-1.828 -3.04,-3.352 -0.61,-1.523 -1.22,-3.348 -1.83,-4.867 l 0,-2.133 -3.04,-4.262 c 0.3,-1.824 0,-3.652 -0.31,-5.781 l -1.51,-1.828 c -0.61,-5.172 -6.4,-17.656 -17.66,-38.051 l 0.3,-1.215 c -0.61,-3.957 -2.43,-7.613 -5.48,-10.961 l -2.43,-0.91 c 0.3,-1.828 -0.61,-2.742 -3.05,-2.742 -3.65,0 -6.39,-7.305 -8.52,-21.613 l -1.22,-1.215 c 0.31,-1.523 -1.52,-7.004 -4.87,-15.832 0.31,-1.523 -0.3,-3.348 -1.22,-5.481 l -2.43,-1.515 0,-4.266 c -2.74,-0.914 -3.96,-4.566 -3.96,-10.347 l 0,-7.614 c 0.91,-1.519 1.22,-3.957 1.22,-7.304 4.26,-2.739 7.31,-5.176 9.43,-6.696 l 0.61,-0.304 0.92,0.304 8.52,-3.047 2.74,0.309 0.92,0.914 1.21,5.172 c 5.18,7 7.61,13.391 7.61,19.176 2.43,5.179 3.96,7.914 4.27,8.523 3.04,-3.043 5.78,-4.566 7.91,-4.566 0.3,0 0.91,0.304 1.82,0.613 l 5.18,-1.523 c 14.3,0.91 21.91,1.824 22.83,2.132 3.35,-0.308 7.3,0.907 12.48,3.039 3.35,-2.132 5.17,-4.261 5.17,-6.996 l 0,-0.609 3.05,-3.352 -0.31,-0.914 c 1.83,-5.171 4.88,-9.437 9.44,-13.394 4.57,-3.957 9.13,-5.781 14,-5.781 2.74,0 4.57,0.605 6.09,1.519 l -2.13,2.133 0.61,2.129 3.65,1.523 c 0,0.305 -0.31,1.219 -0.91,2.742 7.6,6.391 11.56,12.782 11.56,19.786 l 0,0.609 -0.6,0.91 c -3.36,-0.305 -5.79,1.219 -7.31,4.262 l 0,1.523 1.52,1.219 4.27,0 1.82,1.824 4.26,-0.609 c 4.26,2.434 7.31,4.262 9.13,5.48 5.79,0 9.14,1.52 10.36,4.871 z m -84.63,15.829 c -0.3,-1.215 0,-2.434 0.61,-3.957 l -1.82,-2.434 c -1.53,0 -3.96,-0.309 -7.01,-1.219 -2.74,-0.609 -5.18,-0.914 -6.7,-0.914 0.31,0 -0.91,0.305 -4.26,0.61 -1.52,-1.524 -4.56,-2.434 -9.13,-2.434 l -0.91,0.301 -1.22,1.523 0,0.914 0.61,0.91 -0.61,1.829 c 2.13,2.128 3.66,3.656 4.57,4.57 l -1.22,2.125 0.61,2.742 c 3.04,4.871 5.48,8.828 7,11.871 0.3,1.524 0.3,2.742 0.61,3.957 l -0.61,1.219 0,1.215 c 3.04,3.957 4.56,6.699 4.56,8.523 l 0,0.61 1.83,1.523 1.83,-0.609 2.13,-4.262 -0.31,-1.52 2.14,-1.828 c 0.91,-6.086 2.43,-10.961 4.56,-14.308 l -1.22,-4.258 c 1.22,-0.61 2.13,-1.219 2.44,-2.133 l 0,-3.352 1.52,-1.214"
         style="fill:#023252;fill-opacity:1;fill-rule:evenodd;stroke:none"
         id="path90"
         inkscape:connector-curvature="0" /><path
         d="m 4416.61,277.207 c -6.08,-0.914 -9.43,-1.215 -9.73,-1.215 l -2.44,-0.609 -1.53,0.91 c -1.21,0 -2.73,-0.609 -4.26,-2.133 -5.17,1.223 -9.44,1.223 -12.78,0.309 l -1.22,-1.524 c -3.35,-0.91 -5.78,-1.828 -7.3,-2.433 l -1.83,-2.434 -2.13,0.606 c -3.96,-6.391 -6.4,-9.438 -7.91,-9.739 -2.75,-11.57 -5.18,-20.394 -7.31,-26.785 l 0.3,-0.918 c -1.83,-4.562 -2.74,-8.828 -2.74,-12.48 l -1.52,-1.215 c 0.31,-3.656 -0.3,-6.391 -1.52,-7.914 l 2.13,-0.61 c -0.91,0.911 -0.91,2.133 -0.61,3.348 l -2.13,3.957 1.22,5.477 -1.22,2.742 c 0.61,1.523 1.52,2.738 2.44,3.957 -1.53,5.172 -2.74,9.133 -3.36,11.871 -2.73,3.957 -3.95,6.699 -3.95,7.609 l 0.3,1.219 c -2.13,5.477 -3.04,9.434 -3.04,12.176 l 0,0.609 -0.91,0.61 -4.57,12.48 -1.83,1.215 c -1.82,4.566 -4.56,7.613 -7.91,9.437 -2.13,-0.914 -3.96,-3.656 -6.09,-7.613 -2.13,-3.957 -3.04,-7.301 -3.04,-10.039 0,-4.566 1.52,-11.57 4.26,-21.004 2.74,-9.437 3.96,-16.441 3.96,-21.312 l 2.43,-2.739 c -0.3,-3.043 -0.3,-5.175 0.3,-6.695 l -0.91,-3.348 c 1.22,-0.609 1.83,-1.824 1.83,-3.957 0,-9.437 3.96,-30.441 11.57,-63.316 0.91,-0.305 1.82,-0.609 2.13,-1.523 0,-2.129 0.61,-4.262 1.82,-6.395 1.22,-2.125 2.44,-3.957 3.65,-5.781 l 2.14,0.609 3.04,-0.609 c 7.92,2.742 12.48,10.047 14,21.918 l -2.13,2.133 0,0.91 -0.61,-0.91 2.13,-1.832 2.14,3.046 c -1.53,1.829 -2.74,3.653 -3.66,5.786 l 0.92,1.523 c 1.52,9.434 2.43,14.606 2.74,15.215 -0.61,3.047 0,5.785 1.82,8.523 0,3.047 0.92,7.614 3.04,13.399 2.14,5.781 3.05,10.347 3.05,13.39 0,0 -0.3,0.914 -0.61,2.739 l 0.61,2.132 c 0.61,0.915 1.52,1.825 2.43,2.739 l 0.31,3.652 7.92,9.438 c 2.73,0.3 5.78,0.914 8.52,2.433 l 1.83,-0.605 0.91,1.519 2.74,0.914 4.26,-0.914 1.52,0.61 2.13,-1.524 1.83,0 c 0.91,0.914 2.13,1.219 3.65,1.219 0.91,0 2.44,-0.305 4.57,-0.305 2.13,-0.605 3.65,-0.605 4.87,-0.605 l 3.65,-2.742 1.83,2.132 c 4.26,-1.523 7.91,-2.437 10.65,-3.347 0.61,-1.219 2.13,-1.828 4.57,-2.133 2.43,-0.301 4.26,-1.523 5.17,-3.957 l 4.57,2.129 0.61,0.914 2.73,0.613 c 0.92,3.649 1.53,6.692 1.53,8.824 0,5.172 -0.92,9.129 -3.05,11.563 0.31,3.047 -1.21,6.09 -4.26,8.832 -2.74,2.133 -5.48,3.957 -8.22,6.09 -2.12,0.301 -3.96,1.215 -5.48,2.125 l -1.21,-0.301 -5.79,3.348 c -2.43,0.304 -4.57,0.304 -6.39,0.304 l -1.82,1.215 c -4.57,0.918 -7.62,2.133 -9.75,3.047"
         style="fill:#023252;fill-opacity:1;fill-rule:evenodd;stroke:none"
         id="path92"
         inkscape:connector-curvature="0" /><path
         d="m 4482.29,37.6445 -0.91,-2.7422 -0.31,2.1329 0.61,0.914 0.61,-0.3047 z m -82.19,10.0469 -0.61,-0.6094 -0.6,0 0.3,1.2188 0.91,0 0,-0.6094 z m 85.84,121.7576 -0.3,-1.824 8.82,-5.48 c 0.31,-2.434 3.05,-3.653 8.53,-3.653 1.52,0 2.43,0.61 3.35,2.133 l 3.65,-3.656 0.61,0 c 1.52,0 3.04,0.914 4.57,3.043 l 1.22,-2.129 5.17,0 1.52,0.609 1.83,-0.914 6.39,0 c 0.3,1.824 2.43,3.047 6.09,3.957 4.56,1.215 7,2.129 7.91,2.738 l 0.91,-1.214 c 2.13,1.214 4.27,2.433 6.7,3.957 2.43,1.214 4.57,1.824 6.09,1.824 l 1.52,-2.434 c -0.91,-2.742 -1.22,-5.172 -1.22,-7.613 0,-3.348 0.92,-6.086 2.44,-8.523 l -1.22,-4.563 c 0.91,-6.394 0.91,-13.394 0.91,-21.008 l 0,-6.996 0.61,-1.219 c 0,-3.347 0.31,-8.828 1.22,-15.828 0.92,-6.9997 1.22,-12.4802 1.22,-16.1326 0,-1.2226 -0.3,-2.4375 -0.61,-3.3476 1.52,-5.7891 2.13,-8.832 2.13,-8.832 0,-12.7813 -10.96,-21.3047 -32.87,-25.8711 -6.09,-1.2188 -12.18,-2.7383 -18.58,-4.2618 -7.3,-1.5234 -13.39,-2.4336 -18.56,-2.4336 l -12.18,0 -0.91,0.3008 0.3,0 c -1.52,0.9141 -2.74,1.2149 -3.96,1.2149 -1.51,0 -2.43,-0.3008 -3.34,-0.9102 -17.96,1.2188 -31.66,2.1328 -40.79,2.7422 l -4.87,-2.7422 -0.31,0.6094 3.66,0.9141 c -2.13,2.1289 -7,3.3476 -14.62,3.3476 l -8.52,3.3477 c 0,1.8281 -0.91,2.7382 -3.04,2.7382 l -0.91,0 c -1.53,1.5235 -3.96,3.043 -7.92,5.1758 -3.96,2.1328 -6.09,3.6563 -6.7,4.5664 -1.22,-0.3007 -1.82,-1.5195 -2.13,-3.0429 l 2.74,-4.2657 c -0.91,-3.957 0.62,-6.9961 3.96,-9.1289 l 1.22,0.6094 -1.53,-2.7383 c 2.75,-4.2656 4.88,-8.2187 5.79,-11.5703 1.21,-0.3008 3.35,-1.8242 6.7,-4.5664 2.43,-2.1328 4.87,-3.0391 7,-3.0391 l 1.21,0.3008 c 3.35,-3.3476 5.79,-4.8672 7.31,-4.8672 0,0 0.61,0.3008 2.13,0.6055 l 4.87,-3.6523 2.44,0.6054 c 4.56,-1.5156 7.61,-2.4336 8.82,-3.0429 1.22,0 2.44,0.3086 3.66,0.9179 10.35,-2.1328 18.57,-3.6562 24.96,-3.957 1.22,0 4.26,0 8.82,0.3008 3.66,0.3047 6.7,0 8.83,-0.60939 l 5.78,1.52339 2.44,-1.2148 5.17,0.3008 -0.3,0 c 7,-0.60939 16.44,0.6094 28.92,3.6562 13.39,3.3477 22.22,5.1719 26.79,5.1719 l 0.61,-0.6055 8.82,4.2579 2.44,-0.6094 c 5.78,1.5234 11.26,6.0898 16.13,13.6992 4.87,7.3047 7.31,14.0039 7.31,20.3945 0,2.4375 -0.31,4.5664 -1.22,6.3907 l 1.22,6.0898 -0.91,1.8281 0.91,2.4375 c -1.52,4.5625 -2.13,10.6485 -2.13,18.8711 0,9.4372 -0.31,15.8282 -0.91,19.1762 l -0.31,0 c -0.3,5.175 -0.3,9.132 -0.3,12.175 0,3.957 0.3,6.391 0.61,7.305 l -0.92,0.918 -0.3,3.043 c 0,2.129 0.3,3.648 1.22,4.563 l -1.22,4.566 0.91,2.133 c -1.22,2.133 -1.83,7 -1.83,15.222 0,6.692 0.61,10.649 1.83,11.871 l -0.61,6.997 2.44,3.351 c -1.52,1.219 -2.13,3.652 -2.13,7 0,2.434 0.3,3.957 1.21,4.871 l 0.31,3.653 c 0,1.214 -0.31,2.433 -0.61,3.957 l 2.43,3.957 -0.91,1.523 c 0.91,3.348 1.52,6.086 2.13,7.609 l -0.61,2.739 c 2.14,4.566 3.36,14.004 3.36,28.312 0,0.301 -0.31,1.215 -0.62,2.129 -0.3,0.91 -0.6,1.828 -0.6,2.738 l 0,0.305 c -0.62,0.91 -2.14,3.043 -4.57,5.785 -2.13,2.129 -3.35,4.262 -3.66,6.086 -2.43,0.305 -3.95,1.219 -4.87,3.043 l -9.74,-5.781 -2.43,-7 0.31,-4.566 c -0.92,-1.219 -2.45,-5.786 -3.96,-13.704 -1.52,-7.605 -2.44,-12.781 -2.44,-15.519 -2.44,-3.352 -4.87,-6.699 -7.31,-9.742 -3.65,-4.567 -7,-6.7 -9.13,-6.391 l -0.91,0 -0.91,-1.523 c 0,-3.043 -4.87,-5.782 -14.92,-8.524 -8.22,-2.133 -14.92,-3.351 -19.79,-3.351 -0.91,0 -2.74,0.308 -5.17,0.918 -2.43,0.3 -4.27,0.609 -5.48,0.3 l -1.22,0 0.31,1.219 -1.52,7.305 c 0.3,0.609 0.91,7.308 1.82,19.789 0.91,12.48 1.52,19.48 1.52,21.609 2.14,5.785 3.66,10.957 4.26,16.137 l -2.73,8.215 -4.57,2.742 -1.83,5.785 -3.35,2.43 c -0.6,0 -1.51,0 -2.73,0 -1.23,0.308 -2.14,0.308 -2.44,0.308 -5.48,0 -10.04,-10.046 -12.48,-29.832 -1.52,-12.785 -2.43,-25.57 -3.65,-38.66 l 0.91,-1.215 c 0,-5.175 -0.3,-8.828 -0.61,-10.351 l 3.04,-5.481 -1.21,-3.648 3.35,-3.957 c 1.22,-10.051 4.26,-15.223 8.82,-15.223"
         style="fill:#023252;fill-opacity:1;fill-rule:evenodd;stroke:none"
         id="path94"
         inkscape:connector-curvature="0" /></g></g></svg>