<svg id="logo_lockups" data-name="logo lockups" xmlns="http://www.w3.org/2000/svg" viewBox="0 0 580 580"><defs><style>.cls-1{fill:#30aabc;}.cls-2{fill:#00363d;}</style></defs><title>explore_zendesk vertical</title><polygon class="cls-1" points="40 257.07 138.89 86.55 237.77 257.07 40 257.07"/><polygon class="cls-2" points="224.29 144.67 224.29 32 321.54 88.62 224.29 144.67"/><path class="cls-2" d="M40,478.89a25.57,25.57,0,0,1,25.82-26c14.7,0,25.52,10.63,25.52,25.32v4.17H50.23c1.39,7.65,7.35,12.71,16,12.71a15.57,15.57,0,0,0,14.5-8.94L89.46,491c-4.37,8.14-12.21,13.51-23.24,13.51C50.53,504.51,40,493.29,40,478.89Zm10.73-5.56H80.52c-1.59-7.15-7.05-11.12-14.7-11.12A15.44,15.44,0,0,0,50.73,473.33Z"/><path class="cls-2" d="M112.6,478.29,94.42,453.86h12.91l11.92,16.39,12-16.39h12.61L125.8,478.29,145,503.52H132l-12.91-17.08-12.41,17.08h-13Z"/><path class="cls-2" d="M162.21,497.36v29H151.68v-72.5h10.53v7a20.91,20.91,0,0,1,16.58-7.94c13,0,24.73,9.93,24.73,25.82s-12.12,25.82-24.63,25.82C172,504.51,165.78,501.93,162.21,497.36ZM193,478.59c0-9-6.85-16.09-15.69-16.09-9,0-15.69,7.25-15.69,16.09s6.65,16.19,15.69,16.19C186.14,494.78,193,487.63,193,478.59Z"/><path class="cls-2" d="M212.88,431H223.5v72.5H212.88Z"/><path class="cls-2" d="M232.79,478.69a25.77,25.77,0,1,1,25.72,25.82A25.56,25.56,0,0,1,232.79,478.69Zm41,0c0-8.74-6.75-15.89-15.29-15.89s-15.19,7.15-15.19,15.89,6.65,15.89,15.19,15.89S273.8,487.43,273.8,478.69Z"/><path class="cls-2" d="M293.56,453.86h10.63v7.85c2.68-5.06,7.55-7.85,14.5-7.85h4.77V464H317c-9,0-12.71,4.57-12.71,14.9v24.63H293.56Z"/><path class="cls-2" d="M328.3,478.89a25.57,25.57,0,0,1,25.82-26c14.7,0,25.52,10.63,25.52,25.32v4.17H338.53c1.39,7.65,7.35,12.71,16,12.71a15.57,15.57,0,0,0,14.5-8.94l8.74,4.87c-4.37,8.14-12.21,13.51-23.24,13.51C338.83,504.51,328.3,493.29,328.3,478.89ZM339,473.33h29.79c-1.59-7.15-7.05-11.12-14.7-11.12A15.44,15.44,0,0,0,339,473.33Z"/><path class="cls-2" d="M295.38,403.17a19.27,19.27,0,0,0,13.69-5.32l6.79,7.32c-4.49,4.61-10.7,8-20.37,8-16.57,0-27.27-11-27.27-25.87A25.37,25.37,0,0,1,294,361.47c16.46,0,25.78,12.52,25,29.89H280.08c1.38,7.21,6.44,11.81,15.3,11.81m11.85-20.08c-1-6.73-5.06-11.69-13.12-11.69-7.48,0-12.66,4.25-14,11.69Z"/><polygon class="cls-2" points="40 402.63 69.94 372.22 40.7 372.22 40.7 362.68 83.81 362.68 83.81 372.42 53.87 402.83 84.21 402.83 84.21 412.37 40 412.37 40 402.63"/><path class="cls-2" d="M117.82,403.17a19.27,19.27,0,0,0,13.69-5.32l6.79,7.32c-4.49,4.61-10.7,8-20.37,8-16.57,0-27.27-11-27.27-25.87a25.37,25.37,0,0,1,25.77-25.87c16.46,0,25.78,12.52,25,29.89H102.52c1.38,7.21,6.44,11.81,15.3,11.81m11.85-20.08c-1-6.73-5.06-11.69-13.12-11.69-7.48,0-12.66,4.25-14,11.69Z"/><path class="cls-2" d="M206,387.37c0-15.9,11.87-25.84,24.95-25.84,6.59,0,12.88,2.88,16.57,7.46V339.67h10.58v72.55H247.55v-6.86a21.25,21.25,0,0,1-16.67,7.85c-12.67,0-24.85-10-24.85-25.84m42.11-.1c0-8.84-6.69-16.1-15.77-16.1a15.73,15.73,0,0,0-15.77,16.1c0,9,6.88,16.2,15.77,16.2,9.08,0,15.77-7.26,15.77-16.2"/><path class="cls-2" d="M325.86,401.68l9.58-5A14.22,14.22,0,0,0,348.21,404c6,0,9.08-3.08,9.08-6.56,0-4-5.79-4.87-12.07-6.16-8.48-1.79-17.26-4.57-17.26-14.81,0-7.85,7.48-15.11,19.26-15,9.28,0,16.17,3.68,20.06,9.64l-8.88,4.87a12.89,12.89,0,0,0-11.17-5.67c-5.69,0-8.58,2.78-8.58,6,0,3.58,4.59,4.57,11.78,6.16,8.18,1.79,17.46,4.47,17.46,14.81,0,6.86-6,16.1-20.16,16-10.38,0-17.66-4.17-21.85-11.53"/><polygon class="cls-2" points="396.6 390.15 388.21 399.3 388.21 412.22 377.64 412.22 377.64 339.67 388.21 339.67 388.21 387.17 410.67 362.52 423.54 362.52 404.08 383.79 424.04 412.22 412.06 412.22 396.6 390.15"/><path class="cls-2" d="M174.08,361.52c-12.57,0-23.1,8.15-23.1,21.67v29h10.78V384.53c0-8.15,4.69-13,12.67-13s12,4.88,12,13v27.68h10.78v-29c0-13.52-10.53-21.67-23.1-21.67"/></svg>