<svg id="logo_lockups" data-name="logo lockups" xmlns="http://www.w3.org/2000/svg" viewBox="0 0 550 100"><defs><style>.cls-1{fill:#00363d;}</style></defs><title>explore_wordmark</title><path class="cls-1" d="M204.52,65.42a11.12,11.12,0,0,0,7.9-3.07l3.92,4.22c-2.59,2.66-6.17,4.63-11.75,4.63-9.56,0-15.73-6.34-15.73-14.92a14.63,14.63,0,0,1,14.87-14.92c9.49,0,14.87,7.22,14.4,17.24H195.69c.8,4.16,3.72,6.81,8.83,6.81m6.84-11.58c-.6-3.88-2.92-6.74-7.57-6.74a7.71,7.71,0,0,0-8.1,6.74Z"/><polygon class="cls-1" points="57.22 65.11 74.49 47.57 57.63 47.57 57.63 42.06 82.49 42.06 82.49 47.68 65.22 65.22 82.72 65.22 82.72 70.72 57.22 70.72 57.22 65.11"/><path class="cls-1" d="M102.11,65.42a11.12,11.12,0,0,0,7.9-3.07l3.92,4.22c-2.59,2.66-6.17,4.63-11.75,4.63-9.56,0-15.73-6.34-15.73-14.92a14.63,14.63,0,0,1,14.87-14.92c9.49,0,14.87,7.22,14.4,17.24H93.28c.8,4.16,3.72,6.81,8.83,6.81m6.84-11.58c-.6-3.88-2.92-6.74-7.57-6.74a7.71,7.71,0,0,0-8.1,6.74Z"/><path class="cls-1" d="M153,56.31c0-9.17,6.85-14.9,14.39-14.9a12.41,12.41,0,0,1,9.55,4.3V28.79H183V70.64h-6.1v-4a12.26,12.26,0,0,1-9.61,4.53A14.45,14.45,0,0,1,153,56.31m24.29-.06a9.1,9.1,0,1,0-9.09,9.34,9.07,9.07,0,0,0,9.09-9.34"/><path class="cls-1" d="M222.1,64.56l5.52-2.87A8.2,8.2,0,0,0,235,65.88c3.45,0,5.24-1.77,5.24-3.78,0-2.29-3.34-2.81-7-3.55-4.89-1-10-2.64-10-8.54,0-4.53,4.31-8.71,11.11-8.66,5.35,0,9.32,2.12,11.57,5.56l-5.12,2.81a7.43,7.43,0,0,0-6.45-3.27c-3.28,0-4.95,1.61-4.95,3.44,0,2.06,2.65,2.64,6.79,3.55,4.72,1,10.07,2.58,10.07,8.54,0,4-3.45,9.29-11.63,9.23-6,0-10.19-2.41-12.6-6.65"/><polygon class="cls-1" points="262.89 57.91 258.06 63.19 258.06 70.64 251.96 70.64 251.96 28.79 258.06 28.79 258.06 56.19 271.01 41.98 278.44 41.98 267.21 54.24 278.73 70.64 271.82 70.64 262.89 57.91"/><path class="cls-1" d="M134.55,41.4c-7.25,0-13.32,4.7-13.32,12.5V70.64h6.22v-16c0-4.7,2.7-7.51,7.31-7.51s6.91,2.81,6.91,7.51v16h6.22V53.89c0-7.8-6.07-12.5-13.32-12.5"/><path class="cls-1" d="M296.88,56.4a14.75,14.75,0,0,1,14.89-15c8.48,0,14.72,6.13,14.72,14.61V58.4H302.78c.8,4.41,4.24,7.33,9.22,7.33a9,9,0,0,0,8.36-5.16l5,2.81A14.47,14.47,0,0,1,312,71.18C303,71.18,296.88,64.7,296.88,56.4Zm6.19-3.21h17.18c-.92-4.12-4.07-6.42-8.48-6.42A8.9,8.9,0,0,0,303.07,53.19Z"/><path class="cls-1" d="M338.75,56.05,328.27,42h7.45l6.87,9.45L349.52,42h7.27L346.37,56.05,357.42,70.6h-7.5l-7.45-9.85-7.16,9.85h-7.5Z"/><path class="cls-1" d="M367.37,67.05V83.78H361.3V42h6.07v4a12.06,12.06,0,0,1,9.57-4.58c7.5,0,14.26,5.73,14.26,14.89s-7,14.89-14.21,14.89C373,71.18,369.43,69.69,367.37,67.05Zm17.76-10.83a9.05,9.05,0,1,0-9,9.34A9,9,0,0,0,385.12,56.23Z"/><path class="cls-1" d="M396.59,28.79h6.13V70.6h-6.13Z"/><path class="cls-1" d="M408.08,56.28a14.86,14.86,0,1,1,14.84,14.89A14.74,14.74,0,0,1,408.08,56.28Zm23.66,0a8.8,8.8,0,1,0-8.82,9.16A9,9,0,0,0,431.73,56.28Z"/><path class="cls-1" d="M443.12,42h6.13v4.53c1.55-2.92,4.35-4.53,8.36-4.53h2.75v5.84h-3.72c-5.21,0-7.33,2.63-7.33,8.59V70.6h-6.19Z"/><path class="cls-1" d="M463.16,56.4a14.75,14.75,0,0,1,14.89-15c8.48,0,14.72,6.13,14.72,14.61V58.4H469.06c.8,4.41,4.24,7.33,9.22,7.33a9,9,0,0,0,8.36-5.16l5,2.81a14.47,14.47,0,0,1-13.4,7.79C469.24,71.18,463.16,64.7,463.16,56.4Zm6.19-3.21h17.18c-.92-4.12-4.07-6.42-8.48-6.42A8.9,8.9,0,0,0,469.35,53.19Z"/></svg>