<?xml version="1.0" encoding="utf-8"?>
<!-- Generator: Adobe Illustrator 17.1.0, SVG Export Plug-In . SVG Version: 6.00 Build 0)  -->
<!DOCTYPE svg PUBLIC "-//W3C//DTD SVG 1.1//EN" "http://www.w3.org/Graphics/SVG/1.1/DTD/svg11.dtd">
<svg version="1.1" id="Logo_1_" xmlns="http://www.w3.org/2000/svg" xmlns:xlink="http://www.w3.org/1999/xlink" x="0px" y="0px"
	 viewBox="24.5 338.7 545 164" enable-background="new 24.5 338.7 545 164" xml:space="preserve">
<g id="Logo">
	<g>
		<path fill="#F57D2D" d="M89.9,339.6c-35.7,0-64.7,29.4-64.7,65.1c0,34.1,26.2,62.3,59.5,65.1c1.6,0,3.6,0.4,5.2,0.4h64.7v-65.1
			l0,0v-0.4C154.6,369,125.7,339.6,89.9,339.6z M132.8,398.7c-0.8,2.8-2.4,4.8-4.8,6c-1.6,0.8-3.2,1.2-5.2,1.2
			c-1.2,0-2.4-0.4-3.6-0.8c-0.4,0-1.2,0-2.4,0c-2.8,0-6.3,0.8-11.1,2.8l0,0c-0.4,0.4-1.6,1.2-2,2l0,0l-3.6,12.7c0,0-0.4,1.6,0.4,2.8
			c4,5.6,7.1,8.7,9.9,9.5c2.8,0.4,5.2,2,6.7,4.4c1.2,2,1.6,4.8,0.8,7.1c-0.8,2.4-2,4.4-4.4,5.6c-1.2,0.8-2.8,1.2-4.4,1.2
			c-3.2,0-6.3-1.6-7.9-4.8c-1.6-2.4-1.6-5.6-0.4-7.9c0.8-2.4,0-7.1-2.8-13.5c0,0-0.4-1.2-1.6-1.6l-13.5-3.6h-0.4
			c-0.8,0-1.6,0.4-1.6,0.4c-5.2,3.6-8.3,6.3-8.7,8.7c-0.4,2.4-1.6,4.4-3.6,5.6c-1.2,0.8-2.4,1.2-4,1.2c-2.8,0-5.2-1.6-6.7-4
			c-2-3.6-0.8-8.3,2.8-10.3c1.2-0.8,2.4-1.2,4-1.2c0.8,0,2,0,2.8,0.4c0.4,0,1.2,0.4,1.6,0.4c2.4,0,6-1.2,9.9-3.2
			c1.2-0.8,1.6-2,2-2.4l3.6-13.1c0.4-0.8-0.4-2-0.8-2.8c-5.6-7.5-9.9-11.9-13.5-12.7c-3.6-0.4-6.3-2.4-8.3-5.6c-1.6-2.8-2-6-1.2-8.7
			c0.8-2.8,2.8-5.6,5.2-7.1c1.6-1.2,3.6-1.6,5.6-1.6c4,0,7.9,2.4,9.9,6c1.6,3.2,2,6.7,0.8,9.9c-1.2,3.2,0,9.5,4,17.9
			c0,0,0.8,2,2.8,2.4l12.3,3.2c0.4,0,0.4,0,0.8,0c1.2,0,2.4-0.8,2.4-0.8l0,0c5.2-4,8.3-7.5,8.7-10.3c0.4-3.2,2.4-6,4.8-7.1
			c1.6-0.8,3.2-1.2,5.2-1.2c3.6,0,6.7,2,8.7,5.2C133.2,393.2,133.6,395.9,132.8,398.7z M224.9,384.4c-10.7,0-17.1,2-22.6,5.6v-31
			c0-1.6-1.2-3.2-3.2-3.2h-13.9c-1.6,0-3.2,1.2-3.2,3.2v108.7c0,1.6,1.2,3.2,3.2,3.2h13.9c1.6,0,3.2-1.6,3.2-3.2v-61.1
			c6.3-3.2,12.3-5.2,17.5-5.2c9.9,0,12.3,3.2,12.3,16.3v49.6c0,1.6,1.2,3.2,3.2,3.2h13.5c1.6,0,3.2-1.6,3.2-3.2v-49.6
			C251.9,399.5,245.5,384.4,224.9,384.4z M336,387.2h-15.1c-1.6,0-2.8,1.2-3.2,2.4l-16.3,64.7c0,0,0,0-0.4,0h-0.8
			c-0.8,0-1.6-0.8-2-3.2l-15.1-61.5c-0.4-1.2-1.6-2.8-2.8-2.8h-15.1c-2,0-2.8,0.8-2.8,2.4c0,0.4,0,0.8,0,1.2l19.4,69.1
			c3.2,11.5,8.7,12.7,13.1,12.7h2.4l-1.6,4.4c-2,7.9-5.6,9.5-11.9,9.5c-4.4,0-12.7-0.8-17.1-0.8c0,0,0,0-0.4,0
			c-1.6,0-3.2,1.2-3.2,2.8v9.5c0,1.6,1.6,2,3.2,2.4c3.6,1.2,11.1,2,15.9,2c20.2,0,25.8-7.1,30.6-23.8l25-88.1c0-0.4,0-0.8,0-0.8
			C338.4,388.4,337.2,387.2,336,387.2z M386,384.4c-9.5,0-20.6,1.6-30.2,4c-3.6,0.8-4,2-4,4v105.2c0,1.6,1.2,3.2,3.2,3.2h13.9
			c1.6,0,3.2-1.2,3.2-3.2v-26.6c5.6,0.8,10.7,1.2,14.3,1.2c24.2,0,35.7-14.3,35.7-37.7v-11.5C421.7,399.1,410.2,384.4,386,384.4z
			 M402.3,434c0,12.3-3.2,21.4-15.9,21.4c-3.6,0-10.3-0.4-14.3-1.2v-52.4c2.8-0.8,9.1-1.2,14.3-1.2c12.7,0,15.9,9.1,15.9,21.4V434z
			 M471.7,384.4c-23,0-35.7,14.7-35.7,38.5V434c0,29.8,21.4,37.7,36.1,37.7c13.5,0,19.4-0.8,29-2.4c2.8-0.4,3.2-1.6,3.2-4v-9.9
			c0-1.6-1.2-2.4-2.8-2.4h-0.4c-6.3,0.8-16.7,1.6-27.4,1.6c-14.3,0-17.9-10.3-17.9-19v-0.4h48.8c2,0,3.2-1.2,3.2-4v-8.3
			C507.4,400.3,494.7,384.4,471.7,384.4z M487.2,420.9h-31.7v-0.8c0-11.9,6.7-18.7,15.9-18.7c9.1,0,15.9,6.7,15.9,18.7V420.9z
			 M564.6,384.4c-6,0-13.9,1.6-21.4,7.1v-3.2c0-1.6-1.2-3.2-3.2-3.2h-13.1c-1.6,0-3.2,1.2-3.2,3.2v79c0,1.6,1.2,3.2,3.2,3.2h13.9
			c1.6,0,3.2-1.6,3.2-3.2v-60.3c6.3-3.2,12.7-5.6,20.6-5.6c1.6,0,3.2-1.2,3.2-3.2v-10.7C567.4,386,566.2,384.4,564.6,384.4z"/>
	</g>
</g>
</svg>
