<svg xmlns="http://www.w3.org/2000/svg" viewBox="0 0 3199.6 693.28"><defs><style>.cls-1{opacity:0.4;}.cls-2,.cls-3{fill:#fff;}.cls-3{fill-rule:evenodd;}</style></defs><title>logo_fullstack</title><g id="Capa_2" data-name="Capa 2"><g id="Layer_1" data-name="Layer 1"><g class="cls-1"><path class="cls-2" d="M295.91,321.27l47,25.28L171.68,439l-47.16-25.41Z"/><path class="cls-2" d="M493.06,321.14,446,346.64,617.42,439l47.15-25.41Z"/><path class="cls-2" d="M394.62,134.41l269.2,145.35-47.14,25.42L394.33,185.36Z"/><path class="cls-2" d="M394.62,134.41,125.16,279.71l47.14,25.43L395,185.1Z"/></g><path class="cls-2" d="M1331.17,468.17H1291V440.49c-10.4,21.6-29.76,31.36-53.27,31.36-41.12,0-61.44-29.76-61.44-77.43V303.07h40.16v91c0,26.72,10.4,42.39,32,42.39,18.56,0,42.4-15.35,42.4-62.07V303.07h40.32Z"/><path class="cls-2" d="M1373.72,468.17v-236h40.16v236Z"/><path class="cls-2" d="M1460.59,468.17V221h40.16V468.17Z"/><path class="cls-2" d="M1571.94,401.3c5,19.52,22.56,33.6,47.35,33.6,23.84,0,41.12-10.72,41.12-29.12,0-13.44-9.76-23.2-30.08-30.4L1600.9,365.3c-48-16-56.16-45.11-56.16-64.31,0-40.15,33.92-65,75.67-65,38.24,0,65.28,19.84,75.68,52.31l-35.2,14.72c-7.84-23.2-23.84-29.75-40.48-29.75-18.55,0-33.91,9.11-33.91,27,0,7.84,2.24,19.52,27,28.48L1643,339.55c44.48,14.08,58.39,42.07,58.71,64.63,0,44-37.59,67.51-81.59,67.51-44.79,0-80-25.11-86.23-62.07Z"/><path class="cls-2" d="M2021.49,303.07V468.33h-40.16v-25c-11.67,17.92-32.31,28.48-56.47,28.48-48.95,0-80.95-38.55-80.95-86.87,0-46.71,30.72-85.59,81.27-85.59,22.24,0,42.72,9.12,56.15,28V303.07ZM1933,438.26c27.36,0,49.27-18.56,49.27-51.2,0-32-20.63-53.91-50.23-53.91-30.4,0-47.68,23.83-47.68,52.15C1884.38,414.74,1902.94,438.26,1933,438.26Z"/><path class="cls-2" d="M2651.82,431.7v36.47H2506.24V230.92H2548V431.7Z"/><path class="cls-2" d="M2839.8,303.07V468.33h-40.16v-25c-11.68,17.92-32.31,28.48-56.47,28.48-49,0-81-38.55-81-86.87,0-46.71,30.71-85.59,81.27-85.59,22.24,0,42.71,9.12,56.15,28V303.07Zm-88.47,135.19c27.35,0,49.27-18.56,49.27-51.2,0-32-20.64-53.91-50.23-53.91-30.4,0-47.68,23.83-47.68,52.15C2702.69,414.74,2721.25,438.26,2751.33,438.26Z"/><path class="cls-2" d="M2973.7,471.85c-24.15,0-44.79-10.4-56.47-28.47v24.79h-40.16v-236h40.16v95.35c13.44-18.88,33.92-28,56.15-28,50.56,0,81.27,38.88,81.27,85.59C3054.65,433.3,3022.66,471.85,2973.7,471.85Zm-7.2-138.7c-29.75,0-49.91,21.92-49.91,53.91,0,32.64,21.6,51.2,48.95,51.2,30.08,0,48.64-23.52,48.64-53C3014.18,357,2996.9,333.15,2966.5,333.15Z"/><path class="cls-2" d="M3100.09,415.7c4.32,16.32,20.32,23.84,35.2,23.84,11.68,0,24.79-4.33,24.79-17.28,0-8.48-7.84-13.44-17.91-17.6L3118,395.54c-33-12.48-41.44-31-41.44-46.08,0-30.71,26.08-49.91,60.48-49.91,20.95,0,47,7.2,57.75,37l-32.32,11.67c-4.32-13.43-16.31-16.95-25.11-16.95-10.4,0-21.6,5.92-21.6,17.28,0,9.11,8.16,13.75,17.28,16.95l24.47,8.8c35.2,11.68,42.08,33,42.08,47.36,0,32.63-30.4,50.23-64.63,50.23-26.72,0-57.12-11-66.56-42.71Z"/><path class="cls-2" d="M1794.47,438.26c-11.67,0-16-7.84-16-17.92V333.79h49.27V303.07h-49.27V258.92h-31l-7.2,44h-27.68v30.72h25.76v80.95c0,45.43,27,57.11,54.55,57.11,16.48,0,29-4.64,37.44-12l-14.56-26.55S1804.39,438.26,1794.47,438.26Z"/><path class="cls-2" d="M1024,232.2v236h41.76V365.46H1109l34.56-34.55h-77.75V269h101.9V232.2Z"/><path class="cls-2" d="M2168.51,407.06c-6.08,18.56-22.07,27.84-40.47,27.84-25.12,0-43.84-20.16-43.84-50.24s18.72-50.23,43.84-50.23c19.36,0,35.83,9.28,40.47,27.83h42.56c-6.24-38.87-39.68-64.63-83-64.63-48.16,0-84,35.84-84,87s35.83,87,84,87c43.35,0,77.11-25.59,83.19-64.63Z"/><path class="cls-2" d="M2379,468.17l-65.73-89.43,57.43-70.87v-5h-44.47l-51.84,63.51V232.2h-40.15v236h40.15v-80l57.9,80Z"/><path class="cls-2" d="M78.83,438.25,0,480.74,394.33,693.28,788.65,480.74l-79.08-42.63-47.16,25.42,31.93,17.21-300,161.71-300-161.71L125.45,464Z"/><path class="cls-2" d="M0,347.07,394.33,559.61,788.65,347.07l-79.08-42.63-47.16,25.42,31.93,17.21-300,161.71-300-161.71,31.14-16.78L78.83,304.58Z"/><path class="cls-3" d="M394.33,425.09,0,212.54,394.33,0,788.65,212.54Zm0-50.84-300-161.71,300-161.71,300,161.71Z"/></g></g></svg>