<?xml version="1.0" encoding="UTF-8" standalone="no"?>
<svg width="164px" height="44px" viewBox="0 0 164 44" version="1.1" xmlns="http://www.w3.org/2000/svg" xmlns:xlink="http://www.w3.org/1999/xlink">
    <!-- Generator: Sketch 49.1 (51147) - http://www.bohemiancoding.com/sketch -->
    <title>logo_accenture</title>
    <desc>Created with Sketch.</desc>
    <defs></defs>
    <g id="Page-1" stroke="none" stroke-width="1" fill="none" fill-rule="evenodd">
        <g id="logo_accenture" fill-rule="nonzero">
            <polygon id="Shape" fill="#7500C0" points="95.5 12.5 104.9 9 95.5 5.4 95.5 0.5 111.6 7 111.6 11 95.5 17.5"></polygon>
            <path d="M6.6,43.5 C3.2,43.5 0.4,41.8 0.4,38 L0.4,37.8 C0.4,33.2 4.4,31.6 9.3,31.6 L11.6,31.6 L11.6,30.7 C11.6,28.8 10.8,27.7 8.8,27.7 C7,27.7 6.1,28.7 6,30.1 L1,30.1 C1.4,25.9 4.7,23.9 9.1,23.9 C13.6,23.9 16.9,25.8 16.9,30.5 L16.9,43.1 L11.8,43.1 L11.8,41 C10.8,42.3 9.1,43.5 6.6,43.5 Z M11.6,36.8 L11.6,35 L9.5,35 C6.9,35 5.6,35.7 5.6,37.4 L5.6,37.6 C5.6,38.9 6.4,39.8 8.2,39.8 C10,39.8 11.6,38.8 11.6,36.8 Z M28.8,43.5 C23.6,43.5 19.8,40.3 19.8,33.9 L19.8,33.6 C19.8,27.2 23.8,23.8 28.8,23.8 C33.1,23.8 36.6,26 37,30.9 L32,30.9 C31.7,29.1 30.7,27.9 28.9,27.9 C26.7,27.9 25.1,29.7 25.1,33.4 L25.1,34 C25.1,37.8 26.5,39.5 28.9,39.5 C30.7,39.5 32,38.2 32.3,36.1 L37.1,36.1 C36.8,40.4 33.9,43.5 28.8,43.5 Z M48.4,43.5 C43.2,43.5 39.4,40.3 39.4,33.9 L39.4,33.6 C39.4,27.2 43.4,23.8 48.4,23.8 C52.7,23.8 56.2,26 56.6,30.9 L51.6,30.9 C51.3,29.1 50.3,27.9 48.5,27.9 C46.3,27.9 44.7,29.7 44.7,33.4 L44.7,34 C44.7,37.8 46.1,39.5 48.5,39.5 C50.3,39.5 51.6,38.2 51.9,36.1 L56.7,36.1 C56.4,40.4 53.5,43.5 48.4,43.5 Z M68.1,43.5 C62.7,43.5 59,40.3 59,34 L59,33.6 C59,27.3 62.9,23.8 68,23.8 C72.7,23.8 76.6,26.4 76.6,32.7 L76.6,35 L64.4,35 C64.6,38.4 66.1,39.7 68.3,39.7 C70.3,39.7 71.4,38.6 71.8,37.3 L76.7,37.3 C76,40.8 73.1,43.5 68.1,43.5 Z M64.4,31.5 L71.5,31.5 C71.4,28.7 70.1,27.5 68,27.5 C66.3,27.6 64.8,28.5 64.4,31.5 Z M79.8,24.3 L85.1,24.3 L85.1,27.1 C86,25.3 87.9,23.9 90.8,23.9 C94.2,23.9 96.5,26 96.5,30.5 L96.5,43.1 L91.2,43.1 L91.2,31.3 C91.2,29.1 90.3,28.1 88.4,28.1 C86.6,28.1 85.1,29.2 85.1,31.6 L85.1,43.1 L79.8,43.1 L79.8,24.3 Z M106.2,18.6 L106.2,24.3 L109.8,24.3 L109.8,28.2 L106.2,28.2 L106.2,37.1 C106.2,38.5 106.8,39.2 108.1,39.2 C108.9,39.2 109.4,39.1 109.9,38.9 L109.9,43 C109.3,43.2 108.2,43.4 106.9,43.4 C102.8,43.4 100.9,41.5 100.9,37.7 L100.9,28.2 L98.7,28.2 L98.7,24.3 L100.9,24.3 L100.9,20.8 L106.2,18.6 Z M129.6,43.1 L124.3,43.1 L124.3,40.3 C123.4,42.1 121.6,43.5 118.8,43.5 C115.4,43.5 112.9,41.4 112.9,37 L112.9,24.3 L118.2,24.3 L118.2,36.3 C118.2,38.5 119.1,39.5 120.9,39.5 C122.7,39.5 124.2,38.3 124.2,36 L124.2,24.4 L129.5,24.4 L129.5,43.1 L129.6,43.1 Z M133.5,24.3 L138.8,24.3 L138.8,27.8 C139.9,25.3 141.7,24.1 144.5,24.1 L144.5,29.3 C140.9,29.3 138.8,30.4 138.8,33.5 L138.8,43.2 L133.5,43.2 L133.5,24.3 Z M155.2,43.5 C149.8,43.5 146.1,40.3 146.1,34 L146.1,33.6 C146.1,27.3 150,23.8 155.1,23.8 C159.8,23.8 163.7,26.4 163.7,32.7 L163.7,35 L151.5,35 C151.7,38.4 153.2,39.7 155.4,39.7 C157.4,39.7 158.5,38.6 158.9,37.3 L163.8,37.3 C163,40.8 160.1,43.5 155.2,43.5 Z M151.4,31.5 L158.5,31.5 C158.4,28.7 157.1,27.5 155,27.5 C153.4,27.6 151.9,28.5 151.4,31.5 Z" id="Shape" fill="#000000"></path>
        </g>
    </g>
</svg>