<?xml version="1.0" encoding="UTF-8" standalone="no"?>
<svg width="132px" height="37px" viewBox="0 0 132 37" version="1.1" xmlns="http://www.w3.org/2000/svg" xmlns:xlink="http://www.w3.org/1999/xlink" xmlns:sketch="http://www.bohemiancoding.com/sketch/ns">
    <!-- Generator: Sketch 3.3 (11970) - http://www.bohemiancoding.com/sketch -->
    <title>Mobile / Logo</title>
    <desc>Created with Sketch.</desc>
    <defs>
        <path id="path-1" d="M0,0.00836814189 L132,0.00836814189 L132,36.0083681 L0,36.0083681"></path>
        <path id="path-3" d="M0,0.00836814189 L132,0.00836814189 L132,36.0083681 L0,36.0083681"></path>
    </defs>
    <g id="Organisms" stroke="none" stroke-width="1" fill="none" fill-rule="evenodd" sketch:type="MSPage">
        <g id="Mobile-Main" sketch:type="MSArtboardGroup" transform="translate(-15.000000, -116.000000)">
            <g id="Organisms-/-Header-/-Mobile" sketch:type="MSLayerGroup" transform="translate(-1.000000, 100.500000)">
                <g id="Search-area" transform="translate(16.000000, 16.000000)">
                    <g id="-Mobile-/-Search-area">
                        <g id="Mobile-/-Logo">
                            <path d="M15.585366,35.9925194 C11.9095252,35.9925194 10.1231615,34.7423697 10.1231615,32.0141019 C10.1231615,31.8185916 10.1254585,31.6253636 10.1525131,31.4080455 C10.1537892,31.3902949 10.1558311,31.3689942 10.1578729,31.3555545 C10.1588938,31.349215 10.1606805,31.3436362 10.1617014,31.3378039 C10.1703793,31.2952024 10.1867141,31.2427113 10.2030489,31.2092388 C10.1961576,31.2236928 10.1895216,31.2391612 10.1846722,31.2548832 C10.2854886,30.901139 10.6616995,30.6526305 11.0570527,30.7183078 C11.1586347,30.7352976 11.2533255,30.7710524 11.3406146,30.8245578 C12.344184,31.3565688 13.5943068,31.5858052 14.7732201,31.5858052 C16.4036374,31.5858052 16.4036374,30.9589553 16.4036374,30.7530482 C16.4036374,30.2928004 15.8130323,29.9753182 14.5838384,29.3573436 L14.4717919,29.3007953 C12.641018,28.3696493 10.2939112,27.2120563 10.2939112,23.9426486 C10.2939112,21.0254637 12.8171276,18.118929 18.2920936,18.118929 C19.6573257,18.118929 20.996269,18.2282221 22.3474633,18.4501046 C22.4870749,18.4729268 22.6146905,18.5520438 22.6963645,18.6676763 C22.7782937,18.7825481 22.8107081,18.9275958 22.7859507,19.0663041 L22.1016756,22.6590264 C22.0748763,22.8081315 21.9845245,22.9389788 21.8546118,23.0175886 C21.7287827,23.0949305 21.5649243,23.1152169 21.4207186,23.0721083 C20.2275124,22.7082209 19.1851479,22.546944 18.3495207,22.546944 C17.8194053,22.546944 16.9299243,22.6316397 16.9299243,23.2014341 C16.9299243,23.6416491 18.0322682,24.1848176 19.0978588,24.7104891 C20.5332795,25.4058056 23.2938609,26.7642339 23.2938609,30.0453063 C23.2938609,32.8169363 21.2129603,35.9925194 15.585366,35.9925194" id="Fill-1" fill="#F68A23" sketch:type="MSShapeGroup"></path>
                            <path d="M70.4759143,30.5155452 C68.3227833,30.5155452 66.9700575,29.2375017 66.9700575,27.0430199 C66.9700575,24.8916467 68.4925121,23.4038925 70.8049074,23.4038925 C72.9858586,23.4038925 74.3107642,24.6692569 74.3107642,26.7164087 C74.3107642,29.0037009 72.6841753,30.5155452 70.4759143,30.5155452 M71.0522265,17.7718794 C65.1433673,17.7718794 61.4728863,21.4072031 61.4728863,26.904058 C61.4728863,32.5099523 64.8901778,35.9926208 70.3901566,35.9926208 C76.0302573,35.9926208 79.819676,32.0666944 79.819676,26.222942 C79.819676,20.9925997 76.6239252,17.7718794 71.0522265,17.7718794" id="Fill-3" fill="#F68A23" sketch:type="MSShapeGroup"></path>
                            <g id="Group-7">
                                <mask id="mask-2" sketch:name="Clip 6" fill="white">
                                    <use xlink:href="#path-1"></use>
                                </mask>
                                <g id="Clip-6"></g>
                                <path d="M128.161168,35.6743018 L117.357739,35.6743018 C117.063713,35.6743018 116.824306,35.4364437 116.824306,35.1443195 L116.824306,31.7440645 C116.824306,29.7780583 118.747473,27.7258349 120.445017,26.0590532 L120.849813,25.6614396 C121.802847,24.7277579 122.71147,23.3150634 123.048631,22.5883029 L117.857737,22.5883029 C117.563711,22.5883029 117.324304,22.350952 117.324304,22.0588278 L117.324304,18.4833489 C117.324304,18.1912247 117.563711,17.9533666 117.857737,17.9533666 L130.462334,17.9533666 C130.75636,17.9533666 130.995001,18.1912247 130.995001,18.4833489 L130.995001,22.0806356 C130.995001,24.105726 129.027934,26.4820247 127.329115,28.1401847 L127.208135,28.258353 C126.254846,29.1882311 124.761998,31.0350546 124.921518,31.0708094 C125.081037,31.1068178 125.603496,31.1400368 126.19257,31.1618447 C126.781388,31.1841597 130.334718,31.0751203 131.144567,30.8902604 C131.310722,30.852477 131.384995,30.8811315 131.402861,30.8836673 C131.755846,30.9419907 132.000102,31.2287898 132.000102,31.5817732 C132.000102,34.366843 130.744364,35.6743018 128.161168,35.6743018" id="Fill-5" fill="#F68A23" sketch:type="MSShapeGroup" mask="url(#mask-2)"></path>
                            </g>
                            <path d="M109.900672,36.0083681 C105.827437,36.0083681 103.297584,33.5471201 103.297584,29.5849317 L103.297584,22.5886579 L101.336387,22.5886579 C101.31163,22.5886579 101.281257,22.5851078 101.252161,22.5797826 C101.249608,22.579529 101.247311,22.579529 101.244759,22.5790219 C101.226382,22.5772468 101.196265,22.569893 101.164361,22.5569604 C101.149047,22.552396 101.134499,22.5468172 101.120206,22.5407313 C100.882331,22.4547677 100.713878,22.2554537 100.668957,22.0094811 C100.654409,21.952172 100.64956,21.8943557 100.654409,21.8360323 C100.65492,21.8284249 100.656961,21.8101672 100.658493,21.7992632 C100.659003,21.7941916 100.659514,21.7898807 100.660024,21.7848091 C100.660535,21.7810054 100.661045,21.7769482 100.662066,21.7726373 C100.856297,19.9633436 102.505857,19.1911923 103.786607,18.3112695 L108.857798,15.0672198 C108.948149,15.0045856 109.054326,14.9721273 109.163309,14.9721273 L109.62196,14.9721273 C109.915986,14.9721273 110.155393,15.2094783 110.155393,15.5018561 L110.155393,17.9511858 L113.789887,17.9511858 C114.084679,17.9511858 114.32332,18.1885368 114.32332,18.4809146 L114.32332,22.0586756 C114.32332,22.3510534 114.084679,22.5886579 113.789887,22.5886579 L110.155393,22.5886579 L110.155393,29.4066649 C110.155393,30.726042 110.743701,31.4525488 112.065544,31.4525488 C112.706685,31.4525488 113.316433,31.1951651 113.656911,30.8809794 C113.673756,30.8657646 113.696217,30.8490283 113.717656,30.8350814 C113.86033,30.7313671 114.035164,30.6864835 114.212294,30.7171667 C114.506831,30.7643326 114.704636,30.9976262 114.75951,31.3204336 C114.823318,31.701818 114.823318,31.9411976 114.823318,32.1871703 C114.823318,34.9613361 112.198775,36.0083681 109.900672,36.0083681" id="Fill-8" fill="#F68A23" sketch:type="MSShapeGroup"></path>
                            <path d="M45.1475794,32.5969303 C44.9747878,32.391784 44.6817823,32.310892 44.4168522,32.4001521 C44.212412,32.467858 44.0373233,32.4954982 43.8119541,32.4954982 C43.1950601,32.4954982 41.7509616,31.7918136 39.632542,27.7183035 C41.8221711,26.3684969 42.9668834,23.7518043 42.9668834,20.7691957 C42.9668834,20.1890045 42.791029,19.457426 42.6897022,18.8883924 C42.6447815,18.6343052 42.4240064,18.450206 42.1646915,18.450206 L36.664968,18.450206 C36.5059589,18.450206 36.3561381,18.5199405 36.2560875,18.6403911 C36.1542502,18.7610952 36.1118818,18.9195827 36.1404677,19.0768024 L36.1823256,19.3029958 C36.2887571,19.8667042 36.3888077,20.3987152 36.3888077,21.0826206 C36.3888077,23.7447041 35.6389382,25.4094571 33.4641125,25.4776702 L33.4641125,12.6858242 C33.4641125,12.3936999 33.2247056,12.1558419 32.930424,12.1558419 L27.1619419,12.1558419 C26.8679155,12.1558419 26.6282533,12.3936999 26.6282533,12.6858242 L26.6282533,35.1469313 C26.6282533,35.4390556 26.8679155,35.6769136 27.1619419,35.6769136 L32.930424,35.6769136 C33.2247056,35.6769136 33.4641125,35.4390556 33.4641125,35.1469313 L33.4641125,29.8032388 L33.4658992,29.8004494 C33.4658992,29.8004494 33.4909118,29.6860848 33.5912177,29.673913 C33.6774859,29.663009 33.7198543,29.7106821 33.7484402,29.7923348 C34.2946351,31.8838632 35.6871769,36.0083428 40.5888936,36.0083428 C41.680773,36.0083428 44.467388,35.9269436 45.1195039,33.7720203 C45.1850984,33.5526735 45.2874461,33.1608923 45.2902536,33.1444096 C45.3257308,32.9466172 45.2739188,32.7470497 45.1475794,32.5969303" id="Fill-10" fill="#F68A23" sketch:type="MSShapeGroup"></path>
                            <path d="M60.1127589,18.2867483 C59.7952512,18.1779625 59.4644714,18.1252178 59.1012773,18.1252178 C56.9300249,18.1252178 55.5185959,19.3921038 54.4593861,20.8022625 C54.2848079,20.9612572 54.181184,20.7789331 54.1714853,20.7599146 C53.5964492,19.0984581 51.8652155,18.4503075 50.1452119,18.4503075 C47.8565531,18.4503075 46.2585501,19.6931033 45.9739672,21.6616453 C45.9719253,21.6768601 45.9706492,21.6933428 45.9706492,21.7098255 C45.9410423,22.0488621 46.1801941,22.3612727 46.5232249,22.4188354 C46.5438986,22.4221319 46.5770787,22.425682 46.6181709,22.425682 C46.6891252,22.425682 46.8254187,22.416046 46.9453774,22.3508759 C47.0880517,22.2730268 47.2000982,22.2281432 47.3504294,22.2281432 C47.5316437,22.2281432 47.8055068,22.205321 47.8055068,23.1739968 L47.8055068,35.1467792 C47.8055068,35.439157 48.045169,35.6770151 48.3384297,35.6770151 L54.1033385,35.6770151 L54.103849,35.6770151 C54.2444814,35.6770151 54.3820511,35.6202131 54.481336,35.5218241 C54.5821524,35.42166 54.6372823,35.2885304 54.6372823,35.1467792 L54.6372823,25.9040397 L54.6372823,25.8794424 C54.6372823,24.9759367 56.7574885,24.172595 58.0540634,24.172595 C58.57448,24.172595 59.0101598,24.2395402 59.4259315,24.384588 C59.5828987,24.4383469 59.7569665,24.4162855 59.8953018,24.3257574 C60.0338924,24.2349757 60.1227129,24.082067 60.1331774,23.9187614 L60.471614,18.822563 C60.4871831,18.5839442 60.339149,18.3640902 60.1127589,18.2867483" id="Fill-12" fill="#F68A23" sketch:type="MSShapeGroup"></path>
                            <g id="Group-16">
                                <mask id="mask-4" sketch:name="Clip 15" fill="white">
                                    <use xlink:href="#path-3"></use>
                                </mask>
                                <g id="Clip-15"></g>
                                <path d="M100.198387,31.9681785 C100.098592,31.8294702 99.9505578,31.7381814 99.7815947,31.7105412 C99.6105898,31.6813795 99.4411162,31.7249952 99.3045675,31.8231307 C99.2882327,31.8330203 99.273174,31.8439243 99.2601572,31.8543211 C99.1930314,31.9093479 99.0687338,32.0153444 98.9092142,32.0153444 C98.7267239,32.0153444 98.3887977,32.0153444 98.3887977,31.0646728 L98.3887977,18.4807624 C98.3887977,18.1886382 98.149646,17.9512873 97.8553643,17.9512873 L92.1831045,17.9512873 C91.8888228,17.9512873 91.6491606,18.1886382 91.6491606,18.4807624 L91.6491606,28.5542302 C91.2025059,29.1009488 90.2293091,30.1500095 89.4414101,30.1500095 C89.3061375,30.1500095 88.8150726,30.1500095 88.8150726,29.3177598 L88.8150726,18.4807624 C88.8150726,18.1886382 88.5759209,17.9512873 88.2818944,17.9512873 L82.679568,17.9512873 C82.3855415,17.9512873 82.1461346,18.1886382 82.1461346,18.4807624 L82.1461346,30.9759198 C82.1461346,32.4618989 82.3102483,33.9798291 83.4952871,35.0131678 C84.2045748,35.6455965 85.1780269,36.0084696 86.1657719,36.0084696 C88.3776062,36.0084696 90.0784674,34.8605127 91.5539594,33.442493 L91.5748883,33.4262639 C91.8331824,33.2277107 91.9827479,33.4927018 91.9827479,33.4927018 C91.991681,33.510706 92.0011246,33.5249065 92.0105681,33.5406285 C92.5164365,34.6746385 93.759668,35.8426282 96.0822726,35.8426282 C98.8354524,35.8426282 100.086341,34.0224306 100.309158,32.4565737 C100.310434,32.4504878 100.310434,32.4446554 100.310944,32.4385695 C100.337488,32.272221 100.297672,32.1053653 100.198387,31.9681785" id="Fill-14" fill="#F68A23" sketch:type="MSShapeGroup" mask="url(#mask-4)"></path>
                            </g>
                            <path d="M13.9151325,16.2447188 C13.021823,16.3715089 11.6160092,16.3512225 9.61856924,17.966781 C7.90571215,19.3523424 7.22960451,19.951045 5.83629698,20.3240612 C4.50960482,20.6793269 2.57826976,20.6057887 2.02926729,19.6393951 C1.48843222,18.687202 1.7559146,17.1603964 2.51471718,16.4265357 C4.05988731,14.932442 5.6691205,14.1813379 11.002178,15.4388414 C12.8258054,15.8686596 13.4452517,16.0390654 13.9151325,16.2447188" id="Fill-17" fill="#363636" sketch:type="MSShapeGroup"></path>
                            <g id="Group-21" fill="#363636" sketch:type="MSShapeGroup">
                                <path d="M16.9242071,11.1772003 C16.5857705,11.3886861 16.2187479,11.6371946 15.8484073,11.8991428 C14.7248792,7.05373502 15.4188531,3.02891235 15.3820998,2.01053484 C15.3274803,0.489815239 14.4773049,0.328031162 13.6347865,0.0843407271 C12.7103388,-0.182932653 8.56078874,0.257535906 5.69734908,1.35832694 C-0.152296501,3.60732846 -0.0823631322,6.2364465 0.0281520096,6.90006551 C0.181801237,7.66866666 0.458216707,7.95039411 1.28210326,8.87494699 C3.18510764,11.0111054 4.94620343,13.8222939 4.94620343,13.8222939 C5.54650739,13.6384484 6.15140551,13.5248445 6.74711531,13.4637317 C6.10750573,11.9029465 4.67310597,9.46375989 3.98347107,8.49483049 C2.84590528,6.89702255 2.85943254,7.05322786 2.63942318,6.6102235 C2.53018419,6.39214465 2.53630974,6.19511295 2.9342153,5.85658357 C3.27954321,5.56268429 3.98704431,5.23581959 4.34207101,5.15619545 C4.66646996,5.08367156 5.0161368,5.28628202 5.2609036,5.79090634 C5.91199858,7.13335916 7.40382538,10.0043926 8.63429535,13.4312735 C10.462517,13.5395521 12.0301475,14.009436 12.8445905,14.2389259 C12.8430591,14.2412082 12.8361678,14.2478012 12.8371887,14.2478012 C14.7225822,14.7257997 15.4617319,14.8665366 17.4336488,14.92486 C19.202912,14.9770975 21.2304692,14.2138215 21.4492024,12.1823917 C21.617655,10.6167884 20.6664081,8.84096727 16.9242071,11.1772003" id="Fill-19"></path>
                            </g>
                        </g>
                    </g>
                </g>
            </g>
        </g>
    </g>
</svg>