<?xml version="1.0" encoding="utf-8"?>
<!-- Generator: Adobe Illustrator 15.0.2, SVG Export Plug-In . SVG Version: 6.00 Build 0)  -->
<!DOCTYPE svg PUBLIC "-//W3C//DTD SVG 1.1//EN" "http://www.w3.org/Graphics/SVG/1.1/DTD/svg11.dtd">
<svg version="1.1" id="Layer_1" xmlns="http://www.w3.org/2000/svg" xmlns:xlink="http://www.w3.org/1999/xlink" x="0px" y="0px"
	 width="350px" height="55.363px" viewBox="0 0 350 55.363" enable-background="new 0 0 350 55.363" xml:space="preserve">
<g>
	<g>
		<path fill="#F48120" d="M206.242,31.19c0,2.238-1.809,4.062-4.049,4.062h-12.53c-2.24,0-4.05-1.82-4.05-4.062v-6.533
			c0-2.247,1.81-4.071,4.05-4.071h12.53c2.24,0,4.049,1.824,4.049,4.071V31.19z"/>
		<path fill="#005E9C" d="M223.453,0.782c-0.986,0-1.848,0.268-2.439,0.875c-0.586,0.608-0.834,1.477-0.834,2.481v34.947
			c0,0.994,0.25,1.859,0.834,2.459c0.604,0.607,1.453,0.865,2.439,0.861h0.016c0.969,0,1.818-0.254,2.414-0.861
			c0.6-0.6,0.844-1.465,0.834-2.459V4.14c0-1.006-0.234-1.873-0.828-2.481C225.294,1.05,224.434,0.782,223.453,0.782
			 M208.412,23.194v9.326c-0.018,1.511-0.629,2.57-2.049,3.455c-1.254,0.793-2.684,1.177-4.34,1.177h-12.352
			c-1.697,0-3.096-0.394-4.236-1.146c-1.461-0.91-2.086-1.973-2.099-3.48v-9.323c0.015-1.411,0.636-2.474,2.083-3.396
			c1.27-0.822,2.65-1.234,4.253-1.234h12.351c1.613,0,3.045,0.412,4.34,1.234C207.787,20.708,208.396,21.778,208.412,23.194
			L208.412,23.194z M211.716,13.307c-1.215-0.031-2.254,0.549-2.838,1.551c-2.11-1.033-4.412-1.551-6.854-1.551h-12.348
			c-3.248,0-6.096,0.774-8.518,2.34c-2.844,1.869-4.354,4.455-4.336,7.547v9.328c-0.018,3.091,1.492,5.681,4.326,7.541
			c2.529,1.521,5.377,2.265,8.522,2.252h12.351c2.484,0,4.791-0.475,6.865-1.424c0.584,0.904,1.577,1.437,2.739,1.437
			c0.021,0,0.062,0,0.083-0.013c0.971,0.013,1.805-0.237,2.391-0.821c0.588-0.592,0.836-1.435,0.83-2.4V16.621
			c0-0.986-0.236-1.849-0.822-2.445C213.525,13.567,212.686,13.3,211.716,13.307 M261.818,15.647
			c0.011-0.738-0.414-1.396-1.063-1.815c-0.601-0.406-1.249-0.64-1.928-0.64c-1.005,0-1.996,0.322-2.931,0.934l-17.408,11.241V4.14
			c0-1.006-0.248-1.873-0.844-2.481c-0.588-0.607-1.447-0.875-2.434-0.875s-1.839,0.268-2.436,0.875
			c-0.602,0.608-0.848,1.477-0.848,2.481v34.946c0,0.994,0.246,1.859,0.854,2.461c0.591,0.605,1.441,0.863,2.43,0.859
			c0.979,0.004,1.836-0.254,2.434-0.859c0.596-0.602,0.844-1.467,0.844-2.461V32.14l4.854-3.199L255.18,41.3
			c0.952,0.979,1.981,1.543,3.082,1.543c0.678,0,1.346-0.195,1.953-0.545c0.729-0.396,1.244-1.058,1.237-1.855
			c-0.029-0.846-0.535-1.59-1.354-2.457l-11.613-12.291l11.346-7.463C261.003,17.446,261.784,16.688,261.818,15.647 M332.852,15.391
			c-2.418-1.566-5.264-2.338-8.506-2.338h-7.07c-2.539,0-4.818,0.514-6.777,1.537c-0.607-0.992-1.635-1.566-2.818-1.537
			c-0.974,0-1.818,0.246-2.402,0.838c-0.604,0.599-0.854,1.438-0.846,2.416V38.89c-0.009,0.944,0.254,1.778,0.846,2.36
			c0.599,0.562,1.434,0.806,2.402,0.806h0.014c0.961,0,1.805-0.232,2.397-0.806c0.604-0.569,0.854-1.416,0.854-2.36V22.994
			c0.021-1.51,0.638-2.614,2.021-3.559c1.234-0.814,2.667-1.221,4.312-1.221h7.07c1.654,0,3.067,0.395,4.297,1.172
			c1.449,0.944,2.076,2.029,2.088,3.463c0,0.992,0.244,1.842,0.822,2.459c0.592,0.605,1.432,0.859,2.401,0.854
			c0.981,0,1.825-0.232,2.437-0.809c0.597-0.575,0.865-1.418,0.865-2.363C337.271,19.864,335.738,17.254,332.852,15.391
			 M294.137,23.875h-25.072v-0.707c0.019-1.397,0.633-2.459,2.086-3.389c1.268-0.813,2.656-1.217,4.25-1.217h12.354
			c1.604,0,3.038,0.399,4.331,1.217c1.438,0.926,2.044,1.988,2.059,3.389v0.707H294.137z M296.268,15.704
			c-2.556-1.597-5.396-2.396-8.518-2.396h-12.352c-3.239,0-6.104,0.774-8.508,2.34c-2.854,1.869-4.361,4.455-4.348,7.547v9.328
			c-0.021,3.092,1.492,5.682,4.344,7.541c2.521,1.521,5.361,2.266,8.512,2.252h12.352h0.032c4.831,0.014,8.899-2.172,12.03-6.387
			c0.477-0.543,0.742-1.234,0.729-1.97c0.016-0.844-0.52-1.53-1.271-1.977c-0.601-0.365-1.312-0.539-2.09-0.539
			c-1.188-0.016-2.211,0.668-2.904,1.783h-0.297l-0.133,0.43c-0.722,2.314-2.529,3.461-6.1,3.492h-12.352
			c-1.701,0-3.104-0.394-4.23-1.148c-1.465-0.907-2.085-1.973-2.104-3.479v-3.396h31.588v-5.929
			C300.67,20.138,299.134,17.571,296.268,15.704 M169.87,13.1c-0.979,0-1.822,0.25-2.427,0.821
			c-0.599,0.584-0.855,1.429-0.852,2.386v15.871c-0.01,1.5-0.63,2.601-2.033,3.521c-1.227,0.776-2.663,1.178-4.355,1.178h-7.032
			c-1.677,0-3.104-0.408-4.332-1.199c-1.401-0.926-2.021-2.02-2.028-3.496V16.307c0-0.957-0.257-1.802-0.868-2.386
			c-0.602-0.579-1.453-0.821-2.441-0.821c-0.971,0-1.807,0.25-2.397,0.821c-0.594,0.584-0.856,1.438-0.846,2.386v15.871
			c-0.018,1.527-0.631,2.611-2.03,3.517c-1.231,0.782-2.671,1.186-4.39,1.186h-7.003c-1.68,0-3.104-0.415-4.332-1.211
			c-1.406-0.924-2.016-2.016-2.032-3.494V16.284c0.007-0.951-0.253-1.783-0.851-2.365c-0.606-0.572-1.45-0.814-2.424-0.814
			c-0.979,0-1.826,0.252-2.419,0.822c-0.602,0.584-0.863,1.428-0.859,2.385v15.855c-0.012,3.154,1.515,5.754,4.381,7.562
			c2.449,1.562,5.312,2.332,8.534,2.332h7.002c3.88,0.009,7.14-1.092,9.673-3.313c2.559,2.219,5.812,3.313,9.632,3.313h7.058
			c3.235,0,6.103-0.77,8.542-2.332c2.838-1.812,4.356-4.422,4.34-7.577V16.281c0.003-0.951-0.25-1.783-0.837-2.358
			C171.658,13.343,170.829,13.1,169.87,13.1 M69.875,15.647c0.003-0.738-0.424-1.396-1.066-1.815c-0.598-0.406-1.252-0.64-1.92-0.64
			c-1.013,0-1.995,0.322-2.942,0.922L46.543,25.366V4.14c0.007-1.006-0.254-1.873-0.84-2.481c-0.597-0.607-1.452-0.875-2.435-0.875
			c-0.982,0-1.837,0.268-2.435,0.875C40.244,2.267,39.99,3.135,39.99,4.14v34.946c0,0.994,0.253,1.859,0.847,2.461
			c0.593,0.605,1.448,0.863,2.43,0.859c0.98,0.004,1.839-0.254,2.435-0.859c0.584-0.602,0.847-1.467,0.84-2.461V32.14l4.854-3.199
			L63.245,41.3c0.938,0.977,1.97,1.543,3.074,1.543h0.003c0.678,0,1.34-0.195,1.947-0.55c0.726-0.393,1.24-1.053,1.23-1.854
			c-0.02-0.844-0.53-1.586-1.347-2.453l-11.62-12.293l11.347-7.464C69.062,17.438,69.841,16.688,69.875,15.647 M8.061,19.119
			c0.914-0.582,1.958-0.879,3.191-0.879h12.09c3.518,0.037,5.439,1.195,6.314,3.555l0.149,0.406h0.228
			c0.689,1.101,1.706,1.767,2.893,1.75c0.447,0,0.909-0.092,1.381-0.258c1.145-0.393,1.988-1.184,1.975-2.274
			c0-0.654-0.279-1.299-0.739-1.958l-0.075-0.108l-0.099-0.059c-0.012-0.009-0.022-0.017-0.029-0.017l-0.009-0.033l-0.038-0.065
			c-2.162-4.066-6.273-6.091-11.953-6.074H11.252c-2.781-0.006-5.255,0.65-7.381,1.951C1.349,16.597-0.011,18.862,0,21.604
			c-0.013,2.703,1.347,4.964,3.864,6.535C6.02,29.502,8.5,30.18,11.252,30.18h13.985c1.237,0,2.27,0.299,3.137,0.873
			c0.987,0.685,1.407,1.439,1.422,2.551c-0.017,1.021-0.429,1.74-1.435,2.412c-0.889,0.562-1.908,0.859-3.107,0.859H12.912
			c-3.457-0.043-5.344-1.15-6.223-3.396V33.25L6.6,33.104c-0.823-1.272-1.956-2.051-3.263-2.03c-0.951,0-1.736,0.155-2.335,0.592
			c-0.609,0.428-0.922,1.147-0.909,1.925c0,0.614,0.228,1.257,0.623,1.938l0.054,0.104l0.122,0.1
			c2.003,4.205,6.114,6.332,11.933,6.332h12.416c2.748,0,5.2-0.65,7.299-1.982c2.451-1.518,3.763-3.756,3.746-6.471
			c0.017-2.732-1.295-4.979-3.735-6.572c-2.09-1.363-4.55-2.048-7.311-2.048H11.252c-1.232,0-2.278-0.291-3.19-0.873
			c-1.069-0.693-1.499-1.44-1.515-2.49C6.562,20.561,6.992,19.811,8.061,19.119 M106.973,13.104
			c-0.971-0.004-1.808,0.246-2.402,0.815c-0.597,0.584-0.845,1.437-0.845,2.386v15.873c-0.013,1.457-0.635,2.558-2.062,3.498
			c-1.229,0.791-2.66,1.197-4.355,1.197H84.98c-1.671,0-3.099-0.418-4.324-1.213c-1.405-0.922-2.016-2.017-2.032-3.496V16.281
			c0.005-0.951-0.257-1.795-0.851-2.365c-0.606-0.573-1.449-0.815-2.423-0.811c-0.983-0.006-1.826,0.246-2.423,0.813
			c-0.597,0.584-0.858,1.431-0.858,2.386V32.16c-0.011,3.153,1.518,5.754,4.382,7.562c2.453,1.562,5.314,2.334,8.53,2.334h12.327
			c2.256,0,4.394-0.43,6.417-1.285v3.938c-0.013,1.459-0.635,2.543-2.083,3.477c-1.256,0.802-2.678,1.201-4.335,1.201H84.98
			c-3.845-0.062-5.761-1.637-6.45-5.227c-0.224-1.676-1.499-2.758-3.178-2.697c-0.983,0-1.826,0.242-2.423,0.832
			c-0.597,0.596-0.858,1.438-0.858,2.395c-0.012,3.173,1.523,5.771,4.386,7.562c2.459,1.564,5.327,2.33,8.523,2.33h12.335
			c3.165,0,6.01-0.78,8.5-2.362c2.879-1.81,4.42-4.392,4.403-7.515V16.307c0-0.957-0.253-1.802-0.843-2.386
			C108.783,13.35,107.94,13.1,106.973,13.104"/>
	</g>
	<rect x="320.713" y="43.805" fill="#005E9C" width="1.984" height="1.814"/>
	<g>
		<path fill="#F48120" d="M350,43.479c0,4.979-3.977,9.021-8.887,9.021h-13.567c-4.903,0-8.88-4.041-8.88-9.021v-6.067
			c0-4.98,3.979-9.031,8.88-9.031h13.567c4.91,0,8.887,4.051,8.887,9.031V43.479z"/>
		<path fill="#005E9C" d="M336.18,40.098v1.021c0,1.752-0.27,2.926-0.826,3.531c-0.596,0.641-1.746,0.969-3.463,0.969h-3.137
			c-1.863,0-3.104-0.353-3.714-1.076c-0.547-0.643-0.825-1.918-0.825-3.807c0-1.466,0.088-2.521,0.258-3.185
			c0.232-0.822,0.676-1.403,1.344-1.758c0.664-0.352,1.703-0.531,3.117-0.531h2.83c1.375,0,2.385,0.174,3.035,0.511
			c0.924,0.465,1.381,1.312,1.374,2.557h-1.782c0-0.56-0.275-0.99-0.812-1.273c-0.415-0.198-0.921-0.303-1.539-0.303l-1.726-0.021
			c-0.18,0-0.631,0.014-1.324,0.021c-1.36,0.027-2.235,0.324-2.618,0.9c-0.271,0.436-0.413,1.381-0.413,2.834
			c0,1.021,0.036,1.703,0.098,2.045c0.107,0.533,0.358,0.901,0.756,1.119c0.392,0.205,1.063,0.313,2.006,0.313h3.037
			c1.039,0,1.711-0.123,2.016-0.373c0.337-0.293,0.505-0.949,0.505-1.975h-4.329v-1.525L336.18,40.098L336.18,40.098z"/>
		<path fill="#005E9C" d="M344.271,36.875h-2.131c-0.787,0-1.451,0.229-1.977,0.705c-0.521,0.469-0.791,1.102-0.791,1.869v6.17
			h-1.732V35.344h1.732v1.351c0.629-0.892,1.547-1.351,2.768-1.351h2.131c1.146,0,2.07,0.24,2.773,0.73
			c0.771,0.563,1.188,1.358,1.229,2.403h-1.732C346.406,37.41,345.657,36.875,344.271,36.875"/>
	</g>
	<rect x="321.124" y="43.787" fill="#005E9C" width="1.976" height="1.813"/>
</g>
</svg>
