<svg xmlns="http://www.w3.org/2000/svg" viewBox="0 0 294.68 94.24"><defs><style>.cls-1{fill:#00aeef;}.cls-2{fill:#231f20;}.cls-3{fill:#f1f2f2;}</style></defs><title>Asset 1</title><g id="Layer_2" data-name="Layer 2"><g id="Layer_1-2" data-name="Layer 1"><path class="cls-1" d="M118.66,18.08c0-5.92,3.11-7.81,7.49-7.81,4.57,0,6.32,3,6.32,7.36v1.59h-9.4c0,2.28,1.78,2.71,4.09,2.71a30,30,0,0,0,4.14-.59l.66,3.38a20.45,20.45,0,0,1-5.44.71C121.74,25.43,118.66,23.87,118.66,18.08Zm9.27-1.7c0-1.75-.72-3-2.15-3s-2.5,1.07-2.58,3Z"/><path class="cls-1" d="M135.28,10.62h4.41v1a6.49,6.49,0,0,1,3.51-1.41c4,0,6.39,1.84,6.39,7,0,6.06-3.9,8.18-8.12,8.18-.67,0-1.25-.08-1.78-.11V31h-4.41Zm9.85,6.72c0-2.61-1-3.38-3.26-3.38a7.43,7.43,0,0,0-2.18.4v7.49a15.76,15.76,0,0,0,1.89.16C143.83,22,145.13,20,145.13,17.34Z"/><path class="cls-1" d="M152.41,10.62h4.43v1.93a5.19,5.19,0,0,1,3.75-2.23,6.7,6.7,0,0,1,2,.24L162,14.2a8.2,8.2,0,0,0-1.94-.16,4.78,4.78,0,0,0-3.22,1.25v9.83h-4.43Z"/><path class="cls-1" d="M162.84,18c0-4.81,3-7.76,7.6-7.76,5.15,0,7.46,2.9,7.46,7.63,0,4.94-3.24,7.56-7.7,7.56C165.42,25.43,162.84,22.54,162.84,18Zm10.55-.13c0-2.34-.59-4.12-3-4.12s-3.05,1.78-3.05,4.14.74,4,3.1,4S173.39,20.34,173.39,17.87Z"/><path class="cls-1" d="M179.92,17.63c0-5,3.48-7.39,7.88-7.39a15.42,15.42,0,0,1,1.92.16V5.09h4.43v20h-4.43v-1a4.64,4.64,0,0,1-3.3,1.25C183.5,25.33,179.92,23.92,179.92,17.63Zm9.8,3.55V13.94a9.71,9.71,0,0,0-1.84-.19c-2.52,0-3.55,1.43-3.55,4,0,3.16,1.4,3.95,3,3.95A7,7,0,0,0,189.72,21.18Z"/><path class="cls-1" d="M196.81,19.62v-9h4.4v8.63c0,2,.46,2.33,1.94,2.33a7.86,7.86,0,0,0,3.24-.71V10.62h4.44v14.5h-4.44V23.63a8.61,8.61,0,0,1-4.72,1.8C197.13,25.43,196.81,22.91,196.81,19.62Z"/><path class="cls-1" d="M213.64,17.73c0-4.51,3-7.49,7.94-7.49a9.23,9.23,0,0,1,4.62,1l-1.14,3.22a7.55,7.55,0,0,0-3.29-.61c-1.83,0-3.59.82-3.59,3.93,0,2.78.67,4.09,4.15,4.09a14.58,14.58,0,0,0,3.08-.38l.61,3.38a15.32,15.32,0,0,1-3.93.53C216,25.41,213.64,23.15,213.64,17.73Z"/><path class="cls-1" d="M229.23,20.6V13.88h-2.12V10.62h2.12v-3h4.41v3h4.48v3.26h-4.48v6.69c0,1.07.4,1.15,1.59,1.15,1,0,3.13-.3,3.13-.3l.43,3.48a14,14,0,0,1-3.51.51C232.5,25.41,229.23,25.54,229.23,20.6Z"/><path class="cls-1" d="M240.33,6.1l2.95-2.95,3,2.95-3,3Zm.77,4.52h4.41v14.5H241.1Z"/><path class="cls-1" d="M248.32,18c0-4.81,3-7.76,7.6-7.76,5.15,0,7.46,2.9,7.46,7.63,0,4.94-3.24,7.56-7.7,7.56C250.9,25.43,248.32,22.54,248.32,18Zm10.54-.13c0-2.34-.58-4.12-3-4.12s-3.06,1.78-3.06,4.14.75,4,3.11,4S258.86,20.34,258.86,17.87Z"/><path class="cls-1" d="M266.19,10.62h4.44v1.46a8.57,8.57,0,0,1,4.72-1.84c4.54,0,4.86,2.5,4.86,5.79v9.09h-4.4V16.41c0-2-.46-2.34-1.94-2.34a7.63,7.63,0,0,0-3.24.77V25.12h-4.44Z"/><path class="cls-1" d="M283,24.82l.48-3.34a35.39,35.39,0,0,0,4.38.4c2.23,0,2.49-.59,2.49-1,0-1.57-7.3-.83-7.3-6,0-3.14,2.95-4.6,6.11-4.6a14.48,14.48,0,0,1,4.88.83l-.74,3.21a16.7,16.7,0,0,0-4-.53c-1.51,0-1.8.56-1.8.88,0,1.64,7.24,1.19,7.24,6,0,3.82-4,4.75-6.45,4.75A18.87,18.87,0,0,1,283,24.82Z"/><path class="cls-2" d="M118.71,35.79l3-2.95,3,2.95-3,3Zm.77,4.51h4.41V54.8h-4.41Z"/><path class="cls-2" d="M127.5,40.3h4.44v1.46a8.61,8.61,0,0,1,4.72-1.83c4.55,0,4.86,2.5,4.86,5.79V54.8h-4.41V46.09c0-2-.45-2.34-1.93-2.34a7.78,7.78,0,0,0-3.24.77V54.8H127.5Z"/><path class="cls-2" d="M145.67,50.29V43.57h-2.13V40.3h2.13v-3h4.4v3h4.49v3.27h-4.49v6.69c0,1.06.4,1.14,1.6,1.14,1,0,3.13-.29,3.13-.29l.42,3.48a14.36,14.36,0,0,1-3.5.5C148.93,55.09,145.67,55.23,145.67,50.29Z"/><path class="cls-2" d="M156.71,47.76c0-5.92,3.11-7.8,7.49-7.8,4.57,0,6.32,3,6.32,7.35v1.6h-9.4c0,2.28,1.78,2.7,4.09,2.7a29.78,29.78,0,0,0,4.14-.58L170,54.4a20.53,20.53,0,0,1-5.45.72C159.79,55.12,156.71,53.55,156.71,47.76Zm9.27-1.7c.05-1.75-.72-3-2.15-3s-2.5,1.06-2.58,3Z"/><path class="cls-2" d="M173.33,40.3h4.44v1.94A5.14,5.14,0,0,1,181.51,40a6.35,6.35,0,0,1,2,.24l-.58,3.64a8.15,8.15,0,0,0-1.94-.16A4.73,4.73,0,0,0,177.77,45V54.8h-4.44Z"/><path class="cls-2" d="M184.12,50.66c0-3.67,3.34-4.41,6.21-4.41h2.52v-.9c0-1.28-.82-1.65-2.63-1.65a19.6,19.6,0,0,0-4.33.64L185,41.12A16.07,16.07,0,0,1,190.89,40c4.48,0,6.29,1.27,6.29,4.54V51c0,.48.48.58,1.3.61l-.16,3.35c-.34,0-.69,0-1,0-1.76,0-3.62-.29-4-1.54A7.14,7.14,0,0,1,189.11,55C185.92,55,184.12,53.55,184.12,50.66Zm8.73.45V48.83l-2.18.05c-1.3,0-2.25.45-2.25,1.51,0,.85.82,1.22,1.62,1.22A11,11,0,0,0,192.85,51.11Z"/><path class="cls-2" d="M200.76,47.42c0-4.52,3-7.49,7.94-7.49a9.23,9.23,0,0,1,4.62,1l-1.14,3.21a7.53,7.53,0,0,0-3.29-.61c-1.83,0-3.58.82-3.58,3.93,0,2.79.66,4.09,4.14,4.09a15.25,15.25,0,0,0,3.08-.37l.61,3.37a14.89,14.89,0,0,1-3.93.53C203.07,55.09,200.76,52.84,200.76,47.42Z"/><path class="cls-2" d="M216.35,50.29V43.57h-2.12V40.3h2.12v-3h4.41v3h4.49v3.27h-4.49v6.69c0,1.06.4,1.14,1.59,1.14,1,0,3.14-.29,3.14-.29l.42,3.48a14.36,14.36,0,0,1-3.5.5C219.62,55.09,216.35,55.23,216.35,50.29Z"/><path class="cls-2" d="M227.45,35.79l3-2.95,3,2.95-3,3Zm.77,4.51h4.41V54.8h-4.41Z"/><path class="cls-2" d="M234.65,40.3h4.75l2.44,7.86.75,2.9.82-2.9,2.71-7.86h4.65l-5.63,14.5h-5.26Z"/><path class="cls-2" d="M251.75,47.76c0-5.92,3.11-7.8,7.49-7.8,4.56,0,6.32,3,6.32,7.35v1.6h-9.4c0,2.28,1.78,2.7,4.09,2.7a30,30,0,0,0,4.14-.58l.66,3.37a20.45,20.45,0,0,1-5.44.72C254.83,55.12,251.75,53.55,251.75,47.76Zm9.27-1.7c.05-1.75-.72-3-2.15-3s-2.5,1.06-2.58,3Z"/><path class="cls-2" d="M117.86,70h4.65l1.86,10.89L127,70h5.24l2.25,10.89L136.9,70h4.54l-4.3,14.5H131.7L130,76.57l-.48-2.41L129,76.57l-1.88,7.92h-5.5Z"/><path class="cls-2" d="M142.19,77.45c0-5.92,3.1-7.81,7.49-7.81,4.56,0,6.32,3,6.32,7.36v1.59h-9.4c0,2.29,1.77,2.71,4.08,2.71a31.5,31.5,0,0,0,4.15-.58l.66,3.37a20.45,20.45,0,0,1-5.44.72C145.27,84.81,142.19,83.24,142.19,77.45Zm9.27-1.7c0-1.75-.72-3-2.16-3s-2.49,1.06-2.57,3Z"/><path class="cls-2" d="M158.81,83.82V64.46h4.41v5.69a11.14,11.14,0,0,1,2.95-.51c4.35,0,7,1.73,7,6.83,0,6.26-3.93,8.31-8.12,8.31A17.51,17.51,0,0,1,158.81,83.82Zm4.41-10.54V81a8.21,8.21,0,0,0,1.86.3c2.25,0,3.53-2.13,3.53-4.84s-.88-3.56-3.24-3.56A7,7,0,0,0,163.22,73.28Z"/><path class="cls-2" d="M182.55,80V73.25h-2.13V70h2.13V67H187v3h4.48v3.26H187V80c0,1.06.39,1.14,1.59,1.14,1,0,3.13-.29,3.13-.29l.43,3.47a14,14,0,0,1-3.51.51C185.81,84.78,182.55,84.91,182.55,80Z"/><path class="cls-2" d="M193.6,77.45c0-5.92,3.1-7.81,7.48-7.81,4.57,0,6.32,3,6.32,7.36v1.59H198c0,2.29,1.78,2.71,4.09,2.71a31.5,31.5,0,0,0,4.15-.58l.66,3.37a20.45,20.45,0,0,1-5.44.72C196.68,84.81,193.6,83.24,193.6,77.45Zm9.26-1.7c.06-1.75-.71-3-2.15-3s-2.5,1.06-2.57,3Z"/><path class="cls-2" d="M209.42,80.34c0-3.66,3.35-4.4,6.21-4.4h2.53V75c0-1.27-.83-1.64-2.63-1.64a20.2,20.2,0,0,0-4.33.63l-.88-3.21a15.86,15.86,0,0,1,5.87-1.17c4.49,0,6.3,1.28,6.3,4.54v6.46c0,.47.47.58,1.3.61l-.16,3.34c-.35,0-.69,0-1,0-1.75,0-3.61-.29-4-1.54a7.15,7.15,0,0,1-4.17,1.65C211.23,84.73,209.42,83.24,209.42,80.34Zm8.74.46V78.51l-2.18.06c-1.3,0-2.26.45-2.26,1.51,0,.85.83,1.22,1.62,1.22A11.57,11.57,0,0,0,218.16,80.8Z"/><path class="cls-2" d="M226.87,70h4.43v1.46a8.31,8.31,0,0,1,4.7-1.86c2.07,0,3.48.85,4.06,2.2a8.28,8.28,0,0,1,5-2.2c4.72,0,4.64,3.37,4.64,5.82v9.08h-4.43V75.78c0-1.78-.45-2.34-1.83-2.34a7.38,7.38,0,0,0-3,.82,8.4,8.4,0,0,1,.05,1.12v9.11h-4.41V75.78c0-2-.48-2.29-1.8-2.29a7,7,0,0,0-3,.72V84.49h-4.43Z"/><path class="cls-2" d="M94.24,47.12A47.12,47.12,0,1,0,47.11,94.24,47.13,47.13,0,0,0,94.24,47.12Z"/><polygon class="cls-3" points="45.9 61.65 52.77 32.59 43.33 32.59 36.46 61.65 45.9 61.65"/><polygon class="cls-3" points="63.12 61.65 69.98 32.59 60.54 32.59 53.67 61.65 63.12 61.65"/><path class="cls-3" d="M30.61,39.24A4.59,4.59,0,1,0,26,43.83,4.6,4.6,0,0,0,30.61,39.24Z"/><path class="cls-3" d="M30.61,54.17A4.59,4.59,0,1,0,26,58.75,4.59,4.59,0,0,0,30.61,54.17Z"/></g></g></svg>