<?xml version="1.0" encoding="utf-8"?>
<!-- Generator: Adobe Illustrator 17.0.0, SVG Export Plug-In . SVG Version: 6.00 Build 0)  -->
<!DOCTYPE svg PUBLIC "-//W3C//DTD SVG 1.1//EN" "http://www.w3.org/Graphics/SVG/1.1/DTD/svg11.dtd">
<svg version="1.1" id="Layer_1" xmlns="http://www.w3.org/2000/svg" xmlns:xlink="http://www.w3.org/1999/xlink" x="0px" y="0px"
	 width="458px" height="174.002px" viewBox="0 0 458 174.002" enable-background="new 0 0 458 174.002" xml:space="preserve">
<g>
	<polygon fill-rule="evenodd" clip-rule="evenodd" fill="#00639F" points="0,0 336.839,0 274.121,143.393 0,143.393 0,0 	"/>
	<polygon fill-rule="evenodd" clip-rule="evenodd" fill="#004B87" points="306.688,0 333.997,0 268.235,143.393 306.688,0 	"/>
	<polygon fill-rule="evenodd" clip-rule="evenodd" fill="#74ABCE" points="322.337,30.611 458,30.611 458,174.003 259.71,174.003 
		322.337,30.611 	"/>
	<polygon fill-rule="evenodd" clip-rule="evenodd" fill="#003F74" points="336.839,0 260.487,174.002 254.805,174.002 331.157,0 
		336.839,0 	"/>
	<path fill="#FFFFFF" d="M73.779,31.348c8.284,0,15.463,1.978,21.541,5.928c6.078,3.951,10.486,8.889,13.222,14.816
		c2.735,5.928,4.103,12.308,4.103,19.147c0,6.84-1.369,13.223-4.103,19.15c-2.736,5.925-7.144,10.863-13.222,14.814
		c-6.078,3.951-13.257,5.927-21.541,5.927H43.692V31.348H73.779L73.779,31.348z M64.092,49.927v42.626h9.687
		c4.027,0,7.544-1.045,10.542-3.134c3.003-2.09,5.169-4.731,6.497-7.921c1.33-3.192,1.995-6.611,1.995-10.258
		c0-3.647-0.665-7.064-1.995-10.255c-1.328-3.191-3.494-5.832-6.497-7.923c-2.998-2.09-6.515-3.134-10.542-3.134H64.092
		L64.092,49.927z"/>
	<polygon fill="#FFFFFF" points="176.192,31.348 176.192,49.584 146.674,49.584 146.674,60.868 173.799,60.868 173.799,78.992 
		146.674,78.992 146.674,93.009 177.218,93.009 177.218,111.13 126.385,111.13 126.385,31.348 176.192,31.348 	"/>
	<polygon fill="#FFFFFF" points="207.699,31.348 226.389,76.598 226.96,76.598 245.196,31.348 264.8,31.348 264.8,34.425 
		230.948,112.043 222.287,112.043 188.095,34.425 188.095,31.348 207.699,31.348 	"/>
	<path fill="#FFFFFF" d="M378.188,77.355V74.85c0-0.875,0.186-1.442,0.548-1.697c0.367-0.254,0.877-0.383,1.534-0.383h7.446
		c0.729,0,1.261,0.129,1.588,0.383c0.132,0.1,0.235,0.255,0.314,0.456c0.119,0.223,0.179,0.51,0.179,0.867v0.374v11.724v2.254
		h11.728c0.875,0,1.441,0.181,1.699,0.548c0.255,0.366,0.383,0.875,0.383,1.532v5.479c0,0.731-0.128,1.26-0.383,1.587
		c-0.258,0.329-0.824,0.495-1.699,0.495h-11.728v27.281c0,1.462,0.112,2.592,0.33,3.398c0.22,0.803,0.603,1.405,1.151,1.805
		c0.55,0.402,1.295,0.64,2.247,0.714c0.95,0.072,2.154,0.108,3.614,0.108c0.805,0,1.956-0.036,3.449-0.108
		c1.5-0.074,2.795-0.184,3.895-0.329c0.58-0.072,1.019,0,1.312,0.22c0.292,0.218,0.511,0.656,0.657,1.314l0.77,5.478
		c0.214,1.242-0.26,2.155-1.427,2.739c-0.95,0.438-2.063,0.804-3.34,1.095c-1.277,0.293-2.591,0.529-3.946,0.712
		c-1.349,0.184-2.632,0.31-3.834,0.385c-1.203,0.073-2.251,0.108-3.126,0.108c-3.21,0-5.715-0.455-7.502-1.369
		c-1.792-0.915-3.126-2.173-4.002-3.78c-0.871-1.608-1.422-3.467-1.641-5.588c-0.223-2.119-0.33-4.344-0.33-6.684V98.47h-5.478
		c-0.805,0-1.351-0.165-1.641-0.495c-0.295-0.328-0.437-0.856-0.437-1.587v-5.368c0-0.733,0.142-1.278,0.437-1.644
		c0.29-0.367,0.836-0.548,1.641-0.548h5.585V77.542l0.005-0.15V77.355L378.188,77.355z"/>
	<path fill="#FFFFFF" d="M360.875,78.161c0,0.878-0.072,1.701-0.216,2.463c-0.148,0.769-0.457,1.445-0.931,2.028
		c-0.478,0.585-1.135,1.042-1.971,1.37c-0.843,0.329-1.959,0.495-3.345,0.495c-1.46,0-2.611-0.183-3.453-0.547
		c-0.835-0.365-1.476-0.842-1.919-1.425c-0.438-0.584-0.729-1.259-0.871-2.027c-0.148-0.767-0.22-1.553-0.22-2.357
		c0-1.753,0.418-3.23,1.258-4.437c0.841-1.205,2.572-1.806,5.204-1.806c2.7,0,4.456,0.566,5.26,1.698
		C360.476,74.749,360.875,76.264,360.875,78.161L360.875,78.161z M360.218,143.296l-0.005,0.097h-11.937v-0.097V93.775
		c0-1.39,0.733-2.084,2.189-2.084h7.782c0.805,0,1.334,0.202,1.588,0.603c0.255,0.402,0.383,0.894,0.383,1.481V143.296
		L360.218,143.296z"/>
</g>
</svg>
