<?xml version="1.0" encoding="utf-8"?>
<!-- Generator: Adobe Illustrator 16.0.0, SVG Export Plug-In . SVG Version: 6.00 Build 0)  -->
<!DOCTYPE svg PUBLIC "-//W3C//DTD SVG 1.1//EN" "http://www.w3.org/Graphics/SVG/1.1/DTD/svg11.dtd">
<svg version="1.1" id="Layer_1" xmlns="http://www.w3.org/2000/svg" xmlns:xlink="http://www.w3.org/1999/xlink" x="0px" y="0px"
	 width="330.457px" height="96.363px" viewBox="4.851 3.318 330.457 96.363" enable-background="new 4.851 3.318 330.457 96.363"
	 xml:space="preserve">
<g>
	<g>
		<polygon fill="#FFCD09" points="21.854,20.564 21.854,38.242 21.854,64.756 21.854,82.434 39.532,82.434 79.649,82.434 
			79.649,65.08 39.114,65.08 39.114,38.082 79.649,38.082 79.649,20.564 39.532,20.564 		"/>
		<polygon fill="#F58220" points="21.854,3.318 4.851,20.564 4.851,82.434 21.854,99.682 79.649,99.682 79.649,83.08 79.649,82.434 
			39.532,82.434 21.854,82.434 21.854,64.756 21.854,38.242 21.854,20.564 39.532,20.564 79.649,20.564 79.649,20.08 79.649,3.318 
					"/>
	</g>
	<g>
		<g>
			<path fill="none" d="M210.589,35.408c-0.442-0.723-1.026-1.299-1.75-1.729c-0.725-0.433-1.6-0.646-2.629-0.646
				c-3.778-0.027-5.67,2.643-5.67,8.008c0,1.058,0.104,2.07,0.312,3.043c0.209,0.976,0.533,1.822,0.979,2.543
				c0.445,0.726,1.029,1.31,1.752,1.754c0.724,0.443,1.599,0.666,2.627,0.666c3.781,0.029,5.672-2.641,5.672-8.006
				c0-1.086-0.104-2.112-0.312-3.086C211.36,36.979,211.034,36.131,210.589,35.408z"/>
			<path fill="none" d="M187.433,33.156c-1.916,0-3.418,0.633-4.504,1.896c-1.084,1.266-1.625,3.288-1.625,6.067
				c0,1.142,0.09,2.197,0.271,3.172c0.18,0.974,0.479,1.808,0.896,2.5c0.416,0.697,0.965,1.246,1.646,1.648
				c0.681,0.401,1.508,0.604,2.482,0.604c1.418,0,2.543-0.366,3.377-1.104c0.834-0.738,1.401-1.857,1.709-3.357V34.24
				c-0.498-0.389-1.07-0.668-1.709-0.834C189.337,33.24,188.491,33.156,187.433,33.156z"/>
			<path fill="none" d="M253.845,32.845c-4.296,0-6.173,4.002-6.173,7.797c0,4.422,2.502,7.756,6.089,7.756
				c3.504,0,6.131-3.295,6.131-7.84C259.892,37.14,258.183,32.845,253.845,32.845z"/>
			<path fill="none" d="M125.365,40.039c-1.252,0-2.516,0.049-3.795,0.146c-1.279,0.097-2.189,0.508-2.732,1.229
				c-0.541,0.724-0.812,1.433-0.812,2.127c0,0.974,0.348,1.771,1.043,2.398c0.693,0.625,1.584,0.938,2.67,0.938
				c0.777,0,1.568-0.104,2.375-0.312s1.432-0.474,1.877-0.793c0.445-0.318,0.814-0.674,1.105-1.062
				c0.293-0.389,0.508-0.766,0.646-1.127v-3.463c-0.389-0.024-0.785-0.047-1.188-0.061C126.15,40.047,125.754,40.039,125.365,40.039
				z"/>
			<path fill="none" d="M160.373,40.039c-1.25,0-2.516,0.049-3.793,0.146c-1.281,0.098-2.188,0.508-2.731,1.229
				c-0.543,0.723-0.814,1.433-0.814,2.127c0,0.974,0.348,1.771,1.045,2.398c0.693,0.625,1.584,0.938,2.668,0.938
				c0.777,0,1.57-0.104,2.377-0.312c0.808-0.208,1.433-0.474,1.877-0.793c0.443-0.318,0.812-0.674,1.104-1.062
				c0.293-0.389,0.508-0.766,0.647-1.127v-3.463c-0.391-0.024-0.787-0.047-1.188-0.061
				C161.158,40.047,160.764,40.039,160.373,40.039z"/>
			<path fill="none" d="M274.696,32.97c-3.795,0-6.047,3.336-6.047,7.756c0,4.086,2.043,7.465,5.963,7.465
				c2.461,0,4.711-1.67,5.379-4.379c0.125-0.5,0.166-1.002,0.166-1.584v-3.504c0-0.459-0.041-1.084-0.166-1.543
				C279.45,34.888,277.448,32.97,274.696,32.97z"/>
			<path fill="none" d="M325.51,32.845c-4.295,0-6.172,4.002-6.172,7.797c0,4.422,2.502,7.756,6.088,7.756
				c3.504,0,6.131-3.295,6.131-7.84C331.556,37.14,329.845,32.845,325.51,32.845z"/>
			<path fill="none" d="M304.267,32.926c-3.502,0-6.004,2.962-6.004,7.632c0,3.963,2.043,7.256,5.963,7.256
				c2.293,0,4.336-1.418,5.088-3.752c0.207-0.625,0.291-1.334,0.291-1.961v-3.627c0-0.625-0.041-1.168-0.209-1.627
				C308.729,34.679,306.978,32.926,304.267,32.926z"/>
			<path d="M110.246,48.504c-0.932,0.25-2.022,0.375-3.272,0.375c-1.392,0-2.679-0.25-3.859-0.75
				c-1.182-0.502-2.209-1.252-3.086-2.252c-0.875-1.002-1.562-2.254-2.062-3.756c-0.502-1.498-0.752-3.25-0.752-5.252
				c0-2.225,0.265-4.102,0.793-5.631c0.527-1.527,1.23-2.766,2.105-3.711c0.877-0.945,1.869-1.627,2.982-2.045
				c1.11-0.416,2.237-0.625,3.379-0.625c2.473,0,4.379,0.317,5.711,0.959l1.795-2.752c-1.392-0.5-2.613-0.842-3.67-1.021
				c-1.058-0.182-2.418-0.271-4.088-0.271c-1.558,0-3.086,0.276-4.586,0.834c-1.503,0.557-2.857,1.438-4.066,2.647
				c-1.211,1.209-2.184,2.769-2.92,4.67c-0.736,1.906-1.105,4.222-1.105,6.945c0,2.611,0.334,4.871,1.002,6.775
				c0.666,1.903,1.57,3.469,2.711,4.69c1.14,1.226,2.476,2.136,4.002,2.732c1.529,0.596,3.171,0.896,4.923,0.896
				c1.444,0,2.807-0.125,4.088-0.375c1.276-0.25,2.653-0.944,4.129-2.086l-1.795-1.959
				C111.963,47.935,111.178,48.254,110.246,48.504z"/>
			<path d="M240.061,47.729c-0.933,0.25-2.021,0.377-3.273,0.377c-1.393,0-2.678-0.25-3.856-0.75
				c-1.185-0.502-2.211-1.252-3.086-2.254c-0.877-1-1.564-2.252-2.064-3.754c-0.5-1.5-0.75-3.252-0.75-5.254
				c0-2.224,0.262-4.101,0.791-5.63c0.527-1.528,1.23-2.766,2.105-3.713c0.875-0.942,1.868-1.627,2.981-2.043
				c1.111-0.418,2.236-0.625,3.379-0.625c2.474,0,4.377,0.318,5.713,0.959l1.793-2.754c-1.391-0.5-2.614-0.84-3.67-1.02
				c-1.057-0.183-2.418-0.271-4.086-0.271c-1.559,0-3.086,0.277-4.588,0.834c-1.502,0.558-2.856,1.438-4.068,2.648
				c-1.207,1.209-2.182,2.766-2.918,4.67c-0.735,1.904-1.104,4.221-1.104,6.942c0,2.613,0.334,4.873,1.002,6.777
				s1.57,3.469,2.709,4.691c1.141,1.225,2.475,2.135,4.004,2.731s3.17,0.896,4.922,0.896c1.445,0,2.81-0.125,4.088-0.377
				c1.277-0.25,2.654-0.945,4.129-2.084l-1.795-1.959C241.778,47.16,240.993,47.479,240.061,47.729z"/>
			<path d="M131.434,49.066c-0.375-0.959-0.564-1.953-0.564-2.982c0-1.418,0.043-2.918,0.125-4.504
				c0.086-1.584,0.125-3.211,0.125-4.879c0-0.75-0.076-1.5-0.229-2.252c-0.152-0.75-0.459-1.438-0.918-2.063
				c-0.457-0.625-1.125-1.134-2-1.521c-0.877-0.389-2.037-0.584-3.482-0.584c-1.529,0-2.996,0.152-4.4,0.457
				c-1.403,0.307-2.635,0.779-3.69,1.418l1.043,2.504c0.389-0.223,0.84-0.424,1.354-0.604s1.058-0.334,1.627-0.459
				c0.57-0.125,1.125-0.224,1.669-0.291c0.54-0.07,1.049-0.104,1.521-0.104c1.613,0,2.725,0.305,3.336,0.916
				c0.611,0.613,0.918,1.682,0.918,3.211c0,0.668-0.041,1.418-0.125,2.252c-0.389-0.055-0.771-0.082-1.146-0.082s-0.759,0-1.148,0
				c-1.918,0-3.738,0.104-5.461,0.312c-1.725,0.209-3.061,0.965-4.004,2.271c-0.945,1.31-1.418,2.574-1.418,3.797
				c0,0.916,0.158,1.736,0.479,2.459c0.321,0.724,0.759,1.343,1.314,1.857c0.555,0.516,1.217,0.91,1.979,1.188
				c0.767,0.277,1.593,0.418,2.482,0.418c0.889,0,1.779-0.1,2.668-0.293c0.891-0.192,1.598-0.438,2.127-0.729
				c0.527-0.293,0.98-0.627,1.355-1.002s0.688-0.756,0.938-1.146h0.207c0.584,1.945,1.307,2.918,2.168,2.918h2.961
				C132.414,50.854,131.809,50.025,131.434,49.066z M127.742,45.584c-0.139,0.361-0.354,0.738-0.646,1.127
				c-0.291,0.39-0.66,0.744-1.105,1.062c-0.445,0.319-1.07,0.584-1.877,0.793s-1.598,0.312-2.375,0.312
				c-1.086,0-1.977-0.312-2.67-0.938c-0.695-0.627-1.043-1.426-1.043-2.398c0-0.694,0.271-1.403,0.812-2.127
				c0.543-0.723,1.453-1.133,2.732-1.229c1.279-0.098,2.543-0.146,3.795-0.146c0.389,0,0.785,0.008,1.189,0.021
				c0.401,0.014,0.799,0.035,1.188,0.061V45.584z"/>
			<path d="M145.488,40.746c-0.738-0.5-1.543-0.901-2.42-1.209c-0.875-0.305-1.682-0.619-2.418-0.938
				c-0.736-0.32-1.355-0.683-1.855-1.084c-0.5-0.402-0.752-0.968-0.752-1.689c0-1.029,0.287-1.752,0.855-2.17
				c0.57-0.416,1.467-0.625,2.688-0.625c1.029,0,1.996,0.119,2.898,0.355c0.904,0.235,1.676,0.508,2.315,0.812l0.791-2.752
				c-0.75-0.361-1.633-0.676-2.646-0.939c-1.016-0.264-2.273-0.396-3.775-0.396c-2.028,0-3.614,0.467-4.754,1.397
				c-1.141,0.933-1.711,2.396-1.711,4.398c0,1.225,0.25,2.197,0.752,2.92c0.5,0.723,1.117,1.312,1.855,1.773
				c0.735,0.459,1.543,0.834,2.418,1.125c0.877,0.293,1.684,0.598,2.42,0.916c0.736,0.321,1.354,0.717,1.854,1.188
				c0.5,0.473,0.75,1.127,0.75,1.961c0,1.226-0.389,2.07-1.168,2.543c-0.776,0.474-1.766,0.709-2.961,0.709
				c-1.057,0-2.098-0.151-3.127-0.459c-1.028-0.305-1.862-0.639-2.502-1l-1.002,2.836c0.752,0.418,1.683,0.779,2.795,1.084
				c1.111,0.308,2.461,0.459,4.045,0.459c1.224,0,2.287-0.159,3.191-0.479c0.902-0.318,1.66-0.756,2.271-1.312
				c0.611-0.556,1.064-1.223,1.355-2.002c0.293-0.778,0.438-1.612,0.438-2.502c0-1.252-0.25-2.26-0.75-3.024
				C146.844,41.879,146.225,41.246,145.488,40.746z"/>
			<path d="M166.441,49.066c-0.373-0.959-0.562-1.953-0.562-2.982c0-1.418,0.041-2.918,0.125-4.504
				c0.084-1.584,0.125-3.211,0.125-4.879c0-0.75-0.075-1.5-0.229-2.252c-0.154-0.75-0.459-1.438-0.918-2.063
				s-1.125-1.134-2.002-1.521s-2.037-0.584-3.482-0.584c-1.528,0-2.996,0.152-4.397,0.457c-1.404,0.307-2.636,0.779-3.691,1.418
				l1.041,2.504c0.391-0.223,0.842-0.424,1.357-0.604c0.512-0.181,1.057-0.334,1.625-0.459c0.569-0.125,1.127-0.224,1.668-0.291
				c0.543-0.07,1.051-0.104,1.522-0.104c1.611,0,2.726,0.305,3.336,0.916c0.611,0.613,0.918,1.682,0.918,3.211
				c0,0.668-0.043,1.418-0.125,2.252c-0.391-0.055-0.771-0.082-1.146-0.082c-0.377,0-0.76,0-1.148,0
				c-1.918,0-3.739,0.104-5.463,0.312c-1.725,0.209-3.059,0.965-4.004,2.271c-0.945,1.31-1.418,2.574-1.418,3.797
				c0,0.916,0.16,1.736,0.48,2.459c0.317,0.724,0.758,1.343,1.312,1.857c0.557,0.516,1.217,0.91,1.982,1.188
				c0.764,0.277,1.59,0.418,2.479,0.418c0.889,0,1.779-0.1,2.67-0.293c0.89-0.192,1.599-0.438,2.127-0.729
				c0.527-0.293,0.98-0.627,1.355-1.002c0.373-0.375,0.688-0.756,0.938-1.146h0.209c0.584,1.945,1.308,2.918,2.168,2.918h2.961
				C167.422,50.854,166.818,50.025,166.441,49.066z M162.752,45.584c-0.141,0.361-0.354,0.738-0.647,1.127
				c-0.291,0.39-0.66,0.744-1.104,1.062c-0.444,0.319-1.069,0.584-1.877,0.793c-0.807,0.209-1.6,0.312-2.377,0.312
				c-1.084,0-1.975-0.312-2.668-0.938c-0.697-0.627-1.045-1.426-1.045-2.398c0-0.694,0.271-1.403,0.814-2.127
				c0.543-0.723,1.45-1.133,2.731-1.229c1.277-0.099,2.543-0.146,3.793-0.146c0.392,0,0.785,0.008,1.189,0.021
				c0.401,0.014,0.799,0.035,1.188,0.061v3.463H162.752z"/>
			<path d="M195.022,44.293V22.271h-3.336v8.674c-0.695-0.248-1.342-0.43-1.938-0.541c-0.6-0.111-1.412-0.168-2.44-0.168
				c-2.945,0-5.261,0.926-6.943,2.772c-1.684,1.851-2.521,4.556-2.521,8.111c0,3.728,0.674,6.465,2.021,8.217
				c1.35,1.752,3.412,2.627,6.193,2.627c1.418,0,2.653-0.319,3.711-0.959c1.057-0.639,1.862-1.444,2.418-2.42h0.168l0.834,2.961
				h2.252c-0.224-1.108-0.351-2.243-0.375-3.397C195.036,46.996,195.022,45.709,195.022,44.293z M191.687,44.584
				c-0.308,1.5-0.875,2.619-1.709,3.357c-0.834,0.736-1.959,1.104-3.377,1.104c-0.976,0-1.802-0.2-2.482-0.604
				s-1.229-0.951-1.646-1.648c-0.418-0.692-0.718-1.526-0.896-2.5c-0.182-0.975-0.271-2.03-0.271-3.172
				c0-2.779,0.541-4.803,1.625-6.067c1.086-1.265,2.588-1.896,4.504-1.896c1.059,0,1.905,0.084,2.545,0.25
				c0.639,0.166,1.211,0.445,1.709,0.834v10.343H191.687z"/>
			<path d="M213.132,33.095c-0.75-0.959-1.702-1.695-2.854-2.212c-1.154-0.514-2.51-0.771-4.066-0.771
				c-2.944,0-5.205,0.938-6.776,2.816c-1.57,1.877-2.355,4.579-2.355,8.11c0,1.642,0.181,3.133,0.541,4.482
				c0.361,1.349,0.918,2.502,1.67,3.461c0.752,0.961,1.703,1.695,2.855,2.211c1.153,0.514,2.51,0.771,4.065,0.771
				c2.947,0,5.205-0.938,6.775-2.813c1.572-1.877,2.359-4.58,2.359-8.111c0-1.641-0.183-3.135-0.543-4.483
				C214.438,35.207,213.884,34.054,213.132,33.095z M206.21,49.045c-1.028,0-1.903-0.223-2.627-0.666
				c-0.723-0.444-1.307-1.028-1.752-1.754c-0.444-0.721-0.77-1.567-0.979-2.543c-0.209-0.973-0.312-1.985-0.312-3.043
				c0-5.365,1.892-8.035,5.67-8.008c1.029,0,1.904,0.215,2.629,0.646c0.724,0.432,1.308,1.008,1.75,1.729
				c0.445,0.723,0.771,1.57,0.98,2.545c0.207,0.973,0.312,2,0.312,3.086C211.882,46.404,209.991,49.074,206.21,49.045z"/>
			<polygon points="259.265,21.793 255.22,21.793 251.594,27.756 254.179,27.756 			"/>
			<path d="M253.929,30.092c-5.548,0-10.009,3.962-10.009,10.675c0,6.381,4.252,10.383,9.675,10.383
				c4.836,0,10.049-3.252,10.049-10.717C263.644,34.304,259.724,30.092,253.929,30.092z M253.761,48.396
				c-3.587,0-6.089-3.334-6.089-7.756c0-3.795,1.877-7.798,6.173-7.798c4.338,0,6.047,4.296,6.047,7.714
				C259.892,45.103,257.265,48.396,253.761,48.396z"/>
			<path d="M283.786,21.084h-3.629v12.052h-0.082c-0.918-1.585-2.961-3.044-6.088-3.044c-4.879,0-9.092,4.087-9.049,10.8
				c0,6.131,3.795,10.258,8.672,10.258c3.295,0,5.713-1.709,6.797-3.961h0.127l0.166,3.504h3.252
				c-0.082-1.377-0.166-3.42-0.166-5.213V21.084z M280.157,42.228c0,0.582-0.041,1.084-0.166,1.584
				c-0.668,2.709-2.918,4.379-5.379,4.379c-3.92,0-5.963-3.379-5.963-7.465c0-4.42,2.252-7.756,6.047-7.756
				c2.752,0,4.754,1.918,5.295,4.211c0.125,0.459,0.166,1.084,0.166,1.543V42.228z"/>
			<path d="M310.063,33.554h-0.084c-0.916-1.671-2.793-3.462-6.297-3.462c-4.67,0-9.132,3.837-9.132,10.675
				c0,5.588,3.587,9.842,8.591,9.842c3.127,0,5.338-1.502,6.422-3.379h0.082v2.211c0,5.128-2.752,7.087-6.504,7.087
				c-2.502,0-4.588-0.75-5.922-1.625l-0.919,2.836c1.628,1.084,4.296,1.668,6.716,1.668c2.543,0,5.379-0.627,7.381-2.418
				c1.918-1.795,2.877-4.588,2.877-9.257V36.013c0-2.418,0.041-4.087,0.166-5.505h-3.252L310.063,33.554z M309.604,42.101
				c0,0.627-0.084,1.336-0.291,1.961c-0.752,2.334-2.795,3.752-5.088,3.752c-3.92,0-5.963-3.293-5.963-7.256
				c0-4.67,2.502-7.632,6.004-7.632c2.711,0,4.463,1.753,5.129,3.921c0.168,0.459,0.209,1.002,0.209,1.627V42.101z"/>
			<path d="M325.594,30.092c-5.547,0-10.008,3.962-10.008,10.675c0,6.381,4.252,10.383,9.674,10.383
				c4.836,0,10.049-3.252,10.049-10.717C335.308,34.304,331.388,30.092,325.594,30.092z M325.426,48.396
				c-3.586,0-6.088-3.334-6.088-7.756c0-3.795,1.877-7.798,6.172-7.798c4.336,0,6.047,4.296,6.047,7.714
				C331.556,45.103,328.929,48.396,325.426,48.396z"/>
			<path d="M289.265,22.543c-1.375,0-2.293,1.043-2.293,2.293c0,1.252,0.875,2.252,2.209,2.252c1.461,0,2.336-1,2.336-2.252
				C291.517,23.545,290.599,22.543,289.265,22.543z"/>
			<rect x="287.429" y="30.508" width="3.67" height="20.185"/>
		</g>
		<g>
			<path d="M95.471,63.461h1.848V76.08h6.047v1.533h-7.895V63.461z"/>
			<path d="M111.599,64.596c0,0.629-0.44,1.133-1.177,1.133c-0.672,0-1.111-0.504-1.111-1.133c0-0.631,0.461-1.154,1.153-1.154
				C111.137,63.441,111.599,63.945,111.599,64.596z M109.541,77.613V67.451h1.849v10.162H109.541z"/>
			<path d="M119.369,67.451l1.994,5.689c0.336,0.944,0.609,1.784,0.818,2.625h0.062c0.231-0.841,0.524-1.681,0.86-2.625l1.975-5.689
				h1.933l-3.99,10.162h-1.765l-3.862-10.162H119.369z"/>
			<path d="M132.955,70.621c0-1.197-0.021-2.225-0.084-3.17h1.617l0.084,2.016h0.062c0.464-1.365,1.597-2.227,2.836-2.227
				c0.188,0,0.336,0.021,0.504,0.043v1.742c-0.188-0.041-0.378-0.041-0.63-0.041c-1.303,0-2.227,0.965-2.479,2.352
				c-0.042,0.252-0.062,0.566-0.062,0.859v5.418h-1.849L132.955,70.621L132.955,70.621z"/>
			<path d="M153.01,72.447c0,3.76-2.625,5.396-5.062,5.396c-2.729,0-4.871-2.017-4.871-5.23c0-3.379,2.246-5.375,5.039-5.375
				C151.035,67.24,153.01,69.361,153.01,72.447z M144.969,72.553c0,2.227,1.26,3.906,3.064,3.906c1.764,0,3.086-1.66,3.086-3.947
				c0-1.723-0.86-3.885-3.044-3.885C145.912,68.627,144.969,70.643,144.969,72.553z"/>
			<path d="M159.289,75.744c0.567,0.336,1.533,0.715,2.457,0.715c1.322,0,1.953-0.652,1.953-1.512c0-0.883-0.525-1.344-1.869-1.848
				c-1.848-0.672-2.709-1.66-2.709-2.877c0-1.64,1.344-2.982,3.507-2.982c1.028,0,1.933,0.273,2.479,0.631l-0.441,1.344
				c-0.397-0.252-1.133-0.609-2.078-0.609c-1.092,0-1.68,0.631-1.68,1.388c0,0.84,0.588,1.217,1.91,1.741
				c1.743,0.65,2.667,1.533,2.667,3.045c0,1.806-1.407,3.064-3.779,3.064c-1.111,0-2.142-0.293-2.854-0.713L159.289,75.744z"/>
			<path d="M181.739,72.867c0.041,2.5,1.617,3.527,3.484,3.527c1.323,0,2.143-0.23,2.813-0.523l0.336,1.322
				c-0.649,0.293-1.785,0.649-3.401,0.649c-3.127,0-4.996-2.077-4.996-5.146c0-3.063,1.805-5.459,4.766-5.459
				c3.338,0,4.199,2.898,4.199,4.769c0,0.377-0.021,0.649-0.062,0.859L181.739,72.867L181.739,72.867z M187.155,71.545
				c0.021-1.154-0.482-2.98-2.561-2.98c-1.892,0-2.688,1.699-2.834,2.98H187.155z"/>
			<path d="M205.972,65.016h-4.304v-1.555h10.478v1.555h-4.326v12.598h-1.848V65.016z"/>
			<path d="M217.395,72.867c0.043,2.5,1.617,3.527,3.485,3.527c1.322,0,2.142-0.23,2.812-0.523l0.336,1.322
				c-0.65,0.293-1.783,0.649-3.4,0.649c-3.129,0-4.998-2.077-4.998-5.146c0-3.063,1.808-5.459,4.769-5.459
				c3.338,0,4.199,2.898,4.199,4.769c0,0.377-0.021,0.649-0.064,0.859L217.395,72.867L217.395,72.867z M222.813,71.545
				c0.021-1.154-0.482-2.98-2.562-2.98c-1.889,0-2.688,1.699-2.834,2.98H222.813z"/>
			<path d="M238.331,77.256c-0.481,0.23-1.553,0.588-2.918,0.588c-3.063,0-5.061-2.078-5.061-5.186c0-3.129,2.143-5.418,5.459-5.418
				c1.092,0,2.059,0.273,2.562,0.547l-0.42,1.406c-0.44-0.23-1.135-0.482-2.143-0.482c-2.33,0-3.59,1.742-3.59,3.842
				c0,2.352,1.512,3.801,3.526,3.801c1.051,0,1.742-0.252,2.269-0.481L238.331,77.256z"/>
			<path d="M244.696,70.201c0-1.07-0.021-1.91-0.084-2.75h1.639l0.104,1.68h0.043c0.504-0.945,1.68-1.891,3.358-1.891
				c1.406,0,3.591,0.84,3.591,4.326v6.047h-1.849v-5.857c0-1.639-0.608-3.004-2.352-3.004c-1.197,0-2.142,0.861-2.478,1.891
				c-0.084,0.23-0.127,0.545-0.127,0.861v6.109h-1.848L244.696,70.201L244.696,70.201z"/>
			<path d="M269.747,72.447c0,3.76-2.625,5.396-5.061,5.396c-2.729,0-4.871-2.017-4.871-5.23c0-3.379,2.248-5.375,5.039-5.375
				C267.774,67.24,269.747,69.361,269.747,72.447z M261.706,72.553c0,2.227,1.26,3.906,3.064,3.906c1.764,0,3.088-1.66,3.088-3.947
				c0-1.723-0.861-3.885-3.045-3.885C262.651,68.627,261.706,70.643,261.706,72.553z"/>
			<path d="M276.28,62.705h1.848v14.908h-1.848V62.705z"/>
			<path d="M294.632,72.447c0,3.76-2.625,5.396-5.061,5.396c-2.729,0-4.871-2.017-4.871-5.23c0-3.379,2.248-5.375,5.039-5.375
				C292.659,67.24,294.632,69.361,294.632,72.447z M286.591,72.553c0,2.227,1.261,3.906,3.064,3.906c1.764,0,3.088-1.66,3.088-3.947
				c0-1.723-0.861-3.885-3.045-3.885C287.536,68.627,286.591,70.643,286.591,72.553z"/>
			<path d="M309.858,76.123c0,2.352-0.483,3.758-1.449,4.66c-1.008,0.902-2.436,1.219-3.717,1.219c-1.217,0-2.562-0.295-3.381-0.84
				l0.463-1.428c0.672,0.438,1.721,0.818,2.979,0.818c1.892,0,3.275-0.986,3.275-3.57v-1.111h-0.041
				c-0.547,0.943-1.658,1.699-3.234,1.699c-2.52,0-4.323-2.141-4.323-4.955c0-3.443,2.246-5.375,4.598-5.375
				c1.765,0,2.709,0.904,3.17,1.744h0.043l0.062-1.533h1.639c-0.063,0.713-0.084,1.553-0.084,2.771V76.123z M308.011,71.461
				c0-0.314-0.021-0.588-0.105-0.818c-0.336-1.092-1.219-1.975-2.582-1.975c-1.764,0-3.023,1.492-3.023,3.844
				c0,1.994,1.027,3.652,3.003,3.652c1.153,0,2.184-0.713,2.561-1.889c0.105-0.316,0.148-0.672,0.148-0.988L308.011,71.461
				L308.011,71.461z"/>
			<path d="M319.036,64.596c0,0.629-0.44,1.133-1.176,1.133c-0.672,0-1.113-0.504-1.113-1.133c0-0.631,0.462-1.154,1.154-1.154
				C318.573,63.441,319.036,63.945,319.036,64.596z M316.978,77.613V67.451h1.848v10.162H316.978z"/>
			<path d="M333.231,75.178c0,0.881,0.041,1.742,0.146,2.436h-1.658l-0.148-1.28h-0.062c-0.566,0.799-1.658,1.513-3.107,1.513
				c-2.057,0-3.106-1.449-3.106-2.918c0-2.457,2.184-3.802,6.108-3.779v-0.211c0-0.818-0.229-2.353-2.309-2.33
				c-0.967,0-1.953,0.272-2.666,0.756l-0.42-1.238c0.84-0.525,2.078-0.883,3.358-0.883c3.107,0,3.863,2.121,3.863,4.137V75.178
				L333.231,75.178z M331.446,72.428c-2.016-0.043-4.305,0.314-4.305,2.287c0,1.219,0.799,1.764,1.723,1.764
				c1.345,0,2.203-0.84,2.498-1.699c0.062-0.211,0.084-0.42,0.084-0.588V72.428z"/>
		</g>
	</g>
</g>
</svg>
