<svg xmlns="http://www.w3.org/2000/svg" viewBox="0 0 360.81 64.12"><defs><style>.cls-1{fill:#21375A;}</style></defs><title>logo-horizontal-dark</title><g id="Layer_2" data-name="Layer 2"><g id="Layer_1-2" data-name="Layer 1"><path class="cls-1" d="M13.32,11.74a2.68,2.68,0,0,1,2.78-2h3.78a2.64,2.64,0,0,1,2.78,2L35.78,48.87c.59,1.71-.18,2.83-2,2.83H31.05a2.64,2.64,0,0,1-2.78-2L25.32,41H10.6L7.7,49.64A2.63,2.63,0,0,1,4.92,51.7H2.21c-1.84,0-2.61-1.12-2-2.83Zm10.11,23L19.7,23.51C19,21.14,18.05,17,18.05,17h-.12s-.95,4.14-1.66,6.51L12.49,34.74Z"/><path class="cls-1" d="M40.45,24a2.24,2.24,0,0,1,2.48-2.48h1.89c1.6,0,2.43.88,2.43,2.07V25a11.71,11.71,0,0,1-.06,1.18h.11A10.83,10.83,0,0,1,57,20.85c8.16,0,13.42,6.44,13.42,15.78,0,9.58-5.91,15.78-13.83,15.78A9.79,9.79,0,0,1,47.9,47.8h-.12A18.32,18.32,0,0,1,48,50.4V61a2.19,2.19,0,0,1-2.48,2.49H42.93A2.22,2.22,0,0,1,40.45,61ZM55.23,46.09c4.13,0,7.56-3.37,7.56-9.34,0-5.74-3.07-9.46-7.45-9.46-3.9,0-7.62,2.84-7.62,9.52C47.72,41.48,50.32,46.09,55.23,46.09Z"/><path class="cls-1" d="M76.09,24a2.24,2.24,0,0,1,2.48-2.48h1.89c1.6,0,2.43.88,2.43,2.07V25a11.71,11.71,0,0,1-.06,1.18H83a10.82,10.82,0,0,1,9.69-5.32c8.16,0,13.42,6.44,13.42,15.78,0,9.58-5.91,15.78-13.83,15.78a9.79,9.79,0,0,1-8.69-4.61h-.12a17.32,17.32,0,0,1,.18,2.6V61a2.2,2.2,0,0,1-2.49,2.49H78.57A2.22,2.22,0,0,1,76.09,61ZM90.87,46.09c4.13,0,7.56-3.37,7.56-9.34,0-5.74-3.07-9.46-7.44-9.46-3.91,0-7.63,2.84-7.63,9.52C83.36,41.48,86,46.09,90.87,46.09Z"/><path class="cls-1" d="M110.73,44.73l1.3-1.89c.94-1.3,2-1.36,3.42-.53A14.79,14.79,0,0,0,124,45.38c3.9,0,6.26-2,6.26-4.79,0-8-19.56-6.32-19.56-19.39,0-7.39,6.14-12.18,14.12-12.18a19.5,19.5,0,0,1,10.82,3.2,2.33,2.33,0,0,1,.77,3.37l-1.06,1.95c-.89,1.71-2.13,1.47-3.37.82a13.79,13.79,0,0,0-7.27-2.3c-3.91,0-6.39,1.89-6.39,4.73,0,7.86,19.57,5.85,19.57,19.21,0,6.8-5.09,12.41-13.89,12.41a22.32,22.32,0,0,1-12.89-4.25A2.19,2.19,0,0,1,110.73,44.73Z"/><path class="cls-1" d="M143.65,14V12.22a2.2,2.2,0,0,1,2.42-2.49h2.6a2.24,2.24,0,0,1,2.48,2.49V14a2.19,2.19,0,0,1-2.48,2.42h-2.6A2.15,2.15,0,0,1,143.65,14Zm0,10a2.2,2.2,0,0,1,2.42-2.48h2.6A2.2,2.2,0,0,1,151.1,24V49.22a2.18,2.18,0,0,1-2.43,2.48h-2.6a2.17,2.17,0,0,1-2.42-2.48Z"/><path class="cls-1" d="M164.16,56.61a16.43,16.43,0,0,0,6.09,1.12c4.61,0,8.51-1.95,8.51-7.33V48.16a12.73,12.73,0,0,1,.12-1.54h-.12c-1.66,2.84-4.26,4.49-8.28,4.49-8.8,0-13.65-7-13.65-15.31s4.61-14.95,13.59-14.95c7,0,8.93,4.61,8.93,4.61h.12a4.33,4.33,0,0,1-.06-.77V23.57c0-1.13.83-2,2.42-2h2A2.2,2.2,0,0,1,186.27,24V49.87c0,10.35-8.16,14.25-15.61,14.25a24.12,24.12,0,0,1-8.81-1.6,2.12,2.12,0,0,1-1.3-3.19L161,58C161.68,56.49,162.56,56.08,164.16,56.61ZM178.94,36c0-6.92-3.43-8.75-7.33-8.75-4.67,0-7.22,3.31-7.22,8.28,0,5.44,2.72,9.28,7.57,9.28C175.51,44.79,178.94,42.72,178.94,36Z"/><path class="cls-1" d="M193.71,24a2.2,2.2,0,0,1,2.42-2.48h2.31A2.19,2.19,0,0,1,200.86,24v1.83a9.51,9.51,0,0,1-.12,1.36h.12a11.76,11.76,0,0,1,10.7-6.38c6.68,0,10.52,3.48,10.52,11.46V49.22a2.19,2.19,0,0,1-2.48,2.48h-2.54a2.21,2.21,0,0,1-2.48-2.48V33.85c0-3.66-1-6.15-4.73-6.15-5.32,0-8.69,4.44-8.69,9.88V49.22a2.18,2.18,0,0,1-2.43,2.48h-2.6a2.17,2.17,0,0,1-2.42-2.48Z"/><path class="cls-1" d="M244.43,33.08h1.24v-.71c0-4-2.54-5.32-5.62-5.32a13.54,13.54,0,0,0-6.26,1.72c-1.48.65-2.61.41-3.32-1l-.59-1.12a2.2,2.2,0,0,1,1-3.31,21.46,21.46,0,0,1,9.87-2.48c7.8,0,12.47,4.37,12.47,12V49.22a2.19,2.19,0,0,1-2.48,2.48h-2a2.17,2.17,0,0,1-2.42-2.48V48a5.79,5.79,0,0,1,.12-1.3h-.12a11,11,0,0,1-9.46,5.67c-5.5,0-10-3.54-10-9C226.81,34.56,237.69,33.08,244.43,33.08Zm-5.62,13.6c4.2,0,6.92-4.26,6.92-7.92V37.64h-1.25c-3.78,0-10.22.59-10.22,5.08C234.26,44.73,235.8,46.68,238.81,46.68Z"/><path class="cls-1" d="M260.09,12.22a2.2,2.2,0,0,1,2.42-2.49h2.6a2.21,2.21,0,0,1,2.43,2.49V41.71c0,3,1.24,3.49,2.36,3.61a1.93,1.93,0,0,1,1.83,2.13v2A2.24,2.24,0,0,1,269.25,52c-4,0-9.16-1.06-9.16-9.69Z"/><path class="cls-1" d="M351.49,12.54c-5.44,0-9.33,4.79-13.34,10.13C335.66,11.33,332.9,0,324.1,0S312.53,11.33,310,22.68c-4-5.35-7.89-10.14-13.33-10.14-3.46,0-9.32,2.35-9.32,11.17l0,16c0,8.65,4.62,10.77,7.39,11.5h0c4.78,1.24,16.29,2.4,29.25,2.4s24.47-1.16,29.25-2.4h0c2.77-.73,7.4-2.85,7.4-11.5l0-16c0-8.82-5.86-11.17-9.32-11.17M324.1,5c5.27,0,7.28,10.4,10.08,22.88-3.07,3.78-6.33,6.83-10.08,6.83s-7-3.05-10.08-6.83C316.64,16.21,318.66,5,324.1,5M292.43,39.76l0-16c0-5.57,3-6.17,4.32-6.17,3.84,0,8,6.4,11.89,11.54-2.78,11.66-5.72,18.76-12.66,17.3-1.81-.49-3.51-1.64-3.51-6.62m13.62,8.11c3.07-3.34,5-8.55,6.53-14.07,3.21,3.37,6.92,5.91,11.52,5.91s8.3-2.54,11.52-5.91c1.49,5.52,3.45,10.73,6.52,14.07-5.37.49-11.83.79-18,.79s-12.68-.3-18.05-.79m49.72-8.11c0,5-1.7,6.13-3.51,6.62-6.95,1.47-9.88-5.64-12.66-17.3,3.93-5.14,8-11.54,11.89-11.54,1.3,0,4.32.6,4.32,6.17Z"/></g></g></svg>
