<svg role="img" aria-label="google fiber logo" data-name="Layer 1" xmlns="http://www.w3.org/2000/svg" width="8.14in" height="144" viewBox="0 0 586.17 108"><title>google fiber logo</title><path d="M112.8 29.83c-14.92 0-27.08 11.35-27.08 27a27.08 27.08 0 0 0 54.16 0c0-15.65-12.16-27-27.08-27zm0 43.33c-8.18 0-15.23-6.75-15.23-16.35s7.05-16.35 15.23-16.35 15.22 6.64 15.22 16.35-7.04 16.35-15.22 16.35z" fill="#ea4335"/><path d="M171.86 29.83c-14.92 0-27.08 11.35-27.08 27a27.08 27.08 0 0 0 54.15 0c.01-15.65-12.15-27-27.07-27zm0 43.33c-8.17 0-15.22-6.75-15.22-16.35s7.05-16.35 15.22-16.35 15.22 6.64 15.22 16.35-7 16.35-15.22 16.35z" fill="#fbbc05"/><path d="M244.31 35.86h-.41c-2.66-3.17-7.77-6-14.2-6-13.49 0-25.85 11.85-25.85 27.08s12.36 26.87 25.85 26.87c6.44 0 11.55-2.86 14.2-6.13h.41v3.89c0 10.32-5.52 15.83-14.41 15.83-7.26 0-11.75-5.21-13.59-9.6l-10.32 4.3A25.71 25.71 0 0 0 229.9 108c13.89 0 25.64-8.17 25.64-28.1V31.47h-11.23zm-13.59 37.3c-8.18 0-15-6.85-15-16.25s6.84-16.45 15-16.45 14.36 6.95 14.36 16.45-6.29 16.25-14.36 16.25z" fill="#4285f4"/><path d="M308.08 73.16c-6 0-10.32-2.76-13.08-8.18l36.08-14.92-1.25-3.06c-2.25-6-9.1-17.17-23.1-17.17s-25.44 10.94-25.44 27c0 15.12 11.44 27 26.77 27a26.83 26.83 0 0 0 22.48-12l-9.2-6.13c-3.06 4.49-7.26 7.46-13.26 7.46zm-.92-32.9c4.7 0 8.68 2.35 10 5.72L293.08 56a14.8 14.8 0 0 1 14.06-15.74z" fill="#ea4335"/><path fill="#34a853" d="M263.72 2.86h11.85v79.29h-11.85z"/><path d="M42.5 38.11v11.45h27.39C69.08 56 66.92 60.69 63.66 64c-4 4-10.22 8.38-21.15 8.38-16.86 0-30-13.59-30-30.45a30 30 0 0 1 30-30.45 29.18 29.18 0 0 1 20.64 8.18l8.07-8.07A39.93 39.93 0 0 0 42.5 0C19.41 0 0 18.8 0 41.89s19.41 41.89 42.5 41.89c12.47 0 21.87-4.08 29.22-11.75 7.56-7.56 9.91-18.19 9.91-26.77a37.3 37.3 0 0 0-.61-7.15z" fill="#4285f4"/><g fill="#5f6368"><path d="M382.48 50.38v31.77h-9.52V8h43.26v9.11h-33.74v24.36h30.43v8.9zM435.21 13.94a6.73 6.73 0 1 1-11.49-4.76 6.73 6.73 0 0 1 11.49 4.76zm-2 17.49v50.72h-9.52V31.43zM469.96 83.81a21.88 21.88 0 0 1-10.19-2.38 17.81 17.81 0 0 1-7.09-6.31h-.41v7h-9.11V8h9.52v23.43l-.41 7h.41a17.84 17.84 0 0 1 7.09-6.31 22.51 22.51 0 0 1 27.17 5.49 27.71 27.71 0 0 1 7.14 19.18 27.46 27.46 0 0 1-7.14 19.15 21.78 21.78 0 0 1-16.98 7.87zm-1.55-8.69a14.84 14.84 0 0 0 11.49-5.18q4.66-5.07 4.66-13.14a18.91 18.91 0 0 0-4.66-13.14 15.45 15.45 0 0 0-23.08 0q-4.56 5.18-4.55 13.14t4.55 13.2a15.09 15.09 0 0 0 11.59 5.11zM523.97 83.81a24.25 24.25 0 0 1-18.42-7.66q-7.25-7.66-7.25-19.35t7-19.3a23.3 23.3 0 0 1 18-7.71q11.28 0 18 7.3t6.68 20.44l-.1 1h-39.85a16.52 16.52 0 0 0 5 12 15.89 15.89 0 0 0 11.38 4.55q9.11 0 14.28-9.11l8.49 4.14a25.28 25.28 0 0 1-9.47 10 26.19 26.19 0 0 1-13.74 3.7zm-15.22-33.12h29.08a12.63 12.63 0 0 0-4.3-8.75q-3.88-3.47-10.4-3.47a13.8 13.8 0 0 0-9.26 3.31 15.82 15.82 0 0 0-5.12 8.91zM564.32 82.15h-9.52V31.43h9.11v8.28h.41a13.75 13.75 0 0 1 6-6.88 16.52 16.52 0 0 1 8.76-2.83 17.86 17.86 0 0 1 7 1.24l-2.9 9.21a15.8 15.8 0 0 0-5.59-.72 12.32 12.32 0 0 0-9.37 4.35 14.54 14.54 0 0 0-4 10.14z"/></g></svg>
