<?xml version="1.0" encoding="utf-8"?>
<!-- Generator: Adobe Illustrator 16.0.0, SVG Export Plug-In . SVG Version: 6.00 Build 0)  -->
<!DOCTYPE svg PUBLIC "-//W3C//DTD SVG 1.1//EN" "http://www.w3.org/Graphics/SVG/1.1/DTD/svg11.dtd">
<svg version="1.1" id="Layer_1" xmlns="http://www.w3.org/2000/svg" xmlns:xlink="http://www.w3.org/1999/xlink" x="0px" y="0px"
	 width="183.078px" height="73.729px" viewBox="0 0 183.078 73.729" enable-background="new 0 0 183.078 73.729"
	 xml:space="preserve">
<g>
	<defs>
		<rect id="SVGID_1_" y="0" width="183.078" height="73.729"/>
	</defs>
	<clipPath id="SVGID_2_">
		<use xlink:href="#SVGID_1_"  overflow="visible"/>
	</clipPath>
	<path clip-path="url(#SVGID_2_)" d="M34.082,48.314c0,3.964-0.896,7.198-2.663,9.615c-1.72,2.353-4.259,3.496-7.763,3.496
		c-3.461,0-5.947-1.153-7.601-3.527c-1.712-2.453-2.58-5.711-2.58-9.682v-1H0v1c0,3.513,0.519,6.84,1.542,9.888
		c1.03,3.074,2.573,5.809,4.588,8.126c2.021,2.329,4.536,4.182,7.473,5.505c2.931,1.322,6.313,1.993,10.053,1.993
		c3.803,0,7.227-0.67,10.175-1.992c2.946-1.32,5.482-3.152,7.539-5.445c2.05-2.289,3.613-5.018,4.648-8.114
		c1.021-3.067,1.539-6.385,1.539-9.862V0H34.082V48.314z"/>
	<path clip-path="url(#SVGID_2_)" d="M87.963,48.571c0,3.791-0.87,6.995-2.585,9.523c-1.657,2.438-4.158,3.624-7.645,3.624
		c-1.737,0-3.199-0.327-4.343-0.973c-1.148-0.646-2.07-1.526-2.739-2.615c-0.699-1.131-1.213-2.526-1.531-4.146
		c-0.328-1.678-0.495-3.499-0.495-5.413V23.438H55.736v28.686c0,3.239,0.229,6.001,0.681,8.208c0.463,2.264,1.308,4.337,2.525,6.181
		c1.425,2.051,3.384,3.705,5.823,4.915c2.425,1.203,5.44,1.813,8.964,1.813c3.623,0,6.844-0.686,9.574-2.038
		c1.803-0.893,3.361-2.072,4.66-3.524v4.342h12.889V23.438H87.963V48.571z"/>
	<path clip-path="url(#SVGID_2_)" d="M142.77,48.369c-1.268-1.042-2.722-1.935-4.325-2.651c-1.538-0.687-3.135-1.335-4.735-1.924
		c-2.152-0.814-4.046-1.506-5.63-2.056c-1.547-0.538-2.856-1.058-3.893-1.545c-0.936-0.439-1.623-0.917-2.046-1.421
		c-0.366-0.436-0.544-1.022-0.544-1.794c0-1.364,0.477-2.315,1.501-2.994c1.123-0.746,2.525-1.125,4.166-1.125
		c2.35,0,4.022,0.54,4.971,1.604c0.991,1.116,1.473,2.612,1.473,4.574v1h12.597v-1c0-2.42-0.501-4.692-1.487-6.755
		c-0.982-2.052-2.335-3.844-4.021-5.324c-1.68-1.475-3.681-2.647-5.946-3.484c-2.263-0.834-4.717-1.257-7.294-1.257
		c-2.488,0-4.855,0.299-7.036,0.892c-2.209,0.601-4.188,1.535-5.879,2.78c-1.704,1.254-3.081,2.793-4.091,4.572
		c-1.028,1.809-1.549,3.937-1.549,6.322c0,2.096,0.294,3.923,0.873,5.43c0.593,1.536,1.462,2.836,2.585,3.864
		c1.073,0.982,2.347,1.86,3.784,2.611c1.399,0.73,2.938,1.404,4.572,2.002c2.48,0.91,4.641,1.677,6.422,2.276
		c1.735,0.585,3.206,1.16,4.368,1.71c1.076,0.511,1.879,1.055,2.386,1.618c0.434,0.481,0.645,1.116,0.645,1.939
		c0,1.624-0.53,2.67-1.671,3.291c-1.302,0.712-2.958,1.072-4.924,1.072c-2.367,0-4.331-0.56-5.836-1.662
		c-1.408-1.032-2.123-2.93-2.123-5.639v-1h-12.595v1c0,2.876,0.551,5.463,1.637,7.689c1.083,2.221,2.585,4.124,4.461,5.658
		c1.86,1.521,4.004,2.681,6.371,3.448c2.35,0.762,4.873,1.147,7.501,1.147c2.604,0,5.105-0.297,7.438-0.884
		c2.363-0.596,4.466-1.523,6.25-2.759c1.812-1.256,3.262-2.866,4.307-4.785c1.052-1.931,1.585-4.209,1.585-6.773
		c0-2.292-0.389-4.229-1.154-5.761C145.123,50.762,144.076,49.447,142.77,48.369"/>
	<path clip-path="url(#SVGID_2_)" d="M181.834,60.479c-0.458,0.115-1.238,0.213-2.317,0.291c-2.41,0.171-4.181,0.186-5.564-0.167
		c-0.65-0.166-1.196-0.49-1.67-0.992c-0.479-0.504-0.848-1.281-1.098-2.312c-0.272-1.123-0.411-2.656-0.411-4.558V34.52h10.693
		V23.438h-10.693V9.327h-12.889v14.111h-7.91V34.52h7.91v20.68c0,4.072,0.567,7.314,1.687,9.638
		c1.129,2.348,2.575,4.131,4.294,5.301c1.699,1.156,3.512,1.869,5.387,2.117c1.764,0.232,3.352,0.351,4.721,0.351
		c1.613,0,3.188-0.067,4.679-0.199c1.504-0.135,2.672-0.265,3.573-0.397l0.854-0.126V60.167L181.834,60.479z"/>
</g>
</svg>
