<?xml version="1.0" encoding="utf-8"?>
<!-- Generator: Adobe Illustrator 18.0.0, SVG Export Plug-In . SVG Version: 6.00 Build 0)  -->
<!DOCTYPE svg PUBLIC "-//W3C//DTD SVG 1.1//EN" "http://www.w3.org/Graphics/SVG/1.1/DTD/svg11.dtd">
<svg version="1.1" id="Layer_1" xmlns="http://www.w3.org/2000/svg" xmlns:xlink="http://www.w3.org/1999/xlink" x="0px" y="0px"
	 viewBox="0 0 989.5 461.5" enable-background="new 0 0 989.5 461.5" xml:space="preserve">
<g>
	<defs>
		<path id="SVGID_1_" d="M0,230.5c0,127.3,103.2,230.5,230.5,230.5s230.5-103.2,230.5-230.5C461.1,103.2,357.9,0,230.5,0
			S0,103.2,0,230.5"/>
	</defs>
	<clipPath id="SVGID_2_">
		<use xlink:href="#SVGID_1_"  overflow="visible"/>
	</clipPath>
	
		<linearGradient id="SVGID_3_" gradientUnits="userSpaceOnUse" x1="-5680.3999" y1="2059.9031" x2="-5674.4893" y2="2059.9031" gradientTransform="matrix(39.0097 67.5667 67.5667 -39.0097 82524.9688 464192.7188)">
		<stop  offset="0" style="stop-color:#008ED9"/>
		<stop  offset="1" style="stop-color:#126BBB"/>
	</linearGradient>
	<polygon clip-path="url(#SVGID_2_)" fill="url(#SVGID_3_)" points="345.8,-199.6 660.7,345.8 115.3,660.7 -199.6,115.3 	"/>
</g>
<path fill="#1D1D1B" d="M469.5,312.6c0,20.6,5,35.4,14.9,44.5c10,9.1,23.2,13.7,39.7,13.7c4.1,0,8.5-0.2,13.3-0.6
	c4.8-0.4,8.9-1.2,12.4-2.3c0.4-1.7,0.6-3.3,0.6-4.7v-4.7c0-8.3-1.2-16.9-3.5-25.7c-1.9,0.4-3.9,0.8-6,1c-2,0.2-3.9,0.3-5.6,0.3
	c-3.9,0-7.1-0.4-9.6-1.3c-2.6-0.9-4.7-2.4-6.3-4.7c-1.6-2.2-2.8-5.4-3.5-9.5c-0.8-4.1-1.1-9.4-1.1-16.1V134.1
	c-7.7-1.3-15.2-1.9-22.5-1.9c-7.5,0-15.1,0.6-22.8,1.9V312.6z"/>
<path fill="#1D1D1B" d="M625.7,335.1c-2.4,0.4-5.1,0.9-8.4,1.4c-3.2,0.5-6.4,0.8-9.6,0.8c-2.8,0-6.1-0.2-9.8-0.5
	c-3.8-0.3-7.3-1.2-10.6-2.6c-3.3-1.4-6.2-3.6-8.5-6.6c-2.4-3-3.5-7.3-3.5-12.8c0-8.4,3.1-14.4,9.2-18.1c6.1-3.8,14.4-5.6,24.9-5.6
	c2.3,0,5,0.2,8,0.5c3,0.3,5.8,0.7,8.4,1.1V335.1z M625.7,263.5c-7.5-0.6-14.4-1-20.6-1c-8.6,0-17.1,0.9-25.7,2.7
	c-8.6,1.8-16.4,4.8-23.3,9c-7,4.2-12.6,9.7-17,16.7c-4.4,7-6.6,15.6-6.6,25.9c0,10.3,1.8,18.9,5.3,26c3.5,7.1,8.6,12.8,15.1,17.3
	c6.5,4.5,14.4,7.7,23.5,9.6c9.1,1.9,19.1,2.9,30.1,2.9c13.5,0,25.6-1.1,36.3-3.2c10.7-2.1,19.8-4.4,27.3-6.7v-96.3
	c0-23.5-6.3-40.7-18.8-51.4c-12.5-10.7-30-16.1-52.2-16.1c-8.2,0-16.9,0.8-26.4,2.2c-9.4,1.5-18.9,3.9-28.3,7.1
	c0,6.9,0.7,12.7,2.2,17.7c1.5,4.9,3.7,10.2,6.7,15.7c13.1-4.5,25.4-6.7,37-6.7c5.4,0,10.2,0.3,14.6,1c4.4,0.6,8.1,1.9,11.1,3.7
	c3,1.8,5.4,4.3,7.1,7.5c1.7,3.2,2.6,7.4,2.6,12.5V263.5z"/>
<path fill="#1D1D1B" d="M677.8,368.8c7.7,1.3,15.1,1.9,22.2,1.9c7.3,0,14.8-0.6,22.5-1.9v-166h-66.2c-1.3,5.6-2,11.2-2,17
	c0,2.8,0.2,5.7,0.5,8.8c0.3,3.1,0.8,6,1.5,8.8h21.5V368.8z M682.9,176.2c4.3,0.2,8.1,0.3,11.6,0.3c3.6,0,7.6-0.1,11.7-0.3
	c4.2-0.2,8.1-0.6,11.7-1.3c0.6-3.6,1.1-7.3,1.3-10.9c0.2-3.6,0.3-7.2,0.3-10.6c0-3.6-0.1-7.2-0.3-10.8c-0.2-3.5-0.7-7.1-1.3-10.8
	c-3.6-0.6-7.6-1.1-11.9-1.4c-4.3-0.3-8.3-0.5-11.9-0.5c-3.4,0-7.2,0.2-11.4,0.5c-4.2,0.3-8.1,0.8-11.7,1.4
	c-1.3,7.5-1.9,14.7-1.9,21.5c0,7.1,0.7,14.2,1.9,21.5C674.6,175.5,678.6,175.9,682.9,176.2"/>
<path fill="#1D1D1B" d="M729.2,368.8c7.3,1.3,14.8,1.9,22.5,1.9c7.7,0,15.3-0.6,22.8-1.9V134.1c-7.5-1.3-15.1-1.9-22.8-1.9
	c-7.7,0-15.2,0.6-22.5,1.9V368.8z M829.1,368.8c8.4,1.3,16.3,1.9,23.8,1.9c8.2,0,16.6-0.6,25.4-1.9l-49.5-89.3l42.4-76.8
	c-7.7-1.3-15.6-1.9-23.8-1.9c-8.6,0-17,0.6-25.4,1.9l-41.1,79L829.1,368.8z"/>
<path fill="#1D1D1B" d="M945.2,335.1c-2.4,0.4-5.1,0.9-8.3,1.4c-3.2,0.5-6.4,0.8-9.6,0.8c-2.8,0-6.1-0.2-9.8-0.5
	c-3.7-0.3-7.3-1.2-10.6-2.6c-3.3-1.4-6.2-3.6-8.5-6.6c-2.4-3-3.5-7.3-3.5-12.8c0-8.4,3.1-14.4,9.2-18.1c6.1-3.8,14.4-5.6,24.9-5.6
	c2.4,0,5,0.2,8,0.5c3,0.3,5.8,0.7,8.3,1.1V335.1z M945.2,263.5c-7.5-0.6-14.3-1-20.6-1c-8.6,0-17.1,0.9-25.7,2.7
	c-8.6,1.8-16.3,4.8-23.3,9c-7,4.2-12.6,9.7-17,16.7c-4.4,7-6.6,15.6-6.6,25.9c0,10.3,1.8,18.9,5.3,26c3.5,7.1,8.6,12.8,15.1,17.3
	c6.5,4.5,14.3,7.7,23.5,9.6c9.1,1.9,19.1,2.9,30.1,2.9c13.5,0,25.6-1.1,36.3-3.2c10.7-2.1,19.8-4.4,27.3-6.7v-96.3
	c0-23.5-6.3-40.7-18.8-51.4c-12.5-10.7-29.9-16.1-52.2-16.1c-8.1,0-16.9,0.8-26.4,2.2c-9.4,1.5-18.9,3.9-28.3,7.1
	c0,6.9,0.8,12.7,2.3,17.7c1.5,4.9,3.7,10.2,6.8,15.7c13.1-4.5,25.4-6.7,37-6.7c5.4,0,10.2,0.3,14.6,1c4.4,0.6,8.1,1.9,11.1,3.7
	c3,1.8,5.4,4.3,7.1,7.5c1.7,3.2,2.6,7.4,2.6,12.5V263.5z"/>
<path fill="#008ED9" d="M579.5,418.5c2.1-0.3,4.3-0.5,6.7-0.5c0.9,0,1.8,0,2.8,0.1c1,0,1.9,0.2,2.8,0.4l1.1,29.2l12.1-29.2
	c1.7-0.3,3.5-0.5,5.5-0.5c2,0,4,0.2,5.9,0.5l2.3,29.3l7.9-18.3c0.9-2.1,1.5-4,1.9-5.6c0.3-1.6,0.5-3,0.5-4.1c0-0.3,0-0.5-0.1-0.7
	v-0.6c1.8-0.3,3.8-0.5,6.2-0.5c2.2,0,4.3,0.2,6.2,0.5v0.3c0,1.7-0.3,3.5-0.9,5.4c-0.6,1.9-1.6,4.1-2.9,6.8l-15.1,29.5
	c-1,0.2-2.1,0.3-3.3,0.3c-1.2,0.1-2.3,0.2-3.4,0.2c-2,0-3.8-0.2-5.6-0.5l-2.4-26.7l-11.5,26.7c-1,0.1-2.1,0.2-3.2,0.3
	c-1.1,0.1-2.3,0.2-3.3,0.2c-0.9,0-1.9-0.1-2.9-0.2c-1-0.1-2-0.2-2.9-0.3L579.5,418.5z"/>
<path fill-rule="evenodd" clip-rule="evenodd" fill="#008ED9" d="M644.1,444.6c0.3,2.6,1.2,4.5,2.6,5.9c1.4,1.2,3.5,1.9,6.2,1.9
	c2.2,0,4.1-0.2,5.7-0.7c1.7-0.5,3.4-1.1,5.3-1.9c0.9,1.1,1.4,2.4,1.7,4c0.3,1.5,0.5,3.1,0.5,4.9c-0.9,0.4-2,0.8-3.2,1.2
	c-1.2,0.3-2.4,0.6-3.7,0.8c-1.3,0.3-2.6,0.5-3.9,0.6c-1.3,0.2-2.5,0.2-3.5,0.2c-3.3,0-6.2-0.4-8.5-1.2c-2.3-0.8-4.3-2-5.9-3.4
	c-1.5-1.5-2.7-3.3-3.4-5.4c-0.7-2.2-1.1-4.6-1.1-7.2c0-3.3,0.6-6.6,1.7-9.8c1.1-3.2,2.7-6,4.8-8.5c2.1-2.6,4.7-4.6,7.6-6.1
	c3-1.6,6.4-2.4,10.2-2.4c1.8,0,3.4,0.2,5,0.7c1.6,0.4,2.9,1.1,4.1,2c1.1,0.9,2,2,2.7,3.2c0.6,1.3,1,2.8,1,4.6c0,2.4-0.6,4.6-1.7,6.3
	c-1.1,1.8-2.7,3.3-4.6,4.6c-1.9,1.2-4.1,2.3-6.5,3.1c-2.4,0.8-4.9,1.3-7.5,1.7L644.1,444.6z M648.7,436.3c2.1-0.3,3.7-0.7,5-1.2
	c1.3-0.5,2.3-1.1,3.1-1.7c0.8-0.7,1.3-1.3,1.5-2c0.3-0.7,0.4-1.3,0.4-2c0-1-0.4-1.9-1.1-2.5c-0.7-0.7-1.5-1-2.7-1
	c-1.4,0-2.7,0.3-3.9,1c-1.1,0.6-2.1,1.4-3,2.4c-0.9,1-1.6,2.2-2.3,3.6c-0.6,1.3-1.1,2.6-1.4,4L648.7,436.3z"/>
<path fill-rule="evenodd" clip-rule="evenodd" fill="#008ED9" d="M676.4,451.4c0.4,0.2,1,0.3,1.6,0.4c0.7,0.1,1.4,0.1,2.1,0.1
	c2.4,0,4.4-0.5,6.1-1.6c1.7-1.1,3.1-2.6,4.2-4.2c1.1-1.7,2-3.6,2.4-5.7c0.5-2.1,0.8-4.1,0.8-6c0-1.9-0.4-3.5-1.2-4.9
	c-0.8-1.4-2.1-2.1-4-2.1c-2.5,0-4.6,1.1-6.4,3.2c-1.8,2.1-3.1,5.6-3.9,10.5L676.4,451.4z M671,416.9c1-5.7,1.5-10,1.5-12.9
	c0-0.6,0-1.1-0.1-1.5c0-0.4,0-0.9-0.1-1.4c0.9-0.2,2-0.3,3.2-0.3c1.2-0.1,2.2-0.2,3.1-0.2c1.6,0,3.3,0.2,5.2,0.5
	c0.3,0.8,0.4,1.8,0.4,3.1c0,2.4-0.3,5.3-1,8.7l-2,11.3c0.6-0.8,1.4-1.6,2.1-2.4c0.8-0.8,1.7-1.5,2.8-2.2c1-0.6,2.2-1.2,3.6-1.5
	c1.4-0.4,2.9-0.6,4.7-0.6c3.8,0,6.7,1.3,8.7,3.9c2.1,2.6,3.1,6.4,3.1,11.3c0,3.4-0.5,6.7-1.5,10.2c-1,3.4-2.6,6.5-5,9.3
	c-2.3,2.8-5.3,5-9.1,6.7c-3.8,1.7-8.5,2.6-14.1,2.6c-2.5,0-4.9-0.2-7-0.6c-2.1-0.4-4.1-1-6-1.8L671,416.9z"/>
<path fill-rule="evenodd" clip-rule="evenodd" fill="#1D1D1B" d="M745.5,422.7l0.2-0.8c0.3-1.4,0.4-2.6,0.5-3.8
	c0.1-1.2,0.1-2.3,0.1-3.1c1.4-0.9,3.1-1.6,5.2-1.9c2.1-0.4,4-0.6,5.8-0.6c0.3,0.8,0.4,1.8,0.4,3.1c0,0.9-0.1,1.8-0.2,2.8
	c-0.1,1-0.3,2.1-0.5,3.3l-0.2,1.1h6.5c-0.1,1.6-0.3,3.1-0.6,4.5c-0.2,1.3-0.5,2.7-1,4.3h-6.4l-1.7,9.9c-0.7,3.9-1.9,7.2-3.6,9.8
	c-1.6,2.6-3.6,4.7-6,6.3c-2.3,1.5-5,2.6-7.9,3.2c-2.9,0.7-6,1-9.3,1c-2.7,0-5.3-0.3-7.6-0.9c-2.3-0.6-4.4-1.5-6.2-2.8
	c-1.7-1.2-3.1-2.9-4.1-4.9c-1-2-1.5-4.4-1.5-7.2c0-2.4,0.4-4.6,1.1-6.5c0.8-2,1.7-3.8,2.9-5.3c1.2-1.6,2.5-2.9,4.1-4
	c1.5-1.1,3-1.9,4.5-2.5c-1.5-0.9-2.8-2.2-3.9-3.9c-1-1.7-1.5-3.7-1.5-5.9c0-2.7,0.6-5.1,1.7-7.2c1.1-2.1,2.6-3.8,4.5-5.2
	c1.9-1.4,4-2.5,6.4-3.2c2.4-0.7,4.8-1.1,7.3-1.1c1.8,0,3.6,0.1,5.5,0.4c1.9,0.3,3.6,0.7,5.1,1.4c-0.1,1.5-0.3,3-0.7,4.3
	c-0.3,1.4-0.9,2.8-1.9,4.3c-1.7-0.6-3.1-1-4.3-1.1c-1.1-0.2-2.3-0.3-3.5-0.3c-1.1,0-2.3,0.1-3.3,0.4c-1,0.3-2,0.7-2.8,1.3
	c-0.8,0.5-1.4,1.3-1.9,2.2c-0.5,0.9-0.7,1.9-0.7,3.2c0,1.6,0.5,2.9,1.4,4c1,1,2.6,1.5,4.8,1.5H745.5z M744,431.4h-10.2
	c-2,0-3.5,0.2-4.8,0.5c-1.2,0.3-2.2,0.6-2.9,1c-2,1-3.5,2.4-4.7,4.3c-1.2,1.9-1.8,4.1-1.8,6.7c0,2.4,0.8,4.3,2.4,5.6
	c1.6,1.4,3.8,2,6.6,2c2.3,0,4.2-0.3,5.9-1c1.6-0.7,3-1.5,4.1-2.7c1.1-1.2,2.1-2.6,2.8-4.2c0.7-1.6,1.2-3.4,1.5-5.4L744,431.4z"/>
<path fill="#1D1D1B" d="M765.8,418.5c0.8-0.2,1.5-0.3,2.3-0.3c0.8-0.1,1.6-0.2,2.5-0.2c0.9,0,1.7,0.1,2.4,0.2
	c0.7,0.1,1.4,0.2,2.2,0.3c0.2,0.3,0.3,0.7,0.4,1.2c0.2,0.5,0.3,1,0.4,1.6c0.1,0.5,0.2,1.1,0.2,1.6c0.1,0.5,0.2,1,0.2,1.4
	c0.4-0.8,1-1.6,1.7-2.4c0.7-0.8,1.5-1.5,2.5-2.2c1-0.7,2.1-1.2,3.3-1.6c1.2-0.4,2.6-0.6,4.1-0.6c6.6,0,10.8,2.5,12.6,7.5
	c1.1-2,2.6-3.7,4.5-5.2c2-1.5,4.5-2.3,7.6-2.3c4.8,0,8.3,1.3,10.5,4c2.3,2.6,3.4,6.7,3.4,12.3v26.7c-2,0.3-3.9,0.5-5.8,0.5
	c-1.9,0-3.8-0.2-5.8-0.5v-23.7c0-2.9-0.4-5.2-1.1-6.7c-0.7-1.6-2.2-2.4-4.4-2.4c-0.9,0-1.8,0.1-2.8,0.4c-0.9,0.3-1.7,0.8-2.4,1.5
	c-0.7,0.7-1.3,1.7-1.8,3.1c-0.4,1.3-0.7,3-0.7,5.1v22.7c-2,0.3-3.9,0.5-5.8,0.5c-1.9,0-3.8-0.2-5.8-0.5v-23.7c0-2.9-0.4-5.2-1.1-6.7
	c-0.7-1.6-2.2-2.4-4.4-2.4c-0.9,0-1.8,0.1-2.8,0.4c-0.9,0.3-1.8,0.8-2.5,1.6c-0.7,0.8-1.3,1.8-1.7,3.3c-0.4,1.4-0.6,3.2-0.6,5.5v22
	c-2,0.3-3.9,0.5-5.8,0.5c-1.9,0-3.8-0.2-5.8-0.5V418.5z"/>
<path fill-rule="evenodd" clip-rule="evenodd" fill="#1D1D1B" d="M848.5,461.5c-3.4,0-6.4-0.5-8.9-1.6c-2.5-1.1-4.6-2.7-6.3-4.6
	c-1.6-2-2.9-4.3-3.7-7c-0.8-2.6-1.2-5.5-1.2-8.6c0-3.1,0.4-6,1.2-8.7c0.9-2.7,2.1-5,3.7-7c1.7-2,3.8-3.6,6.3-4.7
	c2.5-1.1,5.5-1.7,8.9-1.7c3.4,0,6.4,0.6,8.9,1.7c2.6,1.1,4.7,2.7,6.3,4.7c1.7,2,2.9,4.3,3.7,7c0.8,2.7,1.2,5.6,1.2,8.7
	c0,3.1-0.4,6-1.2,8.6c-0.8,2.7-2.1,5-3.7,7c-1.7,2-3.8,3.5-6.3,4.6C854.9,461,852,461.5,848.5,461.5 M848.5,452.7
	c3,0,5.2-1.1,6.5-3.3c1.4-2.3,2-5.5,2-9.8c0-4.2-0.7-7.5-2-9.7c-1.3-2.3-3.5-3.4-6.5-3.4c-3,0-5.1,1.1-6.5,3.4c-1.3,2.2-2,5.4-2,9.7
	c0,4.2,0.6,7.5,2,9.8C843.4,451.6,845.6,452.7,848.5,452.7"/>
<path fill-rule="evenodd" clip-rule="evenodd" fill="#1D1D1B" d="M871.2,401.1c2-0.3,3.8-0.5,5.7-0.5c1.9,0,3.8,0.2,5.8,0.5v21.5
	c0.8-1.5,2.2-2.7,4.1-3.6c1.9-1,4.1-1.5,6.5-1.5s4.7,0.4,6.8,1.3c2.1,0.9,3.9,2.2,5.4,4c1.5,1.7,2.7,3.9,3.6,6.6
	c0.9,2.6,1.3,5.8,1.3,9.4c0,3.5-0.5,6.7-1.6,9.5c-1.1,2.8-2.7,5.1-4.7,7.1c-2.1,2-4.6,3.5-7.6,4.6c-3,1-6.3,1.5-10.1,1.5
	c-1.2,0-2.5-0.1-3.8-0.2c-1.3-0.1-2.6-0.3-4-0.5c-1.4-0.2-2.7-0.4-3.9-0.7c-1.2-0.3-2.4-0.7-3.4-1.1V401.1z M882.7,451.4
	c0.7,0.2,1.3,0.4,2,0.4c0.8,0.1,1.5,0.1,2.3,0.1c3.5,0,6.3-1,8.3-3.1c2-2.1,3-5.3,3-9.7c0-3.9-0.6-6.9-1.9-8.9
	c-1.2-2.1-3.4-3.1-6.3-3.1c-2.2,0-4,0.7-5.4,2.2c-1.4,1.4-2,3.7-2,6.7V451.4z"/>
<path fill-rule="evenodd" clip-rule="evenodd" fill="#1D1D1B" d="M915.1,427.3h-5.4c-0.2-0.7-0.3-1.4-0.4-2.2
	c-0.1-0.8-0.1-1.6-0.1-2.3c0-1.5,0.2-2.9,0.5-4.3h16.8v42c-2,0.3-3.9,0.5-5.7,0.5c-1.8,0-3.7-0.2-5.6-0.5V427.3z M913.4,411.4
	c-0.3-1.8-0.5-3.7-0.5-5.4c0-1.7,0.2-3.5,0.5-5.4c0.9-0.2,1.9-0.3,2.9-0.3c1.1-0.1,2.1-0.2,2.9-0.2c0.9,0,1.9,0.1,3,0.2
	c1.1,0.1,2.1,0.2,3,0.3c0.2,0.9,0.3,1.8,0.3,2.8c0.1,0.9,0.1,1.8,0.1,2.7c0,0.9,0,1.8-0.1,2.7c-0.1,0.9-0.2,1.8-0.3,2.8
	c-0.9,0.2-1.9,0.3-3,0.3c-1,0.1-2,0.1-2.9,0.1c-0.9,0-1.8,0-2.9-0.1C915.3,411.7,914.3,411.6,913.4,411.4"/>
<path fill="#1D1D1B" d="M931,401.1c2-0.3,3.9-0.5,5.8-0.5c1.8,0,3.7,0.2,5.7,0.5v42.7c0,1.7,0.1,3,0.2,4.1c0.2,1,0.5,1.8,0.9,2.4
	c0.4,0.5,1,0.9,1.6,1.1c0.7,0.2,1.5,0.3,2.4,0.3c0.4,0,0.9,0,1.4-0.1c0.5-0.1,1.1-0.1,1.5-0.2c0.6,2.2,0.9,4.4,0.9,6.5v1.2
	c0,0.3-0.1,0.7-0.2,1.1c-0.9,0.3-1.9,0.5-3.2,0.6c-1.2,0.1-2.3,0.2-3.3,0.2c-4.2,0-7.5-1.1-10.1-3.4c-2.5-2.3-3.7-6.1-3.7-11.3
	V401.1z"/>
<path fill-rule="evenodd" clip-rule="evenodd" fill="#1D1D1B" d="M960.3,443.1c0.2,3.2,1.4,5.6,3.4,7.1c2.1,1.5,4.8,2.2,8.1,2.2
	c1.8,0,3.7-0.2,5.6-0.5c2-0.4,3.8-0.9,5.5-1.5c0.6,1.1,1.1,2.4,1.5,3.9c0.4,1.5,0.7,3.1,0.7,4.9c-4.2,1.6-9,2.4-14.3,2.4
	c-3.9,0-7.3-0.5-10.1-1.6c-2.8-1.1-5-2.6-6.8-4.5c-1.7-2-3-4.3-3.9-6.9c-0.8-2.7-1.2-5.6-1.2-8.7c0-3.1,0.4-6,1.3-8.7
	c0.9-2.7,2.1-5.1,3.8-7.1c1.7-2,3.8-3.6,6.3-4.7c2.5-1.2,5.5-1.8,8.9-1.8c2.9,0,5.5,0.5,7.8,1.6c2.3,1,4.2,2.4,5.8,4.2
	c1.6,1.8,2.9,3.9,3.7,6.4c0.8,2.4,1.2,5.1,1.2,7.9c0,1-0.1,2.1-0.2,3.1c-0.1,1-0.1,1.8-0.2,2.4H960.3z M976.8,435
	c-0.1-2.6-0.8-4.7-2.2-6.3c-1.3-1.6-3.1-2.4-5.5-2.4c-2.7,0-4.8,0.8-6.2,2.3c-1.4,1.5-2.2,3.7-2.5,6.4H976.8z"/>
<path fill="#FFFFFF" d="M151.1,65.4c3.3,9.1,13.3,13.7,22.4,10.4c9.1-3.3,13.7-13.3,10.4-22.4c-3.3-9.1-13.3-13.7-22.4-10.4
	C152.5,46.4,147.8,56.4,151.1,65.4"/>
<path fill="#FFFFFF" d="M358.2,249.6c-2.7,5.8-4.8,11.7-6.2,17.6l18.5-2.8c9-1.4,16.4-3.3,22.1-5.5c5.7-2.3,10.2-4.7,13.5-7.5
	c3.3-2.7,5.6-5.5,6.8-8.4c1.2-2.8,1.8-5.7,1.8-8.5c0-4.5-1.5-8.2-4.4-11c-3-2.8-6.9-4.3-11.9-4.3c-6.2,0-11.8,1.4-16.9,4.1
	c-5.1,2.7-9.6,6.4-13.4,10.9C364.2,238.6,361,243.8,358.2,249.6 M444.4,340.7c-3.8,9.8-8.2,18.6-13.2,27c-5,1.4-10.1,2.6-15.5,3.6
	c-5.7,1.1-11.4,1.9-17.1,2.5c-5.7,0.6-10.8,0.9-15.3,0.9c-14.5,0-26.9-1.8-37.2-5.3c-10.3-3.6-18.9-8.6-25.6-15.1
	c-6.8-6.5-11.7-14.5-15-23.9c-3.2-9.4-4.8-19.8-4.8-31.2c0-8.7,0.9-17.3,2.7-25.8l-49.7,97c-4.3,0.7-9.1,1.2-14.4,1.6
	c-5.3,0.4-10.4,0.5-15.1,0.5c-8.5,0-16.7-0.7-24.6-2.1l-10.3-117.1l-50.2,117.1c-4.5,0.5-9.3,0.9-14.2,1.4c-5,0.5-9.9,0.7-14.6,0.7
	c-4,0-8.3-0.2-12.8-0.5c-4.5-0.4-8.7-0.9-12.5-1.6L66.1,186.4c9.3-1.4,19-2.1,29.2-2.1c4,0,8.1,0.1,12.3,0.4
	c4.2,0.2,8.2,0.8,12.3,1.8l5,127.8l53-127.8c7.4-1.4,15.4-2.1,24.2-2.1c8.8,0,17.4,0.7,26,2.1l10,128.2l34.5-80.1
	c4-9.3,6.8-17.5,8.2-24.6c1.4-7.1,2.1-13.1,2.1-17.8c0-1.2-0.1-2.3-0.2-3.2c-0.1-0.9-0.3-1.8-0.3-2.5c7.8-1.4,16.6-2.1,26.8-2.1
	c9.7,0,19.3,0.7,26.6,2.1v1.4c0,7.6-0.9,15.5-3.5,23.9c-0.6,1.8-0.8,3.7-1.5,5.7c8.9-10.3,19.5-18.6,32-25.1
	c13.2-6.8,27.9-10.1,44.3-10.1c7.8,0,15.1,1,21.9,2.8c6.8,1.9,12.6,4.8,17.6,8.7c5,3.9,8.9,8.7,11.7,14.4c0.4,0.8,0.8,1.7,1.1,2.6
	c1.3,7.6,2.3,15.4,2.8,23.2c-0.8,8.3-3.1,15.6-7.2,21.9c-5,7.8-11.6,14.5-19.9,19.9c-8.3,5.5-17.7,9.9-28.3,13.4
	c-10.6,3.4-21.5,6-32.9,7.7l-23.9,3.9c1.4,11.4,5.2,19.9,11.4,25.5c6.2,5.6,15.2,8.4,27.1,8.4c9.5,0,17.9-1,25.1-3
	c7.2-2,14.9-4.7,23-8C440.5,328.2,443.1,334,444.4,340.7"/>
</svg>
