<?xml version="1.0" encoding="UTF-8" standalone="no"?>
<svg width="190px" height="55px" viewBox="0 0 190 55" version="1.1" xmlns="http://www.w3.org/2000/svg" xmlns:xlink="http://www.w3.org/1999/xlink">
    <!-- Generator: Sketch 40.3 (33839) - http://www.bohemiancoding.com/sketch -->
    <defs>
        <polygon id="path-1" points="189.805049 39.2668379 189.805049 13.2704616 171.554559 13.2704616 171.554559 39.2668379 189.805049 39.2668379"></polygon>
    </defs>
    <g id="Shop-List" stroke="none" stroke-width="1" fill="none" fill-rule="evenodd">
        <g id="Shop_list_1368" transform="translate(-52.000000, -32.000000)">
            <g id="Header_1368_default" transform="translate(20.000000, 0.000000)">
                <g id="Page-1" transform="translate(32.000000, 32.000000)">
                    <g id="Group-3" transform="translate(0.000000, 0.190189)" fill="#E7355F">
                        <path d="M32.7785089,0 L7.75869267,0 C6.20816087,0 4.95114007,1.24887517 4.95114007,2.79012743 L4.95114007,6.81223259 L4.95114007,9.60236003 L7.75869267,9.60236003 L32.7785089,9.60236003 L35.5863192,9.60236003 L35.5863192,6.81223259 L35.5863192,2.79012743 C35.5863192,1.24887517 34.32801,0 32.7785089,0" id="Fill-1"></path>
                        <path d="M36.5822227,36.6142689 C36.5822227,44.2776058 30.3839603,50.4906854 22.7398916,50.4906854 L17.8686056,50.4906854 C10.2237926,50.4906854 4.02627441,44.2776058 4.02627441,36.6142689 L4.02627441,34.1740468 L4.02875521,34.1740468 C4.02875521,34.1009371 4.0228013,34.0288221 4.0228013,33.9557124 C4.0228013,27.3355561 7.95957239,21.6419532 13.6118121,19.084109 C15.6517686,18.1600424 17.9145003,17.6423065 20.2987908,17.6423065 C22.6833295,17.6423065 24.9463092,18.1600424 26.9862657,19.084109 C32.6392496,21.6419532 36.5752765,27.3355561 36.5752765,33.9557124 C36.5752765,34.0288221 36.570563,34.1009371 36.570563,34.1740468 L36.5822227,34.1740468 L36.5822227,36.6142689 Z M40.8383477,33.4624288 C40.8383477,26.659566 37.5243828,20.63577 32.4293466,16.9146015 L32.4293466,13.0096491 L20.9872339,13.0096491 L19.8500764,13.0096491 L8.40874174,13.0096491 L8.40874174,16.9146015 C3.31370554,20.63577 0,26.659566 0,33.4624288 C0,33.5541907 0.00596456623,33.644393 0.0070018821,33.736155 L0.00363060553,36.7975732 C0.00363060553,46.4123033 7.77883168,54.2068711 17.3703728,54.2068711 L23.4812006,54.2068711 C33.0719638,54.2068711 40.8469055,46.4123033 40.8469055,36.7975732 L40.8469055,33.736155 C40.8326424,33.644393 40.8383477,33.5541907 40.8383477,33.4624288 Z" id="Fill-6"></path>
                    </g>
                    <path d="M7.6547101,10.5549761 C7.42881433,10.5549761 7.20260912,10.5724761 6.97609446,10.5829761 L8.33301629,10.5829761 C8.10742997,10.5724761 7.88246254,10.5549761 7.6547101,10.5549761" id="Fill-4" fill="#E7355F"></path>
                    <path d="M86.4429137,19.1556551 L86.4429137,33.9290409 C85.3796564,34.6055426 84.4429625,35.0856606 83.651399,35.3610315 C82.7998029,35.6549876 81.7962687,35.8033596 80.6677182,35.8033596 C79.3401938,35.8033596 78.0887932,35.5605128 76.9491026,35.0813241 C75.8100309,34.6021353 74.8037117,33.9312091 73.961399,33.08806 C73.1224902,32.2489376 72.4636792,31.2375923 72.0022948,30.0806628 C71.5381254,28.9218747 71.301399,27.6568413 71.301399,26.3218035 C71.301399,24.9845974 71.5201775,23.7452734 71.9509267,22.6363557 C72.3764153,21.5351819 72.9922134,20.5690605 73.7772785,19.7649403 C74.566057,18.9617494 75.5055358,18.3283034 76.5734349,17.885046 C77.6394772,17.4405497 78.8376531,17.2150491 80.1314479,17.2150491 C81.3005358,17.2150491 82.3916433,17.3748819 83.3710407,17.6905208 C84.2774088,17.9838574 85.3094121,18.4760558 86.4429137,19.1556551 L86.4429137,19.1556551 Z M86.4429137,13.7516947 L86.4429137,14.7921568 C85.3722296,14.3098706 84.4265619,13.9517955 83.6207638,13.7247461 C82.5442003,13.4221169 81.333956,13.2703377 80.0259267,13.2703377 C78.1859593,13.2703377 76.4617248,13.604252 74.8965456,14.2643368 C73.3353893,14.9234923 71.9595912,15.8518237 70.8065945,17.0233117 C69.6554544,18.1951093 68.7463013,19.6109928 68.1079137,21.2316234 C67.4689072,22.8435808 67.1458453,24.6107248 67.1458453,26.481946 C67.1458453,28.3215724 67.4791189,30.0719897 68.1354544,31.6861154 C68.7924088,33.3020997 69.706513,34.7235587 70.8564153,35.9117733 C72.006627,37.1015367 73.3824251,38.0472143 74.9445098,38.7252648 C76.5106173,39.4048641 78.2184511,39.7502393 80.0259267,39.7502393 C81.4487606,39.7502393 82.7397704,39.5668652 83.861513,39.2066218 C84.6605033,38.9492166 85.5247866,38.540342 86.4429137,37.9877416 L86.4429137,39.2670238 L90.4378648,39.2670238 L90.4378648,13.7516947 L86.4429137,13.7516947 Z" id="Fill-8" fill="#E7355F"></path>
                    <path d="M128.933907,16.1474835 C127.298174,14.2378529 125.061806,13.2704925 122.284217,13.2704925 C120.391953,13.2704925 118.713826,13.7722933 117.294086,14.7662924 C116.170487,15.5512079 115.075976,16.7295104 114.029428,18.2785879 C113.284901,16.8019927 112.378533,15.6487803 111.325796,14.838465 C109.972279,13.7973833 108.228549,13.2704925 106.14907,13.2704925 C104.38306,13.2704925 102.828093,13.664499 101.524086,14.4435292 C100.680226,14.9468787 99.8657638,15.6791361 99.0884349,16.6288405 L99.0884349,13.7518495 L95.0934837,13.7518495 L95.0934837,39.2668689 L99.0884349,39.2668689 L99.0884349,21.8571707 C100.142099,20.1739699 101.16977,18.964692 102.143598,18.2618612 C103.105047,17.5677035 104.272588,17.215204 105.613419,17.215204 C106.373419,17.215204 107.094738,17.3518053 107.7585,17.6197421 C108.400601,17.8796253 108.986692,18.311112 109.498826,18.9024316 C110.023028,19.505212 110.444184,20.2901275 110.753011,21.2314685 C111.067718,22.1951118 111.227083,23.4016019 111.227083,24.8196536 L111.227083,39.2668689 L115.223272,39.2668689 L115.223272,22.3351204 C116.350585,20.466687 117.413842,19.1257639 118.387669,18.347663 C119.33736,17.585979 120.454151,17.215204 121.801171,17.215204 C122.75179,17.215204 123.578321,17.3961001 124.258484,17.7516971 C124.938647,18.1072942 125.509265,18.6180778 125.958581,19.2682505 C126.425845,19.9447523 126.778305,20.7600236 127.007295,21.6889745 C127.241855,22.6526178 127.360992,23.7243651 127.360992,24.8729312 L127.360992,39.2668689 L131.357181,39.2668689 L131.357181,23.7475966 C131.357181,20.580986 130.54148,18.0248998 128.933907,16.1474835" id="Fill-10" fill="#E7355F"></path>
                    <path d="M162.829164,19.1556551 L162.829164,33.9290409 C161.766217,34.6055426 160.829213,35.0856606 160.037959,35.3610315 C159.186054,35.6549876 158.183448,35.8033596 157.053969,35.8033596 C155.726135,35.8033596 154.475353,35.5605128 153.335663,35.0813241 C152.196591,34.6021353 151.190272,33.9312091 150.34734,33.08806 C149.508432,32.2489376 148.849311,31.2375923 148.388236,30.0806628 C147.924067,28.9218747 147.687959,27.6568413 147.687959,26.3218035 C147.687959,24.9845974 147.906738,23.7452734 148.336559,22.6363557 C148.762976,21.5351819 149.377845,20.5690605 150.163529,19.7649403 C150.951998,18.9617494 151.892096,18.3283034 152.959686,17.885046 C154.026037,17.4405497 155.224213,17.2150491 156.517699,17.2150491 C157.687096,17.2150491 158.777894,17.3748819 159.757601,17.6905208 C160.66335,17.9838574 161.693806,18.4760558 162.829164,19.1556551 L162.829164,19.1556551 Z M162.829164,13.7516947 L162.829164,14.7921568 C161.75879,14.3098706 160.812813,13.9517955 160.006705,13.7247461 C158.930451,13.4221169 157.720516,13.2703377 156.41063,13.2703377 C154.571591,13.2703377 152.848285,13.604252 151.282796,14.2643368 C149.72195,14.9234923 148.345842,15.8518237 147.193155,17.0233117 C146.041396,18.1951093 145.132552,19.6109928 144.493855,21.2316234 C143.855158,22.8435808 143.532406,24.6107248 143.532406,26.481946 C143.532406,28.3215724 143.864132,30.0719897 144.521396,31.6861154 C145.17835,33.3020997 146.092764,34.7235587 147.242976,35.9117733 C148.393187,37.1015367 149.767129,38.0472143 151.331689,38.7252648 C152.896868,39.4048641 154.604393,39.7502393 156.41063,39.7502393 C157.835321,39.7502393 159.125402,39.5668652 160.247454,39.2066218 C161.046754,38.9492166 161.9098,38.540342 162.829164,37.9877416 L162.829164,39.2670238 L166.825353,39.2670238 L166.825353,13.7516947 L162.829164,13.7516947 Z" id="Fill-12" fill="#E7355F"></path>
                    <mask id="mask-2" fill="white">
                        <use xlink:href="#path-1"></use>
                    </mask>
                    <g id="Clip-15"></g>
                    <path d="M189.352979,16.2905587 C188.116741,15.204253 187.07793,14.4518616 186.177751,13.9912581 C185.2392,13.5120693 184.292914,13.2704616 183.36148,13.2704616 C180.697767,13.2704616 178.130601,15.0205691 175.550748,18.6072055 L175.550748,13.7518186 L171.554559,13.7518186 L171.554559,39.2668379 L175.550748,39.2668379 L175.550748,23.6202569 C176.796269,21.5210571 178.050145,19.9013558 179.279265,18.8054477 C180.459803,17.7507369 181.562669,17.215173 182.558467,17.215173 C183.107116,17.215173 183.684852,17.3830594 184.272181,17.7132567 C184.919852,18.0793854 185.805178,18.7707553 186.903402,19.7681618 L187.53622,20.3402766 L189.80508,16.6882822 L189.352979,16.2905587 Z" id="Fill-14" fill="#E7355F"></path>
                    <path d="M135.829669,13.7517566 L135.829669,41.1838407 C135.829669,42.5514026 135.719816,43.6950127 135.502585,44.5818371 C135.293708,45.4318009 135.000044,46.1123294 134.633041,46.6045278 C134.282129,47.0728752 133.856021,47.3990457 133.336151,47.6019342 C132.767699,47.8230983 132.104246,47.9522655 131.36405,47.9844799 L130.478725,48.0235088 L131.440793,51.6076671 L131.985109,51.6076671 C133.038464,51.6076671 134.050353,51.4091151 134.993236,51.0160379 C135.954686,50.6142875 136.804735,49.9672123 137.520174,49.0927781 C138.214262,48.2437436 138.781168,47.1552696 139.201705,45.8561632 C139.615744,44.5728543 139.825858,43.018511 139.825858,41.2374281 L139.825858,13.7517566 L135.829669,13.7517566 Z" id="Fill-17" fill="#E7355F"></path>
                    <path d="M137.745884,7.51037748 C138.302578,7.51037748 138.809761,7.29943531 139.208946,6.9007825 C139.593588,6.51544908 139.797822,6.01705562 139.797822,5.45949923 C139.797822,4.89946481 139.584614,4.39456653 139.186666,3.99870149 C138.804191,3.61243882 138.30722,3.40831123 137.745884,3.40831123 C137.188262,3.40831123 136.684484,3.6192534 136.284989,4.01945498 C135.902204,4.4047884 135.69766,4.9028721 135.69766,5.45949923 C135.69766,6.01705562 135.909321,6.52226366 136.305721,6.91967746 C136.689125,7.30594014 137.185477,7.51037748 137.745884,7.51037748" id="Fill-19" fill="#E7355F"></path>
                    <path d="M59.4432948,41.1838407 C59.4432948,42.5514026 59.3337508,43.6950127 59.1162101,44.5818371 C58.9079528,45.4318009 58.6136694,46.1123294 58.2466661,46.6045278 C57.8957541,47.0728752 57.4711938,47.3990457 56.9503958,47.6019342 C56.381943,47.8230983 55.7181808,47.9522655 54.9779853,47.9844799 L54.0923502,48.0235088 L55.0544186,51.6076671 L55.599044,51.6076671 C56.6520896,51.6076671 57.6639788,51.4091151 58.6065521,51.0160379 C59.56893,50.6142875 60.4189788,49.9672123 61.1337997,49.0927781 C61.8285065,48.2437436 62.3954121,47.1552696 62.8156401,45.8561632 C63.2293697,44.5728543 63.4391743,43.018511 63.4391743,41.2374281 L63.4391743,13.7517566 L59.4432948,13.7517566 L59.4432948,41.1838407 Z" id="Fill-21" fill="#E7355F"></path>
                    <path d="M61.3892476,7.51037748 C61.9459414,7.51037748 62.4528143,7.29943531 62.8535472,6.90016299 C63.2369511,6.51359056 63.439329,6.01612636 63.439329,5.45949923 C63.439329,4.90132334 63.2279772,4.39487628 62.8297199,3.99777223 C62.446316,3.61243882 61.9493453,3.40831123 61.3892476,3.40831123 C60.8316254,3.40831123 60.3259902,3.6192534 59.9268046,4.01945498 C59.5434007,4.4047884 59.3407134,4.9028721 59.3407134,5.45949923 C59.3407134,6.01612636 59.5505179,6.5213344 59.9490847,6.92122623 C60.3324886,7.30594014 60.8294593,7.51037748 61.3892476,7.51037748" id="Fill-23" fill="#E7355F"></path>
                </g>
            </g>
        </g>
    </g>
</svg>
