<?xml version="1.0" encoding="UTF-8" standalone="no"?><!DOCTYPE svg PUBLIC "-//W3C//DTD SVG 1.1//EN" "http://www.w3.org/Graphics/SVG/1.1/DTD/svg11.dtd"><svg width="100%" height="100%" viewBox="0 0 2007 2147" version="1.1" xmlns="http://www.w3.org/2000/svg" xmlns:xlink="http://www.w3.org/1999/xlink" xml:space="preserve" style="fill-rule:evenodd;clip-rule:evenodd;stroke-linejoin:round;stroke-miterlimit:1.41421;"><circle cx="1003.48" cy="1065.23" r="1003.48" style="fill:#a2d3ff;"/><g><g id="Layer9"><path d="M673.225,10.591l71.456,161.516l75.982,243.075l8.208,-7.453l-19.659,-67.645l-30.571,-142.529l-9.995,-155.002l-10.106,-2.469l10.833,144.972l-10.663,-8.668l-68.319,-168.489l-17.166,2.692Z" style="fill:#696969;"/></g><g id="Layer5"><path d="M358.345,474.573l-26.425,34.953l-27.433,44.419l-14.161,-30.717l-6.525,-46.974l-2.232,-61.095l1.196,-73.866l-97.342,50.317l14.502,-68.343l12.178,-35.281l16.171,-25.63l14.262,-19.493l36.605,-36.262l21.277,-13.399l38.709,-11.857l-46.027,-39.208l13.657,-2.782l33.469,-0.68l40.359,5.661l20.588,-20.763l33.227,-21.788l37.841,-15.464l29.484,-7.337l37.305,-2.181l39.542,2.819l35.943,11.128l63.81,36.024l51.312,39.56l40.578,40.038l27.605,-31.159l29.249,-21.351l29.142,-1.339l26.699,3.85l28.049,17.061l21.484,27.081l7.367,19.938l3.039,14.762l-21.292,87.858l-23.984,22.872l-20.74,13.212l-31.398,-0.289l-33.399,-12.229l-13.075,-16.976l5.481,36.744l-0.898,25.988l-19.977,47.091l-25.099,34.69l-17.081,24.444l-5.623,22.021l10.124,19.836l17.948,25.839l-32.19,-8.644l-32.989,-22.451l-7.818,-4.308l10.105,47.448l-12.401,-4.47l-42.128,-43.407l43.728,-67.179l4.713,-14.329l-15.232,-41.208l-27.295,-52.921l-16.049,-31.408l4.714,53.768l-21.666,-14.209l-67.762,-83.714l-16.28,47.295l-61.068,-73.919l-6.372,-2.306l-4.732,11.634l-78.846,84.726l-2.024,20.63l-15.051,38.769l-11.226,32.026l2.378,36.434Z" style="fill:#e6d5aa;"/></g><g id="Layer1"><path d="M384.886,346.908l-2.341,20.526l-7.77,24.934l-12.466,25.295l-5.871,18.126l3.21,21.604l5.865,21.181l14.979,24.054l21.302,25.037l29.463,27.987l45.406,27.061l23.535,6.378l48.277,-7.372l32.077,-16.483l41.749,-23.076l29.723,-21.738l32.732,-42.273l8.541,-27.496c1.051,-4.78 25.379,-12.743 29.656,-14.864c14.006,-6.946 44.074,-30.909 48.428,-42.58c3.736,-10.019 2.304,-37.509 -8.861,-46.301c-11.473,-9.036 -10.773,-12.192 -29.813,-12.192l-13.257,0l-15.362,32.718l-5.946,78.965l-36.039,-73.349l-21.25,-38.334l0.521,40.689l-9.782,-1.884l-20.923,-22.228l-57.403,-68.912l-3.232,-4.267l-13.337,47.159l-31.092,-27.071l-32.63,-48.043l-5.935,5.492l-56.282,66.17l-25.872,25.087Z" style="fill:#f9edda;"/><path d="M473.587,1362.14l17.269,113.283l33.962,147.445l28.489,157.396l7.909,84.493l10.491,62.708l-130.391,95.589c41.787,17.218 102.967,23.557 177.415,22.453l20.319,-49.985l-14.978,-85.625l16.807,-96.656l-0.693,-94.906l-18.604,-86.322c-2.178,-44.188 3.013,-87.987 18.017,-131.27l24.977,47.773l15.735,56.67l-1.04,50.141l7.913,73.973l36.656,106.189l20.01,80.772l1.533,51.773l4.083,42.693c24.251,41.877 74.947,71.474 149.299,90.087l2.159,-37.817c-22.021,-30.358 -48.578,-62.248 -85.112,-97.505c-20.595,-82.791 -19.762,-164.051 -11.55,-247.157l-6.532,-74.795c-3.652,-69.384 -2.574,-147.048 -6.737,-217.016c-1.571,-26.402 -7.964,-44.629 -9.699,-71.219l-307.707,6.835Z" style="fill:#f9edda;"/><path d="M473.587,1362.14l17.269,113.283l33.962,147.445l28.489,157.396l7.909,84.493l10.491,62.708l-130.391,95.589c41.787,17.218 102.967,23.557 177.415,22.453l20.319,-49.985l-14.978,-85.625l16.807,-96.656l-0.693,-94.906l-18.604,-86.322c-2.178,-44.188 3.013,-87.987 18.017,-131.27l24.977,47.773l15.735,56.67l-1.04,50.141l7.913,73.973l36.656,106.189l20.01,80.772l1.533,51.773l4.083,42.693c24.251,41.877 74.947,71.474 149.299,90.087l2.159,-37.817c-22.021,-30.358 -48.578,-62.248 -85.112,-97.505c-20.595,-82.791 -19.762,-164.051 -11.55,-247.157l-6.532,-74.795c-3.652,-69.384 -2.574,-147.048 -6.737,-217.016c-1.571,-26.402 -7.964,-44.629 -9.699,-71.219l-307.707,6.835Z" style="fill:#504941;fill-opacity:0.60222;"/><path d="M557.406,577.662l-0.415,27.893l-69.553,23.703l-72.897,54.815l-86.133,102.292l-57.626,104.71c0.912,19.42 8.766,35.999 20.407,51.029c30.485,37.692 69.091,82.503 108.22,117.216l25.376,31.417l-63.616,45.062c-2.721,34.522 13.313,51.945 34.917,64.288l55.511,-152.18c-27.678,-49.319 -59.207,-97.425 -95.641,-143.987l51.403,-63.844l311.689,-42.152l36.677,76.853c17.985,31.123 39.285,60.986 66.663,88.536c69.822,-64.511 122.488,-138.928 164.49,-218.265l20.844,-11.647l10.45,-40.411l27.212,-12.251l6.437,-21.987l-17.9,-59.756l-33.31,-20.635l-38.346,10.73l0,-46.655l6.363,-32.075c-3.249,-49.261 2.638,-36.49 -15.549,-58.309c-20.854,59.182 -27.562,118.238 -24.232,177.206c-13.723,4.242 -26.704,9.423 -36.107,19.125c11.935,27.102 29.117,51.579 50.017,74.196c-22.255,28.303 -51.619,49.815 -74.341,75.345c-15.58,17.506 -28.378,42.718 -40.257,60.599c-12.529,-74.767 -37.03,-154.685 -65.679,-229.639c-26.709,-29.225 -71.236,-36.835 -125.767,-32.311l-26.449,-46.546l-52.858,27.635Z" style="fill:#f9edda;"/></g><g id="Layer7"><path d="M520.236,612.326l-24.223,19.83l-37.224,61.937c-38.298,21.01 -66.551,54.783 -91.245,93.079c9.19,22.804 31.25,45.495 63.911,71.074c-1.673,58.257 8.043,124.574 19.518,186.6l-24.128,67.757c20.238,9.318 43.231,16.539 72.741,18.799c49.345,6.88 99.129,3.794 149.13,-4.203c49.695,-7.98 94.926,-24.196 134.216,-51.379c-9.727,-24.21 -30.409,-49.098 -59.022,-74.475l-51.055,-42.114c18.562,-49.735 32.06,-100.174 39.51,-151.454c-7.605,-14.727 -20.961,-26.067 -40.067,-34.018c-16.755,-16.084 -25.529,-36.67 -25.383,-62.289c-1.31,-35.677 8.696,-67.467 25.94,-99.144l13.614,-13.33l-31.827,0l-70.958,88.558c-10.582,13.579 -25.255,20.661 -44.215,20.934c-14.081,-3.69 -22.197,-12.036 -25.07,-24.474c0.266,-25.983 9.218,-50.24 24.112,-73.316l-18.275,1.628Z" style="fill:#25211e;"/></g><g id="Layer8"><path d="M424.445,1113.89l-25.745,89.719l-18.206,98.02l-2.578,39.547l25.284,5l41.593,17.606l37.191,14.222l93.254,-14.222l29.504,-7.388l75.204,17.129l27.742,0.568l63.288,-18.993l28.164,-16.983l58.039,-3.127l42.259,-16.602l-6.842,-10.277l-52.571,-123.832l-55.015,-111.145l-26.395,16.54c-101.77,52.537 -213.531,58.896 -334.17,24.218Z" style="fill:#a62509;"/></g><g id="Layer6"><path d="M933.947,238.846l-26.855,25.361l48.544,157.899l149.033,-73.371l-19.949,-72.162l-11.278,-17.403l-55.242,-32.552l-35.022,-1.586l-49.231,13.814Z" style="fill:#e92509;"/></g><g id="Layer2"><path d="M413.968,327.582l-4.673,75.229l31.538,-4.097l15.905,0l15.217,-3.45l-0.57,-31.086l-3.864,-16.401l-7.822,-21.793l-8.71,-5.79l-37.021,7.388Z" style="fill:#fff;"/><path d="M441.713,325.171l-9.471,16.147l-1.333,27.164l9.415,27.26l20.685,1.593l10.178,-2.383l0.855,-21.932l-2.424,-16.118l-11.066,-33.333l-16.839,1.602Z" style="fill:#929baf;"/><path d="M446.969,370.387l-16.06,-3.649c0.756,15.112 6.765,26.868 25.332,30.597c6.774,-0.843 12.519,-2.781 15.801,-7.334l-3.496,-10.911l-21.577,-8.703Z" style="fill:#fff;"/><path d="M434.8,326.062l-3.891,18.489l9.257,18.471l5.244,-10.746l2.463,-28.707l-13.073,2.493Z" style="fill:#fff;"/></g><g id="Layer3"><path d="M541.147,311.907l-20.808,15.675l6.651,70.116l33.887,-8.593l57.673,4.104l0,-31.707l-22.657,-24.312l-18.672,-21.645l-10.357,-14.068l-25.717,10.43Z" style="fill:#fff;"/><path d="M562.843,318.355l-9.471,16.146l-1.333,27.165l10.804,16.478c6.923,3.337 24.778,0 24.778,0l5.551,-11.941l-2.424,-16.118l-11.066,-33.333l-16.839,1.603Z" style="fill:#929baf;"/></g><g id="Layer4"><path d="M500.904,500.937l126.247,-37.459l-51.42,44.581l-35.874,15.042l-29.055,-9.145l-9.898,-13.019Z" style="fill:#fff;"/></g><g><path d="M684.442,1.92c-1.057,1.321 -5.285,3.171 -9.512,4.228c-4.492,1.056 -7.927,2.377 -7.927,2.906c0,0.528 4.228,9.776 9.776,20.345c5.285,10.304 14.532,30.385 20.609,44.124c6.342,13.74 19.024,42.011 28.536,62.62l17.174,37.519l-25.629,-20.873c-30.121,-24.573 -63.941,-46.238 -96.968,-62.356c-20.874,-10.04 -28.007,-11.89 -51.523,-14.532c-35.669,-3.963 -64.205,-1.849 -93.533,6.87c-35.405,10.304 -47.824,16.91 -74.246,39.104l-24.043,20.081l-11.626,-2.907c-15.061,-3.434 -73.453,-3.434 -76.888,0c-1.849,1.85 2.907,6.87 15.061,15.589c9.776,6.87 20.873,15.061 24.572,18.231l6.606,5.549l-22.195,6.87c-12.154,3.963 -25.629,9.247 -29.856,12.154c-4.228,2.642 -18.76,17.438 -32.235,32.499c-32.499,35.669 -45.181,59.713 -56.279,106.48c-4.491,19.023 -10.304,39.897 -12.682,46.766c-2.378,6.87 -3.699,13.475 -2.642,14.268c1.057,1.057 12.154,-4.492 24.836,-11.89c23.516,-14.003 60.506,-32.499 71.339,-35.669l5.813,-1.85l-1.321,58.921c-1.321,55.222 -1.057,61.034 5.02,93.798c7.134,36.726 15.325,60.241 20.873,58.392c1.85,-0.793 8.191,-11.097 14.532,-23.516c11.362,-22.458 35.934,-57.863 39.897,-57.863c1.321,0 5.02,6.077 8.72,13.739c7.926,17.174 58.392,68.168 80.058,81.115c34.877,20.873 64.997,26.158 89.041,15.853c7.134,-3.171 13.74,-5.02 14.532,-4.492c0.529,0.793 0.529,6.077 -0.528,11.626c-1.585,10.04 -1.85,10.304 -12.947,10.833c-28.8,1.321 -72.396,28.271 -117.841,72.66c-64.205,62.884 -109.387,122.597 -140.036,185.217c-18.231,36.991 -17.438,50.202 4.492,76.095c42.803,50.466 62.355,72.132 97.232,107.273c21.666,22.194 39.104,40.689 38.576,41.218c-0.793,0.528 -5.813,3.699 -11.097,6.87c-5.285,3.17 -12.683,9.247 -16.382,13.475c-3.435,4.227 -12.682,11.625 -20.609,16.117c-16.381,9.776 -17.967,11.626 -17.967,22.723c0,13.475 3.964,20.345 22.195,39.897l17.438,18.231l-7.926,34.877c-4.492,19.288 -7.927,42.803 -7.927,52.579c-0.264,9.776 -1.849,25.894 -3.699,36.198c-2.114,10.04 -2.378,15.092 -1.585,16.149c13.647,-2.647 33.651,2.307 56.542,13.972c11.626,5.549 25.63,11.626 31.178,13.475c9.512,3.435 9.512,3.699 12.683,24.837c7.398,53.108 16.381,93.269 31.97,144.263c3.963,13.739 10.569,44.653 14.268,68.697c7.927,49.673 8.191,51.258 14.532,72.924c6.077,19.817 10.569,52.58 21.137,149.019c4.492,41.483 9.248,79.794 10.305,85.079c1.321,6.605 1.057,11.361 -0.793,13.739c-5.548,6.87 -34.877,29.064 -62.355,47.295c-28.272,18.76 -124.12,58.044 -129.467,65.262c-4.912,6.631 2.378,19.894 8.983,24.121c12.418,7.927 43.86,9.963 57.6,12.606c16.646,2.906 48.745,2.504 72.924,0c25.937,-2.687 21.382,-9.408 82.7,-16.118c14.004,0.264 31.178,-0.528 38.576,-2.114c12.947,-2.906 12.947,-2.906 15.589,-15.588c3.171,-15.325 -0.792,-55.751 -5.813,-59.714c-8.455,-6.605 -18.495,-76.623 -15.588,-109.386c1.056,-11.097 5.02,-31.442 8.719,-45.182c6.341,-22.987 7.134,-29.592 7.134,-75.302c0,-39.897 -1.057,-53.372 -4.492,-66.055c-15.325,-52.579 -15.853,-55.75 -16.117,-83.228c0,-20.609 1.849,-36.991 7.398,-63.941c4.227,-20.081 8.455,-36.462 9.512,-36.462c1.056,0 3.434,4.491 5.02,9.776c1.849,5.548 6.605,15.853 10.568,23.251c4.228,7.134 10.569,23.251 14.268,35.934c6.077,20.344 6.87,26.686 6.87,66.054c0,61.563 5.02,87.457 30.649,155.625c22.459,60.77 38.576,126.561 32.235,133.959c-1.85,2.378 2.642,9.776 3.699,20.609c1.057,11.89 -8.983,21.666 -6.341,31.442c2.378,9.247 2.642,16.646 0.264,30.649c-3.435,23.251 -1.85,26.422 19.816,36.727c13.476,6.341 19.553,11.097 28.008,22.458c11.097,15.061 7.398,17.438 27.742,32.235c32.764,23.251 31.707,38.412 89.306,38.676c0,0 35.802,1.814 44.389,-2.387c7.158,-3.501 7.134,-22.814 7.134,-22.814c1.849,-22.194 -15.325,-45.974 -56.279,-77.68c-11.625,-8.984 -29.328,-26.422 -39.632,-38.84c-10.041,-12.683 -23.516,-26.422 -29.593,-30.914c-12.154,-8.719 -12.947,-10.833 -21.137,-51.258c-5.02,-26.951 -6.077,-112.029 -2.114,-198.693c1.321,-34.084 1.057,-52.843 -1.057,-63.941c-6.87,-35.141 -8.719,-63.412 -9.512,-140.3c-0.528,-68.696 -2.378,-110.971 -7.662,-161.966c-1.585,-13.739 3.435,-15.588 45.974,-17.438c33.82,-1.585 36.99,-2.114 53.636,-10.305c9.776,-4.755 17.703,-10.304 17.703,-11.889c0,-1.85 -3.171,-6.342 -7.134,-10.041c-4.756,-4.491 -14.532,-23.779 -26.95,-52.843c-25.894,-61.299 -35.141,-81.908 -36.462,-80.587c-1.322,1.321 25.1,65.262 28.535,68.961c1.321,1.321 2.378,4.492 2.378,6.87c0,6.605 23.251,61.298 27.215,63.676c2.378,1.586 1.321,3.699 -3.435,7.398c-12.154,9.512 -28.536,13.211 -58.128,12.947c-15.589,-0.264 -31.178,1.057 -35.406,2.642c-6.605,2.643 -21.137,9.512 -51.786,25.63c-6.606,3.434 -19.817,7.398 -29.593,8.983c-15.325,2.378 -21.666,1.85 -42.275,-2.642c-31.706,-6.87 -68.697,-16.91 -72.66,-19.288c-4.492,-2.642 -25.101,2.378 -55.222,13.475c-22.458,8.191 -29.328,9.512 -48.616,9.776c-23.515,0 -24.836,-0.264 -64.205,-17.967c-12.947,-5.548 -29.064,-11.097 -35.669,-12.154l-12.419,-1.849l0.529,-30.121c0.264,-29.857 8.983,-79.794 16.91,-99.082c1.849,-4.492 2.906,-9.512 2.642,-11.362c-1.057,-5.548 22.459,-82.436 24.836,-82.436c0.529,0 9.512,3.435 20.345,7.663c10.569,4.227 30.121,9.247 43.068,10.833c31.178,4.227 105.159,3.434 143.735,-1.322c49.144,-6.605 105.951,-26.421 135.544,-47.559l12.682,-9.248l5.285,8.455c3.17,4.756 14.003,25.63 24.044,46.503c10.304,20.873 19.288,37.255 20.08,36.462c0.793,-0.793 -8.719,-22.194 -21.401,-47.823c-12.419,-25.365 -22.723,-48.617 -22.723,-51.523c0,-2.906 -1.586,-5.284 -3.435,-5.284c-2.114,0 -7.662,-6.342 -12.418,-14.004c-10.833,-16.91 -59.714,-66.055 -77.945,-78.209c-7.134,-5.02 -13.475,-9.247 -14.003,-9.512c-0.265,-0.528 1.056,-5.812 3.17,-12.154c2.378,-6.341 4.228,-14.532 4.228,-18.231c0,-3.699 3.963,-22.722 8.983,-42.275c5.02,-19.552 10.305,-43.596 12.154,-53.372c1.85,-9.776 4.756,-19.816 6.606,-22.458c3.17,-4.228 5.02,-1.586 16.381,22.987c22.459,47.559 87.192,138.45 94.59,132.902c1.586,-1.322 14.268,-16.382 28.536,-33.82c14.004,-17.439 35.405,-43.861 47.559,-58.393c21.666,-26.157 36.727,-49.144 68.169,-103.573c11.097,-19.024 17.174,-26.951 20.873,-26.951c2.642,0 8.455,-2.906 12.947,-6.605c6.077,-5.284 8.19,-9.776 9.512,-19.288c3.434,-25.893 3.699,-26.422 13.475,-28.007c12.682,-2.642 27.478,-16.118 27.478,-25.101c0,-4.227 -2.378,-14.268 -5.548,-22.987c-2.907,-8.455 -5.549,-20.081 -5.285,-25.365c0.265,-15.853 -3.699,-22.987 -16.91,-28.8c-6.605,-2.906 -11.889,-6.869 -11.889,-8.719c0,-7.398 -25.365,-9.248 -40.426,-2.906l-9.247,3.963l-1.85,-16.91c-1.321,-11.89 -0.528,-22.723 2.642,-37.255c6.077,-26.95 4.228,-54.957 -4.492,-70.546c-3.434,-5.813 -7.133,-11.097 -8.719,-11.097c-3.435,-0.265 -13.475,28.535 -19.816,56.542c-6.606,29.593 -10.833,81.908 -8.984,106.48l1.85,19.553l-10.305,2.113c-15.853,2.907 -27.478,8.455 -27.478,13.211c0,8.984 21.666,43.596 43.332,69.225c7.662,8.984 4.227,9.248 0,17.439c-4.228,7.662 -28.536,25.893 -69.49,65.526c-7.662,7.134 -14.567,21.006 -20.645,29.989c-6.077,8.984 -10.004,19.42 -11.061,18.627c-1.321,-0.528 -3.171,-6.605 -4.228,-13.475c-0.792,-6.605 -9.247,-42.011 -18.495,-78.473c-15.589,-61.827 -25.893,-93.797 -38.047,-117.577c-13.475,-26.158 -48.088,-42.539 -89.306,-42.803c-8.984,0 -34.084,0 -39.633,0c-15.06,0 -24.572,-13.211 -24.572,-34.349c0,-7.662 1.585,-10.833 6.605,-14.268c20.873,-13.475 15.589,-15.06 47.824,15.589c15.853,15.325 30.913,27.743 33.555,27.743c5.549,0 5.549,-0.264 0.793,-9.247c-5.284,-10.041 -13.211,-40.69 -11.361,-42.804c1.057,-0.792 6.605,2.907 12.682,8.455c11.362,10.305 30.385,19.817 49.938,25.101c17.174,4.492 18.231,0 3.963,-14.796c-12.418,-12.947 -22.195,-30.121 -22.459,-38.84c0,-7.663 12.683,-30.385 23.516,-42.275c15.324,-16.646 31.97,-45.71 40.161,-69.226c3.963,-11.625 7.926,-19.288 8.455,-17.174c0.793,2.114 2.906,10.305 4.492,17.967c3.434,15.061 5.284,17.174 11.625,14.796c6.606,-2.378 5.285,-19.023 -3.435,-43.067c-3.963,-11.626 -6.869,-21.666 -6.341,-22.195c0.529,-0.528 7.134,1.057 14.796,3.699c7.398,2.643 20.874,4.756 29.857,5.021c17.967,0 26.95,-5.021 47.295,-25.894c5.813,-6.077 11.362,-11.097 12.154,-11.097c0.793,0 3.699,7.927 6.341,17.703c7.927,30.385 25.365,82.7 27.743,82.7c2.643,0 118.106,-56.543 128.939,-63.412c8.191,-5.021 11.361,-10.569 5.813,-10.569c-1.586,0 -8.984,3.963 -16.646,8.719c-15.325,9.776 -96.968,49.937 -96.968,47.559c0,-0.792 13.475,-14.532 30.121,-30.913l30.121,-29.593l34.877,0l34.876,0.265l-1.849,-11.626c-1.057,-6.341 -4.756,-20.081 -8.191,-30.385c-3.435,-10.305 -6.341,-21.402 -6.341,-24.837c0,-9.512 -11.362,-22.194 -32.499,-36.726c-31.442,-21.666 -38.576,-24.572 -61.035,-24.572c-10.833,0 -20.344,1.056 -21.137,2.378c-0.793,1.056 -6.605,2.906 -12.683,3.434c-6.341,0.793 -12.946,1.85 -15.06,2.378c-2.642,0.793 -3.963,-1.849 -4.492,-8.983c-1.585,-21.138 -24.308,-47.824 -53.636,-63.148c-15.325,-7.663 -19.288,-8.72 -38.312,-8.72c-15.853,0 -24.044,1.322 -31.97,5.285c-10.833,5.284 -30.385,22.987 -35.141,31.706c-1.586,2.906 -3.699,4.492 -4.756,3.435c-0.793,-1.057 -2.907,-31.971 -4.228,-68.697c-1.321,-36.726 -2.906,-70.81 -3.699,-75.566c-1.321,-9.248 -6.869,-11.098 -15.06,-5.021c-4.492,2.907 -4.492,5.021 -0.793,29.593c3.699,24.044 9.512,88.777 9.512,103.574c0,10.304 -3.699,6.869 -9.776,-9.248c-3.171,-8.191 -12.683,-33.556 -21.402,-56.014c-8.455,-22.459 -17.438,-44.918 -20.08,-49.409c-6.342,-12.683 -20.081,-50.73 -19.288,-54.165c0.792,-3.963 -7.663,-6.077 -9.776,-2.378Zm19.552,47.031c9.247,21.666 20.873,50.994 26.422,65.526c5.548,14.532 12.946,33.82 16.91,42.803c7.926,18.76 8.983,26.158 2.642,16.91c-5.549,-7.662 -43.86,-90.098 -54.165,-115.727c-3.963,-10.569 -10.04,-24.044 -12.947,-30.121c-5.812,-11.362 -5.548,-18.231 1.057,-18.231c2.114,0 10.04,14.796 20.081,38.84Zm61.563,3.171c1.057,4.227 2.113,30.649 2.642,58.92c0.793,28.007 0.793,44.389 0.264,36.462c-0.793,-7.926 -2.906,-30.913 -5.02,-51.258c-4.492,-42.275 -4.756,-51.787 -1.585,-51.787c1.321,0 2.906,3.435 3.699,7.663Zm-189.445,29.592c15.853,2.114 26.686,5.813 48.352,16.91c58.657,29.592 122.597,79.794 136.601,107.801c2.378,4.492 5.813,10.305 7.662,12.418c3.171,3.964 14.268,42.011 19.288,66.055l2.642,11.89l0.265,-11.626c0.264,-9.776 0.792,-11.097 5.02,-9.512c8.191,3.699 15.853,4.492 17.174,2.114c0.793,-1.321 -1.057,-2.642 -4.227,-2.642c-6.606,-0.529 -15.061,-9.776 -15.061,-16.382c0.264,-5.02 5.813,-11.889 17.967,-22.194c5.02,-3.963 7.662,-7.134 6.341,-7.134c-4.756,0 -20.345,12.154 -25.893,20.609l-5.813,8.455l-2.906,-11.89c-3.964,-15.589 -3.964,-19.288 0.264,-15.06c4.227,4.227 7.398,3.963 7.398,-0.793c0,-2.378 5.548,-10.304 12.682,-17.702c6.87,-7.399 10.041,-12.154 6.87,-10.569c-2.906,1.585 -10.04,7.926 -15.325,14.003c-9.247,10.041 -10.304,10.569 -14.267,6.606c-3.699,-3.699 -3.699,-5.284 0.264,-18.231c5.548,-17.703 18.495,-33.028 36.198,-42.539c27.478,-15.061 65.262,-8.455 92.476,16.117c15.853,14.268 25.365,29.592 28.007,44.917c2.643,16.646 -2.906,14.268 -8.19,-3.435c-2.378,-8.191 -4.756,-14.268 -5.549,-13.475c-0.793,0.793 -0.264,5.813 1.321,11.626c4.756,16.91 3.699,20.609 -7.398,28.007c-15.853,10.569 -16.91,17.174 -6.87,48.088l8.455,26.422l-12.418,12.154c-6.87,6.869 -17.438,15.588 -23.515,19.552c-10.041,6.869 -12.419,7.134 -28.8,5.813c-21.138,-1.85 -33.82,-6.606 -43.068,-16.91c-9.512,-9.777 -18.231,-28.008 -18.231,-36.991c0,-5.02 -0.793,-6.341 -2.378,-3.963c-2.642,4.491 -7.134,0 -27.479,-26.686c-7.398,-9.776 -15.06,-17.703 -17.174,-17.703c-1.849,0 3.435,8.719 12.154,19.024c21.93,26.95 30.65,41.482 31.178,52.315c0.264,5.02 3.171,15.853 6.077,23.78c6.87,18.495 6.87,31.97 0,53.108c-7.398,22.722 -18.495,42.275 -36.726,64.469c-32.499,39.633 -34.084,55.75 -8.455,84.286c5.813,6.605 8.19,10.833 6.077,11.625c-6.606,2.114 -41.483,-17.438 -54.958,-30.913c-7.662,-7.663 -15.06,-13.211 -16.381,-12.419c-1.321,1.057 0.264,12.154 4.227,26.951c3.699,13.739 6.077,25.893 5.285,26.686c-4.228,3.963 -44.125,-38.576 -44.125,-47.295c0,-1.322 6.606,-9.512 14.796,-18.231c14.268,-15.589 24.573,-33.292 24.837,-42.804c0,-10.569 4.756,-3.435 6.87,10.569c1.321,8.191 3.963,15.325 5.548,15.853c2.642,1.057 2.907,-7.398 1.585,-36.991l-1.585,-38.311l11.097,-5.813c13.475,-6.87 15.853,-5.813 6.87,2.642c-3.699,3.435 -6.605,7.134 -6.605,8.455c0,3.435 10.04,2.378 12.946,-1.321c17.439,-20.873 17.439,-21.138 11.362,-19.288c-5.285,1.85 -5.813,1.057 -5.813,-7.134c0,-5.548 -1.85,-10.833 -5.285,-13.739c-8.719,-7.663 -6.077,-10.041 4.228,-3.964c6.341,4.228 10.304,5.021 12.154,3.171c1.85,-1.849 1.057,-3.171 -2.642,-4.227c-2.907,-1.057 -7.134,-3.964 -9.512,-6.606c-3.963,-4.492 -3.963,-5.02 0,-8.191c3.171,-2.906 5.813,-2.906 11.89,-0.792c8.455,3.435 10.569,0 2.642,-4.492c-8.191,-4.227 -15.06,-3.171 -23.78,4.227c-9.512,7.927 -10.833,17.967 -2.906,22.195c7.926,4.227 6.341,12.154 -3.435,19.552c-5.02,3.963 -9.776,6.87 -11.097,6.87c-3.171,0 -0.264,-39.633 3.171,-41.747c1.585,-1.057 4.227,-6.87 5.812,-12.947c3.435,-12.682 11.098,-19.287 22.195,-19.287c19.552,0 33.291,18.231 33.555,44.124c0,12.418 -1.056,15.325 -9.511,24.572c-12.947,14.268 -39.897,34.349 -46.239,34.349c-2.642,0 -5.02,1.057 -5.02,2.642c0,5.813 10.833,1.849 28.272,-10.305c26.95,-19.023 34.348,-27.214 37.519,-42.275c3.699,-17.438 -2.114,-37.519 -14.268,-49.673c-7.663,-7.662 -10.305,-8.719 -23.516,-8.719c-16.117,0 -15.853,0.264 -12.154,-13.211c2.378,-8.455 2.114,-8.719 -1.321,-4.227c-2.114,2.906 -3.963,6.341 -3.963,7.662c0,1.321 -4.492,12.154 -9.776,24.044c-9.248,20.609 -9.776,22.987 -11.362,58.392l-1.321,36.991l-6.605,-14.532c-3.435,-7.927 -11.362,-24.308 -17.703,-36.462c-40.425,-77.152 -48.352,-97.233 -52.579,-133.431c-1.85,-15.589 -6.341,-20.873 -6.341,-7.398c0,12.418 7.133,44.917 14.267,65.791c7.134,20.873 12.154,58.656 7.663,58.656c-4.228,0 -16.646,-10.569 -16.646,-14.003c0,-1.85 -8.984,-12.155 -20.081,-22.987c-19.023,-19.024 -43.332,-53.108 -43.332,-61.035c0,-2.114 1.057,-5.284 2.378,-7.134c1.85,-3.17 3.171,-3.17 7.663,-0.264c8.191,5.02 10.04,1.057 3.435,-7.398c-4.492,-5.549 -5.549,-9.512 -4.492,-17.967c1.321,-9.512 1.321,-9.776 -1.321,-3.435c-3.435,8.719 -8.455,9.248 -15.589,2.114c-5.02,-5.02 -5.284,-5.02 -21.666,3.435c-13.739,6.869 -16.91,9.776 -17.438,15.589c-0.529,4.227 -0.265,7.398 0.264,7.398c0.528,0 6.869,-3.171 13.739,-7.134l12.683,-6.87l4.756,5.813c7.926,9.776 8.455,21.137 1.849,40.954c-3.435,10.04 -7.662,18.759 -9.248,19.288c-5.284,1.849 -33.555,-28.8 -45.974,-49.938c-6.605,-11.097 -17.174,-35.405 -23.779,-54.164c-7.663,-22.195 -11.89,-31.707 -12.419,-27.479c-0.528,3.435 3.435,18.759 8.72,33.82l9.776,27.479l-7.398,11.097c-16.646,25.365 -32.763,43.067 -63.941,70.018c-43.332,37.255 -50.466,42.803 -65.262,51.522c-8.455,5.02 -11.626,8.455 -10.04,10.041c3.17,3.17 20.609,-7.663 42.274,-25.894c7.399,-6.341 14.268,-10.304 15.061,-8.983c2.642,4.227 -3.963,29.856 -10.305,39.897c-3.17,5.02 -8.455,16.117 -11.889,24.572c-5.813,14.004 -6.077,16.646 -3.435,32.763l3.17,17.439l-11.625,14.267c-6.341,7.663 -17.703,24.837 -25.365,37.784c-7.398,13.211 -14.532,23.779 -15.589,23.779c-3.699,0 -8.455,-14.532 -15.061,-45.974c-5.284,-25.629 -6.605,-39.104 -6.605,-67.64c0.264,-35.669 6.077,-91.683 10.04,-98.289c1.321,-1.849 2.378,-8.191 2.642,-14.268c0.265,-6.077 3.964,-18.231 8.455,-27.743c8.191,-16.91 8.72,-23.779 1.322,-17.967c-5.813,5.021 -10.041,15.061 -15.061,36.727c-2.642,10.833 -6.341,22.458 -8.455,25.629c-1.849,3.171 -10.569,8.191 -19.024,11.361c-8.19,3.171 -27.743,12.683 -42.803,21.402c-15.325,8.455 -29.064,15.589 -30.914,15.589c-2.378,0 -2.378,-2.906 0.529,-12.682c1.849,-6.87 6.077,-24.309 9.247,-38.841c9.512,-43.86 25.894,-72.131 62.092,-107.801c7.134,-6.869 14.003,-12.418 15.325,-12.418c1.585,0 6.341,-3.963 10.832,-8.719c7.927,-8.455 18.232,-12.418 49.938,-19.024c11.361,-2.378 8.191,-7.662 -13.74,-23.251c-10.833,-7.398 -20.08,-15.061 -20.609,-16.646c-1.585,-4.756 24.573,-6.87 45.446,-3.963c10.304,1.585 20.081,2.906 22.194,2.906c2.378,0 12.154,4.492 23.252,7.398c15.588,4.228 16.909,2.643 3.434,-3.435c-5.812,-2.642 -10.568,-5.548 -10.568,-6.605c0,-2.114 14.267,-15.325 28.271,-26.158c18.231,-14.003 59.713,-30.121 90.627,-35.405c13.475,-2.378 50.466,-1.849 70.282,1.057Zm195.786,104.631c-0.528,4.227 -1.057,0.792 -1.057,-7.134c0,-7.927 0.529,-11.362 1.057,-7.399c0.528,4.228 0.528,10.569 0,14.533Zm247.837,45.974c13.739,5.02 54.693,30.913 58.128,36.726c1.057,1.585 -3.963,2.642 -11.89,2.642c-7.398,0 -15.853,1.321 -18.759,2.642c-3.964,2.114 -8.984,1.586 -20.345,-2.378c-8.191,-2.906 -17.967,-5.813 -21.666,-6.605c-4.492,-1.057 -9.776,-6.606 -16.646,-17.703c-5.284,-8.719 -9.248,-17.174 -8.191,-18.495c2.643,-4.228 24.308,-2.642 39.369,3.171Zm-36.462,18.231c6.077,7.926 11.097,15.324 11.361,16.117c0,1.057 -9.248,10.833 -20.345,21.666l-20.609,20.08l-5.548,-5.284c-8.72,-8.191 -30.121,-44.389 -28.536,-48.352c2.642,-6.87 30.914,-19.816 42.011,-19.288c9.247,0.529 11.625,2.114 21.666,15.061Zm-499.637,21.666c6.605,10.568 16.381,24.308 21.137,30.385l9.248,11.097l-8.191,4.227c-10.305,5.285 -10.04,6.606 2.114,5.813l9.776,-0.528l1.585,33.555c0.793,18.496 2.114,34.613 3.171,35.67c1.057,0.793 0,3.963 -2.642,6.605c-2.378,2.643 -3.7,4.756 -3.171,4.756c0.528,0 9.512,-1.849 19.552,-3.963c19.816,-4.227 58.128,-5.02 78.737,-1.585c16.382,2.642 18.495,-0.793 2.907,-4.756l-11.89,-3.171l1.321,-16.381c0.792,-8.984 1.321,-16.646 1.321,-16.91c0.264,-0.265 6.87,6.077 14.796,14.003c20.873,20.081 23.251,19.288 21.138,-6.341l-1.586,-20.345l14.797,27.743c28.491,52.943 35.423,69.27 30.16,88.636c-1.277,4.699 -3.272,9.578 -5.852,15.202c-8.72,19.288 -42.275,54.429 -62.092,64.998c-32.763,17.702 -57.335,29.328 -61.563,29.328c-2.642,0 -5.548,1.321 -6.341,2.642c-2.906,4.492 -20.609,12.418 -31.97,14.004c-15.061,2.378 -43.332,-5.285 -65.791,-17.703c-12.682,-7.134 -26.95,-19.024 -45.445,-37.783c-33.292,-33.556 -46.238,-56.807 -47.824,-85.343c-1.057,-16.381 -0.264,-19.023 10.041,-39.897c8.19,-16.117 12.154,-27.743 14.267,-43.067c2.907,-20.081 3.435,-21.138 14.532,-30.385l11.626,-9.512l-4.228,8.455c-5.548,10.304 -5.548,11.361 -0.528,11.361c2.642,0 3.963,2.906 4.227,9.776c0.265,8.984 0.529,8.455 2.378,-3.699c2.643,-18.759 4.228,-21.93 10.305,-21.93c4.756,0 5.02,1.585 3.699,24.308c-1.057,21.138 -0.528,25.893 3.963,34.613l5.285,9.776l-7.134,1.585c-19.817,4.492 -22.723,5.549 -21.402,7.927c1.585,2.642 5.813,2.378 25.101,-1.321c7.398,-1.586 21.402,-3.435 31.706,-4.492c15.589,-1.321 17.703,-2.114 13.739,-5.02c-3.17,-2.378 -4.491,-7.134 -4.491,-17.439c0,-7.926 -1.586,-19.552 -3.699,-26.157c-7.398,-25.101 -7.398,-25.894 -1.057,-27.215c5.813,-0.793 5.548,-1.057 -1.85,-4.227c-7.398,-3.171 -33.82,-2.378 -47.559,1.585c-3.699,1.057 -2.378,-1.321 4.492,-7.398c12.682,-11.89 32.499,-36.991 39.104,-49.937c2.906,-5.813 5.813,-10.569 6.605,-10.569c0.529,0 6.606,8.719 13.476,19.024Zm70.282,-12.419c0,1.321 -1.321,2.907 -2.907,3.435c-1.585,0.529 -2.906,-1.057 -2.906,-3.435c0,-2.378 1.321,-3.963 2.906,-3.435c1.586,0.529 2.907,2.114 2.907,3.435Zm370.698,20.345c5.285,9.248 13.211,20.345 17.703,25.101l7.926,8.191l-2.378,36.726l-2.377,36.462l-5.813,-19.816c-3.435,-10.833 -11.626,-36.727 -18.231,-57.6c-10.305,-32.763 -12.419,-45.445 -7.663,-45.445c0.793,0 5.549,7.398 10.833,16.381Zm106.216,1.321c1.85,2.378 2.906,6.87 2.114,9.776c-0.529,3.171 -2.378,16.118 -4.228,28.8c-1.849,12.683 -4.227,23.78 -5.284,24.572c-2.906,1.586 -45.974,-13.211 -54.165,-18.759c-10.569,-6.87 -8.191,-15.589 8.719,-33.292c8.191,-8.455 16.118,-15.589 17.439,-15.589c1.585,0 5.02,2.114 7.662,4.492c5.02,4.492 5.02,4.228 3.435,-2.378l-1.85,-6.869l11.626,2.377c6.077,1.586 12.947,4.492 14.532,6.87Zm53.901,13.475c7.398,15.589 14.267,39.633 11.889,42.011c-0.792,1.057 -10.832,3.171 -21.93,5.02c-20.609,3.171 -39.368,2.378 -42.01,-2.114c-0.793,-1.321 0.528,-14.267 3.17,-28.535c4.492,-25.894 4.492,-26.158 13.475,-29.857c5.549,-2.114 13.211,-2.906 18.76,-2.114c8.719,1.322 10.569,3.171 16.646,15.589Zm-529.494,6.342c-4.492,0.792 -8.455,1.585 -8.719,1.321c-0.265,-0.265 0.792,-4.756 2.113,-9.776l2.643,-9.248l6.341,7.926l6.341,7.927l-8.719,1.85Zm14.003,5.812c0,3.171 -11.361,20.081 -13.211,20.081c-4.755,0 -5.812,-6.341 -1.585,-9.248c2.378,-1.849 4.228,-4.491 3.963,-5.548c-0.792,-5.02 0.529,-6.342 5.549,-6.342c2.906,0 5.284,0.529 5.284,1.057Zm-22.194,8.455c-0.793,2.378 -1.585,5.813 -1.585,7.927c0,2.114 -1.057,3.699 -2.114,3.699c-1.321,0 -1.85,-3.699 -1.057,-7.927c0.529,-4.491 2.378,-7.926 3.699,-7.926c1.585,0 1.85,1.849 1.057,4.227Zm33.556,10.041c8.191,10.568 7.134,20.08 -2.114,20.08c-11.097,0 -13.211,-7.662 -7.662,-25.893c1.321,-4.756 2.378,-4.228 9.776,5.813Zm-118.634,16.645c4.756,15.589 5.548,22.987 1.585,16.646c-1.321,-2.114 -5.284,-3.963 -8.455,-3.963c-5.02,0 -6.341,-1.585 -6.87,-9.776c-0.792,-10.305 3.964,-22.723 7.134,-19.024c1.321,1.321 4.228,8.455 6.606,16.117Zm-19.553,-10.04c-1.321,2.907 -2.642,8.719 -2.642,13.211c0,4.492 -1.057,8.191 -2.642,8.191c-1.321,0 -2.642,-1.85 -2.642,-3.963c0,-5.285 7.134,-22.459 9.248,-22.459c0.792,0 0.264,2.378 -1.322,5.02Zm108.066,46.503l5.02,11.361l-7.927,1.585c-13.21,2.642 -20.08,1.85 -21.665,-2.642c-0.793,-2.378 -1.586,-15.853 -1.586,-30.385c0,-26.422 1.85,-31.178 10.041,-22.987c2.377,2.378 3.434,1.849 5.02,-2.114c1.321,-3.435 2.642,1.057 3.963,14.268c1.057,10.569 4.227,24.572 7.134,30.914Zm425.127,-42.54c8.191,3.435 21.666,8.191 29.593,10.833c7.926,2.643 14.796,5.021 15.325,5.285c2.378,2.113 -9.512,15.589 -34.085,38.047c-25.1,23.516 -26.95,24.837 -30.385,20.081c-5.813,-7.927 -3.963,-80.587 2.114,-80.587c1.321,0 8.983,2.907 17.438,6.341Zm-421.957,-0.264c-0.264,3.171 -3.963,2.378 -5.02,-1.057c-0.792,-1.585 0.265,-2.642 2.114,-2.113c1.585,0.792 2.906,2.113 2.906,3.17Zm43.332,7.134c0.793,1.321 -0.264,2.642 -2.378,2.642c-2.378,0 -4.227,-1.321 -4.227,-2.642c0,-1.585 1.057,-2.642 2.378,-2.642c1.585,0 3.435,1.057 4.227,2.642Zm-33.027,22.459c5.02,0.264 11.361,1.585 14.268,3.17c7.662,4.228 22.458,-3.699 14.796,-8.455c-3.435,-2.113 -0.264,-9.247 4.228,-9.247c3.963,0 5.02,16.381 2.113,31.442c-1.585,7.398 -2.642,8.19 -11.361,7.926c-16.382,-0.528 -24.572,-3.435 -29.857,-10.569c-6.077,-7.926 -11.097,-27.742 -8.191,-32.234c1.322,-1.85 2.643,1.057 3.435,7.398c1.321,10.04 1.85,10.569 10.569,10.569Zm247.837,-5.813c5.02,12.947 8.191,24.044 12.154,42.011c1.057,4.227 0.793,7.398 -0.528,7.398c-1.057,0 -4.228,-8.72 -6.87,-19.288c-2.642,-10.305 -6.87,-24.573 -9.512,-31.706c-2.642,-6.87 -3.699,-12.419 -2.642,-12.419c1.321,0 4.492,6.342 7.398,14.004Zm-342.956,11.625c0,5.285 -0.792,6.342 -2.906,4.228c-1.85,-1.85 -2.378,-5.02 -1.585,-7.134c2.642,-6.341 4.491,-5.02 4.491,2.906Zm-27.478,2.114c1.056,2.642 3.434,3.435 6.341,2.642c3.699,-1.321 5.284,0.265 6.605,7.134l2.114,8.719l3.963,-6.077c5.285,-7.926 8.984,-7.398 7.927,1.322c-0.793,6.341 -2.114,7.398 -10.04,8.19c-10.833,0.793 -19.553,-6.341 -22.459,-18.759c-2.114,-7.663 2.906,-10.305 5.549,-3.171Zm518.132,94.326c6.077,11.626 6.077,53.901 0,70.547c-3.435,9.511 -3.699,14.267 -1.321,24.836c1.321,7.134 2.114,20.081 1.585,28.536c-1.321,17.174 0.793,20.08 4.492,7.134c2.906,-9.512 11.361,-12.947 33.027,-13.74l11.89,-0.264l2.378,11.89c3.699,19.288 -7.398,47.559 -18.495,47.559c-3.435,0 -3.435,-0.792 0,-5.813c6.077,-8.455 5.284,-11.889 -2.642,-13.739c-6.87,-1.85 -6.87,-2.114 -5.285,-19.552c1.586,-15.853 1.321,-17.174 -2.113,-12.947c-2.114,2.642 -4.492,10.569 -5.549,17.439l-1.585,12.418l-20.345,2.906c-12.683,1.85 -21.402,2.114 -22.987,0.529c-3.171,-3.171 -2.378,-61.563 1.321,-89.57c4.227,-31.442 15.853,-76.624 19.552,-76.624c0.793,0 3.435,3.963 6.077,8.455Zm-350.882,102.253c1.585,7.134 6.605,18.495 11.097,25.365c4.922,4.207 8.187,3.737 12.154,5.548c5.813,-5.284 16.646,-2.906 16.646,2.114c0,6.341 -50.994,69.225 -72.132,88.777c-20.609,18.76 -36.99,20.874 -51.258,6.606c-8.984,-8.983 -9.248,-10.04 -8.191,-25.101c0.793,-11.361 3.963,-21.402 12.154,-38.047c10.833,-21.666 11.626,-22.459 21.138,-23.251c7.662,-0.529 9.776,-1.85 10.04,-6.078c0.264,-2.906 0.528,-10.568 0.793,-17.174l0.264,-11.89l20.609,-9.776c11.097,-5.284 21.137,-9.776 22.194,-9.776c0.793,-0.264 2.907,5.549 4.492,12.683Zm422.485,30.913c7.927,5.549 7.927,26.422 0.265,42.54c-6.342,13.21 -25.101,19.552 -27.479,12.946c-0.793,-2.114 -5.813,-7.398 0.528,-12.418c6.87,-5.813 14.004,-23.78 14.004,-36.198c0,-12.154 2.906,-13.739 12.682,-6.87Zm-360.13,10.569c-15.853,20.873 -22.722,38.84 -27.478,72.66c-4.756,33.556 6.869,74.51 24.572,88.249l9.512,7.134l-7.398,13.475c-3.963,7.398 -14.532,21.666 -23.78,31.442c-20.873,21.93 -40.161,30.914 -57.335,26.422c-5.813,-1.585 -11.362,-2.114 -12.419,-1.585c-10.832,6.869 18.496,10.568 37.52,4.756c11.625,-3.435 17.966,-7.663 33.027,-23.252c10.304,-10.304 22.723,-25.629 27.479,-34.084c8.19,-14.532 8.983,-15.06 14.267,-11.625c3.171,2.113 8.984,7.662 12.947,12.682l7.398,8.984l-7.926,42.274c-8.984,48.352 -14.004,68.697 -18.496,73.982c-3.699,4.227 -19.552,35.933 -19.552,38.84c-0.264,1.057 8.191,6.077 18.231,11.097c28.007,13.475 76.624,60.506 94.59,90.891l4.492,7.927l-12.418,9.247c-35.405,25.63 -84.55,41.747 -154.039,50.466c-24.573,3.171 -104.367,1.85 -127.354,-2.114c-21.137,-3.435 -54.957,-15.853 -54.957,-19.816c0,-1.85 13.739,-42.539 17.174,-51.258c1.585,-3.7 3.699,-4.492 8.983,-3.171c6.342,1.585 6.606,1.585 2.114,-3.435c-2.642,-2.906 -5.548,-12.682 -7.134,-24.572c-1.321,-10.833 -3.435,-22.723 -5.02,-26.422c-1.321,-3.699 -5.549,-29.064 -9.512,-56.543c-7.398,-51.258 -7.662,-76.623 -1.057,-80.586c4.228,-2.643 4.492,-2.378 -10.568,-11.89c-6.342,-3.699 -17.703,-15.325 -19.553,-15.325c-4.755,0 -33.291,-35.669 -35.141,-43.068c-2.113,-8.19 11.89,-32.498 29.329,-50.994c11.625,-12.418 49.144,-42.539 66.847,-53.372c6.605,-4.227 7.926,-8.191 1.849,-6.077c-6.077,2.378 -4.491,-1.585 6.077,-16.381c5.285,-7.663 14.532,-20.345 20.345,-28.536c6.87,-9.512 14.532,-16.646 21.93,-20.345c6.342,-3.171 11.89,-5.02 12.683,-4.492c0.528,0.793 -3.171,10.305 -8.191,21.402c-5.02,11.097 -10.569,26.158 -12.418,33.556c-2.907,12.682 -2.642,14.796 2.642,24.836c11.361,21.138 35.405,26.686 54.957,12.683c17.967,-13.211 60.242,-62.091 81.644,-95.119c6.87,-10.304 8.191,-11.097 18.76,-11.097l11.625,0l-9.248,12.154Zm43.068,-6.87c19.816,5.549 35.934,14.004 42.804,22.723c12.682,15.853 27.742,56.279 42.539,114.671c7.398,28.271 15.589,59.713 18.759,69.754c4.492,14.532 5.285,22.194 3.963,38.311c-0.544,7.809 4.178,20.594 4.756,19.024c13.74,-34.084 34.613,-66.319 57.072,-84.021c32.234,-25.365 76.623,-72.66 72.924,-83.493c-0.529,-1.85 -2.907,0.792 -5.549,5.284c-2.378,4.756 -6.077,8.719 -8.19,8.719c-5.285,0 -38.312,-43.596 -44.918,-59.449c-3.963,-8.983 -3.699,-9.248 3.171,-12.682c12.418,-6.342 63.677,-15.589 75.038,-13.74c5.549,1.057 10.305,2.642 10.305,3.699c0,4.228 -18.231,19.024 -26.686,21.402c-11.362,3.435 -26.422,3.435 -35.142,0c-5.548,-1.85 -6.869,-1.585 -6.869,1.321c0,2.114 2.906,4.492 6.605,5.549c3.699,0.792 7.663,3.434 8.719,5.284c1.85,3.435 3.435,3.435 11.098,0c20.08,-8.455 35.669,14.796 26.421,39.104c-3.434,9.512 1.586,8.719 6.606,-1.057c5.02,-9.776 5.02,-19.288 -0.264,-29.328c-4.228,-8.719 -3.171,-13.475 2.113,-8.191c1.85,1.85 6.342,3.171 10.305,3.171c5.284,0 7.398,1.585 8.719,6.605c1.057,3.7 3.435,6.606 5.549,6.606c7.398,0 9.512,9.512 6.605,28.271c-3.435,20.874 -7.662,26.686 -21.666,28.8c-5.812,1.057 -10.04,3.171 -10.04,5.284c0,5.021 -35.141,67.376 -50.466,89.571c-14.796,21.401 -34.084,46.238 -56.542,71.867c-8.72,10.305 -21.138,25.101 -27.743,33.292c-16.91,20.873 -19.817,21.401 -34.613,4.755c-22.987,-25.629 -50.994,-68.432 -71.603,-109.386c-17.439,-34.877 -26.951,-62.356 -30.914,-73.189c-4.227,-10.832 -9.776,-24.836 -12.947,-30.913c-3.17,-5.813 -6.869,-16.117 -8.454,-22.459c-1.586,-6.077 -4.492,-17.174 -6.078,-24.044c-1.849,-7.133 -4.227,-12.682 -5.812,-12.418c-1.321,0.264 -2.378,1.85 -2.114,3.435c0.264,1.85 1.849,16.382 3.435,32.499c1.321,16.117 4.491,35.669 6.869,43.068c6.077,20.609 -0.528,25.629 -13.739,10.04c-11.89,-14.004 -17.174,-29.328 -18.759,-54.165c-2.378,-37.783 10.568,-77.68 33.027,-101.724c8.191,-8.455 7.662,-8.455 31.706,-1.85Zm-234.097,48.088c-8.455,12.154 -17.703,25.365 -20.081,29.857c-2.642,4.227 -10.833,12.154 -18.231,17.174c-33.292,22.987 -78.473,75.302 -78.473,91.155c0,2.378 2.906,7.927 6.605,12.419c3.699,4.227 5.147,10.36 6.606,11.89c4.999,5.242 19.024,19.533 26.686,27.988l-4.756,6.888l-17.967,20.345c-22.723,25.365 -29.064,29.593 -36.198,25.101c-9.512,-6.077 -25.629,-10.569 -27.214,-7.927c-1.057,1.321 1.585,3.699 5.813,5.021c16.381,6.077 25.893,12.682 41.482,29.064c20.609,21.93 49.409,63.676 62.884,90.891c8.455,17.702 10.304,23.515 9.247,33.027c-1.321,12.947 -8.983,25.101 -16.645,26.158c-10.833,1.585 -129.732,-128.146 -141.093,-154.04c-2.642,-5.813 -4.492,-14.796 -3.963,-20.08c1.321,-15.853 36.198,-80.851 61.827,-114.671c22.458,-30.121 74.509,-88.513 98.289,-110.179c22.459,-20.609 57.336,-45.71 59.978,-43.332c0.528,0.793 -6.077,11.097 -14.796,23.251Zm567.277,3.699c3.699,15.061 -0.265,23.251 -14.797,29.328c-10.833,4.492 -20.609,-19.816 -20.609,-19.816l6.606,-2.642c3.699,-1.321 10.04,-6.341 14.268,-10.833c4.491,-4.492 8.719,-8.191 9.776,-8.191c1.057,0 3.17,5.549 4.756,12.154Zm-625.141,197.636c3.963,3.17 4.227,5.284 2.113,15.06c-3.17,14.268 0.265,53.108 7.927,87.456c7.927,35.406 15.325,71.604 15.589,75.567c0,6.605 -4.492,0.793 -13.211,-17.174c-12.683,-25.101 -40.161,-67.904 -56.279,-86.664c-7.398,-8.719 -15.06,-17.967 -17.174,-20.609c-3.699,-4.228 -2.378,-6.077 14.268,-23.78c10.305,-10.304 21.93,-23.515 25.893,-28.799c7.663,-10.305 8.984,-10.305 20.874,-1.057Zm-3.435,257.084c0,13.211 -20.873,85.343 -24.572,85.343c-1.322,0 -1.586,-2.378 -0.529,-5.02c1.321,-3.964 0.529,-4.756 -3.699,-3.699c-3.699,1.056 -7.662,-2.378 -16.117,-13.211c-9.512,-12.683 -10.833,-16.118 -10.041,-25.894c0.793,-9.512 2.114,-12.418 9.776,-17.438c5.021,-3.435 10.041,-6.077 11.098,-6.077c1.321,0 2.378,5.548 2.378,12.418c0,32.235 7.134,32.499 8.455,0.529c0.792,-23.78 0.792,-24.309 10.04,-31.707c5.02,-4.227 10.04,-7.662 11.097,-7.662c1.057,0 2.114,5.549 2.114,12.418Zm363.036,257.613c5.284,33.292 7.398,73.453 7.134,132.902c-0.264,71.603 2.114,108.858 9.248,153.247c3.699,21.93 3.963,34.613 2.113,75.302c-1.321,26.95 -2.378,76.095 -2.378,109.651c0,50.466 1.057,64.469 5.021,83.229c2.906,12.418 5.284,25.893 5.548,30.385c0,4.227 1.321,9.776 2.642,11.89c1.586,2.113 3.964,6.341 5.549,9.247c1.585,3.171 5.284,5.285 8.719,5.02c4.492,-0.264 9.776,4.228 19.816,16.91c7.399,9.512 20.345,24.573 28.8,33.82c15.853,16.91 20.081,26.686 20.345,46.503c0,5.548 -1.321,10.04 -2.906,10.04c-8.455,0 -67.376,-20.609 -85.079,-29.857c-16.91,-8.719 -23.251,-13.739 -34.612,-28.007c-7.663,-9.512 -15.853,-21.401 -18.231,-25.893c-4.756,-8.719 -6.342,-39.369 -2.378,-40.954c7.926,-3.171 -14.532,-102.253 -36.727,-161.966c-26.157,-70.282 -31.442,-97.232 -31.442,-160.909c0,-37.255 -0.528,-41.747 -8.19,-66.055c-4.492,-14.267 -11.362,-32.498 -15.589,-40.953c-13.211,-26.158 -31.178,-75.039 -49.145,-133.431c-9.776,-31.97 -10.04,-31.178 14.268,-29.328c11.097,0.793 33.027,3.435 48.352,5.813c25.629,3.963 29.856,3.963 47.559,0.264c10.833,-2.114 26.158,-6.606 34.084,-9.512c21.138,-8.191 25.894,-7.662 27.479,2.642Zm-196.314,10.305c16.117,10.833 16.381,11.625 38.311,79.794c10.305,33.027 11.098,45.445 3.964,77.944c-2.907,12.683 -6.606,35.934 -8.455,52.051c-3.435,32.235 -1.321,47.56 12.682,96.44c6.606,23.251 7.134,28.8 7.134,72.66c0,41.218 -0.793,50.466 -5.813,68.697c-10.568,37.255 -12.682,68.961 -7.398,112.557c2.642,20.873 5.813,42.275 7.134,47.295c2.378,8.984 2.114,9.512 -12.418,23.251c-21.402,19.552 -36.727,26.158 -65.791,28.272c-20.08,1.585 -29.064,0.792 -57.863,-5.285c-18.76,-3.699 -37.52,-8.455 -41.747,-10.04l-7.662,-3.171l16.645,-8.983c27.479,-15.06 65.262,-40.954 91.42,-62.62c23.78,-19.816 28.007,-24.836 20.609,-24.836c-2.642,0 -4.227,-4.492 -5.549,-15.325c-0.792,-8.191 -3.963,-34.613 -6.605,-58.657c-2.906,-24.043 -7.662,-65.79 -10.569,-93.004c-3.17,-28.536 -7.926,-58.657 -11.625,-71.339c-6.606,-22.987 -8.72,-32.764 -17.439,-86.928c-2.906,-18.231 -8.983,-45.182 -13.211,-59.449c-14.796,-47.56 -26.157,-98.818 -30.385,-136.337c-1.849,-17.439 -0.528,-19.024 22.459,-21.93c7.926,-0.793 21.666,-3.964 30.385,-6.606c28.8,-8.983 30.121,-8.983 51.787,5.549Z" style="fill-rule:nonzero;"/><path d="M405.163,253.192c-5.813,3.435 -19.288,23.515 -17.175,25.629c0.793,0.793 4.492,-1.057 8.191,-4.492l6.342,-6.077l17.174,6.341c9.512,3.171 18.231,5.285 19.023,4.228c3.171,-3.171 -10.568,-21.137 -19.023,-24.572c-10.305,-4.228 -9.248,-4.228 -14.532,-1.057Z" style="fill-rule:nonzero;"/><path d="M464.876,427.576c-7.398,2.378 -13.475,6.341 -14.004,8.719c-1.056,5.285 10.305,22.987 14.797,22.987c3.699,0 4.227,-6.869 0.528,-9.247c-1.321,-0.793 -2.642,-3.964 -2.642,-6.606c0,-3.963 2.642,-5.284 11.626,-6.605c6.341,-1.057 15.588,-1.057 20.08,0c7.663,1.585 8.191,1.321 6.606,-3.699c-1.321,-4.228 -0.793,-5.285 2.378,-3.964c2.378,0.793 6.341,0.793 8.983,-0.528c3.699,-1.585 3.171,-2.114 -3.435,-3.699c-13.211,-3.171 -30.913,-2.114 -44.917,2.642Z" style="fill-rule:nonzero;"/><path d="M643.224,451.091c-6.87,5.021 -52.844,23.516 -72.661,29.064c-16.645,4.756 -45.974,10.305 -63.94,12.155c-23.78,2.642 -25.365,6.605 -8.191,19.287c17.174,12.683 30.913,17.439 43.86,15.061c11.361,-1.85 38.312,-16.117 57.335,-30.121c14.533,-10.569 45.71,-38.312 50.995,-45.71c4.491,-6.077 1.057,-5.813 -7.398,0.264Zm-36.991,29.329c0,1.321 -1.057,2.642 -2.642,2.642c-1.321,0 -2.642,-1.321 -2.642,-2.642c0,-1.586 1.321,-2.642 2.642,-2.642c1.585,0 2.642,1.056 2.642,2.642Zm-16.117,6.341c2.642,2.906 0.792,5.284 -8.984,11.89c-21.401,14.268 -32.234,18.759 -45.974,18.759c-10.304,0 -14.003,-1.057 -16.117,-5.02c-4.756,-8.983 -3.171,-10.304 16.91,-14.796c14.532,-3.171 44.389,-11.626 50.73,-14.268c0.264,-0.264 1.849,1.321 3.435,3.435Z" style="fill-rule:nonzero;"/><path d="M454.307,820.733c1.586,1.321 11.626,3.171 22.459,4.228c14.532,1.056 18.231,0.792 13.475,-1.321c-9.248,-3.7 -39.369,-6.342 -35.934,-2.907Z" style="fill-rule:nonzero;"/><path d="M460.913,833.944c0,2.906 12.682,5.813 24.572,5.813c4.756,0 7.134,-1.057 5.813,-2.378c-3.699,-3.171 -30.385,-6.341 -30.385,-3.435Z" style="fill-rule:nonzero;"/><path d="M467.518,923.514c5.813,5.813 27.479,11.89 34.877,10.04c10.833,-3.17 16.91,-1.585 27.743,7.134c12.418,9.512 12.947,6.87 1.321,-6.605l-8.455,-10.305l-29.064,-1.321c-19.288,-1.057 -28.271,-0.528 -26.422,1.057Z" style="fill-rule:nonzero;"/><path d="M952.359,749.658c-2.906,6.077 -4.492,10.833 -3.17,10.833c3.17,0 12.682,-17.967 10.568,-20.08c-1.057,-0.793 -4.227,3.17 -7.398,9.247Z" style="fill-rule:nonzero;"/><path d="M764.764,1554.2c0,0.528 2.378,12.682 5.284,26.686c2.907,14.003 5.549,26.422 5.549,27.478c0.793,4.228 5.549,-20.609 5.813,-29.856c0.264,-7.927 -1.057,-11.362 -5.549,-14.268c-3.17,-2.114 -5.813,-5.549 -5.813,-7.398c0,-2.114 -1.056,-3.699 -2.642,-3.699c-1.321,0 -2.642,0.528 -2.642,1.057Z" style="fill-rule:nonzero;"/><path d="M696.331,1564.24c-6.077,18.759 -6.341,30.914 -1.585,41.746c2.642,5.813 5.549,10.569 6.606,10.569c1.056,0 3.434,3.435 5.284,7.927c5.549,13.739 8.719,9.247 6.605,-9.512c-1.056,-9.512 -2.906,-20.873 -4.227,-25.629c-1.321,-4.756 -2.378,-14.004 -2.378,-20.874c0,-15.06 -6.077,-17.438 -10.305,-4.227Z" style="fill-rule:nonzero;"/><path d="M561.316,1591.99c0.264,1.321 2.378,8.719 5.284,16.646c2.907,7.926 5.02,18.495 5.285,22.987c0,4.756 0.792,8.719 1.585,8.719c4.492,0 8.719,-10.305 8.983,-21.138c0,-10.304 -1.321,-13.211 -8.983,-20.609c-8.984,-8.455 -12.154,-10.304 -12.154,-6.605Z" style="fill-rule:nonzero;"/><path d="M577.679,1191.03c-0.242,0.664 -0.182,2.657 0.06,4.347c0.241,1.752 0.423,3.322 0.362,3.563c-0.06,0.302 0.423,2.053 1.027,3.925c0.664,1.933 1.328,4.227 1.509,5.133c0.182,0.906 0.785,2.053 1.329,2.597c0.543,0.483 1.026,1.268 1.087,1.751c0.06,0.422 0.604,1.509 1.147,2.355c0.604,0.906 0.906,1.63 0.785,1.63c-0.121,0 0.664,1.812 1.872,4.046c6.643,12.621 8.635,16.606 8.877,17.874c0.121,0.725 0.966,2.899 1.811,4.831c0.846,1.932 1.57,3.925 1.57,4.529c0,0.543 0.423,1.812 0.967,2.838c0.483,0.966 1.087,2.899 1.268,4.348c0.362,2.778 1.932,3.683 2.053,1.208c0.362,-7.126 0.241,-8.696 -0.544,-9.964c-0.483,-0.725 -0.724,-1.51 -0.543,-1.691c0.362,-0.423 -2.416,-8.756 -3.261,-9.601c-0.302,-0.302 -0.543,-0.906 -0.543,-1.389c0,-0.785 -1.389,-4.167 -3.08,-7.488c-0.302,-0.604 -0.544,-1.449 -0.544,-1.932c0,-0.423 -0.362,-1.087 -0.785,-1.449c-0.422,-0.363 -0.845,-1.389 -0.905,-2.295c-0.061,-0.966 -0.423,-1.993 -0.725,-2.295c-0.362,-0.362 -0.604,-0.966 -0.604,-1.449c0,-0.483 -0.785,-2.174 -1.691,-3.684c-0.905,-1.509 -2.174,-3.985 -2.838,-5.495c-0.664,-1.509 -1.449,-2.898 -1.751,-3.14c-0.362,-0.241 -0.423,-0.604 -0.181,-0.845c0.241,-0.242 0.181,-0.725 -0.121,-1.087c-0.362,-0.423 -0.724,-1.389 -0.906,-2.295c-0.12,-0.845 -0.543,-2.113 -0.905,-2.777c-0.363,-0.725 -0.665,-2.174 -0.665,-3.382c0,-1.147 -0.422,-2.536 -0.966,-3.019c-1.328,-1.389 -3.683,-1.208 -4.166,0.302Z" style="fill-rule:nonzero;"/><path d="M461.436,1196.4c-0.664,0.664 -1.208,1.449 -1.208,1.812c0,0.301 -0.543,1.086 -1.268,1.751c-0.966,0.905 -1.268,1.932 -1.328,5.374c-0.121,3.2 -0.423,4.529 -1.268,5.495c-0.665,0.725 -0.966,1.268 -0.665,1.268c0.242,0 -0.241,0.664 -1.087,1.51c-1.449,1.51 -3.079,6.582 -3.864,11.956c-0.181,1.208 -0.544,2.416 -0.846,2.597c-0.302,0.181 -0.543,1.026 -0.543,1.932c0,0.906 -0.544,3.321 -1.147,5.374c-0.665,2.114 -1.027,4.288 -0.846,4.952c0.181,0.604 0,1.631 -0.302,2.295c-0.362,0.604 -0.845,3.985 -1.026,7.427c-0.242,3.503 -0.604,6.582 -0.846,6.945c-0.422,0.724 -0.664,5.917 -0.785,18.719c-0.06,9.179 0.121,12.802 0.906,14.795c0.181,0.483 0.423,3.019 0.604,5.555c0.121,2.597 0.604,5.073 0.966,5.556c0.423,0.483 0.604,1.147 0.423,1.449c-0.181,0.302 0.181,1.57 0.845,2.838c0.664,1.268 1.027,2.536 0.846,2.778c-0.182,0.302 0.181,2.174 0.724,4.166c0.846,3.14 1.208,3.684 2.295,3.503c0.845,-0.121 1.208,-0.604 1.147,-1.389c-0.483,-5.012 -0.845,-8.092 -1.147,-9.662c-0.242,-1.026 -0.483,-3.744 -0.664,-6.038c-0.121,-2.355 -0.423,-4.65 -0.604,-5.133c-0.181,-0.483 -0.423,-2.295 -0.483,-3.925c-0.121,-1.691 -0.363,-5.073 -0.604,-7.549c-0.242,-2.475 -0.423,-4.951 -0.423,-5.434c0,-0.483 0.061,-2.838 0.181,-5.193c0.061,-2.355 -0.06,-4.59 -0.302,-4.952c-0.181,-0.362 -0.12,-0.845 0.242,-1.027c0.362,-0.241 0.664,-1.509 0.664,-2.898c-0.06,-3.925 0.242,-7.307 0.664,-7.971c0.182,-0.362 0.544,-2.778 0.785,-5.435c0.242,-2.657 0.665,-5.133 0.967,-5.434c0.241,-0.363 0.483,-1.45 0.422,-2.416c0,-1.026 0.302,-3.14 0.665,-4.77c0.422,-1.631 0.543,-3.08 0.362,-3.261c-0.121,-0.181 0,-0.664 0.302,-1.027c0.362,-0.422 0.724,-1.691 0.845,-2.777c0.121,-1.148 0.363,-2.476 0.544,-2.959c0.241,-0.483 0.483,-1.45 0.604,-2.114c0.06,-0.664 0.301,-1.509 0.483,-1.811c0.181,-0.363 0.724,-1.812 1.147,-3.322c0.423,-1.509 0.966,-3.019 1.208,-3.321c0.241,-0.362 0.724,-1.811 1.147,-3.321c0.423,-1.51 1.027,-3.261 1.268,-3.925c0.302,-0.664 0.785,-2.114 1.147,-3.14c0.302,-1.087 1.269,-2.899 2.054,-3.925c1.932,-2.536 2.656,-5.858 1.57,-6.582c-1.45,-0.906 -3.503,-0.604 -4.771,0.664Z" style="fill-rule:nonzero;"/><path d="M578.645,1254.92c-1.208,0.785 -0.483,3.562 1.691,6.763c0.966,1.449 4.408,5.374 7.548,8.695c4.106,4.288 5.918,6.582 6.159,8.032c0.423,2.234 2.476,3.804 3.321,2.476c0.604,-1.027 0.181,-4.409 -0.664,-4.65c-0.302,-0.121 -0.604,-0.725 -0.604,-1.268c0,-0.604 -0.664,-1.691 -1.449,-2.416c-0.785,-0.724 -1.57,-2.113 -1.751,-2.959c-0.181,-0.905 -2.235,-3.864 -4.59,-6.582c-2.355,-2.717 -4.287,-5.193 -4.287,-5.495c0,-0.845 -2.717,-3.14 -3.683,-3.14c-0.484,0 -1.208,0.242 -1.691,0.544Z" style="fill-rule:nonzero;"/></g></g><g><path d="M1150.03,1194.14l-28.706,-48.287c13.688,-3.231 27.946,-15.398 27.946,-37.64c0,-23.573 -16.349,-40.872 -42.774,-40.872l-59.312,0l0,126.799l26.995,0l0,-45.055l19.771,0l24.903,45.055l31.177,0Zm-47.336,-68.818l-28.515,0l0,-34.218l28.515,0c10.646,0 18.821,6.463 18.821,16.919c0,10.836 -8.175,17.299 -18.821,17.299Z" style="fill-rule:nonzero;"/><path d="M1244.51,1194.14l0,-59.312c0,-26.425 -19.2,-34.789 -40.302,-34.789c-14.447,0 -28.895,4.372 -40.111,14.447l9.505,16.92c7.604,-7.034 16.729,-10.836 26.424,-10.836c12.167,0 20.151,6.083 20.151,15.398l0,11.596c-6.083,-7.223 -16.729,-11.216 -29.086,-11.216c-14.638,0 -31.747,7.985 -31.747,29.656c0,20.532 17.109,30.417 31.747,30.417c11.977,0 22.813,-4.372 29.086,-11.977l0,9.696l24.333,0Zm-43.723,-14.068c-9.506,0 -17.3,-4.943 -17.3,-13.687c0,-8.745 7.794,-13.878 17.3,-13.878c7.794,0 15.398,2.852 19.39,8.175l0,11.406c-3.992,5.323 -11.596,7.984 -19.39,7.984Z" style="fill-rule:nonzero;"/><path d="M1280.25,1092.44c7.984,0 14.448,-6.463 14.448,-14.447c0,-7.985 -6.464,-14.258 -14.448,-14.258c-7.795,0 -14.258,6.273 -14.258,14.258c0,7.984 6.463,14.447 14.258,14.447Zm12.166,101.706l0,-91.82l-24.143,0l0,91.82l24.143,0Z" style="fill-rule:nonzero;"/><rect x="1316.37" y="1067.35" width="24.143" height="126.799" style="fill-rule:nonzero;"/><path d="M1397.55,1196.43c25.474,0 39.922,-12.357 39.922,-29.276c0,-37.07 -54.56,-25.664 -54.56,-39.161c0,-5.133 5.704,-8.935 14.448,-8.935c11.216,0 21.672,4.943 27.185,10.646l9.695,-17.11c-9.125,-7.223 -21.481,-12.546 -36.88,-12.546c-24.333,0 -37.64,13.497 -37.64,28.895c0,36.12 54.369,23.763 54.369,38.781c0,5.703 -4.942,9.696 -15.398,9.696c-11.406,0 -24.904,-6.274 -31.747,-12.737l-10.456,17.489c9.695,8.935 25.094,14.258 41.062,14.258Z" style="fill-rule:nonzero;"/><path d="M1566.17,1196.43c22.812,0 40.872,-9.315 53.799,-23.763l0,-48.666l-60.453,0l0,23.572l33.458,0l0,15.209c-5.132,4.752 -15.588,9.695 -26.804,9.695c-23.193,0 -39.922,-17.68 -39.922,-41.633c0,-23.953 16.729,-41.632 39.922,-41.632c13.307,0 24.143,7.604 30.036,16.539l22.242,-12.167c-9.505,-15.018 -26.044,-28.325 -52.278,-28.325c-37.26,0 -67.677,25.474 -67.677,65.585c0,39.922 30.417,65.586 67.677,65.586Z" style="fill-rule:nonzero;"/><path d="M1652.86,1092.44c7.984,0 14.448,-6.463 14.448,-14.447c0,-7.985 -6.464,-14.258 -14.448,-14.258c-7.794,0 -14.258,6.273 -14.258,14.258c0,7.984 6.464,14.447 14.258,14.447Zm12.167,101.706l0,-91.82l-24.144,0l0,91.82l24.144,0Z" style="fill-rule:nonzero;"/><path d="M1713.12,1194.14l0,-60.643c3.992,-5.893 14.638,-10.456 22.622,-10.456c2.851,0 4.943,0.19 6.654,0.57l0,-23.572c-11.407,0 -22.623,6.653 -29.276,14.638l0,-12.357l-24.143,0l0,91.82l24.143,0Z" style="fill-rule:nonzero;"/><rect x="1757.41" y="1067.35" width="24.143" height="126.799" style="fill-rule:nonzero;"/><path d="M1838.59,1196.43c25.474,0 39.921,-12.357 39.921,-29.276c0,-37.07 -54.559,-25.664 -54.559,-39.161c0,-5.133 5.703,-8.935 14.448,-8.935c11.216,0 21.671,4.943 27.184,10.646l9.696,-17.11c-9.125,-7.223 -21.482,-12.546 -36.88,-12.546c-24.334,0 -37.641,13.497 -37.641,28.895c0,36.12 54.37,23.763 54.37,38.781c0,5.703 -4.943,9.696 -15.399,9.696c-11.406,0 -24.903,-6.274 -31.747,-12.737l-10.456,17.489c9.696,8.935 25.094,14.258 41.063,14.258Z" style="fill-rule:nonzero;"/></g><g><path d="M1104.61,1294.02l0,-14.206l-36.594,0l35.799,-48.64l0,-12.956l-56.937,0l0,14.206l35.799,0l-35.799,48.526l0,13.07l57.732,0Z" style="fill:#3c658a;fill-rule:nonzero;"/><path d="M1151.09,1295.38c23.07,0 34.208,-12.955 34.208,-31.707l0,-45.458l-16.479,0l0,45.004c0,10.569 -6.023,17.842 -17.729,17.842c-11.705,0 -17.842,-7.273 -17.842,-17.842l0,-45.004l-16.365,0l0,45.458c0,18.752 11.137,31.707 34.207,31.707Z" style="fill:#3c658a;fill-rule:nonzero;"/><path d="M1261.78,1294.02l-17.16,-28.866c8.182,-1.932 16.706,-9.206 16.706,-22.502c0,-14.092 -9.774,-24.434 -25.571,-24.434l-35.457,0l0,75.802l16.138,0l0,-26.934l11.819,0l14.887,26.934l18.638,0Zm-28.297,-41.14l-17.047,0l0,-20.456l17.047,0c6.364,0 11.25,3.864 11.25,10.114c0,6.478 -4.886,10.342 -11.25,10.342Z" style="fill:#3c658a;fill-rule:nonzero;"/><rect x="1273.38" y="1218.22" width="16.138" height="75.802" style="fill:#3c658a;fill-rule:nonzero;"/><path d="M1341.34,1295.38c16.592,0 26.252,-9.205 31.594,-18.638l-13.865,-6.705c-3.182,6.137 -10.001,11.024 -17.729,11.024c-13.865,0 -23.865,-10.569 -23.865,-24.888c0,-14.32 10,-24.889 23.865,-24.889c7.728,0 14.547,4.887 17.729,11.024l13.865,-6.819c-5.342,-9.546 -15.002,-18.524 -31.594,-18.524c-22.843,0 -40.458,15.797 -40.458,39.208c0,23.297 17.615,39.207 40.458,39.207Z" style="fill:#3c658a;fill-rule:nonzero;"/><path d="M1450.78,1294.02l0,-75.802l-16.251,0l0,29.775l-35.799,0l0,-29.775l-16.137,0l0,75.802l16.137,0l0,-31.935l35.799,0l0,31.935l16.251,0Z" style="fill:#3c658a;fill-rule:nonzero;"/><path d="M1549.76,1294.02l0,-14.206l-30.911,0c19.66,-14.319 30.343,-25.57 30.343,-38.526c0,-15.115 -12.728,-24.206 -28.98,-24.206c-10.569,0 -21.82,3.863 -29.207,12.387l9.206,10.683c5.114,-5.342 11.705,-8.751 20.342,-8.751c6.251,0 12.274,3.182 12.274,9.887c0,9.319 -9.092,17.047 -40.117,40.003l0,12.729l57.05,0Z" style="fill:#3c658a;fill-rule:nonzero;"/><path d="M1590.79,1295.38c21.707,0 31.366,-19.66 31.366,-39.207c0,-19.547 -9.659,-39.094 -31.366,-39.094c-21.706,0 -31.366,19.547 -31.366,39.094c0,19.547 9.66,39.207 31.366,39.207Zm0,-14.319c-10.796,0 -14.887,-10.91 -14.887,-24.888c0,-13.979 4.091,-24.775 14.887,-24.775c10.91,0 14.888,10.796 14.888,24.775c0,13.978 -4.091,24.888 -14.888,24.888Z" style="fill:#3c658a;fill-rule:nonzero;"/><path d="M1665.23,1294.02l0,-75.802l-14.092,0l-23.865,23.979l9.205,9.66l12.614,-12.842l0,55.005l16.138,0Z" style="fill:#3c658a;fill-rule:nonzero;"/><path d="M1704.21,1294.02l28.184,-64.551l0,-11.251l-56.937,0l0,14.206l38.185,0l-27.161,61.596l17.729,0Z" style="fill:#3c658a;fill-rule:nonzero;"/></g></svg>