<svg xmlns="http://www.w3.org/2000/svg" viewBox="0 0 623.62 255.12"><defs><style>.cls-1{fill:#fff;}.cls-2{isolation:isolate;}.cls-3{fill:#333;}.cls-4{fill:#e59827;}.cls-5{fill:#f7b33e;}.cls-6{fill:#5bacbc;}.cls-7{fill:#5093a1;}.cls-8{fill:#74a56e;}.cls-9{fill:#83ba7b;}</style></defs><title>seesaw</title><g id="BG"><rect class="cls-1" width="623.62" height="255.12"/></g><g id="Logo"><g class="cls-2"><path class="cls-3" d="M24,158.47c4.26,8.91,12.91,14.63,23.82,14.63,14.37,0,20.35-9.71,20.35-19,0-12.64-10.91-17.7-21.42-22.36-11.71-5.32-24.35-11.31-24.35-26.34,0-12.91,9.32-23,25.15-23,12.77,0,20.76,6.52,24.75,16.76l-4.79,2.27c-2.66-7.06-9.05-14-20.23-14-12,0-19.55,7.85-19.55,17.82,0,12,11.17,17.17,20.75,21.43,12.91,5.72,25,11.84,25,27,0,13.17-8.65,24.61-25.68,24.48-13.18-.13-24-7-28.48-16.9Z"/><path class="cls-3" d="M87.89,176.83V83.69h43.78v5.06H93.21v43.37h33.13v5.06H93.21v34.59h38.46v5.06Z"/><path class="cls-3" d="M149.63,176.83V83.69H193.4v5.06H155v43.37h33.13v5.06H155v34.59H193.4v5.06Z"/><path class="cls-3" d="M209.91,158.47c4.25,8.91,12.9,14.63,23.81,14.63,14.37,0,20.36-9.71,20.36-19,0-12.64-10.91-17.7-21.42-22.36-11.71-5.32-24.35-11.31-24.35-26.34,0-12.91,9.31-23,25.15-23,12.77,0,20.75,6.52,24.75,16.76l-4.79,2.27c-2.67-7.06-9-14-20.23-14-12,0-19.56,7.85-19.56,17.82,0,12,11.18,17.17,20.76,21.43,12.9,5.72,25,11.84,25,27,0,13.17-8.65,24.61-25.68,24.48-13.17-.13-23.95-7-28.47-16.9Z"/><path class="cls-3" d="M317.42,176.83l-7.32-25.28H277.37l-7.32,25.28h-5.59l27.28-93.14h4L323,176.83Zm-20.76-72.12c-1.33-4.79-2.79-10.64-2.79-10.64h-.27s-1.46,5.85-2.79,10.64l-12,41.78h29.81Z"/><path class="cls-3" d="M387.81,176.83l-17.57-70.39c-1.59-6.52-2.39-12.64-2.39-12.64h-.27s-.8,6.12-2.39,12.64l-17.43,70.39h-4L319.55,83.69h5.59l18,70.52c1.06,4.39,2.53,12.37,2.53,12.37h.26s1.33-8,2.4-12.37l17.43-70.52h3.86l17.56,70.52c1.2,4.66,2.53,12.37,2.53,12.37h.27s1.33-7.71,2.52-12.37l17.7-70.52h5.72L391.8,176.83Z"/></g><path class="cls-4" d="M440.79,48.19,440,109.1c0,2,0,5.31.07,7l4.38,1.62,60,19.87c1.5.45,5,1.26,6.55,1.61h0l-70.13-98.7C440.84,43.11,440.79,47.11,440.79,48.19Z"/><path class="cls-5" d="M546.37,95,448.22,44.49c-1.26-.69-5-2.77-7.35-4.1v.06L511,139.15c1.22-1.22,4-4.08,5.15-5.33l31.55-31.15c1-1.09,3-3.07,4.3-4.37C550.42,97.35,548,95.9,546.37,95Z"/><path class="cls-6" d="M507.66,148.43c-1.5-.49-4.6-1.5-5.85-2l-36.37-11.16c-.81-.2-5.16-1.5-7.28-2.14-.85,1.68-2.5,4.91-3.44,6.8l-22,42.68c-.61,1.13-1.58,3-2.24,4.38l77.14-38.57Z"/><path class="cls-7" d="M519.14,205.93l-10.36-51c-.31-1.56-.86-4.87-1.12-6.48L430.52,187l0,.05c3.46,1.29,8.51,3.14,9.66,3.47l72.09,21.54c1.68.57,5.92,1.85,8.55,2.64C520.33,212,519.55,207.68,519.14,205.93Z"/><path class="cls-8" d="M609.45,150.87c-1.35-.88-3-2-3.87-2.43l-49.35-31.1-5.89-4.19c-1.22,1.1-3.48,3.14-4.75,4.41l-24,24.43c-1.05,1-2.93,2.87-3.85,3.77v.05l91.62,5.11Z"/><path class="cls-9" d="M517.72,145.81c.16.91.42,2.33.5,2.76l8.7,40.16c.37,1.58,1.13,5.21,1.61,7.48,1.81-1.06,4.53-2.62,5.46-3.08l69.53-38.91c1.08-.6,3.85-2.18,5.82-3.3Z"/></g></svg>