<?xml version="1.0" encoding="UTF-8" standalone="no"?>
<svg width="228px" height="30px" viewBox="0 0 228 30" version="1.1" xmlns="http://www.w3.org/2000/svg" xmlns:xlink="http://www.w3.org/1999/xlink" xmlns:sketch="http://www.bohemiancoding.com/sketch/ns">
    <!-- Generator: Sketch 3.2.1 (9971) - http://www.bohemiancoding.com/sketch -->
    <title>HITOBITO Logo</title>
    <desc>Created with Sketch.</desc>
    <defs></defs>
    <g id="Page-1" stroke="none" stroke-width="1" fill="none" fill-rule="evenodd" sketch:type="MSPage">
        <g id="HITOBITO-Logo" sketch:type="MSLayerGroup" fill="#474E5D">
            <path d="M5.00452127,0 C2.24060049,0 0,2.2303666 0,5.00443555 L0,24.9955644 C0,27.7594379 2.24245787,30 5.00452127,30 L38.9954787,30 C41.7593995,30 44,27.7696334 44,24.9955644 L44,5.00443555 C44,2.24056212 41.7575421,0 38.9954787,0 L5.00452127,0 Z M13.1133465,17.2973621 C12.1804826,19.5087254 10.6326949,21.1826441 8.42225123,22.5512864 C8.1864838,22.6830548 7.94065337,22.7586207 7.67807038,22.7586207 C7.17032411,22.7586207 6.7138234,22.4884785 6.49181105,22.0400938 C6.36243184,21.8058129 6.28571429,21.5602459 6.28571429,21.3047365 C6.28571429,20.7909236 6.57154708,20.3326423 7.02733006,20.103625 C8.60943569,19.2610104 9.86643324,17.9325993 10.5641193,16.4286122 C11.3915196,14.67139 11.6764568,13.2503995 11.6764568,10.5648499 C11.6764568,9.77235489 12.3154168,9.31034483 13.0688129,9.31034483 C13.7925748,9.31034483 14.4215312,9.78748771 14.4215312,10.5648499 C14.4215312,13.2277079 14.7055416,14.5753341 15.5660785,16.2936336 C16.2916376,17.7534648 17.6769694,19.1873163 19.2259282,20.0552103 C19.678261,20.2827347 19.9047619,20.7479507 19.9047619,21.2382768 C19.9047619,21.5004455 19.8287196,21.7647143 19.6986651,22.000218 L19.6650727,22.0556419 C19.3926193,22.4667758 18.9777306,22.692161 18.5124058,22.692161 C18.2518019,22.692161 17.9891104,22.6156621 17.7280137,22.4690339 C15.6984332,21.2277324 14.0810282,19.4552483 13.1133465,17.2973621 Z M30.9228703,17.2973621 C29.9900065,19.5087254 28.4422187,21.1826441 26.231775,22.5512864 C25.9960076,22.6830548 25.7501772,22.7586207 25.4875942,22.7586207 C24.9798479,22.7586207 24.5233472,22.4884785 24.3013349,22.0400938 C24.1719556,21.8058129 24.0952381,21.5602459 24.0952381,21.3047365 C24.0952381,20.7909236 24.3810709,20.3326423 24.8368539,20.103625 C26.4189595,19.2610104 27.675957,17.9325993 28.3736431,16.4286122 C29.2010434,14.67139 29.4859806,13.2503995 29.4859806,10.5648499 C29.4859806,9.77235489 30.1249406,9.31034483 30.8783367,9.31034483 C31.6020986,9.31034483 32.231055,9.78748771 32.231055,10.5648499 C32.231055,13.2277079 32.5150654,14.5753341 33.3756024,16.2936336 C34.1011614,17.7534648 35.4864932,19.1873163 37.035452,20.0552103 C37.4877849,20.2827347 37.7142857,20.7479507 37.7142857,21.2382768 C37.7142857,21.5004455 37.6382434,21.7647143 37.508189,22.000218 L37.4745965,22.0556419 C37.2021431,22.4667758 36.7872544,22.692161 36.3219296,22.692161 C36.0613257,22.692161 35.7986342,22.6156621 35.5375375,22.4690339 C33.507957,21.2277324 31.890552,19.4552483 30.9228703,17.2973621 Z" id="Rectangle-5-copy-2" sketch:type="MSShapeGroup"></path>
            <path d="M60.6198537,26.0138889 L60.6198537,17.3472222 L70.0190473,17.3472222 L70.0190473,26.0138889 C70.0190473,27.1333333 70.890015,28 72.015015,28 C73.140015,28 74.0472731,27.1333333 74.0472731,26.0138889 L74.0472731,4.70833333 C74.0472731,3.58888889 73.140015,2.72222222 72.015015,2.72222222 C70.890015,2.72222222 70.0190473,3.58888889 70.0190473,4.70833333 L70.0190473,13.375 L60.6198537,13.375 L60.6198537,4.70833333 C60.6198537,3.58888889 59.7125956,2.72222222 58.5875956,2.72222222 C57.4625956,2.72222222 56.5916279,3.58888889 56.5916279,4.70833333 L56.5916279,26.0138889 C56.5916279,27.1333333 57.4625956,28 58.5875956,28 C59.7125956,28 60.6198537,27.1333333 60.6198537,26.0138889 Z M82.5754989,26.0138889 C82.5754989,27.1333333 83.4464666,28 84.5714666,28 C85.6601763,28 86.6037247,27.1333333 86.6037247,26.0138889 L86.6037247,4.70833333 C86.6037247,3.58888889 85.6601763,2.72222222 84.5714666,2.72222222 C83.4464666,2.72222222 82.5754989,3.58888889 82.5754989,4.70833333 C82.5754989,4.70833333 82.5754989,3.58888889 82.5754989,4.70833333 L82.5754989,26.0138889 Z M108.922273,2.72222222 L93.4263053,2.72222222 C92.3013053,2.72222222 91.4303376,3.58888889 91.4303376,4.70833333 C91.4303376,5.79166667 92.3013053,6.73055556 93.4263053,6.73055556 L99.1601763,6.73055556 L99.1601763,26.0138889 C99.1601763,27.1333333 100.067434,28 101.156144,28 C102.281144,28 103.152112,27.1333333 103.152112,26.0138889 L103.152112,6.73055556 L108.922273,6.73055556 C110.010983,6.73055556 110.918241,5.79166667 110.918241,4.70833333 C110.918241,3.58888889 110.010983,2.72222222 108.922273,2.72222222 Z M128.265015,2 C124.781144,2 121.587596,3.48055556 119.373886,5.86388889 C117.123886,8.24722222 115.781144,11.425 115.781144,15 C115.781144,18.575 117.123886,21.7888889 119.373886,24.1361111 C121.587596,26.4833333 124.781144,28 128.265015,28 C131.603725,28 134.797273,26.4833333 136.938402,24.1361111 C139.188402,21.7888889 140.603725,18.575 140.603725,15 C140.603725,11.425 139.188402,8.24722222 136.938402,5.86388889 C134.797273,3.48055556 131.603725,2 128.265015,2 Z M133.998886,21.2833333 C132.474692,22.9083333 130.442434,23.8833333 128.265015,23.8833333 C125.942434,23.8833333 123.910176,22.9083333 122.385983,21.2833333 C120.861789,19.7305556 119.918241,17.4555556 119.918241,15 C119.918241,12.5444444 120.861789,10.2694444 122.385983,8.68055556 C123.910176,7.05555556 125.942434,6.11666667 128.265015,6.11666667 C130.442434,6.11666667 132.474692,7.05555556 133.998886,8.68055556 C135.486789,10.2694444 136.466628,12.5444444 136.466628,15 C136.466628,17.4555556 135.486789,19.7305556 133.998886,21.2833333 C133.998886,21.2833333 135.486789,19.7305556 133.998886,21.2833333 Z M149.748886,28 C149.785176,28 149.785176,27.9638889 149.857757,27.9638889 C149.857757,27.9638889 149.857757,28 149.894047,28 L156.317434,28 C160.599692,28 164.083563,24.5333333 164.083563,20.2361111 C164.083563,17.4916667 162.59566,15.0722222 160.418241,13.7 C161.289209,12.5444444 161.797273,11.1361111 161.797273,9.58333333 C161.797273,5.79166667 158.712596,2.72222222 154.902112,2.72222222 L149.894047,2.72222222 L149.857757,2.72222222 L149.748886,2.72222222 C148.660176,2.72222222 147.752918,3.58888889 147.752918,4.70833333 L147.752918,26.0138889 C147.752918,27.0972222 148.660176,28 149.748886,28 C149.748886,28 148.660176,28 149.748886,28 Z M151.781144,6.73055556 L154.902112,6.73055556 C156.498886,6.73055556 157.769047,7.99444444 157.769047,9.58333333 C157.769047,11.1722222 156.498886,12.5083333 154.902112,12.5083333 L151.781144,12.5083333 L151.781144,6.73055556 Z M151.781144,16.5166667 L156.317434,16.5166667 C158.385983,16.5527778 160.055338,18.1777778 160.055338,20.2361111 C160.055338,22.3305556 158.385983,23.9555556 156.317434,23.9916667 L151.781144,23.9916667 L151.781144,16.5166667 Z M169.563402,26.0138889 C169.563402,27.1333333 170.43437,28 171.55937,28 C172.64808,28 173.591628,27.1333333 173.591628,26.0138889 L173.591628,4.70833333 C173.591628,3.58888889 172.64808,2.72222222 171.55937,2.72222222 C170.43437,2.72222222 169.563402,3.58888889 169.563402,4.70833333 C169.563402,4.70833333 169.563402,3.58888889 169.563402,4.70833333 L169.563402,26.0138889 Z M197.906144,4.70833333 C197.906144,3.58888889 196.998886,2.72222222 195.910176,2.72222222 L180.414209,2.72222222 C179.289209,2.72222222 178.418241,3.58888889 178.418241,4.70833333 C178.418241,5.79166667 179.289209,6.73055556 180.414209,6.73055556 L186.14808,6.73055556 L186.14808,26.0138889 C186.14808,27.1333333 187.055338,28 188.144047,28 C189.269047,28 190.140015,27.1333333 190.140015,26.0138889 L190.140015,6.73055556 L195.910176,6.73055556 C196.998886,6.73055556 197.906144,5.79166667 197.906144,4.70833333 C197.906144,4.70833333 197.906144,5.79166667 197.906144,4.70833333 Z M215.252918,2 C211.769047,2 208.575499,3.48055556 206.361789,5.86388889 C204.111789,8.24722222 202.769047,11.425 202.769047,15 C202.769047,18.575 204.111789,21.7888889 206.361789,24.1361111 C208.575499,26.4833333 211.769047,28 215.252918,28 C218.591628,28 221.785176,26.4833333 223.926305,24.1361111 C226.176305,21.7888889 227.591628,18.575 227.591628,15 C227.591628,11.425 226.176305,8.24722222 223.926305,5.86388889 C221.785176,3.48055556 218.591628,2 215.252918,2 Z M220.986789,21.2833333 C219.462596,22.9083333 217.430338,23.8833333 215.252918,23.8833333 C212.930338,23.8833333 210.89808,22.9083333 209.373886,21.2833333 C207.849692,19.7305556 206.906144,17.4555556 206.906144,15 C206.906144,12.5444444 207.849692,10.2694444 209.373886,8.68055556 C210.89808,7.05555556 212.930338,6.11666667 215.252918,6.11666667 C217.430338,6.11666667 219.462596,7.05555556 220.986789,8.68055556 C222.474692,10.2694444 223.454531,12.5444444 223.454531,15 C223.454531,17.4555556 222.474692,19.7305556 220.986789,21.2833333 C220.986789,21.2833333 222.474692,19.7305556 220.986789,21.2833333 Z" id="HITOBITO-copy-2" sketch:type="MSShapeGroup"></path>
        </g>
    </g>
</svg>