<svg id="logo_lockups" data-name="logo lockups" xmlns="http://www.w3.org/2000/svg" viewBox="0 0 550 100"><defs><style>.cls-1{fill:#00363d;}</style></defs><title>support_wordmark</title><path class="cls-1" d="M200.66,65.42a11.12,11.12,0,0,0,7.9-3.07l3.92,4.22c-2.59,2.66-6.17,4.63-11.75,4.63-9.56,0-15.73-6.34-15.73-14.92a14.63,14.63,0,0,1,14.87-14.92c9.49,0,14.87,7.22,14.4,17.24H191.83c.8,4.16,3.72,6.81,8.83,6.81m6.84-11.58c-.6-3.88-2.92-6.74-7.57-6.74a7.71,7.71,0,0,0-8.1,6.74Z"/><polygon class="cls-1" points="53.36 65.11 70.63 47.57 53.77 47.57 53.77 42.06 78.63 42.06 78.63 47.68 61.36 65.22 78.86 65.22 78.86 70.72 53.36 70.72 53.36 65.11"/><path class="cls-1" d="M98.25,65.42a11.12,11.12,0,0,0,7.9-3.07l3.92,4.22c-2.59,2.66-6.17,4.63-11.75,4.63-9.56,0-15.73-6.34-15.73-14.92A14.63,14.63,0,0,1,97.45,41.36c9.49,0,14.87,7.22,14.4,17.24H89.42c.8,4.16,3.72,6.81,8.83,6.81m6.84-11.58c-.6-3.88-2.92-6.74-7.57-6.74a7.71,7.71,0,0,0-8.1,6.74Z"/><path class="cls-1" d="M149.13,56.3c0-9.17,6.85-14.9,14.39-14.9a12.41,12.41,0,0,1,9.55,4.3V28.79h6.1V70.63h-6.1v-4a12.26,12.26,0,0,1-9.61,4.53,14.45,14.45,0,0,1-14.33-14.9m24.29-.06a9.1,9.1,0,1,0-9.09,9.34,9.07,9.07,0,0,0,9.09-9.34"/><path class="cls-1" d="M218.24,64.56l5.52-2.87a8.2,8.2,0,0,0,7.37,4.18c3.45,0,5.24-1.77,5.24-3.78,0-2.29-3.34-2.81-7-3.55-4.89-1-10-2.64-10-8.54,0-4.53,4.31-8.71,11.11-8.66,5.35,0,9.32,2.12,11.57,5.56L237,49.71a7.43,7.43,0,0,0-6.45-3.27c-3.28,0-4.95,1.61-4.95,3.44,0,2.06,2.65,2.64,6.79,3.55,4.72,1,10.07,2.58,10.07,8.54,0,4-3.45,9.29-11.63,9.23-6,0-10.19-2.41-12.6-6.65"/><polygon class="cls-1" points="259.04 57.91 254.2 63.18 254.2 70.64 248.1 70.64 248.1 28.79 254.2 28.79 254.2 56.19 267.15 41.97 274.58 41.97 263.35 54.24 274.86 70.64 267.96 70.64 259.04 57.91"/><path class="cls-1" d="M130.69,41.39c-7.25,0-13.32,4.7-13.32,12.5V70.63h6.22v-16c0-4.7,2.7-7.51,7.31-7.51s6.91,2.81,6.91,7.51v16H144V53.89c0-7.8-6.07-12.5-13.32-12.5"/><path class="cls-1" d="M291.82,64.7l5.5-3a8.29,8.29,0,0,0,7.56,4.12c3.55,0,5.38-1.72,5.38-3.72,0-2.35-3.44-2.86-7.1-3.67-4.87-1-10-2.58-10-8.48,0-4.52,4.35-8.71,11.17-8.65,5.56,0,9.28,2.06,11.68,5.56l-5.16,2.81a7.33,7.33,0,0,0-6.53-3.26c-3.38,0-5,1.55-5,3.44,0,2.06,2.46,2.52,6.82,3.49,4.81,1,10.25,2.63,10.25,8.65,0,4.3-3.84,9.22-11.8,9.16C298.4,71.17,294.28,68.94,291.82,64.7Z"/><path class="cls-1" d="M321.09,58.63V42h6.24V58.11c0,4.7,2.29,7.68,6.93,7.68,4.07,0,7.22-3.09,7.22-8.08V42h6.13V70.6h-6.07V66.88a10.64,10.64,0,0,1-8.71,4.3C325.27,71.17,321.09,66.48,321.09,58.63Z"/><path class="cls-1" d="M360.34,67V83.77h-6.07V42h6.07v4a12.06,12.06,0,0,1,9.57-4.58c7.5,0,14.26,5.73,14.26,14.89s-7,14.89-14.21,14.89C366,71.17,362.41,69.68,360.34,67ZM378.1,56.22a9.05,9.05,0,1,0-9,9.34A9,9,0,0,0,378.1,56.22Z"/><path class="cls-1" d="M395.54,67V83.77h-6.07V42h6.07v4a12.06,12.06,0,0,1,9.57-4.58c7.5,0,14.26,5.73,14.26,14.89s-7,14.89-14.21,14.89C401.21,71.17,397.6,69.68,395.54,67ZM413.3,56.22a9.05,9.05,0,1,0-9,9.34A9,9,0,0,0,413.3,56.22Z"/><path class="cls-1" d="M423.33,56.28a14.86,14.86,0,1,1,14.84,14.89A14.74,14.74,0,0,1,423.33,56.28Zm23.66,0a8.8,8.8,0,1,0-8.82,9.16A9,9,0,0,0,447,56.28Z"/><path class="cls-1" d="M458.38,42h6.13v4.53c1.55-2.92,4.35-4.53,8.36-4.53h2.75V47.8h-3.72c-5.21,0-7.33,2.63-7.33,8.59V70.6h-6.19Z"/><path class="cls-1" d="M479.51,42h4.87V35.2l6.19-3.38V42h6.07v5.5h-6.07v11.4c0,5.16.8,6,6.07,6V70.6h-.92c-8.71,0-11.34-2.75-11.34-11.68V47.46h-4.87Z"/></svg>