<svg id="logo_lockups" data-name="logo lockups" xmlns="http://www.w3.org/2000/svg" viewBox="0 0 580 580"><defs><style>.cls-1{fill:#00363d;}.cls-2{fill:#78a300;}</style></defs><title>support_zendesk vertical</title><path class="cls-1" d="M40,494.27l9.53-5.16c2.88,4.67,7.15,7.15,13.11,7.15,6.16,0,9.33-3,9.33-6.45,0-4.07-6-5-12.31-6.36-8.44-1.69-17.38-4.47-17.38-14.7,0-7.85,7.55-15.09,19.37-15,9.63,0,16.09,3.57,20.26,9.63L73,468.25c-2.38-3.58-6.06-5.66-11.32-5.66-5.86,0-8.64,2.68-8.64,6,0,3.57,4.27,4.37,11.82,6.06,8.34,1.79,17.78,4.57,17.78,15,0,7.45-6.65,16-20.46,15.89C51.42,505.49,44.27,501.62,40,494.27Z"/><path class="cls-1" d="M90.75,483.74v-28.9h10.82v28c0,8.14,4,13.31,12,13.31,7.05,0,12.51-5.36,12.51-14V454.84h10.63V504.5H126.2V498a18.44,18.44,0,0,1-15.1,7.45C98,505.49,90.75,497.35,90.75,483.74Z"/><path class="cls-1" d="M158.81,498.34v29H148.29v-72.5h10.53v7a20.91,20.91,0,0,1,16.58-7.94c13,0,24.73,9.93,24.73,25.82S188,505.49,175.5,505.49C168.64,505.49,162.39,502.91,158.81,498.34Zm30.79-18.77c0-9-6.85-16.09-15.69-16.09-9,0-15.69,7.25-15.69,16.09s6.65,16.19,15.69,16.19C182.75,495.76,189.6,488.61,189.6,479.57Z"/><path class="cls-1" d="M219.84,498.34v29H209.31v-72.5h10.53v7a20.91,20.91,0,0,1,16.58-7.94c13,0,24.73,9.93,24.73,25.82S249,505.49,236.52,505.49C229.67,505.49,223.41,502.91,219.84,498.34Zm30.79-18.77c0-9-6.85-16.09-15.69-16.09-9,0-15.69,7.25-15.69,16.09s6.65,16.19,15.69,16.19C243.77,495.76,250.62,488.61,250.62,479.57Z"/><path class="cls-1" d="M268,479.67a25.77,25.77,0,1,1,25.72,25.82A25.56,25.56,0,0,1,268,479.67Zm41,0c0-8.74-6.75-15.89-15.29-15.89s-15.19,7.15-15.19,15.89,6.65,15.89,15.19,15.89S309,488.41,309,479.67Z"/><path class="cls-1" d="M328.78,454.84h10.63v7.85c2.68-5.06,7.55-7.85,14.5-7.85h4.77V465h-6.46c-9,0-12.71,4.57-12.71,14.9V504.5H328.78Z"/><path class="cls-1" d="M365.42,454.84h8.44V443.13l10.73-5.86v17.58h10.53v9.53H384.59v19.76c0,8.94,1.39,10.33,10.53,10.33v10h-1.59c-15.1,0-19.66-4.77-19.66-20.26V464.38h-8.44Z"/><rect class="cls-2" x="14.67" y="93.46" width="205.47" height="102.73" transform="translate(-53.91 218.39) rotate(-74.21)"/><rect class="cls-1" x="206.54" y="142.89" width="102.73" height="102.73" transform="translate(558.94 311.01) rotate(164.21)"/><path class="cls-1" d="M295.38,403.85a19.27,19.27,0,0,0,13.69-5.32l6.79,7.32c-4.49,4.61-10.7,8-20.37,8-16.57,0-27.27-11-27.27-25.87A25.37,25.37,0,0,1,294,362.14c16.46,0,25.78,12.52,25,29.89H280.08c1.38,7.21,6.44,11.81,15.3,11.81m11.85-20.08c-1-6.73-5.06-11.69-13.12-11.69-7.48,0-12.66,4.25-14,11.69Z"/><polygon class="cls-1" points="40 403.31 69.94 372.9 40.7 372.9 40.7 363.36 83.81 363.36 83.81 373.1 53.87 403.5 84.21 403.5 84.21 413.05 40 413.05 40 403.31"/><path class="cls-1" d="M117.82,403.85a19.27,19.27,0,0,0,13.69-5.32l6.79,7.32c-4.49,4.61-10.7,8-20.37,8-16.57,0-27.27-11-27.27-25.87a25.37,25.37,0,0,1,25.77-25.87c16.46,0,25.78,12.52,25,29.89H102.52c1.38,7.21,6.44,11.81,15.3,11.81m11.85-20.08c-1-6.73-5.06-11.69-13.12-11.69-7.48,0-12.66,4.25-14,11.69Z"/><path class="cls-1" d="M206,388c0-15.9,11.87-25.84,24.95-25.84,6.59,0,12.88,2.88,16.57,7.46V340.34h10.58v72.55H247.55V406a21.25,21.25,0,0,1-16.67,7.85c-12.67,0-24.85-10-24.85-25.84m42.11-.1c0-8.84-6.69-16.1-15.77-16.1a15.73,15.73,0,0,0-15.77,16.1c0,9,6.88,16.2,15.77,16.2,9.08,0,15.77-7.26,15.77-16.2"/><path class="cls-1" d="M325.86,402.36l9.58-5a14.22,14.22,0,0,0,12.77,7.25c6,0,9.08-3.08,9.08-6.56,0-4-5.79-4.87-12.07-6.16-8.48-1.79-17.26-4.57-17.26-14.81,0-7.85,7.48-15.11,19.26-15,9.28,0,16.17,3.68,20.06,9.64l-8.88,4.87A12.89,12.89,0,0,0,347.22,371c-5.69,0-8.58,2.78-8.58,6,0,3.58,4.59,4.57,11.78,6.16,8.18,1.79,17.46,4.47,17.46,14.81,0,6.86-6,16.1-20.16,16-10.38,0-17.66-4.17-21.85-11.53"/><polygon class="cls-1" points="396.6 390.83 388.21 399.98 388.21 412.89 377.64 412.89 377.64 340.34 388.21 340.34 388.21 387.85 410.67 363.2 423.54 363.2 404.08 384.47 424.04 412.89 412.06 412.89 396.6 390.83"/><path class="cls-1" d="M174.08,362.2c-12.57,0-23.1,8.15-23.1,21.67v29h10.78V385.21c0-8.15,4.69-13,12.67-13s12,4.88,12,13v27.68h10.78v-29c0-13.52-10.53-21.67-23.1-21.67"/></svg>