<svg xmlns="http://www.w3.org/2000/svg" width="265" height="55" viewBox="0 0 265 55">
  <g fill-rule="evenodd">
    <path d="M69.2294922,3.69287109 L75.9311523,3.69287109 L75.9311523,27.4018555 C78.3139768,25.2573135 80.9449726,24.1850586 83.8242188,24.1850586 C87.1006023,24.1850586 89.7216699,25.2473852 91.6875,27.3720703 C93.3554771,29.2187592 94.1894531,32.1674602 94.1894531,36.2182617 L94.1894531,54 L87.487793,54 L87.487793,36.84375 C87.487793,34.5204962 87.0757691,32.8376517 86.251709,31.795166 C85.4276489,30.7526803 84.1022227,30.2314453 82.2753906,30.2314453 C79.93228,30.2314453 78.2841845,30.9562102 77.3310547,32.4057617 C76.3977818,33.8751701 75.9311523,36.3969548 75.9311523,39.9711914 L75.9311523,54 L69.2294922,54 L69.2294922,3.69287109 Z M124.063965,24.9892578 L130.79541,24.9892578 L130.79541,54 L124.063965,54 L124.063965,50.9619141 C121.30386,53.5433072 118.335302,54.8339844 115.158203,54.8339844 C111.147115,54.8339844 107.831068,53.3844546 105.209961,50.4853516 C102.608711,47.5266779 101.308105,43.8333555 101.308105,39.4052734 C101.308105,35.0566189 102.608711,31.4327944 105.209961,28.5336914 C107.811211,25.6345884 111.067689,24.1850586 114.979492,24.1850586 C118.35516,24.1850586 121.383287,25.5750187 124.063965,28.3549805 L124.063965,24.9892578 Z M108.158691,39.4052734 C108.158691,42.1852353 108.903313,44.4488845 110.392578,46.1962891 C111.921557,47.9635505 113.847645,48.847168 116.170898,48.847168 C118.653007,48.847168 120.658521,47.9933354 122.1875,46.2856445 C123.716479,44.5183831 124.480957,42.2745904 124.480957,39.5541992 C124.480957,36.833808 123.716479,34.5900153 122.1875,32.8227539 C120.658521,31.0952062 118.672864,30.2314453 116.230469,30.2314453 C113.927072,30.2314453 112.000984,31.1051345 110.452148,32.8525391 C108.923169,34.6198005 108.158691,36.8040235 108.158691,39.4052734 Z M145.956055,3.69287109 L145.956055,34.371582 L155.397949,24.9892578 L164.393066,24.9892578 L151.793945,37.1713867 L165.316406,54 L156.619141,54 L147.02832,41.7583008 L145.956055,42.8305664 L145.956055,54 L139.254395,54 L139.254395,3.69287109 L145.956055,3.69287109 Z M176.336914,24.9892578 L176.336914,41.6391602 C176.336914,46.4445227 178.233217,48.847168 182.025879,48.847168 C185.818541,48.847168 187.714844,46.4445227 187.714844,41.6391602 L187.714844,24.9892578 L194.416504,24.9892578 L194.416504,41.7880859 C194.416504,44.1113397 194.128584,46.1168535 193.552734,47.8046875 C192.996742,49.3138096 192.033698,50.6739848 190.663574,51.8852539 C188.399891,53.851084 185.520688,54.8339844 182.025879,54.8339844 C178.550927,54.8339844 175.681652,53.851084 173.417969,51.8852539 C172.027988,50.6739848 171.045088,49.3138096 170.469238,47.8046875 C169.913246,46.4544203 169.635254,44.4489065 169.635254,41.7880859 L169.635254,24.9892578 L176.336914,24.9892578 Z M202.875488,24.9892578 L209.606934,24.9892578 L209.606934,27.6699219 C211.950044,25.3466681 214.590968,24.1850586 217.529785,24.1850586 C220.905453,24.1850586 223.536449,25.2473852 225.422852,27.3720703 C227.051115,29.1790455 227.865234,32.1277465 227.865234,36.2182617 L227.865234,54 L221.133789,54 L221.133789,37.796875 C221.133789,34.9374857 220.736658,32.9617568 219.942383,31.8696289 C219.167965,30.7576442 217.758148,30.2016602 215.712891,30.2016602 C213.488921,30.2016602 211.910324,30.9363533 210.977051,32.4057617 C210.063635,33.8553132 209.606934,36.3870262 209.606934,40.0009766 L209.606934,54 L202.875488,54 L202.875488,24.9892578 Z M257.709961,24.9892578 L264.441406,24.9892578 L264.441406,54 L257.709961,54 L257.709961,50.9619141 C254.949856,53.5433072 251.981298,54.8339844 248.804199,54.8339844 C244.793111,54.8339844 241.477064,53.3844546 238.855957,50.4853516 C236.254707,47.5266779 234.954102,43.8333555 234.954102,39.4052734 C234.954102,35.0566189 236.254707,31.4327944 238.855957,28.5336914 C241.457207,25.6345884 244.713685,24.1850586 248.625488,24.1850586 C252.001156,24.1850586 255.029283,25.5750187 257.709961,28.3549805 L257.709961,24.9892578 Z M241.804688,39.4052734 C241.804688,42.1852353 242.549309,44.4488845 244.038574,46.1962891 C245.567553,47.9635505 247.493641,48.847168 249.816895,48.847168 C252.299003,48.847168 254.304517,47.9933354 255.833496,46.2856445 C257.362475,44.5183831 258.126953,42.2745904 258.126953,39.5541992 C258.126953,36.833808 257.362475,34.5900153 255.833496,32.8227539 C254.304517,31.0952062 252.31886,30.2314453 249.876465,30.2314453 C247.573068,30.2314453 245.64698,31.1051345 244.098145,32.8525391 C242.569166,34.6198005 241.804688,36.8040235 241.804688,39.4052734 Z"/>
    <g fill-rule="nonzero">
      <path d="M63.0973407,7.05616449 C52.5582298,0.0700843859 39.3270188,-1.68016556 27.1769262,2.62240791 C6.09239205,10.088833 -4.94725793,33.2339828 2.5191778,54.3185469 L9.11765887,51.9819022 C2.9417182,34.5415838 12.0732805,15.3968302 29.5135742,9.22089835 C39.5680343,5.66042729 50.5048009,7.10716373 59.2297926,12.8907153 L63.0973407,7.05616449 Z"/>
      <polygon points="16.371 31.56 35.383 47.129 40.451 40.94 21.44 25.371"/>
      <polygon points="57.775 21.48 30.77 40.6 35.385 47.131 62.39 28.011"/>
    </g>
  </g>
</svg>
