<?xml version="1.0" encoding="utf-8"?>
<!-- Generator: Adobe Illustrator 20.1.0, SVG Export Plug-In . SVG Version: 6.00 Build 0)  -->
<svg version="1.1" id="Layer_1" xmlns="http://www.w3.org/2000/svg" xmlns:xlink="http://www.w3.org/1999/xlink" x="0px" y="0px"
	 viewBox="0 0 1190 383.7" style="enable-background:new 0 0 1190 383.7;" xml:space="preserve">
<style type="text/css">
	.st0{fill:#FFFFFF;}
	.st1{fill:#3864A0;}
</style>
<g>
	<path class="st1" d="M259.1,164.2L100.8,5.9l-32,32l59.4,59.4L0,225.4l158.3,158.3l32-32L131,292.3L259.1,164.2z M71.6,232.9
		l96.1-96.1l19.8,19.8l-96.1,96.1L71.6,232.9z"/>
	<g>
		<path class="st1" d="M378.6,45.8V94H431v27.9h-52.4v108.6c0,25,7.1,39.1,27.4,39.1c10,0,15.8-0.9,21.2-2.5L429,295
			c-7.1,2.5-18.3,5-32.5,5c-17.1,0-30.8-5.8-39.5-15.4c-10-11.2-14.2-29.1-14.2-52.9V121.9h-31.2V94h31.2V56.6L378.6,45.8z"/>
		<path class="st1" d="M628,193.1c0,74.5-52,107-100.3,107c-54.1,0-96.5-40-96.5-103.6c0-67,44.5-106.5,99.9-106.5
			C588.9,89.9,628,131.9,628,193.1 M468.7,195.2c0,44.1,25,77.4,60.8,77.4c34.9,0,61.2-32.9,61.2-78.2c0-34.1-17.1-77-60.3-77
			C487.4,117.4,468.7,157.3,468.7,195.2"/>
		<path class="st1" d="M646.3,159.8c0-25.8-0.8-46.6-1.7-65.8H677l2.1,34.5h0.8c14.5-24.6,38.7-38.7,71.6-38.7
			c49.1,0,85.7,41.2,85.7,102c0,72.4-44.5,108.2-91.9,108.2c-26.6,0-49.9-11.7-62-31.6h-0.8v109.4h-36.2V159.8z M682.5,213.5
			c0,5.4,0.4,10.4,1.7,15c6.7,25.4,28.7,42.9,54.9,42.9c38.7,0,61.2-31.6,61.2-77.8c0-40-21.2-74.5-59.9-74.5
			c-25,0-48.7,17.5-55.4,44.9c-1.2,4.6-2.5,10-2.5,14.5V213.5z"/>
		<path class="st1" d="M907.1,45.8V94h52.4v27.9h-52.4v108.6c0,25,7.1,39.1,27.5,39.1c10,0,15.8-0.9,21.2-2.5l1.7,27.9
			c-7.1,2.5-18.3,5-32.5,5c-17,0-30.8-5.8-39.5-15.4c-10-11.2-14.2-29.1-14.2-52.9V121.9h-31.2V94h31.2V56.6L907.1,45.8z"/>
		<path class="st1" d="M1126.3,247.2c0,17.5,0.8,34.5,2.9,48.3h-32.9l-2.9-25.4h-1.2c-11.2,15.8-32.9,30-61.6,30
			c-40.8,0-61.6-28.7-61.6-57.9c0-48.7,43.3-75.3,121.1-74.9v-4.2c0-16.2-4.6-46.6-45.8-46.2c-19.1,0-38.7,5.4-52.8,15l-8.3-24.6
			c16.6-10.4,41.2-17.5,66.6-17.5c61.6,0,76.6,42,76.6,82V247.2z M1090.9,192.7c-40-0.8-85.3,6.2-85.3,45.4c0,24.1,15.8,35,34.1,35
			c26.6,0,43.7-16.7,49.5-33.7c1.3-4.2,1.7-8.3,1.7-11.6V192.7z"/>
		<rect x="1153.4" class="st1" width="36.6" height="295.4"/>
	</g>
</g>
</svg>
