<?xml version="1.0" encoding="UTF-8" standalone="no"?>
<!-- Generator: Adobe Illustrator 17.1.0, SVG Export Plug-In . SVG Version: 6.00 Build 0)  -->

<svg
   xmlns:dc="http://purl.org/dc/elements/1.1/"
   xmlns:cc="http://creativecommons.org/ns#"
   xmlns:rdf="http://www.w3.org/1999/02/22-rdf-syntax-ns#"
   xmlns:svg="http://www.w3.org/2000/svg"
   xmlns="http://www.w3.org/2000/svg"
   xmlns:sodipodi="http://sodipodi.sourceforge.net/DTD/sodipodi-0.dtd"
   xmlns:inkscape="http://www.inkscape.org/namespaces/inkscape"
   version="1.1"
   id="Calque_1"
   x="0px"
   y="0px"
   viewBox="0 0 120 70"
   enable-background="new 0 0 120 70"
   xml:space="preserve"
   width="120px"
   height="70px"
   inkscape:version="0.91 r13725"
   sodipodi:docname="belighted.svg"><metadata
     id="metadata4266"><rdf:RDF><cc:Work
         rdf:about=""><dc:format>image/svg+xml</dc:format><dc:type
           rdf:resource="http://purl.org/dc/dcmitype/StillImage" /><dc:title></dc:title></cc:Work></rdf:RDF></metadata><defs
     id="defs4264" /><sodipodi:namedview
     pagecolor="#ffffff"
     bordercolor="#666666"
     borderopacity="1"
     objecttolerance="10"
     gridtolerance="10"
     guidetolerance="10"
     inkscape:pageopacity="0"
     inkscape:pageshadow="2"
     inkscape:window-width="1920"
     inkscape:window-height="1053"
     id="namedview4262"
     showgrid="false"
     inkscape:zoom="5.9958333"
     inkscape:cx="50.194122"
     inkscape:cy="34.632991"
     inkscape:window-x="0"
     inkscape:window-y="0"
     inkscape:window-maximized="1"
     inkscape:current-layer="Calque_1" /><path
     fill="#88C9EF"
     d="M9.1,60.1c-2.3,0-3.7-1.1-4.7-2.3v2H0V39h4.3v7.7c1.1-1.4,2.5-2.5,4.7-2.5c3.6,0,6.9,2.8,6.9,7.9v0.1  C16,57.3,12.7,60.1,9.1,60.1 M11.7,52.1c0-2.5-1.7-4.2-3.7-4.2c-2,0-3.7,1.7-3.7,4.2v0.1c0,2.5,1.7,4.2,3.7,4.2  C10,56.4,11.7,54.7,11.7,52.1L11.7,52.1z"
     id="path4242" /><path
     fill="#88C9EF"
     d="M31.5,53.7H20.9c0.4,2,1.8,3,3.7,3c1.4,0,2.5-0.5,3.7-1.6l2.5,2.2c-1.4,1.8-3.5,2.8-6.2,2.8  c-4.6,0-8-3.2-8-7.9v-0.1c0-4.3,3.1-7.9,7.5-7.9c5.1,0,7.4,4,7.4,8.3v0.1C31.6,53,31.5,53.3,31.5,53.7 M24.1,47.7  c-1.8,0-3,1.3-3.3,3.2h6.5C27.1,49,26,47.7,24.1,47.7"
     id="path4244" /><rect
     x="33.1"
     y="39"
     fill="#1D2A36"
     width="4.3"
     height="20.8"
     id="rect4246" /><path
     fill="#1D2A36"
     d="M39.7,39h4.5v3.8h-4.5V39z M39.8,44.5h4.3v15.2h-4.3V44.5z"
     id="path4248" /><path
     fill="#1D2A36"
     d="M53.2,64.4c-2.5,0-4.8-0.6-6.7-1.6l1.5-3.2c1.6,0.9,3.1,1.4,5.1,1.4c3,0,4.3-1.4,4.3-4.2V56  c-1.3,1.5-2.7,2.5-5,2.5c-3.6,0-6.8-2.6-6.8-7.1v-0.1c0-4.5,3.3-7.1,6.8-7.1c2.4,0,3.8,1,4.9,2.3v-2h4.3v11.8  C61.7,62.1,58.9,64.4,53.2,64.4 M57.4,51.4c0-2.1-1.6-3.5-3.7-3.5c-2.1,0-3.7,1.4-3.7,3.5v0.1c0,2.1,1.6,3.5,3.7,3.5  C55.8,54.9,57.4,53.5,57.4,51.4L57.4,51.4z"
     id="path4250" /><path
     fill="#1D2A36"
     d="M84.7,60c-2.6,0-4.4-1.1-4.4-4.6v-7.2h-1.8v-3.7h1.8v-3.9h4.3v3.9h3.6v3.7h-3.6v6.5c0,1,0.4,1.5,1.4,1.5  c0.8,0,1.5-0.2,2.1-0.5v3.5C87.2,59.7,86.2,60,84.7,60"
     id="path4252" /><path
     fill="#1D2A36"
     d="M103.3,53.7H92.7c0.4,2,1.8,3,3.7,3c1.4,0,2.5-0.5,3.7-1.6l2.5,2.2c-1.4,1.8-3.5,2.8-6.2,2.8  c-4.6,0-8-3.2-8-7.9v-0.1c0-4.3,3.1-7.9,7.5-7.9c5.1,0,7.4,4,7.4,8.3v0.1C103.3,53,103.3,53.3,103.3,53.7 M95.9,47.7  c-1.8,0-3,1.3-3.3,3.2h6.5C98.9,49,97.7,47.7,95.9,47.7"
     id="path4254" /><path
     fill="#1D2A36"
     d="M115.7,59.8v-2.2c-1.1,1.4-2.5,2.5-4.7,2.5c-3.6,0-6.9-2.8-6.9-7.9v-0.1c0-5.1,3.3-7.9,6.9-7.9  c2.3,0,3.7,1.1,4.7,2.3V39h4.3v20.8H115.7z M115.7,52.1c0-2.5-1.7-4.2-3.7-4.2c-2,0-3.7,1.6-3.7,4.2v0.1c0,2.5,1.7,4.2,3.7,4.2  C114.1,56.4,115.7,54.7,115.7,52.1L115.7,52.1z"
     id="path4256" /><path
     fill="#1D2A36"
     d="M73.4,59.8v-8.5c0-2-1-3.1-2.6-3.1c-1.6,0-2.7,1.1-2.7,3.1v8.5h-4.3V39H68v7.7c1-1.3,2.3-2.4,4.5-2.4  c3.3,0,5.2,2.2,5.2,5.7v9.9H73.4z"
     id="path4258" /><path
     fill="#88C9EF"
     d="M1.9,61.4C6.8,65.3,14,70.9,29.8,62C25,66.8,13.9,74.5,0.4,65C2.5,63.6,1.9,62.1,1.9,61.4"
     id="path4260" /></svg>