<?xml version="1.0" encoding="UTF-8" standalone="no"?>
<!-- Created with Inkscape (http://www.inkscape.org/) -->

<svg
   xmlns:dc="http://purl.org/dc/elements/1.1/"
   xmlns:cc="http://creativecommons.org/ns#"
   xmlns:rdf="http://www.w3.org/1999/02/22-rdf-syntax-ns#"
   xmlns:svg="http://www.w3.org/2000/svg"
   xmlns="http://www.w3.org/2000/svg"
   xmlns:sodipodi="http://sodipodi.sourceforge.net/DTD/sodipodi-0.dtd"
   xmlns:inkscape="http://www.inkscape.org/namespaces/inkscape"
   id="svg2"
   version="1.1"
   inkscape:version="0.91 r13725"
   xml:space="preserve"
   width="1052.3622"
   height="744.09448"
   viewBox="0 0 1052.3622 744.09448"
   sodipodi:docname="GitLab.svg"><metadata
     id="metadata8"><rdf:RDF><cc:Work
         rdf:about=""><dc:format>image/svg+xml</dc:format><dc:type
           rdf:resource="http://purl.org/dc/dcmitype/StillImage" /><dc:title></dc:title></cc:Work></rdf:RDF></metadata><defs
     id="defs6" /><sodipodi:namedview
     pagecolor="#ffffff"
     bordercolor="#666666"
     borderopacity="1"
     objecttolerance="10"
     gridtolerance="10"
     guidetolerance="10"
     inkscape:pageopacity="0"
     inkscape:pageshadow="2"
     inkscape:window-width="1920"
     inkscape:window-height="1053"
     id="namedview4"
     showgrid="false"
     inkscape:zoom="0.60815564"
     inkscape:cx="186.36292"
     inkscape:cy="333.82188"
     inkscape:window-x="0"
     inkscape:window-y="0"
     inkscape:window-maximized="1"
     inkscape:current-layer="g12" /><g
     id="g10"
     inkscape:groupmode="layer"
     inkscape:label="wordmark"
     transform="matrix(1.25,0,0,-1.25,0,744.09447)"><g
       id="g12"><path
         d="m 60.809,388.74 c -0.289,-0.132 -0.582,-0.265 -0.871,-0.398 -9.743,13.047 -16.27,27.887 -23.231,42.504 -0.527,-21 6.422,-42.141 20.734,-56.524 9.942,10.176 17.629,22.286 27.266,32.149 -11.98,8.461 -25.305,18.332 -40.383,25.437 -2.226,1.051 -4.695,1.594 -7.051,2.371 3.5,-8.16 7.493,-15.589 11.477,-23.019 4.023,-7.504 8.039,-15.012 12.059,-22.52 M 31.867,323.654 c 9.824,-7.632 18.102,-15.238 23.508,-25.617 2.07,-3.972 4.996,-7.554 7.875,-11.035 24.32,-29.433 54.852,-51.375 86.812,-71.547 0.672,-0.426 2.192,-0.074 3.02,0.414 3.383,1.989 6.789,3.985 9.938,6.321 15.558,11.535 31.371,22.757 46.441,34.906 14.488,11.676 27.477,25.019 37.523,40.867 5.828,9.199 13.571,16.324 22.996,22.938 -3.906,4.664 -7.91,9.441 -12.062,14.394 1.684,0.098 3.137,0.184 5.359,0.313 -7.054,6.918 -9.289,15.66 -12.726,23.832 -1.739,4.144 -3.938,8.172 -6.446,11.906 -17.476,26.055 -42.664,39.836 -72.953,45.258 -7.09,1.269 -11.464,5.879 -11.754,13.144 -5.8,-1.863 -11.761,-3.57 -15.011,-9.238 -1.168,-2.035 -2.473,-2.539 -4.477,-2.895 -7.98,-1.402 -16.148,-2.25 -23.851,-4.605 -28.028,-8.57 -50.262,-24.676 -63.309,-51.633 -3.777,-7.805 -6.82,-15.933 -13.719,-22.476 2.203,-0.168 3.711,-0.278 5.34,-0.399 -4.262,-5.058 -8.32,-9.879 -12.504,-14.848 m 207.008,59.047 0.176,-0.148 c 1.656,-2.379 3.308,-4.758 4.992,-7.18 17.16,14.992 22.746,44.074 19.555,59.145 -18.414,-6.41 -33.246,-18.469 -48.547,-28.875 7.504,-7.528 14.761,-14.821 22.058,-22.078 0.438,-0.438 1.172,-0.582 1.766,-0.864 M 96.211,406.912 c 12.914,6.672 26.668,10.645 41.137,12.082 2.711,0.266 4.582,1.063 6.441,3.559 4.449,5.984 11.309,8.113 18.402,9.355 0.118,0.02 0.297,-0.32 0.45,-0.496 -2.477,-6.019 0.976,-11.543 8.007,-13.148 7,-1.594 14.094,-2.961 20.883,-5.223 6.781,-2.258 13.235,-5.504 19.496,-8.172 8.387,5.785 16.68,11.883 25.36,17.375 6.937,4.387 14.152,8.442 21.59,11.899 7.097,3.301 8.179,2.269 8.214,-5.41 0.079,-18.293 -4.25,-35.149 -16.046,-49.594 -1.653,-2.027 -4.379,-3.957 -4.602,-6.137 -0.215,-2.058 2.336,-4.332 3.457,-6.613 1.734,-3.531 3.656,-7.035 4.848,-10.762 2.632,-8.219 6.519,-15.562 13.695,-21.676 -2.238,-0.113 -3.855,-0.195 -5.477,-0.277 3.637,-4.898 7.192,-9.68 10.61,-14.281 -2.692,-1.383 -5.078,-2.156 -6.895,-3.629 -6.687,-5.406 -12.808,-11.317 -17.461,-18.727 -10.175,-16.199 -23.789,-29.351 -38.164,-41.734 -17.625,-15.18 -36.519,-28.637 -56.226,-40.984 -1.91,-1.196 -3.321,-1.375 -5.317,-0.114 -26.472,16.711 -51.695,35.035 -73.812,57.332 -9.676,9.754 -17.934,20.551 -25.051,32.407 -4.641,7.726 -11.863,13.566 -20.129,18.816 3.488,4.641 7.004,9.312 10.629,14.137 -1.535,0.129 -3.047,0.257 -5.598,0.476 12.586,9.133 14.465,23.953 22.364,35.235 -16.723,15.769 -22.645,35.617 -22.2,57.894 0.11,5.43 1.114,6.387 6.262,4.344 5.36,-2.125 10.703,-4.563 15.559,-7.652 10.465,-6.661 20.617,-13.821 30.886,-20.793 0.543,-0.368 2.375,-1.461 3.008,-2.012 l 5.68,2.523 z"
         style="fill:#231f20;fill-opacity:1;fill-rule:evenodd;stroke:none"
         id="path14"
         inkscape:connector-curvature="0" /><g
         id="g16"
         transform="translate(0,595.27557)"><path
           d="m 66.051,-212.566 c -0.289,-0.133 -0.578,-0.266 -0.867,-0.399 -9.743,13.047 -21.516,33.918 -28.477,48.535 -0.527,-21 5.984,-42.226 20.297,-56.609 9.941,10.176 20.863,19.926 30.5,29.785 -11.981,8.461 -28.102,20.781 -43.18,27.887 -2.226,1.051 -4.695,1.594 -7.051,2.371 3.5,-8.16 7.493,-15.59 11.477,-23.02 4.023,-7.504 13.285,-21.043 17.301,-28.55 z m -34.184,-59.055 c 9.824,-7.633 18.102,-15.238 23.508,-25.617 2.07,-3.973 4.996,-7.555 7.875,-11.035 24.32,-29.434 54.852,-51.375 86.812,-71.547 0.672,-0.426 2.192,-0.075 3.02,0.414 3.383,1.988 6.789,3.984 9.938,6.32 15.558,11.535 31.371,22.758 46.441,34.906 14.488,11.676 27.477,25.02 37.523,40.868 5.828,9.199 13.571,16.324 22.996,22.937 -3.906,4.664 -7.91,9.441 -12.062,14.395 1.684,0.097 3.137,0.183 5.359,0.312 -7.054,6.918 -9.289,15.66 -12.726,23.832 -1.739,4.145 -3.938,8.172 -6.446,11.906 -17.476,26.055 -42.664,39.836 -72.953,45.258 -7.09,1.27 -11.464,5.879 -11.754,13.145 -5.8,-1.864 -11.761,-3.571 -15.011,-9.239 -1.168,-2.035 -2.473,-2.539 -4.477,-2.894 -7.98,-1.402 -16.148,-2.25 -23.851,-4.606 -28.028,-8.57 -50.262,-24.675 -63.309,-51.632 -3.777,-7.805 -6.82,-15.934 -13.719,-22.477 2.203,-0.168 3.711,-0.277 5.34,-0.398 -4.262,-5.059 -8.32,-9.879 -12.504,-14.848 z m 207.008,59.047 0.176,-0.149 c 1.656,-2.379 3.308,-4.757 4.992,-7.179 17.16,14.992 22.746,44.074 19.555,59.144 -18.414,-6.41 -33.246,-18.469 -48.547,-28.875 7.504,-7.527 14.761,-14.82 22.058,-22.078 0.438,-0.437 1.172,-0.582 1.766,-0.863 z m -142.664,24.211 c 12.914,6.672 26.668,10.644 41.137,12.082 2.711,0.265 4.582,1.062 6.441,3.558 4.449,5.985 11.309,8.114 18.402,9.356 0.118,0.019 0.297,-0.321 0.45,-0.496 -2.477,-6.02 0.976,-11.543 8.007,-13.149 7,-1.593 14.094,-2.961 20.883,-5.222 6.781,-2.258 13.235,-5.504 19.496,-8.172 8.387,5.785 16.68,11.883 25.36,17.375 6.937,4.386 14.152,8.441 21.59,11.898 7.097,3.301 8.179,2.27 8.214,-5.41 0.079,-18.293 -4.25,-35.148 -16.046,-49.594 -1.653,-2.027 -4.379,-3.957 -4.602,-6.136 -0.215,-2.059 2.336,-4.332 3.457,-6.614 1.734,-3.531 3.656,-7.035 4.848,-10.761 2.632,-8.219 6.519,-15.563 13.695,-21.676 -2.238,-0.114 -3.855,-0.196 -5.477,-0.278 3.637,-4.898 7.192,-9.679 10.61,-14.281 -2.692,-1.383 -5.078,-2.156 -6.895,-3.629 -6.687,-5.406 -12.808,-11.316 -17.461,-18.726 -10.175,-16.2 -23.789,-29.352 -38.164,-41.735 -17.625,-15.179 -36.519,-28.636 -56.226,-40.984 -1.91,-1.195 -3.321,-1.375 -5.317,-0.113 -26.472,16.711 -51.695,35.035 -73.812,57.332 -9.676,9.754 -17.934,20.55 -25.051,32.406 -4.641,7.727 -11.863,13.566 -20.129,18.816 3.488,4.641 7.004,9.313 10.629,14.137 -1.535,0.129 -3.047,0.258 -5.598,0.477 12.586,9.132 14.465,23.953 22.364,35.234 -16.723,15.77 -22.645,35.617 -22.2,57.895 0.11,5.429 1.114,6.386 6.262,4.343 5.36,-2.125 10.703,-4.562 15.559,-7.652 10.465,-6.66 20.617,-13.82 30.886,-20.793 0.543,-0.367 2.375,-1.461 3.008,-2.012 l 5.68,2.524 z"
           style="fill:none;stroke:#231f20;stroke-width:2.16312099;stroke-linecap:butt;stroke-linejoin:miter;stroke-miterlimit:10;stroke-dasharray:none;stroke-opacity:1"
           id="path18"
           inkscape:connector-curvature="0" /></g><path
         d="m 103.371,347.029 c -0.832,0 -1.512,-0.015 -2.144,-0.05 -2.317,-0.129 -3.637,-0.602 -4.418,-1.578 -0.754,-0.946 -0.934,-2.321 -0.575,-4.461 1.004,-6.008 3.782,-11.067 8.254,-15.028 2.399,-2.121 5.504,-3.242 8.985,-3.242 7.129,0 13.57,4.703 14.988,10.938 0.398,1.757 -0.023,4.5 -1.27,5.625 -1.621,1.461 -3.515,2.531 -5.714,3.773 -0.946,0.531 -1.926,1.086 -2.957,1.711 l -1.168,0.711 0.187,-1.356 c 0.992,-7.132 -2.012,-11.093 -5.57,-14.226 -5.492,7.113 -5.633,11.68 -4.133,16.301 l 0.277,0.851 -0.894,0 c -0.735,0 -1.426,0.008 -2.086,0.016 -0.61,0.008 -1.195,0.015 -1.762,0.015 m 30.016,-40.886 c -0.348,1.668 -0.649,3.109 -1.051,4.527 -1.727,6.109 -4.363,8.129 -10.848,8.301 -1.109,0.031 -2.23,0.035 -3.082,0.035 l -2.488,-0.004 c -3.574,0 -7.359,0.07 -10.824,0.949 -10.703,2.703 -18.559,9.282 -22.715,19.032 -2.238,5.246 -1.961,10.613 0.758,14.726 2.699,4.086 7.425,6.426 12.976,6.426 0.649,0 1.317,-0.031 1.981,-0.094 3.394,-0.328 6.207,-0.957 8.594,-1.926 11.988,-4.855 21.433,-12.558 28.082,-22.89 5.75,-8.942 6.156,-18.02 1.203,-26.988 -0.485,-0.872 -1.082,-1.692 -1.84,-2.727 -0.153,-0.211 -0.313,-0.43 -0.477,-0.656 -0.094,0.445 -0.183,0.875 -0.269,1.289"
         style="fill:#231f20;fill-opacity:1;fill-rule:evenodd;stroke:none"
         id="path20"
         inkscape:connector-curvature="0" /><path
         d="m 113.473,323.319 c -3.102,0 -6.161,0.964 -8.555,3.082 -4.395,3.89 -7.078,8.863 -8.047,14.648 -0.641,3.832 0.469,5.063 4.391,5.281 0.695,0.039 1.39,0.051 2.109,0.051 1.184,0 2.434,-0.035 3.848,-0.035 -2.309,-7.106 0.539,-12.254 4.66,-17.438 4.433,3.766 7.309,8.024 6.305,15.254 3.406,-2.07 6.316,-3.379 8.574,-5.414 1.047,-0.945 1.422,-3.441 1.07,-5 -1.453,-6.398 -8.004,-10.429 -14.355,-10.429 m -17.36,37.468 c -11.992,-0.004 -19.25,-10.519 -14.332,-22.062 4.36,-10.215 12.547,-16.727 23.153,-19.403 3.515,-0.89 7.246,-0.968 10.984,-0.968 0.828,0 1.66,0.004 2.488,0.004 1.024,0 2.047,-0.008 3.067,-0.036 6.062,-0.164 8.57,-1.933 10.238,-7.828 0.594,-2.105 0.969,-4.273 1.625,-7.215 1.398,2.012 2.434,3.254 3.203,4.645 5.223,9.453 4.481,18.785 -1.223,27.652 -6.914,10.743 -16.578,18.356 -28.382,23.141 -2.746,1.113 -5.809,1.684 -8.778,1.969 -0.695,0.066 -1.379,0.101 -2.043,0.101 m 17.36,-38.765 c 3.449,0 6.914,1.082 9.754,3.047 3.031,2.097 5.113,5.078 5.867,8.394 0.386,1.715 0.094,4.844 -1.469,6.25 -1.672,1.512 -3.598,2.598 -5.828,3.856 -0.945,0.531 -1.918,1.082 -2.942,1.703 l -2.335,1.418 0.378,-2.707 c 0.903,-6.481 -1.656,-10.243 -4.839,-13.188 -3.704,4.906 -5.512,9.285 -3.606,15.152 l 0.555,1.7 -1.789,0 c -0.731,0 -1.418,0.007 -2.078,0.015 -0.614,0.008 -1.2,0.016 -1.77,0.016 -0.844,0 -1.535,-0.016 -2.18,-0.055 -1.777,-0.097 -3.746,-0.39 -4.886,-1.816 -1.133,-1.414 -0.977,-3.399 -0.711,-4.973 1.027,-6.16 3.875,-11.344 8.465,-15.406 2.519,-2.227 5.773,-3.406 9.414,-3.406 m -17.36,37.465 c 0.629,0 1.274,-0.032 1.918,-0.094 3.332,-0.321 6.082,-0.934 8.414,-1.879 11.86,-4.805 21.203,-12.422 27.778,-22.641 5.613,-8.722 6.007,-17.578 1.179,-26.32 -0.379,-0.691 -0.843,-1.356 -1.41,-2.137 -0.34,1.621 -0.637,3.031 -1.031,4.434 -1.805,6.375 -4.695,8.59 -11.457,8.769 -1.117,0.032 -2.242,0.035 -3.098,0.035 l -0.008,0 c -0.414,0 -0.828,0 -1.242,-0.003 -0.41,0 -0.824,0 -1.238,0 -3.535,0 -7.27,0.07 -10.664,0.929 -10.5,2.653 -18.203,9.102 -22.277,18.657 -2.149,5.042 -1.895,10.187 0.699,14.113 2.578,3.902 7.109,6.137 12.437,6.137"
         style="fill:#231f20;fill-opacity:1;fill-rule:nonzero;stroke:none"
         id="path22"
         inkscape:connector-curvature="0" /><path
         d="m 182.93,346.127 c -0.891,-0.461 -1.727,-0.879 -2.52,-1.281 -1.711,-0.863 -3.187,-1.609 -4.66,-2.445 -2.637,-1.497 -3.582,-3.954 -2.805,-7.293 1.387,-5.989 8.25,-10.86 15.297,-10.86 2.547,0 4.895,0.668 6.789,1.93 5.727,3.816 9.192,9.73 10.309,17.578 0.211,1.481 -1.324,3.988 -2.649,4.328 -1.867,0.477 -3.804,0.524 -5.859,0.57 -0.824,0.02 -1.672,0.04 -2.535,0.09 l -0.914,0.051 0.254,-0.879 c 2.101,-7.312 -0.711,-12.199 -4.227,-16.34 -4.785,4.379 -6.394,8.438 -5.543,13.875 l 0.199,1.262 -1.136,-0.586 z m -17.352,-41.281 c -6.121,8.066 -7.512,16.09 -4.137,23.867 7.407,17.082 20.422,27.551 38.684,31.121 1.25,0.242 2.484,0.367 3.672,0.367 4.965,0 9.105,-2.164 11.976,-6.261 3.461,-4.942 3.497,-10.543 0.114,-17.129 -5.59,-10.879 -18.18,-18.192 -31.325,-18.192 -0.98,0 -1.964,0.039 -2.933,0.125 -1.301,0.11 -2.399,0.184 -3.52,0.188 l -0.062,0 c -6.785,0 -9.766,-2.332 -11.395,-8.914 -0.312,-1.262 -0.562,-2.551 -0.851,-4.043 -0.071,-0.36 -0.145,-0.738 -0.223,-1.129"
         style="fill:#231f20;fill-opacity:1;fill-rule:evenodd;stroke:none"
         id="path24"
         inkscape:connector-curvature="0" /><path
         d="m 189.469,330.651 c 4.261,4.882 6.918,10.043 4.793,17.445 2.976,-0.172 5.73,0.012 8.269,-0.641 1.008,-0.261 2.328,-2.472 2.168,-3.609 -1,-7.008 -3.988,-13.102 -10.027,-17.129 -1.883,-1.254 -4.121,-1.82 -6.43,-1.82 -6.367,0 -13.262,4.304 -14.668,10.355 -0.636,2.746 -0.101,5.11 2.496,6.586 2.153,1.223 4.395,2.285 7.157,3.711 -1.039,-6.645 1.746,-10.937 6.242,-14.898 m 14.328,30.199 c -1.242,0 -2.512,-0.129 -3.797,-0.379 -18.473,-3.609 -31.727,-14.371 -39.156,-31.5 -3.817,-8.797 -1.543,-17.457 5.094,-25.637 0.558,2.738 0.878,4.653 1.343,6.528 1.567,6.316 4.266,8.421 10.766,8.421 l 0.062,0 c 1.157,-0.004 2.313,-0.089 3.465,-0.187 0.996,-0.086 1.992,-0.125 2.988,-0.125 13.188,0 26.137,7.32 31.903,18.543 3.015,5.871 3.89,12.012 -0.16,17.801 -3.16,4.511 -7.602,6.535 -12.508,6.535 m -14.445,-28.328 c -4.215,4.035 -5.625,7.828 -4.844,12.828 l 0.394,2.527 -2.269,-1.172 c -0.891,-0.461 -1.723,-0.879 -2.516,-1.281 -1.719,-0.867 -3.203,-1.613 -4.687,-2.457 -2.004,-1.141 -4.176,-3.453 -3.118,-8.008 0.735,-3.172 2.868,-6.094 6.004,-8.226 2.93,-1.993 6.547,-3.133 9.926,-3.133 2.676,0 5.149,0.703 7.149,2.039 5.886,3.922 9.449,9.988 10.593,18.027 0.274,1.938 -1.632,4.66 -3.132,5.047 -1.938,0.496 -3.914,0.543 -6.004,0.59 -0.817,0.019 -1.664,0.039 -2.512,0.09 l -1.828,0.105 0.504,-1.761 c 1.929,-6.719 -0.473,-11.325 -3.66,-15.215 m 14.445,27.031 c 4.746,0 8.703,-2.07 11.445,-5.984 3.309,-4.727 3.332,-10.11 0.067,-16.461 -5.481,-10.672 -17.836,-17.84 -30.747,-17.84 -0.96,0 -1.929,0.039 -2.878,0.121 -1.141,0.098 -2.364,0.187 -3.575,0.191 l -0.062,0 c -7.067,0 -10.328,-2.547 -12.027,-9.406 -0.293,-1.184 -0.528,-2.383 -0.793,-3.746 -5.227,7.465 -6.301,14.863 -3.192,22.027 3.621,8.348 8.688,15.188 15.059,20.324 6.402,5.161 14.191,8.665 23.156,10.418 1.211,0.235 2.402,0.356 3.547,0.356"
         style="fill:#231f20;fill-opacity:1;fill-rule:nonzero;stroke:none"
         id="path26"
         inkscape:connector-curvature="0" /><path
         d="m 150.449,278.963 c -0.633,0 -1.289,0.289 -2,0.879 -1.191,0.988 -2.39,1.973 -3.59,2.953 -2.164,1.777 -4.406,3.613 -6.566,5.465 -0.203,0.176 -0.387,0.547 -0.559,0.934 0.36,0.179 0.711,0.343 0.965,0.347 1.696,0.039 3.5,0.059 5.852,0.059 1.047,0 2.097,-0.004 3.144,-0.008 1.051,-0.004 2.102,-0.008 3.153,-0.008 1,0 2.004,0.004 3.007,0.008 1,0.004 1.997,0.008 2.997,0.008 2.183,0 3.863,-0.02 5.445,-0.063 0.226,-0.004 0.59,-0.199 0.933,-0.394 -0.128,-0.293 -0.261,-0.567 -0.402,-0.684 -2.574,-2.195 -5.234,-4.383 -7.808,-6.496 -0.872,-0.715 -1.743,-1.434 -2.614,-2.152 -0.691,-0.571 -1.332,-0.848 -1.957,-0.848"
         style="fill:#231f20;fill-opacity:1;fill-rule:evenodd;stroke:none"
         id="path28"
         inkscape:connector-curvature="0" /><path
         d="m 156.852,290.682 c -2,0 -4.004,-0.016 -6.004,-0.016 -2.098,0 -4.2,0.016 -6.297,0.016 -1.957,0 -3.918,-0.012 -5.875,-0.059 -0.801,-0.019 -1.586,-0.601 -2.379,-0.926 0.422,-0.761 0.672,-1.726 1.293,-2.257 3.34,-2.868 6.781,-5.618 10.168,-8.43 0.902,-0.75 1.797,-1.129 2.691,-1.129 0.879,0 1.758,0.363 2.645,1.098 3.488,2.875 7,5.722 10.437,8.656 0.535,0.461 0.742,1.309 1.102,1.977 -0.77,0.351 -1.531,0.984 -2.309,1.007 -1.824,0.051 -3.648,0.063 -5.472,0.063 m 0,-2.164 c 1.687,0 3.066,-0.012 4.336,-0.035 -2.27,-1.922 -4.598,-3.832 -6.852,-5.684 -0.875,-0.719 -1.746,-1.434 -2.617,-2.152 -0.485,-0.399 -0.91,-0.602 -1.27,-0.602 -0.367,0 -0.808,0.211 -1.308,0.629 -1.196,0.992 -2.414,1.992 -3.594,2.957 -1.93,1.582 -3.918,3.207 -5.848,4.848 1.414,0.027 2.953,0.039 4.856,0.039 1.047,0 2.093,-0.004 3.14,-0.008 1.051,-0.004 2.102,-0.008 3.153,-0.008 1.004,0 2.007,0.004 3.011,0.008 0.996,0.004 1.996,0.008 2.993,0.008"
         style="fill:#231f20;fill-opacity:1;fill-rule:nonzero;stroke:none"
         id="path30"
         inkscape:connector-curvature="0" /><path
         d="m 59.766,315.014 c 27.312,-30.266 52.961,-62.891 80.738,-93.676 -5.379,2.231 -77.047,85.609 -80.738,93.676"
         style="fill:#231f20;fill-opacity:1;fill-rule:evenodd;stroke:none"
         id="path32"
         inkscape:connector-curvature="0" /><g
         id="g34"
         transform="translate(0,595.27557)"><path
           d="m 58.777,-280.508 c 27.313,-30.265 53.836,-62.367 81.614,-93.152 -5.379,2.23 -77.922,85.082 -81.614,93.152 z"
           style="fill:none;stroke:#231f20;stroke-width:2.16312099;stroke-linecap:butt;stroke-linejoin:miter;stroke-miterlimit:10;stroke-dasharray:none;stroke-opacity:1"
           id="path36"
           inkscape:connector-curvature="0" /></g><path
         d="m 143.539,255.592 c 2.016,0.695 4.649,1.109 7.391,1.109 2.73,0 5.175,-0.394 7.07,-1.109 l -14.461,0 z"
         style="fill:#231f20;fill-opacity:1;fill-rule:evenodd;stroke:none"
         id="path38"
         inkscape:connector-curvature="0" /><path
         d="m 150.93,257.783 c -4.735,0 -9.473,-1.199 -11.34,-3.269 l 22.164,0 c -2.141,2.265 -6.484,3.269 -10.824,3.269"
         style="fill:#231f20;fill-opacity:1;fill-rule:nonzero;stroke:none"
         id="path40"
         inkscape:connector-curvature="0" /><path
         d="m 238.875,382.701 c 2.801,5.438 5.543,10.907 8.41,16.309 4.879,9.199 9.84,18.359 14.84,27.676 0.23,-0.395 0.437,-0.59 0.395,-0.692 -5.848,-14.277 -12.379,-28.203 -21.176,-40.953 -0.633,-0.918 -1.524,-1.664 -2.293,-2.488 l -0.176,0.148 z"
         style="fill:#231f20;fill-opacity:1;fill-rule:evenodd;stroke:none"
         id="path42"
         inkscape:connector-curvature="0" /><g
         id="g44"
         transform="translate(0,595.27557)"><path
           d="m 238.875,-212.574 c 2.801,5.437 5.543,10.906 8.41,16.308 4.879,9.2 12.813,22.465 17.813,31.782 0.23,-0.391 0.433,-0.59 0.394,-0.688 -5.847,-14.277 -15.351,-32.312 -24.148,-45.062 -0.633,-0.918 -1.524,-1.664 -2.293,-2.489 l -0.176,0.149 z"
           style="fill:none;stroke:#231f20;stroke-width:2.16312099;stroke-linecap:butt;stroke-linejoin:miter;stroke-miterlimit:10;stroke-dasharray:none;stroke-opacity:1"
           id="path46"
           inkscape:connector-curvature="0" /></g><g
         id="g48"
         transform="matrix(-1,0,0,1,0,595.27557)"><path
           d="m -243.488,-281.023 c 27.312,-30.266 53.226,-62.457 81.004,-93.239 -5.379,2.227 -77.309,85.168 -81.004,93.239 z"
           style="fill:none;stroke:#231f20;stroke-width:2.16312099;stroke-linecap:butt;stroke-linejoin:miter;stroke-miterlimit:10;stroke-dasharray:none;stroke-opacity:1"
           id="path50"
           inkscape:connector-curvature="0" /></g><path
         d="m 363.77,309.631 0,-18.531 23.531,0 0,-34.125 c 0,-16.766 -10.297,-24.719 -22.953,-24.719 -10.875,0 -22.938,6.766 -22.938,24.719 l 0,121.187 c 0,16.485 10,24.422 22.938,24.422 12.656,0 22.953,-7.937 22.953,-24.703 l 20.89,0 c -0.296,26.766 -18.531,45.297 -43.843,45.297 -25.875,0 -43.828,-18.828 -43.828,-45.891 l 0,-119.734 c 0,-26.766 17.953,-45.297 43.828,-45.297 25.89,0 43.843,18.531 43.843,45.297 l 0,52.078 -44.421,0 z m 88.824,69.422 -20,0 0,-165.031 20,0 0,165.031 z m 2.64,28.828 c 0,7.063 -5.875,12.359 -12.343,12.359 -7.063,0 -12.657,-5.296 -12.657,-12.359 0,-6.469 5.594,-12.062 12.657,-12.062 6.468,0 12.343,5.593 12.343,12.062 z m 15.391,-46.781 11.172,0 0,-108.25 c 0,-25.594 6.484,-40.297 35.312,-40.297 4.11,0 8.813,0.594 8.813,0.594 l 0,17.64 c 0,0 -2.641,-0.297 -4.703,-0.297 -13.828,0 -19.407,4.125 -19.407,20.297 l 0,110.313 24.11,0 0,17.953 -24.11,0 0,25.297 -14.718,0 c 0,-22.063 -3.532,-26.188 -16.469,-26.188 l 0,-17.062 z m 147.496,-126.781 -48.234,0 0,187.093 -21.188,0 0,-207.39 69.422,0 0,20.297 z m 46.07,-22.063 c 14.704,0 23.829,8.828 26.766,13.234 l 0,-11.468 18.828,0 0,165.031 -18.828,0 0,-11.469 c -2.937,4.703 -12.062,13.235 -26.766,13.235 -20.593,0 -33.546,-12.36 -33.546,-38.829 l 0,-90.609 c 0,-26.766 12.953,-39.125 33.546,-39.125 z m 6.172,17.656 c -11.468,0 -19.422,6.766 -19.422,20.594 l 0,92.063 c 0,13.828 7.954,20.89 19.422,20.89 11.469,0 19.422,-6.765 19.422,-20 l 0,-92.953 c 0,-13.828 -7.953,-20.594 -19.422,-20.594 z m 111.93,-17.656 c 20.891,0 33.547,12.359 33.547,38.828 l 0,91.203 c 0,26.172 -12.656,38.828 -33.547,38.828 -14.703,0 -22.641,-8.531 -25.594,-13.531 l 0,69.422 -20,0 0,-222.984 18.828,0 0,11.468 c 3.235,-5 11.766,-13.234 26.766,-13.234 z m -6.172,17.359 c -11.172,0 -19.422,7.063 -19.422,20.891 l 0,93.25 c 0,12.938 8.531,20 19.422,20 11.766,0 19.703,-7.359 19.703,-20.891 l 0,-92.359 c 0,-13.828 -7.937,-20.891 -19.703,-20.891 z"
         style="fill:#000000;fill-opacity:1;fill-rule:nonzero;stroke:none"
         id="path52"
         inkscape:connector-curvature="0" /></g></g></svg>