<?xml version="1.0" encoding="UTF-8" standalone="no"?>
<svg
   xmlns:dc="http://purl.org/dc/elements/1.1/"
   xmlns:cc="http://creativecommons.org/ns#"
   xmlns:rdf="http://www.w3.org/1999/02/22-rdf-syntax-ns#"
   xmlns:svg="http://www.w3.org/2000/svg"
   xmlns="http://www.w3.org/2000/svg"
   viewBox="0 0 659.63751 112.4"
   height="112.4"
   width="659.63751"
   xml:space="preserve"
   version="1.1"
   id="svg2"><metadata
     id="metadata8"><rdf:RDF><cc:Work
         rdf:about=""><dc:format>image/svg+xml</dc:format><dc:type
           rdf:resource="http://purl.org/dc/dcmitype/StillImage" /></cc:Work></rdf:RDF></metadata><defs
     id="defs6" /><g
     transform="matrix(1.25,0,0,-1.25,0,112.4)"
     id="g10"><g
       transform="scale(0.1,0.1)"
       id="g12"><path
         id="path14"
         style="fill:#63c0ec;fill-opacity:1;fill-rule:nonzero;stroke:none"
         d="m 5117.55,659.164 -25.43,0 0,17.871 72.35,0 0,-17.871 -25.69,0 0,-76.281 -21.23,0 0,76.281" /><path
         id="path16"
         style="fill:#63c0ec;fill-opacity:1;fill-rule:nonzero;stroke:none"
         d="m 5254.93,618.91 c -0.4,11.324 -0.83,25 -0.83,38.684 l -0.27,0 c -3.08,-12.047 -6.95,-25.414 -10.65,-36.465 l -11.44,-36.738 -16.63,0 -10.07,36.343 c -3.05,11.176 -6.12,24.579 -8.5,36.86 l -0.27,0 c -0.43,-12.696 -0.98,-27.258 -1.58,-38.949 l -1.77,-35.762 -19.71,0 5.99,94.152 28.35,0 9.27,-31.488 c 3.07,-10.879 5.83,-22.625 7.97,-33.649 l 0.52,0 c 2.52,10.926 5.76,23.34 8.98,33.817 l 9.9,31.32 27.91,0 5.02,-94.152 -20.67,0 -1.52,36.027" /><path
         id="path18"
         style="fill:#3f464b;fill-opacity:1;fill-rule:nonzero;stroke:none"
         d="m 1167.39,368.199 -15.43,282.235 c -0.09,2.539 -1.37,4.918 -3.42,6.484 l -1.7,1.262 c -1.5,1.175 -3.38,1.793 -5.29,1.793 l -61.17,0 c -3.89,0 -7.36,-2.594 -8.37,-6.375 l -52.94,-188.953 c -0.34,-1.153 -2.27,-7.829 -4.49,-15.571 -2.01,7.274 -3.68,13.52 -4.15,15.09 l -53.809,189.465 c -1.101,3.75 -4.551,6.344 -8.433,6.344 l -64.161,0 c -4.648,0 -8.531,-3.649 -8.73,-8.297 L 861.508,367.867 c -0.098,-2.426 0.801,-4.84 2.551,-6.562 l 1.738,-1.739 c 1.601,-1.64 3.808,-2.578 6.156,-2.578 l 40.488,0 c 4.692,0 8.504,3.715 8.743,8.379 l 6.996,175.75 52.062,-179.945 c 1.11,-3.734 4.524,-6.309 8.434,-6.309 l 51.644,0 c 3.91,0 7.33,2.614 8.4,6.36 l 50.16,177.773 7.2,-171.922 c 0.1,-1.738 0.7,-3.426 1.74,-4.816 l 1.27,-1.738 c 1.68,-2.227 4.29,-3.532 7.03,-3.532 l 42.63,0 c 0.07,0 0.07,0 0.07,0 4.49,0.117 8.9,3.883 8.9,8.75 0,0.887 -0.06,1.688 -0.33,2.461" /><path
         id="path20"
         style="fill:#3f464b;fill-opacity:1;fill-rule:nonzero;stroke:none"
         d="m 1484.84,653.359 -0.87,1.731 c -1.47,2.973 -4.48,4.883 -7.83,4.883 l -43.91,0 c -3.34,0 -6.35,-1.856 -7.83,-4.883 l -46.55,-93.438 c -0.13,-0.339 -0.3,-0.675 -0.43,-1.054 l -5.09,-14.996 -4.55,14.761 c -0.13,0.481 -0.33,0.95 -0.53,1.418 l -47.79,93.453 c -1.51,2.883 -4.52,4.739 -7.8,4.739 l -44.35,0 c -2.91,0 -5.62,-1.442 -7.22,-3.821 l -0.91,-1.324 c -1.77,-2.59 -1.97,-5.922 -0.6,-8.711 l 82.66,-169.172 0,-109.465 c 0,-2.308 0.9,-4.535 2.51,-6.14 l 1.74,-1.762 c 1.61,-1.652 3.89,-2.59 6.23,-2.59 l 41.76,0 c 4.82,0 8.7,3.934 8.7,8.75 l 0,111.207 82.66,168.715 c 1.21,2.445 1.21,5.293 0,7.699" /><path
         id="path22"
         style="fill:#3f464b;fill-opacity:1;fill-rule:nonzero;stroke:none"
         d="m 1938.11,659.973 0,-295.469 5.69,-7.516 55.28,0 0,296.571 -6.43,6.414 -54.54,0" /><path
         id="path24"
         style="fill:#3f464b;fill-opacity:1;fill-rule:nonzero;stroke:none"
         d="m 2297.26,514.629 0,-100.711 c -12.18,-2.801 -24.63,-4.137 -37.82,-4.137 -47.89,0 -76.5,48.973 -76.5,96.328 0,65.079 28.78,98.086 85.54,98.086 19.35,0 42.77,-3.422 59.9,-8.675 l 4.25,-1.325 7.74,5.868 12.71,50.703 -8.03,2.375 c -21.29,6.343 -41,10.242 -73.49,10.242 -98.12,0 -152.14,-55.84 -152.14,-157.274 0,-95.824 53.82,-152.984 143.91,-152.984 31.45,0 60.87,6.121 90.05,18.809 l 5.26,2.257 0,148.817 -57.23,0 -4.15,-8.379" /><path
         id="path26"
         style="fill:#3f464b;fill-opacity:1;fill-rule:nonzero;stroke:none"
         d="m 2486.71,659.973 0,-295.422 5.65,-7.563 55.32,0 0,296.539 -6.39,6.446 -54.58,0" /><path
         id="path28"
         style="fill:#3f464b;fill-opacity:1;fill-rule:nonzero;stroke:none"
         d="m 3431.58,523.902 -45.71,22.184 c -21.51,10.285 -34.61,17.719 -34.61,34.082 0,24.621 29.62,28.312 47.23,28.312 19.84,0 40.43,-4.113 59.64,-11.859 l 3.68,-1.523 10.24,5.269 -2.22,53.047 -6.35,1.582 c -23.8,5.817 -45.01,8.387 -68.87,8.387 -63.46,0 -106.06,-33.617 -106.06,-83.613 0,-50.352 29.15,-70.633 60.67,-85.04 l 35.71,-16.378 c 24.41,-11.317 37.15,-18.239 37.15,-39.813 0,-16.859 -22.26,-30.047 -50.7,-30.047 -30.32,0 -55.69,8.754 -72.11,15.278 l -5.33,2.179 -7.96,-7.867 -0.47,-52.551 6.49,-1.765 c 25.03,-6.895 54.95,-10.227 91.43,-10.227 61.64,0 103.07,35.848 103.07,89.27 0,36.851 -17.44,62.617 -54.92,81.093" /><path
         id="path30"
         style="fill:#3f464b;fill-opacity:1;fill-rule:nonzero;stroke:none"
         d="m 3731.74,523.902 -45.71,22.184 c -21.57,10.305 -34.61,17.719 -34.61,34.082 0,24.621 29.59,28.312 47.26,28.312 19.8,0 40.42,-4.113 59.56,-11.859 l 3.68,-1.48 10.28,5.164 -2.25,53.109 -6.35,1.582 c -23.77,5.817 -44.98,8.387 -68.83,8.387 -63.42,0 -106.07,-33.617 -106.07,-83.613 0,-50.352 29.18,-70.633 60.65,-85.04 l 35.7,-16.378 c 24.39,-11.297 37.16,-18.239 37.16,-39.813 0,-16.859 -22.3,-30.047 -50.72,-30.047 -30.32,0 -55.65,8.754 -72.08,15.278 l -5.32,2.179 -7.93,-7.867 -0.53,-52.531 6.48,-1.785 c 25.04,-6.895 54.99,-10.227 91.47,-10.227 61.61,0 103,35.848 103,89.27 0,36.851 -17.36,62.617 -54.84,81.093" /><path
         id="path32"
         style="fill:#65c0ed;fill-opacity:1;fill-rule:nonzero;stroke:none"
         d="m 3928.21,426.996 c -20.27,0 -36.77,-16.484 -36.77,-36.726 0,-20.231 16.5,-36.731 36.77,-36.731 20.25,0 36.69,16.5 36.69,36.731 0,20.242 -16.44,36.726 -36.69,36.726" /><path
         id="path34"
         style="fill:#65c0ed;fill-opacity:1;fill-rule:nonzero;stroke:none"
         d="m 4279.24,421.773 -8.63,4.219 -3.41,-1.23 c -25.52,-9.074 -43.44,-13.657 -70.75,-13.657 -39.32,0 -61.84,34.598 -61.84,95.004 0,23.614 5.35,100.614 74.29,100.614 18.21,0 33.46,-2.528 51.03,-8.547 l 2.5,-0.836 9.39,2.422 11.64,51.058 -7.87,2.321 c -11.21,3.336 -34.63,10.242 -66.23,10.242 -83.79,0 -137.88,-61.746 -137.88,-157.274 0,-96.949 46.79,-152.57 128.44,-152.57 37.08,0 69.07,10.059 84.9,16.066 l 7.3,2.778 -12.88,49.39" /><path
         id="path36"
         style="fill:#65c0ed;fill-opacity:1;fill-rule:nonzero;stroke:none"
         d="m 5036.04,654.496 -7.31,5.477 -70.64,0 -54.79,-195.395 c -0.33,-1.164 -2.21,-7.816 -4.43,-15.504 -1.99,7.274 -3.66,13.52 -4.16,15.09 l -55.58,195.809 -79.12,0 -14.39,-295.926 7.03,-7.059 52.54,0 7.3,184.129 53.95,-186.254 64.84,0 51.91,184.114 7.33,-174.559 5.55,-7.43 56.22,0 -16.25,297.508" /><path
         id="path38"
         style="fill:#3f464b;fill-opacity:1;fill-rule:nonzero;stroke:none"
         d="m 1692.3,414.098 -41.2,0 0,187.91 42.07,0 c 45.64,0 61.08,-23.965 61.08,-95.031 0,-76.375 -11.05,-92.879 -61.95,-92.879 z m -1.24,245.875 -100.9,0 0,-296.543 6.43,-6.442 99.16,0 c 100.93,0 121.61,59.606 121.61,149.121 0,109.286 -36.61,153.864 -126.3,153.864" /><path
         id="path40"
         style="fill:#3f464b;fill-opacity:1;fill-rule:nonzero;stroke:none"
         d="m 2756.85,521.324 -19.71,0 0,80.25 22.28,0 c 35.01,0 52.01,-13.082 52.01,-39.922 0,-24.5 -21.42,-40.328 -54.58,-40.328 z m 6.06,138.649 -87.16,0 0,-296.125 6.84,-6.86 54.55,0 0,105.938 26.16,0 c 65.5,0 111.21,40.609 111.21,98.726 0,44.856 -19.34,98.321 -111.6,98.321" /><path
         id="path42"
         style="fill:#3f464b;fill-opacity:1;fill-rule:nonzero;stroke:none"
         d="m 3045.05,498.063 23.8,79.363 22.28,-79.363 -46.08,0 z m 61.95,161.91 -73.15,0 -94.25,-296.207 9,-6.778 57.2,0 24.96,83.094 75.54,0 22.38,-83.094 58.77,0 8.84,6.778 -89.29,296.207" /><path
         id="path44"
         style="fill:#65c0ed;fill-opacity:1;fill-rule:nonzero;stroke:none"
         d="m 4506.5,410.629 c -37.64,0 -60.13,37.156 -60.13,99.367 0,48.125 18.61,96.727 60.13,96.727 41.8,0 58.87,-27.993 58.87,-96.727 0,-29.906 -5.68,-99.367 -58.87,-99.367 z m 0,252.754 c -77.47,0 -123.72,-57.344 -123.72,-153.387 0,-129.351 67.28,-156.457 123.72,-156.457 80.96,0 121.99,52.645 121.99,156.457 0,65.84 -12.66,153.387 -121.99,153.387" /><path
         id="path46"
         style="fill:#3f464b;fill-opacity:1;fill-rule:nonzero;stroke:none"
         d="m 154.844,634.117 0,-61.207 -61.926,0 L 0,481.012 247.73,236.094 l 92.934,91.812 -31,30.688 61.957,0 0,61.226 30.938,-30.621 92.968,91.813 L 247.73,725.98 154.844,634.117" /><path
         id="path48"
         style="fill:#64c0ed;fill-opacity:1;fill-rule:nonzero;stroke:none"
         d="m 371.621,848.449 -92.883,-91.785 61.926,-61.269 92.953,91.847 c 34.156,33.848 89.641,33.848 123.824,0 34.254,-33.812 34.254,-88.683 0,-122.519 l -92.914,-91.813 62.028,-61.195 92.816,91.816 c 68.418,67.582 68.418,177.332 0,244.918 -68.371,67.699 -179.266,67.699 -247.75,0" /><path
         id="path50"
         style="fill:#3f464b;fill-opacity:1;fill-rule:nonzero;stroke:none"
         d="m 3940.99,85.4063 c 0,-43.1446 -68.67,-74.1602 -165.42,-76.85552 l 0,35.46872 c 43.8,2.9063 77.67,19.375 77.67,41.1993 0,17.4292 -33.87,33.5272 -77.67,36.3472 l 0,35.481 c 87.76,-2.774 165.42,-31.559 165.42,-71.6407" /><path
         id="path52"
         style="fill:#3f464b;fill-opacity:1;fill-rule:nonzero;stroke:none"
         d="m 3747.83,8.55078 c -96.78,2.69532 -165.45,33.71092 -165.45,76.85552 0,40.0817 77.69,68.8667 165.45,71.6407 l 0,-35.481 c -43.81,-2.82 -77.68,-18.918 -77.68,-36.3472 0,-21.8243 33.87,-38.293 77.68,-41.1993 l 0,-35.46872" /><path
         id="path54"
         style="fill:#3f464b;fill-opacity:1;fill-rule:nonzero;stroke:none"
         d="m 3119.34,65.0195 -34.39,44.4645 -0.89,0 -34.81,-44.4645 70.09,0 z m 462.39,-19.2343 c 12.8,-11.8243 31.54,-22.1368 54.54,-30.3125 -33.88,-3.5782 -53.86,-6.26957 -79.55,-6.26957 -45.13,0 -88.12,7.38277 -121.69,20.58207 -8.26,3.2187 -15.48,6.6953 -21.7,10.3359 -5.11,-6.75 -13.62,-12.957 -26.98,-17.8203 -25.37,-9.2539 -59.36,-13.12892 -91.86,-13.12892 -19.21,0 -38.25,1.31642 -56.5,3.76172 l -74.8,0 -21.09,24.2969 -116.04,0 -22.35,-24.2969 -89.4,0 124.64,139.7814 92,0 85.98,-98.4533 c 21.01,-7.9609 45.92,-14.414 74.58,-14.414 19.7,0 40.6,4.25 40.6,14.1054 0,10.211 -32.92,13.7657 -50.86,16 -52.95,6.4766 -87.79,12.4141 -87.79,39.5629 0,28.414 46.92,46.91 111.73,46.91 31.98,0 71.25,-4.305 112.46,-14.086 -16.55,-7.621 -29.87,-16.559 -39.22,-26.387 -24.55,7.031 -42.63,10.137 -61.26,10.137 -15.39,0 -35.92,-3.945 -35.92,-11.719 0,-8.199 22.66,-11.34 37.21,-13.41 l 21.43,-2.7774 c 16.36,-2.1055 31.38,-4.6914 43.89,-8.3203 3.72,16.4647 19.93,31.9177 46.97,43.9217 31.82,14.078 77.81,22.641 123.38,22.641 26.2,0 50.43,-2.465 81.1,-6.617 -22.53,-8.106 -40.89,-18.356 -53.53,-29.993 -8.06,0.852 -16.29,1.34 -24.57,1.34 -51.54,0 -86.39,-17.054 -86.39,-38.7302 0,-22.043 35.27,-37.9883 87.69,-37.9883 7.78,0 15.56,0.4961 23.3,1.3477" /><path
         id="path56"
         style="fill:#3f464b;fill-opacity:1;fill-rule:nonzero;stroke:none"
         d="m 3011.29,152.715 -124.67,-139.7814 -65.31,0 -136.32,139.7814 91.57,0 78.23,-84.9181 64.9,84.9181 91.6,0" /><path
         id="path58"
         style="fill:#3f464b;fill-opacity:1;fill-rule:nonzero;stroke:none"
         d="m 3937.64,156.543 2.15,0 c 2.47,0 4.56,0.895 4.56,3.203 0,1.645 -1.19,3.277 -4.56,3.277 -0.96,0 -1.65,-0.07 -2.15,-0.148 l 0,-6.332 z m 0,-10.348 -2.98,0 0,18.688 c 1.55,0.23 3.05,0.445 5.27,0.445 2.84,0 4.71,-0.59 5.82,-1.418 1.12,-0.808 1.73,-2.078 1.73,-3.867 0,-2.453 -1.66,-3.945 -3.67,-4.539 l 0,-0.168 c 1.65,-0.285 2.75,-1.777 3.13,-4.531 0.46,-2.903 0.9,-4.02 1.2,-4.61 l -3.13,0 c -0.45,0.59 -0.89,2.297 -1.26,4.766 -0.45,2.379 -1.64,3.273 -4.05,3.273 l -2.06,0 0,-8.039 z m 3.12,23.899 c -7.37,0 -13.4,-6.324 -13.4,-14.153 0,-7.968 6.03,-14.222 13.5,-14.222 7.42,-0.063 13.39,6.254 13.39,14.144 0,7.907 -5.97,14.231 -13.39,14.231 l -0.1,0 z m 0.1,2.605 c 9.13,0 16.43,-7.429 16.43,-16.758 0,-9.453 -7.3,-16.816 -16.53,-16.816 -9.16,0 -16.6,7.363 -16.6,16.816 0,9.329 7.44,16.758 16.6,16.758 l 0.1,0" /><path
         id="path60"
         style="fill:#3f464b;fill-opacity:1;fill-rule:nonzero;stroke:none"
         d="m 2499.45,63.3164 45.35,0 -21.49,81.5116 -0.49,0 -23.37,-81.5116 z m 10.13,105.3716 27.9,0 L 2582.84,0 l -21.74,0 -12.03,46.3203 -53.89,0 L 2482.65,0 l -21.71,0 48.64,168.688" /><path
         id="path62"
         style="fill:#3f464b;fill-opacity:1;fill-rule:nonzero;stroke:none"
         d="m 4117.87,17.0039 28.36,0 c 21.98,0 29.53,14.8867 29.53,31.1953 0,23.1485 -14.87,32.1328 -33.06,32.1328 l -24.83,0 0,-63.3281 z m 0,78.918 23.87,0 c 8.74,0 28.59,2.1289 28.59,28.1171 0,17.477 -8.74,27.645 -29.05,27.645 l -23.41,0 0,-55.7621 z m -20.77,72.7661 51.72,0 c 22,0 43.27,-10.391 43.27,-43.227 0,-15.367 -9.23,-30.7188 -24.58,-35.211 l 0,-0.4687 c 20.78,-4.9727 29.99,-20.793 29.99,-41.5821 C 4197.5,13.9297 4178.13,0 4142.94,0 l -45.84,0 0,168.688" /><path
         id="path64"
         style="fill:#3f464b;fill-opacity:1;fill-rule:nonzero;stroke:none"
         d="m 4332.67,92.1406 20.56,0 c 12.28,0 34.71,0 34.71,32.6094 0,16.531 -11.08,26.934 -30.45,26.934 l -24.82,0 0,-59.5434 z m -20.79,76.5474 54.58,0 c 26.47,0 43.25,-15.59 43.25,-42.297 0,-18.418 -6.39,-37.7855 -26.01,-42.5238 l 0,-0.4727 c 14.66,-1.6367 22.93,-13.6953 23.86,-28.1093 l 1.42,-28.8321 C 4409.94,7.79297 4413.01,3.06641 4417.96,0 l -25.03,0 c -3.56,3.53516 -5.21,16.0703 -5.68,24.3398 l -1.4,26.2266 c -1.66,23.1484 -14.42,24.5703 -25.06,24.5703 l -28.12,0 0,-75.1367 -20.79,0 0,168.688" /><path
         id="path66"
         style="fill:#3f464b;fill-opacity:1;fill-rule:nonzero;stroke:none"
         d="m 4549.58,63.3164 45.37,0 -21.52,81.5116 -0.47,0 -23.38,-81.5116 z m 10.15,105.3716 27.88,0 L 4632.98,0 l -21.74,0 -12.04,46.3203 -53.86,0 L 4532.81,0 l -21.75,0 48.67,168.688" /><path
         id="path68"
         style="fill:#3f464b;fill-opacity:1;fill-rule:nonzero;stroke:none"
         d="m 4736.95,168.688 26.96,0 55.76,-140.8052 0.47,0 0,140.8052 20.78,0 0,-168.688 -28.6,0 -54.1,136.563 -0.48,0 0,-136.563 -20.79,0 0,168.688" /><path
         id="path70"
         style="fill:#3f464b;fill-opacity:1;fill-rule:nonzero;stroke:none"
         d="m 4983.41,17.0039 21.73,0 c 35.91,0 39.93,36.875 39.93,67.1094 0,32.5977 -2.12,67.5707 -39.93,67.5707 l -21.73,0 0,-134.6801 z m -20.78,151.6841 45.11,0 c 52.46,0 59.07,-37.805 59.07,-84.3403 C 5066.81,41.8164 5056.19,0 5009.86,0 l -47.23,0 0,168.688" /></g></g></svg>