<?xml version="1.0" encoding="UTF-8" standalone="no"?>
<!-- Created with Inkscape (http://www.inkscape.org/) -->

<svg
   xmlns:dc="http://purl.org/dc/elements/1.1/"
   xmlns:cc="http://creativecommons.org/ns#"
   xmlns:rdf="http://www.w3.org/1999/02/22-rdf-syntax-ns#"
   xmlns:svg="http://www.w3.org/2000/svg"
   xmlns="http://www.w3.org/2000/svg"
   xmlns:xlink="http://www.w3.org/1999/xlink"
   xmlns:sodipodi="http://sodipodi.sourceforge.net/DTD/sodipodi-0.dtd"
   xmlns:inkscape="http://www.inkscape.org/namespaces/inkscape"
   width="819.42999"
   height="963.8299"
   id="svg4581"
   version="1.1"
   inkscape:version="0.48.5 r10040"
   sodipodi:docname="logo-colivre.svg">
  <defs
     id="defs4583" />
  <sodipodi:namedview
     id="base"
     pagecolor="#ffffff"
     bordercolor="#666666"
     borderopacity="1.0"
     inkscape:pageopacity="0.0"
     inkscape:pageshadow="2"
     inkscape:zoom="0.47797233"
     inkscape:cx="411.76223"
     inkscape:cy="479.52457"
     inkscape:document-units="px"
     inkscape:current-layer="layer1"
     showgrid="false"
     inkscape:window-width="1366"
     inkscape:window-height="702"
     inkscape:window-x="0"
     inkscape:window-y="27"
     inkscape:window-maximized="1"
     fit-margin-top="10"
     fit-margin-left="10"
     fit-margin-right="10"
     fit-margin-bottom="10" />
  <metadata
     id="metadata4586">
    <rdf:RDF>
      <cc:Work
         rdf:about="">
        <dc:format>image/svg+xml</dc:format>
        <dc:type
           rdf:resource="http://purl.org/dc/dcmitype/StillImage" />
        <dc:title></dc:title>
      </cc:Work>
    </rdf:RDF>
  </metadata>
  <g
     inkscape:label="Camada 1"
     inkscape:groupmode="layer"
     id="layer1"
     transform="translate(39.714991,-41.875805)">
    <g
       transform="matrix(1.1638949,0,0,1.1638949,-63.225764,-18.236731)"
       id="g1897">
      <path
         style="font-size:133.96452332px;font-style:normal;font-variant:normal;font-weight:bold;font-stretch:normal;text-align:start;line-height:125%;writing-mode:lr-tb;text-anchor:start;fill:#c00000;fill-opacity:1;stroke:none;font-family:Bitstream Vera Sans"
         d="m 149.58117,846.55879 c -4.62256,2.39846 -9.44127,4.2082 -14.45613,5.42923 -5.01502,1.22103 -10.24801,1.83154 -15.69897,1.83155 -16.26592,-10e-6 -29.152143,-4.53526 -38.65871,-13.60578 -9.506608,-9.1141 -14.259902,-21.45522 -14.259895,-37.02339 -7e-6,-15.61169 4.753287,-27.95281 14.259895,-37.0234 9.506567,-9.11403 22.39279,-13.67109 38.65871,-13.67119 5.45096,10e-5 10.68395,0.61062 15.69897,1.83155 5.01486,1.22113 9.83357,3.03087 14.45613,5.42923 l 0,20.21242 c -4.66617,-3.18333 -9.26683,-5.51637 -13.80201,-6.99913 -4.53533,-1.4826 -9.31043,-2.22394 -14.32531,-2.22402 -8.98335,8e-5 -16.04788,2.87822 -21.19361,8.63443 -5.145803,5.75636 -7.718687,13.69305 -7.718654,23.81011 -3.3e-5,10.07354 2.572851,17.98843 7.718654,23.74468 5.14573,5.75631 12.21026,8.63445 21.19361,8.63444 5.01488,10e-6 9.78998,-0.74133 14.32531,-2.22402 4.53518,-1.48266 9.13584,-3.8157 13.80201,-6.99913 l 0,20.21242 m 65.54319,-75.81293 c -7.6751,8e-5 -13.62762,2.83462 -17.85758,8.50361 -4.23003,5.66914 -6.34503,13.64944 -6.345,23.94093 -3e-5,10.24797 2.11497,18.20647 6.345,23.87551 4.22996,5.66909 10.18248,8.50362 17.85758,8.50361 7.71859,10e-6 13.69291,-2.83452 17.92298,-8.50361 4.22993,-5.66904 6.34492,-13.62754 6.345,-23.87551 -8e-5,-10.29149 -2.11507,-18.27179 -6.345,-23.94093 -4.23007,-5.66899 -10.20439,-8.50353 -17.92298,-8.50361 m 0,-18.25005 c 15.69889,10e-5 27.9964,4.49175 36.89257,13.47495 8.89598,8.98338 13.34402,21.38991 13.34412,37.21964 -10e-5,15.78621 -4.44814,28.17094 -13.34412,37.15422 -8.89617,8.9833 -21.19368,13.47494 -36.89257,13.47495 -15.6554,-10e-6 -27.95292,-4.49165 -36.89258,-13.47495 -8.89609,-8.98328 -13.34413,-21.36801 -13.34412,-37.15422 -1e-5,-15.82973 4.44803,-28.23626 13.34412,-37.21964 8.93966,-8.9832 21.23718,-13.47485 36.89258,-13.47495 m 69.20628,1.76614 25.18376,0 0,78.62566 44.21876,0 0,19.035 -69.40252,0 0,-97.66066 m 85.29771,0 25.18376,0 0,97.66066 -25.18376,0 0,-97.66066 m 38.33167,0 25.31458,0 25.9033,72.08442 25.83788,-72.08442 25.31459,0 -36.17304,97.66066 -30.02428,0 -36.17303,-97.66066 m 151.03715,43.30298 c 5.27654,6e-5 9.04865,-0.98113 11.31634,-2.94355 2.31118,-1.96232 3.46679,-5.18932 3.46686,-9.68103 -7e-5,-4.44797 -1.15568,-7.63137 -3.46686,-9.55021 -2.26769,-1.91868 -6.0398,-2.87806 -11.31634,-2.87814 l -10.5968,0 0,25.05293 10.5968,0 m -10.5968,17.39969 0,36.95799 -25.18376,0 0,-97.66066 38.46247,0 c 12.86437,9e-5 22.28374,2.1587 28.25814,6.47582 6.01785,4.3173 9.02682,11.14199 9.02691,20.47407 -9e-5,6.45409 -1.56999,11.75248 -4.70969,15.89521 -3.09627,4.14283 -7.78415,7.1954 -14.06366,9.15773 3.44498,0.78499 6.51935,2.57293 9.22314,5.36381 2.74724,2.74736 5.51636,6.93374 8.30737,12.55917 l 13.67119,27.73485 -26.81907,0 -11.90505,-24.26799 c -2.39852,-4.88409 -4.84058,-8.22012 -7.32619,-10.00809 -2.44211,-1.7879 -5.71273,-2.68187 -9.81185,-2.68191 l -7.12995,0 m 77.90614,-60.70267 67.96345,0 0,19.03499 -42.77969,0 0,18.18464 40.22861,0 0,19.035 -40.22861,0 0,22.37103 44.21876,0 0,19.035 -69.40252,0 0,-97.66066"
         id="text1937"
         inkscape:export-filename="/home/valessio/Desktop/colivre.png"
         inkscape:export-xdpi="39.288532"
         inkscape:export-ydpi="39.288532"
         transform="scale(0.980092,1.020313)"
         inkscape:connector-curvature="0" />
      <g
         id="g3426"
         transform="matrix(1.324147,0,0,1.324147,-127.2025,-165.0061)"
         inkscape:export-filename="/home/valessio/Desktop/colivre.png"
         inkscape:export-xdpi="39.288532"
         inkscape:export-ydpi="39.288532">
        <path
           transform="translate(23.99938,20.08381)"
           sodipodi:nodetypes="cscccsc"
           id="path1494"
           d="m 436.65954,158.10401 c 33.63732,22.137 20.54219,66.77583 -5.73377,76.85108 -37.71648,14.46201 -50.70831,32.40154 -37.49406,48.18647 -13.4434,-6.59885 -42.89929,-10.37311 -63.67419,-4.44162 -9.3786,-3.56547 -12.31719,-7.71815 -13.42772,-13.69048 3.29437,-21.77641 22.32059,-45.8652 75.95473,-46.34514 51.81783,-0.45362 69.71274,-32.32008 44.37501,-60.56031 z"
           style="fill:#c00000;fill-opacity:1;fill-rule:evenodd;stroke:none"
           inkscape:connector-curvature="0" />
        <use
           x="0"
           y="0"
           xlink:href="#path1494"
           id="use1442"
           transform="matrix(-1,0,0,-1,754.333,858.9299)"
           width="744.09448"
           height="1052.3622" />
        <use
           x="0"
           y="0"
           xlink:href="#path1494"
           id="use1444"
           transform="matrix(0,-1,1,0,-52.29845,806.6314)"
           width="744.09448"
           height="1052.3622" />
        <use
           x="0"
           y="0"
           xlink:href="#use1442"
           id="use1446"
           transform="matrix(0,-1,1,0,-52.29845,806.6314)"
           width="744.09448"
           height="1052.3622" />
        <use
           x="0"
           y="0"
           xlink:href="#path1494"
           id="use1448"
           transform="matrix(0.5,-0.866025,0.866025,0.5,-183.3444,541.3689)"
           width="744.09448"
           height="1052.3622" />
        <use
           x="0"
           y="0"
           xlink:href="#use1444"
           id="use1450"
           transform="matrix(0.5,-0.866025,0.866025,0.5,-183.3444,541.3689)"
           width="744.09448"
           height="1052.3622" />
        <use
           x="0"
           y="0"
           xlink:href="#use1442"
           id="use1452"
           transform="matrix(0.5,-0.866025,0.866025,0.5,-183.3444,541.3689)"
           width="744.09448"
           height="1052.3622" />
        <use
           x="0"
           y="0"
           xlink:href="#use1446"
           id="use1454"
           transform="matrix(0.5,-0.866025,0.866025,0.5,-183.3444,541.3689)"
           width="744.09448"
           height="1052.3622" />
        <use
           x="0"
           y="0"
           xlink:href="#path1494"
           id="use1456"
           transform="matrix(0.866025,-0.5,0.5,0.866025,-164.2021,246.1206)"
           width="744.09448"
           height="1052.3622" />
        <use
           x="0"
           y="0"
           xlink:href="#use1444"
           id="use1458"
           transform="matrix(0.866025,-0.5,0.5,0.866025,-164.2021,246.1206)"
           width="744.09448"
           height="1052.3622" />
        <use
           x="0"
           y="0"
           xlink:href="#use1442"
           id="use1460"
           transform="matrix(0.866025,-0.5,0.5,0.866025,-164.2021,246.1206)"
           width="744.09448"
           height="1052.3622" />
        <use
           x="0"
           y="0"
           xlink:href="#use1446"
           id="use1462"
           transform="matrix(0.866025,-0.5,0.5,0.866025,-164.2021,246.1206)"
           width="744.09448"
           height="1052.3622" />
        <path
           transform="translate(23.99938,20.08381)"
           sodipodi:nodetypes="cssssccssssscs"
           id="path2361"
           d="m 353.09091,280.02156 c -71.5267,0 -129.5911,58.01761 -129.5911,129.54421 0,71.52658 58.0644,129.59109 129.5911,129.59109 71.5266,10e-6 130.567,-59.03885 129.5911,-129.59109 -0.6462,-46.71455 -30.0676,-106.99669 -102.541,-115.7499 -31.8002,-3.84077 -70.4169,5.55908 -96.6464,31.99675 12.3424,5.83412 19.4941,9.7327 25.8997,17.34547 22.0282,-26.38921 62.0192,-31.05873 95.9386,-17.82866 27.806,10.84561 52.3966,46.27272 52.6299,79.81302 0.4072,56.92667 -42.4993,109.31447 -106.5948,110.13019 -59.6872,0.74791 -109.6895,-54.59179 -109.6895,-106.01361 0,-51.42183 31.1923,-111.80837 112.4464,-120.7172 32.0234,-3.51109 58.6448,8.13681 82.2644,21.87245 -20.111,-17.67412 -51.5751,-30.39272 -83.2984,-30.39272 z"
           style="fill:#c00000;fill-opacity:1;fill-rule:evenodd;stroke:none"
           inkscape:connector-curvature="0" />
        <use
           x="0"
           y="0"
           xlink:href="#path1502"
           id="use2363"
           transform="matrix(-1,0,0,-1,753.3865,860.1081)"
           width="744.09448"
           height="1052.3622" />
        <use
           x="0"
           y="0"
           xlink:href="#path1502"
           id="use3123"
           transform="matrix(0.5,-0.866025,0.866025,0.5,-184.0913,541.253)"
           width="744.09448"
           height="1052.3622" />
        <use
           x="0"
           y="0"
           xlink:href="#use2363"
           id="use3125"
           transform="matrix(0.5,-0.866025,0.866025,0.5,-184.0913,541.253)"
           width="744.09448"
           height="1052.3622" />
        <use
           x="0"
           y="0"
           xlink:href="#use3123"
           id="use3127"
           transform="matrix(0.866025,0.5,-0.5,0.866025,265.4942,-130.7308)"
           width="744.09448"
           height="1052.3622" />
        <use
           x="0"
           y="0"
           xlink:href="#use3125"
           id="use3129"
           transform="matrix(0.866025,0.5,-0.5,0.866025,265.4942,-130.7308)"
           width="744.09448"
           height="1052.3622" />
        <use
           x="0"
           y="0"
           xlink:href="#path1502"
           id="use3131"
           transform="matrix(0.5,0.866025,-0.866025,0.5,560.785,-111.1991)"
           width="744.09448"
           height="1052.3622" />
        <use
           x="0"
           y="0"
           xlink:href="#use2363"
           id="use3133"
           transform="matrix(0.5,0.866025,-0.866025,0.5,560.785,-111.1991)"
           width="744.09448"
           height="1052.3622" />
        <use
           x="0"
           y="0"
           xlink:href="#use3131"
           id="use3135"
           transform="matrix(0.866025,0.5,-0.5,0.866025,265.4942,-130.7308)"
           width="744.09448"
           height="1052.3622" />
        <use
           x="0"
           y="0"
           xlink:href="#use3133"
           id="use3137"
           transform="matrix(0.866025,0.5,-0.5,0.866025,265.4942,-130.7308)"
           width="744.09448"
           height="1052.3622" />
        <use
           x="0"
           y="0"
           xlink:href="#use2363"
           id="use3139"
           transform="matrix(0.866025,0.5,-0.5,0.866025,265.4942,-130.7308)"
           width="744.09448"
           height="1052.3622" />
        <use
           x="0"
           y="0"
           xlink:href="#path1502"
           id="use3141"
           transform="matrix(0.866025,0.5,-0.5,0.866025,265.4942,-130.7308)"
           width="744.09448"
           height="1052.3622" />
        <path
           sodipodi:nodetypes="ccccc"
           id="path1502"
           d="m 381.38487,190.00385 c 14.58743,11.92185 5.75094,29.1191 -9.86016,32.59903 0.11645,7.81566 -2.07113,13.42912 -9.3742,21.70703 12.88969,-6.6826 19.4823,-9.33325 34.39588,-10.8477 -9.00078,-11.83113 10.41531,-30.95436 -15.16152,-43.45836 z"
           style="fill:#ff8800;fill-opacity:1;fill-rule:evenodd;stroke:none"
           inkscape:connector-curvature="0" />
      </g>
    </g>
  </g>
</svg>
