<?xml version="1.0" encoding="UTF-8" standalone="no"?>
<!-- Created with Inkscape (http://www.inkscape.org/) -->

<svg
   xmlns:dc="http://purl.org/dc/elements/1.1/"
   xmlns:cc="http://creativecommons.org/ns#"
   xmlns:rdf="http://www.w3.org/1999/02/22-rdf-syntax-ns#"
   xmlns:svg="http://www.w3.org/2000/svg"
   xmlns="http://www.w3.org/2000/svg"
   xmlns:sodipodi="http://sodipodi.sourceforge.net/DTD/sodipodi-0.dtd"
   xmlns:inkscape="http://www.inkscape.org/namespaces/inkscape"
   width="606.07227mm"
   height="213.07777mm"
   viewBox="0 0 606.07227 213.07777"
   version="1.1"
   id="svg8"
   inkscape:version="0.92.3 (2405546, 2018-03-11)"
   sodipodi:docname="Sanar.svg">
  <defs
     id="defs2" />
  <sodipodi:namedview
     id="base"
     pagecolor="#ffffff"
     bordercolor="#666666"
     borderopacity="1.0"
     inkscape:pageopacity="0.0"
     inkscape:pageshadow="2"
     inkscape:zoom="0.38285795"
     inkscape:cx="1001.677"
     inkscape:cy="402.66666"
     inkscape:document-units="mm"
     inkscape:current-layer="layer2"
     showgrid="false"
     fit-margin-top="0"
     fit-margin-left="0"
     fit-margin-right="0"
     fit-margin-bottom="0"
     inkscape:window-width="1366"
     inkscape:window-height="705"
     inkscape:window-x="-4"
     inkscape:window-y="-4"
     inkscape:window-maximized="1" />
  <metadata
     id="metadata5">
    <rdf:RDF>
      <cc:Work
         rdf:about="">
        <dc:format>image/svg+xml</dc:format>
        <dc:type
           rdf:resource="http://purl.org/dc/dcmitype/StillImage" />
        <dc:title></dc:title>
      </cc:Work>
    </rdf:RDF>
  </metadata>
  <g
     inkscape:groupmode="layer"
     id="layer2"
     inkscape:label="Camada 1"
     style="display:inline">
    <g
       transform="translate(198.03613,-41.961112)"
       id="g826">
      <path
         style="fill:#94b591;stroke-width:0.35277778"
         d="m -168.3146,254.77818 c 1.11566,-0.07 2.94129,-0.07 4.05694,0 1.11566,0.07 0.20285,0.12729 -2.02847,0.12729 -2.23132,0 -3.14413,-0.0573 -2.02847,-0.12729 z m 502.88476,0.0271 c 0.24254,-0.0979 0.63941,-0.0979 0.88195,0 0.24253,0.0979 0.0441,0.17794 -0.44098,0.17794 -0.48507,0 -0.6835,-0.0801 -0.44097,-0.17794 z M -176.2521,254.4525 c 0.24253,-0.0979 0.63941,-0.0979 0.88194,0 0.24254,0.0979 0.0441,0.17794 -0.44097,0.17794 -0.48507,0 -0.68351,-0.0801 -0.44097,-0.17794 z m 19.05,0 c 0.24254,-0.0979 0.63941,-0.0979 0.88195,0 0.24253,0.0979 0.0441,0.17794 -0.44098,0.17794 -0.48507,0 -0.6835,-0.0801 -0.44097,-0.17794 z m 488.97209,-0.007 c 0.25467,-0.10191 0.55894,-0.0894 0.67617,0.0278 0.11723,0.11722 -0.0912,0.2006 -0.46302,0.18529 -0.41099,-0.0169 -0.49456,-0.10052 -0.21315,-0.21314 z m 5.71059,0.0189 c 0,-0.5605 2.27094,-8.66415 3.67785,-13.12405 0.69356,-2.19863 1.26104,-4.27746 1.26104,-4.61963 0,-1.03982 -1.07446,-1.68611 -4.7625,-2.86464 -4.20995,-1.34531 -8.23828,-3.30889 -11.73593,-5.7206 -3.64145,-2.51085 -17.01546,-16.39179 -17.01546,-17.66041 0,-0.30997 1.19856,-1.44996 2.66343,-2.53329 8.63978,-6.38942 12.9207,-14.19294 13.46701,-24.54837 0.33715,-6.39057 -0.94466,-13.35634 -3.33734,-18.13609 -5.22041,-10.4287 -16.60081,-16.90517 -31.31394,-17.82046 -8.19594,-0.50986 -46.14849,-0.44827 -46.6725,0.0757 -0.32544,0.32544 -0.42334,12.47773 -0.42334,52.55147 0,49.28669 0.0335,52.14588 0.61737,52.45358 0.33954,0.17899 5.69736,0.32621 11.90625,0.32716 9.12735,10e-4 11.44086,-0.0939 12.08264,-0.49754 l 0.79375,-0.49928 v -17.25277 c 0,-15.21398 0.0655,-17.31829 0.55435,-17.80715 0.45886,-0.45885 1.55011,-0.55436 6.33342,-0.55436 3.61682,0 6.11346,0.15238 6.6729,0.40727 0.49163,0.224 2.19929,1.93056 3.7948,3.79236 6.20691,7.24283 12.57801,14.44595 15.27647,17.27147 8.23715,8.62499 17.63533,14.10863 27.55961,16.08048 1.78978,0.35561 2.10252,0.49058 1.19178,0.51438 -2.96033,0.0773 -10.96687,-2.74391 -15.80345,-5.56863 -7.45656,-4.35485 -12.13309,-8.86102 -26.26445,-25.30767 -3.06582,-3.56812 -5.58934,-6.19099 -6.16695,-6.40971 -0.56599,-0.21433 -3.32613,-0.33948 -6.55496,-0.29722 -4.44772,0.0582 -5.64501,0.17748 -5.9115,0.58888 -0.19985,0.30851 -0.32085,7.36895 -0.30102,17.56392 0.0307,15.73898 -0.0141,17.10017 -0.58138,17.72708 -0.58335,0.64459 -1.21701,0.67905 -12.48689,0.67905 -9.69638,0 -11.99783,-0.0918 -12.55712,-0.5007 -0.6718,-0.49121 -0.6864,-1.48253 -0.7697,-52.29931 -0.0677,-41.32682 0.006,-51.97689 0.3634,-52.68054 l 0.44831,-0.88194 h 25.03661 c 27.69185,0 27.64391,-0.003 34.3058,2.34638 11.67642,4.1183 18.67331,11.24331 21.61015,22.00582 1.09252,4.00365 1.37696,12.96412 0.54232,17.08325 -1.26012,6.21886 -3.67389,10.85287 -8.00071,15.35977 -1.51388,1.57689 -3.86384,3.65119 -5.22214,4.60954 -1.3583,0.95835 -2.47653,1.92695 -2.48493,2.15244 -0.0191,0.51277 11.23668,12.55814 13.97011,14.95012 4.0265,3.52349 8.5852,6.02219 14.55476,7.97767 2.05098,0.67185 4.00911,1.47499 4.35141,1.78476 0.94266,0.85308 0.77703,2.07482 -1.10853,8.17762 -0.95197,3.08117 -2.00696,6.77099 -2.34435,8.1996 -0.54674,2.31482 -1.21645,3.91391 -1.21645,2.90455 z m -521.93476,-0.99755 c -4.90557,-1.13686 -12.87639,-4.27577 -12.87639,-5.07072 0,-0.15332 1.07156,0.24691 2.38125,0.8894 4.07356,1.99837 11.47543,4.155 16.49236,4.80527 0.6136,0.0795 0.31711,0.14903 -0.70556,0.16539 -0.97014,0.0155 -3.35139,-0.33969 -5.29166,-0.78934 z m 32.45555,0.31244 c 15.63647,-2.39378 25.9025,-8.75195 30.71776,-19.02477 2.11118,-4.50397 2.73418,-7.29523 2.71648,-12.17083 -0.0304,-8.37945 -2.90187,-14.85484 -9.31268,-21.00093 -5.0417,-4.83352 -9.60226,-7.4662 -24.12156,-13.92467 -10.83575,-4.81995 -12.39902,-5.63603 -14.61812,-7.6312 -3.0525,-2.74446 -3.88001,-5.50012 -2.52834,-8.41959 1.50084,-3.24166 4.74961,-4.94307 10.4853,-5.49125 6.34795,-0.6067 15.05304,0.44763 23.37548,2.83115 2.45438,0.70293 3.85526,0.94498 4.24914,0.73418 0.6697,-0.35841 7.1657,-15.7121 7.00873,-16.56553 -0.34387,-1.86954 -13.75892,-6.05099 -22.68052,-7.06947 -4.73483,-0.54052 -13.81816,-0.45068 -18.0561,0.17859 -19.31366,2.8678 -30.49156,14.23044 -29.63883,30.12866 0.54534,10.16737 5.22062,18.03041 14.18104,23.85016 3.83931,2.49361 5.62902,3.35741 17.17536,8.28954 5.49369,2.34669 11.13157,4.97525 12.52862,5.84126 5.63438,3.49267 7.67193,7.95939 5.61355,12.30604 -2.395,5.0575 -7.62131,6.92706 -19.44253,6.95499 -8.32777,0.0197 -14.946,-0.97865 -22.66252,-3.41852 -2.15118,-0.68018 -3.07911,-0.82702 -3.56905,-0.56482 -0.41435,0.22175 -1.35161,2.17416 -2.50481,5.21774 -2.55075,6.73207 -3.94625,10.04558 -4.14643,9.8454 -0.0934,-0.0934 0.6987,-2.3638 1.76021,-5.04535 1.0615,-2.68155 2.36516,-6.03826 2.89701,-7.45936 1.27835,-3.41575 1.76591,-3.64561 5.40196,-2.54676 9.23438,2.7907 16.01576,3.723 24.9403,3.42879 6.62539,-0.21842 9.63179,-0.71799 12.27013,-2.03891 3.27478,-1.63956 5.29604,-4.52282 5.28911,-7.54474 -0.008,-3.42065 -1.93487,-6.14237 -6.22429,-8.79118 -1.38353,-0.85436 -7.00063,-3.47112 -12.48244,-5.81504 -11.70445,-5.00459 -13.44149,-5.8465 -17.19696,-8.33501 -9.62262,-6.37632 -14.2875,-14.72102 -14.2875,-25.55797 0,-7.93785 2.24374,-13.54118 7.57656,-18.92107 5.50441,-5.55301 12.50893,-8.76321 22.76233,-10.43208 3.91229,-0.63677 15.57408,-0.51524 20.23643,0.2109 6.44241,1.00337 13.90113,3.17641 18.42808,5.36887 2.81936,1.36545 2.82893,1.75243 0.19777,7.99497 -1.16083,2.75412 -2.62101,6.25033 -3.24484,7.76936 -1.5503,3.77499 -1.62125,3.79624 -7.45044,2.23085 -7.89995,-2.12147 -10.62172,-2.49301 -18.28922,-2.49661 -6.37252,-0.003 -7.03069,0.057 -8.93655,0.81497 -2.28154,0.90733 -4.23741,2.44972 -5.01619,3.95571 -0.65217,1.26116 -0.65917,4.30005 -0.0128,5.55003 0.82398,1.5934 3.84883,4.16378 6.42599,5.46051 1.33335,0.67089 6.07551,2.84622 10.53815,4.83408 14.33671,6.3862 19.02497,9.08448 24.0073,13.81721 6.1441,5.8363 9.1007,12.03422 9.56511,20.05134 0.46098,7.95797 -2.22004,15.22643 -7.77239,21.07161 -4.1357,4.35381 -9.15165,7.42748 -15.67427,9.60483 -3.87379,1.29314 -9.71682,2.48871 -11.94505,2.44415 -1.42773,-0.0285 -1.18674,-0.11404 1.46652,-0.52023 z m 40.89619,-0.97376 c -0.17627,-0.45934 3.12193,-9.27507 14.672368,-39.21767 3.143564,-8.14917 10.070466,-26.16413 15.393118,-40.03324 5.510505,-14.3586 10.00148,-25.56138 10.429851,-26.01736 l 0.752305,-0.80079 h 15.96429 15.964293 l 0.7077,0.8997 c 0.389237,0.49483 2.646017,6.72577 5.015065,13.84652 2.369051,7.12076 10.158356,30.31139 17.309572,51.53473 7.1512151,21.22334 13.0022079,38.71419 13.0022079,38.86855 0,0.15436 -0.2494633,0.53012 -0.5543656,0.83502 -0.4828047,0.48281 -2.1449208,0.55436 -12.8763903,0.55436 -11.703273,0 -12.356219,-0.0342 -13.00298,-0.68095 -0.403423,-0.40342 -2.065564,-4.96839 -4.07826,-11.2007 -5.855424,-18.13129 -5.834105,-18.07144 -6.637521,-18.63418 -0.644349,-0.45132 -3.164728,-0.52861 -17.237087,-0.52861 h -16.48239 l -0.870585,0.79375 c -0.634707,0.57869 -2.239176,4.5215 -5.921763,14.55208 -3.72043,10.13366 -5.301443,14.01392 -6.001118,14.72848 l -0.949939,0.97013 h -12.209043 c -9.841638,0 -12.244008,-0.0911 -12.389328,-0.46982 z m 24.668592,-0.27628 c 1.077464,-0.49092 0.984134,-0.27023 6.770956,-16.01084 3.506054,-9.53674 5.034481,-13.26659 5.674064,-13.84653 l 0.875386,-0.79375 h 16.929698 16.929698 l 0.791033,0.79375 c 0.506187,0.50793 1.506884,3.01684 2.778983,6.96736 1.093371,3.39549 3.114978,9.6803 4.492456,13.96624 1.377481,4.28595 2.726274,8.09595 2.99732,8.46667 0.466693,0.63831 1.125368,0.67735 12.427561,0.73644 6.5641086,0.0343 12.2125575,-0.0161 12.5521061,-0.11196 0.9092354,-0.25682 0.7740545,-1.28744 -0.7591461,-5.7878 -0.7570752,-2.22223 -8.537399,-25.31292 -17.289601,-51.31264 -11.63626,-34.56724 -16.112291,-47.43814 -16.654245,-47.88958 -0.680717,-0.56703 -1.9853,-0.61736 -16.000326,-0.61736 -17.377232,0 -16.431667,-0.16451 -17.643582,3.06951 -0.348936,0.93115 -8.565675,22.33049 -18.259423,47.5541 -20.88813,54.35195 -20.80733,54.137 -20.57645,54.73866 0.23868,0.622 22.609706,0.69457 23.963512,0.0777 z m 19.655894,-49.49481 c -0.327276,-0.39434 0.812609,-4.50873 5.424858,-19.58088 3.211559,-10.4949 5.839199,-19.16024 5.839199,-19.25631 0,-0.47715 1.034775,-0.0926 1.191211,0.44269 1.827777,6.25415 9.784017,37.9302 9.628756,38.3348 -0.18923,0.49312 -1.47786,0.55895 -10.942088,0.55895 -8.819536,0 -10.801294,-0.0888 -11.141936,-0.49925 z m 21.411175,-0.14727 c 0.341626,-0.21686 -0.690273,-4.6285 -4.418214,-18.88905 -2.675171,-10.23335 -5.014966,-18.60766 -5.199546,-18.60957 -0.465198,-0.005 -11.605378,36.56615 -11.345225,37.2441 0.183596,0.47844 1.5035,0.54757 10.363825,0.54286 5.584388,-0.003 10.354011,-0.13273 10.59916,-0.28834 z m 57.036286,49.88748 c -0.671808,-0.49121 -0.686396,-1.48253 -0.769697,-52.2993 -0.06772,-41.30972 0.0058,-51.97719 0.363114,-52.68055 l 0.448024,-0.88194 14.50712,-0.0921 14.507119,-0.0921 0.860566,1.02272 c 0.473315,0.56251 9.561351,16.24081 20.195641,34.84069 10.634289,18.59988 19.565999,34.05609 19.848249,34.34713 0.450825,0.46488 0.485493,0.35773 0.285341,-0.88194 -0.12531,-0.77611 -0.317599,-16.41299 -0.427306,-34.74861 -0.195897,-32.74048 -0.187145,-33.34864 0.4887,-33.95956 0.63367,-0.57279 1.64865,-0.6147 12.815733,-0.52916 l 12.127569,0.0929 0.44799,0.88194 c 0.35726,0.70332 0.43079,11.37286 0.36308,52.68055 -0.0833,50.81677 -0.0979,51.80809 -0.7697,52.2993 -0.5649,0.41305 -3.2042,0.5007 -15.075683,0.5007 H 77.494466 l -1.030129,-0.97013 C 75.897769,251.77128 66.915143,236.41222 56.502949,218.17361 46.090754,199.935 37.463372,184.90132 37.330981,184.76544 c -0.132387,-0.13588 -0.186849,14.89151 -0.121027,33.39421 l 0.119673,33.64127 -0.737034,0.73704 c -0.718027,0.71802 -1.040109,0.73703 -12.487668,0.73703 -9.591288,0 -11.876469,-0.092 -12.435418,-0.5007 z m 24.777865,-0.73402 c 0.472732,-0.6236 0.50897,-4.45476 0.311979,-32.98472 -0.122584,-17.75354 -0.257024,-32.89934 -0.298754,-33.65734 -0.102023,-1.85312 0.566893,-1.98578 1.616485,-0.32059 0.466615,0.74029 9.146156,15.87161 19.287865,33.62515 10.141709,17.75354 18.820784,32.67604 19.286835,33.16111 l 0.847366,0.88195 14.184913,0.0569 c 8.365599,0.0336 14.440849,-0.0801 14.808769,-0.277 0.59229,-0.31698 0.62384,-2.97076 0.62384,-52.46201 0,-40.07374 -0.0979,-52.22604 -0.42333,-52.55148 -0.65581,-0.65581 -23.684131,-0.60144 -24.230757,0.0572 -0.460036,0.55431 -0.635494,57.48261 -0.201418,65.35082 0.26157,4.74135 0.06143,5.65965 -0.970132,4.45129 -0.285962,-0.33497 -9.364907,-16.07623 -20.175437,-34.98058 -10.810527,-18.90434 -19.924337,-34.57585 -20.25291,-34.82558 -0.836369,-0.63568 -28.292491,-0.68613 -28.925466,-0.0532 -0.325438,0.32544 -0.423333,12.4766 -0.423333,52.54636 0,47.64203 0.04904,52.15047 0.570469,52.44227 0.313758,0.17559 5.803449,0.30254 12.199314,0.28211 11.192554,-0.0357 11.648911,-0.0636 12.163702,-0.74269 z m 84.868608,1.00109 c -0.24254,-0.0979 -0.44097,-0.53473 -0.44097,-0.97082 0,-0.43608 8.47168,-22.84628 18.82595,-49.80045 10.35428,-26.95418 19.1946,-50.02289 19.64517,-51.26382 0.45057,-1.24093 1.2005,-2.70937 1.66652,-3.2632 l 0.84731,-1.00696 h 15.96534 c 15.18853,0 15.99463,0.0324 16.56673,0.6645 0.33073,0.36548 7.08586,19.93141 15.0114,43.47986 7.92551,23.54845 15.78251,46.86348 17.46,51.81119 2.48542,7.33087 2.98326,9.14274 2.68972,9.78958 l -0.36022,0.79375 h -12.49211 c -11.38185,0 -12.55745,-0.0549 -13.22762,-0.61736 -0.51255,-0.43022 -1.71217,-3.66497 -3.95757,-10.67152 -1.7721,-5.5298 -3.84383,-11.99255 -4.60375,-14.36167 -0.96304,-3.00224 -1.61671,-4.4721 -2.15723,-4.8507 -0.67137,-0.47025 -2.9887,-0.54319 -17.25789,-0.54319 h -16.48242 l -0.87661,0.79375 c -0.64488,0.58392 -2.21037,4.43088 -5.92185,14.55208 -3.71862,10.1407 -5.29497,14.01343 -5.99508,14.72848 l -0.94985,0.97013 -11.757,-0.0278 c -6.46635,-0.0153 -11.95544,-0.10792 -12.19797,-0.20579 z m 24.02519,-0.51247 c 1.08167,-0.49284 1.00614,-0.31405 6.76392,-16.01084 3.54495,-9.66417 5.01748,-13.25884 5.6722,-13.84653 l 0.88428,-0.79375 h 16.9297 16.9297 l 0.82405,0.82405 c 0.45322,0.45322 1.08053,1.68354 1.394,2.73402 0.31348,1.05049 2.36605,7.46624 4.56128,14.25721 3.45197,10.67872 4.1076,12.40706 4.85179,12.79 0.64569,0.33229 3.76565,0.4293 12.50209,0.38875 6.40292,-0.0297 11.84011,-0.12689 12.08264,-0.21594 0.24254,-0.089 0.44097,-0.45569 0.44097,-0.81476 0,-0.35906 -2.23548,-7.28739 -4.96771,-15.39628 -2.73226,-8.10889 -10.51384,-31.25344 -17.29243,-51.43232 -8.93822,-26.60787 -12.52752,-36.85852 -13.06301,-37.30625 -0.67846,-0.56729 -1.98917,-0.61736 -16.16001,-0.61736 h -15.42164 l -0.73805,0.79375 c -0.5709,0.61401 -39.40787,100.77885 -40.2281,103.75277 -0.0991,0.35941 0.041,0.79354 0.31133,0.96474 0.74676,0.47286 22.67333,0.407 23.723,-0.0713 z m 19.42222,-49.48209 c -0.2074,-0.54051 11.30317,-38.61837 11.83467,-39.14983 0.21128,-0.21129 0.46556,-0.0222 0.68912,0.51255 0.80662,1.92946 9.97814,38.08477 9.78718,38.5824 -0.18059,0.47061 -1.6407,0.54141 -11.16602,0.54141 -8.98842,0 -10.99181,-0.0875 -11.14495,-0.48653 z m 21.64031,-0.30722 c 0.24405,-0.30644 -1.13563,-6.12998 -4.52216,-19.08805 -2.68037,-10.2559 -4.95197,-18.7257 -5.04807,-18.82178 -0.0961,-0.0961 -0.60611,1.23072 -1.13337,2.94847 -7.06815,23.02685 -10.61918,34.92092 -10.49048,35.13775 0.0864,0.14552 4.81136,0.26458 10.49997,0.26458 7.85185,0 10.42751,-0.10621 10.69411,-0.44097 z m 82.70854,-4.56847 c -0.31588,-0.31587 -0.42333,-4.19767 -0.42333,-15.29116 0,-14.36391 0.0236,-14.88922 0.69769,-15.49922 0.64159,-0.58064 1.35766,-0.61623 8.90764,-0.44276 6.80197,0.15629 8.68874,0.31576 11.00176,0.92985 6.23782,1.65609 8.84322,4.6792 9.73441,11.29498 1.39703,10.37091 -4.33998,17.4974 -15.34845,19.06583 -3.60662,0.51385 -14.03953,0.47266 -14.56972,-0.0575 z m 16.65549,-0.78879 c 3.60115,-0.79582 6.64753,-2.35849 8.78416,-4.50592 3.19046,-3.20658 4.32718,-6.65896 4.03455,-12.25371 -0.40287,-7.7036 -3.496,-11.28084 -10.86679,-12.56761 -3.64339,-0.63605 -17.43104,-0.74799 -18.15473,-0.1474 -0.44696,0.37097 -0.52324,2.55166 -0.52324,14.96079 0,11.13966 0.1028,14.63423 0.44098,14.98849 0.60656,0.63545 12.88058,0.27771 16.28507,-0.47464 z m 79.05313,-41.00372 c -17.20512,-16.81517 -35.84438,-32.36074 -58.03195,-48.39993 -2.23132,-1.613 -4.17086,-3.13352 -4.3101,-3.37892 -0.1392,-0.24541 -0.0598,-0.68904 0.17639,-0.98584 0.50281,-0.6317 12.35693,-9.370416 13.09547,-9.653817 0.80031,-0.30711 17.06358,10.798877 27.37435,18.693627 5.85555,4.48347 13.88389,10.97122 18.32254,14.80657 10.31177,8.91017 22.95247,21.13567 22.95247,22.19853 0,0.75294 -11.79714,13.31711 -12.47666,13.28785 -0.21985,-0.009 -3.41598,-2.9651 -7.10251,-6.56807 z m 13.52769,-0.18066 c 3.13429,-3.23621 5.6987,-6.13137 5.6987,-6.43371 0,-0.61301 -10.48262,-11.00582 -17.28611,-17.13802 -8.8736,-7.99806 -19.97587,-16.93445 -31.14295,-25.06749 -5.40776,-3.93851 -17.62255,-12.354566 -18.87721,-13.006517 -0.90039,-0.467868 -0.25703,-0.868843 -9.15832,5.707897 -2.57087,1.8995 -4.67431,3.67724 -4.67431,3.95055 0,0.27331 2.34157,2.20097 5.20348,4.28369 22.08039,16.06876 39.5677,30.66319 55.88864,46.64325 5.48902,5.37435 7.81827,7.43749 8.16469,7.23195 0.26656,-0.15818 3.0491,-2.9354 6.18339,-6.1716 z m 2.16196,-15.55961 c -16.08617,-15.80125 -33.82688,-30.08929 -54.62877,-43.996977 -3.51607,-2.35076 -6.39283,-4.481245 -6.39283,-4.734416 0,-0.464753 11.11892,-7.894817 12.26055,-8.192939 1.74663,-0.456117 25.98169,16.359912 39.06862,27.108622 11.02724,9.05703 26.63473,23.7391 26.63473,25.05548 0,0.8256 -9.46637,10.85963 -10.23056,10.84407 -0.29104,-0.006 -3.31131,-2.74365 -6.71174,-6.08384 z M 255.68164,124.862 c -1.96529,-2.13535 -3.57491,-4.08003 -3.57685,-4.32153 -0.005,-0.59426 10.62027,-11.03695 16.93689,-16.6461 6.87321,-6.103389 16.44432,-13.716097 24.16528,-19.22071 6.82389,-4.865038 17.48156,-11.77006 18.79721,-12.178565 0.61834,-0.192002 1.99121,0.391489 5.90899,2.511425 2.80691,1.518845 5.09863,2.920286 5.09266,3.114314 -0.006,0.194028 -2.26811,1.769463 -5.02705,3.50097 -18.23494,11.444216 -35.82035,25.409186 -51.74911,41.095086 -3.36649,3.31515 -6.313,6.02755 -6.54781,6.02755 -0.23477,0 -2.03489,-1.7471 -4.00021,-3.88244 z m -8.65883,-9.25853 c -1.66451,-1.79476 -3.0293,-3.50132 -3.03283,-3.79236 -0.0138,-1.14054 14.99644,-15.286488 24.52254,-23.1104 11.73625,-9.639138 29.86818,-22.045153 32.21994,-22.045153 1.28594,0 9.23145,3.830639 9.23145,4.450613 0,0.224326 -1.11767,1.071856 -2.4837,1.8834 -3.91308,2.324729 -13.83432,8.974143 -18.85936,12.639952 -11.06667,8.073224 -20.63245,16.238608 -31.11966,26.563838 -3.72791,3.67032 -6.92965,6.67331 -7.115,6.67331 -0.18534,0 -1.69887,-1.46844 -3.36338,-3.2632 z m 10.16939,-3.70417 c 9.86581,-9.64209 18.04818,-16.680093 28.66051,-24.652098 5.92953,-4.454275 16.19367,-11.452564 20.85436,-14.218884 1.41022,-0.837014 2.64706,-1.656202 2.74856,-1.820416 0.25841,-0.418142 -7.39451,-4.199568 -8.4992,-4.199568 -1.2404,0 -2.25492,0.564347 -9.16058,5.095708 -15.04661,9.873281 -28.58442,20.813505 -42.42329,34.283208 -2.76585,2.69208 -5.02804,5.08663 -5.02709,5.32121 0.004,0.62991 5.36731,6.45265 5.94505,6.45265 0.27203,0 3.37778,-2.81781 6.90168,-6.26181 z M 369.01616,96.388139 c -9.12082,-6.338651 -12.13203,-8.670931 -11.76545,-9.112659 1.14751,-1.382659 20.61601,-12.284446 31.8782,-17.850861 6.92675,-3.42358 8.08044,-3.890839 8.7987,-3.563577 0.87866,0.400343 8.98338,6.224343 9.57936,6.883678 0.59595,0.659266 -1.41453,-0.686206 -5.70438,-3.817532 -3.05685,-2.231327 -4.28815,-2.940639 -4.84191,-2.789265 -1.31304,0.358936 -16.79258,8.147041 -22.43843,11.28929 -7.94163,4.419988 -16.93334,9.796674 -16.93334,10.12548 0,0.156238 0.7401,0.796735 1.64465,1.423328 0.90456,0.62659 3.78058,2.682737 6.39117,4.569213 4.20229,3.036676 4.83285,3.384144 5.4991,3.030403 0.41392,-0.219756 2.81634,-1.777531 5.3387,-3.461723 9.30994,-6.21629 23.10927,-14.774111 29.28055,-18.158662 3.90624,-2.142323 2.20208,-0.900631 -2.64583,1.927809 -7.96368,4.646305 -15.87401,9.576176 -23.94656,14.923956 -4.37091,2.895589 -8.12161,5.331671 -8.3349,5.413512 -0.21329,0.08184 -1.02313,-0.292735 -1.79963,-0.83239 z M 347.70955,81.722113 c -3.17363,-1.996867 -5.82927,-3.807703 -5.90138,-4.024076 -0.3925,-1.177433 22.6294,-12.63262 36.70654,-18.264395 l 5.91604,-2.366799 5.01174,3.156505 c 2.75643,1.736078 5.0557,3.37919 5.10946,3.651361 0.0651,0.329712 -1.87741,1.414383 -5.82083,3.250231 -7.67638,3.573709 -20.23721,10.170302 -27.92896,14.667538 -3.34914,1.958163 -6.36676,3.5603 -6.70585,3.5603 -0.33909,0 -3.21314,-1.633798 -6.38676,-3.630665 z M 329.54308,71.175611 c -7.91492,-4.456541 -23.88369,-11.755753 -34.65993,-15.842809 -2.76461,-1.048526 -5.0268,-2.090778 -5.02708,-2.316114 0,-0.535271 7.89319,-4.714198 9.35217,-4.95096 3.49014,-0.566372 43.74039,16.544063 43.74039,18.5941 0,0.507702 -9.82599,6.026862 -10.58333,5.944555 -0.19403,-0.02108 -1.46403,-0.664034 -2.82222,-1.428772 z m 7.61802,-9.787475 C 326.24563,56.01724 312.31845,50.249484 304.23127,47.750691 c -1.1164,-0.344943 -2.02847,-0.834283 -2.02847,-1.088287 0,-0.431945 6.97794,-4.190926 7.25868,-3.910204 0.071,0.07101 -1.45376,0.90792 -3.38839,1.859801 -1.93464,0.95188 -3.51751,1.842995 -3.51751,1.980255 0,0.13726 1.54781,0.760643 3.43958,1.385296 9.68149,3.196778 20.70809,7.836135 32.13421,13.520216 4.06855,2.023951 7.2504,3.3939 7.88272,3.3939 0.93955,0 9.10738,-3.644241 9.10738,-4.063436 0,-0.269465 -10.34955,-5.373211 -15.875,-7.828558 -6.74815,-2.998673 -15.25475,-6.363614 -21.26834,-8.413103 -2.67529,-0.911763 -4.80388,-1.718072 -4.73015,-1.791796 0.35264,-0.352636 13.62551,4.53197 22.82349,8.399371 5.69651,2.395176 19.40278,9.210031 19.40278,9.647216 0,0.632961 -7.98128,4.403083 -9.32124,4.403083 -0.75332,0 -3.86747,-1.335843 -8.98991,-3.856309 z"
         id="path834"
         inkscape:connector-curvature="0" />
      <path
         style="fill:#5387b4;stroke-width:0.35277778"
         d="m 364.00047,155.13759 c -16.32094,-15.98006 -33.80825,-30.57449 -55.88864,-46.64325 -2.86191,-2.08272 -5.20348,-4.01038 -5.20348,-4.28369 0,-0.27331 2.10344,-2.05105 4.67431,-3.95055 8.90129,-6.57674 8.25793,-6.175765 9.15832,-5.707897 1.25466,0.651951 13.46945,9.068007 18.87721,13.006517 11.16708,8.13304 22.26935,17.06943 31.14295,25.06749 6.80349,6.1322 17.28611,16.52501 17.28611,17.13802 0,0.5086 -10.79426,11.95985 -11.88209,12.60531 -0.34642,0.20554 -2.67567,-1.8576 -8.16469,-7.23195 z M 247.0716,115.14805 c -1.49839,-1.65719 -2.72514,-3.205 -2.72613,-3.43959 0,-0.23458 2.26124,-2.62913 5.02709,-5.32121 13.83887,-13.469703 27.37668,-24.409927 42.42329,-34.283208 6.90566,-4.531361 7.92018,-5.095708 9.16058,-5.095708 1.10469,0 8.75761,3.781426 8.4992,4.199568 -0.1015,0.164214 -1.33834,0.983402 -2.74856,1.820416 -4.66069,2.76632 -14.92483,9.764609 -20.85436,14.218884 -10.61233,7.972005 -18.7947,15.010008 -28.66051,24.652098 -3.5239,3.444 -6.62965,6.26181 -6.90168,6.26181 -0.27199,0 -1.72053,-1.35588 -3.21892,-3.01306 z M 365.62473,93.545234 c -2.61059,-1.886476 -5.48661,-3.942623 -6.39117,-4.569213 -0.90455,-0.626593 -1.64465,-1.26709 -1.64465,-1.423328 0,-0.328806 8.99171,-5.705492 16.93334,-10.12548 5.63534,-3.136397 21.12536,-10.930551 22.43236,-11.287367 0.54977,-0.150082 1.97133,0.69497 5.60575,3.332319 2.67804,1.943365 5.00567,3.533391 5.1725,3.533391 0.98728,0 -0.28745,0.933635 -5.07658,3.718177 -7.26719,4.225373 -15.22519,9.183502 -23.82256,14.842389 -3.9346,2.589788 -7.44827,4.866287 -7.80813,5.058886 -0.53834,0.288114 -1.49561,-0.257746 -5.40086,-3.079774 z M 338.12937,61.497768 C 326.70325,55.813687 315.67665,51.17433 305.99516,47.977552 c -1.89177,-0.624653 -3.43771,-1.241704 -3.43539,-1.371225 0.004,-0.129521 1.97838,-1.243443 4.39128,-2.475384 l 4.38711,-2.239892 1.16497,0.596012 c 0.64072,0.327806 3.2287,1.307848 5.75106,2.17787 5.88938,2.031385 14.49581,5.448795 20.99028,8.334741 5.52545,2.455347 15.875,7.559093 15.875,7.828558 0,0.419195 -8.16783,4.063436 -9.10738,4.063436 -0.63232,0 -3.81417,-1.369949 -7.88272,-3.3939 z"
         id="path832"
         inkscape:connector-curvature="0" />
      <path
         style="fill:#565961;stroke-width:0.35277778"
         d="m 336.16436,254.79441 c 0.34326,-0.0894 0.81951,-0.0836 1.05834,0.0131 0.23886,0.0966 -0.042,0.16982 -0.62407,0.16263 -0.58208,-0.007 -0.77748,-0.0863 -0.43427,-0.1757 z m -513.21021,-0.51059 c -4.37395,-0.62393 -8.21754,-1.46008 -11.43364,-2.4873 -3.84517,-1.22815 -8.28403,-3.18109 -8.67755,-3.81781 -0.14946,-0.24183 -0.13058,-0.37118 0.0419,-0.28743 8.76291,4.25353 14.2918,5.77835 22.43682,6.18788 2.29252,0.11527 4.12642,0.24239 4.07533,0.2825 -0.36486,0.28639 -4.71359,0.36885 -6.4429,0.12216 z m 16.58056,0.0495 c -1.66325,-0.22813 -1.60859,-0.2451 0.95801,-0.29736 6.40832,-0.13048 15.95294,-2.09708 21.37421,-4.40399 9.93069,-4.22581 16.66461,-11.82088 18.60722,-20.98675 0.67096,-3.16581 0.64585,-9.0241 -0.0521,-12.16587 -0.72285,-3.25359 -3.09148,-8.26801 -5.25271,-11.12007 -0.92983,-1.22704 -2.81341,-3.19735 -4.18573,-4.37847 -5.11983,-4.4065 -10.14136,-7.16497 -25.25598,-13.87379 -9.13655,-4.05538 -11.94807,-5.66753 -13.93772,-7.99198 -1.54624,-1.80644 -2.08385,-3.41327 -1.8737,-5.60029 0.21184,-2.20468 1.58142,-4.28229 3.71483,-5.63525 2.12951,-1.3505 3.3565,-1.69407 7.78866,-2.18092 6.00764,-0.6599 14.34387,0.3722 23.78123,2.94433 2.17225,0.59205 3.25034,0.73793 3.6343,0.49177 0.57594,-0.36922 6.54721,-14.32358 6.63288,-15.50048 0.0716,-0.98371 -1.93233,-2.01041 -7.53474,-3.86033 -8.72864,-2.88221 -16.43735,-3.97229 -25.75278,-3.64168 -6.47081,0.22966 -10.48658,0.89657 -15.50918,2.57565 -10.79398,3.6085 -17.19787,9.77192 -19.83416,19.08938 -0.98898,3.49533 -1.07529,10.29093 -0.17717,13.94888 1.35674,5.52587 3.8698,9.85697 8.02013,13.82217 4.7567,4.54453 8.178,6.46594 22.01601,12.36428 10.11012,4.30935 11.67436,5.07427 14.5592,7.11946 8.00054,5.67195 6.25399,14.79733 -3.40337,17.78194 -1.34011,0.41416 -4.4018,0.86853 -7.4929,1.11198 -8.34008,0.65687 -16.93824,-0.31028 -25.92426,-2.91603 -4.15307,-1.2043 -4.91703,-1.26421 -5.36781,-0.42089 -0.1815,0.33955 -1.20421,2.91924 -2.27268,5.73264 -2.59069,6.82153 -3.80033,9.54923 -4.1413,9.33849 -0.1552,-0.0959 0.085,-0.84726 0.53391,-1.66964 0.44885,-0.82238 1.88932,-4.32026 3.20104,-7.77308 1.52646,-4.01806 2.62103,-6.40418 3.0408,-6.62884 0.48192,-0.25791 1.42681,-0.10723 3.56283,0.56815 7.71652,2.43987 14.33475,3.4382 22.66252,3.41852 11.82122,-0.0279 17.04753,-1.89749 19.44253,-6.95499 2.05838,-4.34665 0.0208,-8.81337 -5.61355,-12.30604 -1.39705,-0.86601 -7.03493,-3.49457 -12.52862,-5.84126 -11.54634,-4.93213 -13.33605,-5.79593 -17.17536,-8.28954 -5.44378,-3.53571 -9.237,-7.76917 -11.60708,-12.95422 -1.642,-3.59224 -2.34091,-6.55078 -2.57396,-10.89594 -0.85273,-15.89822 10.32517,-27.26086 29.63883,-30.12866 4.23794,-0.62927 13.32127,-0.71911 18.0561,-0.17859 8.9216,1.01848 22.33665,5.19993 22.68052,7.06947 0.15697,0.85343 -6.33903,16.20712 -7.00873,16.56553 -0.39388,0.2108 -1.79476,-0.0313 -4.24914,-0.73418 -8.32244,-2.38352 -17.02753,-3.43785 -23.37548,-2.83115 -5.73569,0.54818 -8.98446,2.24959 -10.4853,5.49125 -1.35167,2.91947 -0.52416,5.67513 2.52834,8.41959 2.2191,1.99517 3.78237,2.81125 14.61812,7.6312 14.5193,6.45847 19.07986,9.09115 24.12156,13.92467 6.41081,6.14609 9.28226,12.62148 9.31268,21.00093 0.0177,4.8756 -0.6053,7.66686 -2.71648,12.17083 -4.1378,8.82753 -12.14182,14.66154 -24.37854,17.76916 -2.35142,0.59716 -12.74197,2.28532 -12.97074,2.10736 -0.0392,-0.0305 -0.865,-0.16429 -1.83514,-0.29735 z m 490.00837,-0.40001 c -10.87741,-2.26577 -19.7714,-7.38017 -28.22223,-16.22889 -2.69846,-2.82552 -9.06956,-10.02864 -15.27647,-17.27147 -1.59551,-1.8618 -3.30317,-3.56836 -3.7948,-3.79236 -0.55944,-0.25489 -3.05608,-0.40727 -6.6729,-0.40727 -4.78331,0 -5.87456,0.0955 -6.33342,0.55436 -0.48884,0.48886 -0.55435,2.59317 -0.55435,17.80715 v 17.25278 l -0.79375,0.49927 c -0.64178,0.40368 -2.95529,0.49894 -12.08264,0.49755 -6.20889,-10e-4 -11.56671,-0.14818 -11.90625,-0.32717 -0.58371,-0.30769 -0.61737,-3.16689 -0.61737,-52.45357 0,-40.07374 0.0979,-52.22604 0.42334,-52.55148 0.52401,-0.52401 38.47656,-0.58559 46.6725,-0.0757 14.71313,0.91528 26.09353,7.39176 31.31394,17.82045 2.39268,4.77975 3.67449,11.74552 3.33734,18.1361 -0.54631,10.35543 -4.82723,18.15894 -13.46701,24.54836 -1.46487,1.08334 -2.66343,2.22332 -2.66343,2.53329 0,1.26862 13.37401,15.14956 17.01546,17.66041 3.53571,2.43796 7.55054,4.38917 11.80737,5.73842 1.97954,0.62744 3.87117,1.44135 4.20359,1.80867 0.72009,0.79567 0.69864,0.90315 -1.92705,9.6553 -0.98958,3.29848 -1.9728,6.68794 -2.18496,7.53214 -0.2122,0.84421 -0.46281,1.4579 -0.55693,1.36377 -0.24085,-0.24083 1.00213,-4.97047 3.05734,-11.63363 0.96397,-3.12523 1.6666,-5.95349 1.56136,-6.28501 -0.20651,-0.65072 -0.42188,-0.74698 -5.45951,-2.44005 -5.7572,-1.9349 -10.71545,-4.85113 -14.93242,-8.78256 -3.76216,-3.50742 -13.33288,-14.19553 -13.22289,-14.76667 0.062,-0.3218 0.82635,-1.11101 1.69859,-1.7538 6.23126,-4.59202 9.00614,-7.64511 11.45713,-12.60577 2.40605,-4.86967 3.15511,-8.42212 3.1278,-14.83397 -0.0328,-7.72607 -1.22756,-12.47286 -4.50596,-17.9034 -4.52459,-7.49476 -13.90167,-13.16496 -24.64513,-14.90258 -2.48528,-0.40197 -8.65921,-0.57513 -27.04804,-0.75864 -21.0512,-0.21008 -23.87921,-0.17549 -24.26984,0.29681 -0.35084,0.42418 -0.42369,11.23896 -0.35278,52.35537 l 0.0894,51.82077 11.97067,0.093 c 9.34209,0.0726 12.03283,-0.005 12.25363,-0.35278 0.15561,-0.24516 0.2854,-8.1602 0.28836,-17.58898 0.005,-15.97933 0.048,-17.18179 0.63278,-17.71103 0.51968,-0.47027 1.66892,-0.57766 6.69202,-0.62531 5.38342,-0.0511 6.17872,0.0165 7.08064,0.60131 0.55883,0.36235 3.13108,3.11945 5.71606,6.12688 13.75219,15.99957 18.89276,21.00083 25.80957,25.11002 5.18993,3.08328 12.51539,5.61333 17.82897,6.15772 1.65555,0.16962 2.15963,0.32438 1.67435,0.51406 -0.82973,0.32434 -0.36258,0.37211 -4.22204,-0.43181 z m -439.94044,-1.48216 c -0.23088,-0.60166 -0.31168,-0.38671 20.57645,-54.73866 9.693748,-25.22361 17.910487,-46.62295 18.259423,-47.5541 1.211915,-3.23402 0.26635,-3.06951 17.643582,-3.06951 14.015026,0 15.319609,0.0503 16.000326,0.61736 0.541954,0.45144 5.017985,13.32234 16.654245,47.88958 8.752202,25.99972 16.5325258,49.09041 17.289601,51.31264 1.5332006,4.50036 1.6683815,5.53098 0.7591461,5.7878 -0.3395486,0.0959 -5.9879975,0.14628 -12.5521061,0.11196 -11.302193,-0.0591 -11.960868,-0.0981 -12.427561,-0.73644 -0.271046,-0.37072 -1.619839,-4.18072 -2.99732,-8.46667 -1.377478,-4.28594 -3.399085,-10.57075 -4.492456,-13.96624 -1.272099,-3.95052 -2.272796,-6.45943 -2.778983,-6.96736 l -0.791033,-0.79375 h -16.929698 -16.929698 l -0.875386,0.79375 c -0.639583,0.57994 -2.16801,4.30979 -5.674064,13.84653 -5.786822,15.74061 -5.693492,15.51992 -6.770956,16.01084 -1.353806,0.61684 -23.724832,0.54427 -23.963512,-0.0777 z m 24.799108,-1.29283 c 0.251753,-0.48507 2.614846,-6.75386 5.251317,-13.93065 5.227063,-14.22868 5.470021,-14.80478 6.469052,-15.33945 0.438655,-0.23476 6.710811,-0.36323 17.733132,-0.36323 18.587672,0 18.105558,-0.0514 18.907211,2.01442 0.210058,0.5413 2.31292,7.01669 4.673029,14.38974 2.360104,7.37306 4.452055,13.60399 4.648778,13.84653 0.535754,0.66052 24.9657295,0.6398 24.9657295,-0.0212 0,-0.25418 -2.8666972,-8.94574 -6.3704405,-19.31458 -3.50374,-10.36885 -11.062075,-32.82244 -16.796298,-49.89689 -5.734223,-17.07444 -10.735022,-31.87244 -11.112889,-32.88445 -0.593058,-1.58832 -0.841005,-1.8681 -1.812731,-2.04545 -2.205024,-0.40243 -30.520254,-0.0229 -30.957784,0.41501 -0.387974,0.38827 -16.932064,43.19032 -40.102884,103.75221 -0.13573,0.35477 2.29875,0.42671 11.938269,0.35277 l 12.108773,-0.0929 z m 18.518098,-47.6907 c -0.235504,-0.23551 -0.428188,-0.63379 -0.428188,-0.88509 0,-0.89239 11.704384,-38.74397 12.110495,-39.16492 0.227214,-0.23552 0.589915,-0.3149 0.806002,-0.17639 0.529008,0.33907 10.433358,38.37465 10.297528,39.54549 l -0.107079,0.923 -11.125285,0.0931 c -8.357952,0.0699 -11.231796,-0.0135 -11.553473,-0.33514 z m 22.386224,-0.49325 c 0.155261,-0.4046 -7.800979,-32.08065 -9.628756,-38.3348 -0.156436,-0.53528 -1.191211,-0.91984 -1.191211,-0.44269 0,0.0961 -2.62764,8.76141 -5.839199,19.25631 -4.612249,15.07215 -5.752134,19.18654 -5.424858,19.58088 0.340642,0.41045 2.3224,0.49925 11.141936,0.49925 9.464228,0 10.752858,-0.0658 10.942088,-0.55895 z m 56.778286,49.52647 c -0.521426,-0.2918 -0.570469,-4.80024 -0.570469,-52.44227 0,-40.06976 0.09789,-52.22092 0.423333,-52.54636 0.632975,-0.63297 28.089097,-0.58252 28.925466,0.0532 0.328573,0.24973 9.442383,15.92124 20.25291,34.82558 10.81053,18.90435 19.889475,34.64561 20.175437,34.98058 1.031564,1.20836 1.231702,0.29006 0.970132,-4.45129 -0.434076,-7.86821 -0.258618,-64.79651 0.201418,-65.35082 0.546626,-0.65865 23.574947,-0.71302 24.230757,-0.0572 0.32544,0.32544 0.42333,12.47774 0.42333,52.55148 0,49.49125 -0.0316,52.14503 -0.62384,52.46201 -0.36792,0.1969 -6.44317,0.31054 -14.808769,0.277 l -14.184913,-0.0569 -0.847366,-0.88195 c -0.466051,-0.48507 -9.145126,-15.40757 -19.286835,-33.16111 -10.141709,-17.75354 -18.82125,-32.88486 -19.287865,-33.62515 -1.049592,-1.66519 -1.718508,-1.53253 -1.616485,0.32059 0.04173,0.758 0.17617,15.9038 0.298754,33.65734 0.196991,28.52996 0.160753,32.36112 -0.311979,32.98472 -0.514791,0.67909 -0.971148,0.70695 -12.163702,0.74269 -6.395865,0.0204 -11.885556,-0.10652 -12.199314,-0.28211 z m 23.947588,-0.77949 c 0.420151,-0.5439 0.430061,-55.98861 0.01132,-63.44052 -0.246662,-4.38977 -0.215759,-4.86723 0.328546,-5.0761 0.369079,-0.14163 0.845781,0.0265 1.235921,0.43582 0.34931,0.36651 9.242476,15.74763 19.762592,34.18027 10.520116,18.43264 19.381937,33.71406 19.692935,33.95871 0.438563,0.34501 3.81465,0.42417 15.044841,0.35278 l 14.479411,-0.0921 0.0894,-51.82077 c 0.061,-35.35014 -0.0268,-51.96071 -0.27603,-52.26105 -0.2775,-0.33436 -3.05732,-0.44372 -11.554652,-0.45454 -6.154085,-0.008 -11.467057,0.065 -11.806605,0.16191 -0.581921,0.16606 -0.616409,1.90128 -0.600781,30.2267 0.0091,16.52779 0.146117,32.10093 0.304444,34.60698 0.158326,2.50605 0.211723,4.84761 0.118664,5.20347 -0.280734,1.07353 -1.426683,0.74238 -2.338896,-0.67589 -0.467985,-0.72761 -9.460778,-16.40417 -19.983981,-34.83681 -10.523203,-18.43263 -19.442848,-33.78832 -19.821435,-34.12374 -0.627073,-0.55557 -1.906753,-0.61002 -14.378274,-0.6118 -11.01747,-0.001 -13.766568,0.0904 -14.082477,0.47103 -0.285172,0.34361 -0.368092,14.64706 -0.303167,52.29374 l 0.08937,51.82077 10.936112,0.18942 c 11.829081,0.20489 12.522702,0.17788 13.052779,-0.50833 z m 85.586226,0.87879 c -0.27036,-0.1712 -0.41046,-0.60533 -0.31133,-0.96474 0.82023,-2.97392 39.6572,-103.13876 40.2281,-103.75277 l 0.73805,-0.79375 h 15.42164 c 14.17084,0 15.48155,0.0501 16.16001,0.61736 0.53549,0.44773 4.12479,10.69838 13.06301,37.30625 6.77859,20.17888 14.56017,43.32343 17.29243,51.43232 2.73223,8.10889 4.96771,15.03722 4.96771,15.39628 0,0.35907 -0.19843,0.72571 -0.44097,0.81476 -0.24253,0.0891 -5.67972,0.18622 -12.08264,0.21594 -8.73644,0.0405 -11.8564,-0.0565 -12.50209,-0.38875 -0.74419,-0.38294 -1.39982,-2.11128 -4.85179,-12.79 -2.19523,-6.79097 -4.2478,-13.20672 -4.56128,-14.25721 -0.31347,-1.05048 -0.94078,-2.2808 -1.394,-2.73402 l -0.82405,-0.82405 h -16.9297 -16.9297 l -0.88428,0.79375 c -0.65472,0.58769 -2.12725,4.18236 -5.6722,13.84653 -5.75778,15.69679 -5.68225,15.518 -6.76392,16.01084 -1.04967,0.47826 -22.97624,0.54412 -23.723,0.0713 z m 24.22277,-0.82446 c 0.19684,-0.24254 2.68768,-6.79097 5.53521,-14.55208 3.81906,-10.40909 5.40758,-14.31935 6.055,-14.90486 l 0.87764,-0.79375 h 17.22737 c 15.8821,0 17.28675,0.0482 17.98786,0.61736 0.56275,0.45684 1.90525,4.1945 5.1634,14.37569 2.42161,7.56708 4.60333,14.15521 4.84826,14.64028 l 0.44531,0.88194 12.42201,0.0927 c 9.29249,0.0693 12.42201,-0.0112 12.42201,-0.31947 0,-0.2267 -4.98175,-15.19091 -11.07055,-33.25382 -6.0888,-18.0629 -13.87856,-41.18448 -17.3106,-51.38128 -3.43203,-10.19681 -6.38192,-18.76931 -6.55528,-19.05 -0.26546,-0.4298 -2.69787,-0.52642 -15.40951,-0.61213 -8.30188,-0.056 -15.45555,-0.0122 -15.89701,0.0972 -0.50239,0.12451 -1.06172,0.75652 -1.49501,1.68927 -0.63009,1.35634 -39.50649,102.50923 -39.50649,102.79226 0,0.0669 5.37806,0.12169 11.95125,0.12169 9.13495,0 12.03559,-0.10391 12.30913,-0.44097 z m 18.43865,-48.8549 c 0.007,-0.53623 2.68217,-9.70621 5.94462,-20.37774 5.02903,-16.44993 6.03049,-19.40277 6.58047,-19.40277 0.56011,0 1.33728,2.62536 5.69144,19.22638 2.7735,10.57452 5.00556,19.70264 4.96012,20.28472 l -0.0826,1.05834 -11.55347,0.093 -11.55347,0.093 0.013,-0.97496 z m 22.79477,0.0711 c 0.19096,-0.49763 -8.98056,-36.65294 -9.78718,-38.5824 -0.22356,-0.53471 -0.47784,-0.72384 -0.68912,-0.51255 -0.5315,0.53146 -12.04207,38.60932 -11.83467,39.14983 0.15314,0.39907 2.15653,0.48653 11.14495,0.48653 9.52532,0 10.98543,-0.0708 11.16602,-0.54141 z m 82.3201,-4.14844 -0.88194,-0.44612 -0.092,-15.30352 c -0.0834,-13.86503 -0.0368,-15.36456 0.49562,-15.95285 0.53294,-0.58888 1.23701,-0.64933 7.56299,-0.64933 12.86136,0 17.97942,1.45413 20.80613,5.91136 1.89568,2.98919 2.81255,8.0562 2.21202,12.22468 -0.99127,6.88077 -5.43687,11.54715 -12.8034,13.43929 -4.29976,1.10442 -15.64446,1.61363 -17.29945,0.77649 z m 14.2875,-0.61485 c 11.00847,-1.56843 16.74548,-8.69492 15.34845,-19.06583 -0.89119,-6.61578 -3.49659,-9.63889 -9.73441,-11.29498 -2.31302,-0.61409 -4.19979,-0.77356 -11.00176,-0.92985 -7.54998,-0.17347 -8.26605,-0.13788 -8.90764,0.44276 -0.67406,0.61 -0.69769,1.13531 -0.69769,15.49922 0,11.09349 0.10745,14.97529 0.42333,15.29116 0.53019,0.53018 10.9631,0.57137 14.56972,0.0575 z"
         id="path830"
         inkscape:connector-curvature="0" />
      <path
         style="fill:#393d46;stroke-width:0.35277778"
         d="m -172.10696,254.36259 c 1.43314,-0.1728 0.96665,-0.25771 -2.48783,-0.45284 -7.11053,-0.40165 -13.86861,-2.05435 -19.53741,-4.77793 -1.46806,-0.70533 -2.85644,-1.294 -3.08528,-1.30815 -0.22884,-0.0142 -0.52572,-0.13537 -0.65973,-0.26938 -0.33825,-0.33826 0.14511,-2.11218 0.51349,-1.8845 0.35718,0.22075 1.53555,-2.42278 4.15807,-9.32813 1.06847,-2.8134 2.09118,-5.39309 2.27268,-5.73264 0.45078,-0.84332 1.21474,-0.78341 5.36781,0.42089 8.98602,2.60575 17.58418,3.5729 25.92426,2.91603 3.0911,-0.24345 6.15279,-0.69782 7.4929,-1.11198 9.65736,-2.98461 11.40391,-12.10999 3.40337,-17.78194 -2.88484,-2.04519 -4.44908,-2.81011 -14.5592,-7.11946 -13.83801,-5.89834 -17.25931,-7.81975 -22.01601,-12.36428 -4.15033,-3.9652 -6.66339,-8.2963 -8.02013,-13.82217 -0.89812,-3.65795 -0.81181,-10.45355 0.17717,-13.94888 2.63629,-9.31746 9.04018,-15.48088 19.83416,-19.08938 5.0226,-1.67908 9.03837,-2.34599 15.50918,-2.57565 9.31543,-0.33061 17.02414,0.75947 25.75278,3.64168 5.60241,1.84992 7.60635,2.87662 7.53474,3.86033 -0.0857,1.1769 -6.05694,15.13126 -6.63288,15.50048 -0.38396,0.24616 -1.46205,0.10028 -3.6343,-0.49177 -9.43736,-2.57213 -17.77359,-3.60423 -23.78123,-2.94433 -4.43216,0.48685 -5.65915,0.83042 -7.78866,2.18092 -2.13341,1.35296 -3.50299,3.43057 -3.71483,5.63525 -0.21015,2.18702 0.32746,3.79385 1.8737,5.60029 1.98965,2.32445 4.80117,3.9366 13.93772,7.99198 15.11462,6.70882 20.13615,9.46729 25.25598,13.87379 1.37232,1.18112 3.2559,3.15143 4.18573,4.37847 2.16123,2.85206 4.52986,7.86648 5.25271,11.12007 0.698,3.14177 0.72311,9.00006 0.0521,12.16587 -1.94261,9.16587 -8.67653,16.76094 -18.60722,20.98675 -5.42127,2.30691 -14.96589,4.27351 -21.37421,4.40399 -2.5666,0.0523 -2.62126,0.0692 -0.95801,0.29736 0.98122,0.13458 -1.60156,0.24193 -5.82084,0.24193 -4.1716,0 -6.79097,-0.0957 -5.82083,-0.21267 z m 505.87208,0.002 c 0.48528,-0.18969 -0.0187,-0.34445 -1.67435,-0.51406 -5.31358,-0.5444 -12.63904,-3.07444 -17.82897,-6.15773 -6.91681,-4.10918 -12.05738,-9.11044 -25.80957,-25.11002 -2.58498,-3.00743 -5.15723,-5.76452 -5.71606,-6.12688 -0.90192,-0.58483 -1.69722,-0.65236 -7.08064,-0.6013 -5.0231,0.0476 -6.17234,0.15503 -6.69202,0.62531 -0.5848,0.52923 -0.62773,1.7317 -0.63278,17.71102 -0.004,9.42878 -0.13275,17.34383 -0.28836,17.58898 -0.2208,0.34787 -2.91154,0.42533 -12.25363,0.35278 l -11.97067,-0.0929 -0.0894,-51.82077 c -0.0709,-41.11641 0.004,-51.93119 0.35278,-52.35537 0.39063,-0.4723 3.21864,-0.50689 24.26984,-0.29681 25.63083,0.25578 27.39468,0.37297 33.20645,2.20632 10.12225,3.1931 17.44659,9.57247 20.84007,18.15134 1.56672,3.96079 2.12792,7.40391 2.15261,13.20696 0.0272,6.41185 -0.72175,9.9643 -3.1278,14.83397 -2.45099,4.96066 -5.22587,8.01375 -11.45713,12.60577 -0.87224,0.64279 -1.6366,1.432 -1.69859,1.7538 -0.10999,0.57114 9.46073,11.25925 13.22289,14.76667 4.21697,3.93143 9.17522,6.84766 14.93242,8.78256 5.03763,1.69307 5.253,1.78933 5.45951,2.44005 0.10524,0.33152 -0.59739,3.15978 -1.56136,6.28501 -2.21674,7.18687 -3.27374,11.31689 -3.00679,11.7488 0.12495,0.20215 -0.68407,0.32759 -2.01708,0.31274 -1.42766,-0.0159 -1.97675,-0.1221 -1.53141,-0.29618 z m -53.42121,-55.39714 c 4.82448,-0.37381 7.81039,-1.08531 10.89688,-2.59658 6.0954,-2.98456 9.33658,-9.7241 8.22223,-17.09693 -0.5594,-3.70118 -0.95116,-4.93726 -2.17773,-6.87139 -2.82671,-4.45723 -7.94477,-5.91136 -20.80613,-5.91136 -6.32598,0 -7.03005,0.0605 -7.56299,0.64933 -0.53238,0.58829 -0.57898,2.08782 -0.49562,15.95285 l 0.092,15.30352 0.88194,0.44612 c 1.03703,0.52455 5.17804,0.57161 10.94945,0.12444 z M 22.979165,252.22969 12.043053,252.04027 11.953684,200.2195 c -0.06493,-37.64668 0.01799,-51.95013 0.303167,-52.29374 0.315909,-0.38065 3.065007,-0.4726 14.082477,-0.47103 12.471521,0.002 13.751201,0.0562 14.378274,0.6118 0.378587,0.33542 9.298232,15.69111 19.821435,34.12374 10.523203,18.43264 19.515996,34.1092 19.983981,34.83681 0.912213,1.41827 2.058162,1.74942 2.338896,0.67589 0.09306,-0.35586 0.03966,-2.69742 -0.118664,-5.20347 -0.158327,-2.50605 -0.295325,-18.07919 -0.304444,-34.60698 -0.01563,-28.32542 0.01887,-30.06064 0.600781,-30.2267 0.339548,-0.0969 5.65252,-0.16975 11.806605,-0.16191 8.497328,0.0108 11.277148,0.12018 11.554648,0.45454 0.24927,0.30034 0.337,16.91091 0.27603,52.26105 l -0.0894,51.82077 -14.479392,0.0921 c -11.230192,0.0714 -14.606279,-0.008 -15.044841,-0.35278 -0.310999,-0.24465 -9.17282,-15.52607 -19.692936,-33.95871 C 46.850225,199.38819 37.95706,184.00707 37.60775,183.64056 c -0.390141,-0.40935 -0.866843,-0.57745 -1.235922,-0.43582 -0.544305,0.20887 -0.575208,0.68633 -0.328546,5.0761 0.418723,7.45191 0.408813,62.89662 -0.01132,63.44052 -0.530077,0.68621 -1.223698,0.71322 -13.052779,0.50833 z m -133.082195,-0.44932 c 23.17082,-60.56189 39.71491,-103.36394 40.102884,-103.75221 0.43753,-0.43785 28.75276,-0.81744 30.957784,-0.41501 0.971726,0.17735 1.219673,0.45713 1.812731,2.04545 0.377867,1.01201 5.378666,15.81001 11.112889,32.88445 5.734223,17.07445 13.292558,39.52804 16.796298,49.89688 3.5037433,10.36884 6.3704405,19.0604 6.3704405,19.31458 0,0.66098 -24.4299755,0.6817 -24.9657295,0.0212 -0.196723,-0.24254 -2.288674,-6.47347 -4.648778,-13.84653 -2.360109,-7.37304 -4.462971,-13.84843 -4.673029,-14.38973 -0.801653,-2.06579 -0.319539,-2.01442 -18.907211,-2.01442 -11.022321,0 -17.294477,0.12847 -17.733132,0.36323 -0.999031,0.53467 -1.241989,1.11077 -6.469052,15.33945 -2.636471,7.17679 -4.999564,13.44558 -5.251317,13.93065 l -0.457736,0.88194 -12.108773,0.0929 c -9.639519,0.0739 -12.073999,0.002 -11.938269,-0.35277 z m 65.808713,-48.99365 c 0.13583,-1.17084 -9.76852,-39.20642 -10.297528,-39.54549 -0.216087,-0.13851 -0.578788,-0.0591 -0.806002,0.17639 -0.406111,0.42095 -12.110495,38.27253 -12.110495,39.16492 0,1.24891 0.649009,1.31501 11.981661,1.22023 l 11.125285,-0.0931 z m 165.874877,49.30825 c 0,-0.28303 38.8764,-101.43592 39.50649,-102.79226 0.43329,-0.93275 0.99262,-1.56476 1.49501,-1.68927 0.44146,-0.10941 7.59513,-0.15313 15.89701,-0.0972 12.71164,0.0857 15.14405,0.18233 15.40951,0.61213 0.17336,0.28069 3.12325,8.85319 6.55528,19.05 3.43204,10.1968 11.2218,33.31838 17.3106,51.38128 6.0888,18.06291 11.07055,33.02712 11.07055,33.25382 0,0.30833 -3.12952,0.38882 -12.42201,0.31947 l -12.42201,-0.0927 -0.44531,-0.88194 c -0.24493,-0.48507 -2.42665,-7.0732 -4.84826,-14.64028 -3.25815,-10.18119 -4.60065,-13.91885 -5.1634,-14.37569 -0.70111,-0.56916 -2.10576,-0.61736 -17.98786,-0.61736 h -17.22737 l -0.87764,0.79375 c -0.64742,0.58551 -2.23594,4.49577 -6.055,14.90486 -2.84753,7.76111 -5.33837,14.30954 -5.53521,14.55208 -0.27354,0.33706 -3.17418,0.44097 -12.30913,0.44097 -6.57319,0 -11.95125,-0.0548 -11.95125,-0.12169 z m 65.87568,-49.44359 c 0.0454,-0.58208 -2.18662,-9.7102 -4.96012,-20.28472 -4.35416,-16.60102 -5.13133,-19.22638 -5.69144,-19.22638 -0.54998,0 -1.55144,2.95284 -6.58047,19.40277 -3.26245,10.67153 -5.93753,19.84151 -5.94462,20.37774 l -0.0131,0.97496 11.55347,-0.093 11.55347,-0.093 0.0826,-1.05834 z"
         id="path828"
         inkscape:connector-curvature="0" />
    </g>
  </g>
</svg>
