<?xml version="1.0" encoding="UTF-8"?>
<svg version="1.1" id="Layer_1" xmlns="http://www.w3.org/2000/svg" xmlns:xlink="http://www.w3.org/1999/xlink" x="0px" y="0px" viewBox="-597 387 84 28" style="enable-background:new -597 387 84 28;" xml:space="preserve">
<defs>
	<style type="text/css">
		.st0{fill:#424242;}
		.st1{fill:url(#aircall_gradient);}
		.st2{fill:url(#aircall_gradient);}
	</style>
	<linearGradient id="aircall_gradient" gradientUnits="userSpaceOnUse" x1="-549" y1="391" x2="-549" y2="395">
		<stop offset="0" style="stop-color:#2AC420"/>
		<stop offset="1" style="stop-color:#2CAD00"/>
	</linearGradient>
</defs>
<path class="st0" d="M-515,393c0-0.6,0.4-1,1-1s1,0.4,1,1v13c0,0.6-0.4,1-1,1s-1-0.4-1-1V393z"/>
<path class="st0" d="M-519,393c0-0.6,0.4-1,1-1s1,0.4,1,1v13c0,0.6-0.4,1-1,1s-1-0.4-1-1V393z"/>
<path class="st0" d="M-522,397c-0.6,0-1,0.4-1,1c-0.8-0.6-1.9-1-3-1c-2.8,0-5,2.2-5,5s2.2,5,5,5c1.1,0,2.2-0.4,3-1c0,0.5,0.4,1,1,1  s1-0.4,1-1v-8C-521,397.5-521.4,397-522,397z M-526,405c-1.7,0-3-1.3-3-3s1.3-3,3-3s3,1.3,3,3S-524.3,405-526,405z"/>
<path class="st0" d="M-531.8,398.2c-0.9-0.7-2-1.2-3.2-1.2c-2.8,0-5,2.2-5,5s2.2,5,5,5c1.2,0,2.4-0.4,3.3-1.2c0.4-0.4,0.5-1,0.1-1.4  s-1-0.5-1.4-0.1c-0.5,0.5-1.2,0.7-2,0.7c-1.7,0-3-1.3-3-3s1.3-3,3-3c0.7,0,1.4,0.2,1.9,0.7c0.4,0.4,1.1,0.3,1.4-0.1  C-531.3,399.1-531.4,398.5-531.8,398.2z"/>
<path class="st0" d="M-544,398c0.8-0.6,1.9-1,3-1c0.6,0,1,0.4,1,1s-0.4,1-1,1c-1.7,0-3,1.3-3,3v4c0,0.5-0.4,1-1,1s-1-0.5-1-1v-8  c0-0.5,0.4-1,1-1S-544,397.5-544,398L-544,398z"/>
<circle class="st1" cx="-549" cy="393" r="2"/>
<path class="st0" d="M-550,398c0-0.5,0.4-1,1-1s1,0.5,1,1v8c0,0.5-0.4,1-1,1s-1-0.5-1-1V398z"/>
<path class="st0" d="M-553,397c-0.6,0-1,0.4-1,1c-0.8-0.6-1.9-1-3-1c-2.8,0-5,2.2-5,5s2.2,5,5,5c1.1,0,2.2-0.4,3-1c0,0.5,0.4,1,1,1  s1-0.4,1-1v-8C-552,397.5-552.4,397-553,397z M-557,405c-1.7,0-3-1.3-3-3s1.3-3,3-3s3,1.3,3,3S-555.3,405-557,405z"/>
<path class="st2" d="M-583,389c-6.6,0-12,5.4-12,12s5.4,12,12,12s12-5.4,12-12S-576.4,389-583,389z M-583,415c-7.7,0-14-6.3-14-14  s6.3-14,14-14s14,6.3,14,14S-575.3,415-583,415z M-576,405.1c0,0.3-0.2,0.5-0.4,0.7c-0.3,0.4-0.6,0.7-0.9,1  c-0.3,0.3-0.6,0.5-0.9,0.7c-0.8,0.4-1.7,0.6-2.6,0.5c-1.3-0.1-2.5-0.7-3.6-1.4c-0.8-0.5-1.6-1.2-2.3-1.9c-1.2-1.1-2.2-2.5-2.8-4  c-0.5-1.3-0.8-2.9-0.2-4.2c0.4-0.9,1.2-1.5,1.9-2.1c0.2-0.1,0.3-0.3,0.5-0.4s0.3,0,0.5,0c0.4,0.2,0.7,0.5,0.9,0.8s0.4,0.7,0.6,1.1  s0.4,0.8,0.4,1.2c0,0.3-0.1,0.6-0.3,0.8c-0.2,0.2-0.5,0.5-0.7,0.7c-0.5,0.6-0.7,1.4-0.7,2.2c0,1,0.4,2,1.1,2.7  c1.1,1.1,3,1.4,4.4,0.7c0.3-0.2,0.6-0.4,0.9-0.7c0.2-0.2,0.4-0.4,0.6-0.6c0.6-0.4,1.5,0,2.1,0.3c0,0,0,0,0.1,0  c0.7,0.3,1.2,0.9,1.4,1.6C-576,404.9-576,405-576,405.1S-576,405.1-576,405.1"/>
</svg>