<svg xmlns="http://www.w3.org/2000/svg" width="101" height="39" viewBox="0 0 101 39">
  <title>Drivy</title>
  <path fill="#262959" d="M18,10 L18,2 L24,2 L24,31 L18,31 L18,30 C16.7,30.8 14.9,31.2 12.9,31.2 C6.3,31.2 0.9,26.4 0.9,20.1 C0.9,13.7 6.3,8.6 12.9,8.6 C14.8,8.6 16.6,9.2 18,10 Z M13.1563639,26.4 C15.0736366,26.4 16.7890912,25.5 18.0000004,24.2 L18.0000004,16.2 C17.4954549,15.6 16.9909094,15.1 16.2845458,14.7 C15.3763639,14.1 14.2663639,13.8 13.1563639,13.8 C9.72545464,13.8 6.9,16.6 6.9,20.1 C6.9,23.6 9.72545464,26.4 13.1563639,26.4 Z M27,9 L33,9 L33,31 L27,31 L27,9 Z M38,15.2 C36.2326888,15.2 34.8,13.7673112 34.8,12 C34.8,10.2326888 36.2326888,8.8 38,8.8 C39.7673112,8.8 41.2,10.2326888 41.2,12 C41.2,13.7673112 39.7673112,15.2 38,15.2 Z M44,9 L50,9 L50,31 L44,31 L44,9 Z M47,7.2 C45.2326888,7.2 43.8,5.7673112 43.8,4 C43.8,2.2326888 45.2326888,0.8 47,0.8 C48.7673112,0.8 50.2,2.2326888 50.2,4 C50.2,5.7673112 48.7673112,7.2 47,7.2 Z M64.5,21.2 L69.5,9 L76,9 L66.6,31 L62.3,31 L53,9 L59.5,9 L64.5,21.2 Z M94.5,9 L101,9 L91.8,31.1 L88.5,39 L82,39 L86,29.9 C86.3,29.2 86.3,28.3 86,27.6 L78,9 L84.5,9 L89.6,21.2 L94.5,9 Z"/>
</svg>
