
<svg xmlns="http://www.w3.org/2000/svg" width="91" height="24" viewBox="0 0 91 24">
    <g fill="none" fill-rule="nonzero">
        <path fill="#160D35" d="M17.374 10.755h-4.06l-4.574 4.55v8.683h8.62c3.67 0 6.645-2.963 6.645-6.617 0-3.649-2.968-6.608-6.63-6.616"/>
        <path fill="#F05865" d="M0 10.754l13.313.001L0 24z"/>
        <path fill="#FFD257" d="M17.35 0h-.012l-6.771.004L0 10.754h17.35c2.977-.007 5.389-2.41 5.389-5.377 0-2.966-2.412-5.37-5.389-5.377"/>
        <path fill="#160D35" d="M80.39 18.58c-2.029 0-3.672-1.678-3.672-3.748 0-2.07 1.643-3.748 3.671-3.748 2.028 0 3.671 1.678 3.671 3.748 0 2.07-1.643 3.747-3.67 3.747zM84.054 3.6V10.682c0 .01-.012.016-.02.01a5.374 5.374 0 0 0-3.647-1.428c-3.012 0-5.455 2.493-5.455 5.568 0 3.075 2.442 5.568 5.455 5.568 1.403 0 2.682-.54 3.648-1.428.007-.007.02-.002.02.008v1.42h1.787V3.601h-1.788zM64.57 13.464c.555-1.462 1.956-2.445 3.488-2.445s2.934.983 3.488 2.445l.123.324a.013.013 0 0 1-.011.017H64.46a.013.013 0 0 1-.012-.018l.122-.323zm-.18 2.094h9.083c.032-.243.047-.486.047-.725 0-3.159-2.593-5.71-5.722-5.56-2.795.132-5.064 2.445-5.195 5.294-.146 3.19 2.358 5.833 5.456 5.833a5.387 5.387 0 0 0 4.148-1.952l-1.353-1.087a3.682 3.682 0 0 1-2.795 1.285c-1.66 0-3.139-1.138-3.595-2.769l-.085-.303c-.003-.007.004-.016.011-.016zM88.943 20.4h1.745V9.264h-1.745zM89.816 3.6c.632 0 1.144.522 1.144 1.166 0 .644-.512 1.166-1.144 1.166a1.155 1.155 0 0 1-1.144-1.166c0-.644.512-1.166 1.144-1.166M52.408 17.34a3.633 3.633 0 0 1-2.743 1.25c-2.033 0-3.687-1.686-3.687-3.758 0-2.073 1.654-3.76 3.687-3.76.763 0 1.511.245 2.132.693l1.122-1.405a5.407 5.407 0 0 0-3.254-1.096c-3.011 0-5.462 2.498-5.462 5.569 0 3.07 2.45 5.567 5.462 5.567a5.388 5.388 0 0 0 4.143-1.94l-1.4-1.12zM60.649 9.264c-1.046 0-2.04.347-2.872 1.003l-.381.3c-.006.005-.016 0-.016-.008V9.264h-1.796V20.4h1.796v-5.553c.04-1.79.74-2.692 1.32-3.135.706-.54 1.674-.734 2.628-.537l.56-1.74a4.578 4.578 0 0 0-1.24-.17M36.802 18.58c-2.028 0-3.671-1.678-3.671-3.748 0-2.07 1.643-3.748 3.67-3.748 2.029 0 3.672 1.678 3.672 3.748 0 2.07-1.644 3.747-3.671 3.747m0-9.316c-1.402 0-2.68.54-3.647 1.427a.012.012 0 0 1-.02-.008V3.6h-1.788V20.4h1.788v-1.42c0-.01.011-.015.019-.008a5.371 5.371 0 0 0 3.648 1.428c3.012 0 5.455-2.493 5.455-5.568-.001-3.076-2.443-5.57-5.455-5.57"/>
    </g>
</svg>