<?xml version="1.0" encoding="utf-8"?>
<!-- Generator: Adobe Illustrator 16.0.0, SVG Export Plug-In . SVG Version: 6.00 Build 0)  -->
<!DOCTYPE svg PUBLIC "-//W3C//DTD SVG 1.1//EN" "http://www.w3.org/Graphics/SVG/1.1/DTD/svg11.dtd">
<svg version="1.1" id="Layer_1" xmlns="http://www.w3.org/2000/svg" xmlns:xlink="http://www.w3.org/1999/xlink" x="0px" y="0px"
	 width="260px" height="100px" viewBox="0 0 260 100" enable-background="new 0 0 260 100" xml:space="preserve">
<g>
	<g>
		
			<rect x="10.298" y="7.141" transform="matrix(-0.9803 -0.1974 0.1974 -0.9803 90.6324 103.6875)" fill-rule="evenodd" clip-rule="evenodd" fill="#D1D3D4" width="80.372" height="80.372"/>
		<g>
			<path fill="#FFFFFF" d="M58.496,71.93h-0.002c-2.808,0-5.381-1.152-7.252-3.014c-1.874-1.863-3.044-4.436-3.045-7.266v-0.004
				v-0.004c0-2.832,1.171-5.412,3.046-7.283c1.868-1.865,4.438-3.021,7.249-3.023h0.004h0.001c2.841,0.002,5.417,1.158,7.285,3.023
				c1.877,1.875,3.038,4.451,3.039,7.283v0.004v0.002c-0.001,2.83-1.163,5.402-3.041,7.268c-1.87,1.861-4.444,3.014-7.28,3.014
				H58.496z"/>
			<path fill="#FFFFFF" d="M23.379,66.057h-0.002c-1.905,0-3.643-0.783-4.909-2.051c-1.254-1.256-2.033-2.984-2.035-4.895v-0.004
				v-0.002c0-1.914,0.786-3.646,2.052-4.902c1.261-1.252,2.991-2.025,4.89-2.029h0.004h0.002c1.318,0.002,2.557,0.375,3.613,1.023
				c0.377-2.119,1.412-4.019,2.883-5.485c1.867-1.862,4.438-3.014,7.262-3.017h0.004h0.002c2.824,0.001,5.399,1.155,7.271,3.019
				c1.875,1.867,3.042,4.439,3.042,7.273v0.004v0.002c0,2.838-1.167,5.418-3.044,7.289c-1.869,1.867-4.442,3.021-7.267,3.023h-0.004
				h-0.002c-2.826-0.002-5.399-1.158-7.265-3.023l-0.016-0.016c-0.067-0.066-0.134-0.139-0.2-0.205
				c-0.347,0.73-0.819,1.395-1.388,1.963c-1.256,1.256-2.987,2.031-4.889,2.033H23.379z"/>
			<path fill="#FFFFFF" d="M11.039,53.803h-0.002c-2.477-0.002-4.723-1.01-6.351-2.637c-1.638-1.635-2.65-3.881-2.652-6.35v-0.004
				V44.81c0.001-2.471,1.015-4.72,2.653-6.355c1.628-1.626,3.873-2.634,6.348-2.636h0.004h0.002c2.47,0.001,4.716,1.016,6.347,2.652
				c1.623,1.628,2.629,3.87,2.631,6.336v0.004v0.002c-0.001,2.467-1.008,4.71-2.632,6.339c-1.632,1.635-3.876,2.648-6.345,2.65
				H11.039z"/>
			<path fill="#FFFFFF" d="M6.935,75.018H6.932c-1.917,0-3.657-0.781-4.915-2.037c-1.257-1.256-2.037-2.994-2.039-4.912v-0.004
				v-0.002c0-1.92,0.787-3.652,2.056-4.91c1.265-1.252,2.998-2.025,4.896-2.029h0.004h0.002c1.907,0,3.642,0.783,4.906,2.047
				c1.253,1.252,2.028,2.982,2.03,4.889v0.006v0.002c-0.001,1.9-0.777,3.635-2.031,4.898c-1.257,1.266-2.99,2.051-4.902,2.053H6.935
				z"/>
			<path fill="#FFFFFF" d="M84.788,62.422h-0.002c-2.835,0-5.415-1.166-7.287-3.043c-1.864-1.869-3.021-4.441-3.022-7.264v-0.004
				v-0.002c0.001-2.835,1.165-5.411,3.04-7.282c1.868-1.863,4.44-3.015,7.269-3.017h0.003h0.002c0.617,0,1.222,0.056,1.811,0.162
				c-1.069-1.48-1.7-3.296-1.702-5.259V36.71v-0.002c0-2.465,1.015-4.711,2.651-6.344c1.626-1.624,3.867-2.63,6.335-2.632h0.004
				h0.002c2.47,0,4.715,1.009,6.345,2.633c1.638,1.632,2.651,3.875,2.653,6.34v0.005v0.001c0,2.484-1.011,4.731-2.639,6.36v0.015
				c-1.628,1.629-3.877,2.634-6.357,2.637H93.89h-0.002c-0.372,0-0.74-0.024-1.1-0.069c1.433,1.771,2.296,4.016,2.297,6.455v0.004
				v0.002c0,2.824-1.161,5.398-3.026,7.266c-1.871,1.877-4.446,3.043-7.267,3.043H84.788z"/>
		</g>
		<path fill-rule="evenodd" clip-rule="evenodd" fill="#6D6E71" d="M93.887,41.756c-2.772,0-5.032-2.261-5.032-5.033
			c0-2.771,2.26-5.031,5.032-5.031c2.774,0,5.034,2.26,5.034,5.031C98.921,39.496,96.661,41.756,93.887,41.756z"/>
		<path fill-rule="evenodd" clip-rule="evenodd" fill="#FFDE62" d="M84.78,58.447c-3.489,0-6.336-2.846-6.336-6.334
			c0-3.491,2.847-6.337,6.336-6.337c3.49,0,6.339,2.847,6.339,6.337C91.119,55.602,88.271,58.447,84.78,58.447z"/>
		<path fill-rule="evenodd" clip-rule="evenodd" fill="#FDB73B" d="M58.509,67.977c-3.489,0-6.336-2.848-6.336-6.336
			c0-3.492,2.848-6.338,6.336-6.338c3.49,0,6.338,2.846,6.338,6.338C64.847,65.129,61.999,67.977,58.509,67.977z"/>
		<path fill-rule="evenodd" clip-rule="evenodd" fill="#612A8C" d="M37.144,61.336c-3.488,0-6.335-2.848-6.335-6.336
			c0-3.49,2.848-6.337,6.335-6.337c3.491,0,6.339,2.847,6.339,6.337C43.483,58.488,40.635,61.336,37.144,61.336z"/>
		<path fill-rule="evenodd" clip-rule="evenodd" fill="#D3602C" d="M23.386,62.1c-1.643,0-2.983-1.338-2.983-2.98
			s1.34-2.984,2.983-2.984s2.982,1.342,2.982,2.984S25.029,62.1,23.386,62.1z"/>
		<path fill-rule="evenodd" clip-rule="evenodd" fill="#0DAD4A" d="M11.03,49.84c-2.772,0-5.033-2.261-5.033-5.033
			c0-2.771,2.26-5.031,5.033-5.031c2.773,0,5.034,2.26,5.034,5.031C16.064,47.579,13.804,49.84,11.03,49.84z"/>
		<path fill-rule="evenodd" clip-rule="evenodd" fill="#0099D8" d="M6.93,71.051c-1.642,0-2.982-1.34-2.982-2.98
			c0-1.645,1.34-2.984,2.982-2.984c1.643,0,2.983,1.34,2.983,2.984C9.913,69.711,8.573,71.051,6.93,71.051z"/>
	</g>
	<path fill="#6D6E71" d="M198.354,40.219v-1.835c0.423-0.083,0.865-0.24,1.332-0.473c0.672-0.345,1.233-0.75,1.681-1.216v-1.863
		c-0.413-0.224-0.854-0.431-1.319-0.621c-0.568-0.189-1.129-0.284-1.681-0.284h-0.013v-1.832c0.479,0.018,1.009,0.094,1.591,0.229
		c0.24,0.069,0.479,0.142,0.711,0.22c0.233,0.078,0.47,0.177,0.711,0.298v-2.225c0-0.759-0.231-1.285-0.697-1.578
		c-0.534-0.346-1.251-0.518-2.147-0.518c-0.054,0-0.111,0-0.168,0.004v-1.783c0.076-0.005,0.147-0.006,0.22-0.006
		c0.776,0,1.465,0.074,2.068,0.22c0.604,0.147,1.122,0.383,1.553,0.711c0.897,0.672,1.345,1.656,1.345,2.949v7.527h2.044v1.992
		h-4.217v-1.292c-0.259,0.189-0.517,0.357-0.775,0.504c-0.26,0.146-0.534,0.289-0.827,0.426
		C199.285,39.983,198.816,40.131,198.354,40.219L198.354,40.219z M219.252,36.436c0-1.086-0.319-1.949-0.957-2.586
		c-0.345-0.346-0.836-0.63-1.475-0.854c-0.639-0.224-1.414-0.422-2.327-0.595c-1.26-0.224-2.079-0.465-2.459-0.724
		c-0.154-0.121-0.275-0.268-0.362-0.44c-0.087-0.172-0.13-0.405-0.13-0.698c0-0.5,0.192-0.931,0.57-1.293
		c0.413-0.38,0.974-0.57,1.681-0.57c0.847,0,1.544,0.25,2.096,0.75c0.276,0.241,0.483,0.54,0.622,0.893
		c0.136,0.354,0.223,0.833,0.257,1.436h1.94v-4.32h-1.966v0.336c-0.413-0.362-0.871-0.625-1.37-0.789
		c-0.501-0.164-1.035-0.247-1.604-0.247c-1.19,0-2.19,0.346-3.001,1.035c-0.845,0.69-1.268,1.629-1.268,2.82
		c0,1.208,0.389,2.095,1.166,2.665c0.724,0.534,1.843,0.931,3.361,1.189c1.328,0.225,2.207,0.5,2.638,0.828
		c0.19,0.138,0.333,0.306,0.428,0.504s0.143,0.461,0.143,0.789c0,0.569-0.268,1.06-0.802,1.474
		c-0.604,0.414-1.303,0.621-2.096,0.621c-1.069,0-1.914-0.284-2.535-0.853c-0.294-0.276-0.521-0.622-0.686-1.035
		s-0.255-0.983-0.271-1.708h-2.019v5.07h2.019v-0.801c0.311,0.292,0.672,0.535,1.086,0.725c0.689,0.31,1.449,0.465,2.277,0.465
		c1.517,0,2.724-0.362,3.621-1.086C218.778,38.696,219.252,37.695,219.252,36.436z M198.354,26.742v1.783
		c-0.197,0.01-0.413,0.04-0.646,0.086c-0.302,0.061-0.596,0.133-0.88,0.22c-0.284,0.086-0.544,0.168-0.776,0.246
		c-0.232,0.078-0.4,0.133-0.504,0.168l-0.62-1.553c0,0,0.123-0.052,0.374-0.156c0.25-0.103,0.56-0.21,0.932-0.323
		c0.371-0.111,0.767-0.22,1.189-0.323C197.757,26.809,198.068,26.759,198.354,26.742L198.354,26.742z M198.354,32.095v1.832
		c-0.977,0.002-1.724,0.244-2.238,0.725c-0.518,0.466-0.775,1.043-0.775,1.733c0,0.536,0.207,1.018,0.62,1.449
		c0.414,0.414,0.984,0.62,1.708,0.62c0.222,0,0.45-0.024,0.686-0.07v1.835c-0.338,0.064-0.669,0.098-0.996,0.098
		c-1.225,0-2.233-0.396-3.026-1.19c-0.794-0.828-1.19-1.776-1.19-2.846c0-1.208,0.466-2.216,1.397-3.026
		c0.931-0.776,2.129-1.164,3.595-1.164C198.206,32.091,198.279,32.091,198.354,32.095L198.354,32.095z M163.327,40.219v-1.835
		c0.424-0.083,0.867-0.24,1.333-0.473c0.672-0.345,1.231-0.75,1.681-1.216v-1.863c-0.414-0.224-0.853-0.431-1.319-0.621
		c-0.568-0.189-1.13-0.284-1.681-0.284h-0.014v-1.832c0.479,0.018,1.009,0.094,1.591,0.229c0.242,0.069,0.479,0.142,0.712,0.22
		c0.232,0.078,0.469,0.177,0.711,0.298v-2.225c0-0.759-0.232-1.285-0.699-1.578c-0.534-0.346-1.249-0.518-2.146-0.518
		c-0.056,0-0.111,0-0.169,0.004v-1.783c0.075-0.005,0.148-0.006,0.221-0.006c0.775,0,1.466,0.074,2.069,0.22
		c0.604,0.147,1.121,0.383,1.552,0.711c0.896,0.672,1.346,1.656,1.346,2.949v7.527h2.043v1.992h-4.217v-1.292
		c-0.258,0.189-0.518,0.357-0.775,0.504c-0.259,0.146-0.535,0.289-0.829,0.426C164.258,39.983,163.79,40.131,163.327,40.219
		L163.327,40.219z M182.131,29.012v-1.889l-0.88-0.026c-0.293,0-0.608,0.009-0.944,0.026c-0.337,0.018-0.673,0.052-1.009,0.104
		c-0.337,0.052-0.66,0.121-0.97,0.207c-0.311,0.086-0.596,0.19-0.855,0.31c-0.189,0.104-0.371,0.19-0.542,0.259
		c-0.173,0.069-0.328,0.189-0.466,0.362v-1.293h-4.501v1.992h2.329v9.494v1.578h4.681v-1.992h-2.509v-5.07
		c0-0.776,0.099-1.379,0.297-1.811c0.199-0.432,0.479-0.811,0.841-1.139s0.841-0.595,1.437-0.802
		c0.595-0.207,1.322-0.311,2.186-0.311H182.131L182.131,29.012z M188.683,22.907c0-0.414-0.146-0.75-0.438-1.009
		c-0.26-0.293-0.595-0.44-1.009-0.44s-0.752,0.147-1.009,0.44c-0.294,0.293-0.441,0.638-0.441,1.035c0,0.415,0.147,0.75,0.441,1.009
		c0.257,0.294,0.595,0.44,1.009,0.44s0.749-0.146,1.009-0.44C188.537,23.649,188.683,23.304,188.683,22.907L188.683,22.907z
		 M190.778,40.135v-1.992h-2.096V27.072h-4.32v1.992h2.148v9.907h0.026v1.164H190.778z M163.327,26.742v1.783
		c-0.197,0.01-0.413,0.04-0.646,0.086c-0.303,0.061-0.596,0.133-0.881,0.22c-0.285,0.086-0.542,0.168-0.776,0.246
		c-0.232,0.078-0.399,0.133-0.505,0.168l-0.62-1.553c0,0,0.126-0.052,0.376-0.156c0.25-0.103,0.56-0.21,0.931-0.323
		c0.37-0.111,0.768-0.22,1.19-0.323C162.73,26.809,163.042,26.759,163.327,26.742L163.327,26.742z M163.327,32.095v1.832
		c-0.977,0.002-1.723,0.244-2.237,0.725c-0.517,0.466-0.776,1.043-0.776,1.733c0,0.536,0.206,1.018,0.621,1.449
		c0.415,0.414,0.982,0.62,1.708,0.62c0.221,0,0.45-0.024,0.685-0.07v1.835c-0.336,0.064-0.669,0.098-0.996,0.098
		c-1.224,0-2.232-0.396-3.026-1.19c-0.792-0.828-1.189-1.776-1.189-2.846c0-1.208,0.465-2.216,1.397-3.026
		c0.932-0.776,2.13-1.164,3.595-1.164C163.18,32.091,163.254,32.091,163.327,32.095L163.327,32.095z M131.931,40.219v-1.835
		c0.424-0.083,0.867-0.24,1.333-0.473c0.672-0.345,1.231-0.75,1.681-1.216v-1.863c-0.413-0.224-0.853-0.431-1.319-0.621
		c-0.568-0.189-1.13-0.284-1.681-0.284h-0.014v-1.832c0.479,0.018,1.009,0.094,1.592,0.229c0.241,0.069,0.479,0.142,0.711,0.22
		c0.231,0.078,0.469,0.177,0.711,0.298v-2.225c0-0.759-0.232-1.285-0.698-1.578c-0.535-0.346-1.25-0.518-2.146-0.518
		c-0.056,0-0.111,0-0.169,0.004v-1.783c0.075-0.005,0.148-0.006,0.221-0.006c0.775,0,1.465,0.074,2.069,0.22
		c0.603,0.147,1.121,0.383,1.551,0.711c0.898,0.672,1.347,1.656,1.347,2.949v7.527h2.043v1.992h-4.217v-1.292
		c-0.259,0.189-0.517,0.357-0.775,0.504c-0.259,0.146-0.536,0.289-0.828,0.426C132.861,39.983,132.393,40.131,131.931,40.219
		L131.931,40.219z M155.312,40.135v-1.992h-1.938v-7.786c0-1.087-0.337-1.966-1.009-2.639c-0.674-0.655-1.562-0.983-2.666-0.983
		c-0.845,0-1.724,0.19-2.639,0.569c-0.292,0.138-0.573,0.285-0.839,0.439c-0.268,0.156-0.531,0.329-0.79,0.518v-1.189h-4.398v1.992
		h2.225v9.494v1.578h4.165v-1.992h-1.991v-7.476c0.293-0.259,0.598-0.497,0.918-0.711c0.319-0.216,0.66-0.418,1.021-0.608
		c0.777-0.379,1.493-0.569,2.147-0.569c1.121,0,1.681,0.578,1.681,1.733v8.045v1.578H155.312z M124.097,36.178l-1.862-0.776
		c-0.242,0.604-0.491,1.083-0.75,1.436c-0.258,0.354-0.543,0.651-0.854,0.892c-0.639,0.483-1.422,0.724-2.354,0.724
		c-1.294,0-2.329-0.438-3.104-1.319c-0.793-0.879-1.19-2.052-1.19-3.518c0-1.466,0.388-2.639,1.164-3.518
		c0.742-0.88,1.725-1.319,2.95-1.319c0.862,0,1.665,0.276,2.406,0.828c0.328,0.258,0.586,0.612,0.776,1.061
		c0.189,0.448,0.301,1.077,0.335,1.889h1.915v-4.708h-1.94v0.155c-0.31-0.276-0.647-0.509-1.009-0.699
		c-0.707-0.379-1.535-0.569-2.483-0.569c-1.793,0-3.303,0.665-4.527,1.992c-1.19,1.346-1.785,2.975-1.785,4.889
		c0,2,0.595,3.648,1.785,4.941c1.207,1.293,2.768,1.94,4.682,1.94c1.293,0,2.44-0.345,3.44-1.035c0.5-0.345,0.944-0.772,1.332-1.281
		C123.411,37.674,123.77,37.005,124.097,36.178L124.097,36.178z M131.931,26.742v1.783c-0.196,0.01-0.412,0.04-0.646,0.086
		c-0.303,0.061-0.596,0.133-0.88,0.22c-0.284,0.086-0.543,0.168-0.776,0.246c-0.233,0.078-0.401,0.133-0.504,0.168l-0.621-1.553
		c0,0,0.125-0.052,0.375-0.156c0.25-0.103,0.561-0.21,0.931-0.323c0.371-0.111,0.767-0.22,1.19-0.323
		C131.334,26.809,131.646,26.759,131.931,26.742L131.931,26.742z M131.931,32.095v1.832c-0.976,0.002-1.723,0.244-2.238,0.725
		c-0.517,0.466-0.775,1.043-0.775,1.733c0,0.536,0.207,1.018,0.621,1.449c0.414,0.414,0.982,0.62,1.707,0.62
		c0.222,0,0.451-0.024,0.686-0.07v1.835c-0.336,0.064-0.668,0.098-0.996,0.098c-1.224,0-2.233-0.396-3.026-1.19
		c-0.793-0.828-1.19-1.776-1.19-2.846c0-1.208,0.466-2.216,1.397-3.026c0.931-0.776,2.129-1.164,3.595-1.164
		C131.783,32.091,131.857,32.091,131.931,32.095z"/>
	<path fill="#BCBEC0" d="M238.478,67.414v-1.836c0.422-0.082,0.866-0.238,1.331-0.473c0.674-0.344,1.233-0.748,1.683-1.215v-1.863
		c-0.415-0.225-0.854-0.43-1.319-0.621c-0.57-0.189-1.131-0.285-1.683-0.285h-0.012v-1.83c0.479,0.018,1.009,0.092,1.59,0.229
		c0.24,0.068,0.479,0.143,0.711,0.221c0.233,0.076,0.471,0.176,0.713,0.297v-2.227c0-0.758-0.233-1.285-0.699-1.576
		c-0.534-0.346-1.251-0.518-2.147-0.518c-0.054,0-0.11,0-0.167,0.002v-1.783c0.075-0.004,0.147-0.004,0.219-0.004
		c0.777,0,1.466,0.072,2.069,0.219c0.604,0.146,1.121,0.383,1.553,0.711c0.896,0.674,1.344,1.658,1.344,2.949v7.527h2.044v1.992
		h-4.215v-1.293c-0.26,0.189-0.519,0.357-0.777,0.506c-0.258,0.146-0.534,0.289-0.827,0.426
		C239.407,67.178,238.938,67.326,238.478,67.414z M238.478,53.936v1.783c-0.198,0.012-0.414,0.041-0.648,0.088
		c-0.3,0.061-0.594,0.133-0.879,0.221c-0.284,0.086-0.544,0.168-0.775,0.244c-0.233,0.078-0.401,0.135-0.505,0.17l-0.62-1.553
		c0,0,0.123-0.053,0.374-0.156c0.25-0.104,0.561-0.211,0.931-0.324c0.372-0.111,0.769-0.221,1.19-0.322
		C237.88,54.004,238.19,53.953,238.478,53.936L238.478,53.936z M238.478,59.291v1.83c-0.978,0.002-1.723,0.244-2.238,0.725
		c-0.519,0.467-0.776,1.045-0.776,1.734c0,0.535,0.207,1.018,0.621,1.447c0.413,0.416,0.983,0.621,1.707,0.621
		c0.222,0,0.451-0.023,0.687-0.07v1.836c-0.337,0.064-0.669,0.098-0.997,0.098c-1.224,0-2.232-0.396-3.026-1.189
		c-0.794-0.828-1.189-1.775-1.189-2.846c0-1.207,0.466-2.217,1.396-3.025c0.931-0.777,2.129-1.166,3.597-1.166
		C238.328,59.285,238.402,59.287,238.478,59.291L238.478,59.291z M185.578,67.691v-1.924c0.12,0.008,0.24,0.012,0.363,0.012
		c0.224,0,0.505-0.041,0.84-0.117c0.337-0.076,0.669-0.168,0.996-0.271c0.328-0.104,0.63-0.207,0.905-0.311
		c0.276-0.104,0.475-0.182,0.596-0.232l0.542,1.785c0,0-0.146,0.057-0.438,0.168c-0.293,0.111-0.656,0.232-1.087,0.363
		c-0.432,0.129-0.881,0.25-1.345,0.361c-0.467,0.111-0.871,0.168-1.216,0.168L185.578,67.691L185.578,67.691z M185.578,61.51v-1.99
		h4.295c-0.242-1-0.689-1.836-1.345-2.51c-0.771-0.736-1.755-1.105-2.95-1.113v-1.965h0.078c1.896,0,3.44,0.637,4.631,1.914
		c0.603,0.656,1.061,1.436,1.37,2.342c0.312,0.904,0.501,2.014,0.569,3.322H185.578L185.578,61.51z M207.653,67.33v-1.992h-1.94
		v-7.785c0-1.086-0.336-1.967-1.009-2.639c-0.672-0.654-1.561-0.982-2.665-0.982c-0.845,0-1.725,0.189-2.638,0.568
		c-0.293,0.137-0.573,0.285-0.84,0.439c-0.269,0.156-0.531,0.328-0.789,0.518v-1.189h-4.398v1.992h2.225v9.494v1.576h4.165v-1.992
		h-1.991v-7.475c0.292-0.258,0.598-0.496,0.918-0.711c0.318-0.217,0.659-0.42,1.021-0.607c0.776-0.379,1.491-0.57,2.147-0.57
		c1.121,0,1.681,0.578,1.681,1.732v8.047v1.576H207.653L207.653,67.33z M221.812,63.373l-1.861-0.775
		c-0.242,0.604-0.491,1.082-0.75,1.436s-0.543,0.65-0.854,0.891c-0.638,0.484-1.423,0.725-2.354,0.725
		c-1.294,0-2.329-0.439-3.104-1.318c-0.794-0.879-1.19-2.051-1.19-3.52c0-1.465,0.389-2.637,1.163-3.518
		c0.742-0.877,1.725-1.318,2.949-1.318c0.862,0,1.665,0.275,2.406,0.828c0.328,0.258,0.586,0.611,0.775,1.061
		c0.19,0.449,0.303,1.078,0.337,1.889h1.915v-4.709h-1.94v0.156c-0.312-0.277-0.646-0.51-1.01-0.699
		c-0.706-0.379-1.533-0.568-2.483-0.568c-1.793,0-3.303,0.662-4.526,1.992c-1.189,1.344-1.785,2.975-1.785,4.887
		c0,2.002,0.596,3.65,1.785,4.943c1.206,1.293,2.768,1.939,4.682,1.939c1.294,0,2.441-0.346,3.441-1.033
		c0.5-0.346,0.944-0.773,1.333-1.281C221.127,64.869,221.485,64.201,221.812,63.373L221.812,63.373z M228.806,50.102
		c0-0.414-0.146-0.75-0.439-1.009c-0.26-0.293-0.595-0.439-1.009-0.439c-0.413,0-0.751,0.146-1.009,0.439
		c-0.294,0.293-0.439,0.638-0.439,1.035c0,0.415,0.146,0.751,0.439,1.009c0.258,0.295,0.596,0.439,1.009,0.439
		c0.414,0,0.749-0.145,1.009-0.439C228.659,50.844,228.806,50.5,228.806,50.102L228.806,50.102z M230.901,67.33v-1.992h-2.096
		v-11.07h-4.32v1.992h2.147v9.906h0.026v1.164H230.901z M185.578,53.932v1.965h-0.025c-1.275,0-2.327,0.467-3.156,1.396
		c-0.533,0.588-0.905,1.33-1.111,2.227h4.293v1.99h-4.396c0.154,1.172,0.603,2.131,1.345,2.873c0.817,0.848,1.835,1.309,3.052,1.385
		v1.924c-1.879-0.035-3.43-0.689-4.655-1.963c-1.276-1.277-1.914-2.916-1.914-4.918c0-1.965,0.62-3.611,1.862-4.939
		C182.113,54.596,183.682,53.949,185.578,53.932L185.578,53.932z M163.133,67.691v-1.924c0.12,0.008,0.239,0.012,0.363,0.012
		c0.225,0,0.504-0.041,0.841-0.117c0.336-0.076,0.667-0.168,0.995-0.271s0.629-0.207,0.905-0.311s0.474-0.182,0.595-0.232
		l0.544,1.785c0,0-0.147,0.057-0.44,0.168c-0.292,0.111-0.655,0.232-1.085,0.363c-0.433,0.129-0.881,0.25-1.346,0.361
		c-0.467,0.111-0.871,0.168-1.216,0.168L163.133,67.691L163.133,67.691z M163.133,61.51v-1.99h4.295
		c-0.241-1-0.689-1.836-1.345-2.51c-0.771-0.736-1.755-1.105-2.95-1.113v-1.965h0.078c1.896,0,3.439,0.637,4.63,1.914
		c0.604,0.656,1.061,1.436,1.372,2.342c0.311,0.904,0.5,2.014,0.569,3.322H163.133L163.133,61.51z M177.292,67.33v-1.992h-2.199
		V48.938h-4.396v1.992h2.225v14.824v1.576H177.292z M124.977,61.51c-0.069-1.309-0.259-2.418-0.57-3.322
		c-0.31-0.906-0.767-1.686-1.37-2.342c-1.19-1.277-2.733-1.914-4.631-1.914h-0.077v1.965c1.195,0.008,2.178,0.377,2.949,1.113
		c0.655,0.674,1.104,1.51,1.345,2.51h-4.294v1.99H124.977L124.977,61.51z M118.329,67.691l0.155,0.002
		c0.345,0,0.75-0.057,1.216-0.168c0.465-0.111,0.914-0.232,1.345-0.361c0.431-0.131,0.794-0.252,1.086-0.363
		c0.294-0.111,0.44-0.168,0.44-0.168l-0.543-1.785c-0.12,0.051-0.319,0.129-0.595,0.232c-0.275,0.104-0.578,0.207-0.905,0.311
		c-0.328,0.104-0.66,0.195-0.996,0.271c-0.336,0.076-0.617,0.117-0.841,0.117c-0.123,0-0.244-0.004-0.362-0.012V67.691
		L118.329,67.691z M163.133,53.932v1.965h-0.025c-1.276,0-2.328,0.467-3.156,1.396c-0.533,0.588-0.905,1.33-1.111,2.227h4.293v1.99
		h-4.397c0.155,1.172,0.604,2.131,1.346,2.873c0.817,0.848,1.835,1.309,3.052,1.385v1.924c-1.879-0.035-3.43-0.689-4.655-1.963
		c-1.276-1.277-1.915-2.916-1.915-4.918c0-1.965,0.621-3.611,1.863-4.939C159.667,54.596,161.237,53.949,163.133,53.932
		L163.133,53.932z M139.446,67.33v-1.992h-1.734l-3.854-4.734l3.415-4.344h1.862v-1.992h-5.328v1.992h0.879l-2.122,2.715
		l-2.172-2.715h1.01v-1.992h-5.382v1.992h1.785l3.493,4.344l-3.751,4.891l-1.424,1.836h6.054v-1.992h-1.966l2.353-3.129l3.234,3.957
		h0.052l0.881,1.164H139.446L139.446,67.33z M153.476,63.373l-1.863-0.775c-0.241,0.604-0.492,1.082-0.749,1.436
		c-0.26,0.354-0.544,0.65-0.854,0.891c-0.64,0.484-1.424,0.725-2.354,0.725c-1.294,0-2.328-0.439-3.104-1.318
		c-0.793-0.879-1.19-2.051-1.19-3.52c0-1.465,0.389-2.637,1.165-3.518c0.741-0.877,1.724-1.318,2.948-1.318
		c0.862,0,1.664,0.275,2.406,0.828c0.327,0.258,0.586,0.611,0.776,1.061c0.189,0.449,0.3,1.078,0.336,1.889h1.914v-4.709h-1.939
		v0.156c-0.311-0.277-0.647-0.51-1.009-0.699c-0.708-0.379-1.536-0.568-2.484-0.568c-1.793,0-3.301,0.662-4.527,1.992
		c-1.188,1.344-1.785,2.975-1.785,4.887c0,2.002,0.597,3.65,1.785,4.943c1.208,1.293,2.77,1.939,4.684,1.939
		c1.293,0,2.438-0.346,3.44-1.033c0.499-0.346,0.943-0.773,1.331-1.281C152.79,64.869,153.148,64.201,153.476,63.373z
		 M118.329,53.932c-1.896,0.018-3.467,0.664-4.708,1.939c-1.242,1.328-1.863,2.975-1.863,4.939c0,2.002,0.638,3.641,1.914,4.918
		c1.227,1.273,2.779,1.928,4.658,1.963v-1.924c-1.218-0.076-2.236-0.537-3.053-1.385c-0.742-0.742-1.19-1.701-1.345-2.873h4.398
		v-1.99h-4.294c0.207-0.896,0.578-1.639,1.111-2.227c0.829-0.93,1.881-1.396,3.156-1.396h0.027V53.932z"/>
	<path fill="#BCBEC0" d="M252.791,94.289v-1.838c0.422-0.082,0.866-0.238,1.333-0.471c0.672-0.346,1.232-0.752,1.681-1.217V88.9
		c-0.415-0.225-0.854-0.43-1.319-0.619c-0.568-0.189-1.131-0.285-1.681-0.285h-0.014v-1.832c0.479,0.018,1.009,0.094,1.59,0.229
		c0.242,0.07,0.479,0.143,0.712,0.221c0.233,0.076,0.471,0.176,0.712,0.297v-2.227c0-0.758-0.233-1.283-0.699-1.576
		c-0.533-0.346-1.249-0.518-2.147-0.518c-0.053,0-0.109,0.002-0.167,0.004v-1.783c0.075-0.006,0.147-0.006,0.221-0.006
		c0.775,0,1.465,0.074,2.067,0.221c0.605,0.146,1.122,0.383,1.554,0.711c0.896,0.672,1.345,1.656,1.345,2.947v7.529h2.044v1.992
		h-4.217V92.91c-0.259,0.189-0.518,0.359-0.775,0.506c-0.26,0.146-0.535,0.289-0.829,0.426
		C253.723,94.051,253.254,94.199,252.791,94.289z M252.791,80.811v1.783c-0.197,0.01-0.413,0.041-0.647,0.086
		c-0.301,0.061-0.595,0.133-0.879,0.221c-0.285,0.086-0.543,0.168-0.775,0.246c-0.233,0.078-0.401,0.133-0.504,0.168l-0.622-1.553
		c0,0,0.125-0.053,0.374-0.154c0.25-0.105,0.561-0.211,0.933-0.326c0.37-0.109,0.768-0.219,1.19-0.322
		C252.194,80.879,252.505,80.828,252.791,80.811L252.791,80.811z M252.791,86.164v1.832c-0.977,0.002-1.723,0.244-2.238,0.723
		c-0.518,0.467-0.774,1.045-0.774,1.734c0,0.537,0.207,1.018,0.62,1.449c0.414,0.414,0.982,0.621,1.707,0.621
		c0.221,0,0.45-0.025,0.686-0.072v1.838c-0.337,0.062-0.669,0.098-0.995,0.098c-1.226,0-2.234-0.398-3.026-1.191
		c-0.795-0.826-1.19-1.775-1.19-2.846c0-1.207,0.465-2.215,1.397-3.025c0.931-0.775,2.128-1.164,3.595-1.164
		C252.644,86.16,252.716,86.16,252.791,86.164L252.791,86.164z M212.423,99.998v-2.043h0.052c1.292,0,2.345-0.328,3.156-0.984
		c0.776-0.637,1.163-1.559,1.163-2.766v-1.76c-0.465,0.518-0.992,0.932-1.577,1.242c-0.9,0.449-1.831,0.682-2.794,0.697V92.42
		c1.23-0.008,2.265-0.455,3.104-1.346c0.845-0.932,1.267-2.061,1.267-3.389c0-1.344-0.431-2.5-1.292-3.467
		c-0.875-0.941-1.9-1.414-3.079-1.422v-1.992c0.92,0.012,1.79,0.229,2.612,0.646c0.587,0.311,1.173,0.811,1.759,1.5v-1.811h4.424
		v1.992h-2.251v10.943c0,1.793-0.629,3.232-1.889,4.318C215.87,99.451,214.319,99.984,212.423,99.998L212.423,99.998z
		 M228.702,76.977c0-0.414-0.146-0.75-0.439-1.01c-0.258-0.293-0.595-0.439-1.009-0.439c-0.413,0-0.751,0.146-1.009,0.439
		c-0.293,0.295-0.439,0.639-0.439,1.035c0,0.414,0.146,0.75,0.439,1.01c0.258,0.293,0.596,0.438,1.009,0.438
		c0.414,0,0.751-0.145,1.009-0.438C228.556,77.719,228.702,77.373,228.702,76.977L228.702,76.977z M230.798,94.205v-1.992h-2.096
		V81.141h-4.32v1.992h2.148v9.906h0.025v1.166H230.798L230.798,94.205z M244.956,90.246l-1.861-0.775
		c-0.242,0.604-0.491,1.082-0.75,1.436s-0.544,0.65-0.854,0.893c-0.639,0.482-1.423,0.725-2.354,0.725
		c-1.294,0-2.329-0.439-3.104-1.32c-0.793-0.879-1.189-2.051-1.189-3.518c0-1.465,0.389-2.639,1.163-3.518
		c0.742-0.879,1.725-1.32,2.949-1.32c0.862,0,1.664,0.275,2.407,0.828c0.328,0.26,0.585,0.613,0.775,1.062
		c0.189,0.447,0.302,1.076,0.336,1.889h1.915v-4.709h-1.94v0.154c-0.311-0.275-0.647-0.51-1.011-0.699
		c-0.706-0.379-1.533-0.568-2.482-0.568c-1.792,0-3.303,0.664-4.527,1.992c-1.188,1.346-1.784,2.975-1.784,4.889
		c0,2,0.596,3.648,1.784,4.941c1.207,1.293,2.769,1.939,4.683,1.939c1.294,0,2.441-0.344,3.441-1.033
		c0.5-0.346,0.944-0.773,1.332-1.281S244.63,91.074,244.956,90.246z M212.423,80.805v1.992h-0.025c-1.226,0-2.251,0.465-3.08,1.396
		c-0.845,0.949-1.267,2.113-1.267,3.492s0.406,2.518,1.216,3.414c0.793,0.881,1.837,1.32,3.131,1.32h0.025v1.965l-0.104,0.002
		c-1.863,0-3.397-0.631-4.605-1.889c-1.241-1.26-1.862-2.828-1.862-4.709c0-1.932,0.629-3.578,1.889-4.941
		c1.259-1.361,2.793-2.043,4.604-2.043H212.423L212.423,80.805z M212.423,97.955v2.043L212.345,100c-0.258,0-0.573-0.031-0.943-0.09
		c-0.371-0.061-0.726-0.131-1.061-0.209c-0.337-0.076-0.622-0.146-0.854-0.207c-0.233-0.059-0.351-0.09-0.351-0.09l0.492-1.941
		c0.103,0.035,0.271,0.078,0.504,0.131c0.233,0.051,0.491,0.104,0.776,0.154c0.285,0.053,0.57,0.1,0.854,0.143
		C212.021,97.93,212.242,97.951,212.423,97.955L212.423,97.955z M195.91,94.566v-2.043c1.241,0,2.275-0.449,3.103-1.346
		c0.812-0.914,1.217-2.078,1.217-3.492s-0.404-2.578-1.217-3.492c-0.827-0.896-1.861-1.346-3.103-1.346v-2.043
		c1.862,0,3.413,0.664,4.656,1.992c1.241,1.328,1.861,2.957,1.861,4.889c0,1.949-0.62,3.578-1.861,4.891
		C199.323,93.902,197.772,94.566,195.91,94.566L195.91,94.566z M195.91,79.393v-3.207l0.439-0.684h2.535L195.91,79.393z
		 M195.91,76.186v3.207l-0.725,0.947h-1.94L195.91,76.186L195.91,76.186z M195.91,80.805v2.043h-0.002
		c-1.24,0-2.274,0.449-3.102,1.346c-0.812,0.914-1.217,2.078-1.217,3.492s0.404,2.578,1.217,3.492
		c0.827,0.896,1.861,1.346,3.102,1.346h0.002v2.043h-0.002c-1.861,0-3.412-0.664-4.655-1.99c-1.241-1.312-1.861-2.941-1.861-4.891
		c0-1.932,0.62-3.561,1.861-4.889c1.243-1.328,2.794-1.992,4.655-1.992H195.91L195.91,80.805z M173.284,94.566v-2.043
		c1.24,0,2.275-0.449,3.103-1.346c0.812-0.914,1.217-2.078,1.217-3.492s-0.405-2.578-1.217-3.492
		c-0.827-0.896-1.862-1.346-3.103-1.346v-2.043c1.862,0,3.414,0.664,4.655,1.992c1.242,1.328,1.862,2.957,1.862,4.889
		c0,1.949-0.62,3.578-1.862,4.891C176.698,93.902,175.146,94.566,173.284,94.566L173.284,94.566z M187.959,94.205v-1.992h-2.199
		v-16.4h-4.396v1.992h2.224v14.822v1.578H187.959z M173.284,80.805v2.043l0,0c-1.242,0-2.278,0.449-3.105,1.346
		c-0.811,0.914-1.215,2.078-1.215,3.492s0.404,2.578,1.215,3.492c0.827,0.896,1.863,1.346,3.105,1.346l0,0v2.043l0,0
		c-1.863,0-3.415-0.664-4.656-1.99c-1.243-1.312-1.863-2.941-1.863-4.891c0-1.932,0.62-3.561,1.863-4.889
		C169.869,81.469,171.421,80.805,173.284,80.805L173.284,80.805L173.284,80.805z M126.099,94.566v-1.926
		c0.119,0.008,0.239,0.012,0.362,0.012c0.225,0,0.504-0.039,0.841-0.117c0.336-0.076,0.667-0.166,0.995-0.27
		s0.629-0.207,0.906-0.312c0.276-0.102,0.475-0.18,0.594-0.232l0.544,1.785c0,0-0.147,0.057-0.44,0.168
		c-0.293,0.113-0.656,0.234-1.086,0.363c-0.432,0.129-0.88,0.248-1.346,0.361c-0.466,0.111-0.871,0.168-1.216,0.168H126.099
		L126.099,94.566z M126.099,88.385v-1.992h4.294c-0.242-1-0.69-1.836-1.345-2.51c-0.771-0.736-1.754-1.105-2.949-1.113v-1.965h0.077
		c1.897,0,3.441,0.639,4.631,1.914c0.604,0.656,1.061,1.436,1.371,2.342c0.311,0.904,0.499,2.014,0.568,3.324H126.099
		L126.099,88.385z M148.379,90.246l-1.861-0.775c-0.242,0.604-0.491,1.082-0.75,1.436s-0.544,0.65-0.854,0.893
		c-0.639,0.482-1.423,0.725-2.354,0.725c-1.294,0-2.329-0.439-3.104-1.32c-0.793-0.879-1.189-2.051-1.189-3.518
		c0-1.465,0.389-2.639,1.163-3.518c0.742-0.879,1.725-1.32,2.949-1.32c0.862,0,1.665,0.275,2.406,0.828
		c0.328,0.26,0.586,0.613,0.775,1.062c0.19,0.447,0.303,1.076,0.337,1.889h1.915v-4.709h-1.941v0.154
		c-0.311-0.275-0.646-0.51-1.009-0.699c-0.707-0.379-1.534-0.568-2.483-0.568c-1.793,0-3.303,0.664-4.527,1.992
		c-1.188,1.346-1.784,2.975-1.784,4.889c0,2,0.596,3.648,1.784,4.941c1.207,1.293,2.769,1.939,4.683,1.939
		c1.294,0,2.441-0.344,3.441-1.033c0.5-0.346,0.943-0.773,1.333-1.281C147.694,91.744,148.053,91.074,148.379,90.246L148.379,90.246
		z M164.918,94.205v-1.992h-1.939v-7.785c0-1.088-0.335-1.967-1.009-2.641c-0.673-0.654-1.561-0.982-2.665-0.982
		c-0.846,0-1.725,0.189-2.639,0.568c-0.292,0.139-0.572,0.285-0.84,0.441c-0.267,0.154-0.53,0.328-0.789,0.518v-1.191h-4.398v1.992
		h2.225v9.494v1.578h4.166v-1.992h-1.992v-7.475c0.293-0.26,0.599-0.498,0.918-0.713c0.32-0.217,0.659-0.418,1.021-0.607
		c0.776-0.381,1.493-0.57,2.148-0.57c1.12,0,1.68,0.578,1.68,1.732v8.047v1.578H164.918z M117.707,94.152v-2.018l-1.888,0.311
		c-0.155,0-0.271-0.016-0.349-0.051s-0.134-0.068-0.168-0.104c-0.035-0.053-0.068-0.135-0.103-0.246
		c-0.035-0.113-0.053-0.289-0.053-0.531v-8.381h2.561v-1.992h-2.561v-2.766l-2.172,0.025v2.74h-2.173v1.992h2.173v8.641
		c0,0.846,0.215,1.508,0.647,1.992c0.241,0.258,0.53,0.443,0.866,0.555c0.336,0.113,0.712,0.168,1.125,0.168L117.707,94.152
		L117.707,94.152z M126.099,80.805v1.965h-0.026c-1.276,0-2.328,0.467-3.156,1.398c-0.535,0.586-0.905,1.328-1.112,2.225h4.294
		v1.992h-4.398c0.155,1.172,0.604,2.129,1.345,2.871c0.817,0.848,1.835,1.311,3.053,1.385v1.926
		c-1.879-0.037-3.431-0.689-4.657-1.965c-1.276-1.277-1.915-2.916-1.915-4.916c0-1.967,0.621-3.613,1.863-4.941
		C122.632,81.469,124.202,80.822,126.099,80.805z"/>
</g>
</svg>
