<?xml version="1.0" encoding="utf-8"?>
<!-- Generator: Adobe Illustrator 16.0.0, SVG Export Plug-In . SVG Version: 6.00 Build 0)  -->
<!DOCTYPE svg PUBLIC "-//W3C//DTD SVG 1.1//EN" "http://www.w3.org/Graphics/SVG/1.1/DTD/svg11.dtd">
<svg version="1.1" xmlns="http://www.w3.org/2000/svg" xmlns:xlink="http://www.w3.org/1999/xlink" x="0px" y="0px"
	 width="566.929px" height="425.197px" viewBox="0 0 566.929 425.197" enable-background="new 0 0 566.929 425.197"
	 xml:space="preserve">
<g id="BG">
	<path fill="#007D34" d="M485.516,336.752c0,8.877-7.193,16.072-16.072,16.072H96.859c-8.875,0-16.068-7.195-16.068-16.072V91.667
		c0-8.877,7.193-16.072,16.068-16.072h372.584c8.879,0,16.072,7.195,16.072,16.072V336.752z"/>
</g>
<g id="Logo">
	<g>
		<g>
			<path fill="#FFFFFF" d="M327.29,140.131c-0.424-1.303-1.629-2.133-2.928-2.141h-29.234l-9.031-27.802
				c-0.408-1.232-1.572-2.122-2.943-2.122c-1.365,0-2.529,0.889-2.939,2.123l-9.035,27.801h-29.23
				c-1.299,0.008-2.504,0.838-2.928,2.141c-0.424,1.303,0.062,2.684,1.109,3.454l23.648,17.183l-9.033,27.8
				c-0.395,1.239,0.025,2.642,1.133,3.449c1.109,0.805,2.572,0.768,3.629,0.012l23.646-17.184l23.65,17.184
				c1.057,0.756,2.52,0.793,3.629-0.012c1.107-0.807,1.525-2.21,1.133-3.449l-9.033-27.8l23.648-17.183
				C327.226,142.815,327.714,141.434,327.29,140.131z"/>
			<path fill="#E3000F" d="M258.573,189.294c-0.201,0.147-0.482,0.156-0.695,0c-0.215-0.154-0.303-0.399-0.225-0.636l9.396-28.93
				l-24.592-17.867c-0.203-0.147-0.291-0.404-0.209-0.654c0.08-0.253,0.305-0.412,0.555-0.412l30.396-0.001l9.391-28.901
				c0.076-0.237,0.301-0.41,0.562-0.41c0.266,0,0.486,0.172,0.566,0.41l9.387,28.901l30.4,0.001c0.25,0,0.482,0.158,0.564,0.412
				c0.08,0.25-0.014,0.509-0.217,0.656l-24.596,17.865l9.396,28.92c0.076,0.238-0.008,0.492-0.221,0.646
				c-0.213,0.156-0.496,0.147-0.697,0l-24.584-17.868L258.573,189.294z"/>
		</g>
		<g>
			<g>
				<path fill="#FFFFFF" d="M213.19,186.218v-5.7h-1.12v-1.84h4.33v1.84h-1.17v5.7H213.19z"/>
				<path fill="#FFFFFF" d="M221.88,186.218l-1.13-3.14l-0.02,0.02c0.01,0.37,0.03,0.74,0.03,1.11v2.01h-2.04v-7.54h1.97
					c1.77,0,3.05,0.52,3.05,2.51c0,0.83-0.36,1.57-1.17,1.89l1.52,3.14H221.88z M220.89,182.168c0.54,0,0.83-0.47,0.83-0.96
					c0-0.66-0.4-0.94-0.96-0.91v1.86L220.89,182.168z"/>
				<path fill="#FFFFFF" d="M229.23,186.218l-0.15-0.97h-1.37l-0.17,0.97h-2.1l1.81-7.54h2.49l1.6,7.54H229.23z M228.84,183.648
					l-0.22-1.75c-0.06-0.47-0.1-0.95-0.15-1.42h-0.02c-0.06,0.47-0.11,0.95-0.19,1.42l-0.28,1.75H228.84z"/>
				<path fill="#FFFFFF" d="M233.21,178.678h1.64c2.32,0,3.57,1.46,3.57,3.74c0,3.48-2.19,3.8-3.43,3.8h-1.78V178.678z
					 M235.25,184.398c0.93-0.01,1.09-1.17,1.09-1.88c0-0.82-0.16-1.96-1.09-1.96V184.398z"/>
				<path fill="#FFFFFF" d="M240.7,178.678h3.79v1.78h-1.75v1.05h1.57v1.78h-1.57v1.15h1.75v1.78h-3.79V178.678z"/>
			</g>
			<g>
				<path fill="#FFFFFF" d="M326.548,186.218l-0.19-4.74h-0.02c-0.09,0.55-0.16,1.1-0.26,1.65l-0.58,3.09h-1.66l-0.71-4.74h-0.021
					c-0.01,0.56,0,1.11-0.029,1.67l-0.17,3.07h-2.19l0.88-7.54h2.54l0.58,4.01h0.021c0.06-0.47,0.109-0.93,0.199-1.4l0.49-2.61h2.51
					l0.73,7.54H326.548z"/>
				<path fill="#FFFFFF" d="M333.788,186.218l-0.149-0.97h-1.371l-0.17,0.97h-2.1l1.811-7.54h2.489l1.601,7.54H333.788z
					 M333.398,183.648l-0.221-1.75c-0.06-0.47-0.1-0.95-0.15-1.42h-0.02c-0.061,0.47-0.109,0.95-0.189,1.42l-0.28,1.75H333.398z"/>
				<path fill="#FFFFFF" d="M340.828,186.218l-1.131-3.14l-0.02,0.02c0.01,0.37,0.03,0.74,0.03,1.11v2.01h-2.04v-7.54h1.97
					c1.771,0,3.05,0.52,3.05,2.51c0,0.83-0.359,1.57-1.17,1.89l1.521,3.14H340.828z M339.838,182.168c0.54,0,0.83-0.47,0.83-0.96
					c0-0.66-0.4-0.94-0.96-0.91v1.86L339.838,182.168z"/>
				<path fill="#FFFFFF" d="M350.428,178.678l-1.63,3.64l1.819,3.9h-2.189l-1.27-3.46h-0.01v3.46h-2.041v-7.54h2.041v3.21h0.01
					l1.119-3.21H350.428z"/>
			</g>
		</g>
		<g>
			<g>
				<path fill="#FFFFFF" d="M212.332,244.953c-1.949,1.952-4.481,3.893-6.975,4.684c-2.348,0.756-9.046,1.342-11.016-4.189
					c-0.427-1.197-0.081-1.568,1.005-1.889c1.614-0.48,5.778-1.703,10.17-3.352c3.987-1.488,7.545-3.314,8.659-4.059
					c1.995-1.31,2.29-3.152,1.413-5.135c-2.798-6.291-9.129-12.877-19.653-10.875c-8.365,1.596-14.357,9.127-14.357,17.74
					c0,10.668,6.429,16.904,14.608,18.838c7.562,1.799,16.453-1.867,20.257-8.029C217.952,246.312,213.706,243.496,212.332,244.953z
					 M193.387,236.559c-0.82-2.264-0.165-9.186,3.649-10.492c4.011-1.377,6.476,0.691,7.674,4.734
					c0.447,1.5,0.348,3.084-0.142,3.678c-0.712,0.861-1.981,1.377-3.124,1.762l-3.001,0.994
					C195.489,238.238,194.08,238.439,193.387,236.559z"/>
				<path fill="#FFFFFF" d="M310.303,244.953c-1.943,1.952-4.48,3.893-6.969,4.684c-2.35,0.756-9.049,1.342-11.02-4.189
					c-0.426-1.197-0.078-1.568,1.006-1.889c1.615-0.48,5.777-1.703,10.172-3.352c3.988-1.488,7.545-3.314,8.656-4.059
					c1.996-1.31,2.293-3.152,1.416-5.135c-2.801-6.291-9.129-12.877-19.654-10.875c-8.367,1.596-14.357,9.127-14.357,17.74
					c0,10.668,6.426,16.904,14.607,18.838c7.561,1.799,16.453-1.867,20.258-8.029C315.928,246.312,311.68,243.496,310.303,244.953z
					 M291.361,236.559c-0.488-1.355-0.455-4.373,0.469-6.861c0.625-1.672,1.551-2.979,3.18-3.631
					c1.834-0.738,3.402-0.535,4.629,0.172c1.404,0.807,2.406,2.404,3.045,4.562c0.445,1.5,0.348,3.084-0.143,3.678
					c-0.715,0.861-1.822,1.295-3.123,1.762c-1.297,0.463-2.455,0.838-3.002,1.01C293.445,238.18,292.053,238.439,291.361,236.559z"
					/>
				<path fill="#FFFFFF" d="M384.99,244.953c-1.943,1.952-4.48,3.893-6.973,4.684c-2.346,0.756-9.045,1.342-11.016-4.189
					c-0.426-1.197-0.078-1.568,1.006-1.889c1.615-0.48,5.777-1.703,10.172-3.352c3.984-1.488,7.545-3.314,8.656-4.059
					c1.994-1.31,2.289-3.152,1.414-5.135c-2.797-6.291-9.129-12.877-19.654-10.875c-8.365,1.596-14.355,9.127-14.355,17.74
					c0,10.668,6.426,16.904,14.607,18.838c7.561,1.799,16.449-1.867,20.256-8.029C390.613,246.312,386.367,243.496,384.99,244.953z
					 M366.049,236.559c-0.492-1.355-0.455-4.373,0.469-6.861c0.625-1.672,1.551-2.979,3.18-3.631
					c1.834-0.738,3.402-0.535,4.629,0.172c1.404,0.807,2.402,2.404,3.045,4.562c0.443,1.5,0.348,3.084-0.143,3.678
					c-0.711,0.861-1.818,1.295-3.123,1.762c-1.299,0.463-2.457,0.838-3.004,1.01C368.129,238.18,366.742,238.439,366.049,236.559z"
					/>
				<path fill="#FFFFFF" d="M154.271,233.756c-0.589,0-1.065,0.477-1.065,1.064l0.003,12.082c0.013,1.875,0.577,3.13,1.598,3.582
					c0.555,0.246,1.758,0.801,2.438,1.109c0.47,0.214,0.485,0.688,0.418,1.301c-0.06,0.545-0.219,2.104-0.278,2.677
					c-0.063,0.624-0.55,0.887-1.496,0.887h-17.487c-0.886,0-1.436-0.154-1.511-0.887c-0.059-0.573-0.223-2.218-0.282-2.763
					c-0.076-0.693,0.063-1.05,0.492-1.25c0.586-0.273,1.862-0.84,2.414-1.098c1.084-0.503,1.547-1.973,1.547-3.518l-0.003-29.877
					c-0.003-1.666-0.471-3.014-1.685-3.578c-0.552-0.256-1.705-0.778-2.267-1.044c-0.466-0.221-0.591-0.65-0.502-1.261
					c0.078-0.542,0.207-1.478,0.285-2.05c0.101-0.728,0.625-0.887,1.511-0.887h16.676c0.886,0,1.396,0.159,1.496,0.887
					c0.079,0.572,0.207,1.508,0.286,2.05c0.088,0.611-0.031,1.03-0.485,1.274c-0.594,0.321-1.427,0.788-1.961,1.079
					c-0.72,0.394-1.189,1.207-1.203,3.132l-0.003,8.709c0,0.59,0.477,1.066,1.065,1.066h9.338c0.589,0,1.065-0.477,1.065-1.066
					l-0.003-8.709c-0.014-1.926-0.483-2.739-1.203-3.132c-0.534-0.291-1.367-0.758-1.961-1.079
					c-0.454-0.244-0.574-0.664-0.485-1.274c0.079-0.542,0.207-1.478,0.286-2.05c0.101-0.728,0.61-0.887,1.496-0.887h16.676
					c0.885,0,1.409,0.159,1.511,0.887c0.078,0.572,0.206,1.508,0.285,2.05c0.089,0.611-0.036,1.04-0.502,1.261
					c-0.562,0.267-1.715,0.789-2.267,1.044c-1.214,0.564-1.682,1.912-1.685,3.578l-0.003,29.877c0,1.545,0.462,3.015,1.547,3.518
					c0.552,0.258,1.828,0.824,2.414,1.098c0.429,0.2,0.568,0.557,0.492,1.25c-0.06,0.545-0.224,2.189-0.282,2.763
					c-0.075,0.732-0.626,0.887-1.511,0.887h-17.488c-0.945,0-1.433-0.263-1.496-0.887c-0.059-0.573-0.218-2.132-0.277-2.677
					c-0.067-0.612-0.052-1.087,0.418-1.301c0.68-0.309,1.883-0.863,2.438-1.109c1.021-0.452,1.585-1.707,1.598-3.582l0.003-12.082
					c0-0.588-0.477-1.064-1.065-1.064H154.271z"/>
				<path fill="#FFFFFF" d="M341.711,232.791c0,0,6.333,11.458,8.062,14.604c1.314,2.393,2.789,3.057,4.794,4.195
					c0.512,0.291,0.671,0.485,0.578,1.453c-0.071,0.748-0.188,1.891-0.246,2.484c-0.081,0.828-0.667,0.93-1.488,0.93
					c-0.82,0-8.266,0-9.34,0c-1.18,0-1.643-0.246-2.062-1.008c-0.45-0.814-8.257-15.02-8.257-15.02l-2.942,2.811v3.92
					c0.013,1.797,0.842,2.959,1.649,3.41c0.523,0.293,1.314,0.732,1.949,1.082c0.489,0.271,0.526,0.613,0.46,1.381
					c-0.047,0.545-0.196,1.965-0.255,2.538c-0.065,0.638-0.5,0.887-1.496,0.887h-15.544c-0.886,0-1.442-0.154-1.518-0.887
					c-0.059-0.573-0.206-2.099-0.266-2.642c-0.075-0.684,0.046-1.031,0.495-1.285c0.594-0.337,1.43-0.803,1.963-1.098
					c0.767-0.424,1.389-1.568,1.389-3.445l-0.002-30.345c-0.005-2.1-0.801-3.053-1.418-3.399c-0.438-0.246-1.695-0.945-1.984-1.109
					c-0.436-0.247-0.519-0.719-0.434-1.301c0.078-0.542,0.175-1.242,0.254-1.814c0.105-0.764,0.604-0.887,1.51-0.887h11.224
					c0.955,0,2.021,0.705,2.021,2.037l0.002,23.186c0,0,6.298-5.672,7.228-6.508c0.664-0.597,0.476-1.232,0.102-1.405
					c-0.645-0.301-1.365-0.62-1.771-0.804c-0.445-0.203-0.676-0.441-0.598-1.18c0.073-0.699,0.196-1.83,0.248-2.366
					c0.067-0.694,0.303-0.979,1.448-0.979c0.911,0,12.882,0,13.72,0c0.86,0,1.152,0.296,1.206,0.859
					c0.062,0.645,0.216,1.975,0.277,2.617c0.049,0.513-0.311,0.811-1.066,1.086c-1.984,0.727-2.848,1.238-5.528,3.83
					C344.398,230.24,341.711,232.791,341.711,232.791z"/>
				<g>
					<path fill="#FFFFFF" d="M233.155,247.215c0.013,1.797,0.612,2.904,1.42,3.355c0.523,0.293,1.314,0.732,1.95,1.082
						c0.488,0.271,0.525,0.613,0.459,1.381c-0.047,0.545-0.196,1.965-0.255,2.538c-0.065,0.638-0.5,0.887-1.496,0.887h-15.544
						c-0.885,0-1.436-0.154-1.51-0.887c-0.059-0.573-0.213-2.099-0.273-2.642c-0.075-0.684,0.047-1.031,0.496-1.285
						c0.593-0.337,1.43-0.803,1.962-1.098c0.767-0.424,1.39-1.568,1.39-3.445l-0.003-17.008c-0.005-2.281-0.675-3.35-1.414-3.766
						c-0.438-0.246-1.055-0.602-1.344-0.766c-0.461-0.262-0.533-0.701-0.449-1.281c0.079-0.541,0.198-1.453,0.277-2.025
						c0.101-0.729,0.625-0.887,1.511-0.887h11.777c0.576,0,1.043,0.468,1.043,1.044L233.155,247.215z"/>
					<ellipse fill="#FFFFFF" cx="226.541" cy="213.288" rx="6.236" ry="6.018"/>
				</g>
				<path fill="#FFFFFF" d="M273.684,230.109c0-6.242-2.828-8.625-6.105-9.672c-3.783-1.205-8.35,0.775-10.694,1.859
					c-0.951,0.439-1.839,0.896-1.839,0.896c-0.605-1.423-0.927-1.823-1.824-1.823h-11.08c-0.886,0-1.41,0.158-1.511,0.887
					c-0.079,0.572-0.198,1.484-0.277,2.025c-0.084,0.58-0.012,1.02,0.449,1.281c0.289,0.164,0.906,0.52,1.344,0.766
					c0.739,0.416,1.409,1.484,1.414,3.766l0.003,17.008c0,1.877-0.623,3.021-1.39,3.445c-0.532,0.295-1.369,0.761-1.962,1.098
					c-0.449,0.254-0.571,0.602-0.496,1.285c0.061,0.543,0.215,2.068,0.273,2.642c0.074,0.732,0.625,0.887,1.51,0.887h15.544
					c0.996,0,1.431-0.249,1.496-0.887c0.059-0.573,0.208-1.993,0.255-2.538c0.066-0.768,0.029-1.11-0.459-1.381
					c-0.636-0.35-1.429-0.785-1.95-1.082c-1.007-0.571-1.425-2.053-1.425-3.399l0.006-13.519c0-3.53,1.721-5.514,4.087-5.805
					c1.571-0.197,3.587,0.771,3.587,3.551c0,2.324,0,13.025,0,18.211s4.408,7.172,7.867,7.172c3.664,0,6.791-1.684,8.189-4.611
					c0.441-0.926-0.1-1.631-0.555-2.133c-0.518-0.572-0.986-1.084-1.83-0.65c-0.838,0.43-1.713,1.258-2.217,0.979
					c-0.373-0.205-0.41-0.535-0.41-1.344V230.109z"/>
				<path fill="#FFFFFF" d="M424.591,230.109c0-6.242-2.828-8.625-6.105-9.672c-3.783-1.205-8.35,0.775-10.694,1.859
					c-0.951,0.439-1.839,0.896-1.839,0.896c-0.604-1.423-0.927-1.823-1.823-1.823h-11.081c-0.886,0-1.41,0.158-1.511,0.887
					c-0.078,0.572-0.198,1.484-0.277,2.025c-0.084,0.58-0.012,1.02,0.449,1.281c0.289,0.164,0.906,0.52,1.344,0.766
					c0.739,0.416,1.41,1.484,1.414,3.766l0.003,17.008c0,1.877-0.622,3.021-1.39,3.445c-0.532,0.295-1.369,0.761-1.962,1.098
					c-0.449,0.254-0.571,0.602-0.495,1.285c0.06,0.543,0.214,2.068,0.272,2.642c0.075,0.732,0.625,0.887,1.511,0.887h15.543
					c0.996,0,1.431-0.249,1.496-0.887c0.059-0.573,0.209-1.993,0.256-2.538c0.065-0.768,0.028-1.11-0.46-1.381
					c-0.636-0.35-1.429-0.785-1.95-1.082c-1.007-0.571-1.425-2.053-1.425-3.399l0.006-13.519c0-3.53,1.721-5.514,4.087-5.805
					c1.571-0.197,3.587,0.771,3.587,3.551c0,2.324,0,13.025,0,18.211s4.408,7.172,7.867,7.172c3.664,0,6.791-1.684,8.189-4.611
					c0.441-0.926-0.1-1.631-0.555-2.133c-0.518-0.572-0.986-1.084-1.83-0.65c-0.838,0.43-1.713,1.258-2.217,0.979
					c-0.373-0.205-0.41-0.535-0.41-1.344V230.109z"/>
			</g>
			<path fill="#FFFFFF" d="M432.611,210.846c0,3.797-3.084,6.871-6.869,6.871c-3.803,0-6.893-3.074-6.893-6.871
				c0-3.808,3.09-6.881,6.893-6.873C429.527,203.965,432.611,207.038,432.611,210.846z M431.213,210.846
				c0-3.037-2.449-5.484-5.471-5.484c-3.039,0-5.506,2.447-5.506,5.484c0,3.027,2.467,5.486,5.506,5.486
				C428.764,216.332,431.213,213.873,431.213,210.846z M428.594,212.487c0.119,0.804,0.482,1.383,0.68,1.806
				c-0.826,0-1.133-0.004-1.844-0.004c-0.352-0.789-0.43-1.32-0.605-1.867c-0.24-0.794-0.736-1.025-1.594-1.025
				c-0.541,0-0.621,0-0.635,0v2.893h-1.697v-7.406c0,0,2.963,0,3.543,0c0.826,0,2.252,0.489,2.252,2.064
				c0,0.99-0.549,1.676-1.105,1.885C428.203,211.234,428.473,211.692,428.594,212.487z M426.947,209.043
				c0-0.596-0.623-0.807-1.145-0.807c-0.527,0-1.193,0-1.193,0v1.7c0,0,0.783,0,1.361,0
				C426.551,209.937,426.947,209.553,426.947,209.043z"/>
		</g>
	</g>
</g>
</svg>
