<?xml version="1.0" encoding="utf-8"?>
<!-- Generator: Adobe Illustrator 16.0.0, SVG Export Plug-In . SVG Version: 6.00 Build 0)  -->
<!DOCTYPE svg PUBLIC "-//W3C//DTD SVG 1.1//EN" "http://www.w3.org/Graphics/SVG/1.1/DTD/svg11.dtd">
<svg version="1.1" id="Layer_1" xmlns="http://www.w3.org/2000/svg" xmlns:xlink="http://www.w3.org/1999/xlink" x="0px" y="0px"
	 width="200px" height="100px" viewBox="0 0 200 100" enable-background="new 0 0 200 100" xml:space="preserve">
<g>
	<g>
		<g>
			<path d="M56.332,49.062v0.827h-0.774v3.625H54.58V49.89h-0.768v-0.827H56.332z"/>
			<path d="M58.253,53.515v-4.452h0.984c0.624,0,1.739,0.059,1.739,1.276c0,0.49-0.216,0.91-0.702,1.152l0.859,2.024h-1.03
				l-0.859-2.055h-0.013v2.055H58.253z M59.231,50.976l0.17,0.006c0.446,0,0.624-0.272,0.624-0.638c0-0.319-0.17-0.579-0.663-0.555
				h-0.131V50.976z"/>
			<path d="M64.893,49.062l1.188,4.452h-1.043l-0.184-0.75h-0.99l-0.177,0.75h-0.971l1.148-4.452H64.893z M64.46,50.881
				l-0.112-0.673h-0.013l-0.105,0.673l-0.21,1.187h0.689L64.46,50.881z"/>
			<path d="M67.753,53.515v-4.452h0.742c0.17,0,2.217-0.224,2.217,2.262c0,1.27-0.544,2.19-2.086,2.19H67.753z M69.735,51.318
				c0-0.567-0.197-1.464-1.003-1.464v2.87C69.519,52.76,69.735,51.873,69.735,51.318z"/>
			<path d="M74.544,49.062v0.827h-0.991v0.968h0.873v0.827h-0.873v1.004h1.004v0.826h-1.981v-4.452H74.544z"/>
		</g>
		<g>
			<path d="M124.979,49.062l0.479,2.628h0.013l0.394-2.628h1.312l0.519,4.452h-1.004l-0.235-3.206h-0.014l-0.157,1.099l-0.42,2.107
				h-0.755l-0.479-2.131l-0.164-0.993v-0.083h-0.014l-0.144,3.206h-1.05l0.433-4.452H124.979z"/>
			<path d="M131.29,49.062l1.188,4.452h-1.043l-0.185-0.75h-0.99l-0.178,0.75h-0.971l1.148-4.452H131.29z M130.857,50.881
				l-0.111-0.673h-0.013l-0.105,0.673l-0.21,1.187h0.689L130.857,50.881z"/>
			<path d="M134.085,53.515v-4.452h0.984c0.624,0,1.738,0.059,1.738,1.276c0,0.49-0.216,0.91-0.702,1.152l0.86,2.024h-1.03
				l-0.859-2.055h-0.014v2.055H134.085z M135.062,50.976l0.171,0.006c0.446,0,0.624-0.272,0.624-0.638
				c0-0.319-0.171-0.579-0.663-0.555h-0.132V50.976z"/>
			<path d="M139.951,49.062v1.99h0.013l0.813-1.99h0.997l-0.911,2.056l1.029,2.396h-1.029l-0.899-2.267h-0.013v2.267h-0.978v-4.452
				H139.951z"/>
		</g>
	</g>
	<g>
		<path fill="#FFFFFF" d="M129.24,21.898c-0.29-0.89-1.113-1.458-2-1.463h-19.963L101.108,1.45c-0.28-0.842-1.074-1.45-2.01-1.45
			c-0.936,0-1.729,0.607-2.009,1.45l-6.169,18.985H70.958c-0.888,0.005-1.711,0.573-2,1.463c-0.29,0.89,0.043,1.833,0.757,2.359
			l16.15,11.734l-6.168,18.985c-0.269,0.847,0.016,1.805,0.773,2.354s1.756,0.525,2.478,0.008l16.15-11.734l16.151,11.734
			c0.722,0.518,1.72,0.542,2.478-0.008c0.757-0.55,1.042-1.508,0.773-2.354l-6.169-18.985l16.15-11.734
			C129.196,23.73,129.529,22.788,129.24,21.898z"/>
		<path fill="#ED1C24" d="M82.479,55.207c-0.136,0.099-0.327,0.104-0.471,0c-0.145-0.105-0.204-0.271-0.152-0.431l6.353-19.561
			L71.583,23.137c-0.137-0.099-0.197-0.273-0.142-0.443c0.055-0.17,0.207-0.277,0.375-0.277l20.552-0.001l6.349-19.541
			c0.052-0.161,0.202-0.277,0.38-0.277c0.178,0,0.328,0.117,0.381,0.277l6.349,19.541l20.554,0.001c0.169,0,0.326,0.107,0.382,0.277
			c0.055,0.169-0.011,0.345-0.147,0.444l-16.628,12.078l6.353,19.554c0.052,0.161-0.005,0.332-0.149,0.438
			c-0.145,0.104-0.335,0.099-0.471,0L99.099,43.128L82.479,55.207z"/>
		<g>
			<path d="M85.866,35.991l-16.15-11.734c-0.281-0.207-0.501-0.479-0.65-0.787c-0.051,0.766,0.234,1.535,0.84,1.968l15.688,11.392
				L85.866,35.991z"/>
			<path d="M112.332,35.991l16.15-11.734c0.281-0.207,0.501-0.479,0.65-0.787c0.051,0.766-0.234,1.535-0.84,1.968l-15.688,11.392
				L112.332,35.991z"/>
			<path d="M99.099,46.821l15.825,11.494c0.959,0.703,2.309,0.493,3.013-0.466c0.274-0.375,0.408-0.808,0.415-1.238
				c-0.146,0.275-0.354,0.522-0.624,0.719c-0.758,0.55-1.756,0.525-2.478,0.008L99.099,45.604l-16.15,11.734
				c-0.721,0.518-1.72,0.542-2.478-0.008c-0.269-0.196-0.478-0.443-0.624-0.719c0.007,0.431,0.141,0.863,0.415,1.238
				c0.704,0.959,2.053,1.169,3.013,0.466L99.099,46.821z"/>
		</g>
	</g>
	<g>
		<g>
			<path fill="#008742" d="M52.591,91.981c-1.279,1.28-2.94,2.554-4.576,3.072c-1.541,0.496-5.935,0.881-7.227-2.748
				c-0.28-0.785-0.053-1.029,0.659-1.239c1.059-0.315,3.791-1.118,6.672-2.199c2.616-0.976,4.95-2.174,5.681-2.662
				c1.309-0.859,1.502-2.068,0.927-3.369c-1.835-4.127-5.989-8.448-12.894-7.135c-5.488,1.047-9.419,5.988-9.419,11.639
				c0,6.999,4.218,11.091,9.584,12.359c4.961,1.18,10.794-1.225,13.29-5.269C56.278,92.873,53.492,91.025,52.591,91.981z
				 M40.162,86.474c-0.539-1.484-0.108-6.026,2.394-6.883c2.631-0.903,4.249,0.453,5.035,3.105c0.293,0.984,0.228,2.023-0.093,2.413
				c-0.467,0.565-1.3,0.902-2.05,1.156l-1.969,0.651C41.541,87.576,40.616,87.708,40.162,86.474z"/>
			<path fill="#008742" d="M116.867,91.981c-1.275,1.28-2.939,2.554-4.572,3.072c-1.541,0.496-5.937,0.881-7.229-2.748
				c-0.279-0.785-0.051-1.029,0.66-1.239c1.06-0.315,3.79-1.118,6.673-2.199c2.617-0.976,4.95-2.174,5.68-2.662
				c1.31-0.859,1.504-2.068,0.929-3.369c-1.837-4.127-5.989-8.448-12.895-7.135c-5.49,1.047-9.42,5.988-9.42,11.639
				c0,6.999,4.216,11.091,9.584,12.359c4.96,1.18,10.794-1.225,13.291-5.269C120.558,92.873,117.771,91.025,116.867,91.981z
				 M104.44,86.474c-0.32-0.889-0.299-2.868,0.308-4.501c0.41-1.097,1.017-1.954,2.086-2.382c1.203-0.484,2.232-0.352,3.037,0.112
				c0.921,0.529,1.578,1.577,1.997,2.993c0.292,0.984,0.229,2.023-0.094,2.413c-0.469,0.565-1.195,0.85-2.049,1.156
				c-0.851,0.304-1.61,0.549-1.969,0.662C105.808,87.537,104.894,87.708,104.44,86.474z"/>
			<path fill="#008742" d="M165.867,91.981c-1.274,1.28-2.939,2.554-4.574,3.072c-1.539,0.496-5.935,0.881-7.228-2.748
				c-0.279-0.785-0.051-1.029,0.66-1.239c1.06-0.315,3.79-1.118,6.674-2.199c2.613-0.976,4.95-2.174,5.679-2.662
				c1.309-0.859,1.502-2.068,0.928-3.369c-1.835-4.127-5.989-8.448-12.895-7.135c-5.488,1.047-9.418,5.988-9.418,11.639
				c0,6.999,4.216,11.091,9.583,12.359c4.961,1.18,10.792-1.225,13.29-5.269C169.557,92.873,166.771,91.025,165.867,91.981z
				 M153.44,86.474c-0.323-0.889-0.299-2.868,0.308-4.501c0.41-1.097,1.018-1.954,2.086-2.382c1.203-0.484,2.232-0.352,3.037,0.112
				c0.921,0.529,1.576,1.577,1.997,2.993c0.291,0.984,0.229,2.023-0.093,2.413c-0.467,0.565-1.193,0.85-2.049,1.156
				c-0.853,0.304-1.612,0.549-1.971,0.662C154.805,87.537,153.896,87.708,153.44,86.474z"/>
			<path fill="#008742" d="M14.499,84.635c-0.386,0-0.699,0.313-0.699,0.699l0.002,7.927c0.008,1.229,0.379,2.053,1.048,2.35
				c0.364,0.161,1.153,0.525,1.599,0.728c0.308,0.141,0.318,0.452,0.274,0.854c-0.04,0.357-0.144,1.38-0.183,1.756
				c-0.042,0.41-0.361,0.582-0.982,0.582H4.086c-0.581,0-0.942-0.102-0.991-0.582c-0.039-0.376-0.146-1.454-0.185-1.812
				c-0.05-0.454,0.042-0.688,0.323-0.819c0.384-0.18,1.222-0.552,1.584-0.721c0.711-0.33,1.015-1.294,1.015-2.308L5.829,73.686
				c-0.002-1.093-0.309-1.978-1.105-2.348c-0.362-0.167-1.119-0.51-1.487-0.686c-0.306-0.145-0.388-0.427-0.329-0.827
				c0.051-0.355,0.136-0.97,0.187-1.345c0.066-0.478,0.41-0.582,0.991-0.582h10.94c0.581,0,0.916,0.104,0.981,0.582
				c0.052,0.375,0.136,0.989,0.188,1.345c0.058,0.4-0.021,0.677-0.319,0.837c-0.389,0.21-0.936,0.516-1.286,0.707
				c-0.472,0.258-0.78,0.792-0.79,2.056l-0.002,5.713c0,0.388,0.313,0.7,0.699,0.7h6.126c0.387,0,0.699-0.312,0.699-0.7
				l-0.002-5.713c-0.009-1.264-0.317-1.798-0.789-2.056c-0.351-0.191-0.897-0.497-1.287-0.707c-0.298-0.16-0.377-0.437-0.318-0.837
				c0.052-0.355,0.136-0.97,0.188-1.345c0.066-0.478,0.4-0.582,0.981-0.582h10.94c0.581,0,0.925,0.104,0.991,0.582
				c0.051,0.375,0.135,0.989,0.187,1.345c0.059,0.4-0.023,0.683-0.329,0.827c-0.369,0.176-1.125,0.519-1.487,0.686
				c-0.796,0.37-1.103,1.255-1.105,2.348l-0.002,19.602c0,1.014,0.303,1.978,1.015,2.308c0.362,0.169,1.199,0.541,1.583,0.721
				c0.281,0.131,0.373,0.365,0.323,0.819c-0.039,0.358-0.146,1.437-0.185,1.812c-0.049,0.48-0.411,0.582-0.991,0.582H19.564
				c-0.621,0-0.94-0.172-0.982-0.582c-0.038-0.376-0.143-1.398-0.182-1.756c-0.044-0.401-0.034-0.713,0.274-0.854
				c0.446-0.202,1.235-0.566,1.599-0.728c0.67-0.297,1.04-1.12,1.048-2.35l0.002-7.927c0-0.386-0.312-0.699-0.699-0.699H14.499z"/>
			<path fill="#008742" d="M137.473,84.002c0,0,4.155,7.518,5.29,9.581c0.862,1.57,1.83,2.006,3.146,2.753
				c0.335,0.19,0.439,0.318,0.379,0.953c-0.047,0.49-0.123,1.24-0.161,1.63c-0.054,0.543-0.438,0.609-0.977,0.609
				c-0.538,0-5.423,0-6.128,0c-0.773,0-1.077-0.161-1.354-0.661c-0.295-0.534-5.417-9.854-5.417-9.854l-1.93,1.845v2.572
				c0.008,1.179,0.552,1.941,1.082,2.237c0.343,0.192,0.862,0.48,1.278,0.71c0.321,0.177,0.346,0.402,0.302,0.905
				c-0.03,0.357-0.129,1.289-0.167,1.665c-0.043,0.419-0.328,0.582-0.981,0.582h-10.198c-0.581,0-0.946-0.102-0.995-0.582
				c-0.039-0.376-0.136-1.376-0.175-1.733c-0.049-0.447,0.03-0.676,0.325-0.843c0.39-0.221,0.938-0.526,1.288-0.72
				c0.503-0.278,0.911-1.029,0.911-2.261l-0.002-19.908c-0.003-1.377-0.525-2.003-0.93-2.23c-0.287-0.161-1.112-0.62-1.302-0.728
				c-0.286-0.162-0.341-0.472-0.285-0.854c0.052-0.355,0.115-0.815,0.167-1.19c0.069-0.501,0.396-0.582,0.99-0.582h7.363
				c0.627,0,1.326,0.463,1.326,1.337l0.001,15.212c0,0,4.132-3.722,4.742-4.27c0.436-0.392,0.312-0.809,0.066-0.923
				c-0.423-0.197-0.896-0.406-1.162-0.526c-0.292-0.134-0.443-0.29-0.392-0.774c0.048-0.459,0.129-1.201,0.163-1.553
				c0.044-0.455,0.198-0.643,0.949-0.643c0.599,0,8.452,0,9.002,0c0.564,0,0.756,0.194,0.791,0.564
				c0.041,0.423,0.142,1.295,0.182,1.717c0.032,0.336-0.203,0.531-0.699,0.712c-1.302,0.478-1.868,0.812-3.627,2.514
				C139.236,82.329,137.473,84.002,137.473,84.002z"/>
			<g>
				<path fill="#008742" d="M66.252,93.465c0.008,1.18,0.402,1.906,0.932,2.202c0.343,0.192,0.862,0.48,1.279,0.71
					c0.32,0.177,0.345,0.402,0.301,0.905c-0.031,0.357-0.129,1.289-0.167,1.665c-0.043,0.419-0.328,0.582-0.981,0.582H57.418
					c-0.581,0-0.942-0.102-0.991-0.582c-0.039-0.376-0.14-1.376-0.179-1.733c-0.049-0.447,0.031-0.676,0.325-0.843
					c0.389-0.221,0.938-0.526,1.287-0.72c0.503-0.278,0.912-1.029,0.912-2.261l-0.002-11.158c-0.003-1.497-0.443-2.197-0.928-2.471
					c-0.287-0.161-0.692-0.395-0.882-0.503c-0.302-0.171-0.35-0.46-0.294-0.84c0.052-0.354,0.13-0.953,0.182-1.328
					c0.066-0.479,0.41-0.582,0.991-0.582h7.727c0.378,0,0.684,0.307,0.684,0.685L66.252,93.465z"/>
				<ellipse fill="#008742" cx="61.913" cy="71.207" rx="4.092" ry="3.948"/>
			</g>
			<path fill="#008742" d="M92.842,82.243c0-4.096-1.855-5.659-4.005-6.347c-2.482-0.79-5.478,0.51-7.017,1.221
				c-0.624,0.288-1.206,0.588-1.206,0.588c-0.397-0.934-0.608-1.196-1.197-1.196h-7.269c-0.581,0-0.925,0.104-0.991,0.582
				c-0.052,0.375-0.13,0.974-0.182,1.328c-0.055,0.38-0.007,0.669,0.295,0.84c0.189,0.108,0.595,0.342,0.881,0.503
				c0.485,0.273,0.925,0.974,0.928,2.471l0.002,11.158c0,1.231-0.409,1.982-0.912,2.261c-0.349,0.193-0.898,0.499-1.287,0.72
				c-0.294,0.167-0.375,0.396-0.325,0.843c0.04,0.357,0.141,1.357,0.179,1.733c0.049,0.48,0.41,0.582,0.991,0.582h10.198
				c0.653,0,0.938-0.163,0.981-0.582c0.039-0.376,0.137-1.308,0.167-1.665c0.043-0.503,0.019-0.729-0.301-0.905
				c-0.417-0.229-0.938-0.516-1.28-0.71c-0.66-0.375-0.935-1.347-0.935-2.23l0.004-8.869c0-2.316,1.129-3.618,2.681-3.809
				c1.031-0.129,2.354,0.507,2.354,2.33c0,1.524,0,8.545,0,11.947s2.892,4.705,5.161,4.705c2.404,0,4.456-1.104,5.373-3.025
				c0.29-0.607-0.065-1.069-0.364-1.399c-0.34-0.375-0.647-0.711-1.201-0.426c-0.55,0.281-1.124,0.825-1.455,0.642
				c-0.245-0.135-0.269-0.352-0.269-0.882V82.243z"/>
			<path fill="#008742" d="M191.848,82.243c0-4.096-1.855-5.659-4.005-6.347c-2.482-0.79-5.479,0.51-7.017,1.221
				c-0.624,0.288-1.206,0.588-1.206,0.588c-0.396-0.934-0.608-1.196-1.196-1.196h-7.271c-0.581,0-0.925,0.104-0.991,0.582
				c-0.051,0.375-0.13,0.974-0.182,1.328c-0.055,0.38-0.008,0.669,0.295,0.84c0.189,0.108,0.595,0.342,0.882,0.503
				c0.484,0.273,0.925,0.974,0.928,2.471l0.002,11.158c0,1.231-0.408,1.982-0.912,2.261c-0.35,0.193-0.898,0.499-1.287,0.72
				c-0.295,0.167-0.375,0.396-0.325,0.843c0.039,0.357,0.141,1.357,0.179,1.733c0.05,0.48,0.41,0.582,0.991,0.582h10.197
				c0.654,0,0.939-0.163,0.981-0.582c0.039-0.376,0.138-1.308,0.168-1.665c0.043-0.503,0.019-0.729-0.302-0.905
				c-0.417-0.229-0.938-0.516-1.279-0.71c-0.66-0.375-0.935-1.347-0.935-2.23l0.004-8.869c0-2.316,1.129-3.618,2.682-3.809
				c1.03-0.129,2.353,0.507,2.353,2.33c0,1.524,0,8.545,0,11.947s2.893,4.705,5.162,4.705c2.403,0,4.455-1.104,5.372-3.025
				c0.29-0.607-0.065-1.069-0.363-1.399c-0.34-0.375-0.647-0.711-1.201-0.426c-0.55,0.281-1.123,0.825-1.454,0.642
				c-0.245-0.135-0.27-0.352-0.27-0.882V82.243z"/>
		</g>
		<path fill="#008742" d="M197.11,69.604c0,2.492-2.023,4.509-4.507,4.509c-2.495,0-4.522-2.017-4.522-4.509
			c0-2.498,2.027-4.514,4.522-4.509C195.087,65.09,197.11,67.105,197.11,69.604z M196.192,69.604c0-1.991-1.606-3.597-3.589-3.597
			c-1.994,0-3.612,1.605-3.612,3.597c0,1.987,1.618,3.601,3.612,3.601C194.586,73.204,196.192,71.591,196.192,69.604z
			 M194.475,70.681c0.078,0.528,0.316,0.907,0.445,1.186c-0.542,0-0.743-0.003-1.209-0.003c-0.231-0.518-0.282-0.866-0.397-1.225
			c-0.157-0.521-0.483-0.674-1.046-0.674c-0.354,0-0.407,0-0.416,0v1.898h-1.114v-4.859c0,0,1.944,0,2.325,0
			c0.542,0,1.478,0.321,1.478,1.354c0,0.649-0.36,1.1-0.726,1.236C194.218,69.859,194.395,70.159,194.475,70.681z M193.395,68.422
			c0-0.392-0.409-0.529-0.751-0.529c-0.347,0-0.783,0-0.783,0v1.115c0,0,0.514,0,0.893,0
			C193.134,69.008,193.395,68.756,193.395,68.422z"/>
	</g>
</g>
</svg>
