<?xml version="1.0" encoding="utf-8"?>
<!-- Generator: Adobe Illustrator 16.0.0, SVG Export Plug-In . SVG Version: 6.00 Build 0)  -->
<!DOCTYPE svg PUBLIC "-//W3C//DTD SVG 1.1//EN" "http://www.w3.org/Graphics/SVG/1.1/DTD/svg11.dtd">
<svg version="1.1" id="Layer_1" xmlns="http://www.w3.org/2000/svg" xmlns:xlink="http://www.w3.org/1999/xlink" x="0px" y="0px"
	 width="260px" height="100px" viewBox="0 0 260 100" enable-background="new 0 0 260 100" xml:space="preserve">
<g id="LOGO">
	<g>
		<g>
			<path d="M67.193,45.454v-9.088h9.091v9.088H67.193z M67.194,90.901V54.545h9.091v36.356H67.194z"/>
		</g>
		<g>
			<path d="M103.427,90.91l0.056-21.419c0-2.726-0.455-4.563-1.362-5.521c-0.908-0.955-2.462-1.434-4.661-1.434
				c-4.828,0-7.241,2.7-7.241,8.102V90.91h-9.32V54.545h8.889v6.183c1.096-2.025,2.55-3.556,4.359-4.593
				c1.812-1.037,4.146-1.556,7.004-1.556c1.668,0,3.217,0.251,4.646,0.755c1.429,0.503,2.657,1.257,3.681,2.263
				s1.833,2.238,2.43,3.698c0.595,1.462,0.893,3.149,0.893,5.065l-0.055,24.55H103.427z"/>
		</g>
		<g>
			<g>
				<path fill="#5C6670" d="M148.572,78.022c-0.24,2.071-0.83,3.949-1.771,5.635c-0.938,1.687-2.129,3.131-3.574,4.335
					s-3.096,2.145-4.947,2.817c-1.855,0.674-3.865,1.012-6.033,1.012c-2.409,0-4.613-0.397-6.611-1.192
					c-1.999-0.796-3.72-1.998-5.165-3.612c-1.445-1.612-2.564-3.612-3.358-5.997c-0.795-2.383-1.193-5.165-1.193-8.343
					c0-3.18,0.398-5.925,1.193-8.236c0.794-2.312,1.913-4.201,3.358-5.672c1.445-1.469,3.19-2.563,5.237-3.287
					c2.046-0.722,4.322-1.083,6.828-1.083c2.311,0,4.418,0.314,6.32,0.939c1.902,0.626,3.564,1.541,4.984,2.745
					c1.42,1.205,2.541,2.649,3.361,4.335c0.816,1.686,1.301,3.564,1.443,5.635h-9.463c-0.242-1.83-0.977-3.263-2.203-4.299
					c-1.229-1.035-2.734-1.554-4.516-1.554c-1.012,0-1.951,0.17-2.818,0.507c-0.867,0.337-1.625,0.902-2.275,1.697
					c-0.65,0.795-1.168,1.855-1.553,3.179c-0.386,1.325-0.579,2.951-0.579,4.877c0,3.901,0.698,6.791,2.096,8.669
					c1.397,1.879,3.009,2.817,4.84,2.817c1.83,0,3.395-0.506,4.695-1.517c1.299-1.012,2.047-2.48,2.24-4.407H148.572z"/>
			</g>
		</g>
		<g>
			<g>
				<path fill="#5C6670" d="M175.631,90.903V84.93c-2.422,3.971-6.127,5.956-11.111,5.956c-1.791,0-3.426-0.316-4.902-0.945
					c-1.477-0.628-2.746-1.524-3.811-2.687c-1.068-1.162-1.902-2.542-2.508-4.14s-0.906-3.388-0.906-5.374V54.531h9.441v21.757
					c0,4.455,2.008,6.681,6.027,6.681c2.42,0,4.248-0.763,5.482-2.287c1.234-1.525,1.852-3.474,1.852-5.846V54.531h9.369v36.372
					H175.631z"/>
			</g>
		</g>
		<g>
			<g>
				<path fill="#5C6670" d="M188.787,90.908v-50h9.297v18.918c2.662-3.728,6.195-5.592,10.602-5.592
					c2.324,0,4.395,0.448,6.209,1.343c1.816,0.897,3.354,2.169,4.613,3.813c1.256,1.646,2.215,3.595,2.867,5.846
					c0.654,2.251,0.982,4.733,0.982,7.444c0,3.003-0.391,5.688-1.164,8.061c-0.773,2.373-1.842,4.382-3.195,6.027
					c-1.355,1.646-2.99,2.905-4.902,3.776s-3.98,1.308-6.209,1.308c-4.453,0-7.771-1.767-9.947-5.302l-0.074,4.357H188.787z
					 M205.709,84.155c2.373,0,4.309-1.005,5.811-3.015c1.5-2.009,2.25-4.611,2.25-7.807c0-7.359-2.711-11.039-8.133-11.039
					c-5.277,0-7.916,3.875-7.916,11.62c0,3.049,0.762,5.519,2.287,7.407C201.533,83.21,203.434,84.155,205.709,84.155z"/>
			</g>
		</g>
		<g>
			<g>
				<path fill="#5C6670" d="M234.787,75.387c0.143,2.69,0.924,4.828,2.34,6.412c1.416,1.585,3.279,2.378,5.584,2.378
					c1.537,0,2.893-0.349,4.07-1.045c1.178-0.695,1.934-1.668,2.27-2.917h9.654c-1.105,3.65-3.025,6.459-5.762,8.43
					c-2.74,1.969-6.006,2.954-9.801,2.954c-11.814,0-17.723-6.438-17.723-19.31c0-2.738,0.385-5.211,1.152-7.421
					c0.768-2.209,1.885-4.107,3.35-5.692c1.465-1.584,3.254-2.797,5.367-3.638s4.541-1.262,7.277-1.262
					c5.477,0,9.619,1.754,12.43,5.261c2.809,3.506,4.213,8.789,4.213,15.85H234.787z M250.24,68.852
					c-0.051-1.332-0.285-2.506-0.703-3.519c-0.422-1.012-0.977-1.852-1.668-2.519c-0.693-0.667-1.482-1.16-2.371-1.482
					c-0.889-0.32-1.803-0.481-2.742-0.481c-1.926,0-3.592,0.704-5,2.111c-1.408,1.408-2.211,3.371-2.408,5.89H250.24z"/>
			</g>
		</g>
	</g>
	<g>
		<g>
			<path fill="#F42534" d="M41.081,20.721c-0.057-0.119-0.175-0.189-0.317-0.189c0,0-0.797,0.146-1.136,0.234
				c-0.026-0.561-0.11-1.112-0.287-1.638l-0.23-0.4c-0.16-0.093-0.436-0.005-0.526,0.061l-0.222,0.164
				c-2.064,1.572-3.665,3.588-5.156,5.635c-0.576,0.558-1.1,1.126-1.564,1.679c1.483-3.609,2.499-7.315,2.966-10.85
				c0.854-6.48-0.46-11.155-3.906-13.893C29.825,0.829,28.461,0,26.942,0c-0.772,0-1.484,0.217-2.127,0.643
				c-3.108,0.764-3.845,4.941-4.096,6.367c-0.296,1.693-0.43,3.423-0.469,5.153c-0.157,0.995-0.292,1.989-0.409,2.973
				c-0.447-1.89-1.009-3.751-1.775-5.543c-0.557-1.301-1.282-2.533-2.222-3.766c-0.458-0.603-0.92-1.178-1.432-1.653
				c-0.46-0.994-1.057-2.045-1.959-2.811c-0.531-0.449-1.173-0.688-1.856-0.688c-1.444,0-2.86,1.04-3.368,2.475
				C6.69,4.664,6.864,6.361,7.068,7.835c0.322,2.321,0.996,4.604,1.545,6.333c1.316,4.131,3.124,8.521,5.526,13.424
				c1.045,2.132,2.229,4.548,3.692,6.682l0.143,0.15h0.157c0.083,0,0.254-0.036,0.37-0.135c0.002,0.062,0.01,0.127,0.012,0.19
				c0.001,0.158,0.125,0.317,0.354,0.317c0.078,0,0.164-0.017,0.237-0.047c0.158-0.064,0.253-0.192,0.253-0.343
				c-0.017-2.081-0.923-4.165-1.722-6.004l-0.177-0.41c-0.583-1.348-1.21-2.7-1.817-4.01c-0.617-1.329-1.256-2.704-1.846-4.072
				c-1.042-2.418-2.089-5.008-2.446-7.736c-0.325-2.487-0.57-4.901-0.002-7.083c0.148-0.572,0.43-1.257,0.963-1.257h0.002
				c0.471,0.029,0.949,0.382,1.361,0.775c0.021,0.045,0.044,0.092,0.064,0.136c1.478,3.255,2.179,6.805,2.88,10.775
				c0.638,3.605,1.101,7.329,1.508,10.615c0,0,0.248,2.115,0.401,2.839l0.178,0.299h0.173c0.079,0,0.246-0.025,0.364-0.12
				l0.138-0.263c0.178-0.81,0.346-2.819,0.346-2.819c0.086-0.996,0.16-1.993,0.234-2.989c0.041-0.549,0.133-1.761,0.138-1.817
				c0.11,0.729,0.219,1.457,0.324,2.18c0.201,1.377,0.691,4.463,0.691,4.463c0.023,0.137,0.141,0.273,0.351,0.273
				c0.11,0,0.263-0.04,0.364-0.13l0.125-0.286c-0.002-0.956-0.562-7.34-0.675-9.167c-0.127-2.091-0.23-4.246-0.188-6.394
				c0.112-0.71,0.23-1.42,0.367-2.126c0.377-1.972,0.797-3.552,1.319-4.972c0.578-1.58,1.182-2.644,1.952-3.449
				c0.126-0.132,0.258-0.24,0.393-0.344c0.616-0.126,1.296-0.084,1.996,0.14c2.584,0.823,4.029,3.682,4.417,8.737
				c0.254,3.314,0.033,6.877-0.716,11.552c-0.386,2.409-0.958,5.553-1.948,8.539l-0.473,0.526c0,0,0.275,0.021,0.68,0.044
				c0.325,0.017,0.56-0.294,0.56-0.294c1.221-1.369,2.307-2.89,3.355-4.361c0.243-0.338,0.485-0.678,0.731-1.017
				c0.797-0.771,1.637-1.471,2.519-2.078c0.657-0.451,1.375-0.851,2.137-1.191c0.122-0.054,0.255-0.104,0.387-0.154
				c-0.036,0.542-0.114,1.088-0.204,1.625c-0.282,1.664-0.799,3.411-1.625,5.497c-0.723,1.827-1.548,3.486-2.455,4.935
				c-0.432,0.69-0.852,1.259-1.282,1.736c-0.012,0.015-0.027,0.03-0.041,0.045c-0.16,0.157-0.318,0.312-0.478,0.469
				c-0.167,0.136-0.349,0.247-0.53,0.276c-0.201,0.034-0.398,0.195-0.379,0.408l0.037,0.167c-0.022,0.021-0.045,0.044-0.066,0.065
				l-0.302,0.292c-0.231,0.226-0.463,0.452-0.692,0.681l-0.148,0.157l0.076,0.184L30.8,38.49H31c0.028,0,0.264-0.003,0.394-0.132
				c0.417-0.414,0.837-0.825,1.255-1.236c0.179-0.176,0.36-0.353,0.538-0.528c0.352-0.255,0.663-0.584,0.933-0.924
				c1.619-1.616,3.221-3.303,4.603-5.16C41.611,26.628,42.381,23.427,41.081,20.721z M19.544,17.943
				c-0.095,0.988-0.176,1.954-0.25,2.877c-0.063,0.771-0.108,1.552-0.15,2.335c-0.057,1.006-0.116,2.03-0.215,3.046
				c-0.095-0.75-0.175-1.503-0.253-2.242c-0.091-0.854-0.181-1.706-0.293-2.547c-0.476-3.529-1.1-7.684-2.123-11.741
				c-0.297-1.181-0.592-2.188-0.902-3.104c1.136,1.559,2.055,3.424,2.78,5.663C18.741,14.092,19.183,16.011,19.544,17.943z
				 M31.837,6.507C31.25,4.082,29.8,1.522,27.425,0.75c1.536,0.257,3.083,1.496,4.086,2.671c2.46,2.879,3.12,7.289,2.02,13.483
				c-0.531,2.985-1.426,6.028-2.624,8.989c0.392-1.803,0.731-3.799,1.042-6.12C32.494,15.692,32.906,10.926,31.837,6.507z
				 M36.227,32.368c0.383-0.736,0.767-1.548,1.165-2.476c0.898-2.091,1.548-4.125,1.93-6.046c0.15-0.758,0.282-1.571,0.312-2.385
				c0.023-0.008,0.042-0.015,0.063-0.021c0.07-0.02,0.139-0.042,0.207-0.064c0.156-0.05,0.303-0.098,0.404-0.098
				c0.05,0,0.097,0,0.156,0.139c0.399,0.95,0.486,2.103,0.25,3.334c-0.489,2.578-2.222,4.93-3.853,6.89
				C36.656,31.888,36.439,32.125,36.227,32.368z M38.614,19.677c0.115,0.431,0.166,0.882,0.173,1.342
				c-1.086,0.372-2.092,0.891-3.013,1.496C36.637,21.486,37.565,20.518,38.614,19.677z M13.512,24.282
				c-2.438-5.332-3.975-9.496-4.984-13.503c-0.388-1.532-0.826-3.546-0.793-5.53c0.028-1.621,0.448-2.683,1.323-3.34
				C9.525,1.559,9.989,1.38,10.435,1.38c0.993,0,1.839,0.876,2.468,1.835c-0.189-0.064-0.378-0.105-0.557-0.105
				c-1.405,0-1.86,1.883-1.989,2.691c-0.384,2.386-0.087,4.967,0.215,6.948c0.402,2.648,1.447,5.198,2.573,7.796
				c0.57,1.317,1.184,2.639,1.777,3.917c0.604,1.301,1.228,2.646,1.807,3.983l0.131,0.304c0.667,1.54,1.411,3.26,1.604,4.96
				C16.489,30.787,14.975,27.481,13.512,24.282z"/>
			<g>
				<path d="M38.987,95.761c-0.555-0.515-1.129-1.047-1.716-1.544c0,0-0.652-0.732-0.921-1.05c-0.317-0.374-0.633-0.748-0.944-1.128
					h0l-1.113-1.384l0.23,0.98c-0.021,0.013-0.04,0.025-0.059,0.041l-0.341,0.097l0.239,0.298c0.057,0.251,0.107,0.506,0.156,0.761
					c-0.235-0.372-0.486-0.745-0.75-1.116l0.033-0.246c0.046-0.017,0.094-0.039,0.136-0.07l0.176-0.047l-0.03-0.222l0.049-0.385
					c0.007-0.055,0.014-0.108,0.021-0.162l0.35-0.106l-0.312-0.188c0.159-1.245,0.319-2.49,0.484-3.734h-0.001
					c0-0.002,0-0.006,0-0.008l0.001,0.001l0.03-0.132c0.319-1.401,0.6-2.775,0.562-4.123l-0.136-1.041h-0.262
					c-0.012,0-0.28,0.001-0.42,0.161l-0.097,0.122c0,0,0.068,0.671,0.072,0.955c0,0-0.687,4.464-0.739,4.676
					c-0.136-1.399-0.317-2.816-0.691-4.194l-0.045-0.316c0,0-0.595,0.095-0.712,0.225l-0.096,0.123c0,0,0.39,2.689,0.557,3.799
					l0.263,1.755c0.032,0.358,0.062,0.717,0.097,1.074l-0.048,0.193c-0.081-0.007-0.161-0.011-0.244-0.011
					c-1.968,0-3.953,2.293-4.232,2.628l-0.673,0.631l0.797-0.12h0.124c0.003,0,0.008,0,0.011,0c-0.71,0.673-1.406,1.362-2.09,2.045
					l-0.15,0.159l0.184,0.376h0.198c0.09,0,0.223-0.028,0.273-0.05c1.115-0.457,2.227-1.127,3.365-2.027
					c-0.587,0.989-1.164,1.998-1.689,3.023l-1,0.625l1.252-0.091c0.076,0,0.233-0.029,0.324-0.074l0.115-0.072
					c1.704-1.11,2.606-2.992,3.083-4.669l0.048,0.043h0.143c0.009,0,0.122,0,0.238-0.045c0.892,1.264,1.598,2.498,2.154,3.767
					c0.066,0.172,0.313,0.75,0.313,0.75l0.225-0.04c0.081,0,0.335-0.037,0.445-0.203l0.092-0.146l-0.062-0.146
					c-0.031-0.077-0.174-0.419-0.212-0.506c-0.268-0.72-0.411-1.459-0.548-2.237c0.049,0.06,0.989,1.176,0.989,1.176
					c0.099,0.118,0.196,0.239,0.294,0.36l0.195,0.306c0.359,0.57,1.16,1.695,1.16,1.695l2.195,2.28l-1.2-1.979l0.231-0.068
					c1.196,1.073,2.469,2.093,3.979,2.766l0.149,0.03c0.095,0,0.446-0.076,0.5-0.319l0.048-0.239l-0.22-0.098
					C41.964,98.521,40.45,97.117,38.987,95.761z M32.089,91.034c-0.013,0.064-0.026,0.129-0.04,0.194
					c-0.032,0.01-2.657,2.325-2.892,2.394C30.092,92.735,31.069,91.853,32.089,91.034z"/>
				<path d="M48.436,60.357c0.16-7.164,0.317-14.55-1.182-21.726c0.254-0.006,0.508-0.01,0.762-0.015l0.204-0.048
					c0.14-0.064,0.265-0.19,0.269-0.358c0.004-0.154-0.105-0.327-0.35-0.345h-0.002c-0.35-0.024-0.705-0.047-1.059-0.068
					c-0.102-0.446-0.208-0.892-0.323-1.337l-0.197-0.304c-0.157-0.085-0.405-0.049-0.552,0.101c0,0-0.17,0.274-0.331,1.463
					c-0.227-0.012-0.457-0.021-0.688-0.032c-0.21-0.9-0.435-1.788-0.684-2.644l-0.195-0.286c-0.159-0.085-0.413-0.048-0.555,0.103
					l-0.108,0.281c-0.108,0.826-0.203,1.651-0.288,2.475c-1.771-0.057-3.61-0.086-5.545-0.086c-5.853,0-11.8,0.264-17.55,0.518
					l-1.32,0.058c-2.239-0.014-4.498-0.035-6.763-0.062c2.328-0.287,4.553-0.538,6.729-0.757c3.029-0.064,6.043-0.069,9.386-0.069
					c0.214,0,0.465-0.182,0.465-0.417c0-0.116-0.064-0.234-0.186-0.294c3.776-0.225,11.107-0.385,11.107-0.385
					c0.146-0.069,0.266-0.206,0.266-0.369c0-0.166-0.127-0.335-0.369-0.335c0,0-8.145-0.119-12.035-0.229
					c-3.992-0.112-8.121-0.229-12.183-0.229c-4.524,0-12.301,0.479-12.301,0.479c-0.141,0.047-0.323,0.166-0.314,0.343
					c0.014,0.271,0.335,0.392,0.335,0.392c0.99,0.301,1.947,0.343,2.836,0.344l0,0c0.215,0,0.464-0.182,0.464-0.417
					c0-0.054-0.013-0.108-0.041-0.158c2.746-0.154,5.701-0.231,8.955-0.231c3.655,0,7.367,0.095,10.984,0.195
					c-2.372,0.167-4.812,0.375-7.35,0.63c-6.639,0.143-16.979,1.355-16.979,1.355c-0.04-0.259-0.074-0.521-0.116-0.778
					C1.63,37.1,1.452,36.857,1.452,36.857c-0.161-0.089-0.421-0.05-0.563,0.101L0.791,37.24v40.524c0,0.212,0.17,0.372,0.396,0.372
					l0,0c0.215,0,0.442-0.144,0.451-0.385l0.012-0.34l-0.002,0.001c0.024-0.936,0.039-1.874,0.047-2.813
					c0.214,0.1,0.582-0.005,0.637-0.3c0.079-0.426,0.156-0.856,0.229-1.293c-0.013,1.194-0.022,3.71-0.022,3.71
					c0,0.21,0.171,0.374,0.395,0.37C3.344,77.082,3.385,76.7,3.385,76.7c0.239-4.569,0.342-9.077,0.307-13.396
					C4.141,57.01,4.117,50.584,4.094,44.37c-0.004-1.197-0.009-2.395-0.01-3.589c0.107-0.355,0.218-0.708,0.334-1.06l-0.045-0.31
					c-0.038-0.053-0.092-0.087-0.152-0.112c4.761-0.04,9.55-0.227,14.434-0.441c2.096,0.013,4.193,0.02,6.288,0.02
					c5.083,0,10.211-0.043,15.325-0.119c-0.116,1.96,0.052,3.94,0.257,5.964c0.257,2.565,0.623,5.159,0.975,7.669l0.266,1.903
					c0.279,1.992,0.568,4.051,0.815,6.083c0.069,2.483,0.16,4.969,0.249,7.451c0.098,2.68,0.199,5.452,0.268,8.173
					c0,0,0.06,0.369,0.394,0.384c0.467,0.021,0.495-0.729,0.495-0.729l-0.001,0.001c0.572-5.284,0.014-10.646-0.558-15.276
					c-0.183-6.537-0.247-14.104,0.473-21.684c0.144-0.003,0.288-0.006,0.431-0.009c0.26,1.188,0.5,2.398,0.692,3.646
					c-0.758,6.914-0.648,13.993-0.543,20.842c0.062,3.982,0.125,8.1,0.018,12.132l0.101,0.262c0.142,0.146,0.42,0.153,0.602,0.006
					l0.141-0.259c1-7.021,1.485-13.876,1.444-20.373c-0.03-4.739-0.326-8.885-0.908-12.673c0.138-1.235,0.302-2.447,0.489-3.623
					c0.009,0,0.018,0,0.026,0c1.523,7.157,1.36,14.572,1.2,21.759c-0.093,4.219-0.19,8.583,0.056,12.849
					c0.01,0.193,0.168,0.333,0.375,0.333c0.136,0,0.274-0.059,0.362-0.151c0.074-0.078,0.111-0.179,0.104-0.282
					C48.246,68.914,48.343,64.564,48.436,60.357z M45.942,55.191c0.025,4.016-0.161,8.204-0.554,12.519
					c-0.015-1.535-0.04-3.064-0.063-4.57c-0.084-5.523-0.172-11.207,0.196-16.809C45.784,49.044,45.923,51.97,45.942,55.191z
					 M45.519,38.666c-0.043,0.277-0.09,0.552-0.13,0.833c-0.058-0.28-0.125-0.55-0.185-0.826
					C45.309,38.671,45.415,38.669,45.519,38.666z M44,37.648c0.011-0.108,0.018-0.216,0.03-0.323
					c0.026,0.106,0.048,0.22,0.072,0.327C44.068,37.65,44.033,37.649,44,37.648z M41.114,38.746c0.646-0.009,1.292-0.02,1.938-0.031
					c-0.484,5.125-0.608,10.141-0.59,14.572c-0.004-0.034-0.011-0.07-0.015-0.106c-0.584-3.973-1.187-8.082-1.345-12.14
					C41.068,40.178,41.073,39.438,41.114,38.746z M3.216,44.149c-0.021,1.895-0.055,3.79-0.097,5.671
					c-0.094-1.199-0.2-2.388-0.317-3.562C2.928,45.543,3.066,44.839,3.216,44.149z M1.95,46.275
					c-0.113,0.658-0.219,1.333-0.313,2.026l-0.002-4.917C1.748,44.346,1.854,45.311,1.95,46.275z M2.503,43.511
					c-0.19-1.644-0.414-3.272-0.65-4.885l0.054-0.008c0.17,0.003,0.34,0.007,0.51,0.011c-0.132,0.078-0.254,0.22-0.222,0.375
					c0.063,0.308,0.418,0.312,0.418,0.312c0.349,0,0.699-0.009,1.048-0.011C3.662,39.306,2.725,42.551,2.503,43.511z M1.686,67.96
					c-0.021-3.081-0.043-6.268,0.039-9.398c0.084-3.294,0.262-6.104,0.552-8.64c0.285,3.637,0.467,7.38,0.539,11.162
					c-0.036,1.324-0.072,2.649-0.104,3.974c-0.246,2.842-0.577,5.468-1.008,7.988C1.708,71.336,1.697,69.633,1.686,67.96z
					 M3.836,39.312v-0.009c0.008,0,0.017,0,0.026,0C3.853,39.307,3.845,39.31,3.836,39.312z"/>
				<path d="M47.1,77.049c-8.995-0.971-16.457-1.605-23.477-1.998c-2.352-0.132-4.707-0.235-7.017-0.31
					c-0.052-0.076-0.146-0.14-0.304-0.14H8.258c-0.137,0-0.49,0.112-0.466,0.389c0.023,0.269,0.363,0.319,0.363,0.319
					c7.849,0.004,16.269,0.391,25.738,1.183c2.208,0.185,4.515,0.395,6.978,0.638l-1.397,0.002l-0.38-0.001
					c-2.175-0.128-4.471-0.192-6.823-0.192c-2.647,0-5.389,0.078-8.38,0.24c-7.125,0.159-12.875,0.652-18.094,1.555
					c-0.031,0.002-0.825,0.093-0.8,0.487c0.02,0.318,0.427,0.279,0.427,0.279c6.892-0.726,12.64-1.306,18.603-1.625
					c1.954-0.042,4.081-0.061,6.699-0.061c1.456,0,2.914,0.005,4.37,0.011c1.286,0.005,2.572,0.011,3.857,0.011
					c1.376,0.083,2.748,0.193,4.079,0.328c0.13,0.013,0.259,0.026,0.39,0.041c-0.521,0.098-1.071,0.193-1.663,0.291
					c-1.811,0.298-3.757,0.539-5.947,0.738l-0.059,0.006c-5.719-0.145-11.533,0.176-17.151,0.485l-1.287,0.07
					c-4.855,0.007-10.357,0.015-15.723,0.402c-0.07,0.004-0.454,0.103-0.447,0.399l0.049,0.298l0.282,0.008
					c3.54,0.091,7.104,0.007,10.604-0.143c-0.47,0.044-0.94,0.089-1.409,0.138c-0.004,0.001-0.319,0.061-0.422,0.284
					c-0.141,0.31,0.33,0.425,0.33,0.425c0.575,0.091,1.154,0.153,1.732,0.203c0.083,0.691,0.19,1.404,0.336,2.184
					c0.031,2.152,0.433,4.276,0.869,6.258c-0.429,0.529-1.759,2.096-1.759,2.096c-0.003,0.003-0.006,0.005-0.01,0.007
					c0,0-0.348-0.123-0.48-0.123c-0.016,0-0.352,0.102-0.352,0.102c-1.767,1.084-3.218,2.468-4.79,4.031l-0.743,0.427l0.693,0.07
					c0.051,0.051,0.612-0.001,0.612-0.001c0.91-0.524,1.798-1.108,2.659-1.675c0.282-0.184,0.565-0.372,0.853-0.558
					c-0.73,0.976-1.483,1.954-2.275,2.881l-0.598,0.48l0.609,0.015c0,0,0.374,0.062,0.496,0.014l0.128-0.08
					c1.837-1.466,3.739-3.061,5.223-5.061c0.006,0.135,0.011,0.27,0.017,0.405c0.022,0.514,0.043,1.027,0.058,1.541
					c-0.085,1.355-0.141,2.498-0.149,3.657l-0.054,0.395l0.266-0.058l0.143,0.013c0.112,0,0.261-0.035,0.366-0.122l0.121-0.026
					l0.001-0.215c0.181-1.336,0.175-2.662,0.151-3.676l0.008,0.044l0.002-0.06c0.027,0.007,0.058,0.011,0.09,0.012l0.124-0.013
					c0.142-0.03,0.296-0.115,0.352-0.263l0.024-0.777l0.74,0.529c0.225,0.55,0.42,1.11,0.599,1.652
					c0.129,0.404,0.261,0.807,0.398,1.222l0,0l0.252,0.222c0.142,0.03,0.396-0.017,0.514-0.181l0.096-0.152l-0.436-1.325
					c-0.366-1.147-0.717-2.362-0.907-3.616c1.143,1.754,2.255,3.17,3.448,4.393l0.228,0.162h0.099c0.026,0,0.262-0.005,0.399-0.161
					l0.048-0.391c-0.149-0.502-0.242-1.032-0.333-1.545c-0.098-0.558-0.2-1.135-0.374-1.697c-0.036-0.115-0.146-0.237-0.349-0.237
					c-0.103,0-0.306,0.038-0.416,0.186l-0.096,0.15l0.044,0.144c0.162,0.525,0.371,1.71,0.378,1.754
					c-1.093-1.281-2.148-2.782-3.264-4.646l0,0c0-0.001-0.001-0.002-0.001-0.004l-0.562-0.938l0.008,0.796h-0.01
					c-0.365-2.713-1.115-5.408-1.924-8.143c0.902,0.035,1.796,0.044,2.664,0.044c0.136,0,0.467-0.11,0.467-0.388
					c0-0.109-0.077-0.318-0.363-0.318c-0.668,0-1.307-0.002-1.931-0.015c2.45-0.192,5.069-0.346,8.142-0.478
					c3.42-0.147,6.902-0.238,10.267-0.328c2.519-0.065,5.037-0.133,7.555-0.221c0.059-0.003,0.454-0.086,0.46-0.384l-0.035-0.3
					l-0.281-0.022c-0.235-0.02-0.472-0.036-0.712-0.054c1.944-0.274,3.789-0.607,5.581-1.007c0.1-0.021,0.354-0.133,0.343-0.381
					l-0.055-0.273l-0.028-0.003c0.345-0.008,0.687-0.015,1.025-0.024c0.068-0.003,0.342-0.02,0.454-0.396
					C47.511,77.11,47.1,77.049,47.1,77.049z M13.312,92.041c0.144-0.114,0.289-0.229,0.433-0.343
					c0.003,0.058,0.003,0.114,0.005,0.173C13.702,91.877,13.369,92.016,13.312,92.041z M11.737,93.854l0.242-0.325
					c0.192-0.111,0.381-0.217,0.567-0.317c-0.502,0.604-1.042,1.172-1.599,1.707C11.214,94.562,11.478,94.206,11.737,93.854z"/>
			</g>
		</g>
		<polygon fill="#FF9E16" points="30.751,55.577 19.254,55.577 24.981,63.477 		"/>
	</g>
</g>
</svg>
