<?xml version="1.0" encoding="utf-8"?>
<!-- Generator: Adobe Illustrator 16.0.0, SVG Export Plug-In . SVG Version: 6.00 Build 0)  -->
<!DOCTYPE svg PUBLIC "-//W3C//DTD SVG 1.1//EN" "http://www.w3.org/Graphics/SVG/1.1/DTD/svg11.dtd">
<svg version="1.1" id="Layer_1" xmlns="http://www.w3.org/2000/svg" xmlns:xlink="http://www.w3.org/1999/xlink" x="0px" y="0px"
	 width="265px" height="100px" viewBox="0 0 265 100" enable-background="new 0 0 265 100" xml:space="preserve">
<g>
	<g>
		<g>
			<defs>
				<path id="SVGID_1_" d="M129.966,65.79c0-1.567,7.121-2.84,15.903-2.84c8.787,0,15.905,1.272,15.905,2.84
					c0,1.57-7.118,2.842-15.905,2.842C137.087,68.632,129.966,67.36,129.966,65.79z"/>
			</defs>
			<clipPath id="SVGID_2_">
				<use xlink:href="#SVGID_1_"  overflow="visible"/>
			</clipPath>
			<g clip-path="url(#SVGID_2_)">
				<defs>
					<path id="SVGID_3_" d="M129.966,65.79c0-1.567,7.121-2.84,15.903-2.84c8.787,0,15.905,1.272,15.905,2.84
						c0,1.57-7.118,2.842-15.905,2.842C137.087,68.632,129.966,67.36,129.966,65.79z"/>
				</defs>
				<clipPath id="SVGID_4_">
					<use xlink:href="#SVGID_3_"  overflow="visible"/>
				</clipPath>
				<rect x="129.966" y="62.95" clip-path="url(#SVGID_4_)" fill="#FFFFFF" width="31.809" height="5.682"/>
				<path clip-path="url(#SVGID_4_)" fill="#FFFFFF" d="M129.966,65.79c0-1.567,7.121-2.84,15.903-2.84
					c8.787,0,15.905,1.272,15.905,2.84c0,1.57-7.118,2.842-15.905,2.842C137.087,68.632,129.966,67.36,129.966,65.79z"/>
				<path clip-path="url(#SVGID_4_)" fill="#EEEFF0" d="M130.964,65.79c0-1.471,6.675-2.663,14.905-2.663
					c8.238,0,14.91,1.192,14.91,2.663c0,1.475-6.672,2.664-14.91,2.664C137.639,68.454,130.964,67.265,130.964,65.79z"/>
				<path clip-path="url(#SVGID_4_)" fill="#E1E2E3" d="M131.959,65.79c0-1.371,6.229-2.487,13.91-2.487
					c7.688,0,13.916,1.116,13.916,2.487c0,1.377-6.228,2.488-13.916,2.488C138.188,68.278,131.959,67.167,131.959,65.79z"/>
				<path clip-path="url(#SVGID_4_)" fill="#D4D5D7" d="M132.952,65.79c0-1.272,5.783-2.307,12.917-2.307
					c7.138,0,12.92,1.034,12.92,2.307c0,1.274-5.782,2.311-12.92,2.311C138.735,68.101,132.952,67.064,132.952,65.79z"/>
				<path clip-path="url(#SVGID_4_)" fill="#C7C8CA" d="M133.945,65.79c0-1.178,5.341-2.131,11.924-2.131
					c6.59,0,11.928,0.953,11.928,2.131c0,1.179-5.338,2.133-11.928,2.133C139.286,67.923,133.945,66.969,133.945,65.79z"/>
				<path clip-path="url(#SVGID_4_)" fill="#B9BBBD" d="M134.939,65.79c0-1.077,4.895-1.952,10.93-1.952
					c6.041,0,10.937,0.875,10.937,1.952c0,1.079-4.896,1.955-10.937,1.955C139.834,67.745,134.939,66.869,134.939,65.79z"/>
				<path clip-path="url(#SVGID_4_)" fill="#ACAEB1" d="M135.934,65.79c0-0.98,4.449-1.775,9.936-1.775
					c5.489,0,9.943,0.795,9.943,1.775c0,0.983-4.454,1.78-9.943,1.78C140.383,67.57,135.934,66.773,135.934,65.79z"/>
				<path clip-path="url(#SVGID_4_)" fill="#A0A2A4" d="M136.925,65.79c0-0.882,4.009-1.598,8.944-1.598
					c4.942,0,8.948,0.716,8.948,1.598c0,0.884-4.006,1.6-8.948,1.6C140.934,67.39,136.925,66.674,136.925,65.79z"/>
				<path clip-path="url(#SVGID_4_)" fill="#939598" d="M137.921,65.79c0-0.784,3.56-1.421,7.948-1.421
					c4.392,0,7.953,0.637,7.953,1.421c0,0.785-3.562,1.424-7.953,1.424C141.48,67.214,137.921,66.575,137.921,65.79z"/>
				<path clip-path="url(#SVGID_4_)" fill="#87898C" d="M138.912,65.79c0-0.686,3.115-1.24,6.957-1.24
					c3.847,0,6.957,0.555,6.957,1.24c0,0.69-3.11,1.243-6.957,1.243C142.027,67.033,138.912,66.48,138.912,65.79z"/>
				<path clip-path="url(#SVGID_4_)" fill="#7C7D80" d="M139.907,65.79c0-0.589,2.67-1.064,5.962-1.064
					c3.296,0,5.968,0.476,5.968,1.064c0,0.59-2.672,1.066-5.968,1.066C142.577,66.856,139.907,66.38,139.907,65.79z"/>
				<path clip-path="url(#SVGID_4_)" fill="#707173" d="M140.9,65.79c0-0.488,2.224-0.886,4.969-0.886
					c2.746,0,4.972,0.397,4.972,0.886c0,0.492-2.226,0.888-4.972,0.888C143.124,66.678,140.9,66.282,140.9,65.79z"/>
				<path clip-path="url(#SVGID_4_)" fill="#636466" d="M141.894,65.79c0-0.391,1.781-0.711,3.976-0.711
					c2.199,0,3.978,0.32,3.978,0.711c0,0.394-1.778,0.71-3.978,0.71C143.675,66.5,141.894,66.184,141.894,65.79z"/>
				<path clip-path="url(#SVGID_4_)" fill="#555658" d="M142.888,65.79c0-0.293,1.339-0.531,2.981-0.531
					c1.647,0,2.986,0.238,2.986,0.531c0,0.297-1.339,0.534-2.986,0.534C144.227,66.324,142.888,66.087,142.888,65.79z"/>
				<path clip-path="url(#SVGID_4_)" fill="#474749" d="M143.885,65.79c0-0.195,0.889-0.353,1.984-0.353
					c1.099,0,1.99,0.157,1.99,0.353c0,0.198-0.892,0.356-1.99,0.356C144.773,66.146,143.885,65.988,143.885,65.79z"/>
				<path clip-path="url(#SVGID_4_)" fill="#2F2F30" d="M144.878,65.79c0-0.097,0.445-0.177,0.991-0.177
					c0.553,0,0.996,0.08,0.996,0.177c0,0.101-0.443,0.181-0.996,0.181C145.323,65.971,144.878,65.891,144.878,65.79z"/>
			</g>
		</g>
		<g>
			<defs>
				<path id="SVGID_5_" d="M125.378,49.136c0-9.64,7.814-17.45,17.449-17.45c9.643,0,17.458,7.811,17.458,17.45
					c0,9.638-7.815,17.451-17.458,17.451C133.192,66.587,125.378,58.774,125.378,49.136z"/>
			</defs>
			<clipPath id="SVGID_6_">
				<use xlink:href="#SVGID_5_"  overflow="visible"/>
			</clipPath>
			<g clip-path="url(#SVGID_6_)">
				<g>
					<defs>
						<rect id="SVGID_7_" x="125.291" y="31.199" width="35.199" height="35.525"/>
					</defs>
					<clipPath id="SVGID_8_">
						<use xlink:href="#SVGID_7_"  overflow="visible"/>
					</clipPath>
					<g clip-path="url(#SVGID_8_)">
						<defs>
							<rect id="SVGID_9_" x="125.291" y="31.199" width="35.199" height="35.525"/>
						</defs>
						<clipPath id="SVGID_10_">
							<use xlink:href="#SVGID_9_"  overflow="visible"/>
						</clipPath>
						<g transform="matrix(1 0 0 1 7.629395e-06 1.907349e-06)" clip-path="url(#SVGID_10_)">
							
								<image overflow="visible" width="147" height="149" xlink:href="A52B2439D4EE4874.jpg"  transform="matrix(0.24 0 0 0.24 125.2905 31.1992)">
							</image>
						</g>
					</g>
				</g>
			</g>
		</g>
		<path fill="#363092" d="M140.78,56.73c-0.829,1.954-1.935,4.937-1.935,4.937s10.717,4.758,19.21-3.73c0,1.834,0,4.938,0,4.938
			h4.887V48.298h-14.601v4.88h5.585C153.239,54.572,149.812,59.377,140.78,56.73z"/>
		<path fill="#F4CE34" d="M140.582,56.539c-0.827,1.952-1.93,4.932-1.93,4.932s10.717,4.763,19.212-3.728c0,1.834,0,4.938,0,4.938
			h4.885V48.103h-14.605v4.878h5.592C153.044,54.379,149.614,59.184,140.582,56.539z"/>
		<path fill="#363092" d="M175.074,33.115h-0.136c-0.127-0.36-0.34-0.653-0.646-0.874c-0.309-0.225-0.656-0.331-1.036-0.331
			c-0.47,0-0.86,0.146-1.181,0.445c-0.313,0.302-0.476,0.68-0.476,1.143c0,0.651,0.365,1.178,1.085,1.576
			c0.672,0.325,1.349,0.645,2.025,0.96c0.733,0.454,1.099,1.063,1.099,1.833c0,0.86-0.305,1.574-0.919,2.143
			c-0.609,0.57-1.381,0.856-2.312,0.856c-0.886,0-1.641-0.247-2.269-0.745c0.054-0.193,0.116-0.396,0.179-0.614
			c0.064-0.216,0.093-0.414,0.093-0.596h0.138c0.181,0.407,0.475,0.733,0.877,0.982c0.401,0.25,0.836,0.375,1.296,0.375
			c0.542,0,0.989-0.182,1.342-0.544c0.354-0.36,0.525-0.818,0.525-1.369c0-0.654-0.357-1.169-1.08-1.561
			c-0.682-0.316-1.358-0.636-2.034-0.965c-0.736-0.469-1.101-1.125-1.101-1.968c0-0.738,0.267-1.342,0.8-1.805
			c0.529-0.46,1.231-0.691,2.09-0.691c0.406,0,0.759,0.044,1.052,0.135c0.294,0.091,0.612,0.258,0.958,0.505
			c-0.094,0.2-0.169,0.392-0.225,0.576C175.157,32.769,175.114,32.947,175.074,33.115z"/>
		<path fill="#363092" d="M178.78,36.479v1.434v1.432c0,0.325,0.007,0.565,0.018,0.716c0.013,0.153,0.034,0.358,0.064,0.609
			c-0.293-0.025-0.514-0.036-0.671-0.036l-0.667,0.051c0-0.344,0.02-0.854,0.078-1.532c0.056-0.678,0.079-1.191,0.079-1.532
			c0-0.841-0.008-1.599-0.023-2.268c-0.064-2.353-0.099-3.613-0.099-3.787l0.641,0.027c0.327,0,0.763-0.011,1.313-0.036
			c0.55-0.018,0.881-0.029,0.993-0.029c1.974,0,2.958,0.761,2.958,2.292c0,0.973-0.427,1.68-1.283,2.132
			c-0.669,0.351-1.537,0.524-2.601,0.524H178.78L178.78,36.479z M178.78,35.992c0.047,0.011,0.114,0.018,0.198,0.029
			c0.086,0.007,0.195,0.013,0.342,0.013c0.861,0,1.53-0.142,2.008-0.419c0.601-0.356,0.9-0.938,0.9-1.752
			c0-0.678-0.22-1.167-0.657-1.465c-0.37-0.254-0.905-0.38-1.604-0.38c-0.295,0-0.502,0.004-0.618,0.016
			c-0.12,0.007-0.294,0.036-0.522,0.08c-0.031,0.28-0.047,0.456-0.047,0.527c0,0.074,0,0.156,0,0.245v0.476l-0.037,1.25
			L178.78,35.992z"/>
		<path fill="#363092" d="M185,31.539c0.234,0,0.635,0.011,1.206,0.029c0.567,0.02,0.879,0.029,0.923,0.029
			c0.301,0,0.798-0.009,1.501-0.029c0.698-0.018,1.074-0.029,1.12-0.029c-0.011,0.026-0.018,0.08-0.028,0.158
			c-0.009,0.076-0.016,0.156-0.016,0.238c0,0.118,0.016,0.249,0.044,0.394c-0.246-0.038-0.431-0.058-0.558-0.067
			c-0.125-0.007-0.294-0.014-0.503-0.014c-0.279,0-0.748-0.009-1.409-0.027c-0.665-0.015-1.014-0.026-1.061-0.026
			c0,0.351-0.011,0.82-0.033,1.396c-0.022,0.583-0.036,0.928-0.036,1.048c0,0.18,0,0.355,0,0.527c0,0.173,0,0.302,0,0.394h0.411
			h0.352c0.683,0,1.148-0.007,1.405-0.021c0.262-0.013,0.634-0.042,1.116-0.086c-0.019,0.091-0.033,0.169-0.035,0.238
			c-0.012,0.067-0.018,0.167-0.018,0.305l0.018,0.255c-0.639-0.071-1.426-0.106-2.361-0.106h-0.888v0.136v2.681v1.092h0.492
			c0.649,0,1.249-0.016,1.807-0.043c0.554-0.024,1.012-0.066,1.367-0.12c-0.02,0.06-0.032,0.136-0.035,0.22
			c-0.006,0.083-0.006,0.149-0.006,0.191l0.041,0.376c-0.258,0-0.682-0.006-1.28-0.024c-0.595-0.011-0.918-0.016-0.965-0.016h-1.423
			c-0.271,0-0.521,0.007-0.733,0.016c-0.216,0.018-0.376,0.024-0.469,0.024c0.068-0.48,0.105-0.989,0.105-1.534l0.041-1.502v-1.561
			v-1.503c0-0.641-0.011-1.228-0.026-1.761C185.048,32.282,185.023,31.857,185,31.539z"/>
		<path fill="#363092" d="M199.319,33.184h-0.136c-0.351-0.416-0.798-0.747-1.336-0.989c-0.539-0.245-1.094-0.37-1.677-0.37
			c-1.193,0-2.146,0.387-2.856,1.163c-0.705,0.771-1.062,1.807-1.062,3.097c0,1.343,0.357,2.392,1.058,3.157
			c0.712,0.765,1.681,1.147,2.913,1.147c0.771,0,1.503-0.153,2.191-0.462l0.025-0.109l0.041-1.679c0-0.574-0.021-1.112-0.066-1.619
			c0.122,0.027,0.219,0.047,0.289,0.054c0.076,0.011,0.181,0.015,0.312,0.015c0.091,0,0.18-0.006,0.271-0.015
			c0.091-0.006,0.218-0.027,0.387-0.054c-0.042,0.318-0.073,0.718-0.092,1.201c-0.021,0.487-0.032,0.941-0.032,1.363v0.369
			c0,0.189,0,0.376,0,0.554c0.032,0.111,0.051,0.201,0.056,0.271c-1.219,0.398-2.389,0.596-3.511,0.596
			c-1.657,0-2.933-0.4-3.82-1.214c-0.894-0.807-1.34-1.972-1.34-3.49c0-0.97,0.232-1.839,0.695-2.606
			c0.46-0.769,1.094-1.323,1.912-1.656c0.813-0.333,1.754-0.505,2.821-0.505c1.267,0,2.365,0.253,3.297,0.763
			C199.506,32.448,199.39,32.784,199.319,33.184z"/>
		<path fill="#363092" d="M209.295,39.262l-0.189,0.801c-0.787,0.543-1.751,0.814-2.892,0.814c-1.514,0-2.701-0.414-3.571-1.247
			c-0.866-0.832-1.298-1.977-1.298-3.433c0-1.494,0.46-2.67,1.383-3.528s2.189-1.287,3.8-1.287c0.542,0,1.043,0.04,1.501,0.133
			c0.455,0.091,0.882,0.231,1.28,0.42c-0.139,0.353-0.227,0.698-0.271,1.033l-0.096,0.029c-0.324-0.349-0.702-0.614-1.134-0.802
			c-0.427-0.191-0.865-0.285-1.308-0.285c-1.188,0-2.116,0.371-2.78,1.122c-0.669,0.751-1.006,1.801-1.006,3.151
			c0,1.274,0.318,2.288,0.967,3.039c0.637,0.749,1.508,1.127,2.602,1.127c1.07,0,2.048-0.378,2.943-1.127L209.295,39.262z"/>
		<path fill="#363092" d="M170.438,65.115v-3.358c0-0.075-0.018-0.133-0.053-0.17c-0.031-0.038-0.094-0.075-0.18-0.101v-0.102h2.409
			c0.503,0,0.898,0.06,1.188,0.185c0.402,0.177,0.695,0.467,0.874,0.871c0.126,0.284,0.187,0.617,0.187,0.998
			c0,0.7-0.207,1.231-0.625,1.597c-0.189,0.159-0.409,0.28-0.669,0.351c-0.254,0.071-0.572,0.105-0.956,0.105h-2.407v-0.103
			c0.084-0.022,0.145-0.057,0.177-0.096C170.421,65.248,170.438,65.192,170.438,65.115z M171.424,64.748h1.049
			c0.485,0,0.83-0.108,1.05-0.329c0.231-0.23,0.345-0.558,0.345-0.98c0-0.427-0.113-0.753-0.345-0.982
			c-0.113-0.114-0.251-0.198-0.416-0.252c-0.166-0.054-0.378-0.079-0.634-0.079h-1.049V64.748z"/>
		<path fill="#363092" d="M176.588,63.743v1.005h2.604c0.071,0,0.131-0.014,0.174-0.051c0.04-0.031,0.071-0.094,0.094-0.18h0.108
			v1.208h-0.108c-0.019-0.084-0.049-0.144-0.094-0.179c-0.043-0.036-0.103-0.054-0.174-0.054h-3.823v-0.104
			c0.086-0.021,0.148-0.057,0.181-0.096c0.037-0.042,0.055-0.101,0.055-0.176v-3.36c0-0.075-0.018-0.131-0.051-0.17
			c-0.033-0.038-0.099-0.075-0.185-0.099v-0.104h3.711c0.077,0,0.142-0.021,0.177-0.054c0.041-0.034,0.074-0.094,0.103-0.181h0.089
			v1.208h-0.089c-0.028-0.09-0.062-0.149-0.103-0.183c-0.035-0.034-0.1-0.051-0.177-0.051h-2.491v0.902h1.543
			c0.08,0,0.136-0.018,0.174-0.049c0.044-0.037,0.076-0.098,0.103-0.183h0.096v1.178h-0.096c-0.024-0.086-0.059-0.144-0.096-0.182
			c-0.038-0.033-0.101-0.049-0.181-0.049H176.588z"/>
		<path fill="#363092" d="M188.883,64.655c-0.705,0.349-1.305,0.593-1.798,0.73c-0.496,0.136-0.997,0.202-1.498,0.202
			c-1.115,0-1.997-0.267-2.655-0.793c-0.653-0.533-0.984-1.241-0.984-2.128c0-0.858,0.32-1.559,0.962-2.099
			c0.636-0.54,1.482-0.812,2.532-0.812c0.55,0,1.099,0.08,1.65,0.244c0.549,0.158,0.826,0.245,0.835,0.245
			c0.052-0.007,0.094-0.021,0.131-0.044c0.038-0.025,0.088-0.07,0.139-0.129l0.127,0.05L187.44,61.8l-0.145-0.054
			c0.007-0.013,0.016-0.028,0.02-0.043c0.009-0.017,0.011-0.034,0.011-0.05c0-0.163-0.175-0.312-0.53-0.449
			c-0.349-0.133-0.757-0.197-1.209-0.197c-0.6,0-1.088,0.155-1.464,0.469c-0.376,0.315-0.565,0.725-0.565,1.225
			c0,0.51,0.181,0.91,0.539,1.205c0.359,0.292,0.852,0.44,1.467,0.44c0.265,0,0.512-0.026,0.748-0.075
			c0.234-0.052,0.471-0.132,0.707-0.241v-0.555h-1.17c-0.103,0-0.176,0.018-0.214,0.051c-0.037,0.031-0.071,0.106-0.098,0.22h-0.151
			v-1.55h0.151c0.026,0.111,0.061,0.185,0.098,0.218c0.038,0.036,0.111,0.054,0.214,0.054h3.037v0.16
			c-0.116,0.026-0.189,0.062-0.223,0.104c-0.038,0.04-0.054,0.115-0.054,0.219v1.242c0,0.102,0.012,0.173,0.052,0.213
			c0.033,0.043,0.108,0.073,0.225,0.104v0.146H188.883z"/>
		<path fill="#363092" d="M191.39,62.238v0.817h0.936c0.338,0,0.58-0.03,0.727-0.097c0.146-0.065,0.223-0.172,0.223-0.318
			c0-0.151-0.067-0.256-0.205-0.316c-0.134-0.06-0.392-0.086-0.771-0.086H191.39z M192.886,61.327c0.533,0,0.944,0.117,1.238,0.353
			c0.286,0.234,0.438,0.562,0.438,0.982c0,0.318-0.098,0.585-0.275,0.806c-0.188,0.22-0.452,0.375-0.81,0.471l0.534,0.85
			c0.129,0.209,0.232,0.347,0.313,0.42c0.079,0.076,0.173,0.124,0.275,0.151v0.134h-1.819v-0.134
			c0.05-0.011,0.087-0.027,0.114-0.051c0.026-0.027,0.039-0.061,0.039-0.094c0-0.051-0.03-0.138-0.1-0.248
			c-0.011-0.025-0.017-0.036-0.022-0.043l-0.592-0.968h-0.83v1.121c0,0.094,0.015,0.153,0.048,0.188
			c0.029,0.038,0.096,0.066,0.2,0.094v0.134h-1.745v-0.134c0.098-0.024,0.162-0.051,0.194-0.087
			c0.028-0.033,0.048-0.098,0.048-0.195v-3.324c0-0.095-0.02-0.155-0.048-0.193c-0.032-0.035-0.097-0.069-0.194-0.098v-0.131h2.993
			V61.327z"/>
		<path fill="#363092" d="M196.926,63.917h1.366l-0.709-1.739L196.926,63.917z M198.772,61.327v0.135
			c-0.054,0.007-0.086,0.02-0.107,0.037c-0.023,0.021-0.037,0.054-0.037,0.104c0,0.04,0.005,0.088,0.02,0.144
			c0.018,0.05,0.039,0.107,0.056,0.172l1.295,3.159c0.009,0.002,0.009,0.009,0.009,0.012c0.053,0.136,0.131,0.227,0.234,0.271v0.134
			h-1.651l0.002-0.134c0.062-0.016,0.104-0.04,0.138-0.068c0.03-0.034,0.043-0.083,0.043-0.136c0-0.021-0.004-0.049-0.013-0.085
			c-0.009-0.035-0.023-0.073-0.032-0.11l-0.148-0.356h-1.909l-0.136,0.356c-0.004,0.011-0.012,0.03-0.019,0.05
			c-0.014,0.052-0.022,0.092-0.022,0.116c0,0.06,0.018,0.109,0.045,0.142c0.033,0.043,0.087,0.069,0.157,0.09v0.136h-1.55v-0.136
			c0.082-0.038,0.159-0.101,0.219-0.187c0.06-0.09,0.138-0.258,0.235-0.508l1.029-2.745c0.026-0.071,0.047-0.129,0.061-0.176
			c0.011-0.047,0.018-0.087,0.018-0.114c0-0.057-0.012-0.097-0.031-0.123c-0.022-0.025-0.058-0.043-0.109-0.047v-0.131H198.772z"/>
		<path fill="#363092" d="M203.142,61.327v0.144c-0.062,0.014-0.112,0.034-0.145,0.064c-0.034,0.031-0.05,0.069-0.05,0.114
			c0,0.03,0.012,0.073,0.024,0.118c0.017,0.052,0.029,0.079,0.043,0.093l1.702,1.797v-1.904c0-0.091-0.017-0.15-0.049-0.189
			c-0.03-0.034-0.1-0.068-0.202-0.093v-0.144h1.479v0.144c-0.101,0.024-0.165,0.059-0.197,0.091
			c-0.029,0.036-0.043,0.101-0.043,0.191v3.324c0,0.098,0.014,0.162,0.043,0.195c0.032,0.036,0.097,0.062,0.197,0.087v0.134h-1.758
			v-0.134c0.066-0.021,0.115-0.044,0.148-0.075c0.036-0.036,0.049-0.069,0.049-0.109c0-0.031-0.004-0.073-0.018-0.122
			c-0.019-0.047-0.031-0.08-0.042-0.089l-2.099-2.214v2.327c0,0.094,0.015,0.153,0.047,0.19c0.035,0.036,0.1,0.064,0.202,0.092
			v0.134H201v-0.134c0.093-0.024,0.157-0.051,0.191-0.087c0.03-0.033,0.043-0.098,0.043-0.195v-3.324
			c0-0.095-0.013-0.159-0.045-0.198c-0.036-0.034-0.099-0.064-0.189-0.082v-0.142h2.142V61.327z"/>
		<path fill="#363092" d="M215.213,61.871c0.005-0.016,0.014-0.028,0.018-0.047c0.005-0.02,0.01-0.035,0.01-0.046
			c0-0.156-0.183-0.303-0.538-0.44c-0.357-0.136-0.751-0.205-1.181-0.205c-0.603,0-1.09,0.141-1.449,0.416
			c-0.37,0.275-0.547,0.641-0.547,1.096c0,0.454,0.173,0.812,0.515,1.077c0.353,0.265,0.821,0.397,1.423,0.397
			c0.348,0,0.639-0.031,0.886-0.092c0.245-0.062,0.495-0.162,0.753-0.306c0.066-0.038,0.116-0.072,0.139-0.099
			c0.018-0.028,0.028-0.062,0.028-0.109c0-0.018-0.002-0.041-0.009-0.071c-0.006-0.023-0.011-0.054-0.017-0.088l0.123-0.073
			l1.079,1.754l-0.143,0.062c-0.054-0.047-0.092-0.081-0.127-0.103c-0.029-0.024-0.058-0.035-0.077-0.035
			c-0.032,0-0.116,0.03-0.254,0.093c-0.743,0.357-1.527,0.54-2.358,0.54c-1.109,0-1.992-0.269-2.646-0.798
			c-0.653-0.533-0.978-1.241-0.978-2.124c0-0.862,0.317-1.562,0.958-2.103s1.485-0.812,2.53-0.812c0.554,0,1.107,0.082,1.658,0.244
			c0.547,0.163,0.827,0.245,0.832,0.245c0.051-0.007,0.095-0.021,0.133-0.044c0.035-0.025,0.085-0.064,0.134-0.129l0.133,0.05
			l-0.892,1.806L215.213,61.871z"/>
		<path fill="#363092" d="M218.384,63.917h1.365l-0.709-1.739L218.384,63.917z M220.231,61.327v0.135
			c-0.056,0.007-0.093,0.02-0.111,0.037c-0.022,0.021-0.033,0.054-0.037,0.104c0,0.04,0.008,0.088,0.023,0.144
			c0.011,0.05,0.032,0.107,0.058,0.172l1.292,3.159c0.005,0.002,0.007,0.009,0.007,0.012c0.052,0.136,0.131,0.227,0.238,0.271v0.134
			h-1.654l0.006-0.134c0.059-0.016,0.105-0.04,0.132-0.068c0.031-0.034,0.047-0.083,0.047-0.136c0-0.021-0.007-0.049-0.014-0.085
			c-0.013-0.035-0.02-0.073-0.033-0.11l-0.145-0.356h-1.916l-0.136,0.356c-0.004,0.011-0.007,0.03-0.014,0.05
			c-0.018,0.052-0.026,0.092-0.026,0.116c0,0.06,0.013,0.109,0.054,0.142c0.023,0.043,0.081,0.069,0.15,0.09v0.136h-1.55v-0.136
			c0.085-0.038,0.156-0.101,0.217-0.187c0.062-0.09,0.142-0.258,0.241-0.508l1.025-2.745c0.027-0.071,0.047-0.129,0.06-0.176
			c0.014-0.047,0.018-0.087,0.018-0.114c0-0.057-0.011-0.097-0.03-0.123c-0.02-0.025-0.059-0.043-0.109-0.047v-0.131H220.231z"/>
		<path fill="#363092" d="M224.6,61.327v0.144c-0.064,0.014-0.113,0.034-0.142,0.064c-0.038,0.031-0.052,0.069-0.052,0.114
			c0,0.03,0.009,0.073,0.021,0.118c0.018,0.052,0.033,0.079,0.046,0.093l1.701,1.797v-1.904c0-0.091-0.016-0.15-0.046-0.189
			c-0.032-0.034-0.103-0.068-0.2-0.093v-0.144h1.472v0.144c-0.1,0.024-0.162,0.059-0.194,0.091
			c-0.028,0.036-0.039,0.101-0.039,0.191v3.324c0,0.098,0.011,0.162,0.039,0.195c0.032,0.036,0.095,0.062,0.194,0.087v0.134h-1.755
			v-0.134c0.064-0.021,0.116-0.044,0.148-0.075c0.034-0.036,0.05-0.069,0.05-0.109c0-0.031-0.007-0.073-0.02-0.122
			c-0.018-0.047-0.034-0.08-0.043-0.089l-2.099-2.214v2.327c0,0.094,0.016,0.153,0.049,0.19c0.033,0.036,0.1,0.064,0.2,0.092v0.134
			h-1.477v-0.134c0.099-0.024,0.163-0.051,0.193-0.087c0.032-0.033,0.047-0.098,0.047-0.195v-3.324c0-0.095-0.015-0.159-0.047-0.198
			c-0.032-0.034-0.097-0.064-0.193-0.082v-0.142h2.146V61.327z"/>
		<path fill="#363092" d="M229.949,63.917h1.365l-0.71-1.739L229.949,63.917z M231.792,61.327v0.135
			c-0.053,0.007-0.091,0.02-0.108,0.037c-0.023,0.021-0.036,0.054-0.038,0.104c0,0.04,0.009,0.088,0.022,0.144
			c0.014,0.05,0.033,0.107,0.062,0.172l1.289,3.159c0.004,0.002,0.004,0.009,0.004,0.012c0.058,0.136,0.131,0.227,0.236,0.271v0.134
			h-1.651l0.006-0.134c0.059-0.016,0.103-0.04,0.134-0.068c0.03-0.034,0.044-0.083,0.044-0.136c0-0.021-0.005-0.049-0.014-0.085
			c-0.009-0.035-0.02-0.073-0.034-0.11l-0.145-0.356h-1.913l-0.133,0.356c-0.003,0.011-0.009,0.03-0.016,0.05
			c-0.018,0.052-0.024,0.092-0.024,0.116c0,0.06,0.014,0.109,0.046,0.142c0.032,0.043,0.083,0.069,0.154,0.09v0.136h-1.548v-0.136
			c0.082-0.038,0.157-0.101,0.218-0.187c0.061-0.09,0.14-0.258,0.238-0.508l1.029-2.745c0.024-0.071,0.042-0.129,0.055-0.176
			c0.015-0.047,0.021-0.087,0.021-0.114c0-0.057-0.014-0.097-0.032-0.123c-0.02-0.025-0.06-0.043-0.105-0.047v-0.131H231.792z"/>
		<path fill="#363092" d="M235.517,62.238v0.817h0.934c0.338,0,0.578-0.03,0.723-0.097c0.152-0.065,0.227-0.172,0.227-0.318
			c0-0.151-0.066-0.256-0.203-0.316c-0.135-0.06-0.397-0.086-0.776-0.086H235.517z M237.011,61.327c0.533,0,0.942,0.117,1.238,0.353
			c0.293,0.234,0.438,0.562,0.438,0.982c0,0.318-0.098,0.585-0.277,0.806c-0.186,0.22-0.456,0.375-0.81,0.471l0.538,0.85
			c0.127,0.209,0.227,0.347,0.312,0.42c0.077,0.076,0.173,0.124,0.271,0.151v0.134h-1.812v-0.134
			c0.042-0.011,0.086-0.027,0.109-0.051c0.026-0.027,0.039-0.061,0.039-0.094c0-0.051-0.033-0.138-0.1-0.248
			c-0.013-0.025-0.015-0.036-0.022-0.043l-0.592-0.968h-0.828v1.121c0,0.094,0.015,0.153,0.044,0.188
			c0.033,0.038,0.098,0.066,0.209,0.094v0.134h-1.752v-0.134c0.098-0.024,0.162-0.051,0.196-0.087
			c0.026-0.033,0.041-0.098,0.041-0.195v-3.324c0-0.095-0.015-0.155-0.041-0.193c-0.034-0.035-0.099-0.069-0.196-0.098v-0.131h2.995
			V61.327z"/>
		<path fill="#363092" d="M241.194,65.077c0,0.092,0.018,0.153,0.05,0.188c0.028,0.036,0.1,0.066,0.204,0.092v0.136h-1.752v-0.136
			c0.095-0.022,0.166-0.049,0.195-0.085c0.033-0.037,0.044-0.098,0.044-0.195v-3.322c0-0.093-0.011-0.159-0.044-0.195
			c-0.029-0.035-0.101-0.069-0.195-0.098v-0.135h1.752v0.14c-0.103,0.026-0.169,0.058-0.202,0.095
			c-0.034,0.041-0.052,0.103-0.052,0.193V65.077z"/>
		<path fill="#363092" d="M243.969,63.917h1.365l-0.709-1.739L243.969,63.917z M245.814,61.327v0.135
			c-0.053,0.007-0.092,0.02-0.113,0.037c-0.018,0.021-0.031,0.054-0.034,0.104c0,0.04,0.01,0.088,0.025,0.144
			c0.009,0.05,0.03,0.107,0.054,0.172l1.293,3.159c0.008,0.002,0.008,0.009,0.008,0.012c0.055,0.136,0.133,0.227,0.234,0.271v0.134
			h-1.649l0.007-0.134c0.059-0.016,0.1-0.04,0.134-0.068c0.028-0.034,0.042-0.083,0.042-0.136c0-0.021-0.006-0.049-0.009-0.085
			c-0.012-0.035-0.027-0.073-0.04-0.11l-0.145-0.356h-1.912l-0.138,0.356c-0.005,0.011-0.005,0.03-0.012,0.05
			c-0.015,0.052-0.023,0.092-0.023,0.116c0,0.06,0.015,0.109,0.044,0.142c0.036,0.043,0.089,0.069,0.16,0.09v0.136h-1.552v-0.136
			c0.084-0.038,0.153-0.101,0.215-0.187c0.062-0.09,0.144-0.258,0.238-0.508l1.032-2.745c0.021-0.071,0.041-0.129,0.054-0.176
			c0.018-0.047,0.02-0.087,0.02-0.114c0-0.057-0.009-0.097-0.032-0.123c-0.02-0.025-0.055-0.043-0.102-0.047v-0.131H245.814z"/>
		<path fill="#363092" d="M171.88,56.744v1.885c0,0.088,0.022,0.15,0.06,0.198c0.043,0.042,0.111,0.083,0.204,0.104v0.138h-1.784
			v-0.138c0.1-0.026,0.166-0.064,0.208-0.106c0.039-0.046,0.059-0.108,0.059-0.196v-4.846c0-0.088-0.02-0.153-0.059-0.196
			c-0.042-0.047-0.108-0.082-0.208-0.108v-0.138h3.575c0.419,0,0.746,0.026,0.993,0.081c0.245,0.062,0.46,0.154,0.649,0.29
			c0.193,0.145,0.342,0.331,0.451,0.562c0.109,0.241,0.164,0.498,0.164,0.766c0,0.384-0.1,0.726-0.309,1.015
			c-0.183,0.247-0.421,0.425-0.711,0.529c-0.299,0.107-0.71,0.16-1.238,0.16H171.88L171.88,56.744z M171.88,55.795h1.91
			c0.384,0,0.651-0.038,0.802-0.12c0.1-0.049,0.179-0.138,0.241-0.254c0.057-0.114,0.084-0.243,0.084-0.381
			c0-0.137-0.027-0.265-0.084-0.379c-0.062-0.115-0.142-0.203-0.241-0.255c-0.15-0.079-0.416-0.121-0.802-0.121h-1.91V55.795z"/>
		<path fill="#363092" d="M177.847,57.38v1.31c0,0.073,0.022,0.136,0.054,0.174c0.035,0.042,0.096,0.075,0.18,0.103v0.104h-1.445
			v-0.104c0.082-0.025,0.141-0.052,0.176-0.099c0.035-0.038,0.054-0.097,0.054-0.171v-3.361c0-0.076-0.017-0.134-0.054-0.168
			c-0.035-0.042-0.094-0.077-0.176-0.105v-0.103h2.693c0.354,0,0.617,0.02,0.8,0.054c0.188,0.033,0.347,0.097,0.491,0.191
			c0.298,0.193,0.447,0.509,0.447,0.944c0,0.331-0.089,0.596-0.273,0.78c-0.188,0.191-0.476,0.324-0.886,0.405l0.785,1.082
			c0.141,0.204,0.251,0.34,0.339,0.413c0.088,0.07,0.184,0.116,0.29,0.137v0.104h-1.733v-0.104c0.132-0.034,0.192-0.09,0.192-0.165
			c0-0.054-0.039-0.136-0.116-0.242l-0.828-1.179H177.847L177.847,57.38z M177.847,56.636h1.492c0.229,0,0.394-0.027,0.5-0.073
			c0.151-0.064,0.225-0.196,0.225-0.394c0-0.172-0.047-0.294-0.156-0.365c-0.108-0.064-0.297-0.1-0.568-0.1h-1.487v0.932H177.847z"
			/>
		<path fill="#363092" d="M183.891,54.867c0.653,0,1.197,0.167,1.634,0.501c0.521,0.4,0.78,0.965,0.78,1.676
			c0,0.676-0.26,1.217-0.78,1.621c-0.432,0.327-0.972,0.496-1.628,0.496c-0.651,0-1.192-0.169-1.623-0.496
			c-0.522-0.404-0.787-0.956-0.787-1.651c0-0.705,0.265-1.253,0.787-1.646C182.707,55.044,183.245,54.877,183.891,54.867z
			 M183.895,55.648c-0.425,0-0.768,0.138-1.036,0.411c-0.247,0.251-0.371,0.574-0.371,0.954c0,0.379,0.124,0.702,0.371,0.955
			c0.269,0.273,0.613,0.412,1.038,0.412c0.422,0,0.771-0.139,1.039-0.412c0.245-0.253,0.37-0.566,0.37-0.938
			c0-0.4-0.125-0.727-0.37-0.972C184.665,55.793,184.318,55.655,183.895,55.648z"/>
		<path fill="#363092" d="M189.435,59.069l-1.5-2.696v2.316c0,0.073,0.02,0.136,0.053,0.174c0.033,0.042,0.096,0.075,0.182,0.103
			v0.104h-1.36v-0.104c0.088-0.025,0.142-0.052,0.181-0.099c0.031-0.038,0.051-0.097,0.051-0.171v-3.361
			c0-0.076-0.015-0.134-0.047-0.176c-0.037-0.038-0.097-0.071-0.185-0.098v-0.103h1.73v0.103c-0.116,0.042-0.168,0.109-0.168,0.211
			s0.039,0.222,0.123,0.367l1.025,1.858l1.029-1.832c0.114-0.191,0.175-0.331,0.175-0.412c0-0.1-0.061-0.164-0.177-0.192v-0.103
			h1.689v0.103c-0.087,0.026-0.147,0.06-0.183,0.098c-0.036,0.042-0.049,0.1-0.049,0.176v3.354c0,0.073,0.013,0.136,0.049,0.178
			c0.035,0.043,0.096,0.071,0.183,0.099v0.104h-1.452v-0.104c0.087-0.025,0.142-0.052,0.183-0.099
			c0.033-0.038,0.051-0.097,0.051-0.171v-2.323L189.435,59.069z"/>
		<path fill="#363092" d="M195.152,54.867c0.656,0,1.201,0.167,1.632,0.501c0.524,0.4,0.785,0.965,0.785,1.676
			c0,0.676-0.261,1.217-0.785,1.621c-0.429,0.327-0.97,0.496-1.623,0.496c-0.651,0-1.193-0.169-1.624-0.496
			c-0.525-0.404-0.782-0.956-0.782-1.651c0-0.705,0.26-1.253,0.782-1.646C193.97,55.044,194.51,54.877,195.152,54.867z
			 M195.159,55.648c-0.427,0-0.767,0.138-1.038,0.411c-0.246,0.251-0.371,0.574-0.371,0.954c0,0.379,0.125,0.702,0.371,0.955
			c0.271,0.273,0.611,0.412,1.04,0.412c0.428,0,0.77-0.139,1.034-0.412c0.251-0.253,0.376-0.566,0.376-0.938
			c0-0.4-0.125-0.727-0.376-0.972C195.929,55.793,195.582,55.655,195.159,55.648z"/>
		<path fill="#363092" d="M202.09,57.591l0.622,0.917l-0.084,0.062c-0.059-0.04-0.107-0.062-0.141-0.062
			c-0.042,0-0.138,0.044-0.287,0.136c-0.34,0.195-0.638,0.331-0.891,0.404c-0.258,0.077-0.555,0.113-0.89,0.113
			c-0.667,0-1.217-0.16-1.639-0.48c-0.24-0.185-0.428-0.415-0.571-0.688c-0.151-0.301-0.231-0.623-0.231-0.977
			c0-0.482,0.143-0.909,0.425-1.276c0.434-0.58,1.106-0.87,2.01-0.87c0.336,0,0.634,0.039,0.892,0.114
			c0.261,0.078,0.56,0.214,0.894,0.409c0.151,0.089,0.247,0.136,0.289,0.136c0.033,0,0.082-0.02,0.138-0.062l0.087,0.064
			l-0.622,0.903l-0.08-0.061c0.002-0.031,0.002-0.047,0.009-0.054c0-0.023,0.002-0.038,0.002-0.049c0-0.122-0.165-0.254-0.494-0.404
			c-0.313-0.143-0.629-0.213-0.948-0.213c-0.445,0-0.812,0.115-1.101,0.346c-0.329,0.268-0.498,0.604-0.498,1.017
			c0,0.413,0.169,0.756,0.498,1.018c0.288,0.229,0.658,0.348,1.101,0.348c0.347,0,0.693-0.09,1.04-0.262
			c0.27-0.137,0.402-0.254,0.402-0.359c0-0.004-0.002-0.04-0.011-0.104L202.09,57.591z"/>
		<path fill="#363092" d="M204.405,55.335v3.354c0,0.073,0.023,0.136,0.052,0.174c0.034,0.042,0.094,0.075,0.183,0.103v0.104h-1.449
			v-0.104c0.082-0.025,0.145-0.052,0.179-0.099c0.036-0.038,0.052-0.097,0.052-0.171v-3.361c0-0.076-0.016-0.134-0.049-0.168
			c-0.035-0.042-0.096-0.077-0.182-0.105v-0.103h1.449v0.103c-0.089,0.026-0.148,0.06-0.183,0.098
			C204.429,55.201,204.405,55.259,204.405,55.335z"/>
		<path fill="#363092" d="M207.545,54.867c0.657,0,1.199,0.167,1.637,0.501c0.521,0.4,0.783,0.965,0.783,1.676
			c0,0.676-0.263,1.217-0.783,1.621c-0.432,0.327-0.971,0.496-1.625,0.496c-0.653,0-1.196-0.169-1.627-0.496
			c-0.525-0.404-0.785-0.956-0.785-1.651c0-0.705,0.26-1.253,0.785-1.646C206.36,55.044,206.903,54.877,207.545,54.867z
			 M207.553,55.648c-0.423,0-0.77,0.138-1.039,0.411c-0.244,0.251-0.369,0.574-0.369,0.954c0,0.379,0.125,0.702,0.369,0.955
			c0.27,0.273,0.616,0.412,1.043,0.412c0.424,0,0.769-0.139,1.036-0.412c0.248-0.253,0.371-0.566,0.371-0.938
			c0-0.4-0.12-0.727-0.371-0.972C208.318,55.793,207.975,55.655,207.553,55.648z M208.612,53.449v0.093
			c-0.096,0.007-0.167,0.041-0.217,0.104l-0.526,0.638c-0.013,0.02-0.02,0.04-0.02,0.062c0,0.039,0.027,0.062,0.073,0.062
			c0.005,0,0.014,0,0.019,0v0.095h-0.797v-0.095c0.056,0,0.099-0.014,0.123-0.027c0.027-0.018,0.047-0.052,0.068-0.108l0.245-0.6
			c0.009-0.021,0.013-0.041,0.013-0.057c0-0.038-0.035-0.063-0.1-0.072v-0.093H208.612z"/>
		<path fill="#363092" d="M211.597,56.362v2.327c0,0.073,0.013,0.136,0.048,0.178c0.038,0.043,0.094,0.071,0.181,0.099v0.104h-1.361
			v-0.104c0.088-0.025,0.15-0.052,0.183-0.099c0.034-0.038,0.054-0.097,0.054-0.171v-3.361c0-0.076-0.018-0.134-0.054-0.168
			c-0.03-0.042-0.095-0.077-0.183-0.105v-0.103h1.579v0.103c-0.104,0.028-0.162,0.075-0.162,0.145c0,0.06,0.045,0.127,0.122,0.209
			l2.208,2.184v-2.264c0-0.076-0.017-0.134-0.052-0.176c-0.036-0.038-0.093-0.071-0.182-0.098v-0.103h1.36v0.103
			c-0.089,0.026-0.15,0.06-0.183,0.098c-0.033,0.042-0.054,0.1-0.054,0.176v3.354c0,0.073,0.021,0.136,0.054,0.174
			c0.032,0.042,0.094,0.075,0.183,0.103v0.104h-1.473v-0.104c0.112-0.025,0.163-0.066,0.163-0.137c0-0.032-0.018-0.066-0.04-0.105
			c-0.033-0.034-0.1-0.107-0.207-0.214L211.597,56.362z"/>
		<path fill="#363092" d="M219.21,56.554v1.571h3.681c0.082,0,0.146-0.019,0.193-0.058c0.043-0.038,0.08-0.109,0.109-0.209h0.138
			v1.48h-0.138c-0.029-0.1-0.066-0.171-0.109-0.209c-0.047-0.041-0.111-0.061-0.193-0.061h-5.198v-0.138
			c0.103-0.026,0.169-0.064,0.209-0.106c0.038-0.046,0.053-0.11,0.053-0.2v-4.842c0-0.088-0.015-0.153-0.053-0.196
			c-0.04-0.047-0.106-0.082-0.209-0.108v-0.138h5.093c0.083,0,0.15-0.021,0.191-0.061c0.047-0.042,0.086-0.109,0.111-0.207h0.136
			v1.479h-0.136c-0.025-0.099-0.064-0.169-0.111-0.208c-0.041-0.039-0.108-0.06-0.191-0.06h-3.575v1.359h2.322
			c0.084,0,0.146-0.019,0.19-0.061c0.048-0.036,0.082-0.109,0.109-0.21h0.138v1.444h-0.138c-0.029-0.097-0.062-0.165-0.109-0.206
			c-0.044-0.039-0.106-0.061-0.19-0.061h-2.322V56.554z"/>
		<path fill="#363092" d="M227.943,57.591l0.623,0.917l-0.086,0.062c-0.059-0.04-0.105-0.062-0.143-0.062
			c-0.038,0-0.132,0.044-0.287,0.136c-0.336,0.195-0.635,0.331-0.885,0.404c-0.26,0.077-0.554,0.113-0.89,0.113
			c-0.669,0-1.221-0.16-1.641-0.48c-0.236-0.185-0.432-0.415-0.573-0.688c-0.149-0.301-0.228-0.623-0.228-0.977
			c0-0.482,0.143-0.909,0.416-1.276c0.44-0.58,1.111-0.87,2.017-0.87c0.336,0,0.633,0.039,0.898,0.114
			c0.255,0.078,0.554,0.214,0.885,0.409c0.152,0.089,0.249,0.136,0.287,0.136c0.037,0,0.084-0.02,0.143-0.062l0.086,0.064
			l-0.623,0.903l-0.082-0.061c0.004-0.031,0.007-0.047,0.007-0.054c0.004-0.023,0.006-0.038,0.006-0.049
			c0-0.122-0.166-0.254-0.492-0.404c-0.316-0.143-0.63-0.213-0.95-0.213c-0.444,0-0.811,0.115-1.101,0.346
			c-0.331,0.268-0.495,0.604-0.495,1.017c0,0.413,0.164,0.756,0.495,1.018c0.292,0.229,0.661,0.348,1.101,0.348
			c0.35,0,0.696-0.09,1.041-0.262c0.264-0.137,0.401-0.254,0.401-0.359c0-0.004-0.006-0.04-0.013-0.104L227.943,57.591z"/>
		<path fill="#363092" d="M231.359,54.867c0.655,0,1.197,0.167,1.636,0.501c0.519,0.4,0.778,0.965,0.778,1.676
			c0,0.676-0.26,1.217-0.778,1.621c-0.437,0.327-0.979,0.496-1.632,0.496c-0.651,0-1.191-0.169-1.625-0.496
			c-0.522-0.404-0.787-0.956-0.787-1.651c0-0.705,0.265-1.253,0.787-1.646C230.172,55.044,230.712,54.877,231.359,54.867z
			 M231.363,55.648c-0.428,0-0.771,0.138-1.04,0.411c-0.245,0.251-0.37,0.574-0.37,0.954c0,0.379,0.125,0.702,0.37,0.955
			c0.269,0.273,0.615,0.412,1.04,0.412c0.427,0,0.77-0.139,1.041-0.412c0.244-0.253,0.371-0.566,0.371-0.938
			c0-0.4-0.125-0.727-0.371-0.972C232.133,55.793,231.785,55.655,231.363,55.648z"/>
		<path fill="#363092" d="M235.403,56.362v2.327c0,0.073,0.02,0.136,0.054,0.178c0.032,0.043,0.097,0.071,0.18,0.099v0.104h-1.36
			v-0.104c0.086-0.025,0.142-0.052,0.179-0.099c0.034-0.038,0.052-0.097,0.052-0.171v-3.361c0-0.076-0.018-0.134-0.049-0.168
			c-0.033-0.044-0.096-0.077-0.182-0.105v-0.103h1.576v0.103c-0.107,0.028-0.159,0.075-0.159,0.145c0,0.06,0.039,0.127,0.116,0.209
			l2.21,2.184v-2.264c0-0.076-0.018-0.134-0.054-0.176c-0.03-0.038-0.093-0.071-0.183-0.098v-0.103h1.361v0.103
			c-0.089,0.026-0.145,0.06-0.178,0.098c-0.04,0.042-0.056,0.1-0.056,0.176v3.354c0,0.073,0.016,0.136,0.056,0.174
			c0.033,0.042,0.089,0.075,0.178,0.103v0.104h-1.469v-0.104c0.107-0.025,0.161-0.066,0.161-0.137c0-0.032-0.018-0.066-0.044-0.105
			c-0.029-0.034-0.096-0.107-0.199-0.214L235.403,56.362z"/>
		<path fill="#363092" d="M242.049,54.867c0.655,0,1.197,0.167,1.634,0.501c0.522,0.4,0.784,0.965,0.784,1.676
			c0,0.676-0.262,1.217-0.784,1.621c-0.43,0.327-0.97,0.496-1.628,0.496c-0.653,0-1.195-0.169-1.625-0.496
			c-0.521-0.404-0.782-0.956-0.782-1.651c0-0.705,0.264-1.253,0.782-1.646C240.866,55.044,241.401,54.877,242.049,54.867z
			 M242.055,55.648c-0.427,0-0.77,0.138-1.036,0.411c-0.251,0.251-0.376,0.574-0.376,0.954c0,0.379,0.125,0.702,0.376,0.955
			c0.267,0.273,0.614,0.412,1.036,0.412c0.428,0,0.771-0.139,1.039-0.412c0.249-0.253,0.371-0.566,0.371-0.938
			c0-0.4-0.12-0.727-0.371-0.972C242.822,55.793,242.477,55.655,242.055,55.648z M243.113,53.449v0.093
			c-0.093,0.007-0.166,0.041-0.218,0.104l-0.521,0.638c-0.018,0.02-0.025,0.04-0.025,0.062c0,0.039,0.027,0.062,0.081,0.062
			c0,0,0.007,0,0.011,0v0.095h-0.798v-0.095c0.062,0,0.1-0.014,0.13-0.027c0.021-0.018,0.041-0.052,0.064-0.108l0.243-0.6
			c0.012-0.021,0.017-0.041,0.017-0.057c0-0.038-0.041-0.063-0.107-0.072v-0.093H243.113z"/>
		<path fill="#363092" d="M247.593,59.069l-1.496-2.696v2.316c0,0.073,0.016,0.136,0.05,0.174c0.034,0.042,0.093,0.075,0.185,0.103
			v0.104h-1.361v-0.104c0.082-0.025,0.14-0.052,0.18-0.099c0.033-0.038,0.051-0.097,0.051-0.171v-3.361
			c0-0.076-0.018-0.134-0.048-0.176c-0.036-0.038-0.099-0.071-0.183-0.098v-0.103h1.728v0.103c-0.114,0.042-0.169,0.109-0.169,0.211
			s0.037,0.222,0.125,0.367l1.026,1.858l1.031-1.832c0.111-0.191,0.172-0.331,0.172-0.412c0-0.1-0.061-0.164-0.178-0.192v-0.103
			h1.689v0.103c-0.091,0.026-0.146,0.06-0.185,0.098c-0.028,0.042-0.045,0.1-0.045,0.176v3.354c0,0.073,0.017,0.136,0.045,0.178
			c0.038,0.043,0.094,0.071,0.185,0.099v0.104h-1.449v-0.104c0.082-0.025,0.145-0.052,0.175-0.099
			c0.04-0.038,0.058-0.097,0.058-0.171v-2.323L247.593,59.069z"/>
		<path fill="#363092" d="M252.22,55.335v3.354c0,0.073,0.016,0.136,0.052,0.174c0.03,0.042,0.091,0.075,0.177,0.103v0.104h-1.449
			v-0.104c0.087-0.025,0.145-0.052,0.183-0.099c0.033-0.038,0.049-0.097,0.049-0.171v-3.361c0-0.076-0.016-0.134-0.045-0.168
			c-0.04-0.042-0.097-0.077-0.187-0.105v-0.103h1.449v0.103c-0.086,0.026-0.146,0.06-0.177,0.098
			C252.235,55.201,252.22,55.259,252.22,55.335z"/>
		<path fill="#363092" d="M257.062,57.591l0.623,0.917l-0.085,0.062c-0.06-0.04-0.106-0.062-0.14-0.062
			c-0.044,0-0.141,0.044-0.291,0.136c-0.333,0.195-0.632,0.331-0.892,0.404c-0.254,0.077-0.547,0.113-0.883,0.113
			c-0.672,0-1.221-0.16-1.642-0.48c-0.239-0.185-0.431-0.415-0.572-0.688c-0.152-0.301-0.226-0.623-0.226-0.977
			c0-0.482,0.141-0.909,0.417-1.276c0.437-0.58,1.109-0.87,2.014-0.87c0.336,0,0.633,0.039,0.892,0.114
			c0.262,0.078,0.559,0.214,0.892,0.409c0.15,0.089,0.247,0.136,0.291,0.136c0.033,0,0.08-0.02,0.14-0.062l0.085,0.064l-0.623,0.903
			l-0.077-0.061c0.002-0.031,0.002-0.047,0.004-0.054c0.005-0.023,0.007-0.038,0.007-0.049c0-0.122-0.171-0.254-0.502-0.404
			c-0.31-0.143-0.623-0.213-0.94-0.213c-0.447,0-0.813,0.115-1.102,0.346c-0.333,0.268-0.497,0.604-0.497,1.017
			c0,0.413,0.164,0.756,0.497,1.018c0.292,0.229,0.658,0.348,1.102,0.348c0.346,0,0.693-0.09,1.04-0.262
			c0.269-0.137,0.402-0.254,0.402-0.359c0-0.004-0.007-0.04-0.011-0.104L257.062,57.591z"/>
		<path fill="#363092" d="M261.275,58.042h-1.89l-0.216,0.445c-0.054,0.109-0.076,0.193-0.076,0.253
			c0,0.116,0.076,0.191,0.236,0.226v0.104h-1.51v-0.104c0.086-0.015,0.157-0.043,0.206-0.083c0.045-0.044,0.094-0.125,0.158-0.246
			l1.498-3.037c0.058-0.116,0.088-0.216,0.088-0.298c0-0.104-0.067-0.181-0.205-0.24v-0.103h1.596v0.103
			c-0.135,0.057-0.202,0.143-0.202,0.252c0,0.081,0.028,0.181,0.093,0.297l1.557,2.941c0.088,0.165,0.15,0.267,0.202,0.312
			c0.05,0.051,0.125,0.082,0.224,0.103v0.104h-1.677v-0.104c0.158-0.027,0.238-0.103,0.238-0.223c0-0.076-0.027-0.169-0.088-0.282
			L261.275,58.042z M260.977,57.463l-0.673-1.321l-0.639,1.321H260.977z"/>
		<path fill="#363092" d="M175.687,46.586l-0.684,1.348l-0.118-0.069c0.005-0.024,0.005-0.049,0.005-0.064
			c0-0.095-0.082-0.198-0.244-0.307c-0.496-0.347-1.078-0.52-1.75-0.52c-0.298,0-0.561,0.038-0.786,0.108
			c-0.168,0.056-0.301,0.141-0.402,0.254c-0.105,0.113-0.152,0.233-0.152,0.369c0,0.213,0.125,0.36,0.39,0.438
			c0.133,0.04,0.425,0.08,0.864,0.126l0.659,0.067c0.391,0.042,0.71,0.098,0.95,0.171c0.241,0.073,0.454,0.171,0.646,0.307
			c0.187,0.136,0.338,0.32,0.447,0.542c0.111,0.222,0.167,0.462,0.167,0.716c0,0.403-0.129,0.763-0.39,1.076
			c-0.233,0.287-0.599,0.499-1.096,0.634c-0.365,0.104-0.763,0.158-1.183,0.158c-0.763,0-1.509-0.183-2.244-0.547
			c-0.157-0.072-0.251-0.107-0.282-0.107c-0.038,0-0.094,0.028-0.176,0.089l-0.12-0.061l0.623-1.405l0.12,0.058
			c0,0.027,0,0.044,0,0.056c0,0.125,0.062,0.24,0.185,0.35c0.175,0.159,0.46,0.299,0.84,0.417s0.741,0.179,1.081,0.179
			c0.373,0,0.689-0.064,0.952-0.191c0.146-0.069,0.267-0.162,0.351-0.278c0.084-0.117,0.131-0.24,0.131-0.367
			c0-0.187-0.103-0.325-0.31-0.407c-0.142-0.054-0.428-0.107-0.864-0.153l-0.645-0.067c-0.437-0.045-0.742-0.089-0.921-0.129
			c-0.178-0.04-0.356-0.106-0.537-0.198c-0.254-0.123-0.454-0.312-0.602-0.567c-0.131-0.227-0.195-0.487-0.195-0.78
			c0-0.484,0.167-0.885,0.5-1.205c0.435-0.416,1.09-0.625,1.966-0.625c0.362,0,0.707,0.038,1.022,0.109
			c0.318,0.076,0.71,0.213,1.186,0.411c0.158,0.064,0.262,0.098,0.298,0.098c0.058,0,0.125-0.033,0.204-0.098L175.687,46.586z"/>
		<path fill="#363092" d="M178.552,47.633c0.656,0,1.198,0.165,1.632,0.5c0.522,0.4,0.783,0.96,0.783,1.68
			c0,0.672-0.261,1.212-0.783,1.61c-0.429,0.336-0.967,0.501-1.623,0.501c-0.653,0-1.196-0.165-1.625-0.501
			c-0.524-0.397-0.785-0.951-0.785-1.645c0-0.702,0.261-1.254,0.785-1.645C177.37,47.805,177.907,47.64,178.552,47.633z
			 M178.557,48.416c-0.426,0-0.77,0.133-1.036,0.405c-0.247,0.256-0.374,0.573-0.374,0.958c0,0.382,0.127,0.701,0.374,0.957
			c0.267,0.271,0.615,0.409,1.04,0.409s0.768-0.138,1.036-0.409c0.246-0.253,0.371-0.565,0.371-0.938
			c0-0.403-0.125-0.728-0.371-0.976C179.325,48.554,178.98,48.42,178.557,48.416z"/>
		<path fill="#363092" d="M185.49,50.359l0.619,0.914l-0.086,0.059c-0.056-0.039-0.104-0.059-0.142-0.059
			c-0.035,0-0.134,0.041-0.286,0.136c-0.337,0.194-0.628,0.325-0.89,0.406c-0.254,0.073-0.556,0.111-0.89,0.111
			c-0.667,0-1.214-0.163-1.635-0.485c-0.243-0.179-0.431-0.413-0.576-0.687c-0.15-0.3-0.228-0.627-0.228-0.974
			c0-0.482,0.142-0.909,0.419-1.28c0.438-0.576,1.112-0.867,2.013-0.867c0.338,0,0.636,0.04,0.894,0.12
			c0.265,0.071,0.562,0.207,0.893,0.402c0.15,0.091,0.245,0.136,0.286,0.136c0.038,0,0.086-0.018,0.142-0.062l0.086,0.066
			l-0.619,0.898l-0.084-0.055c0.004-0.031,0.004-0.047,0.009-0.056c0.002-0.022,0.002-0.04,0.002-0.047
			c0-0.12-0.163-0.255-0.494-0.405c-0.314-0.144-0.628-0.216-0.944-0.216c-0.446,0-0.816,0.116-1.103,0.35
			c-0.329,0.267-0.496,0.605-0.496,1.016c0,0.416,0.167,0.753,0.496,1.016c0.291,0.231,0.658,0.348,1.103,0.348
			c0.345,0,0.691-0.088,1.036-0.258c0.27-0.141,0.402-0.258,0.402-0.361c0-0.006-0.002-0.039-0.011-0.104L185.49,50.359z"/>
		<path fill="#363092" d="M187.808,48.101v3.354c0,0.078,0.018,0.135,0.046,0.174c0.036,0.04,0.099,0.073,0.185,0.099v0.107h-1.451
			v-0.107c0.084-0.02,0.146-0.05,0.18-0.093c0.033-0.042,0.053-0.102,0.053-0.178v-3.354c0-0.078-0.02-0.136-0.053-0.178
			c-0.031-0.036-0.089-0.071-0.18-0.096v-0.104h1.451v0.104c-0.086,0.025-0.148,0.056-0.185,0.096
			C187.825,47.967,187.808,48.024,187.808,48.101z"/>
		<path fill="#363092" d="M189.849,50.086v1.007h2.604c0.075,0,0.133-0.021,0.171-0.051c0.042-0.033,0.073-0.097,0.098-0.186h0.107
			v1.21h-0.107c-0.024-0.08-0.054-0.142-0.093-0.18c-0.041-0.034-0.101-0.052-0.176-0.052h-3.818v-0.107
			c0.085-0.02,0.146-0.05,0.176-0.093c0.041-0.042,0.056-0.102,0.056-0.178v-3.354c0-0.078-0.015-0.136-0.049-0.178
			c-0.035-0.036-0.095-0.071-0.183-0.096v-0.104h3.704c0.082,0,0.145-0.018,0.183-0.051c0.035-0.033,0.071-0.093,0.095-0.185h0.101
			V48.7h-0.101c-0.023-0.089-0.06-0.151-0.095-0.185c-0.038-0.028-0.101-0.048-0.183-0.048h-2.489v0.905h1.545
			c0.075,0,0.136-0.022,0.177-0.054c0.039-0.033,0.073-0.096,0.101-0.18h0.096v1.178h-0.096c-0.023-0.087-0.06-0.147-0.101-0.18
			c-0.037-0.036-0.097-0.051-0.177-0.051H189.849z"/>
		<path fill="#363092" d="M193.559,51.457v-3.354c0-0.078-0.018-0.136-0.054-0.178c-0.03-0.036-0.09-0.071-0.18-0.096v-0.104h2.41
			c0.503,0,0.896,0.062,1.183,0.187c0.407,0.173,0.7,0.467,0.883,0.874c0.127,0.284,0.185,0.616,0.185,0.994
			c0,0.704-0.211,1.237-0.63,1.596c-0.188,0.165-0.406,0.281-0.664,0.351c-0.256,0.074-0.576,0.109-0.956,0.109h-2.41v-0.107
			c0.087-0.02,0.145-0.05,0.18-0.093C193.541,51.593,193.559,51.533,193.559,51.457z M194.544,51.093h1.049
			c0.482,0,0.832-0.113,1.054-0.331c0.226-0.231,0.342-0.559,0.342-0.983c0-0.422-0.116-0.75-0.342-0.983
			c-0.116-0.118-0.256-0.195-0.417-0.249c-0.17-0.053-0.383-0.08-0.637-0.08h-1.049V51.093z"/>
		<path fill="#363092" d="M201.608,50.806h-1.896l-0.214,0.447c-0.051,0.106-0.079,0.19-0.079,0.251c0,0.12,0.079,0.193,0.239,0.224
			v0.107h-1.512v-0.107c0.092-0.015,0.158-0.039,0.206-0.084c0.043-0.04,0.099-0.121,0.161-0.243l1.501-3.038
			c0.058-0.114,0.086-0.216,0.086-0.3c0-0.101-0.069-0.178-0.209-0.234v-0.104h1.6v0.104c-0.134,0.056-0.204,0.138-0.204,0.247
			c0,0.082,0.032,0.18,0.092,0.298l1.557,2.946c0.089,0.159,0.153,0.265,0.202,0.31c0.047,0.051,0.125,0.084,0.223,0.099v0.107
			h-1.674v-0.107c0.159-0.025,0.239-0.099,0.239-0.222c0-0.075-0.03-0.167-0.091-0.279L201.608,50.806z M201.31,50.228l-0.675-1.323
			l-0.64,1.323H201.31z"/>
		<path fill="#363092" d="M203.811,51.457v-3.354c0-0.078-0.018-0.136-0.057-0.178c-0.025-0.036-0.088-0.071-0.179-0.096v-0.104
			h2.414c0.497,0,0.896,0.062,1.181,0.187c0.409,0.173,0.697,0.467,0.878,0.874c0.127,0.284,0.187,0.616,0.187,0.994
			c0,0.704-0.206,1.237-0.627,1.596c-0.188,0.165-0.409,0.281-0.665,0.351c-0.253,0.074-0.573,0.109-0.953,0.109h-2.414v-0.107
			c0.086-0.02,0.146-0.05,0.179-0.093C203.79,51.593,203.811,51.533,203.811,51.457z M204.793,51.093h1.051
			c0.483,0,0.834-0.113,1.052-0.331c0.228-0.231,0.339-0.559,0.339-0.983c0-0.422-0.111-0.75-0.339-0.983
			c-0.112-0.118-0.25-0.195-0.42-0.249c-0.166-0.053-0.378-0.08-0.632-0.08h-1.051V51.093z"/>
		<path fill="#363092" d="M210.587,51.457v-3.354c0-0.078-0.018-0.136-0.052-0.178c-0.032-0.036-0.095-0.071-0.182-0.096v-0.104
			h2.41c0.502,0,0.897,0.062,1.183,0.187c0.409,0.173,0.7,0.467,0.878,0.874c0.125,0.284,0.187,0.616,0.187,0.994
			c0,0.704-0.206,1.237-0.625,1.596c-0.188,0.165-0.408,0.281-0.667,0.351c-0.256,0.074-0.573,0.109-0.955,0.109h-2.41v-0.107
			c0.084-0.02,0.145-0.05,0.18-0.093C210.569,51.593,210.587,51.533,210.587,51.457z M211.569,51.093h1.054
			c0.48,0,0.829-0.113,1.047-0.331c0.228-0.231,0.341-0.559,0.341-0.983c0-0.422-0.113-0.75-0.341-0.983
			c-0.112-0.118-0.25-0.195-0.42-0.249c-0.161-0.053-0.376-0.08-0.627-0.08h-1.054V51.093z"/>
		<path fill="#363092" d="M216.596,50.086v1.007h2.602c0.073,0,0.131-0.021,0.174-0.051c0.043-0.033,0.073-0.097,0.1-0.186h0.104
			v1.21h-0.104c-0.024-0.08-0.055-0.142-0.098-0.18c-0.045-0.034-0.103-0.052-0.176-0.052h-3.816v-0.107
			c0.082-0.02,0.144-0.05,0.177-0.093c0.036-0.042,0.056-0.102,0.056-0.178v-3.354c0-0.078-0.018-0.136-0.056-0.178
			c-0.03-0.036-0.091-0.071-0.177-0.096v-0.104h3.708c0.078,0,0.136-0.018,0.175-0.051c0.045-0.033,0.071-0.093,0.099-0.185h0.1
			V48.7h-0.1c-0.027-0.089-0.054-0.151-0.099-0.185c-0.039-0.028-0.097-0.048-0.175-0.048h-2.493v0.905h1.544
			c0.079,0,0.138-0.022,0.176-0.054c0.039-0.033,0.07-0.096,0.1-0.18h0.096v1.178h-0.096c-0.022-0.087-0.061-0.147-0.098-0.18
			c-0.038-0.036-0.094-0.051-0.178-0.051H216.596z"/>
	</g>
	<g>
		<rect x="1.966" fill="#002577" width="106.481" height="100"/>
		<g>
			<defs>
				<rect id="SVGID_11_" x="1.966" width="106.481" height="100"/>
			</defs>
			<clipPath id="SVGID_12_">
				<use xlink:href="#SVGID_11_"  overflow="visible"/>
			</clipPath>
			<path clip-path="url(#SVGID_12_)" fill="#F6E000" d="M65.928,30.045l-0.272-0.089c-2.358-0.78-5.715-1.674-10.791-1.683
				c-5.329,0-9.068,1.036-10.827,1.654l-0.285,0.098l-0.826-2.085c-0.146-0.1-0.41-0.291-0.591-0.44
				c-0.219-0.178-0.544-0.482-0.544-0.482c-1.832-1.814-2.365-4.102-1.467-6.285c0.98-2.386,3.412-4.053,5.909-4.053
				c0.396,0,0.787,0.042,1.169,0.126c1.391-1.165,3.098-1.767,4.776-1.701c0-0.006,0-0.013,0-0.02c0-1.094,0.665-2.055,1.676-2.461
				v-0.872h-1.351V9.767h1.351V8.386h1.984v1.381h1.389v1.985h-1.389v0.858c1.036,0.398,1.713,1.362,1.713,2.475
				c0,0.006,0,0.013,0,0.02c1.703-0.066,3.387,0.536,4.775,1.701c0.383-0.084,0.774-0.126,1.168-0.126
				c2.499,0,4.932,1.667,5.912,4.053c0.898,2.183,0.367,4.471-1.462,6.278c0,0.003-0.34,0.338-0.572,0.539
				c-0.165,0.14-0.408,0.322-0.544,0.425L65.928,30.045z M65.092,25.686l-0.138-0.045c-0.428-0.133-0.872-0.26-1.332-0.38
				l-0.411-0.104l0.22-0.36c1.154-1.888,0.892-3.631,0.471-4.763l-0.204-0.544l0.567,0.131c1.235,0.284,2.285,1.247,2.612,2.395
				c0.298,1.047-0.026,2.11-0.919,2.988c0,0-0.224,0.225-0.38,0.349c-0.104,0.084-0.24,0.178-0.362,0.255L65.092,25.686z
				 M44.722,25.65l-0.111-0.06c-0.121-0.062-0.319-0.173-0.456-0.267c-0.15-0.111-0.373-0.309-0.373-0.309
				c-0.898-0.889-1.225-1.952-0.928-2.999c0.327-1.147,1.377-2.11,2.613-2.395l0.568-0.131l-0.204,0.544
				c-0.422,1.132-0.685,2.875,0.469,4.765l0.223,0.362l-0.414,0.104c-0.435,0.111-0.857,0.227-1.262,0.347L44.722,25.65z
				 M60.521,24.645l-0.158-0.022c-1.229-0.171-2.552-0.282-3.926-0.332l-0.303-0.011v-5.494l0.165-0.089
				c0.46-0.247,0.963-0.373,1.491-0.373c1.497,0,3.021,1.041,3.63,2.47c0.546,1.29,0.259,2.652-0.789,3.735L60.521,24.645z
				 M49.258,24.643l-0.111-0.111c-1.076-1.083-1.386-2.446-0.848-3.737c0.596-1.434,2.122-2.474,3.629-2.474
				c0.535,0,1.04,0.126,1.505,0.377l0.164,0.089v5.494l-0.302,0.009c-1.343,0.046-2.65,0.158-3.882,0.331L49.258,24.643z"/>
			<path clip-path="url(#SVGID_12_)" fill="none" stroke="#F6E000" stroke-width="1.1192" stroke-miterlimit="10" d="M65.928,30.045
				l-0.272-0.089c-2.358-0.78-5.715-1.674-10.791-1.683c-5.329,0-9.068,1.036-10.827,1.654l-0.285,0.098l-0.826-2.085
				c-0.146-0.1-0.41-0.291-0.591-0.44c-0.219-0.178-0.544-0.482-0.544-0.482c-1.832-1.814-2.365-4.102-1.467-6.285
				c0.98-2.386,3.412-4.053,5.909-4.053c0.396,0,0.787,0.042,1.169,0.126c1.391-1.165,3.098-1.767,4.776-1.701
				c0-0.006,0-0.013,0-0.02c0-1.094,0.665-2.055,1.676-2.461v-0.872h-1.351V9.767h1.351V8.386h1.984v1.381h1.389v1.985h-1.389v0.858
				c1.036,0.398,1.713,1.362,1.713,2.475c0,0.006,0,0.013,0,0.02c1.703-0.066,3.387,0.536,4.775,1.701
				c0.383-0.084,0.774-0.126,1.168-0.126c2.499,0,4.932,1.667,5.912,4.053c0.898,2.183,0.367,4.471-1.462,6.278
				c0,0.003-0.34,0.338-0.572,0.539c-0.165,0.14-0.408,0.322-0.544,0.425L65.928,30.045z M65.092,25.686l-0.138-0.045
				c-0.428-0.133-0.872-0.26-1.332-0.38l-0.411-0.104l0.22-0.36c1.154-1.888,0.892-3.631,0.471-4.763l-0.204-0.544l0.567,0.131
				c1.235,0.284,2.285,1.247,2.612,2.395c0.298,1.047-0.026,2.11-0.919,2.988c0,0-0.224,0.225-0.38,0.349
				c-0.104,0.084-0.24,0.178-0.362,0.255L65.092,25.686z M44.722,25.65l-0.111-0.06c-0.121-0.062-0.319-0.173-0.456-0.267
				c-0.15-0.111-0.373-0.309-0.373-0.309c-0.898-0.889-1.225-1.952-0.928-2.999c0.327-1.147,1.377-2.11,2.613-2.395l0.568-0.131
				l-0.204,0.544c-0.422,1.132-0.685,2.875,0.469,4.765l0.223,0.362l-0.414,0.104c-0.435,0.111-0.857,0.227-1.262,0.347
				L44.722,25.65z M60.521,24.645l-0.158-0.022c-1.229-0.171-2.552-0.282-3.926-0.332l-0.303-0.011v-5.494l0.165-0.089
				c0.46-0.247,0.963-0.373,1.491-0.373c1.497,0,3.021,1.041,3.63,2.47c0.546,1.29,0.259,2.652-0.789,3.735L60.521,24.645z
				 M49.258,24.643l-0.111-0.111c-1.076-1.083-1.386-2.446-0.848-3.737c0.596-1.434,2.122-2.474,3.629-2.474
				c0.535,0,1.04,0.126,1.505,0.377l0.164,0.089v5.494l-0.302,0.009c-1.343,0.046-2.65,0.158-3.882,0.331L49.258,24.643z"/>
			<path clip-path="url(#SVGID_12_)" fill="#002577" d="M65.077,25.719l-0.14-0.044c-0.426-0.134-0.869-0.26-1.331-0.38
				l-0.409-0.104l0.22-0.36c1.152-1.888,0.893-3.631,0.469-4.763l-0.202-0.544l0.567,0.131c1.236,0.284,2.285,1.247,2.612,2.394
				c0.298,1.047-0.029,2.11-0.918,2.99c0,0-0.226,0.223-0.38,0.347c-0.105,0.084-0.243,0.178-0.363,0.255L65.077,25.719z"/>
			<path clip-path="url(#SVGID_12_)" fill="none" stroke="#F6E000" stroke-width="1.1192" stroke-miterlimit="10" d="M65.077,25.719
				l-0.14-0.044c-0.426-0.134-0.869-0.26-1.331-0.38l-0.409-0.104l0.22-0.36c1.152-1.888,0.893-3.631,0.469-4.763l-0.202-0.544
				l0.567,0.131c1.236,0.284,2.285,1.247,2.612,2.394c0.298,1.047-0.029,2.11-0.918,2.99c0,0-0.226,0.223-0.38,0.347
				c-0.105,0.084-0.243,0.178-0.363,0.255L65.077,25.719z"/>
			<path clip-path="url(#SVGID_12_)" fill="#002577" d="M44.708,25.683l-0.113-0.06c-0.12-0.062-0.318-0.171-0.453-0.267
				c-0.153-0.112-0.373-0.31-0.373-0.31c-0.9-0.891-1.226-1.952-0.928-2.999c0.324-1.147,1.374-2.11,2.612-2.394l0.567-0.131
				l-0.205,0.547c-0.423,1.129-0.683,2.875,0.469,4.762l0.226,0.362l-0.414,0.104c-0.438,0.111-0.858,0.227-1.265,0.349
				L44.708,25.683z"/>
			<path clip-path="url(#SVGID_12_)" fill="none" stroke="#F6E000" stroke-width="1.1192" stroke-miterlimit="10" d="M44.708,25.683
				l-0.113-0.06c-0.12-0.062-0.318-0.171-0.453-0.267c-0.153-0.112-0.373-0.31-0.373-0.31c-0.9-0.891-1.226-1.952-0.928-2.999
				c0.324-1.147,1.374-2.11,2.612-2.394l0.567-0.131l-0.205,0.547c-0.423,1.129-0.683,2.875,0.469,4.762l0.226,0.362l-0.414,0.104
				c-0.438,0.111-0.858,0.227-1.265,0.349L44.708,25.683z"/>
			<path clip-path="url(#SVGID_12_)" fill="#002577" d="M60.507,24.68l-0.157-0.024c-1.232-0.171-2.553-0.282-3.927-0.331
				l-0.303-0.011V18.82l0.165-0.089c0.46-0.247,0.96-0.373,1.491-0.373c1.494,0,3.022,1.041,3.629,2.472
				c0.547,1.287,0.26,2.65-0.787,3.735L60.507,24.68z"/>
			<path clip-path="url(#SVGID_12_)" fill="none" stroke="#F6E000" stroke-width="1.1192" stroke-miterlimit="10" d="M60.507,24.68
				l-0.157-0.024c-1.232-0.171-2.553-0.282-3.927-0.331l-0.303-0.011V18.82l0.165-0.089c0.46-0.247,0.96-0.373,1.491-0.373
				c1.494,0,3.022,1.041,3.629,2.472c0.547,1.287,0.26,2.65-0.787,3.735L60.507,24.68z"/>
			<path clip-path="url(#SVGID_12_)" fill="#002577" d="M49.242,24.676l-0.109-0.111c-1.079-1.083-1.387-2.446-0.85-3.737
				c0.596-1.434,2.123-2.475,3.628-2.475c0.537,0,1.043,0.129,1.509,0.377l0.164,0.089v5.494l-0.306,0.009
				c-1.342,0.046-2.646,0.158-3.881,0.331L49.242,24.676z"/>
			<path clip-path="url(#SVGID_12_)" fill="none" stroke="#F6E000" stroke-width="1.1192" stroke-miterlimit="10" d="M49.242,24.676
				l-0.109-0.111c-1.079-1.083-1.387-2.446-0.85-3.737c0.596-1.434,2.123-2.475,3.628-2.475c0.537,0,1.043,0.129,1.509,0.377
				l0.164,0.089v5.494l-0.306,0.009c-1.342,0.046-2.646,0.158-3.881,0.331L49.242,24.676z"/>
			<path clip-path="url(#SVGID_12_)" fill="#F6E000" d="M54.875,64.45c-7.812,0-14.168-6.361-14.168-14.176V30.363h28.321v19.912
				C69.028,58.089,62.68,64.45,54.875,64.45 M46.009,35.699l0.174,16.362c1.843,4.81,7.27,7.712,8.704,7.109
				c1.599-0.672,9.457-2.092,8.875-8.919V35.699H46.009z"/>
			<path clip-path="url(#SVGID_12_)" fill="none" stroke="#F6E000" stroke-width="1.1192" stroke-miterlimit="10" d="M54.875,64.45
				c-7.812,0-14.168-6.361-14.168-14.176V30.363h28.321v19.912C69.028,58.089,62.68,64.45,54.875,64.45z M46.009,35.699
				l0.174,16.362c1.843,4.81,7.27,7.712,8.704,7.109c1.599-0.672,9.457-2.092,8.875-8.919V35.699H46.009z"/>
			<path clip-path="url(#SVGID_12_)" fill="#F6E000" d="M54.884,59.17c-4.893,0-8.877-3.981-8.877-8.875l0.002-14.596h17.753V50.25
				C63.762,55.171,59.779,59.17,54.884,59.17 M46.633,36.326V50.25c0,4.59,3.702,8.294,8.251,8.294c4.552,0,8.251-3.722,8.251-8.294
				V36.326H46.633z"/>
			<path clip-path="url(#SVGID_12_)" fill-rule="evenodd" clip-rule="evenodd" fill="#F6E000" d="M56.322,51.229l0.374-0.034
				L56.836,51l0.314-0.065v-0.355l0.464,0.527v1.273l1.819,1.788c0.115,0.087,0.195,0.122,0.338,0.146
				c0.15,0.025,0.193-0.009,0.337-0.06c0.05,0.005,0.062,0.068,0.025,0.117c-0.052,0.08-0.139,0.118-0.242,0.158
				c-0.129,0.044-0.25,0.051-0.361,0.018c-0.086-0.026-0.136-0.047-0.206-0.101v0.533c-0.116,0.206-0.155,0.346-0.164,0.578
				c-0.009,0.236,0.02,0.381,0.122,0.592l-0.503,0.627c-0.049-0.018-0.084-0.018-0.133,0c-0.056,0.018-0.085,0.043-0.116,0.093
				l-0.209-0.177c0.018-0.051,0.045-0.083,0.098-0.103c0.064-0.021,0.12-0.043,0.169,0.047l0.332-0.512l-0.39-0.907l-0.038,0.413
				l-0.731,0.401c-0.032-0.038-0.077-0.051-0.127-0.034c-0.046,0.016-0.07,0.05-0.077,0.097l-0.23-0.208
				c0.007-0.066,0.039-0.11,0.102-0.133c0.071-0.028,0.163-0.024,0.187,0.054l0.522-0.354c-0.088-0.219-0.174-0.383-0.204-0.567
				c-0.027-0.165-0.025-0.294-0.018-0.447c-0.205-0.041-0.318-0.077-0.512-0.157c-0.079-0.033-0.07-0.018-0.149-0.058l0.047,0.1
				l-0.284,0.965c-0.054,0-0.09,0.01-0.133,0.036c-0.054,0.03-0.105,0.056-0.125,0.112l-0.26-0.211
				c0.006-0.071,0.03-0.115,0.102-0.131c0.051-0.011,0.098,0.011,0.126,0.054c0.03-0.005,0.039-0.009,0.052-0.011l0.034-1.201
				c-0.079-0.053-0.12-0.091-0.179-0.164c-0.054-0.069-0.077-0.114-0.109-0.191l-0.507-0.064l-0.084,0.09l0.092,0.14l0.14,0.007
				l0.048,0.316h-0.184l-0.387-0.471l0.218-0.438l0.544-0.055c-0.018-0.21-0.011-0.33,0.036-0.531
				c0.075-0.33,0.334-0.452,0.411-0.763l-0.465-0.206L56.322,51.229z"/>
			<path clip-path="url(#SVGID_12_)" fill-rule="evenodd" clip-rule="evenodd" fill="#F6E000" d="M54.837,46.646
				c0,0-0.6,0.347-0.518,1.55c0,0-0.66-0.932-2.052-0.716l1.125,0.96c-1.527-0.178-2.084,0.667-2.084,0.667
				c1.624-0.229,2.424,0.293,2.424,0.293c-1.656-0.125-1.707,1.042-1.707,1.042c1.194-0.765,2.354-0.06,2.354-0.06v3.924h0.943
				l0.002-3.924c0,0,1.161-0.705,2.354,0.06c0,0-0.051-1.167-1.707-1.042c0,0,0.8-0.522,2.423-0.293c0,0-0.556-0.845-2.083-0.667
				l1.125-0.96c-1.392-0.216-2.052,0.716-2.052,0.716c0.082-1.203-0.518-1.55-0.518-1.55H54.837z"/>
			<path clip-path="url(#SVGID_12_)" fill-rule="evenodd" clip-rule="evenodd" fill="#F6E000" d="M53.39,51.229l-0.373-0.034
				L52.876,51l-0.313-0.065v-0.355l-0.464,0.527v1.273l-1.817,1.788c-0.114,0.087-0.197,0.122-0.337,0.146
				c-0.151,0.025-0.194-0.009-0.341-0.06c-0.047,0.005-0.06,0.068-0.023,0.117c0.054,0.08,0.14,0.118,0.243,0.158
				c0.13,0.044,0.25,0.051,0.361,0.018c0.086-0.026,0.133-0.047,0.204-0.101v0.533c0.118,0.206,0.158,0.346,0.167,0.578
				c0.009,0.236-0.021,0.381-0.122,0.592l0.503,0.627c0.046-0.018,0.084-0.018,0.133,0c0.055,0.018,0.085,0.043,0.115,0.093
				l0.206-0.177c-0.015-0.051-0.043-0.083-0.095-0.103c-0.064-0.021-0.12-0.043-0.169,0.047l-0.332-0.512l0.39-0.907l0.038,0.413
				l0.731,0.401c0.034-0.038,0.077-0.051,0.127-0.034c0.045,0.016,0.07,0.05,0.077,0.097l0.231-0.208
				c-0.006-0.066-0.042-0.11-0.103-0.133c-0.071-0.028-0.161-0.024-0.188,0.054l-0.521-0.354c0.09-0.219,0.174-0.383,0.202-0.567
				c0.029-0.165,0.025-0.294,0.021-0.447c0.204-0.041,0.318-0.077,0.51-0.157c0.082-0.033,0.073-0.018,0.15-0.058l-0.047,0.1
				l0.285,0.965c0.053,0,0.087,0.01,0.134,0.036c0.052,0.03,0.102,0.056,0.123,0.112l0.261-0.211
				c-0.009-0.071-0.033-0.115-0.103-0.131c-0.053-0.011-0.098,0.011-0.126,0.054c-0.029-0.005-0.039-0.009-0.054-0.011l-0.031-1.201
				c0.078-0.053,0.121-0.091,0.178-0.164c0.051-0.069,0.076-0.114,0.106-0.191l0.51-0.064l0.082,0.09l-0.089,0.14l-0.14,0.007
				l-0.049,0.316h0.183l0.389-0.471l-0.219-0.438l-0.544-0.055c0.018-0.21,0.011-0.33-0.038-0.531
				c-0.076-0.33-0.332-0.452-0.409-0.763l0.465-0.206L53.39,51.229z"/>
			<polygon clip-path="url(#SVGID_12_)" fill="#F6E000" points="58.8,57.078 50.933,57.06 54.386,54.292 55.329,54.292 			"/>
			
				<rect x="52.546" y="61.319" transform="matrix(-0.7089 0.7053 -0.7053 -0.7089 137.0372 66.4316)" clip-path="url(#SVGID_12_)" fill="#002577" width="4.529" height="0.347"/>
			
				<rect x="55.101" y="60.407" transform="matrix(-0.6983 -0.7158 0.7158 -0.6983 51.3093 142.7881)" clip-path="url(#SVGID_12_)" fill="#002577" width="1.287" height="0.349"/>
			
				<rect x="52.671" y="61.32" transform="matrix(-0.7088 -0.7054 0.7054 -0.7088 50.5002 143.8301)" clip-path="url(#SVGID_12_)" fill-rule="evenodd" clip-rule="evenodd" fill="#002577" width="4.529" height="0.345"/>
			
				<rect x="53.358" y="60.406" transform="matrix(0.6972 -0.7169 0.7169 0.6972 -27.0771 57.0593)" clip-path="url(#SVGID_12_)" fill="#002577" width="1.287" height="0.349"/>
			<polygon clip-path="url(#SVGID_12_)" fill-rule="evenodd" clip-rule="evenodd" fill="#F6E000" points="50.718,37.628 
				49.866,37.628 49.866,38.551 48.901,38.551 48.901,37.989 47.151,37.989 48.025,40.165 48.654,40.165 47.31,45.119 
				49.575,45.119 49.866,42.813 50.718,42.813 51.571,42.813 51.863,45.119 54.128,45.119 52.781,40.165 53.41,40.165 
				54.355,37.989 52.536,37.989 52.536,38.551 51.571,38.551 51.571,37.628 			"/>
			<path clip-path="url(#SVGID_12_)" fill-rule="evenodd" clip-rule="evenodd" fill="#F6E000" d="M56.927,40.254h0.576
				c0.014-0.247-0.021-0.4-0.136-0.618c-0.109-0.205-0.208-0.313-0.404-0.438c-0.066-0.062-0.142-0.074-0.229-0.047
				c-0.112,0.036-0.179,0.142-0.161,0.26c-0.08-0.089-0.136-0.191-0.114-0.34c0.016-0.1,0.08-0.176,0.185-0.223
				c-0.032-0.06-0.082-0.089-0.15-0.087c-0.066,0-0.116,0.034-0.145,0.096c-0.047-0.122-0.034-0.227,0.042-0.333
				c0.073-0.104,0.162-0.151,0.291-0.151c-0.012-0.058-0.035-0.096-0.083-0.127c-0.055-0.042-0.105-0.051-0.172-0.033
				c0.142-0.169,0.359-0.225,0.572-0.163c0.365,0.105,0.341,0.659,0.315,0.772l0.817,0.88l0.84-0.727l-0.103-0.171
				c-0.073,0.042-0.118,0.06-0.198,0.084c-0.086,0.027-0.14,0.033-0.23,0.036v0.187h-0.276v-0.454h-0.486V38.12l0.204-0.002v0.293
				h0.275v-0.534h0.325l0.163-0.222h0.413c0,0,0.064-0.078,0.088-0.138c0.032-0.076,0.032-0.207,0.032-0.207l0.453,0.24
				c0,0,0.061,0.22,0.146,0.335c0.154,0.209,0.383,0.158,0.583,0.325c0.188,0.16,0.402,0.489,0.402,0.489H60.36
				c0,0,0.165,0.091,0.238,0.18c0.071,0.082,0.129,0.242,0.129,0.242h-0.35c0,0-0.007,0.514,0.111,0.813
				c0.111,0.283,0.444,0.643,0.444,0.643h-0.55c0,0,0.017,0.165,0.061,0.258c0.062,0.127,0.249,0.265,0.249,0.265h-0.669v0.669
				c0,0,0.227,0.083,0.31,0.216c0.095,0.156,0.068,0.418,0.068,0.418c0.089,0.1,0.186,0.135,0.316,0.125
				c0.186-0.018,0.344-0.145,0.344-0.338v-2.719c0-0.396,0.343-0.718,0.738-0.693c0.374,0.022,0.66,0.335,0.651,0.711
				c0.12,0.129,0.163,0.253,0.145,0.43c-0.033,0.355-0.491,0.598-0.805,0.427c0.142-0.043,0.226-0.129,0.267-0.274
				c0.045-0.155-0.153-0.244-0.113-0.402c0.029-0.113,0.076-0.183,0.171-0.249c-0.026-0.16-0.138-0.267-0.3-0.292
				c-0.202-0.031-0.398,0.127-0.411,0.334v2.728c-0.011,0.254-0.148,0.497-0.402,0.636c-0.179,0.098-0.428,0.067-0.611-0.009
				c-0.012,0.242,0.028,0.416,0.184,0.589c0.17,0.198,0.31,0.271,0.53,0.344v1.523c-0.104,0.027-0.172,0.093-0.195,0.202
				c-0.034,0.136,0.037,0.271,0.173,0.32c-0.141,0.033-0.282,0.029-0.422-0.083c-0.097-0.08-0.134-0.191-0.121-0.324
				c-0.079-0.002-0.142,0.031-0.18,0.103c-0.041,0.071-0.035,0.142,0.011,0.207c-0.153-0.025-0.254-0.1-0.32-0.242
				c-0.064-0.141-0.061-0.26,0.019-0.394c-0.066-0.022-0.118-0.02-0.183,0.009c-0.075,0.036-0.115,0.082-0.136,0.162
				c-0.089-0.249-0.016-0.491,0.2-0.647c0.204-0.149,0.547-0.104,0.647-0.014l-0.067-0.427c-0.193-0.038-0.972-0.12-1.278-0.356
				c-0.125-0.095-0.111-0.264-0.111-0.442c-0.22-0.029-0.429,0.004-0.618,0.171c-0.144,0.129-0.208,0.245-0.238,0.438l-0.004,0.973
				c-0.104,0.036-0.164,0.103-0.189,0.209c-0.03,0.138,0.041,0.271,0.174,0.322c-0.14,0.034-0.279,0.029-0.419-0.084
				c-0.099-0.076-0.135-0.189-0.123-0.325c-0.081-0.002-0.141,0.033-0.18,0.104c-0.041,0.071-0.036,0.14,0.011,0.207
				c-0.153-0.027-0.254-0.102-0.318-0.243c-0.064-0.14-0.061-0.26,0.016-0.394c-0.067-0.022-0.117-0.02-0.182,0.009
				c-0.074,0.034-0.116,0.082-0.136,0.163c-0.092-0.25-0.017-0.494,0.2-0.649c0.2-0.145,0.533-0.105,0.635-0.014V43.22
				c-0.082-0.013-0.131-0.031-0.2-0.081c-0.073-0.048-0.11-0.09-0.152-0.168l0.344-0.273c0,0-0.146-0.027-0.197-0.096
				c-0.087-0.125-0.085-0.265-0.085-0.265h1.546v-0.1c-0.324-0.16-0.437-0.238-0.714-0.492c-0.156-0.145-0.339-0.636-0.352-0.765
				c-0.078,0.027-0.12,0.049-0.185,0.103c-0.069,0.058-0.098,0.12-0.143,0.18c-0.245-0.227-0.507-0.433-0.711-0.496
				c-0.146-0.047-0.242-0.033-0.394-0.009c0-0.038,0.002-0.055-0.007-0.084c-0.069-0.062-0.106-0.085-0.193-0.058
				c-0.114,0.036-0.164,0.104-0.146,0.222c-0.082-0.087-0.138-0.191-0.116-0.34c0.016-0.1,0.082-0.175,0.185-0.222
				c-0.03-0.06-0.082-0.089-0.148-0.087c-0.068,0.002-0.118,0.033-0.147,0.093c-0.044-0.12-0.03-0.225,0.043-0.331
				c0.075-0.105,0.162-0.151,0.292-0.151c-0.013-0.058-0.034-0.093-0.084-0.129c-0.056-0.038-0.105-0.049-0.172-0.029
				c0.142-0.171,0.359-0.225,0.572-0.164C56.97,39.583,56.952,40.141,56.927,40.254"/>
			<path clip-path="url(#SVGID_12_)" fill-rule="evenodd" clip-rule="evenodd" fill="#F6E000" d="M58.43,37.01
				c0,0,0.43-0.102,0.707-0.104c0.306-0.004,0.776,0.104,0.776,0.104v0.274c0,0-0.471-0.104-0.776-0.102
				c-0.277,0.004-0.707,0.102-0.707,0.102V37.01z"/>
			<path clip-path="url(#SVGID_12_)" fill="#F6E000" d="M58.412,36.69c0-0.089,0.073-0.162,0.165-0.162
				c0.091,0,0.164,0.073,0.164,0.162c0,0.091-0.073,0.165-0.164,0.165C58.485,36.855,58.412,36.781,58.412,36.69"/>
			<path clip-path="url(#SVGID_12_)" fill="#F6E000" d="M58.965,36.621c0-0.088,0.075-0.165,0.163-0.165
				c0.092,0,0.165,0.076,0.165,0.165c0,0.091-0.073,0.163-0.165,0.163C59.04,36.784,58.965,36.712,58.965,36.621"/>
			<path clip-path="url(#SVGID_12_)" fill="#F6E000" d="M59.518,36.69c0-0.089,0.073-0.162,0.165-0.162
				c0.089,0,0.161,0.073,0.161,0.162c0,0.091-0.072,0.165-0.161,0.165C59.591,36.855,59.518,36.781,59.518,36.69"/>
			
				<rect x="41.441" y="33.087" transform="matrix(-0.7087 0.7055 -0.7055 -0.7087 98.1469 26.0001)" clip-path="url(#SVGID_12_)" fill="#002577" width="4.529" height="0.349"/>
			
				<rect x="43.996" y="32.173" transform="matrix(-0.6983 -0.7158 0.7158 -0.6983 52.6584 86.8899)" clip-path="url(#SVGID_12_)" fill="#002577" width="1.287" height="0.349"/>
			
				<rect x="41.567" y="33.086" transform="matrix(0.7093 0.7049 -0.7049 0.7093 36.1896 -21.2279)" clip-path="url(#SVGID_12_)" fill="#002577" width="4.526" height="0.348"/>
			
				<rect x="42.253" y="32.174" transform="matrix(0.6985 -0.7156 0.7156 0.6985 -10.2158 40.4488)" clip-path="url(#SVGID_12_)" fill="#002577" width="1.286" height="0.349"/>
			
				<rect x="63.809" y="33.102" transform="matrix(-0.709 0.7052 -0.7052 -0.709 136.3842 10.2742)" clip-path="url(#SVGID_12_)" fill="#002577" width="4.528" height="0.349"/>
			
				<rect x="66.363" y="32.191" transform="matrix(-0.6985 -0.7156 0.7156 -0.6985 90.6507 102.9223)" clip-path="url(#SVGID_12_)" fill="#002577" width="1.286" height="0.349"/>
			
				<rect x="63.934" y="33.102" transform="matrix(0.709 0.7052 -0.7052 0.709 42.7312 -36.9997)" clip-path="url(#SVGID_12_)" fill="#002577" width="4.528" height="0.349"/>
			
				<rect x="64.621" y="32.191" transform="matrix(0.6983 -0.7158 0.7158 0.6983 -3.4775 56.479)" clip-path="url(#SVGID_12_)" fill="#002577" width="1.287" height="0.347"/>
			
				<rect x="41.442" y="46.865" transform="matrix(-0.709 0.7052 -0.7052 -0.709 107.8662 49.5729)" clip-path="url(#SVGID_12_)" fill="#002577" width="4.527" height="0.349"/>
			
				<rect x="43.996" y="45.953" transform="matrix(-0.6983 -0.7158 0.7158 -0.6983 42.7957 110.2908)" clip-path="url(#SVGID_12_)" fill="#002577" width="1.287" height="0.348"/>
			
				<rect x="41.566" y="46.865" transform="matrix(0.709 0.7052 -0.7052 0.709 45.9282 -17.2207)" clip-path="url(#SVGID_12_)" fill="#002577" width="4.528" height="0.349"/>
			
				<rect x="42.253" y="45.954" transform="matrix(0.6985 -0.7156 0.7156 0.6985 -20.0759 44.603)" clip-path="url(#SVGID_12_)" fill="#002577" width="1.286" height="0.347"/>
			
				<rect x="63.917" y="46.865" transform="matrix(-0.709 0.7052 -0.7052 -0.709 146.2763 33.7246)" clip-path="url(#SVGID_12_)" fill="#002577" width="4.527" height="0.349"/>
			
				<rect x="66.471" y="45.953" transform="matrix(-0.6983 -0.7158 0.7158 -0.6983 80.9657 126.378)" clip-path="url(#SVGID_12_)" fill="#002577" width="1.287" height="0.347"/>
			
				<rect x="64.042" y="46.865" transform="matrix(0.709 0.7052 -0.7052 0.709 52.4688 -33.0709)" clip-path="url(#SVGID_12_)" fill="#002577" width="4.528" height="0.349"/>
			
				<rect x="64.728" y="45.954" transform="matrix(0.6985 -0.7156 0.7156 0.6985 -13.2998 60.6864)" clip-path="url(#SVGID_12_)" fill="#002577" width="1.286" height="0.347"/>
			<rect x="54.608" y="36.015" clip-path="url(#SVGID_12_)" fill="#F6E000" width="0.554" height="10.309"/>
			<rect x="46.28" y="45.97" clip-path="url(#SVGID_12_)" fill="#F6E000" width="17.187" height="0.551"/>
		</g>
		<text transform="matrix(1 0 0 1 18.6953 79.9541)"><tspan x="0" y="0" fill="#F6E000" font-family="'MyriadPro-Bold'" font-size="15.0913">C</tspan><tspan x="8.843" y="0" fill="#F6E000" font-family="'MyriadPro-Bold'" font-size="15.0913">abildo de</tspan></text>
		<text transform="matrix(1 0 0 1 11.1494 93.2217)"><tspan x="0" y="0" fill="#F6E000" font-family="'MyriadPro-Bold'" font-size="15.0913">G</tspan><tspan x="10.337" y="0" fill="#F6E000" font-family="'MyriadPro-Bold'" font-size="15.0913">r</tspan><tspan x="15.921" y="0" fill="#F6E000" font-family="'MyriadPro-Bold'" font-size="15.0913">an </tspan><tspan x="35.781" y="0" fill="#F6E000" font-family="'MyriadPro-Bold'" font-size="15.0913">C</tspan><tspan x="44.624" y="0" fill="#F6E000" font-family="'MyriadPro-Bold'" font-size="15.0913">anaria</tspan></text>
	</g>
</g>
</svg>
