<?xml version="1.0" encoding="utf-8"?>
<!-- Generator: Adobe Illustrator 16.0.0, SVG Export Plug-In . SVG Version: 6.00 Build 0)  -->
<!DOCTYPE svg PUBLIC "-//W3C//DTD SVG 1.1//EN" "http://www.w3.org/Graphics/SVG/1.1/DTD/svg11.dtd">
<svg version="1.1" id="Layer_1" xmlns="http://www.w3.org/2000/svg" xmlns:xlink="http://www.w3.org/1999/xlink" x="0px" y="0px"
	 width="260px" height="100px" viewBox="0 0 260 100" enable-background="new 0 0 260 100" xml:space="preserve">
<g>
	<g>
		<g>
			<defs>
				<path id="SVGID_1_" d="M178.391,48.692c0-1.438,6.521-2.602,14.565-2.602c8.039,0,14.558,1.163,14.558,2.602
					c0,1.436-6.519,2.599-14.558,2.599C184.911,51.291,178.391,50.128,178.391,48.692z"/>
			</defs>
			<clipPath id="SVGID_2_">
				<use xlink:href="#SVGID_1_"  overflow="visible"/>
			</clipPath>
			<g clip-path="url(#SVGID_2_)">
				<defs>
					<path id="SVGID_3_" d="M178.391,48.692c0-1.438,6.521-2.602,14.565-2.602c8.039,0,14.558,1.163,14.558,2.602
						c0,1.436-6.519,2.599-14.558,2.599C184.911,51.291,178.391,50.128,178.391,48.692z"/>
				</defs>
				<clipPath id="SVGID_4_">
					<use xlink:href="#SVGID_3_"  overflow="visible"/>
				</clipPath>
				<rect x="178.391" y="46.09" clip-path="url(#SVGID_4_)" fill="#D1D3D4" width="29.123" height="5.201"/>
				<path clip-path="url(#SVGID_4_)" fill="#D1D3D4" d="M178.391,48.692c0-1.438,6.521-2.602,14.565-2.602
					c8.039,0,14.558,1.163,14.558,2.602c0,1.436-6.519,2.599-14.558,2.599C184.911,51.291,178.391,50.128,178.391,48.692z"/>
				<ellipse clip-path="url(#SVGID_4_)" fill="#C4C6C8" cx="192.956" cy="48.692" rx="13.439" ry="2.404"/>
				<path clip-path="url(#SVGID_4_)" fill="#B7B9BB" d="M180.633,48.692c0-1.216,5.517-2.202,12.323-2.202
					c6.803,0,12.317,0.985,12.317,2.202c0,1.213-5.515,2.203-12.317,2.203C186.149,50.895,180.633,49.905,180.633,48.692z"/>
				<ellipse clip-path="url(#SVGID_4_)" fill="#AAACAF" cx="192.957" cy="48.692" rx="11.199" ry="2.001"/>
				<path clip-path="url(#SVGID_4_)" fill="#9EA0A3" d="M182.871,48.692c0-0.997,4.517-1.803,10.085-1.803
					c5.566,0,10.076,0.807,10.076,1.803c0,0.996-4.51,1.8-10.076,1.8C187.388,50.492,182.871,49.688,182.871,48.692z"/>
				<ellipse clip-path="url(#SVGID_4_)" fill="#929496" cx="192.955" cy="48.692" rx="8.96" ry="1.603"/>
				<ellipse clip-path="url(#SVGID_4_)" fill="#86888B" cx="192.958" cy="48.692" rx="7.84" ry="1.401"/>
				<ellipse clip-path="url(#SVGID_4_)" fill="#7A7C7F" cx="192.955" cy="48.692" rx="6.72" ry="1.199"/>
				<path clip-path="url(#SVGID_4_)" fill="#6F7072" d="M187.352,48.692c0-0.554,2.515-1.003,5.604-1.003
					c3.088,0,5.597,0.449,5.597,1.003c0,0.553-2.509,1-5.597,1C189.866,49.692,187.352,49.245,187.352,48.692z"/>
				<path clip-path="url(#SVGID_4_)" fill="#626366" d="M188.474,48.692c0-0.441,2.004-0.803,4.482-0.803
					c2.475,0,4.48,0.362,4.48,0.803c0,0.442-2.006,0.802-4.48,0.802C190.478,49.494,188.474,49.134,188.474,48.692z"/>
				<path clip-path="url(#SVGID_4_)" fill="#555557" d="M189.594,48.692c0-0.332,1.503-0.601,3.362-0.601
					c1.856,0,3.354,0.269,3.354,0.601c0,0.331-1.498,0.602-3.354,0.602C191.097,49.294,189.594,49.023,189.594,48.692z"/>
				<ellipse clip-path="url(#SVGID_4_)" fill="#464648" cx="192.957" cy="48.692" rx="2.241" ry="0.4"/>
				<path clip-path="url(#SVGID_4_)" fill="#2F2F30" d="M191.834,48.692c0-0.112,0.499-0.2,1.122-0.2c0.613,0,1.118,0.088,1.118,0.2
					c0,0.111-0.505,0.198-1.118,0.198C192.333,48.89,191.834,48.803,191.834,48.692z"/>
			</g>
		</g>
		<g>
			<defs>
				<path id="SVGID_5_" d="M174.191,33.44c0-8.824,7.155-15.981,15.977-15.981c8.827,0,15.98,7.157,15.98,15.981
					c0,8.827-7.153,15.981-15.98,15.981C181.347,49.421,174.191,42.267,174.191,33.44z"/>
			</defs>
			<clipPath id="SVGID_6_">
				<use xlink:href="#SVGID_5_"  overflow="visible"/>
			</clipPath>
			<g clip-path="url(#SVGID_6_)">
				<g>
					<defs>
						<rect id="SVGID_7_" x="173.309" y="16.581" width="31.958" height="31.958"/>
					</defs>
					<clipPath id="SVGID_8_">
						<use xlink:href="#SVGID_7_"  overflow="visible"/>
					</clipPath>
					<g clip-path="url(#SVGID_8_)">
						<defs>
							<rect id="SVGID_9_" x="173.309" y="16.581" width="31.958" height="31.958"/>
						</defs>
						<clipPath id="SVGID_10_">
							<use xlink:href="#SVGID_9_"  overflow="visible"/>
						</clipPath>
						<g clip-path="url(#SVGID_10_)">
							
								<image overflow="visible" width="134" height="134" xlink:href="A52B2439D4EE4877.jpg"  transform="matrix(0.24 0 0 0.24 173.3086 16.5811)">
							</image>
						</g>
					</g>
				</g>
			</g>
		</g>
		<path fill="#363092" d="M188.294,40.396c-0.76,1.788-1.774,4.518-1.774,4.518s9.816,4.357,17.593-3.419c0,1.683,0,4.526,0,4.526
			h4.476V32.67h-13.372v4.471h5.117C199.701,38.418,196.56,42.818,188.294,40.396z"/>
		<path fill="#F4CE34" d="M188.114,40.217c-0.754,1.79-1.77,4.522-1.77,4.522s9.811,4.357,17.59-3.417c0,1.678,0,4.521,0,4.521
			h4.474V32.495h-13.373v4.462h5.119C199.526,38.24,196.385,42.64,188.114,40.217z"/>
		<path fill="#363092" d="M178.831,59.237h-0.126c-0.113-0.332-0.314-0.601-0.596-0.804c-0.282-0.204-0.599-0.302-0.942-0.302
			c-0.437,0-0.796,0.136-1.083,0.411c-0.291,0.273-0.437,0.618-0.437,1.043c0,0.596,0.332,1.078,0.995,1.442
			c0.61,0.296,1.233,0.591,1.849,0.877c0.674,0.419,1.005,0.978,1.005,1.678c0,0.792-0.275,1.443-0.837,1.966
			c-0.555,0.522-1.262,0.785-2.117,0.785c-0.812,0-1.505-0.229-2.075-0.684c0.048-0.178,0.105-0.361,0.163-0.562
			c0.061-0.195,0.087-0.381,0.087-0.548h0.124c0.167,0.374,0.435,0.676,0.798,0.9c0.37,0.231,0.766,0.345,1.192,0.345
			c0.495,0,0.902-0.166,1.227-0.497s0.483-0.75,0.483-1.255c0-0.596-0.329-1.073-0.989-1.43c-0.625-0.289-1.251-0.585-1.868-0.882
			c-0.671-0.432-1.004-1.032-1.004-1.802c0-0.68,0.243-1.231,0.733-1.653c0.488-0.421,1.124-0.637,1.913-0.637
			c0.37,0,0.69,0.045,0.963,0.129c0.267,0.08,0.562,0.234,0.876,0.456c-0.084,0.185-0.153,0.361-0.207,0.531
			C178.902,58.914,178.861,59.076,178.831,59.237z"/>
		<path fill="#363092" d="M182.225,62.318v1.309v1.314c0,0.298,0.002,0.516,0.016,0.653c0.009,0.143,0.028,0.324,0.055,0.557
			c-0.267-0.023-0.469-0.032-0.61-0.032l-0.618,0.047c0-0.315,0.024-0.78,0.076-1.402c0.048-0.62,0.075-1.089,0.075-1.4
			c0-0.776-0.009-1.465-0.027-2.079c-0.057-2.15-0.084-3.307-0.084-3.464l0.582,0.026c0.299,0,0.701-0.014,1.206-0.033
			c0.504-0.021,0.809-0.033,0.903-0.033c1.811,0,2.713,0.698,2.713,2.104c0,0.887-0.394,1.542-1.178,1.95
			c-0.611,0.324-1.406,0.484-2.377,0.484H182.225L182.225,62.318z M182.225,61.873c0.04,0.005,0.101,0.014,0.178,0.023
			c0.077,0.006,0.181,0.009,0.313,0.009c0.789,0,1.4-0.127,1.839-0.383c0.546-0.322,0.823-0.858,0.823-1.602
			c0-0.622-0.2-1.068-0.604-1.342c-0.336-0.231-0.824-0.35-1.467-0.35c-0.27,0-0.458,0.004-0.567,0.013
			c-0.104,0.008-0.267,0.034-0.48,0.072c-0.024,0.26-0.035,0.42-0.035,0.486s0,0.142,0,0.222v0.437l-0.04,1.146L182.225,61.873z"/>
		<path fill="#363092" d="M187.912,57.79c0.218,0,0.585,0.011,1.107,0.03c0.524,0.016,0.805,0.026,0.849,0.026
			c0.273,0,0.729-0.011,1.372-0.026c0.643-0.02,0.98-0.03,1.022-0.03c-0.009,0.028-0.016,0.077-0.024,0.146
			c-0.007,0.073-0.011,0.142-0.011,0.217c0,0.109,0.011,0.229,0.035,0.361c-0.22-0.034-0.392-0.052-0.509-0.062
			c-0.116-0.005-0.27-0.011-0.461-0.011c-0.255,0-0.687-0.008-1.289-0.023c-0.604-0.018-0.928-0.026-0.97-0.026
			c0,0.323-0.011,0.749-0.029,1.278c-0.021,0.532-0.032,0.847-0.032,0.961c0,0.165,0,0.326,0,0.482c0,0.157,0,0.275,0,0.357h0.373
			h0.327c0.617,0,1.045-0.004,1.284-0.018c0.238-0.009,0.578-0.038,1.023-0.079c-0.018,0.084-0.028,0.155-0.038,0.217
			c-0.012,0.061-0.014,0.155-0.014,0.282l0.014,0.231c-0.583-0.064-1.301-0.098-2.159-0.098h-0.811v0.127v2.454v0.998h0.446
			c0.596,0,1.145-0.011,1.656-0.037c0.51-0.025,0.923-0.06,1.249-0.113c-0.015,0.062-0.026,0.126-0.028,0.202
			c-0.007,0.079-0.007,0.138-0.007,0.18l0.035,0.34c-0.232,0-0.619-0.006-1.169-0.02c-0.549-0.01-0.841-0.019-0.882-0.019h-1.301
			c-0.256,0-0.476,0.009-0.679,0.019c-0.196,0.014-0.34,0.02-0.429,0.02c0.068-0.44,0.097-0.906,0.097-1.403l0.036-1.378v-1.425
			V60.57c0-0.583-0.009-1.122-0.025-1.614C187.96,58.47,187.94,58.085,187.912,57.79z"/>
		<path fill="#363092" d="M201.029,59.299h-0.12c-0.325-0.38-0.736-0.685-1.226-0.907c-0.495-0.223-1.007-0.335-1.535-0.335
			c-1.095,0-1.967,0.353-2.615,1.06c-0.648,0.71-0.979,1.654-0.979,2.839c0,1.228,0.327,2.19,0.974,2.891
			c0.645,0.701,1.534,1.052,2.661,1.052c0.709,0,1.378-0.142,2.008-0.425l0.024-0.096l0.038-1.543c0-0.522-0.02-1.018-0.062-1.478
			c0.116,0.023,0.204,0.039,0.267,0.046c0.071,0.011,0.163,0.014,0.285,0.014c0.084,0,0.162-0.005,0.251-0.014
			c0.076-0.007,0.199-0.022,0.35-0.046c-0.036,0.288-0.067,0.655-0.08,1.1c-0.021,0.44-0.029,0.856-0.029,1.246v0.338
			c0,0.172,0,0.342,0,0.507c0.029,0.1,0.042,0.179,0.051,0.246c-1.118,0.364-2.192,0.55-3.214,0.55c-1.52,0-2.687-0.37-3.502-1.114
			c-0.816-0.738-1.224-1.808-1.224-3.197c0-0.885,0.209-1.681,0.637-2.388c0.42-0.701,0.998-1.208,1.752-1.514
			c0.742-0.305,1.606-0.463,2.583-0.463c1.156,0,2.166,0.235,3.018,0.7C201.202,58.623,201.094,58.935,201.029,59.299z"/>
		<path fill="#363092" d="M210.167,64.861l-0.177,0.733c-0.722,0.501-1.602,0.748-2.649,0.748c-1.38,0-2.47-0.381-3.268-1.146
			c-0.795-0.76-1.19-1.809-1.19-3.14c0-1.369,0.423-2.448,1.266-3.232c0.85-0.785,2.002-1.181,3.479-1.181
			c0.498,0,0.954,0.042,1.371,0.127c0.421,0.079,0.816,0.208,1.176,0.382c-0.124,0.323-0.211,0.639-0.249,0.948l-0.086,0.021
			c-0.301-0.312-0.643-0.561-1.036-0.731c-0.396-0.176-0.794-0.26-1.2-0.26c-1.085,0-1.935,0.338-2.55,1.029
			c-0.612,0.687-0.916,1.647-0.916,2.884c0,1.167,0.295,2.094,0.88,2.784c0.589,0.686,1.383,1.025,2.386,1.025
			c0.98,0,1.873-0.34,2.696-1.025L210.167,64.861z"/>
		<path fill="#363092" d="M157.244,82.536v-3.077c0-0.066-0.018-0.122-0.045-0.157c-0.035-0.036-0.087-0.066-0.164-0.092v-0.095
			h2.203c0.46,0,0.822,0.056,1.087,0.168c0.369,0.163,0.638,0.432,0.806,0.802c0.107,0.262,0.168,0.565,0.168,0.913
			c0,0.64-0.193,1.129-0.578,1.461c-0.171,0.148-0.37,0.253-0.606,0.322c-0.236,0.064-0.527,0.097-0.876,0.097h-2.208v-0.095
			c0.076-0.02,0.134-0.049,0.167-0.086C157.227,82.656,157.244,82.603,157.244,82.536z M158.145,82.196h0.963
			c0.439,0,0.762-0.101,0.962-0.301c0.208-0.211,0.313-0.51,0.313-0.897c0-0.389-0.105-0.688-0.313-0.9
			c-0.102-0.104-0.232-0.181-0.382-0.229c-0.151-0.044-0.348-0.071-0.58-0.071h-0.963V82.196z"/>
		<path fill="#363092" d="M162.875,81.278v0.918h2.382c0.073,0,0.124-0.009,0.161-0.047c0.036-0.026,0.067-0.082,0.092-0.164h0.091
			v1.109h-0.091c-0.024-0.08-0.051-0.136-0.092-0.165c-0.037-0.03-0.088-0.048-0.161-0.048h-3.496v-0.099
			c0.076-0.018,0.134-0.049,0.163-0.086c0.035-0.039,0.052-0.095,0.052-0.161v-3.074c0-0.069-0.017-0.125-0.052-0.16
			c-0.027-0.033-0.084-0.066-0.165-0.092v-0.095h3.396c0.073,0,0.126-0.014,0.167-0.047c0.035-0.031,0.064-0.087,0.088-0.165h0.092
			v1.103h-0.092c-0.023-0.077-0.05-0.134-0.088-0.164c-0.041-0.034-0.094-0.045-0.167-0.045h-2.279v0.828h1.416
			c0.071,0,0.121-0.021,0.159-0.05c0.035-0.03,0.073-0.086,0.093-0.166h0.086v1.082h-0.086c-0.02-0.084-0.054-0.136-0.089-0.166
			c-0.04-0.034-0.092-0.047-0.163-0.047H162.875z"/>
		<path fill="#363092" d="M174.136,82.112c-0.645,0.32-1.195,0.542-1.649,0.669c-0.453,0.124-0.909,0.188-1.371,0.188
			c-1.019,0-1.832-0.249-2.433-0.729c-0.601-0.487-0.9-1.137-0.9-1.945c0-0.789,0.298-1.433,0.88-1.926
			c0.585-0.493,1.356-0.74,2.315-0.74c0.504,0,1.013,0.071,1.518,0.222c0.501,0.149,0.757,0.219,0.766,0.219
			c0.044,0,0.084-0.015,0.12-0.036c0.032-0.02,0.075-0.062,0.125-0.122l0.118,0.049l-0.811,1.539l-0.131-0.05
			c0.006-0.015,0.011-0.023,0.018-0.042c0.006-0.011,0.009-0.028,0.009-0.044c0-0.149-0.16-0.287-0.482-0.41
			c-0.327-0.124-0.694-0.185-1.107-0.185c-0.552,0-1,0.144-1.341,0.435c-0.347,0.289-0.521,0.662-0.521,1.12
			c0,0.464,0.165,0.831,0.496,1.103c0.327,0.265,0.774,0.4,1.344,0.4c0.239,0,0.467-0.022,0.685-0.069
			c0.213-0.046,0.429-0.12,0.645-0.218v-0.507h-1.067c-0.101,0-0.162,0.014-0.197,0.043c-0.036,0.03-0.07,0.095-0.094,0.202h-0.138
			v-1.417h0.138c0.023,0.104,0.058,0.17,0.094,0.2c0.035,0.032,0.097,0.045,0.197,0.045h2.776v0.15
			c-0.104,0.021-0.17,0.059-0.204,0.095c-0.035,0.039-0.047,0.105-0.047,0.2v1.135c0,0.099,0.012,0.161,0.047,0.198
			c0.028,0.038,0.101,0.066,0.204,0.094V82.112L174.136,82.112z"/>
		<path fill="#363092" d="M176.428,79.899v0.749h0.857c0.311,0,0.533-0.026,0.671-0.091c0.131-0.058,0.198-0.158,0.198-0.289
			c0-0.138-0.061-0.235-0.183-0.287c-0.127-0.06-0.365-0.082-0.712-0.082H176.428z M177.8,79.068c0.489,0,0.863,0.104,1.135,0.32
			c0.265,0.213,0.402,0.516,0.402,0.898c0,0.293-0.087,0.54-0.256,0.737c-0.174,0.202-0.418,0.345-0.74,0.434l0.49,0.776
			c0.118,0.193,0.209,0.317,0.286,0.384c0.073,0.072,0.155,0.116,0.25,0.141v0.123h-1.66v-0.123
			c0.038-0.009,0.077-0.024,0.103-0.047c0.024-0.023,0.033-0.056,0.033-0.084c0-0.049-0.026-0.127-0.091-0.229
			c-0.009-0.021-0.019-0.035-0.021-0.043l-0.539-0.882h-0.764v1.027c0,0.082,0.017,0.138,0.043,0.169
			c0.031,0.033,0.093,0.064,0.189,0.089v0.123h-1.606v-0.123c0.095-0.024,0.156-0.047,0.183-0.08
			c0.03-0.033,0.043-0.091,0.043-0.178v-3.044c0-0.086-0.013-0.146-0.043-0.18c-0.026-0.031-0.088-0.062-0.183-0.087v-0.122H177.8
			L177.8,79.068z"/>
		<path fill="#363092" d="M181.502,81.436h1.247l-0.647-1.589L181.502,81.436z M183.193,79.068v0.122
			c-0.054,0.005-0.084,0.018-0.1,0.033c-0.022,0.019-0.035,0.049-0.038,0.094c0,0.037,0.009,0.08,0.018,0.129
			c0.021,0.049,0.036,0.102,0.059,0.155l1.185,2.897c0.002,0.004,0.004,0.011,0.004,0.011c0.05,0.125,0.118,0.207,0.215,0.249v0.123
			h-1.51l0.004-0.123c0.051-0.016,0.096-0.038,0.123-0.064c0.026-0.031,0.041-0.073,0.041-0.124c0-0.014-0.006-0.043-0.013-0.075
			c-0.014-0.036-0.021-0.067-0.03-0.104l-0.135-0.324h-1.751l-0.125,0.324c-0.004,0.012-0.006,0.024-0.016,0.045
			c-0.014,0.051-0.018,0.082-0.018,0.108c0,0.054,0.011,0.099,0.038,0.129c0.03,0.038,0.077,0.066,0.146,0.085v0.123h-1.421v-0.123
			c0.075-0.038,0.14-0.096,0.197-0.176c0.061-0.077,0.132-0.231,0.219-0.465l0.94-2.517c0.026-0.062,0.045-0.111,0.056-0.157
			c0.009-0.043,0.015-0.073,0.015-0.099c0-0.056-0.006-0.093-0.025-0.118c-0.019-0.02-0.054-0.037-0.101-0.041v-0.118H183.193z"/>
		<path fill="#363092" d="M187.189,79.068v0.127c-0.056,0.013-0.103,0.032-0.129,0.06c-0.034,0.028-0.045,0.064-0.045,0.104
			c0,0.03,0.007,0.068,0.018,0.114c0.018,0.043,0.032,0.066,0.043,0.082l1.557,1.646v-1.745c0-0.08-0.017-0.138-0.043-0.174
			c-0.028-0.033-0.089-0.061-0.189-0.086v-0.127h1.356v0.127c-0.094,0.025-0.148,0.053-0.18,0.084
			c-0.024,0.033-0.037,0.092-0.037,0.178v3.044c0,0.087,0.013,0.145,0.037,0.178c0.031,0.033,0.086,0.056,0.18,0.08v0.123h-1.609
			v-0.123c0.06-0.019,0.111-0.042,0.138-0.07c0.033-0.032,0.047-0.061,0.047-0.101c0-0.026-0.011-0.064-0.024-0.109
			c-0.014-0.044-0.027-0.075-0.036-0.084l-1.918-2.028v2.135c0,0.082,0.011,0.138,0.042,0.169c0.029,0.038,0.092,0.064,0.188,0.089
			v0.123h-1.356v-0.123c0.088-0.024,0.15-0.047,0.176-0.08c0.032-0.033,0.047-0.089,0.047-0.178v-3.044
			c0-0.086-0.015-0.148-0.049-0.185c-0.03-0.03-0.086-0.058-0.174-0.073v-0.131H187.189L187.189,79.068z"/>
		<path fill="#363092" d="M198.241,79.562c0.009-0.015,0.015-0.027,0.018-0.041c0.006-0.018,0.006-0.031,0.006-0.047
			c0-0.138-0.161-0.271-0.486-0.4c-0.326-0.124-0.689-0.187-1.078-0.187c-0.558,0-1.001,0.127-1.336,0.381
			c-0.329,0.253-0.496,0.587-0.496,1c0,0.418,0.158,0.752,0.477,0.99c0.317,0.243,0.748,0.366,1.301,0.366
			c0.314,0,0.582-0.033,0.807-0.085c0.224-0.06,0.455-0.15,0.691-0.281c0.062-0.036,0.104-0.064,0.124-0.092
			c0.019-0.024,0.026-0.061,0.026-0.096c0-0.021-0.002-0.042-0.004-0.068c-0.004-0.027-0.013-0.05-0.022-0.083l0.12-0.064
			l0.984,1.604l-0.133,0.056c-0.04-0.041-0.08-0.069-0.108-0.095c-0.034-0.02-0.059-0.028-0.073-0.028
			c-0.036,0-0.107,0.028-0.232,0.087c-0.682,0.326-1.403,0.491-2.165,0.491c-1.017,0-1.818-0.249-2.419-0.729
			c-0.596-0.487-0.898-1.137-0.898-1.945c0-0.789,0.293-1.428,0.876-1.924c0.587-0.495,1.365-0.742,2.321-0.742
			c0.505,0,1.007,0.071,1.514,0.222c0.505,0.149,0.763,0.223,0.768,0.223c0.04-0.004,0.086-0.019,0.116-0.04
			c0.034-0.02,0.082-0.062,0.129-0.116l0.118,0.047l-0.814,1.652L198.241,79.562z"/>
		<path fill="#363092" d="M201.151,81.436h1.245l-0.645-1.589L201.151,81.436z M202.841,79.068v0.122
			c-0.051,0.005-0.083,0.018-0.1,0.033c-0.021,0.019-0.035,0.049-0.038,0.094c0,0.037,0.009,0.08,0.021,0.129
			c0.018,0.049,0.032,0.102,0.053,0.155l1.189,2.897c0,0.004,0,0.011,0,0.011c0.052,0.125,0.123,0.207,0.218,0.249v0.123h-1.512
			l0.002-0.123c0.059-0.016,0.101-0.038,0.125-0.064c0.028-0.031,0.042-0.073,0.042-0.124c0-0.014-0.008-0.043-0.014-0.075
			c-0.011-0.036-0.024-0.067-0.033-0.104l-0.131-0.324h-1.752l-0.129,0.324c0,0.012-0.002,0.024-0.009,0.045
			c-0.016,0.051-0.024,0.082-0.024,0.108c0,0.054,0.016,0.099,0.049,0.129c0.024,0.038,0.073,0.066,0.14,0.085v0.123h-1.416v-0.123
			c0.073-0.038,0.136-0.096,0.194-0.176c0.06-0.077,0.131-0.231,0.219-0.465l0.943-2.517c0.022-0.062,0.04-0.111,0.051-0.157
			c0.009-0.043,0.019-0.073,0.019-0.099c0-0.056-0.01-0.093-0.029-0.118c-0.018-0.02-0.052-0.037-0.096-0.041v-0.118H202.841z"/>
		<path fill="#363092" d="M206.838,79.068v0.127c-0.056,0.013-0.104,0.032-0.129,0.06c-0.028,0.028-0.047,0.064-0.047,0.104
			c0,0.03,0.011,0.068,0.023,0.114c0.015,0.043,0.028,0.066,0.037,0.082l1.562,1.646v-1.745c0-0.08-0.018-0.138-0.047-0.174
			c-0.026-0.033-0.091-0.061-0.184-0.086v-0.127h1.352v0.127c-0.094,0.025-0.153,0.053-0.182,0.084
			c-0.025,0.033-0.036,0.092-0.036,0.178v3.044c0,0.087,0.011,0.145,0.036,0.178c0.028,0.033,0.088,0.056,0.182,0.08v0.123h-1.607
			v-0.123c0.059-0.019,0.102-0.042,0.136-0.07c0.028-0.032,0.046-0.061,0.046-0.101c0-0.026-0.004-0.064-0.02-0.109
			c-0.018-0.044-0.03-0.075-0.039-0.084l-1.924-2.028v2.135c0,0.082,0.013,0.138,0.047,0.169c0.026,0.038,0.089,0.064,0.185,0.089
			v0.123h-1.358v-0.123c0.091-0.024,0.153-0.047,0.181-0.08c0.03-0.033,0.048-0.089,0.048-0.178v-3.044
			c0-0.086-0.018-0.148-0.048-0.185c-0.03-0.03-0.09-0.058-0.181-0.073v-0.131H206.838L206.838,79.068z"/>
		<path fill="#363092" d="M211.733,81.436h1.254l-0.646-1.589L211.733,81.436z M213.426,79.068v0.122
			c-0.052,0.005-0.086,0.018-0.1,0.033c-0.021,0.019-0.031,0.049-0.034,0.094c0,0.037,0.009,0.08,0.018,0.129
			c0.012,0.049,0.03,0.102,0.056,0.155l1.186,2.897c0,0.004,0,0.011,0,0.011c0.051,0.125,0.127,0.207,0.221,0.249v0.123h-1.518
			l0.008-0.123c0.053-0.016,0.096-0.038,0.124-0.064c0.029-0.031,0.04-0.073,0.04-0.124c0-0.014-0.009-0.043-0.011-0.075
			c-0.011-0.036-0.02-0.067-0.029-0.104l-0.136-0.324h-1.75l-0.128,0.324c0,0.012-0.003,0.024-0.01,0.045
			c-0.016,0.051-0.024,0.082-0.024,0.108c0,0.054,0.016,0.099,0.043,0.129c0.026,0.038,0.077,0.066,0.146,0.085v0.123h-1.419v-0.123
			c0.071-0.038,0.138-0.096,0.196-0.176c0.056-0.077,0.129-0.231,0.218-0.465l0.94-2.517c0.021-0.062,0.04-0.111,0.054-0.157
			c0.011-0.043,0.018-0.073,0.018-0.099c0-0.056-0.007-0.093-0.026-0.118c-0.023-0.02-0.054-0.037-0.101-0.041v-0.118H213.426z"/>
		<path fill="#363092" d="M216.838,79.899v0.749h0.853c0.309,0,0.531-0.026,0.669-0.091c0.134-0.058,0.2-0.158,0.2-0.289
			c0-0.138-0.061-0.235-0.187-0.287c-0.125-0.06-0.363-0.082-0.71-0.082H216.838z M218.205,79.068c0.49,0,0.864,0.104,1.133,0.32
			c0.267,0.213,0.4,0.516,0.4,0.898c0,0.293-0.082,0.54-0.254,0.737c-0.167,0.202-0.415,0.345-0.738,0.434l0.489,0.776
			c0.115,0.193,0.208,0.317,0.285,0.384c0.075,0.072,0.157,0.116,0.25,0.141v0.123h-1.66v-0.123c0.045-0.009,0.08-0.024,0.103-0.047
			c0.022-0.023,0.031-0.056,0.031-0.084c0-0.049-0.026-0.127-0.089-0.229c-0.01-0.021-0.017-0.035-0.019-0.043l-0.542-0.882h-0.757
			v1.027c0,0.082,0.013,0.138,0.036,0.169c0.033,0.033,0.093,0.064,0.191,0.089v0.123h-1.605v-0.123
			c0.092-0.024,0.154-0.047,0.181-0.08c0.023-0.033,0.044-0.091,0.044-0.178v-3.044c0-0.086-0.021-0.146-0.044-0.18
			c-0.026-0.031-0.089-0.062-0.181-0.087v-0.122H218.205L218.205,79.068z"/>
		<path fill="#363092" d="M222.034,82.501c0,0.082,0.018,0.138,0.045,0.169c0.026,0.033,0.093,0.064,0.187,0.089v0.123h-1.604
			v-0.123c0.095-0.024,0.153-0.047,0.183-0.08c0.024-0.033,0.043-0.091,0.043-0.178v-3.044c0-0.086-0.019-0.146-0.043-0.18
			c-0.029-0.031-0.088-0.062-0.183-0.087v-0.122h1.604v0.122c-0.092,0.026-0.153,0.056-0.185,0.089
			c-0.029,0.038-0.047,0.096-0.047,0.18V82.501z"/>
		<path fill="#363092" d="M224.577,81.436h1.252l-0.656-1.589L224.577,81.436z M226.268,79.068v0.122
			c-0.05,0.005-0.084,0.018-0.102,0.033c-0.017,0.019-0.03,0.049-0.034,0.094c0,0.037,0.004,0.08,0.02,0.129
			c0.015,0.049,0.032,0.102,0.052,0.155l1.185,2.897c0.004,0.004,0.009,0.011,0.009,0.011c0.049,0.125,0.12,0.207,0.214,0.249v0.123
			h-1.513l0.004-0.123c0.059-0.016,0.1-0.038,0.125-0.064c0.025-0.031,0.041-0.073,0.041-0.124c0-0.014-0.005-0.043-0.011-0.075
			c-0.009-0.036-0.021-0.067-0.032-0.104l-0.133-0.324h-1.754l-0.12,0.324c-0.012,0.012-0.012,0.024-0.019,0.045
			c-0.013,0.051-0.018,0.082-0.018,0.108c0,0.054,0.011,0.099,0.043,0.129c0.026,0.038,0.073,0.066,0.14,0.085v0.123h-1.416v-0.123
			c0.073-0.038,0.142-0.096,0.197-0.176c0.056-0.077,0.129-0.231,0.216-0.465l0.945-2.517c0.021-0.062,0.04-0.111,0.047-0.157
			c0.013-0.043,0.02-0.073,0.02-0.099c0-0.056-0.011-0.093-0.026-0.118c-0.019-0.02-0.051-0.037-0.101-0.041v-0.118H226.268z"/>
		<path fill="#363092" d="M174.809,74.21v1.732c0,0.075,0.02,0.136,0.05,0.178c0.041,0.039,0.101,0.078,0.193,0.1v0.125h-1.641
			V76.22c0.095-0.026,0.157-0.061,0.193-0.1c0.034-0.042,0.052-0.103,0.052-0.18v-4.438c0-0.077-0.018-0.14-0.052-0.178
			c-0.036-0.041-0.099-0.075-0.193-0.1v-0.129h3.274c0.383,0,0.686,0.026,0.91,0.078c0.225,0.051,0.421,0.14,0.598,0.264
			c0.174,0.13,0.31,0.303,0.414,0.517c0.098,0.22,0.148,0.453,0.148,0.696c0,0.354-0.097,0.666-0.286,0.929
			c-0.163,0.23-0.378,0.392-0.651,0.488c-0.267,0.097-0.645,0.143-1.133,0.143H174.809L174.809,74.21z M174.809,73.348h1.746
			c0.353,0,0.594-0.037,0.739-0.113c0.084-0.044,0.157-0.126,0.215-0.231c0.054-0.107,0.08-0.222,0.08-0.351
			c0-0.127-0.026-0.24-0.08-0.346c-0.058-0.108-0.131-0.185-0.215-0.232c-0.138-0.073-0.385-0.109-0.739-0.109h-1.746V73.348z"/>
		<path fill="#363092" d="M180.272,74.795v1.201c0,0.068,0.019,0.124,0.047,0.159c0.026,0.038,0.086,0.064,0.165,0.092v0.095h-1.326
			v-0.095c0.075-0.022,0.129-0.049,0.165-0.088c0.03-0.034,0.044-0.09,0.044-0.159v-3.079c0-0.066-0.014-0.122-0.039-0.156
			c-0.039-0.032-0.092-0.064-0.17-0.088V72.58h2.466c0.322,0,0.567,0.017,0.735,0.049c0.168,0.03,0.318,0.088,0.449,0.174
			c0.273,0.177,0.41,0.467,0.41,0.867c0,0.305-0.085,0.54-0.249,0.712c-0.17,0.176-0.442,0.298-0.812,0.373l0.714,0.994
			c0.131,0.185,0.238,0.307,0.316,0.376c0.077,0.064,0.169,0.104,0.264,0.122v0.098h-1.587v-0.098
			c0.12-0.027,0.173-0.083,0.173-0.152c0-0.048-0.03-0.124-0.104-0.222l-0.754-1.078H180.272L180.272,74.795z M180.272,74.114h1.36
			c0.207,0,0.363-0.023,0.46-0.068c0.141-0.056,0.209-0.179,0.209-0.36c0-0.158-0.046-0.268-0.145-0.334
			c-0.097-0.062-0.275-0.093-0.52-0.093h-1.365V74.114L180.272,74.114z"/>
		<path fill="#363092" d="M185.804,72.496c0.6,0,1.099,0.15,1.494,0.458c0.48,0.365,0.716,0.879,0.716,1.536
			c0,0.618-0.235,1.112-0.716,1.48c-0.394,0.303-0.884,0.459-1.49,0.459c-0.595,0-1.09-0.156-1.487-0.459
			c-0.479-0.368-0.716-0.871-0.716-1.512c0-0.643,0.236-1.145,0.716-1.505C184.722,72.654,185.213,72.503,185.804,72.496z
			 M185.806,73.212c-0.389,0-0.705,0.127-0.95,0.371c-0.222,0.233-0.339,0.529-0.339,0.876c0,0.352,0.117,0.645,0.339,0.874
			c0.245,0.252,0.563,0.379,0.952,0.379c0.392,0,0.71-0.127,0.952-0.379c0.229-0.229,0.336-0.518,0.336-0.855
			c0-0.365-0.107-0.668-0.336-0.895C186.516,73.343,186.197,73.216,185.806,73.212z"/>
		<path fill="#363092" d="M190.88,76.342l-1.372-2.468v2.122c0,0.068,0.016,0.124,0.049,0.159c0.029,0.038,0.087,0.064,0.164,0.092
			v0.095h-1.244v-0.095c0.077-0.022,0.131-0.049,0.165-0.088c0.03-0.034,0.048-0.09,0.048-0.159v-3.079
			c0-0.068-0.016-0.122-0.048-0.158c-0.027-0.033-0.086-0.064-0.165-0.086V72.58h1.583v0.097c-0.101,0.032-0.156,0.099-0.156,0.193
			c0,0.088,0.038,0.197,0.118,0.331l0.934,1.703l0.945-1.677c0.104-0.178,0.159-0.305,0.159-0.378c0-0.092-0.056-0.149-0.163-0.173
			V72.58h1.548v0.097c-0.079,0.021-0.127,0.053-0.168,0.086c-0.027,0.036-0.043,0.09-0.043,0.158v3.075
			c0,0.068,0.016,0.124,0.043,0.159c0.041,0.043,0.089,0.069,0.168,0.092v0.095h-1.326v-0.095c0.077-0.022,0.131-0.049,0.163-0.088
			c0.034-0.034,0.048-0.09,0.048-0.159v-2.126L190.88,76.342z"/>
		<path fill="#363092" d="M196.117,72.496c0.602,0,1.099,0.15,1.496,0.458c0.481,0.365,0.719,0.879,0.719,1.536
			c0,0.618-0.237,1.112-0.719,1.48c-0.394,0.303-0.891,0.459-1.49,0.459c-0.597,0-1.093-0.156-1.488-0.459
			c-0.48-0.368-0.716-0.871-0.716-1.512c0-0.643,0.235-1.145,0.716-1.505C195.035,72.654,195.526,72.503,196.117,72.496z
			 M196.12,73.212c-0.387,0-0.702,0.127-0.945,0.371c-0.226,0.233-0.344,0.529-0.344,0.876c0,0.352,0.118,0.645,0.344,0.874
			c0.243,0.252,0.559,0.379,0.948,0.379c0.391,0,0.706-0.127,0.948-0.379c0.228-0.229,0.342-0.518,0.342-0.855
			c0-0.365-0.114-0.668-0.342-0.895C196.824,73.343,196.506,73.216,196.12,73.212z"/>
		<path fill="#363092" d="M202.468,74.99l0.567,0.838l-0.073,0.056c-0.057-0.037-0.099-0.056-0.129-0.056
			c-0.039,0-0.13,0.041-0.264,0.125c-0.309,0.176-0.582,0.301-0.817,0.369c-0.234,0.071-0.505,0.107-0.814,0.107
			c-0.611,0-1.111-0.149-1.496-0.445c-0.223-0.165-0.396-0.378-0.529-0.629c-0.138-0.273-0.207-0.569-0.207-0.896
			c0-0.438,0.127-0.828,0.385-1.17c0.398-0.528,1.017-0.791,1.846-0.791c0.303,0,0.575,0.034,0.816,0.105
			c0.235,0.066,0.514,0.19,0.815,0.371c0.136,0.084,0.227,0.126,0.266,0.126c0.03,0,0.072-0.02,0.123-0.057l0.079,0.057
			l-0.567,0.825l-0.073-0.052c0-0.028,0.002-0.044,0.009-0.05c0-0.023,0.004-0.036,0.004-0.043c0-0.111-0.15-0.231-0.451-0.374
			c-0.291-0.127-0.58-0.195-0.871-0.195c-0.408,0-0.743,0.107-1.008,0.32c-0.302,0.245-0.454,0.552-0.454,0.927
			c0,0.383,0.152,0.694,0.454,0.937c0.267,0.211,0.6,0.318,1.008,0.318c0.322,0,0.635-0.083,0.951-0.24
			c0.247-0.127,0.371-0.232,0.371-0.327c0-0.007-0.004-0.038-0.013-0.099L202.468,74.99z"/>
		<path fill="#363092" d="M204.594,72.921v3.075c0,0.068,0.013,0.124,0.043,0.159c0.034,0.038,0.088,0.064,0.168,0.092v0.095h-1.326
			v-0.095c0.076-0.022,0.129-0.049,0.161-0.088c0.03-0.034,0.049-0.09,0.049-0.159v-3.079c0-0.068-0.019-0.122-0.045-0.156
			c-0.036-0.032-0.089-0.064-0.165-0.088V72.58h1.326v0.097c-0.08,0.021-0.134,0.053-0.168,0.086
			C204.606,72.799,204.594,72.854,204.594,72.921z"/>
		<path fill="#363092" d="M207.466,72.496c0.598,0,1.098,0.15,1.498,0.458c0.478,0.365,0.716,0.879,0.716,1.536
			c0,0.618-0.238,1.112-0.716,1.48c-0.394,0.303-0.892,0.459-1.491,0.459c-0.599,0-1.092-0.156-1.485-0.459
			c-0.483-0.368-0.721-0.871-0.721-1.512c0-0.643,0.237-1.145,0.721-1.505C206.381,72.654,206.874,72.503,207.466,72.496z
			 M207.466,73.212c-0.383,0-0.698,0.127-0.945,0.371c-0.225,0.233-0.343,0.529-0.343,0.876c0,0.352,0.118,0.645,0.343,0.874
			c0.247,0.252,0.564,0.379,0.952,0.379c0.387,0,0.707-0.127,0.95-0.379c0.228-0.229,0.346-0.518,0.346-0.855
			c0-0.365-0.118-0.668-0.346-0.895C208.178,73.343,207.859,73.216,207.466,73.212z M208.444,71.195v0.092
			c-0.09,0-0.154,0.03-0.2,0.093l-0.481,0.578c-0.013,0.02-0.021,0.038-0.021,0.061c0,0.035,0.028,0.054,0.075,0.054
			c0,0,0.007,0,0.014,0v0.086h-0.736v-0.086c0.052,0,0.093-0.013,0.114-0.025c0.026-0.016,0.048-0.046,0.066-0.1l0.224-0.55
			c0.007-0.018,0.009-0.035,0.009-0.05c0-0.036-0.028-0.057-0.093-0.061v-0.092H208.444z"/>
		<path fill="#363092" d="M211.167,73.863v2.133c0,0.068,0.022,0.124,0.051,0.159c0.034,0.043,0.088,0.069,0.167,0.092v0.095h-1.242
			v-0.095c0.077-0.022,0.131-0.049,0.162-0.088c0.033-0.034,0.051-0.09,0.051-0.159v-3.079c0-0.066-0.018-0.122-0.049-0.156
			c-0.033-0.032-0.087-0.064-0.164-0.088V72.58h1.442v0.097c-0.101,0.023-0.15,0.066-0.15,0.129c0,0.056,0.037,0.115,0.108,0.19
			l2.021,2v-2.075c0-0.066-0.013-0.122-0.044-0.158c-0.027-0.033-0.087-0.064-0.165-0.086V72.58h1.245v0.097
			c-0.084,0.021-0.138,0.053-0.164,0.086c-0.034,0.036-0.049,0.092-0.049,0.158v3.075c0,0.068,0.015,0.124,0.049,0.159
			c0.026,0.038,0.08,0.064,0.164,0.092v0.095h-1.348v-0.095c0.101-0.022,0.147-0.062,0.147-0.122c0-0.034-0.009-0.064-0.036-0.099
			c-0.028-0.03-0.088-0.098-0.191-0.195L211.167,73.863z"/>
		<path fill="#363092" d="M218.146,74.037v1.442h3.366c0.078,0,0.138-0.02,0.181-0.058c0.037-0.03,0.075-0.095,0.102-0.189h0.122
			v1.356h-0.122c-0.026-0.091-0.064-0.155-0.102-0.191c-0.041-0.035-0.103-0.056-0.181-0.056h-4.756V76.22
			c0.092-0.026,0.156-0.061,0.188-0.1c0.038-0.042,0.056-0.103,0.056-0.183v-4.436c0-0.077-0.018-0.14-0.056-0.178
			c-0.031-0.041-0.096-0.075-0.188-0.1v-0.129h4.665c0.075,0,0.138-0.021,0.175-0.051c0.045-0.041,0.074-0.104,0.099-0.194h0.129
			v1.356h-0.129c-0.024-0.094-0.054-0.153-0.099-0.188c-0.037-0.038-0.1-0.061-0.175-0.061h-3.275v1.247h2.128
			c0.077,0,0.131-0.015,0.181-0.054c0.03-0.034,0.07-0.097,0.091-0.19h0.133v1.323h-0.133c-0.021-0.092-0.061-0.154-0.096-0.191
			c-0.045-0.038-0.099-0.058-0.181-0.058h-2.123V74.037z"/>
		<path fill="#363092" d="M226.147,74.99l0.567,0.838l-0.08,0.056c-0.054-0.037-0.097-0.056-0.131-0.056s-0.123,0.041-0.261,0.125
			c-0.31,0.176-0.58,0.301-0.814,0.369c-0.232,0.071-0.509,0.107-0.812,0.107c-0.612,0-1.116-0.149-1.503-0.445
			c-0.219-0.165-0.392-0.378-0.527-0.629c-0.131-0.273-0.205-0.569-0.205-0.896c0-0.438,0.127-0.828,0.385-1.17
			c0.403-0.528,1.014-0.791,1.842-0.791c0.306,0,0.582,0.034,0.819,0.105c0.236,0.066,0.51,0.19,0.816,0.371
			c0.138,0.084,0.225,0.126,0.261,0.126c0.034,0,0.077-0.02,0.131-0.057l0.08,0.057l-0.567,0.825l-0.073-0.052
			c0-0.028,0-0.044,0.004-0.05c0.002-0.023,0.002-0.036,0.002-0.043c0-0.111-0.152-0.231-0.455-0.374
			c-0.282-0.127-0.576-0.195-0.867-0.195c-0.408,0-0.74,0.107-1.006,0.32c-0.301,0.245-0.454,0.552-0.454,0.927
			c0,0.383,0.153,0.694,0.454,0.937c0.266,0.211,0.602,0.318,1.006,0.318c0.318,0,0.637-0.083,0.952-0.24
			c0.244-0.127,0.37-0.232,0.37-0.327c0-0.007-0.002-0.038-0.006-0.099L226.147,74.99z"/>
		<path fill="#363092" d="M229.267,72.496c0.603,0,1.099,0.15,1.501,0.458c0.476,0.365,0.716,0.879,0.716,1.536
			c0,0.618-0.24,1.112-0.716,1.48c-0.398,0.303-0.893,0.459-1.492,0.459c-0.601,0-1.097-0.156-1.487-0.459
			c-0.48-0.368-0.721-0.871-0.721-1.512c0-0.643,0.24-1.145,0.721-1.505C228.184,72.654,228.675,72.503,229.267,72.496z
			 M229.273,73.212c-0.39,0-0.703,0.127-0.949,0.371c-0.228,0.233-0.343,0.529-0.343,0.876c0,0.352,0.115,0.645,0.343,0.874
			c0.246,0.252,0.56,0.379,0.951,0.379c0.387,0,0.705-0.127,0.945-0.379c0.23-0.229,0.345-0.518,0.345-0.855
			c0-0.365-0.114-0.668-0.345-0.895C229.979,73.343,229.66,73.216,229.273,73.212z"/>
		<path fill="#363092" d="M232.971,73.863v2.133c0,0.068,0.018,0.124,0.052,0.159c0.03,0.043,0.086,0.069,0.161,0.092v0.095h-1.242
			v-0.095c0.079-0.022,0.129-0.049,0.167-0.088c0.028-0.034,0.044-0.09,0.044-0.159v-3.079c0-0.066-0.016-0.122-0.042-0.156
			c-0.036-0.032-0.087-0.064-0.169-0.088V72.58h1.447v0.097c-0.103,0.023-0.153,0.066-0.153,0.129c0,0.056,0.04,0.115,0.109,0.19
			l2.022,2v-2.075c0-0.066-0.013-0.122-0.044-0.158c-0.033-0.033-0.087-0.064-0.172-0.086V72.58h1.25v0.097
			c-0.083,0.021-0.137,0.053-0.167,0.086c-0.028,0.036-0.052,0.092-0.052,0.158v3.075c0,0.068,0.023,0.124,0.052,0.159
			c0.03,0.038,0.084,0.064,0.167,0.092v0.095h-1.352v-0.095c0.102-0.022,0.152-0.062,0.152-0.122c0-0.034-0.015-0.064-0.037-0.099
			c-0.031-0.03-0.089-0.098-0.187-0.195L232.971,73.863z"/>
		<path fill="#363092" d="M239.058,72.496c0.602,0,1.101,0.15,1.496,0.458c0.479,0.365,0.719,0.879,0.719,1.536
			c0,0.618-0.24,1.112-0.719,1.48c-0.392,0.303-0.889,0.459-1.489,0.459c-0.599,0-1.091-0.156-1.484-0.459
			c-0.481-0.368-0.719-0.871-0.719-1.512c0-0.643,0.237-1.145,0.719-1.505C237.976,72.654,238.466,72.503,239.058,72.496z
			 M239.06,73.212c-0.387,0-0.699,0.127-0.946,0.371c-0.229,0.233-0.342,0.529-0.342,0.876c0,0.352,0.112,0.645,0.342,0.874
			c0.247,0.252,0.56,0.379,0.951,0.379c0.395,0,0.705-0.127,0.954-0.379c0.225-0.229,0.335-0.518,0.335-0.855
			c0-0.365-0.11-0.668-0.335-0.895C239.77,73.343,239.451,73.216,239.06,73.212z M240.033,71.195v0.092
			c-0.09,0-0.152,0.03-0.197,0.093l-0.478,0.578c-0.016,0.02-0.024,0.038-0.024,0.061c0,0.035,0.024,0.054,0.073,0.054
			c0.002,0,0.005,0,0.014,0v0.086h-0.731v-0.086c0.052,0,0.093-0.013,0.112-0.025c0.023-0.016,0.043-0.046,0.066-0.1l0.221-0.55
			c0.012-0.018,0.014-0.035,0.014-0.05c0-0.036-0.033-0.057-0.096-0.061v-0.092H240.033z"/>
		<path fill="#363092" d="M244.134,76.342l-1.372-2.468v2.122c0,0.068,0.016,0.124,0.052,0.159c0.028,0.038,0.084,0.064,0.167,0.092
			v0.095h-1.251v-0.095c0.079-0.022,0.134-0.049,0.163-0.088c0.04-0.034,0.054-0.09,0.054-0.159v-3.079
			c0-0.068-0.014-0.122-0.049-0.158c-0.03-0.033-0.084-0.064-0.168-0.086V72.58h1.589v0.097c-0.107,0.032-0.156,0.099-0.156,0.193
			c0,0.088,0.036,0.197,0.111,0.331l0.938,1.703l0.945-1.677c0.109-0.178,0.162-0.305,0.162-0.378c0-0.092-0.053-0.149-0.164-0.173
			V72.58h1.546v0.097c-0.079,0.021-0.134,0.053-0.165,0.086c-0.029,0.036-0.048,0.09-0.048,0.158v3.075
			c0,0.068,0.019,0.124,0.048,0.159c0.031,0.043,0.086,0.069,0.165,0.092v0.095h-1.331v-0.095c0.08-0.022,0.138-0.049,0.172-0.088
			c0.028-0.034,0.045-0.09,0.045-0.159v-2.126L244.134,76.342z"/>
		<path fill="#363092" d="M248.373,72.921v3.075c0,0.068,0.011,0.124,0.045,0.159c0.028,0.038,0.084,0.064,0.165,0.092v0.095h-1.33
			v-0.095c0.08-0.022,0.136-0.049,0.169-0.088c0.026-0.034,0.049-0.09,0.049-0.159v-3.079c0-0.068-0.022-0.122-0.049-0.156
			c-0.031-0.032-0.087-0.064-0.169-0.088V72.58h1.33v0.097c-0.081,0.021-0.137,0.053-0.165,0.086
			C248.384,72.799,248.373,72.854,248.373,72.921z"/>
		<path fill="#363092" d="M252.807,74.99l0.567,0.838l-0.071,0.056c-0.061-0.037-0.101-0.056-0.129-0.056
			c-0.043,0-0.129,0.041-0.267,0.125c-0.31,0.176-0.581,0.301-0.816,0.369c-0.235,0.071-0.504,0.107-0.812,0.107
			c-0.614,0-1.116-0.149-1.505-0.445c-0.214-0.165-0.394-0.378-0.522-0.629c-0.138-0.273-0.207-0.569-0.207-0.896
			c0-0.438,0.129-0.828,0.384-1.17c0.399-0.528,1.01-0.791,1.842-0.791c0.309,0,0.58,0.034,0.82,0.105
			c0.235,0.066,0.509,0.19,0.816,0.371c0.138,0.084,0.22,0.126,0.267,0.126c0.028,0,0.068-0.02,0.129-0.057l0.071,0.057
			l-0.567,0.825l-0.071-0.052c0-0.028,0.002-0.044,0.004-0.05c0.005-0.023,0.005-0.036,0.005-0.043c0-0.111-0.153-0.231-0.454-0.374
			c-0.288-0.127-0.577-0.195-0.866-0.195c-0.409,0-0.747,0.107-1.007,0.32c-0.307,0.245-0.453,0.552-0.453,0.927
			c0,0.383,0.146,0.694,0.453,0.937c0.263,0.211,0.598,0.318,1.007,0.318c0.318,0,0.636-0.083,0.947-0.24
			c0.248-0.127,0.373-0.232,0.373-0.327c0-0.007-0.005-0.038-0.009-0.099L252.807,74.99z"/>
		<path fill="#363092" d="M256.669,75.404h-1.739l-0.191,0.406c-0.049,0.099-0.075,0.174-0.075,0.232
			c0,0.108,0.075,0.177,0.222,0.204v0.095h-1.389v-0.095c0.089-0.011,0.146-0.04,0.188-0.077c0.047-0.036,0.091-0.114,0.151-0.222
			l1.374-2.783c0.047-0.104,0.077-0.196,0.077-0.273c0-0.093-0.062-0.166-0.188-0.215V72.58h1.461v0.097
			c-0.122,0.049-0.183,0.126-0.183,0.226c0,0.077,0.027,0.165,0.084,0.274l1.424,2.694c0.079,0.146,0.142,0.245,0.187,0.284
			c0.045,0.043,0.113,0.073,0.204,0.092v0.095h-1.535v-0.095c0.146-0.027,0.22-0.092,0.22-0.202c0-0.074-0.028-0.156-0.084-0.26
			L256.669,75.404z M256.391,74.871l-0.611-1.208l-0.592,1.208H256.391z"/>
		<path fill="#363092" d="M131.4,71.571l-0.624,1.234l-0.109-0.064c0.004-0.026,0.006-0.045,0.006-0.061
			c0-0.086-0.077-0.178-0.226-0.28c-0.454-0.319-0.992-0.472-1.606-0.472c-0.271,0-0.51,0.027-0.717,0.096
			c-0.153,0.052-0.275,0.13-0.365,0.231c-0.093,0.103-0.144,0.216-0.144,0.336c0,0.198,0.122,0.331,0.362,0.404
			c0.12,0.038,0.385,0.073,0.787,0.116l0.604,0.061c0.357,0.037,0.649,0.088,0.871,0.155c0.218,0.066,0.415,0.161,0.589,0.284
			c0.171,0.122,0.309,0.289,0.411,0.496c0.103,0.204,0.153,0.42,0.153,0.653c0,0.372-0.121,0.698-0.357,0.987
			c-0.216,0.26-0.548,0.458-1,0.58c-0.34,0.093-0.705,0.145-1.09,0.145c-0.693,0-1.381-0.169-2.054-0.503
			c-0.143-0.066-0.229-0.098-0.258-0.098c-0.034,0-0.085,0.026-0.158,0.087l-0.106-0.062l0.566-1.286l0.106,0.055
			c0,0.026,0,0.042,0,0.051c0,0.116,0.059,0.223,0.169,0.318c0.165,0.148,0.42,0.275,0.774,0.383
			c0.345,0.111,0.678,0.161,0.986,0.161c0.343,0,0.634-0.055,0.874-0.17c0.131-0.067,0.242-0.149,0.318-0.256
			c0.079-0.109,0.12-0.218,0.12-0.336c0-0.172-0.093-0.294-0.281-0.371c-0.131-0.052-0.396-0.098-0.793-0.143l-0.589-0.062
			c-0.398-0.04-0.681-0.079-0.845-0.115c-0.162-0.037-0.327-0.098-0.489-0.183c-0.233-0.11-0.418-0.287-0.554-0.521
			c-0.116-0.204-0.176-0.443-0.176-0.714c0-0.443,0.149-0.809,0.458-1.098c0.4-0.387,1-0.578,1.798-0.578
			c0.337,0,0.647,0.035,0.937,0.102c0.289,0.069,0.649,0.198,1.085,0.376c0.146,0.061,0.237,0.089,0.269,0.089
			c0.057,0,0.118-0.028,0.189-0.089L131.4,71.571z"/>
		<path fill="#363092" d="M134.028,72.525c0.596,0,1.092,0.155,1.494,0.463c0.474,0.363,0.714,0.879,0.714,1.535
			c0,0.621-0.24,1.111-0.714,1.477c-0.396,0.308-0.892,0.458-1.489,0.458s-1.097-0.15-1.49-0.458
			c-0.478-0.365-0.72-0.871-0.72-1.507c0-0.643,0.242-1.146,0.72-1.505C132.939,72.685,133.436,72.536,134.028,72.525z
			 M134.028,73.243c-0.387,0-0.705,0.125-0.951,0.375c-0.225,0.232-0.336,0.522-0.336,0.875s0.111,0.641,0.336,0.873
			c0.249,0.251,0.566,0.376,0.956,0.376c0.387,0,0.707-0.125,0.948-0.376c0.226-0.229,0.339-0.516,0.339-0.855
			c0-0.37-0.113-0.665-0.339-0.893C134.736,73.372,134.418,73.252,134.028,73.243z"/>
		<path fill="#363092" d="M140.376,75.026l0.569,0.834l-0.078,0.06c-0.053-0.04-0.096-0.06-0.129-0.06
			c-0.036,0-0.127,0.039-0.265,0.124c-0.309,0.18-0.575,0.302-0.812,0.373c-0.237,0.066-0.512,0.103-0.813,0.103
			c-0.616,0-1.116-0.148-1.503-0.442c-0.219-0.166-0.394-0.378-0.524-0.631c-0.138-0.271-0.208-0.571-0.208-0.89
			c0-0.444,0.127-0.834,0.385-1.174c0.398-0.529,1.015-0.793,1.842-0.793c0.307,0,0.577,0.034,0.817,0.104
			c0.241,0.068,0.512,0.193,0.816,0.374c0.138,0.084,0.229,0.124,0.265,0.124c0.031,0,0.076-0.018,0.129-0.056l0.078,0.061
			l-0.569,0.825l-0.076-0.056c0.005-0.025,0.007-0.043,0.009-0.054c0.005-0.02,0.005-0.031,0.005-0.038
			c0-0.108-0.151-0.235-0.454-0.373c-0.288-0.129-0.575-0.193-0.866-0.193c-0.409,0-0.748,0.104-1.01,0.32
			c-0.302,0.241-0.45,0.551-0.45,0.929s0.148,0.688,0.45,0.932c0.27,0.206,0.601,0.315,1.01,0.315c0.315,0,0.634-0.077,0.952-0.238
			c0.243-0.129,0.368-0.234,0.368-0.331c0-0.002-0.005-0.035-0.014-0.093L140.376,75.026z"/>
		<path fill="#363092" d="M142.499,72.956v3.072c0,0.069,0.016,0.123,0.044,0.161c0.034,0.035,0.09,0.064,0.17,0.088v0.101h-1.332
			v-0.101c0.08-0.018,0.138-0.047,0.164-0.079c0.036-0.043,0.052-0.099,0.052-0.165v-3.075c0-0.07-0.016-0.122-0.052-0.159
			c-0.026-0.036-0.079-0.064-0.164-0.092v-0.093h1.332v0.093c-0.08,0.025-0.138,0.051-0.17,0.092
			C142.515,72.836,142.499,72.888,142.499,72.956z"/>
		<path fill="#363092" d="M144.37,74.772v0.921h2.385c0.064,0,0.12-0.016,0.158-0.044c0.035-0.029,0.061-0.088,0.086-0.167h0.096
			v1.106h-0.096c-0.021-0.077-0.051-0.133-0.086-0.165c-0.036-0.032-0.094-0.046-0.158-0.046h-3.5v-0.101
			c0.076-0.018,0.133-0.047,0.165-0.079c0.032-0.043,0.049-0.099,0.049-0.165v-3.075c0-0.07-0.017-0.122-0.049-0.159
			c-0.029-0.036-0.087-0.064-0.165-0.092v-0.093h3.4c0.07,0,0.121-0.02,0.159-0.05c0.036-0.03,0.064-0.084,0.089-0.166h0.092v1.109
			h-0.092c-0.024-0.085-0.053-0.14-0.089-0.169c-0.038-0.031-0.089-0.05-0.159-0.05h-2.285v0.832h1.415
			c0.068,0,0.122-0.018,0.158-0.049c0.035-0.028,0.069-0.087,0.093-0.166h0.091v1.077h-0.091c-0.02-0.077-0.054-0.133-0.086-0.159
			c-0.041-0.038-0.094-0.052-0.165-0.052H144.37z"/>
		<path fill="#363092" d="M147.765,76.033v-3.075c0-0.07-0.015-0.122-0.045-0.159c-0.029-0.036-0.087-0.064-0.17-0.092v-0.093h2.206
			c0.465,0,0.823,0.054,1.088,0.167c0.373,0.162,0.64,0.429,0.807,0.802c0.113,0.259,0.171,0.562,0.171,0.91
			c0,0.645-0.193,1.133-0.576,1.462c-0.171,0.15-0.376,0.256-0.608,0.322c-0.236,0.064-0.526,0.101-0.881,0.101h-2.206v-0.101
			c0.083-0.018,0.134-0.047,0.168-0.079C147.75,76.155,147.765,76.1,147.765,76.033z M148.666,75.693h0.965
			c0.438,0,0.761-0.1,0.963-0.3c0.207-0.21,0.314-0.51,0.314-0.9c0-0.385-0.107-0.688-0.314-0.896
			c-0.106-0.107-0.231-0.181-0.385-0.229c-0.152-0.052-0.344-0.079-0.578-0.079h-0.965V75.693z"/>
		<path fill="#363092" d="M155.132,75.433h-1.728l-0.2,0.41c-0.047,0.1-0.068,0.175-0.068,0.232c0,0.107,0.07,0.174,0.215,0.205
			v0.098h-1.383V76.28c0.082-0.016,0.146-0.035,0.189-0.078c0.042-0.038,0.088-0.113,0.146-0.227l1.374-2.779
			c0.054-0.103,0.077-0.193,0.077-0.273c0-0.092-0.062-0.165-0.186-0.216v-0.093h1.46v0.093c-0.124,0.049-0.185,0.124-0.185,0.229
			c0,0.071,0.029,0.164,0.088,0.269l1.419,2.696c0.081,0.15,0.143,0.245,0.188,0.288c0.045,0.045,0.113,0.073,0.204,0.091v0.098
			h-1.533V76.28c0.146-0.026,0.222-0.091,0.222-0.205c0-0.066-0.028-0.152-0.084-0.256L155.132,75.433z M154.865,74.904
			l-0.618-1.212l-0.587,1.212H154.865z"/>
		<path fill="#363092" d="M157.155,76.033v-3.075c0-0.07-0.017-0.122-0.049-0.159c-0.034-0.036-0.089-0.064-0.168-0.092v-0.093
			h2.208c0.458,0,0.821,0.054,1.086,0.167c0.371,0.162,0.636,0.429,0.8,0.802c0.116,0.259,0.172,0.562,0.172,0.91
			c0,0.645-0.189,1.133-0.572,1.462c-0.171,0.15-0.376,0.256-0.608,0.322c-0.236,0.064-0.529,0.101-0.877,0.101h-2.208v-0.101
			c0.079-0.018,0.132-0.047,0.168-0.079C157.137,76.155,157.155,76.1,157.155,76.033z M158.051,75.693h0.967
			c0.44,0,0.761-0.1,0.959-0.3c0.211-0.21,0.313-0.51,0.313-0.9c0-0.385-0.103-0.688-0.313-0.896
			c-0.101-0.107-0.229-0.181-0.383-0.229c-0.15-0.052-0.345-0.079-0.576-0.079h-0.967V75.693z"/>
		<path fill="#363092" d="M163.358,76.033v-3.075c0-0.07-0.016-0.122-0.045-0.159c-0.035-0.036-0.087-0.064-0.172-0.092v-0.093
			h2.208c0.463,0,0.823,0.054,1.09,0.167c0.369,0.162,0.636,0.429,0.802,0.802c0.116,0.259,0.172,0.562,0.172,0.91
			c0,0.645-0.193,1.133-0.578,1.462c-0.171,0.15-0.376,0.256-0.609,0.322c-0.231,0.064-0.526,0.101-0.876,0.101h-2.208v-0.101
			c0.085-0.018,0.137-0.047,0.17-0.079C163.343,76.155,163.358,76.1,163.358,76.033z M164.259,75.693h0.96
			c0.446,0,0.767-0.1,0.965-0.3c0.206-0.21,0.313-0.51,0.313-0.9c0-0.385-0.107-0.688-0.313-0.896
			c-0.104-0.107-0.233-0.181-0.385-0.229c-0.148-0.052-0.345-0.079-0.58-0.079h-0.96V75.693z"/>
		<path fill="#363092" d="M168.864,74.772v0.921h2.378c0.068,0,0.126-0.016,0.159-0.044c0.038-0.029,0.069-0.088,0.09-0.167h0.1
			v1.106h-0.1c-0.021-0.077-0.047-0.133-0.088-0.165c-0.035-0.032-0.093-0.046-0.161-0.046h-3.496v-0.101
			c0.078-0.018,0.129-0.047,0.165-0.079c0.031-0.043,0.049-0.099,0.049-0.165v-3.075c0-0.07-0.016-0.122-0.044-0.159
			c-0.034-0.036-0.088-0.064-0.17-0.092v-0.093h3.397c0.071,0,0.124-0.02,0.16-0.05c0.037-0.03,0.067-0.084,0.091-0.166h0.087v1.109
			h-0.087c-0.023-0.085-0.054-0.14-0.091-0.169c-0.036-0.031-0.089-0.05-0.16-0.05h-2.279v0.832h1.412
			c0.069,0,0.123-0.018,0.158-0.049c0.04-0.028,0.066-0.087,0.094-0.166h0.086v1.077h-0.086c-0.02-0.077-0.054-0.133-0.09-0.159
			c-0.037-0.038-0.091-0.052-0.162-0.052H168.864z"/>
	</g>
	<g>
		<rect x="1.725" fill="#002577" width="106.481" height="100"/>
		<g>
			<defs>
				<rect id="SVGID_11_" x="1.725" width="106.481" height="100"/>
			</defs>
			<clipPath id="SVGID_12_">
				<use xlink:href="#SVGID_11_"  overflow="visible"/>
			</clipPath>
			<path clip-path="url(#SVGID_12_)" fill="#F6E000" d="M65.687,30.045l-0.271-0.089c-2.357-0.78-5.716-1.674-10.792-1.683
				c-5.328,0-9.067,1.036-10.827,1.654l-0.283,0.098l-0.829-2.085c-0.144-0.1-0.408-0.291-0.59-0.44
				c-0.219-0.178-0.543-0.482-0.543-0.482c-1.833-1.814-2.365-4.102-1.468-6.285c0.981-2.386,3.412-4.053,5.91-4.053
				c0.395,0,0.787,0.042,1.17,0.126c1.389-1.165,3.096-1.767,4.775-1.701c0-0.006-0.001-0.013-0.001-0.02
				c0-1.094,0.665-2.054,1.678-2.461v-0.872h-1.353V9.767h1.353V8.386h1.982v1.381h1.39v1.985h-1.39v0.858
				c1.035,0.398,1.713,1.362,1.713,2.475c0,0.006,0,0.013,0,0.02c1.704-0.066,3.388,0.536,4.776,1.701
				c0.382-0.084,0.773-0.126,1.168-0.126c2.499,0,4.93,1.667,5.912,4.053c0.898,2.183,0.365,4.471-1.461,6.278
				c0,0.003-0.342,0.338-0.574,0.539c-0.165,0.14-0.406,0.322-0.542,0.425L65.687,30.045z M64.852,25.686l-0.14-0.045
				c-0.427-0.133-0.87-0.26-1.331-0.38l-0.41-0.104l0.22-0.36c1.152-1.888,0.892-3.631,0.47-4.763l-0.204-0.544l0.566,0.131
				c1.237,0.284,2.287,1.247,2.612,2.395c0.3,1.047-0.025,2.11-0.917,2.988c0,0-0.225,0.225-0.38,0.349
				c-0.105,0.084-0.241,0.178-0.362,0.255L64.852,25.686z M44.481,25.65l-0.112-0.06c-0.122-0.062-0.319-0.173-0.454-0.267
				c-0.152-0.111-0.374-0.309-0.374-0.309c-0.899-0.889-1.225-1.952-0.928-2.999c0.326-1.147,1.377-2.11,2.611-2.395l0.57-0.131
				l-0.205,0.544c-0.422,1.132-0.684,2.875,0.471,4.765l0.222,0.362l-0.413,0.104c-0.437,0.111-0.858,0.227-1.265,0.347
				L44.481,25.65z M60.28,24.645l-0.158-0.022c-1.23-0.171-2.552-0.282-3.926-0.332l-0.303-0.011v-5.494l0.165-0.089
				c0.46-0.247,0.961-0.373,1.49-0.373c1.496,0,3.022,1.041,3.631,2.47c0.546,1.29,0.259,2.652-0.788,3.735L60.28,24.645z
				 M49.016,24.643l-0.111-0.111c-1.076-1.083-1.385-2.446-0.847-3.737c0.596-1.434,2.122-2.474,3.629-2.474
				c0.535,0,1.041,0.126,1.506,0.377l0.164,0.089v5.494l-0.303,0.009c-1.344,0.046-2.65,0.158-3.882,0.331L49.016,24.643z"/>
			<path clip-path="url(#SVGID_12_)" fill="none" stroke="#F6E000" stroke-width="1.1192" stroke-miterlimit="10" d="M65.687,30.045
				l-0.271-0.089c-2.357-0.78-5.716-1.674-10.792-1.683c-5.328,0-9.067,1.036-10.827,1.654l-0.283,0.098l-0.829-2.085
				c-0.144-0.1-0.408-0.291-0.59-0.44c-0.219-0.178-0.543-0.482-0.543-0.482c-1.833-1.814-2.365-4.102-1.468-6.285
				c0.981-2.386,3.412-4.053,5.91-4.053c0.395,0,0.787,0.042,1.17,0.126c1.389-1.165,3.096-1.767,4.775-1.701
				c0-0.006-0.001-0.013-0.001-0.02c0-1.094,0.665-2.054,1.678-2.461v-0.872h-1.353V9.767h1.353V8.386h1.982v1.381h1.39v1.985h-1.39
				v0.858c1.035,0.398,1.713,1.362,1.713,2.475c0,0.006,0,0.013,0,0.02c1.704-0.066,3.388,0.536,4.776,1.701
				c0.382-0.084,0.773-0.126,1.168-0.126c2.499,0,4.93,1.667,5.912,4.053c0.898,2.183,0.365,4.471-1.461,6.278
				c0,0.003-0.342,0.338-0.574,0.539c-0.165,0.14-0.406,0.322-0.542,0.425L65.687,30.045z M64.852,25.686l-0.14-0.045
				c-0.427-0.133-0.87-0.26-1.331-0.38l-0.41-0.104l0.22-0.36c1.152-1.888,0.892-3.631,0.47-4.763l-0.204-0.544l0.566,0.131
				c1.237,0.284,2.287,1.247,2.612,2.395c0.3,1.047-0.025,2.11-0.917,2.988c0,0-0.225,0.225-0.38,0.349
				c-0.105,0.084-0.241,0.178-0.362,0.255L64.852,25.686z M44.481,25.65l-0.112-0.06c-0.122-0.062-0.319-0.173-0.454-0.267
				c-0.152-0.111-0.374-0.309-0.374-0.309c-0.899-0.889-1.225-1.952-0.928-2.999c0.326-1.147,1.377-2.11,2.611-2.395l0.57-0.131
				l-0.205,0.544c-0.422,1.132-0.684,2.875,0.471,4.765l0.222,0.362l-0.413,0.104c-0.437,0.111-0.858,0.227-1.265,0.347
				L44.481,25.65z M60.28,24.645l-0.158-0.022c-1.23-0.171-2.552-0.282-3.926-0.332l-0.303-0.011v-5.494l0.165-0.089
				c0.46-0.247,0.961-0.373,1.49-0.373c1.496,0,3.022,1.041,3.631,2.47c0.546,1.29,0.259,2.652-0.788,3.735L60.28,24.645z
				 M49.016,24.643l-0.111-0.111c-1.076-1.083-1.385-2.446-0.847-3.737c0.596-1.434,2.122-2.474,3.629-2.474
				c0.535,0,1.041,0.126,1.506,0.377l0.164,0.089v5.494l-0.303,0.009c-1.344,0.046-2.65,0.158-3.882,0.331L49.016,24.643z"/>
			<path clip-path="url(#SVGID_12_)" fill="#002577" d="M64.838,25.719l-0.14-0.044c-0.428-0.134-0.871-0.26-1.332-0.38l-0.41-0.104
				l0.221-0.36c1.152-1.888,0.891-3.631,0.469-4.763l-0.202-0.544l0.566,0.131c1.236,0.284,2.285,1.247,2.612,2.394
				c0.298,1.047-0.028,2.11-0.918,2.99c0,0-0.225,0.223-0.381,0.347c-0.104,0.084-0.24,0.178-0.362,0.255L64.838,25.719z"/>
			<path clip-path="url(#SVGID_12_)" fill="none" stroke="#F6E000" stroke-width="1.1192" stroke-miterlimit="10" d="M64.838,25.719
				l-0.14-0.044c-0.428-0.134-0.871-0.26-1.332-0.38l-0.41-0.104l0.221-0.36c1.152-1.888,0.891-3.631,0.469-4.763l-0.202-0.544
				l0.566,0.131c1.236,0.284,2.285,1.247,2.612,2.394c0.298,1.047-0.028,2.11-0.918,2.99c0,0-0.225,0.223-0.381,0.347
				c-0.104,0.084-0.24,0.178-0.362,0.255L64.838,25.719z"/>
			<path clip-path="url(#SVGID_12_)" fill="#002577" d="M44.468,25.683l-0.112-0.06c-0.121-0.062-0.319-0.171-0.455-0.267
				c-0.152-0.112-0.374-0.31-0.374-0.31c-0.898-0.891-1.225-1.952-0.927-2.999c0.326-1.147,1.375-2.11,2.612-2.394l0.566-0.131
				l-0.203,0.547c-0.422,1.129-0.684,2.875,0.47,4.762l0.223,0.362l-0.413,0.104c-0.438,0.111-0.858,0.227-1.264,0.349
				L44.468,25.683z"/>
			<path clip-path="url(#SVGID_12_)" fill="none" stroke="#F6E000" stroke-width="1.1192" stroke-miterlimit="10" d="M44.468,25.683
				l-0.112-0.06c-0.121-0.062-0.319-0.171-0.455-0.267c-0.152-0.112-0.374-0.31-0.374-0.31c-0.898-0.891-1.225-1.952-0.927-2.999
				c0.326-1.147,1.375-2.11,2.612-2.394l0.566-0.131l-0.203,0.547c-0.422,1.129-0.684,2.875,0.47,4.762l0.223,0.362l-0.413,0.104
				c-0.438,0.111-0.858,0.227-1.264,0.349L44.468,25.683z"/>
			<path clip-path="url(#SVGID_12_)" fill="#002577" d="M60.266,24.68l-0.158-0.024c-1.23-0.171-2.552-0.282-3.926-0.331
				l-0.303-0.011V18.82l0.166-0.089c0.459-0.247,0.959-0.373,1.49-0.373c1.495,0,3.021,1.041,3.63,2.472
				c0.547,1.287,0.261,2.65-0.788,3.735L60.266,24.68z"/>
			<path clip-path="url(#SVGID_12_)" fill="none" stroke="#F6E000" stroke-width="1.1192" stroke-miterlimit="10" d="M60.266,24.68
				l-0.158-0.024c-1.23-0.171-2.552-0.282-3.926-0.331l-0.303-0.011V18.82l0.166-0.089c0.459-0.247,0.959-0.373,1.49-0.373
				c1.495,0,3.021,1.041,3.63,2.472c0.547,1.287,0.261,2.65-0.788,3.735L60.266,24.68z"/>
			<path clip-path="url(#SVGID_12_)" fill="#002577" d="M49.001,24.676l-0.109-0.111c-1.077-1.083-1.387-2.446-0.849-3.737
				c0.596-1.434,2.123-2.475,3.629-2.475c0.536,0,1.042,0.129,1.506,0.377l0.165,0.089v5.494l-0.304,0.009
				c-1.343,0.046-2.649,0.158-3.882,0.331L49.001,24.676z"/>
			<path clip-path="url(#SVGID_12_)" fill="none" stroke="#F6E000" stroke-width="1.1192" stroke-miterlimit="10" d="M49.001,24.676
				l-0.109-0.111c-1.077-1.083-1.387-2.446-0.849-3.737c0.596-1.434,2.123-2.475,3.629-2.475c0.536,0,1.042,0.129,1.506,0.377
				l0.165,0.089v5.494l-0.304,0.009c-1.343,0.046-2.649,0.158-3.882,0.331L49.001,24.676z"/>
			<path clip-path="url(#SVGID_12_)" fill="#F6E000" d="M54.635,64.45c-7.813,0-14.17-6.361-14.17-14.176V30.363h28.324v19.912
				C68.789,58.089,62.439,64.45,54.635,64.45 M45.768,35.699l0.175,16.362c1.842,4.81,7.271,7.712,8.703,7.109
				c1.599-0.672,9.459-2.092,8.876-8.919l-0.001-14.552H45.768z"/>
			<path clip-path="url(#SVGID_12_)" fill="none" stroke="#F6E000" stroke-width="1.1192" stroke-miterlimit="10" d="M54.635,64.45
				c-7.813,0-14.17-6.361-14.17-14.176V30.363h28.324v19.912C68.789,58.089,62.439,64.45,54.635,64.45z M45.768,35.699l0.175,16.362
				c1.842,4.81,7.271,7.712,8.703,7.109c1.599-0.672,9.459-2.092,8.876-8.919l-0.001-14.552H45.768z"/>
			<path clip-path="url(#SVGID_12_)" fill="#F6E000" d="M54.644,59.17c-4.895,0-8.877-3.981-8.877-8.875l0.001-14.596h17.753
				l0.001,14.552C63.521,55.17,59.54,59.17,54.644,59.17 M46.394,36.326V50.25c0,4.59,3.701,8.294,8.25,8.294
				c4.551,0,8.251-3.722,8.251-8.294V36.326H46.394z"/>
			<path clip-path="url(#SVGID_12_)" fill-rule="evenodd" clip-rule="evenodd" fill="#F6E000" d="M56.083,51.229l0.373-0.033
				L56.596,51l0.314-0.064v-0.356l0.464,0.526v1.274l1.817,1.788c0.116,0.086,0.196,0.122,0.338,0.146
				c0.152,0.027,0.193-0.009,0.34-0.061c0.049,0.004,0.062,0.069,0.024,0.118c-0.053,0.08-0.139,0.118-0.242,0.158
				c-0.13,0.044-0.251,0.051-0.361,0.018c-0.087-0.027-0.136-0.047-0.206-0.101v0.533c-0.115,0.206-0.155,0.346-0.165,0.578
				c-0.01,0.236,0.021,0.381,0.121,0.592l-0.502,0.627c-0.049-0.018-0.083-0.018-0.133,0c-0.055,0.018-0.085,0.043-0.115,0.093
				l-0.209-0.177c0.017-0.051,0.045-0.083,0.097-0.103c0.064-0.021,0.121-0.043,0.169,0.047l0.331-0.512l-0.388-0.907l-0.039,0.413
				l-0.73,0.401c-0.032-0.038-0.078-0.051-0.127-0.034c-0.046,0.016-0.07,0.05-0.078,0.097l-0.231-0.208
				c0.008-0.066,0.042-0.11,0.103-0.133c0.071-0.028,0.164-0.024,0.188,0.054l0.521-0.354c-0.089-0.219-0.172-0.383-0.203-0.567
				c-0.028-0.165-0.024-0.294-0.02-0.447c-0.203-0.042-0.317-0.077-0.51-0.157c-0.081-0.033-0.071-0.019-0.149-0.058l0.048,0.1
				l-0.286,0.965c-0.054,0-0.088,0.009-0.134,0.036c-0.052,0.03-0.103,0.056-0.124,0.112l-0.261-0.211
				c0.007-0.071,0.032-0.115,0.103-0.131c0.052-0.011,0.099,0.011,0.128,0.054c0.027-0.005,0.036-0.009,0.052-0.011l0.033-1.201
				c-0.079-0.053-0.12-0.091-0.179-0.164c-0.053-0.069-0.077-0.114-0.109-0.191l-0.506-0.064l-0.086,0.09l0.091,0.14l0.141,0.007
				l0.05,0.316h-0.185l-0.388-0.471l0.218-0.438l0.545-0.055c-0.018-0.21-0.012-0.33,0.036-0.531
				c0.076-0.33,0.334-0.452,0.412-0.763l-0.466-0.206L56.083,51.229z"/>
			<path clip-path="url(#SVGID_12_)" fill-rule="evenodd" clip-rule="evenodd" fill="#F6E000" d="M54.597,46.646
				c0,0-0.601,0.347-0.519,1.55c0,0-0.66-0.932-2.052-0.716l1.126,0.96c-1.528-0.178-2.083,0.667-2.083,0.667
				c1.622-0.229,2.422,0.293,2.422,0.293c-1.656-0.125-1.707,1.043-1.707,1.043c1.193-0.765,2.354-0.06,2.354-0.06l0.001,3.924
				h0.942l0.002-3.924c0,0,1.16-0.705,2.354,0.06c0,0-0.051-1.167-1.708-1.043c0,0,0.801-0.522,2.423-0.293
				c0,0-0.556-0.845-2.083-0.667l1.126-0.96c-1.392-0.216-2.053,0.716-2.053,0.716c0.082-1.203-0.519-1.55-0.519-1.55H54.597z"/>
			<path clip-path="url(#SVGID_12_)" fill-rule="evenodd" clip-rule="evenodd" fill="#F6E000" d="M53.15,51.229l-0.374-0.033
				L52.637,51l-0.314-0.064v-0.356l-0.464,0.526v1.274l-1.817,1.788c-0.114,0.086-0.197,0.122-0.337,0.146
				c-0.152,0.027-0.193-0.009-0.341-0.061c-0.047,0.004-0.06,0.069-0.023,0.118c0.053,0.08,0.139,0.118,0.243,0.158
				c0.129,0.044,0.25,0.051,0.36,0.018c0.087-0.027,0.134-0.047,0.206-0.101v0.533c0.116,0.206,0.156,0.346,0.165,0.578
				c0.009,0.236-0.021,0.381-0.121,0.592l0.501,0.627c0.048-0.018,0.085-0.018,0.135,0c0.055,0.018,0.084,0.043,0.114,0.093
				l0.208-0.177c-0.016-0.051-0.044-0.083-0.096-0.103c-0.064-0.021-0.12-0.043-0.169,0.047l-0.332-0.512l0.389-0.907l0.038,0.413
				l0.731,0.401c0.033-0.038,0.079-0.051,0.128-0.034c0.044,0.016,0.071,0.05,0.078,0.097l0.229-0.208
				c-0.007-0.066-0.041-0.11-0.102-0.133c-0.071-0.028-0.162-0.024-0.188,0.054l-0.521-0.354c0.09-0.219,0.173-0.383,0.202-0.567
				c0.028-0.165,0.025-0.294,0.02-0.447c0.204-0.042,0.319-0.077,0.51-0.157c0.081-0.033,0.072-0.019,0.15-0.058l-0.047,0.1
				l0.284,0.965c0.054,0,0.087,0.009,0.134,0.036c0.054,0.03,0.104,0.056,0.126,0.112l0.259-0.211
				c-0.008-0.071-0.032-0.115-0.102-0.131c-0.053-0.011-0.099,0.011-0.128,0.054c-0.028-0.005-0.036-0.009-0.052-0.011l-0.032-1.201
				c0.078-0.053,0.12-0.091,0.178-0.164c0.053-0.069,0.076-0.114,0.107-0.191l0.509-0.064l0.083,0.09l-0.09,0.14l-0.139,0.007
				l-0.051,0.316h0.183l0.391-0.471l-0.218-0.438l-0.546-0.055c0.019-0.21,0.011-0.33-0.037-0.531
				c-0.076-0.33-0.332-0.452-0.41-0.763l0.466-0.206L53.15,51.229z"/>
			<polygon clip-path="url(#SVGID_12_)" fill="#F6E000" points="58.559,57.078 50.693,57.06 54.146,54.292 55.088,54.292 			"/>
			
				<rect x="52.305" y="61.319" transform="matrix(-0.7089 0.7053 -0.7053 -0.7089 136.6258 66.6014)" clip-path="url(#SVGID_12_)" fill="#002577" width="4.529" height="0.348"/>
			
				<rect x="54.86" y="60.407" transform="matrix(-0.6983 -0.7158 0.7158 -0.6983 50.8996 142.6154)" clip-path="url(#SVGID_12_)" fill="#002577" width="1.287" height="0.349"/>
			
				<rect x="52.432" y="61.319" transform="matrix(-0.7088 -0.7054 0.7054 -0.7088 50.0905 143.661)" clip-path="url(#SVGID_12_)" fill-rule="evenodd" clip-rule="evenodd" fill="#002577" width="4.529" height="0.346"/>
			
				<rect x="53.118" y="60.407" transform="matrix(0.6976 -0.7165 0.7165 0.6976 -27.1479 56.8431)" clip-path="url(#SVGID_12_)" fill="#002577" width="1.288" height="0.348"/>
			<polygon clip-path="url(#SVGID_12_)" fill-rule="evenodd" clip-rule="evenodd" fill="#F6E000" points="50.478,37.628 
				49.625,37.628 49.625,38.551 48.661,38.551 48.661,37.989 46.911,37.989 47.785,40.165 48.414,40.165 47.068,45.119 
				49.334,45.119 49.625,42.813 50.478,42.813 51.33,42.813 51.622,45.119 53.887,45.119 52.541,40.165 53.17,40.165 54.114,37.989 
				52.295,37.989 52.295,38.551 51.33,38.551 51.33,37.628 			"/>
			<path clip-path="url(#SVGID_12_)" fill-rule="evenodd" clip-rule="evenodd" fill="#F6E000" d="M56.688,40.254h0.576
				c0.013-0.247-0.022-0.4-0.137-0.618c-0.109-0.205-0.209-0.313-0.405-0.438c-0.066-0.062-0.142-0.074-0.229-0.047
				c-0.113,0.036-0.179,0.142-0.162,0.26c-0.08-0.089-0.136-0.191-0.114-0.34c0.016-0.1,0.081-0.176,0.185-0.223
				c-0.032-0.06-0.082-0.089-0.149-0.087c-0.068,0-0.116,0.034-0.146,0.096c-0.045-0.122-0.032-0.227,0.043-0.333
				c0.073-0.104,0.162-0.151,0.291-0.151c-0.011-0.058-0.034-0.096-0.081-0.127c-0.057-0.042-0.107-0.051-0.175-0.033
				c0.143-0.169,0.361-0.225,0.573-0.163c0.365,0.105,0.341,0.659,0.317,0.772l0.815,0.88l0.84-0.727l-0.103-0.171
				c-0.071,0.042-0.116,0.06-0.197,0.084c-0.087,0.027-0.141,0.033-0.23,0.036v0.187h-0.275v-0.454h-0.488V38.12l0.204-0.002v0.293
				h0.276v-0.534h0.324l0.164-0.222h0.412c0,0,0.064-0.078,0.089-0.138c0.032-0.076,0.031-0.207,0.031-0.207l0.453,0.24
				c0,0,0.061,0.22,0.147,0.335c0.153,0.209,0.382,0.158,0.582,0.325c0.188,0.16,0.402,0.489,0.402,0.489h-0.402
				c0,0,0.165,0.091,0.239,0.18c0.069,0.082,0.129,0.242,0.129,0.242h-0.351c0,0-0.007,0.514,0.111,0.814
				c0.112,0.282,0.445,0.643,0.445,0.643h-0.549c0,0,0.016,0.165,0.06,0.258c0.062,0.127,0.25,0.265,0.25,0.265h-0.67v0.669
				c0,0,0.227,0.083,0.309,0.216c0.097,0.156,0.069,0.418,0.069,0.418c0.088,0.1,0.184,0.135,0.314,0.125
				c0.188-0.018,0.346-0.145,0.346-0.338v-2.719c0-0.396,0.343-0.718,0.737-0.693c0.375,0.022,0.661,0.335,0.651,0.711
				c0.121,0.129,0.164,0.253,0.146,0.43c-0.034,0.355-0.491,0.598-0.805,0.427c0.142-0.043,0.225-0.129,0.266-0.274
				c0.045-0.155-0.152-0.244-0.113-0.402c0.029-0.113,0.076-0.183,0.172-0.249c-0.027-0.16-0.138-0.267-0.301-0.292
				c-0.202-0.031-0.397,0.127-0.41,0.334v2.728c-0.012,0.254-0.15,0.497-0.403,0.636c-0.178,0.098-0.426,0.067-0.612-0.009
				c-0.01,0.242,0.03,0.416,0.186,0.589c0.169,0.198,0.31,0.271,0.529,0.344v1.523c-0.105,0.027-0.171,0.093-0.195,0.202
				c-0.034,0.136,0.038,0.271,0.173,0.32c-0.141,0.033-0.281,0.029-0.422-0.083c-0.097-0.08-0.133-0.191-0.121-0.324
				c-0.079-0.002-0.141,0.031-0.18,0.103c-0.039,0.071-0.035,0.142,0.012,0.207c-0.154-0.025-0.253-0.1-0.319-0.242
				c-0.065-0.141-0.061-0.26,0.017-0.394c-0.066-0.022-0.117-0.02-0.182,0.009c-0.075,0.036-0.116,0.082-0.137,0.162
				c-0.089-0.249-0.015-0.491,0.2-0.647c0.204-0.149,0.548-0.104,0.648-0.014l-0.068-0.427c-0.193-0.038-0.972-0.12-1.278-0.356
				c-0.123-0.095-0.111-0.264-0.11-0.442c-0.221-0.029-0.43,0.004-0.618,0.171c-0.145,0.129-0.208,0.245-0.238,0.438l-0.004,0.973
				c-0.104,0.036-0.165,0.103-0.189,0.209c-0.03,0.138,0.041,0.271,0.174,0.322c-0.14,0.034-0.279,0.029-0.42-0.084
				c-0.099-0.076-0.135-0.189-0.122-0.325c-0.081-0.002-0.142,0.033-0.182,0.104c-0.038,0.071-0.034,0.14,0.013,0.207
				c-0.154-0.027-0.253-0.102-0.319-0.243c-0.064-0.14-0.06-0.26,0.016-0.394c-0.066-0.022-0.116-0.02-0.181,0.009
				c-0.075,0.034-0.116,0.082-0.138,0.163c-0.089-0.25-0.014-0.494,0.2-0.649c0.202-0.145,0.534-0.105,0.637-0.014V43.22
				c-0.083-0.013-0.132-0.031-0.2-0.081c-0.072-0.048-0.11-0.09-0.152-0.168l0.344-0.273c0,0-0.147-0.027-0.197-0.096
				c-0.088-0.125-0.086-0.265-0.086-0.265h1.547v-0.1c-0.324-0.16-0.437-0.238-0.715-0.492c-0.155-0.145-0.338-0.636-0.352-0.765
				c-0.078,0.027-0.12,0.049-0.184,0.103c-0.068,0.058-0.098,0.12-0.142,0.18c-0.246-0.227-0.508-0.433-0.713-0.496
				c-0.147-0.047-0.242-0.033-0.394-0.009c0-0.038,0.003-0.055-0.007-0.084c-0.067-0.062-0.105-0.085-0.192-0.058
				c-0.113,0.036-0.165,0.104-0.146,0.222c-0.083-0.087-0.139-0.191-0.115-0.34c0.015-0.1,0.081-0.175,0.183-0.222
				c-0.031-0.06-0.082-0.089-0.148-0.087c-0.067,0.002-0.117,0.033-0.146,0.093c-0.046-0.12-0.032-0.225,0.042-0.331
				c0.074-0.105,0.162-0.151,0.291-0.151c-0.011-0.058-0.034-0.093-0.082-0.129c-0.057-0.038-0.107-0.049-0.173-0.029
				c0.141-0.171,0.359-0.225,0.571-0.164C56.729,39.583,56.711,40.141,56.688,40.254"/>
			<path clip-path="url(#SVGID_12_)" fill-rule="evenodd" clip-rule="evenodd" fill="#F6E000" d="M58.189,37.01
				c0,0,0.429-0.102,0.708-0.104c0.305-0.004,0.775,0.104,0.775,0.104v0.274c0,0-0.471-0.104-0.775-0.102
				c-0.279,0.004-0.708,0.102-0.708,0.102V37.01z"/>
			<path clip-path="url(#SVGID_12_)" fill="#F6E000" d="M58.173,36.69c0-0.089,0.073-0.162,0.164-0.162s0.165,0.073,0.165,0.162
				c0,0.091-0.074,0.165-0.165,0.165S58.173,36.781,58.173,36.69"/>
			<path clip-path="url(#SVGID_12_)" fill="#F6E000" d="M58.724,36.621c0-0.088,0.075-0.165,0.165-0.165
				c0.091,0,0.163,0.076,0.163,0.165c0,0.091-0.072,0.163-0.163,0.163C58.799,36.784,58.724,36.712,58.724,36.621"/>
			<path clip-path="url(#SVGID_12_)" fill="#F6E000" d="M59.276,36.69c0-0.089,0.073-0.162,0.165-0.162
				c0.089,0,0.163,0.073,0.163,0.162c0,0.091-0.074,0.165-0.163,0.165C59.35,36.855,59.276,36.781,59.276,36.69"/>
			
				<rect x="41.199" y="33.087" transform="matrix(-0.7088 0.7054 -0.7054 -0.7088 97.735 26.1789)" clip-path="url(#SVGID_12_)" fill="#002577" width="4.53" height="0.349"/>
			
				<rect x="43.755" y="32.174" transform="matrix(-0.6983 -0.7158 0.7158 -0.6983 52.2487 86.7172)" clip-path="url(#SVGID_12_)" fill="#002577" width="1.287" height="0.348"/>
			
				<rect x="41.327" y="33.086" transform="matrix(0.7094 0.7048 -0.7048 0.7094 36.1115 -21.0574)" clip-path="url(#SVGID_12_)" fill="#002577" width="4.526" height="0.348"/>
			
				<rect x="42.013" y="32.174" transform="matrix(0.6981 -0.716 0.716 0.6981 -10.2838 40.3061)" clip-path="url(#SVGID_12_)" fill="#002577" width="1.286" height="0.349"/>
			
				<rect x="63.569" y="33.102" transform="matrix(-0.709 0.7052 -0.7052 -0.709 135.9745 10.4432)" clip-path="url(#SVGID_12_)" fill="#002577" width="4.528" height="0.349"/>
			
				<rect x="66.123" y="32.191" transform="matrix(-0.6981 -0.716 0.716 -0.6981 90.2044 102.7632)" clip-path="url(#SVGID_12_)" fill="#002577" width="1.286" height="0.348"/>
			
				<rect x="63.693" y="33.102" transform="matrix(0.7091 0.7051 -0.7051 0.7091 42.6506 -36.8267)" clip-path="url(#SVGID_12_)" fill="#002577" width="4.528" height="0.349"/>
			
				<rect x="64.38" y="32.191" transform="matrix(0.6987 -0.7154 0.7154 0.6987 -3.5631 56.2695)" clip-path="url(#SVGID_12_)" fill="#002577" width="1.287" height="0.348"/>
			
				<rect x="41.2" y="46.865" transform="matrix(-0.7092 0.7051 -0.7051 -0.7092 107.4527 49.753)" clip-path="url(#SVGID_12_)" fill="#002577" width="4.528" height="0.349"/>
			
				<rect x="43.755" y="45.954" transform="matrix(-0.6983 -0.7158 0.7158 -0.6983 42.3861 110.1181)" clip-path="url(#SVGID_12_)" fill="#002577" width="1.287" height="0.347"/>
			
				<rect x="41.326" y="46.865" transform="matrix(0.7091 0.7051 -0.7051 0.7091 45.8485 -17.0517)" clip-path="url(#SVGID_12_)" fill="#002577" width="4.528" height="0.35"/>
			
				<rect x="42.013" y="45.954" transform="matrix(0.6981 -0.716 0.716 0.6981 -20.1491 44.4655)" clip-path="url(#SVGID_12_)" fill="#002577" width="1.286" height="0.347"/>
			
				<rect x="63.676" y="46.865" transform="matrix(-0.7092 0.7051 -0.7051 -0.7092 145.8669 33.9065)" clip-path="url(#SVGID_12_)" fill="#002577" width="4.528" height="0.349"/>
			
				<rect x="66.231" y="45.954" transform="matrix(-0.6979 -0.7162 0.7162 -0.6979 80.5125 126.2128)" clip-path="url(#SVGID_12_)" fill="#002577" width="1.286" height="0.347"/>
			
				<rect x="63.801" y="46.865" transform="matrix(0.709 0.7052 -0.7052 0.709 52.3986 -32.9008)" clip-path="url(#SVGID_12_)" fill="#002577" width="4.528" height="0.349"/>
			
				<rect x="64.488" y="45.953" transform="matrix(0.6981 -0.716 0.716 0.6981 -13.3647 60.5565)" clip-path="url(#SVGID_12_)" fill="#002577" width="1.286" height="0.348"/>
			<rect x="54.368" y="36.015" clip-path="url(#SVGID_12_)" fill="#F6E000" width="0.553" height="10.309"/>
			<rect x="46.04" y="45.97" clip-path="url(#SVGID_12_)" fill="#F6E000" width="17.187" height="0.551"/>
		</g>
		<text transform="matrix(1 0 0 1 18.4541 79.9551)"><tspan x="0" y="0" fill="#F6E000" font-family="'MyriadPro-Bold'" font-size="15.0913">C</tspan><tspan x="8.843" y="0" fill="#F6E000" font-family="'MyriadPro-Bold'" font-size="15.0913">abildo de</tspan></text>
		<text transform="matrix(1 0 0 1 10.9082 93.2217)"><tspan x="0" y="0" fill="#F6E000" font-family="'MyriadPro-Bold'" font-size="15.0913">G</tspan><tspan x="10.337" y="0" fill="#F6E000" font-family="'MyriadPro-Bold'" font-size="15.0913">r</tspan><tspan x="15.921" y="0" fill="#F6E000" font-family="'MyriadPro-Bold'" font-size="15.0913">an </tspan><tspan x="35.781" y="0" fill="#F6E000" font-family="'MyriadPro-Bold'" font-size="15.0913">C</tspan><tspan x="44.624" y="0" fill="#F6E000" font-family="'MyriadPro-Bold'" font-size="15.0913">anaria</tspan></text>
	</g>
</g>
</svg>
