<?xml version="1.0" encoding="utf-8"?>
<!-- Generator: Adobe Illustrator 18.1.1, SVG Export Plug-In . SVG Version: 6.00 Build 0)  -->
<svg version="1.1" id="Layer_1" xmlns="http://www.w3.org/2000/svg" xmlns:xlink="http://www.w3.org/1999/xlink" x="0px" y="0px"
	 viewBox="0 0 200 200" enable-background="new 0 0 200 200" xml:space="preserve">
<path fill="#054C64" d="M15.3,100c0-2.7,2.2-5,5-5c2.7,0,5,2.2,5,5c0,2.8-2.2,5-5,5C17.5,105,15.3,102.8,15.3,100z M20.3,79.1
	c-9.8,0-18,6.7-20.3,15.7C0,94.9,0,95,0,95c0,0.6,0.4,1,1,1h8.4c0.4,0,0.7-0.2,0.9-0.6l0,0c1.7-3.8,5.5-6.4,10-6.4c6,0,11,4.9,11,11
	c0,6.1-4.9,11-11,11c-4.4,0-8.2-2.6-10-6.4l0,0c-0.2-0.3-0.5-0.6-0.9-0.6H1c-0.6,0-1,0.4-1,1c0,0.1,0,0.1,0,0.2
	c2.3,9,10.5,15.7,20.3,15.7c11.6,0,20.9-9.4,20.9-20.9C41.2,88.4,31.8,79.1,20.3,79.1z M75,104.9h-2.8c-0.2,0-0.4,0.1-0.5,0.2
	c-1.7,2.4-4.4,4-7.6,4c-5.1,0-9.2-4.1-9.2-9.2s4.1-9.2,9.2-9.2c3.2,0,6,1.6,7.6,4c0.1,0.1,0.3,0.2,0.5,0.2H75c0.3,0,0.6-0.3,0.6-0.6
	c0-0.1,0-0.2-0.1-0.3c-2.1-4.2-6.5-7.1-11.5-7.1c-7.1,0-12.9,5.8-12.9,12.9c0,7.1,5.8,12.9,12.9,12.9c5,0,9.4-2.9,11.5-7.1
	c0-0.1,0.1-0.2,0.1-0.3C75.6,105.2,75.3,104.9,75,104.9z M83.6,82.8c0,1.4-1.1,2.5-2.5,2.5c-1.4,0-2.5-1.1-2.5-2.5
	c0-1.4,1.1-2.5,2.5-2.5C82.5,80.4,83.6,81.5,83.6,82.8z M83,111.6V87.7h-3.7v23.9c0,0.3,0.3,0.6,0.6,0.6h2.5
	C82.7,112.3,83,112,83,111.6z M98.9,87.1c-3.7,0.2-6.7,1.9-8.6,4.7v-3.4c0-0.3-0.3-0.6-0.6-0.6h-2.5c-0.3,0-0.6,0.3-0.6,0.6l0,0
	v23.3c0,0.3,0.3,0.6,0.6,0.6h2.5c0.3,0,0.6-0.3,0.6-0.6V100c0-4.9,3.8-8.9,8.6-9.2c0.3,0,0.6-0.3,0.6-0.6v-2.5
	C99.5,87.4,99.2,87.1,98.9,87.1z M123.3,104.9h-2.8c-0.2,0-0.4,0.1-0.5,0.2c-1.7,2.4-4.4,4-7.6,4c-5.1,0-9.2-4.1-9.2-9.2
	s4.1-9.2,9.2-9.2c3.2,0,6,1.6,7.6,4c0.1,0.1,0.3,0.2,0.5,0.2h2.8c0.3,0,0.6-0.3,0.6-0.6c0-0.1,0-0.2-0.1-0.3
	c-2.1-4.2-6.5-7.1-11.5-7.1c-7.1,0-12.9,5.8-12.9,12.9c0,7.1,5.8,12.9,12.9,12.9c5,0,9.4-2.9,11.5-7.1c0-0.1,0.1-0.2,0.1-0.3
	C123.9,105.2,123.7,104.9,123.3,104.9z M130.7,79.8h-2.5c-0.3,0-0.6,0.3-0.6,0.6v31.3c0,0.3,0.3,0.6,0.6,0.6h2.5
	c0.3,0,0.6-0.3,0.6-0.6V80.4C131.3,80,131,79.8,130.7,79.8z M147.8,87.1c-7.1,0-12.9,5.8-12.9,12.9c0,7.1,5.8,12.9,12.9,12.9
	c5,0,9.4-2.9,11.5-7.1c0-0.1,0.1-0.2,0.1-0.3c0-0.3-0.3-0.6-0.6-0.6H156c-0.2,0-0.4,0.1-0.5,0.3c-1.7,2.4-4.4,4-7.6,4
	c-4.7,0-8.5-3.5-9.1-8h21.4c0.3,0,0.6-0.3,0.6-0.6c0-0.2,0-0.4,0-0.6C160.7,92.9,155,87.1,147.8,87.1z M139,97.5
	c1.1-3.9,4.6-6.7,8.9-6.7c4.2,0,7.8,2.9,8.9,6.7H139z M196.3,79.2c-2,0-3.7,1.6-3.7,3.7c0,2,1.6,3.7,3.7,3.7c2,0,3.7-1.6,3.7-3.7
	C200,80.8,198.4,79.2,196.3,79.2z M199.4,87.7v23.9c0,0.3-0.3,0.6-0.6,0.6h-4.9c-0.3,0-0.6-0.3-0.6-0.6V87.7H199.4z M177.3,112.9
	c6,0,11-4.1,12.5-9.7c0,0,0-0.1,0-0.1c0-0.3-0.3-0.6-0.6-0.6H184c-0.2,0-0.5,0.1-0.6,0.4l0,0c-1.1,2.3-3.4,3.9-6.1,3.9
	c-3.7,0-6.7-3-6.7-6.7c0-3.7,3-6.7,6.7-6.7c2.7,0,5.1,1.6,6.1,3.9l0,0c0.1,0.2,0.3,0.4,0.6,0.4h5.2c0.3,0,0.6-0.3,0.6-0.6
	c0,0,0-0.1,0-0.1c-1.4-5.6-6.5-9.7-12.5-9.7c-7.1,0-12.9,5.8-12.9,12.9C164.4,107.1,170.2,112.9,177.3,112.9z"/>
</svg>
