<svg xmlns="http://www.w3.org/2000/svg" width="300" height="300" viewBox="0 0 300 300"><g fill="#3E5AA9"><path d="M74.75 154.74c0 18.28-13.17 29.03-32.3 29.03-6.87 0-24.7-3.1-24.7-12.3 0-3.15 3.5-7.34 6.75-7.34 5.36 0 9.57 4.95 19.24 4.95 8.16 0 14.26-5.43 14.22-12v-3.97h-.23c-3.5 5.2-9.2 8-16.9 8-17.6 0-25.88-15.5-25.88-32.14 0-16.9 10.72-32.65 27.63-32.65 5.7 0 12.24 2.57 15.38 7.7 1.05-4.43 3.73-7 8.4-7 4.9 0 8.4 3.74 8.4 9.33v48.5zM44.8 111.6c-8.75 0-13.06 9.1-13.06 16.92 0 8.97 4.3 17.13 13.05 17.13 8.9 0 13.1-8.4 13.1-16.55 0-8.16-4-17.5-13.2-17.5zm34.1-28.53c0-5.6 3.5-9.33 8.38-9.33 4.9 0 8.4 3.73 8.4 9.33v67.95c0 5.6-3.5 9.32-8.4 9.32s-8.4-3.73-8.4-9.32V83.07zm80.25 45.68c0 17.5-12 32.3-30.08 32.3-18.07 0-30.07-14.8-30.07-32.3 0-17.02 12.35-32.53 30.07-32.53s30.08 15.5 30.08 32.53zm-43.36 0c0 8.04 4.1 16.9 13.2 16.9s13.3-8.86 13.3-16.9-4.1-17.13-13.3-17.13c-9.2 0-13.3 9.1-13.3 17.13zm46.5-45.68c0-5.6 3.5-9.33 8.4-9.33s8.4 3.73 8.4 9.33v18.98c4.4-3.84 10.1-5.83 15.94-5.83 18.07 0 27.05 16.9 27.05 33.23 0 15.85-10.73 31.6-27.64 31.6-5.7 0-12.23-2.57-15.38-7.7-1.07 4.42-3.75 7-8.4 7-4.9 0-8.4-3.74-8.4-9.34V83.1zm29.94 62.58c8.75 0 13.06-9.1 13.06-16.9 0-7.93-4.3-17.13-13.05-17.13-8.95 0-13.15 8.4-13.15 16.55 0 8.16 3.97 17.48 13.18 17.48zm92.74-16.9c0 17.5-12 32.3-30.08 32.3s-30.08-14.8-30.08-32.3c0-17.02 12.34-32.53 30.06-32.53s30.1 15.5 30.1 32.53zm-43.37 0c0 8.04 4.18 16.9 13.28 16.9s13.3-8.86 13.3-16.9-4.1-17.13-13.3-17.13-13.3 9.1-13.3 17.13zm-185.3 97.5c-4.8 0-8.67-3.9-8.67-8.67 0-4.8 3.9-8.68 8.68-8.68 4.8 0 8.7 3.9 8.7 8.68 0 4.78-3.9 8.68-8.67 8.68z"/><path d="M90.83 226.26c-15.4 0-27.03-12.45-27.03-28.97 0-16.4 11.88-29.2 27.03-29.2 7.22 0 18.68 2.7 18.68 10 0 3.7-2.6 7.7-6.3 7.7-1.8 0-3.5-.66-5.3-1.35-1.92-.74-3.9-1.5-6.26-1.5-8.02 0-11.6 7.14-11.6 14.24 0 6.8 4.06 14.04 11.6 14.04 2.04 0 4.8-1.06 7.03-1.9 1.7-.66 3.04-1.16 3.88-1.16 3.83 0 7.06 3.24 7.06 7.12 0 8.1-12.8 10.8-18.67 10.8z"/><path d="M135.35 226.26c-15.4 0-27.03-12.45-27.03-28.97 0-16.4 11.87-29.2 27.03-29.2 15.16 0 27.03 12.8 27.03 29.1 0 16.5-11.62 28.96-27.03 28.96zm0-43.22c-7.48 0-10.9 7.4-10.9 14.25 0 6.7 3.4 14 10.9 14 7.48 0 10.9-7.3 10.9-14.1 0-6.87-3.42-14.26-10.9-14.26zm101 42.6c-4.76 0-8.08-3.65-8.08-8.9v-25.57c0-5.68-3.07-9.36-7.83-9.36-4.83 0-7.94 3.7-7.94 9.4v25.6c0 5.2-3.32 8.9-8.07 8.9s-8.07-3.62-8.07-8.9v-25.6c0-5.7-3.07-9.32-7.83-9.32-6.9 0-7.94 5.88-7.94 9.37v25.6c0 5.2-3.4 8.88-8.1 8.88s-8.1-3.65-8.1-8.9V177.7c0-5.23 3.3-8.9 8.1-8.9 3.6 0 6.12 1.77 7.1 4.78 3.7-3.52 8.2-5.38 13.24-5.38 6.02 0 11.27 2.43 15.2 7.06 4.04-4.24 10.15-7.05 15.5-7.05 12.82 0 20.8 7.86 20.8 20.5v28.15c0 5.22-3.3 8.9-8.08 8.9z"/></g></svg>