<?xml version="1.0" encoding="UTF-8"?>
<!DOCTYPE svg PUBLIC "-//W3C//DTD SVG 1.1//EN" "http://www.w3.org/Graphics/SVG/1.1/DTD/svg11.dtd">
<!-- Creator: CorelDRAW -->
<svg xmlns="http://www.w3.org/2000/svg" xml:space="preserve" width="500px" height="225px" style="shape-rendering:geometricPrecision; text-rendering:geometricPrecision; image-rendering:optimizeQuality; fill-rule:evenodd; clip-rule:evenodd"
viewBox="0 0 500.19 225.762"
 xmlns:xlink="http://www.w3.org/1999/xlink">
 <defs>
  <style type="text/css">
   <![CDATA[
    .str1 {stroke:#DB6DDB;stroke-width:0.32155}
    .str0 {stroke:#333333;stroke-width:3.34969}
    .fil5 {fill:none}
    .fil4 {fill:#333333}
    .fil0 {fill:#4D4D4D}
    .fil3 {fill:#DB6DDB}
    .fil1 {fill:#FCA6FC}
    .fil2 {fill:#333333;fill-rule:nonzero}
   ]]>
  </style>
 </defs>
 <g id="Capa_x0020_1">
  <metadata id="CorelCorpID_0Corel-Layer"/>
  <path class="fil0 str0" d="M332.873 79.509c2.66862,0.439284 5.00598,1.74912 6.64327,3.59487 0.958744,-0.24686 1.97066,-0.378096 3.01591,-0.378096 6.12381,0 11.088,4.5207 11.088,10.098 0,0.628332 -0.0637193,1.24358 -0.184406,1.83984 4.32827,1.94492 7.02094,6.28289 6.30357,10.8006 -0.0569676,0.359951 -0.135034,0.711884 -0.231246,1.05538l-26.6351 0 0 -27.0107z"/>
  <path class="fil1" d="M332.873 79.509c2.66862,0.439284 5.00598,1.74912 6.64327,3.59487 0.958744,-0.24686 1.97066,-0.378096 3.01591,-0.378096 6.12381,0 11.088,4.5207 11.088,10.098 0,0.628332 -0.0637193,1.24358 -0.184406,1.83984 4.32827,1.94492 7.02094,6.28289 6.30357,10.8006 -0.0569676,0.359951 -0.135034,0.711884 -0.231246,1.05538l-26.6351 0 0 -27.0107z"/>
  <polygon class="fil2" points="127.669,113.491 143.005,113.491 143.005,76.3682 75.3171,76.3682 75.3171,113.491 90.6523,113.491 90.6523,150.508 127.669,150.508 "/>
  <polygon class="fil2" points="216.898,150.508 290.931,150.508 290.825,113.439 290.72,75.2512 253.703,101.645 216.686,75.2512 "/>
  <polygon class="fil2" points="149.037,76.3682 149.037,150.402 210.379,150.402 210.379,126.559 193.927,126.559 193.927,122.269 210.379,122.269 210.379,104.501 193.927,104.501 193.927,100.212 210.379,100.212 210.379,76.3682 "/>
  <path class="fil2" d="M404.165 113.438l0 -37.0699 -37.0171 0c0,12.3392 0,24.6957 0,37.0699 0,12.3742 0,24.7307 0,37.0699l57.5347 0 0 -37.0699 -20.5176 0z"/>
  <path class="fil2" d="M332.564 76.475l-35.4305 0c0,3.50752 0,6.90954 0,10.2052 0,3.31425 0,5.99341 0,8.07379 0,2.06265 0,3.6839 0,4.82959 0,1.16383 0,2.00948 0,2.55637 0,0.546045 0,0.95157 0,1.19843 0,0.264161 0,0.528744 0,0.793327 0,0.263739 0,0.70471 0,1.30435 0,0.599215 0,1.51576 0,2.76694 0,1.23388 0,2.94375 0,5.14734 0,2.18587 0,5.0237 0,8.47847 0,3.45519 0,7.70329 0,12.7447 0,5.04142 0,10.3466 0,15.9349l35.7478 0 0 -14.0664c4.15948,-0.0354465 8.0375,-0.810628 11.6332,-2.37998 3.61386,-1.55121 6.78674,-3.70163 9.51908,-6.43396 2.73233,-2.74964 4.88276,-5.92252 6.41624,-9.51823 1.55121,-3.61343 2.32639,-7.47415 2.36183,-11.5986l-29.9304 0 0 -30.0337 -0.317331 -0.00253189z"/>
  <path class="fil3 str1" d="M345.6 91.8567c-0.345181,2.20359 -1.24907,4.19324 -2.56228,5.87188 3.02603,-7.67079 0.600903,-11.3775 -2.07235,-14.9002 0.517772,-0.0675172 1.04652,-0.10212 1.58454,-0.10212 0.352355,0 0.700491,0.0151914 1.04398,0.0443081 1.75545,2.67832 2.5032,5.9145 2.0061,9.08612z"/>
  <path class="fil4" d="M332.873 78.0178c6.74792,1.35752 11.7965,6.83653 11.7965,13.3912 0,2.23018 -0.585289,4.33629 -1.62252,6.19765 0.584445,-1.46259 0.903886,-3.04207 0.903886,-4.68907 0,-6.31961 -4.69329,-11.64 -11.0779,-13.2296l0 -1.67021z"/>
  <rect class="fil5" y="1.20734e-005" width="500.19" height="225.762"/>
 </g>
</svg>
