<?xml version="1.0" encoding="utf-8"?>
<!-- Generator: Adobe Illustrator 23.0.4, SVG Export Plug-In . SVG Version: 6.00 Build 0)  -->
<svg version="1.1" id="Layer_1" xmlns="http://www.w3.org/2000/svg" xmlns:xlink="http://www.w3.org/1999/xlink" x="0px" y="0px"
	 viewBox="0 0 553.7 135" style="enable-background:new 0 0 553.7 135;" xml:space="preserve">
<style type="text/css">
	.st0{fill:#303030;}
</style>
<g id="unbounce_logo_3_">
	<path id="e_3_" class="st0" d="M523.7,91.3c7.7,0,15.5-2.6,21.2-7.1c0.1-0.1,0.1-0.2,0-0.2l-5.6-6.8c-0.1-0.1-0.2-0.1-0.2,0
		c-4.7,3.3-9.8,5-15.2,5c-8.1,0-13-3.8-14.2-10.9l-0.1-0.8h36.5V68c0-13.4-10.8-24.4-24-24.5c-0.1,0-0.2,0-0.3,0
		c-7.2,0-13.6,2.4-18.1,6.9c-4.3,4.3-6.7,10.4-6.7,17C497.1,81.9,507.5,91.3,523.7,91.3z M510.6,61c1.7-5.3,5.7-8.2,11.2-8.2
		s9.4,2.9,11.2,8.2c0.2,0.5,0.1,1-0.2,1.4s-0.8,0.7-1.3,0.7h-19.3c-0.5,0-1-0.3-1.3-0.7C510.5,62,510.4,61.5,510.6,61z"/>
	<path id="c_3_" class="st0" d="M450.1,67.6c0,13.6,11,23.9,25.7,23.9c7.2,0,13.8-2.5,18.6-7.1v-0.3l-6.8-7.4
		c-2.6,3.3-6.7,5.3-11,5.3c-2.2,0-4.3-0.5-6.3-1.5c-0.1,0-0.2-0.1-0.3-0.2l-0.1-0.1l-0.2-0.1c-2.8-1.4-5.1-3.9-6.3-6.9
		c-0.3-0.7-0.5-1.4-0.7-2.2c-0.1-0.4-0.2-0.7-0.2-1l-0.1-0.5c0-0.2-0.1-0.5-0.1-0.7c0-0.3,0-0.6,0-0.9c0-0.2,0-0.3,0-0.3
		c0-0.3,0-0.6,0-0.9v-0.2c0-0.1,0-0.1,0-0.2c0.2-1.6,0.6-3.3,1.3-4.8c0.1-0.2,0.2-0.5,0.3-0.7c1.3-2.6,3.3-4.5,5.7-5.8
		c2.1-1.2,4.5-1.8,7-1.8c4.3,0,8.3,1.9,11.1,5.3l6.8-7.6c-4.8-4.6-11.5-7.2-18.8-7.2C461.1,43.7,450.1,54,450.1,67.6z"/>
	<path id="n_7_" class="st0" d="M443.3,89.3V66c-0.4-10.6-3.3-20.4-21-20.4c-3.7,0-7,0.5-9.8,1.6l-1,0.4v-1.8c0-0.1-0.1-0.1-0.1-0.1
		h-9.9c-0.1,0-0.1,0.1-0.1,0.1v43.5c0,0.1,0.1,0.2,0.2,0.2H413c0.1,0,0.2-0.1,0.2-0.2V64.8c0-1.4,0.2-2.7,0.5-3.9
		c1.3-3.4,4.8-5.8,8.7-5.9c3.8,0,7.4,2.4,8.7,5.8c0.4,1.2,0.5,2.5,0.5,3.9v24.5c0,0.1,0.1,0.2,0.2,0.2L443.3,89.3
		C443.2,89.5,443.3,89.4,443.3,89.3z"/>
	<path id="u_7_" class="st0" d="M349.6,45.8v23.4c0.4,10.6,3.3,20.4,21,20.4c18,0,20.6-12,21-20.9V45.8c0-0.1-0.1-0.2-0.2-0.2H380
		c-0.1,0-0.2,0.1-0.2,0.2v24.5c0,1.4-0.2,2.7-0.5,3.9c-1.3,3.4-4.8,5.8-8.7,5.9c-3.8,0-7.4-2.4-8.7-5.8c-0.4-1.2-0.5-2.5-0.5-3.9
		V45.8c0-0.1-0.1-0.2-0.2-0.2h-11.4C349.7,45.6,349.6,45.7,349.6,45.8z"/>
	<path id="o_3_" class="st0" d="M316.5,43.5c-14.6,0-25.7,10.3-25.7,23.9s11,23.9,25.7,23.9s25.8-10.3,25.8-23.9
		C342.3,53.7,331.2,43.5,316.5,43.5z M316.5,81.4c-7.6,0-13.4-6-13.4-14c0-7.9,5.9-14,13.4-14c7.6,0,13.5,6.2,13.5,14
		S324,81.4,316.5,81.4z"/>
	<path id="b_3_" class="st0" d="M264,90.5c12.1,0,21.3-10,21.3-23.2c0-13.1-9.3-23.4-21.3-23.4c-6.4,0-12.2,2.6-16.3,7.4l-1.3,1.4
		V23.5c0-0.1-0.1-0.2-0.2-0.2h-11.4c-0.1,0-0.2,0.1-0.2,0.2v65.8c0,0.1,0.1,0.2,0.2,0.2h10.7c0.1,0,0.2-0.1,0.2-0.2v-8.2l1.3,1.5
		C251.1,87.7,257.1,90.5,264,90.5z M261.5,53.9c7.6,0,13.2,5.6,13.2,13.3c0,7.6-5.7,13.3-13.2,13.3s-13.4-5.8-13.4-13.2
		C248.1,59.7,253.9,53.9,261.5,53.9z"/>
	<path id="n_6_" class="st0" d="M225.4,89.5c0.1,0,0.2-0.1,0.2-0.2V66c-0.4-10.6-3.3-20.4-21-20.4c-3.7,0-7,0.5-9.8,1.6l-1,0.4v-1.8
		c0-0.1-0.1-0.1-0.2-0.1h-9.9c-0.1,0-0.1,0.1-0.1,0.1v43.5c0,0.1,0.1,0.2,0.2,0.2h11.4c0.1,0,0.2-0.1,0.2-0.2V64.8
		c0-1.4,0.2-2.7,0.5-3.9c1.3-3.4,4.8-5.8,8.7-5.9c3.8,0,7.4,2.4,8.7,5.8c0.4,1.2,0.5,2.5,0.5,3.9v24.5c0,0.1,0.1,0.2,0.2,0.2h11.4
		L225.4,89.5L225.4,89.5z"/>
	<path id="u_6_" class="st0" d="M132.6,45.8v23.4c0.4,10.6,3.3,20.4,21,20.4c18,0,20.6-12,21-20.9V45.8c0-0.1-0.1-0.2-0.2-0.2H163
		c-0.1,0-0.2,0.1-0.2,0.2v24.5c0,1.4-0.2,2.7-0.5,3.9c-1.3,3.4-4.8,5.8-8.7,5.9c-3.8,0-7.4-2.4-8.7-5.8c-0.4-1.2-0.5-2.5-0.5-3.9
		V45.8c0-0.1-0.1-0.2-0.2-0.2h-11.4C132.6,45.6,132.6,45.7,132.6,45.8z"/>
	<g id="Symbol_3_">
		<path class="st0" d="M60.8,14.3c-29.4,0-53.2,23.8-53.2,53.2s23.8,53.2,53.2,53.2S114,96.9,114,67.5S90.2,14.3,60.8,14.3z
			 M58.9,88.4L55,99.9c-0.1,0.4-0.3,0.7-0.5,1c-0.5,0.8-1.1,1.4-1.9,1.8c-0.7,0.4-1.5,0.6-2.3,0.6c-0.5,0-1.1-0.1-1.6-0.3
			c-2.2-0.8-3.6-3-3.3-5.2c-11-5.6-18.5-17.1-18.5-30.3c0-18.8,15.2-34.1,34.1-34.1c2.2,0,4.3,0.2,6.4,0.6c1.2-1.9,3.6-2.8,5.8-2.1
			c1.2,0.4,2.1,1.2,2.7,2.2c0.5,0.9,0.8,1.9,0.7,3c0,0.4-0.1,0.8-0.2,1.1l-3.9,11.5L58.9,88.4z M63.2,101.5l4.7-14.2
			c8.1-2.9,13.9-10.6,13.9-19.8c0-4.3-1.3-8.4-3.6-11.7l4.7-14.2c7.3,6.2,12,15.5,12,25.9C94.8,85.5,80.9,100.2,63.2,101.5z"/>
		<path class="st0" d="M39.8,67.5c0,7.4,3.9,13.9,9.7,17.7l13.2-38.6c-0.6-0.1-1.3-0.1-1.9-0.1C49.2,46.5,39.8,55.9,39.8,67.5z"/>
	</g>
</g>
</svg>
