<?xml version="1.0" encoding="UTF-8"?>
<svg xmlns="http://www.w3.org/2000/svg" xmlns:xlink="http://www.w3.org/1999/xlink" width="194px" height="59px" viewBox="0 0 194 59" version="1.1" class="svg replaced-svg">
    <!-- Generator: Sketch 43 (38999) - http://www.bohemiancoding.com/sketch -->
    <desc>Created with Sketch.</desc>
    <defs></defs>
    <g id="Symbols" stroke="none" stroke-width="1" fill="none" fill-rule="evenodd">
        <g id="beequip-logo">
            <g id="name" transform="translate(52.000000, 24.000000)" fill="#0E0E0E">
                <polyline id="Fill-5" points="22.0279312 1.41563194 39.6217108 1.41563194 39.6217108 6.55032303 28.0282776 6.55032303 28.0282776 9.84777143 38.5280677 9.84777143 38.5280677 14.6078633 28.0282776 14.6078633 28.0282776 18.061327 39.7784119 18.061327 39.7784119 23.1935803 22.0279312 23.1935803 22.0279312 1.41563194"></polyline>
                <path d="M10.5928314,18.3400418 C12.4381501,18.3400418 13.4999633,17.6241591 13.4999633,16.348409 L13.4999633,16.2882781 C13.4999633,15.1059746 12.5630213,14.3283359 10.5308038,14.3283359 L5.90730514,14.3283359 L5.90730514,18.3400418 L10.5928314,18.3400418 Z M9.71873302,10.0972334 C11.5616033,10.0972334 12.5932189,9.47317219 12.5932189,8.19904723 L12.5932189,8.13566601 C12.5932189,6.95498772 11.6562769,6.26917046 9.84360421,6.26917046 L5.90730514,6.26917046 L5.90730514,10.0972334 L9.71873302,10.0972334 Z M0,1.41563194 L11.2188196,1.41563194 C13.9684343,1.41563194 15.9059782,2.09982405 17.1873361,3.37557417 C18.0630668,4.24747218 18.5943815,5.39808503 18.5943815,6.89079392 L18.5943815,6.95498772 C18.5943815,9.47317219 17.1563224,10.9650685 15.2179624,11.8077137 C17.8753519,12.6796117 19.5623372,14.1706954 19.5623372,17.1276729 L19.5623372,17.189429 C19.5623372,20.9224201 16.5001365,23.1935803 11.2816633,23.1935803 L0,23.1935803 L0,1.41563194 L0,1.41563194 Z" id="Fill-3"></path>
                <polyline id="Fill-6" points="42.5565919 1.41563194 60.1495553 1.41563194 60.1495553 6.55032303 48.5561221 6.55032303 48.5561221 9.84777143 59.0559122 9.84777143 59.0559122 14.6078633 48.5561221 14.6078633 48.5561221 18.061327 60.3078887 18.061327 60.3078887 23.1935803 42.5565919 23.1935803 42.5565919 1.41563194"></polyline>
                <path d="M79.5804922,12.4301497 L79.5804922,12.3667685 C79.5804922,9.1928322 77.2993485,6.42437318 73.9253779,6.42437318 C70.6126186,6.42437318 68.3943186,9.16195417 68.3943186,12.3050124 L68.3943186,12.3667685 C68.3943186,15.5106393 70.6444485,18.2782858 73.9874054,18.2782858 C77.4397266,18.2782858 79.5804922,15.5772709 79.5804922,12.4301497 Z M82.8096195,19.8992017 C84.6619823,17.8852483 85.7367235,15.21726 85.7367235,12.3050124 L85.7367235,12.2432564 C85.7367235,5.98964304 80.7361628,0.979276648 73.9874054,0.979276648 C67.238648,0.979276648 62.1760597,6.04977394 62.1760597,12.3050124 L62.1760597,12.3667685 C62.1760597,18.6211944 67.1749881,23.6299356 73.9253779,23.6299356 C74.2715695,23.6299356 74.612721,23.6171192 74.9484684,23.5919883 L74.8990467,23.6299356 L84.9923933,23.6299356 L82.8096195,19.8992017 Z" id="Fill-7"></path>
                <path d="M88.296991,13.6441438 L88.296991,1.41563194 L94.4532224,1.41563194 L94.4532224,13.5190065 C94.4532224,16.659627 96.0455341,18.1547736 98.4841951,18.1547736 C100.92204,18.1547736 102.514352,16.7230082 102.514352,13.6742092 L102.514352,1.41563194 L108.670583,1.41563194 L108.670583,13.488941 C108.670583,20.5177554 104.638794,23.598245 98.4221675,23.598245 C92.2022763,23.598245 88.296991,20.4559993 88.296991,13.6441438" id="Fill-8"></path>
                <polygon id="Fill-9" points="112.075567 23.1935803 118.168139 23.1935803 118.168139 1.41563194 112.075567 1.41563194"></polygon>
                <path d="M130.792372,12.2432564 C132.947828,12.2432564 134.259383,11.122709 134.259383,9.40979098 L134.259383,9.34803492 C134.259383,7.48153936 132.947828,6.48694182 130.760542,6.48694182 L127.91707,6.48694182 L127.91707,12.2432564 L130.792372,12.2432564 Z M121.853063,1.41563194 L131.229829,1.41563194 C136.760888,1.41563194 140.32339,4.24747218 140.32339,9.07013266 L140.32339,9.13188872 C140.32339,14.2649546 136.354445,16.9724702 130.917243,16.9724702 L127.91707,16.9724702 L127.91707,23.1935803 L121.853063,23.1935803 L121.853063,1.41563194 L121.853063,1.41563194 Z" id="Fill-10"></path>
            </g>
            <g id="bee" transform="translate(1.000000, 1.000000)">
                <polygon id="bg" fill="#FFA100" points="0 23 19.5 12 39 23 39 46 19.5 57 0 46"></polygon>
                <polygon id="bottom" fill="#0E0E0E" points="19.5 34.8324588 39 46 19.5 57 0 46"></polygon>
                <polygon id="middle" fill="#0E0E0E" points="0.00437986496 34 19.5 23 39 34 39 40 19.5 29.1433202 0 40"></polygon>
                <path d="M27.6617073,16.60404 L39,23 L39,29 L19.5,18.1433202 L0,29 L0.00437986496,23 L11.9149707,16.2796957 L4.36044462,1.09422851 L6.10328915,0.234992067 L13.6095981,15.3235373 L19.5,12 L25.9664687,15.6477516 L33.6347449,0.234992067 L35.3775894,1.09422851 L27.6617073,16.60404 Z" id="head" fill="#0E0E0E"></path>
            </g>
        </g>
    </g>
</svg>