<?xml version="1.0" encoding="UTF-8"?>
<svg width="304px" height="199px" viewBox="0 0 304 199" version="1.1" xmlns="http://www.w3.org/2000/svg" xmlns:xlink="http://www.w3.org/1999/xlink">
    <!-- Generator: Sketch 45.2 (43514) - http://www.bohemiancoding.com/sketch -->
    <title>Warren_Pink_Vertical</title>
    <desc>Created with Sketch.</desc>
    <defs></defs>
    <g id="Page-1" stroke="none" stroke-width="1" fill="none" fill-rule="evenodd">
        <g id="Warren_Pink_Vertical" fill-rule="nonzero" fill="#EE2E5D">
            <path d="M74.539,147.591 L63.723,147.591 C62.22,147.591 61.318,148.191 60.917,149.691 L53.581,176.999 L45.092,149.691 C44.695,148.301 43.703,147.606 42.317,147.595 L42.314,147.591 L42.288,147.591 L34.502,147.591 L34.476,147.591 L34.473,147.595 C33.087,147.606 32.096,148.301 31.698,149.691 L23.209,176.999 L15.872,149.691 C15.472,148.191 14.57,147.591 13.067,147.591 L2.25,147.591 C0.447,147.591 -0.354,148.692 0.146,150.391 L14.57,195.5 C14.971,196.9 16.072,197.601 17.475,197.601 L25.889,197.601 L27.091,197.601 C28.493,197.601 29.594,196.901 29.995,195.501 L38.395,169.228 L46.794,195.501 C47.195,196.9 48.296,197.601 49.698,197.601 L50.9,197.601 L59.313,197.601 C60.716,197.601 61.817,196.901 62.218,195.5 L76.642,150.391 C77.143,148.691 76.341,147.591 74.539,147.591 L74.539,147.591 Z M103.611,184.91 C96.982,184.91 91.609,179.389 91.609,172.576 C91.609,165.765 96.983,160.244 103.611,160.244 C110.239,160.244 115.613,165.765 115.613,172.576 C115.613,179.389 110.24,184.91 103.611,184.91 L103.611,184.91 Z M128.124,147.59 L118.115,147.59 C116.513,147.59 115.613,148.488 115.613,150.088 L115.613,152.314 C111.509,148.493 106.226,146.192 100.462,146.192 C87.398,146.192 76.806,158.004 76.806,172.577 C76.806,187.15 87.397,198.964 100.462,198.964 C106.227,198.964 111.509,196.663 115.613,192.841 L115.613,195.067 C115.613,196.666 116.513,197.566 118.115,197.566 L128.124,197.566 C129.726,197.566 130.627,196.666 130.627,195.067 L130.627,150.089 C130.627,148.488 129.726,147.59 128.124,147.59 L128.124,147.59 Z M304,165.894 L304,195.1 C304,196.7 303.099,197.601 301.496,197.601 L291.479,197.601 C289.876,197.601 288.975,196.7 288.975,195.1 L288.975,167.195 C288.975,162.194 286.071,159.994 282.264,159.994 C277.757,159.994 274.952,162.494 274.952,168.395 L274.952,195.1 C274.952,196.7 274.051,197.601 272.448,197.601 L262.431,197.601 C260.828,197.601 259.927,196.7 259.927,195.1 L259.927,150.091 C259.927,148.49 260.828,147.591 262.431,147.591 L272.448,147.591 C274.051,147.591 274.952,148.49 274.952,150.091 L274.952,152.158 C277.306,148.682 281.569,146.191 287.973,146.191 C297.289,146.191 304,153.391 304,165.894 L304,165.894 Z M218.398,167.194 C219.945,162.207 223.841,159.492 229.473,159.492 C233.891,159.492 238.309,161.503 239.857,167.194 L218.398,167.194 Z M229.574,146.191 C213.748,146.191 202.73,157.692 202.73,172.594 C202.73,187.497 213.347,198.999 229.974,198.999 C240.19,198.999 248.403,194.499 252.31,185.796 C253.111,184.197 252.109,183.097 250.306,183.097 L240.691,183.097 C239.389,183.097 238.587,183.597 237.586,184.397 C235.783,185.898 232.98,186.898 230.175,186.898 C224.955,186.898 220.281,184.539 218.461,178.595 L251.909,178.595 C253.411,178.595 254.413,177.896 254.613,176.296 C254.714,175.095 254.814,173.895 254.814,172.594 C254.814,157.493 244.196,146.191 229.574,146.191 L229.574,146.191 Z M197.125,146.789 C198.828,146.489 199.729,147.59 199.729,149.19 L199.729,160.991 C199.729,162.592 199.028,163.392 197.727,163.392 C192.117,163.193 186.708,165.992 186.708,173.994 L186.708,195.098 C186.708,196.699 185.807,197.598 184.203,197.598 L174.187,197.598 C172.584,197.598 171.683,196.699 171.683,195.098 L171.683,150.09 C171.683,148.49 172.584,147.59 174.187,147.59 L184.203,147.59 C185.807,147.59 186.708,148.49 186.708,150.09 L186.708,155.496 C188.201,150.475 192.148,147.535 197.125,146.791 L197.125,146.789 L197.125,146.789 Z M162.574,146.789 C164.276,146.489 165.178,147.59 165.178,149.19 L165.178,160.991 C165.178,162.592 164.477,163.392 163.175,163.392 C157.565,163.193 152.156,165.992 152.156,173.994 L152.156,195.098 C152.156,196.699 151.255,197.598 149.652,197.598 L139.637,197.598 C138.034,197.598 137.132,196.699 137.132,195.098 L137.132,150.09 C137.132,148.49 138.034,147.59 139.637,147.59 L149.652,147.59 C151.255,147.59 152.156,148.49 152.156,150.09 L152.156,155.496 C153.651,150.475 157.597,147.535 162.574,146.791 L162.574,146.789 Z M183.226,76.509 C183.226,83.078 177.893,88.405 171.313,88.405 C169.933,88.405 168.814,87.287 168.814,85.909 L168.814,33.678 C168.814,32.3 169.933,31.182 171.313,31.182 L180.727,31.182 C182.107,31.182 183.226,32.299 183.226,33.678 L183.226,76.509 Z M159.206,85.908 C159.206,87.286 158.086,88.404 156.707,88.404 L147.293,88.404 C145.913,88.404 144.794,87.286 144.794,85.908 L144.794,47.983 C144.794,46.604 145.913,45.487 147.293,45.487 L156.707,45.487 C158.086,45.487 159.206,46.604 159.206,47.983 L159.206,85.908 Z M135.186,85.908 C135.186,87.286 134.067,88.404 132.687,88.404 L123.274,88.404 C121.894,88.404 120.775,87.286 120.775,85.908 L120.775,40.872 C120.775,39.494 121.894,38.376 123.274,38.376 L132.687,38.376 C134.067,38.376 135.186,39.493 135.186,40.872 L135.186,85.908 Z M168.813,0 L135.186,0 C109.982,0 89.549,20.403 89.549,45.573 L89.549,117.09 C89.549,118.468 90.668,119.585 92.048,119.585 L168.813,119.585 C194.018,119.585 214.451,99.182 214.451,74.013 L214.451,45.573 C214.451,20.403 194.019,0 168.813,0 L168.813,0 Z" id="path-1"></path>
            <path d="M74.539,147.591 L63.723,147.591 C62.22,147.591 61.318,148.191 60.917,149.691 L53.581,176.999 L45.092,149.691 C44.695,148.301 43.703,147.606 42.317,147.595 L42.314,147.591 L42.288,147.591 L34.502,147.591 L34.476,147.591 L34.473,147.595 C33.087,147.606 32.096,148.301 31.698,149.691 L23.209,176.999 L15.872,149.691 C15.472,148.191 14.57,147.591 13.067,147.591 L2.25,147.591 C0.447,147.591 -0.354,148.692 0.146,150.391 L14.57,195.5 C14.971,196.9 16.072,197.601 17.475,197.601 L25.889,197.601 L27.091,197.601 C28.493,197.601 29.594,196.901 29.995,195.501 L38.395,169.228 L46.794,195.501 C47.195,196.9 48.296,197.601 49.698,197.601 L50.9,197.601 L59.313,197.601 C60.716,197.601 61.817,196.901 62.218,195.5 L76.642,150.391 C77.143,148.691 76.341,147.591 74.539,147.591 L74.539,147.591 Z M103.611,184.91 C96.982,184.91 91.609,179.389 91.609,172.576 C91.609,165.765 96.983,160.244 103.611,160.244 C110.239,160.244 115.613,165.765 115.613,172.576 C115.613,179.389 110.24,184.91 103.611,184.91 L103.611,184.91 Z M128.124,147.59 L118.115,147.59 C116.513,147.59 115.613,148.488 115.613,150.088 L115.613,152.314 C111.509,148.493 106.226,146.192 100.462,146.192 C87.398,146.192 76.806,158.004 76.806,172.577 C76.806,187.15 87.397,198.964 100.462,198.964 C106.227,198.964 111.509,196.663 115.613,192.841 L115.613,195.067 C115.613,196.666 116.513,197.566 118.115,197.566 L128.124,197.566 C129.726,197.566 130.627,196.666 130.627,195.067 L130.627,150.089 C130.627,148.488 129.726,147.59 128.124,147.59 L128.124,147.59 Z M304,165.894 L304,195.1 C304,196.7 303.099,197.601 301.496,197.601 L291.479,197.601 C289.876,197.601 288.975,196.7 288.975,195.1 L288.975,167.195 C288.975,162.194 286.071,159.994 282.264,159.994 C277.757,159.994 274.952,162.494 274.952,168.395 L274.952,195.1 C274.952,196.7 274.051,197.601 272.448,197.601 L262.431,197.601 C260.828,197.601 259.927,196.7 259.927,195.1 L259.927,150.091 C259.927,148.49 260.828,147.591 262.431,147.591 L272.448,147.591 C274.051,147.591 274.952,148.49 274.952,150.091 L274.952,152.158 C277.306,148.682 281.569,146.191 287.973,146.191 C297.289,146.191 304,153.391 304,165.894 L304,165.894 Z M218.398,167.194 C219.945,162.207 223.841,159.492 229.473,159.492 C233.891,159.492 238.309,161.503 239.857,167.194 L218.398,167.194 Z M229.574,146.191 C213.748,146.191 202.73,157.692 202.73,172.594 C202.73,187.497 213.347,198.999 229.974,198.999 C240.19,198.999 248.403,194.499 252.31,185.796 C253.111,184.197 252.109,183.097 250.306,183.097 L240.691,183.097 C239.389,183.097 238.587,183.597 237.586,184.397 C235.783,185.898 232.98,186.898 230.175,186.898 C224.955,186.898 220.281,184.539 218.461,178.595 L251.909,178.595 C253.411,178.595 254.413,177.896 254.613,176.296 C254.714,175.095 254.814,173.895 254.814,172.594 C254.814,157.493 244.196,146.191 229.574,146.191 L229.574,146.191 Z M197.125,146.789 C198.828,146.489 199.729,147.59 199.729,149.19 L199.729,160.991 C199.729,162.592 199.028,163.392 197.727,163.392 C192.117,163.193 186.708,165.992 186.708,173.994 L186.708,195.098 C186.708,196.699 185.807,197.598 184.203,197.598 L174.187,197.598 C172.584,197.598 171.683,196.699 171.683,195.098 L171.683,150.09 C171.683,148.49 172.584,147.59 174.187,147.59 L184.203,147.59 C185.807,147.59 186.708,148.49 186.708,150.09 L186.708,155.496 C188.201,150.475 192.148,147.535 197.125,146.791 L197.125,146.789 L197.125,146.789 Z M162.574,146.789 C164.276,146.489 165.178,147.59 165.178,149.19 L165.178,160.991 C165.178,162.592 164.477,163.392 163.175,163.392 C157.565,163.193 152.156,165.992 152.156,173.994 L152.156,195.098 C152.156,196.699 151.255,197.598 149.652,197.598 L139.637,197.598 C138.034,197.598 137.132,196.699 137.132,195.098 L137.132,150.09 C137.132,148.49 138.034,147.59 139.637,147.59 L149.652,147.59 C151.255,147.59 152.156,148.49 152.156,150.09 L152.156,155.496 C153.651,150.475 157.597,147.535 162.574,146.791 L162.574,146.789 Z M183.226,76.509 C183.226,83.078 177.893,88.405 171.313,88.405 C169.933,88.405 168.814,87.287 168.814,85.909 L168.814,33.678 C168.814,32.3 169.933,31.182 171.313,31.182 L180.727,31.182 C182.107,31.182 183.226,32.299 183.226,33.678 L183.226,76.509 Z M159.206,85.908 C159.206,87.286 158.086,88.404 156.707,88.404 L147.293,88.404 C145.913,88.404 144.794,87.286 144.794,85.908 L144.794,47.983 C144.794,46.604 145.913,45.487 147.293,45.487 L156.707,45.487 C158.086,45.487 159.206,46.604 159.206,47.983 L159.206,85.908 Z M135.186,85.908 C135.186,87.286 134.067,88.404 132.687,88.404 L123.274,88.404 C121.894,88.404 120.775,87.286 120.775,85.908 L120.775,40.872 C120.775,39.494 121.894,38.376 123.274,38.376 L132.687,38.376 C134.067,38.376 135.186,39.493 135.186,40.872 L135.186,85.908 Z M168.813,0 L135.186,0 C109.982,0 89.549,20.403 89.549,45.573 L89.549,117.09 C89.549,118.468 90.668,119.585 92.048,119.585 L168.813,119.585 C194.018,119.585 214.451,99.182 214.451,74.013 L214.451,45.573 C214.451,20.403 194.019,0 168.813,0 L168.813,0 Z" id="path-1_1_"></path>
        </g>
    </g>
</svg>